  0
SECTION
  2
HEADER
  9
$ACADVER
  1
AC1018
  9
$ACADMAINTVER
 70
     0
  9
$DWGCODEPAGE
  3
UNDEFINED
  9
$INSBASE
 10
0.0
 20
0.0
 30
0.0
  9
$EXTMIN
 10
1.000000000000000E+20
 20
1.000000000000000E+20
 30
1.000000000000000E+20
  9
$EXTMAX
 10
-1.000000000000000E+20
 20
-1.000000000000000E+20
 30
-1.000000000000000E+20
  9
$LIMMIN
 10
0.0
 20
0.0
  9
$LIMMAX
 10
12.0
 20
9.0
  9
$ORTHOMODE
 70
     0
  9
$REGENMODE
 70
     1
  9
$FILLMODE
 70
     1
  9
$QTEXTMODE
 70
     0
  9
$MIRRTEXT
 70
     1
  9
$LTSCALE
 40
1.0
  9
$ATTMODE
 70
     1
  9
$TEXTSIZE
 40
0.2
  9
$TRACEWID
 40
0.05
  9
$TEXTSTYLE
  7
Standard
  9
$CLAYER
  8
0
  9
$CELTYPE
  6
ByLayer
  9
$CECOLOR
 62
   256
  9
$CELTSCALE
 40
1.0
  9
$DISPSILH
 70
     0
  9
$DIMSCALE
 40
1.0
  9
$DIMASZ
 40
0.18
  9
$DIMEXO
 40
0.0625
  9
$DIMDLI
 40
0.38
  9
$DIMRND
 40
0.0
  9
$DIMDLE
 40
0.0
  9
$DIMEXE
 40
0.18
  9
$DIMTP
 40
0.0
  9
$DIMTM
 40
0.0
  9
$DIMTXT
 40
0.18
  9
$DIMCEN
 40
0.09
  9
$DIMTSZ
 40
0.0
  9
$DIMTOL
 70
     0
  9
$DIMLIM
 70
     0
  9
$DIMTIH
 70
     1
  9
$DIMTOH
 70
     1
  9
$DIMSE1
 70
     0
  9
$DIMSE2
 70
     0
  9
$DIMTAD
 70
     0
  9
$DIMZIN
 70
     0
  9
$DIMBLK
  1

  9
$DIMASO
 70
     1
  9
$DIMSHO
 70
     1
  9
$DIMPOST
  1

  9
$DIMAPOST
  1

  9
$DIMALT
 70
     0
  9
$DIMALTD
 70
     2
  9
$DIMALTF
 40
25.4
  9
$DIMLFAC
 40
1.0
  9
$DIMTOFL
 70
     0
  9
$DIMTVP
 40
0.0
  9
$DIMTIX
 70
     0
  9
$DIMSOXD
 70
     0
  9
$DIMSAH
 70
     0
  9
$DIMBLK1
  1

  9
$DIMBLK2
  1

  9
$DIMSTYLE
  2
Standard
  9
$DIMCLRD
 70
     0
  9
$DIMCLRE
 70
     0
  9
$DIMCLRT
 70
     0
  9
$DIMTFAC
 40
1.0
  9
$DIMGAP
 40
0.09
  9
$DIMJUST
 70
     0
  9
$DIMSD1
 70
     0
  9
$DIMSD2
 70
     0
  9
$DIMTOLJ
 70
     1
  9
$DIMTZIN
 70
     0
  9
$DIMALTZ
 70
     0
  9
$DIMALTTZ
 70
     0
  9
$DIMUPT
 70
     0
  9
$DIMDEC
 70
     4
  9
$DIMTDEC
 70
     4
  9
$DIMALTU
 70
     2
  9
$DIMALTTD
 70
     2
  9
$DIMTXSTY
  7
Standard
  9
$DIMAUNIT
 70
     0
  9
$DIMADEC
 70
     0
  9
$DIMALTRND
 40
0.0
  9
$DIMAZIN
 70
     0
  9
$DIMDSEP
 70
    46
  9
$DIMATFIT
 70
     3
  9
$DIMFRAC
 70
     0
  9
$DIMLDRBLK
  1

  9
$DIMLUNIT
 70
     2
  9
$DIMLWD
 70
    -2
  9
$DIMLWE
 70
    -2
  9
$DIMTMOVE
 70
     0
  9
$LUNITS
 70
     2
  9
$LUPREC
 70
     4
  9
$SKETCHINC
 40
0.1
  9
$FILLETRAD
 40
0.5
  9
$AUNITS
 70
     0
  9
$AUPREC
 70
     0
  9
$MENU
  1
.
  9
$ELEVATION
 40
0.0
  9
$PELEVATION
 40
0.0
  9
$THICKNESS
 40
0.0
  9
$LIMCHECK
 70
     0
  9
$CHAMFERA
 40
0.5
  9
$CHAMFERB
 40
0.5
  9
$CHAMFERC
 40
1.0
  9
$CHAMFERD
 40
0.0
  9
$SKPOLY
 70
     0
  9
$TDCREATE
 40
2457410.075277778
  9
$TDUCREATE
 40
2457410.033611111
  9
$TDUPDATE
 40
2457410.075277778
  9
$TDUUPDATE
 40
2457410.033611111
  9
$TDINDWG
 40
0.0000000116
  9
$TDUSRTIMER
 40
0.0000000116
  9
$USRTIMER
 70
     1
  9
$ANGBASE
 50
0.0
  9
$ANGDIR
 70
     0
  9
$PDMODE
 70
     0
  9
$PDSIZE
 40
0.0
  9
$PLINEWID
 40
0.0
  9
$SPLFRAME
 70
     0
  9
$SPLINETYPE
 70
     6
  9
$SPLINESEGS
 70
     8
  9
$HANDSEED
  5
A0
  9
$SURFTAB1
 70
     6
  9
$SURFTAB2
 70
     6
  9
$SURFTYPE
 70
     6
  9
$SURFU
 70
     6
  9
$SURFV
 70
     6
  9
$UCSBASE
  2

  9
$UCSNAME
  2

  9
$UCSORG
 10
0.0
 20
0.0
 30
0.0
  9
$UCSXDIR
 10
1.0
 20
0.0
 30
0.0
  9
$UCSYDIR
 10
0.0
 20
1.0
 30
0.0
  9
$UCSORTHOREF
  2

  9
$UCSORTHOVIEW
 70
     0
  9
$UCSORGTOP
 10
0.0
 20
0.0
 30
0.0
  9
$UCSORGBOTTOM
 10
0.0
 20
0.0
 30
0.0
  9
$UCSORGLEFT
 10
0.0
 20
0.0
 30
0.0
  9
$UCSORGRIGHT
 10
0.0
 20
0.0
 30
0.0
  9
$UCSORGFRONT
 10
0.0
 20
0.0
 30
0.0
  9
$UCSORGBACK
 10
0.0
 20
0.0
 30
0.0
  9
$PUCSBASE
  2

  9
$PUCSNAME
  2

  9
$PUCSORG
 10
0.0
 20
0.0
 30
0.0
  9
$PUCSXDIR
 10
1.0
 20
0.0
 30
0.0
  9
$PUCSYDIR
 10
0.0
 20
1.0
 30
0.0
  9
$PUCSORTHOREF
  2

  9
$PUCSORTHOVIEW
 70
     0
  9
$PUCSORGTOP
 10
0.0
 20
0.0
 30
0.0
  9
$PUCSORGBOTTOM
 10
0.0
 20
0.0
 30
0.0
  9
$PUCSORGLEFT
 10
0.0
 20
0.0
 30
0.0
  9
$PUCSORGRIGHT
 10
0.0
 20
0.0
 30
0.0
  9
$PUCSORGFRONT
 10
0.0
 20
0.0
 30
0.0
  9
$PUCSORGBACK
 10
0.0
 20
0.0
 30
0.0
  9
$USERI1
 70
     0
  9
$USERI2
 70
     0
  9
$USERI3
 70
     0
  9
$USERI4
 70
     0
  9
$USERI5
 70
     0
  9
$USERR1
 40
0.0
  9
$USERR2
 40
0.0
  9
$USERR3
 40
0.0
  9
$USERR4
 40
0.0
  9
$USERR5
 40
0.0
  9
$WORLDVIEW
 70
     1
  9
$SHADEDGE
 70
     3
  9
$SHADEDIF
 70
    70
  9
$TILEMODE
 70
     1
  9
$MAXACTVP
 70
    64
  9
$PINSBASE
 10
0.0
 20
0.0
 30
0.0
  9
$PLIMCHECK
 70
     0
  9
$PEXTMIN
 10
1.000000000000000E+20
 20
1.000000000000000E+20
 30
1.000000000000000E+20
  9
$PEXTMAX
 10
-1.000000000000000E+20
 20
-1.000000000000000E+20
 30
-1.000000000000000E+20
  9
$PLIMMIN
 10
0.0
 20
0.0
  9
$PLIMMAX
 10
12.0
 20
9.0
  9
$UNITMODE
 70
     0
  9
$VISRETAIN
 70
     1
  9
$PLINEGEN
 70
     0
  9
$PSLTSCALE
 70
     1
  9
$TREEDEPTH
 70
  3020
  9
$CMLSTYLE
  2
Standard
  9
$CMLJUST
 70
     0
  9
$CMLSCALE
 40
1.0
  9
$PROXYGRAPHICS
 70
     1
  9
$MEASUREMENT
 70
     0
  9
$CELWEIGHT
370
    -1
  9
$ENDCAPS
280
     0
  9
$JOINSTYLE
280
     0
  9
$LWDISPLAY
290
     1
  9
$INSUNITS
 70
     1
  9
$HYPERLINKBASE
  1

  9
$STYLESHEET
  1

  9
$XEDIT
290
     1
  9
$CEPSNTYPE
380
     0
  9
$PSTYLEMODE
290
     1
  9
$FINGERPRINTGUID
  2
{5C65DDD2-97D3-B423-6B51-F2FE1A49E528}
  9
$VERSIONGUID
  2
{FAEB1C32-E019-11D5-929B-00C0DF256EC4}
  9
$EXTNAMES
290
     1
  9
$PSVPSCALE
 40
0.0
  9
$OLESTARTUP
290
     0
  9
$SORTENTS
280
   127
  9
$INDEXCTL
280
     0
  9
$HIDETEXT
280
     1
  9
$XCLIPFRAME
290
     0
  9
$HALOGAP
280
     0
  9
$OBSCOLOR
 70
   257
  9
$OBSLTYPE
280
     0
  9
$INTERSECTIONDISPLAY
280
     0
  9
$INTERSECTIONCOLOR
 70
   257
  9
$DIMASSOC
280
     2
  9
$PROJECTNAME
  1

  0
ENDSEC
  0
SECTION
  2
CLASSES
  0
CLASS
  1
ACDBDICTIONARYWDFLT
  2
AcDbDictionaryWithDefault
  3
ObjectDBX Classes
 90
        0
 91
        4
280
     0
281
     0
  0
CLASS
  1
VISUALSTYLE
  2
AcDbVisualStyle
  3
ObjectDBX Classes
 90
     4095
 91
        4
280
     0
281
     0
  0
CLASS
  1
MATERIAL
  2
AcDbMaterial
  3
ObjectDBX Classes
 90
     1153
 91
        4
280
     0
281
     0
  0
CLASS
  1
SUN
  2
AcDbSun
  3
SCENEOE
 90
     1024
 91
        4
280
     0
281
     0
  0
ENDSEC
  0
SECTION
  2
TABLES
  0
TABLE
  2
VPORT
  5
8
330
0
100
AcDbSymbolTable
 70
     1
  0
VPORT
  5
29
330
8
100
AcDbSymbolTableRecord
100
AcDbViewportTableRecord
  2
*Active
 70
     0
 10
0.0
 20
0.0
 11
1.0
 21
1.0
 12
0.0
 22
0.0
 13
0.0
 23
0.0
 14
0.5
 24
0.5
 15
0.5
 25
0.5
 16
0.0
 26
0.0
 36
1.0
 17
62.50000180695258
 27
50.00000036896973
 37
0.0
 40
100.0000007379395
 41
1.250000026914808
 42
50.0
 43
0.0
 44
0.0
 50
0.0
 51
0.0
 71
     0
 72
   100
 73
     1
 74
     3
 75
     0
 76
     0
 77
     0
 78
     0
281
     0
 65
     1
110
0.0
120
0.0
130
0.0
111
1.0
121
0.0
131
0.0
112
0.0
122
1.0
132
0.0
 79
     0
146
0.0
  0
ENDTAB
  0
TABLE
  2
LTYPE
  5
5
330
0
100
AcDbSymbolTable
 70
     1
  0
LTYPE
  5
14
330
5
100
AcDbSymbolTableRecord
100
AcDbLinetypeTableRecord
  2
ByBlock
 70
     0
  3

 72
    65
 73
     0
 40
0.0
  0
LTYPE
  5
15
330
5
100
AcDbSymbolTableRecord
100
AcDbLinetypeTableRecord
  2
ByLayer
 70
     0
  3

 72
    65
 73
     0
 40
0.0
  0
LTYPE
  5
16
330
5
100
AcDbSymbolTableRecord
100
AcDbLinetypeTableRecord
  2
Continuous
 70
     0
  3
Solid line
 72
    65
 73
     0
 40
0.0
  0
ENDTAB
  0
TABLE
  2
LAYER
  5
2
330
0
100
AcDbSymbolTable
 70
     2
  0
LAYER
  5
10
330
2
100
AcDbSymbolTableRecord
100
AcDbLayerTableRecord
  2
0
 70
     0
 62
     7
  6
Continuous
370
    -3
390
F
  0
LAYER
  5
40
330
2
100
AcDbSymbolTableRecord
100
AcDbLayerTableRecord
  2
svg2
 70
     0
 62
     7
  6
Continuous
370
    -3
390
F
  0
ENDTAB
  0
TABLE
  2
STYLE
  5
3
330
0
100
AcDbSymbolTable
 70
     1
  0
STYLE
  5
11
330
3
100
AcDbSymbolTableRecord
100
AcDbTextStyleTableRecord
  2
Standard
 70
     0
 40
0.0
 41
1.0
 50
0.0
 71
     0
 42
0.2
  3
txt
  4

  0
ENDTAB
  0
TABLE
  2
VIEW
  5
6
330
0
100
AcDbSymbolTable
 70
     0
  0
ENDTAB
  0
TABLE
  2
UCS
  5
7
330
0
100
AcDbSymbolTable
 70
     0
  0
ENDTAB
  0
TABLE
  2
APPID
  5
9
330
0
100
AcDbSymbolTable
 70
     1
  0
APPID
  5
12
330
9
100
AcDbSymbolTableRecord
100
AcDbRegAppTableRecord
  2
ACAD
 70
     0
  0
ENDTAB
  0
TABLE
  2
DIMSTYLE
  5
A
330
0
100
AcDbSymbolTable
 70
     1
100
AcDbDimStyleTable
  0
DIMSTYLE
105
27
330
A
100
AcDbSymbolTableRecord
100
AcDbDimStyleTableRecord
  2
Standard
 70
     0
178
     0
340
11
  0
ENDTAB
  0
TABLE
  2
BLOCK_RECORD
  5
1
330
0
100
AcDbSymbolTable
 70
    11
  0
BLOCK_RECORD
  5
1F
330
1
100
AcDbSymbolTableRecord
100
AcDbBlockTableRecord
  2
*Model_Space
340
22
  0
BLOCK_RECORD
  5
1B
330
1
100
AcDbSymbolTableRecord
100
AcDbBlockTableRecord
  2
*Paper_Space
340
1E
  0
BLOCK_RECORD
  5
23
330
1
100
AcDbSymbolTableRecord
100
AcDbBlockTableRecord
  2
*Paper_Space0
340
26
  0
BLOCK_RECORD
  5
41
330
1
100
AcDbSymbolTableRecord
100
AcDbBlockTableRecord
  2
block 2
340
0
102
{BLKREFS
331
42
102
}
  0
BLOCK_RECORD
  5
45
330
1
100
AcDbSymbolTableRecord
100
AcDbBlockTableRecord
  2
block 3
340
0
102
{BLKREFS
331
46
102
}
  0
BLOCK_RECORD
  5
49
330
1
100
AcDbSymbolTableRecord
100
AcDbBlockTableRecord
  2
block 4
340
0
102
{BLKREFS
331
4A
102
}
  0
BLOCK_RECORD
  5
4D
330
1
100
AcDbSymbolTableRecord
100
AcDbBlockTableRecord
  2
block 5
340
0
102
{BLKREFS
331
4E
102
}
  0
BLOCK_RECORD
  5
56
330
1
100
AcDbSymbolTableRecord
100
AcDbBlockTableRecord
  2
block 6
340
0
102
{BLKREFS
331
57
102
}
  0
BLOCK_RECORD
  5
5A
330
1
100
AcDbSymbolTableRecord
100
AcDbBlockTableRecord
  2
block 7
340
0
102
{BLKREFS
331
5B
102
}
  0
BLOCK_RECORD
  5
64
330
1
100
AcDbSymbolTableRecord
100
AcDbBlockTableRecord
  2
block 8
340
0
102
{BLKREFS
331
65
102
}
  0
BLOCK_RECORD
  5
68
330
1
100
AcDbSymbolTableRecord
100
AcDbBlockTableRecord
  2
block 9
340
0
102
{BLKREFS
331
69
102
}
  0
BLOCK_RECORD
  5
6C
330
1
100
AcDbSymbolTableRecord
100
AcDbBlockTableRecord
  2
block 10
340
0
102
{BLKREFS
331
6D
102
}
  0
BLOCK_RECORD
  5
70
330
1
100
AcDbSymbolTableRecord
100
AcDbBlockTableRecord
  2
block 11
340
0
102
{BLKREFS
331
71
102
}
  0
ENDTAB
  0
ENDSEC
  0
SECTION
  2
BLOCKS
  0
BLOCK
  5
20
330
1F
100
AcDbEntity
  8
0
100
AcDbBlockBegin
  2
*Model_Space
 70
     0
 10
0.0
 20
0.0
 30
0.0
  3
*Model_Space
  1

  0
ENDBLK
  5
21
330
1F
100
AcDbEntity
  8
0
100
AcDbBlockEnd
  0
BLOCK
  5
1C
330
1B
100
AcDbEntity
 67
     1
  8
0
100
AcDbBlockBegin
  2
*Paper_Space
 70
     0
 10
0.0
 20
0.0
 30
0.0
  3
*Paper_Space
  1

  0
ENDBLK
  5
1D
330
1B
100
AcDbEntity
 67
     1
  8
0
100
AcDbBlockEnd
  0
BLOCK
  5
24
330
23
100
AcDbEntity
  8
0
100
AcDbBlockBegin
  2
*Paper_Space0
 70
     0
 10
0.0
 20
0.0
 30
0.0
  3
*Paper_Space0
  1

  0
ENDBLK
  5
25
330
23
100
AcDbEntity
  8
0
100
AcDbBlockEnd
  0
BLOCK
  5
43
330
41
100
AcDbEntity
  8
0
100
AcDbBlockBegin
  2
block 2
 70
     0
 10
0.0
 20
0.0
 30
0.0
  3
block 2
  1

  0
ENDBLK
  5
44
330
41
100
AcDbEntity
  8
0
100
AcDbBlockEnd
  0
BLOCK
  5
47
330
45
100
AcDbEntity
  8
0
100
AcDbBlockBegin
  2
block 3
 70
     0
 10
0.0
 20
0.0
 30
0.0
  3
block 3
  1

  0
ENDBLK
  5
48
330
45
100
AcDbEntity
  8
0
100
AcDbBlockEnd
  0
BLOCK
  5
4B
330
49
100
AcDbEntity
  8
0
100
AcDbBlockBegin
  2
block 4
 70
     0
 10
0.0
 20
0.0
 30
0.0
  3
block 4
  1

  0
INSERT
  5
4E
330
49
100
AcDbEntity
  8
svg2
100
AcDbBlockReference
  2
block 5
 10
0.0
 20
0.0
 30
0.0
  0
ENDBLK
  5
4C
330
49
100
AcDbEntity
  8
0
100
AcDbBlockEnd
  0
BLOCK
  5
4F
330
4D
100
AcDbEntity
  8
0
100
AcDbBlockBegin
  2
block 5
 70
     0
 10
0.0
 20
0.0
 30
0.0
  3
block 5
  1

  0
SPLINE
  5
51
330
4D
100
AcDbEntity
  8
svg2
 62
     7
370
    40
100
AcDbSpline
210
0.0
220
0.0
230
1.0
 70
    11
 71
     3
 72
    17
 73
    13
 74
     0
 42
0.0000000001
 43
0.0000000001
 12
1.0
 22
0.0
 32
0.0
 13
1.0
 23
0.0
 33
0.0
 40
0.0
 40
0.0
 40
0.0
 40
0.0
 40
1.0
 40
1.0
 40
1.0
 40
2.0
 40
2.0
 40
2.0
 40
3.0
 40
3.0
 40
3.0
 40
4.0
 40
4.0
 40
4.0
 40
4.0
 10
121.280182949584
 20
4.013481114962436
 30
0.0
 10
120.3964814934944
 20
4.013481114962436
 30
0.0
 10
119.6803322588266
 20
4.729613124152517
 30
0.0
 10
119.6803322588266
 20
5.613349031197497
 30
0.0
 10
119.6803322588266
 20
6.49705048728711
 30
0.0
 10
120.3964642680167
 20
7.213182496477192
 30
0.0
 10
121.280182949584
 20
7.213182496477192
 30
0.0
 10
122.1638844056736
 20
7.213182496477192
 30
0.0
 10
122.8800336403414
 20
6.49705048728711
 30
0.0
 10
122.8800336403414
 20
5.613349031197497
 30
0.0
 10
122.8800336403414
 20
4.729630349630201
 30
0.0
 10
122.1639016311513
 20
4.013481114962436
 30
0.0
 10
121.280182949584
 20
4.013481114962436
 30
0.0
  0
SPLINE
  5
52
330
4D
100
AcDbEntity
  8
svg2
 62
     7
370
    40
100
AcDbSpline
210
0.0
220
0.0
230
1.0
 70
    11
 71
     3
 72
    17
 73
    13
 74
     0
 42
0.0000000001
 43
0.0000000001
 12
1.0
 22
0.0
 32
0.0
 13
1.0
 23
0.0
 33
0.0
 40
0.0
 40
0.0
 40
0.0
 40
0.0
 40
1.0
 40
1.0
 40
1.0
 40
2.0
 40
2.0
 40
2.0
 40
3.0
 40
3.0
 40
3.0
 40
4.0
 40
4.0
 40
4.0
 40
4.0
 10
121.280182949584
 20
95.98654208704053
 30
0.0
 10
122.1638844056736
 20
95.98654208704053
 30
0.0
 10
122.8800336403414
 20
95.2704014651116
 30
0.0
 10
122.8800336403414
 20
94.38669139628315
 30
0.0
 10
122.8800336403414
 20
93.5029813274547
 30
0.0
 10
122.1639016311513
 20
92.78648758323328
 30
0.0
 10
121.280182949584
 20
92.78648758323328
 30
0.0
 10
120.3964814934944
 20
92.78648758323328
 30
0.0
 10
119.6799877492729
 20
93.5029813274547
 30
0.0
 10
119.6799877492729
 20
94.38669139628315
 30
0.0
 10
119.6799877492729
 20
95.2704014651116
 30
0.0
 10
120.3964814934944
 20
95.98654208704053
 30
0.0
 10
121.280182949584
 20
95.98654208704053
 30
0.0
  0
SPLINE
  5
53
330
4D
100
AcDbEntity
  8
svg2
 62
     7
370
    40
100
AcDbSpline
210
0.0
220
0.0
230
1.0
 70
    11
 71
     3
 72
    17
 73
    13
 74
     0
 42
0.0000000001
 43
0.0000000001
 12
1.0
 22
0.0
 32
0.0
 13
1.0
 23
0.0
 33
0.0
 40
0.0
 40
0.0
 40
0.0
 40
0.0
 40
1.0
 40
1.0
 40
1.0
 40
2.0
 40
2.0
 40
2.0
 40
3.0
 40
3.0
 40
3.0
 40
4.0
 40
4.0
 40
4.0
 40
4.0
 10
3.72016488333503
 20
4.013481114962436
 30
0.0
 10
2.836454814506575
 20
4.013481114962436
 30
0.0
 10
2.119965376654572
 20
4.729613124152517
 30
0.0
 10
2.119965376654572
 20
5.613349031197497
 30
0.0
 10
2.119965376654572
 20
6.49705048728711
 30
0.0
 10
2.836459120875995
 20
7.213182496477192
 30
0.0
 10
3.72016488333503
 20
7.213182496477192
 30
0.0
 10
4.603874952163485
 20
7.213182496477192
 30
0.0
 10
5.320364390015488
 20
6.49705048728711
 30
0.0
 10
5.320364390015488
 20
5.613349031197497
 30
0.0
 10
5.320364390015488
 20
4.729630349630201
 30
0.0
 10
4.603870645794064
 20
4.013481114962436
 30
0.0
 10
3.72016488333503
 20
4.013481114962436
 30
0.0
  0
SPLINE
  5
54
330
4D
100
AcDbEntity
  8
svg2
 62
     7
370
    40
100
AcDbSpline
210
0.0
220
0.0
230
1.0
 70
    11
 71
     3
 72
    17
 73
    13
 74
     0
 42
0.0000000001
 43
0.0000000001
 12
1.0
 22
0.0
 32
0.0
 13
1.0
 23
0.0
 33
0.0
 40
0.0
 40
0.0
 40
0.0
 40
0.0
 40
1.0
 40
1.0
 40
1.0
 40
2.0
 40
2.0
 40
2.0
 40
3.0
 40
3.0
 40
3.0
 40
4.0
 40
4.0
 40
4.0
 40
4.0
 10
3.72016488333503
 20
95.98654208704053
 30
0.0
 10
4.603874952163485
 20
95.98654208704053
 30
0.0
 10
5.320364390015488
 20
95.2704014651116
 30
0.0
 10
5.320364390015488
 20
94.38669139628315
 30
0.0
 10
5.320364390015488
 20
93.5029813274547
 30
0.0
 10
4.603870645794064
 20
92.78648758323328
 30
0.0
 10
3.72016488333503
 20
92.78648758323328
 30
0.0
 10
2.836454814506575
 20
92.78648758323328
 30
0.0
 10
2.119965376654572
 20
93.5029813274547
 30
0.0
 10
2.119965376654572
 20
94.38669139628315
 30
0.0
 10
2.119965376654572
 20
95.2704014651116
 30
0.0
 10
2.836459120875995
 20
95.98654208704053
 30
0.0
 10
3.72016488333503
 20
95.98654208704053
 30
0.0
  0
SPLINE
  5
55
330
4D
100
AcDbEntity
  8
svg2
 62
     7
370
    40
100
AcDbSpline
210
0.0
220
0.0
230
1.0
 70
    11
 71
     3
 72
    29
 73
    25
 74
     0
 42
0.0000000001
 43
0.0000000001
 12
1.0
 22
0.0
 32
0.0
 13
1.0
 23
0.0
 33
0.0
 40
0.0
 40
0.0
 40
0.0
 40
0.0
 40
1.0
 40
1.0
 40
1.0
 40
2.0
 40
2.0
 40
2.0
 40
3.0
 40
3.0
 40
3.0
 40
4.0
 40
4.0
 40
4.0
 40
5.0
 40
5.0
 40
5.0
 40
6.0
 40
6.0
 40
6.0
 40
7.0
 40
7.0
 40
7.0
 40
8.0
 40
8.0
 40
8.0
 40
8.0
 10
121.7800835374203
 20
96.8868316781388
 30
0.0
 10
121.7800835374203
 20
96.8868316781388
 30
0.0
 10
3.219937011422777
 20
96.8868316781388
 30
0.0
 10
3.219937011422777
 20
96.8868316781388
 30
0.0
 10
2.119973989393414
 20
96.8868316781388
 30
0.0
 10
1.220041826957061
 20
95.98654208704053
 30
0.0
 10
1.220041826957061
 20
94.8865833713806
 30
0.0
 10
1.220041826957061
 20
94.8865833713806
 30
0.0
 10
1.220041826957061
 20
5.11344844336122
 30
0.0
 10
1.220041826957061
 20
5.11344844336122
 30
0.0
 10
1.220041826957061
 20
4.013481114962436
 30
0.0
 10
2.119978295762834
 20
3.113191523864162
 30
0.0
 10
3.219937011422777
 20
3.113191523864162
 30
0.0
 10
3.219937011422777
 20
3.113191523864162
 30
0.0
 10
121.7800835374203
 20
3.113191523864162
 30
0.0
 10
121.7800835374203
 20
3.113191523864162
 30
0.0
 10
122.880050865819
 20
3.113191523864162
 30
0.0
 10
123.779978721886
 20
4.013481114962436
 30
0.0
 10
123.779978721886
 20
5.11344844336122
 30
0.0
 10
123.779978721886
 20
5.11344844336122
 30
0.0
 10
123.779978721886
 20
94.8865833713806
 30
0.0
 10
123.779978721886
 20
94.8865833713806
 30
0.0
 10
123.779978721886
 20
95.98654208704053
 30
0.0
 10
122.880050865819
 20
96.8868316781388
 30
0.0
 10
121.7800835374203
 20
96.8868316781388
 30
0.0
  0
ENDBLK
  5
50
330
4D
100
AcDbEntity
  8
0
100
AcDbBlockEnd
  0
BLOCK
  5
58
330
56
100
AcDbEntity
  8
0
100
AcDbBlockBegin
  2
block 6
 70
     0
 10
0.0
 20
0.0
 30
0.0
  3
block 6
  1

  0
ENDBLK
  5
59
330
56
100
AcDbEntity
  8
0
100
AcDbBlockEnd
  0
BLOCK
  5
5C
330
5A
100
AcDbEntity
  8
0
100
AcDbBlockBegin
  2
block 7
 70
     0
 10
0.0
 20
0.0
 30
0.0
  3
block 7
  1

  0
POLYLINE
  5
5E
330
5A
100
AcDbEntity
  8
svg2
 62
     7
370
    40
100
AcDb2dPolyline
 66
     1
 10
0.0
 20
0.0
 30
0.0
  0
VERTEX
  5
5F
330
5E
100
AcDbEntity
  8
svg2
 62
     7
370
    40
100
AcDbVertex
100
AcDb2dVertex
 10
0.0
 20
214.0000036278152
 30
0.0
  0
VERTEX
  5
76
330
5E
100
AcDbEntity
  8
0
100
AcDbVertex
100
AcDb2dVertex
 10
0.0
 20
214.0000036278152
 30
0.0
  0
SEQEND
  5
60
330
5E
100
AcDbEntity
  8
svg2
 62
     7
370
    40
  0
POLYLINE
  5
61
330
5A
100
AcDbEntity
  8
svg2
 62
     7
370
    40
100
AcDb2dPolyline
 66
     1
 10
0.0
 20
0.0
 30
0.0
  0
VERTEX
  5
62
330
61
100
AcDbEntity
  8
svg2
 62
     7
370
    40
100
AcDbVertex
100
AcDb2dVertex
 10
0.0
 20
214.0000036278152
 30
0.0
  0
VERTEX
  5
77
330
61
100
AcDbEntity
  8
0
100
AcDbVertex
100
AcDb2dVertex
 10
0.0
 20
214.0000036278152
 30
0.0
  0
SEQEND
  5
63
330
61
100
AcDbEntity
  8
svg2
 62
     7
370
    40
  0
ENDBLK
  5
5D
330
5A
100
AcDbEntity
  8
0
100
AcDbBlockEnd
  0
BLOCK
  5
66
330
64
100
AcDbEntity
  8
0
100
AcDbBlockBegin
  2
block 8
 70
     0
 10
0.0
 20
0.0
 30
0.0
  3
block 8
  1

  0
ENDBLK
  5
67
330
64
100
AcDbEntity
  8
0
100
AcDbBlockEnd
  0
BLOCK
  5
6A
330
68
100
AcDbEntity
  8
0
100
AcDbBlockBegin
  2
block 9
 70
     0
 10
0.0
 20
0.0
 30
0.0
  3
block 9
  1

  0
ENDBLK
  5
6B
330
68
100
AcDbEntity
  8
0
100
AcDbBlockEnd
  0
BLOCK
  5
6E
330
6C
100
AcDbEntity
  8
0
100
AcDbBlockBegin
  2
block 10
 70
     0
 10
0.0
 20
0.0
 30
0.0
  3
block 10
  1

  0
ENDBLK
  5
6F
330
6C
100
AcDbEntity
  8
0
100
AcDbBlockEnd
  0
BLOCK
  5
72
330
70
100
AcDbEntity
  8
0
100
AcDbBlockBegin
  2
block 11
 70
     0
 10
0.0
 20
0.0
 30
0.0
  3
block 11
  1

  0
SPLINE
  5
74
330
70
100
AcDbEntity
  8
svg2
370
     0
100
AcDbSpline
210
0.0
220
0.0
230
1.0
 70
    11
 71
     3
 72
   269
 73
   265
 74
     0
 42
0.0000000001
 43
0.0000000001
 12
1.0
 22
0.0
 32
0.0
 13
1.0
 23
0.0
 33
0.0
 40
0.0
 40
0.0
 40
0.0
 40
0.0
 40
1.0
 40
1.0
 40
1.0
 40
2.0
 40
2.0
 40
2.0
 40
3.0
 40
3.0
 40
3.0
 40
4.0
 40
4.0
 40
4.0
 40
5.0
 40
5.0
 40
5.0
 40
6.0
 40
6.0
 40
6.0
 40
7.0
 40
7.0
 40
7.0
 40
8.0
 40
8.0
 40
8.0
 40
9.0
 40
9.0
 40
9.0
 40
10.0
 40
10.0
 40
10.0
 40
11.0
 40
11.0
 40
11.0
 40
12.0
 40
12.0
 40
12.0
 40
13.0
 40
13.0
 40
13.0
 40
14.0
 40
14.0
 40
14.0
 40
15.0
 40
15.0
 40
15.0
 40
16.0
 40
16.0
 40
16.0
 40
17.0
 40
17.0
 40
17.0
 40
18.0
 40
18.0
 40
18.0
 40
19.0
 40
19.0
 40
19.0
 40
20.0
 40
20.0
 40
20.0
 40
21.0
 40
21.0
 40
21.0
 40
22.0
 40
22.0
 40
22.0
 40
23.0
 40
23.0
 40
23.0
 40
24.0
 40
24.0
 40
24.0
 40
25.0
 40
25.0
 40
25.0
 40
26.0
 40
26.0
 40
26.0
 40
27.0
 40
27.0
 40
27.0
 40
28.0
 40
28.0
 40
28.0
 40
29.0
 40
29.0
 40
29.0
 40
30.0
 40
30.0
 40
30.0
 40
31.0
 40
31.0
 40
31.0
 40
32.0
 40
32.0
 40
32.0
 40
33.0
 40
33.0
 40
33.0
 40
34.0
 40
34.0
 40
34.0
 40
35.0
 40
35.0
 40
35.0
 40
36.0
 40
36.0
 40
36.0
 40
37.0
 40
37.0
 40
37.0
 40
38.0
 40
38.0
 40
38.0
 40
39.0
 40
39.0
 40
39.0
 40
40.0
 40
40.0
 40
40.0
 40
41.0
 40
41.0
 40
41.0
 40
42.0
 40
42.0
 40
42.0
 40
43.0
 40
43.0
 40
43.0
 40
44.0
 40
44.0
 40
44.0
 40
45.0
 40
45.0
 40
45.0
 40
46.0
 40
46.0
 40
46.0
 40
47.0
 40
47.0
 40
47.0
 40
48.0
 40
48.0
 40
48.0
 40
49.0
 40
49.0
 40
49.0
 40
50.0
 40
50.0
 40
50.0
 40
51.0
 40
51.0
 40
51.0
 40
52.0
 40
52.0
 40
52.0
 40
53.0
 40
53.0
 40
53.0
 40
54.0
 40
54.0
 40
54.0
 40
55.0
 40
55.0
 40
55.0
 40
56.0
 40
56.0
 40
56.0
 40
57.0
 40
57.0
 40
57.0
 40
58.0
 40
58.0
 40
58.0
 40
59.0
 40
59.0
 40
59.0
 40
60.0
 40
60.0
 40
60.0
 40
61.0
 40
61.0
 40
61.0
 40
62.0
 40
62.0
 40
62.0
 40
63.0
 40
63.0
 40
63.0
 40
64.0
 40
64.0
 40
64.0
 40
65.0
 40
65.0
 40
65.0
 40
66.0
 40
66.0
 40
66.0
 40
67.0
 40
67.0
 40
67.0
 40
68.0
 40
68.0
 40
68.0
 40
69.0
 40
69.0
 40
69.0
 40
70.0
 40
70.0
 40
70.0
 40
71.0
 40
71.0
 40
71.0
 40
72.0
 40
72.0
 40
72.0
 40
73.0
 40
73.0
 40
73.0
 40
74.0
 40
74.0
 40
74.0
 40
75.0
 40
75.0
 40
75.0
 40
76.0
 40
76.0
 40
76.0
 40
77.0
 40
77.0
 40
77.0
 40
78.0
 40
78.0
 40
78.0
 40
79.0
 40
79.0
 40
79.0
 40
80.0
 40
80.0
 40
80.0
 40
81.0
 40
81.0
 40
81.0
 40
82.0
 40
82.0
 40
82.0
 40
83.0
 40
83.0
 40
83.0
 40
84.0
 40
84.0
 40
84.0
 40
85.0
 40
85.0
 40
85.0
 40
86.0
 40
86.0
 40
86.0
 40
87.0
 40
87.0
 40
87.0
 40
88.0
 40
88.0
 40
88.0
 40
88.0
 10
72.33819543646615
 20
8.935256564133793
 30
0.0
 10
72.66672835957381
 20
9.791414481408403
 30
0.0
 10
71.74139292392456
 20
13.08266927680793
 30
0.0
 10
70.48649103650668
 20
15.5214351816793
 30
0.0
 10
69.21161190134569
 20
17.999027313248
 30
0.0
 10
68.91409775717588
 20
19.3899846361445
 30
0.0
 10
68.71241325172531
 20
23.8156232643533
 30
0.0
 10
68.51452265773473
 20
28.15783890414368
 30
0.0
 10
68.554003452584
 20
29.38196747568101
 30
0.0
 10
68.93638321892786
 20
30.7609358661102
 30
0.0
 10
69.08770042763418
 20
31.30663899910538
 30
0.0
 10
69.48668555446437
 20
32.8097858581508
 30
0.0
 10
69.82301300622356
 20
34.1012488219507
 30
0.0
 10
70.15933615161364
 20
35.39271178575061
 30
0.0
 10
70.73293163934659
 20
37.06451329678958
 30
0.0
 10
71.09765959743582
 20
37.81635372121637
 30
0.0
 10
71.46239186189416
 20
38.56819414564316
 30
0.0
 10
71.96795532551903
 20
39.90024033486404
 30
0.0
 10
72.22113970287181
 20
40.7764314826839
 30
0.0
 10
72.4743197738555
 20
41.65263985598144
 30
0.0
 10
72.74120271233596
 20
42.36952978618957
 30
0.0
 10
72.81420428675621
 20
42.36952978618957
 30
0.0
 10
72.88720586117645
 20
42.36952978618957
 30
0.0
 10
73.51795117749226
 20
41.85164579965232
 30
0.0
 10
74.21586724403265
 20
41.21866117123773
 30
0.0
 10
77.03088925793224
 20
38.66553532002939
 30
0.0
 10
79.98076953661148
 20
36.63215380694806
 30
0.0
 10
81.43792437024348
 20
36.24044644443826
 30
0.0
 10
82.03253924711933
 20
36.08059401154068
 30
0.0
 10
82.6548440793705
 20
35.59814283259721
 30
0.0
 10
83.91839315658522
 20
34.31737689043841
 30
0.0
 10
84.84608848267703
 20
33.37705528920501
 30
0.0
 10
85.9877586925462
 20
32.3419935607155
 30
0.0
 10
86.45543902437655
 20
32.01725885543692
 30
0.0
 10
87.56351094002515
 20
31.24784844377355
 30
0.0
 10
92.28549668629105
 20
29.09747148626976
 30
0.0
 10
94.65694542437755
 20
28.28231020588052
 30
0.0
 10
95.6811723274045
 20
27.93023866751914
 30
0.0
 10
97.50144023059264
 20
27.2343465946065
 30
0.0
 10
98.70198712318204
 20
26.73589294689559
 30
0.0
 10
100.5969360848645
 20
25.94911925372782
 30
0.0
 10
101.0418098842427
 20
25.67008374074205
 30
0.0
 10
102.0754246726068
 20
24.62012197405681
 30
0.0
 10
102.7863459747978
 20
23.8979610476777
 30
0.0
 10
103.5179809139025
 20
22.89261326819124
 30
0.0
 10
103.8913259172023
 20
22.12485650238543
 30
0.0
 10
105.1363576059079
 20
19.56459930341635
 30
0.0
 10
107.0190334147413
 20
16.9878745477824
 30
0.0
 10
108.6226220341559
 20
15.64933435347505
 30
0.0
 10
110.3926604444206
 20
14.1718534561772
 30
0.0
 10
110.9932525620524
 20
14.04590076335962
 30
0.0
 10
111.8237531303183
 20
14.97798858626058
 30
0.0
 10
112.2370181781483
 20
15.44180179835112
 30
0.0
 10
112.4233547829834
 20
15.52570710014467
 30
0.0
 10
112.7052066615703
 20
15.37486359207526
 30
0.0
 10
113.2130998710514
 20
15.10304555423865
 30
0.0
 10
114.3929331267271
 20
15.13790992106889
 30
0.0
 10
114.6260369034714
 20
15.43163876651819
 30
0.0
 10
114.7343076434474
 20
15.56806454976699
 30
0.0
 10
114.8818783107571
 20
16.00731423068168
 30
0.0
 10
114.9539669348601
 20
16.40775491037672
 30
0.0
 10
115.0531081716642
 20
16.95848788285532
 30
0.0
 10
115.2527428452705
 20
17.23476731941182
 30
0.0
 10
115.7735896139692
 20
17.54208706675295
 30
0.0
 10
116.9621303486136
 20
18.24335348870266
 30
0.0
 10
116.7903923361148
 20
18.68553150082344
 30
0.0
 10
114.141243059563
 20
21.74472466087855
 30
0.0
 10
112.7065416360907
 20
23.40148832990033
 30
0.0
 10
110.9059280029388
 20
26.29347377808724
 30
0.0
 10
110.9059107774611
 20
26.94103116062159
 30
0.0
 10
110.9058935519834
 20
27.53829014832178
 30
0.0
 10
111.6092356439939
 20
28.03236852470122
 30
0.0
 10
112.6665010132167
 20
28.17778600730051
 30
0.0
 10
114.0519720214712
 20
28.36833424142907
 30
0.0
 10
114.6762147199617
 20
28.89024898974413
 30
0.0
 10
114.6762147199617
 20
29.85809690431485
 30
0.0
 10
114.6762147199617
 20
30.28172307697112
 30
0.0
 10
114.5476437545364
 20
30.71985310183641
 30
0.0
 10
114.3833040847024
 20
30.85624443412984
 30
0.0
 10
114.0527213297504
 20
31.13061184266353
 30
0.0
 10
112.8510289428951
 20
31.04109103514535
 30
0.0
 10
111.5745779828959
 20
30.64702378219299
 30
0.0
 10
110.8389467329687
 20
30.41992308442125
 30
0.0
 10
110.6521967166693
 20
30.43819931624284
 30
0.0
 10
109.7518554491379
 20
30.82553140742118
 30
0.0
 10
108.4757834496477
 20
31.37449015569844
 30
0.0
 10
107.0334597523007
 20
31.38069132766429
 30
0.0
 10
105.4447625583431
 20
30.84404879593033
 30
0.0
 10
103.7517048078434
 20
30.27216293685709
 30
0.0
 10
103.2125042926735
 20
30.46340019009297
 30
0.0
 10
100.0910582562723
 20
32.74274429900883
 30
0.0
 10
98.67223011048478
 20
33.77880510520396
 30
0.0
 10
96.79699570801041
 20
35.1373268536235
 30
0.0
 10
95.92387069521813
 20
35.76168151771894
 30
0.0
 10
95.05074568242583
 20
36.38603618181438
 30
0.0
 10
93.82287056949245
 20
37.32072505184546
 30
0.0
 10
93.19526029011494
 20
37.83878129315954
 30
0.0
 10
92.28429090285326
 20
38.59070784497475
 30
0.0
 10
91.66391532410258
 20
38.90111095282113
 30
0.0
 10
90.11936702944624
 20
39.37773992030777
 30
0.0
 10
89.05524592010563
 20
39.70610920137744
 30
0.0
 10
87.78280849640652
 20
40.2314518197514
 30
0.0
 10
87.2917273531439
 20
40.54514499383522
 30
0.0
 10
86.80065482262013
 20
40.85885539339672
 30
0.0
 10
85.249629748355
 20
42.23770320548212
 30
0.0
 10
83.8450040089171
 20
43.60928186598532
 30
0.0
 10
81.95782373766963
 20
45.45206346850505
 30
0.0
 10
80.82394805645201
 20
46.37958653982003
 30
0.0
 10
79.50146200734514
 20
47.16241559859841
 30
0.0
 10
78.5171379233707
 20
47.74506738122349
 30
0.0
 10
77.56790213743639
 20
48.44450790253881
 30
0.0
 10
77.39204723577137
 20
48.71672212636213
 30
0.0
 10
76.76149139971008
 20
49.69280381926529
 30
0.0
 10
74.367528962292
 20
51.86462649648432
 30
0.0
 10
73.03405305842342
 20
52.67033098962563
 30
0.0
 10
72.10029005781749
 20
53.2345170601746
 30
0.0
 10
71.27801896151493
 20
53.55859719730122
 30
0.0
 10
70.40506189712973
 20
53.70647792320916
 30
0.0
 10
69.7064223605273
 20
53.82483418036857
 30
0.0
 10
68.77762029749404
 20
54.11985493664409
 30
0.0
 10
68.34105348472815
 20
54.36207960382144
 30
0.0
 10
67.904490978332
 20
54.60430427099878
 30
0.0
 10
67.10595228390679
 20
54.96583259660809
 30
0.0
 10
66.56651491841909
 20
55.16545865747555
 30
0.0
 10
66.0270818593005
 20
55.36508471834301
 30
0.0
 10
65.40200372514236
 20
55.72644078917549
 30
0.0
 10
65.17745239806771
 20
55.96844152514296
 30
0.0
 10
64.7775758527671
 20
56.39940575129216
 30
0.0
 10
64.6814103172324
 20
56.40755340223618
 30
0.0
 10
60.50276781351913
 20
56.36423132586361
 30
0.0
 10
58.15624434163983
 20
56.33990895137532
 30
0.0
 10
55.87917399577811
 20
56.22904577700799
 30
0.0
 10
55.44261148938196
 20
56.11787254404237
 30
0.0
 10
53.85224342408904
 20
55.71290156371671
 30
0.0
 10
52.34442846059154
 20
55.02327956468066
 30
0.0
 10
51.22720120355446
 20
54.18989372890288
 30
0.0
 10
50.59888037322222
 20
53.72120570662807
 30
0.0
 10
49.21572188534698
 20
52.92294261984578
 30
0.0
 10
48.15351280402918
 20
52.41599681163719
 30
0.0
 10
47.06286015268775
 20
51.89546010153676
 30
0.0
 10
45.96737575485563
 20
51.21427858656534
 30
0.0
 10
45.63672409799297
 20
50.85104493866542
 30
0.0
 10
44.07880452628559
 20
49.13957315252267
 30
0.0
 10
43.29672477578577
 20
48.14807465709328
 30
0.0
 10
43.06679048693584
 20
47.59296641328322
 30
0.0
 10
42.92826750177882
 20
47.25853376406916
 30
0.0
 10
42.07238949851624
 20
46.35591873348369
 30
0.0
 10
41.16483075583577
 20
45.58716288997226
 30
0.0
 10
40.20711572851235
 20
44.77589456753936
 30
0.0
 10
38.7764536795567
 20
43.24909712763528
 30
0.0
 10
37.75523262238542
 20
41.94845298423038
 30
0.0
 10
34.6324343859861
 20
37.97117631463053
 30
0.0
 10
33.69954988474198
 20
37.14497350304654
 30
0.0
 10
31.7343317400372
 20
36.61609966174758
 30
0.0
 10
29.67632210023838
 20
36.06223165233068
 30
0.0
 10
26.1050111823007
 20
33.938089097338
 30
0.0
 10
22.9980754576628
 20
31.419930965826
 30
0.0
 10
20.77627305694611
 20
29.61916230337494
 30
0.0
 10
20.6898571417806
 20
29.57084483847433
 30
0.0
 10
19.72385665969169
 20
29.58891436456372
 30
0.0
 10
18.27280610471311
 20
29.61606171739201
 30
0.0
 10
15.01857747359304
 20
30.21192544139989
 30
0.0
 10
13.76988752406504
 20
30.67911484711628
 30
0.0
 10
13.17420897394194
 20
30.90197807737801
 30
0.0
 10
12.39492944015883
 20
31.05623223002864
 30
0.0
 10
12.03815749957456
 20
31.02188462752888
 30
0.0
 10
11.46767874670963
 20
30.96695257919802
 30
0.0
 10
11.38201321641528
 20
30.88206542517655
 30
0.0
 10
11.32754410279731
 20
30.31781045271685
 30
0.0
 10
11.2616620336218
 20
29.63528535048616
 30
0.0
 10
11.50733610270483
 20
29.31682071908418
 30
0.0
 10
12.94401414974157
 20
28.22245167093234
 30
0.0
 10
13.95379103017709
 20
27.45326519047884
 30
0.0
 10
13.9300650878534
 20
26.77022332391767
 30
0.0
 10
12.84704224653292
 20
25.43071850286007
 30
0.0
 10
11.93379694303254
 20
24.30119225475738
 30
0.0
 10
10.35570849014299
 20
22.74285496521586
 30
0.0
 10
9.338421301437071
 20
21.96602037267114
 30
0.0
 10
8.626123575920335
 20
21.42207423839961
 30
0.0
 10
8.601321579537766
 20
21.17556042727922
 30
0.0
 10
9.045390087833928
 20
19.0531748710102
 30
0.0
 10
9.21116700846248
 20
18.26085457402852
 30
0.0
 10
9.21343108218519
 20
18.25925260460401
 30
0.0
 10
10.30047499595268
 20
18.16020610792717
 30
0.0
 10
11.22411479864212
 20
18.07605964944606
 30
0.0
 10
11.38948046099083
 20
18.00071541006093
 30
0.0
 10
11.38948046099083
 20
17.66411235065882
 30
0.0
 10
11.38948046099083
 20
17.15973313862498
 30
0.0
 10
11.94983601593989
 20
17.07083244830338
 30
0.0
 10
13.32690529745485
 20
17.35670647592927
 30
0.0
 10
14.15807227638804
 20
17.52925408587917
 30
0.0
 10
14.62602821586197
 20
17.80146830970249
 30
0.0
 10
15.63201979757634
 20
18.69757210972381
 30
0.0
 10
17.79711592576018
 20
20.62617104205989
 30
0.0
 10
20.51053130636247
 20
23.76978626823903
 30
0.0
 10
20.77657450280621
 20
24.65777686827169
 30
0.0
 10
21.01572442221651
 20
25.45598827862093
 30
0.0
 10
21.02881363207099
 20
25.46453211555166
 30
0.0
 10
23.1485766093631
 20
26.20765644827089
 30
0.0
 10
24.32091678224671
 20
26.61863912030789
 30
0.0
 10
26.0837743215022
 20
27.25808330285357
 30
0.0
 10
27.06604211407808
 20
27.62863777876874
 30
0.0
 10
28.04830775346941
 20
27.9991922546839
 30
0.0
 10
29.4984991877484
 20
28.51952225905213
 30
0.0
 10
30.28868998505169
 20
28.78491519371302
 30
0.0
 10
32.57476710255639
 20
29.5527064104742
 30
0.0
 10
37.84595490697231
 20
32.35715198107648
 30
0.0
 10
38.92266784049914
 20
33.37848500385269
 30
0.0
 10
39.27738348968421
 20
33.71495025943334
 30
0.0
 10
40.41177162886323
 20
34.50814905577684
 30
0.0
 10
41.44352606563761
 20
35.14113368419143
 30
0.0
 10
42.47528480878174
 20
35.77411831260601
 30
0.0
 10
43.63614420078968
 20
36.57415562358964
 30
0.0
 10
44.02321360343303
 20
36.91899246132419
 30
0.0
 10
44.41028731244612
 20
37.26382929905874
 30
0.0
 10
45.39670859832879
 20
38.04130123427774
 30
0.0
 10
46.21526329782156
 20
38.64670787292195
 30
0.0
 10
47.03382230368344
 20
39.25211451156617
 30
0.0
 10
48.01128203480123
 20
40.06954955500955
 30
0.0
 10
48.38739603363889
 20
40.46322062197521
 30
0.0
 10
49.42438701562888
 20
41.54859797077656
 30
0.0
 10
49.66902755605093
 20
41.4358399938641
 30
0.0
 10
49.50092411934323
 20
39.94998751441234
 30
0.0
 10
49.42444730480013
 20
39.27404254465654
 30
0.0
 10
49.23562161843986
 20
38.35874956249643
 30
0.0
 10
49.08130287024824
 20
37.91600310961211
 30
0.0
 10
48.6826234956466
 20
36.77212803859954
 30
0.0
 10
48.71999416947907
 20
36.54652595738622
 30
0.0
 10
49.3902676507081
 20
36.05098341540373
 30
0.0
 10
50.07278414019994
 20
35.54638027216001
 30
0.0
 10
50.15451903180544
 20
34.93752853797921
 30
0.0
 10
49.66645665350708
 20
33.99371016477618
 30
0.0
 10
49.37054017239205
 20
33.4214625706716
 30
0.0
 10
49.3733220870372
 20
33.30014353135073
 30
0.0
 10
49.70472305217906
 20
32.32516426901928
 30
0.0
 10
49.70472305217906
 20
32.32516426901928
 30
0.0
 10
50.06211726314447
 20
31.27373833673099
 30
0.0
 10
50.06211726314447
 20
31.27373833673099
 30
0.0
 10
50.06211726314447
 20
31.27373833673099
 30
0.0
 10
49.14420170200746
 20
29.33065277766357
 30
0.0
 10
49.14420170200746
 20
29.33065277766357
 30
0.0
 10
48.63934878933734
 20
28.2619496912593
 30
0.0
 10
48.05203751499904
 20
26.76248908443803
 30
0.0
 10
47.83907032166615
 20
25.99850469824477
 30
0.0
 10
47.62609882196416
 20
25.23452031205151
 30
0.0
 10
47.11037663287547
 20
23.80577029111867
 30
0.0
 10
46.69302053409579
 20
22.82350465172733
 30
0.0
 10
45.77538919334055
 20
20.66382593627477
 30
0.0
 10
45.61537311840498
 20
18.93988290428957
 30
0.0
 10
46.09734629034243
 20
16.40608403904148
 30
0.0
 10
46.582019555907
 20
13.85810860566033
 30
0.0
 10
47.68054425055016
 20
11.91641831028523
 30
0.0
 10
49.50597118430433
 20
10.3811976117942
 30
0.0
 10
50.3081358417818
 20
9.706561778342294
 30
0.0
 10
51.00929029812657
 20
9.037730930869536
 30
0.0
 10
51.06409746174455
 20
8.89489726992269
 30
0.0
 10
51.14446723424336
 20
8.685469912253641
 30
0.0
 10
53.20111606130459
 20
8.635223193852537
 30
0.0
 10
61.69338852459406
 20
8.635223193852537
 30
0.0
 10
70.90802431362447
 20
8.635223193852537
 30
0.0
 10
72.23741347291308
 20
8.67270583329059
 30
0.0
 10
72.33818682372731
 20
8.93530824056684
 30
0.0
 10
72.33818682372731
 20
8.93530824056684
 30
0.0
 10
72.33819543646615
 20
8.935256564133793
 30
0.0
 10
72.33819543646615
 20
8.935256564133793
 30
0.0
  0
HATCH
  5
75
330
70
100
AcDbEntity
  8
svg2
 62
     7
100
AcDbHatch
 10
0.0
 20
0.0
 30
0.0
210
0.0
220
0.0
230
1.0
  2
SOLID
 70
     1
 71
     0
 91
        1
 92
        1
 93
        1
 72
     4
 94
        3
 73
     0
 74
     1
 95
      269
 96
      265
 40
0.0
 40
0.0
 40
0.0
 40
0.0
 40
1.0
 40
1.0
 40
1.0
 40
2.0
 40
2.0
 40
2.0
 40
3.0
 40
3.0
 40
3.0
 40
4.0
 40
4.0
 40
4.0
 40
5.0
 40
5.0
 40
5.0
 40
6.0
 40
6.0
 40
6.0
 40
7.0
 40
7.0
 40
7.0
 40
8.0
 40
8.0
 40
8.0
 40
9.0
 40
9.0
 40
9.0
 40
10.0
 40
10.0
 40
10.0
 40
11.0
 40
11.0
 40
11.0
 40
12.0
 40
12.0
 40
12.0
 40
13.0
 40
13.0
 40
13.0
 40
14.0
 40
14.0
 40
14.0
 40
15.0
 40
15.0
 40
15.0
 40
16.0
 40
16.0
 40
16.0
 40
17.0
 40
17.0
 40
17.0
 40
18.0
 40
18.0
 40
18.0
 40
19.0
 40
19.0
 40
19.0
 40
20.0
 40
20.0
 40
20.0
 40
21.0
 40
21.0
 40
21.0
 40
22.0
 40
22.0
 40
22.0
 40
23.0
 40
23.0
 40
23.0
 40
24.0
 40
24.0
 40
24.0
 40
25.0
 40
25.0
 40
25.0
 40
26.0
 40
26.0
 40
26.0
 40
27.0
 40
27.0
 40
27.0
 40
28.0
 40
28.0
 40
28.0
 40
29.0
 40
29.0
 40
29.0
 40
30.0
 40
30.0
 40
30.0
 40
31.0
 40
31.0
 40
31.0
 40
32.0
 40
32.0
 40
32.0
 40
33.0
 40
33.0
 40
33.0
 40
34.0
 40
34.0
 40
34.0
 40
35.0
 40
35.0
 40
35.0
 40
36.0
 40
36.0
 40
36.0
 40
37.0
 40
37.0
 40
37.0
 40
38.0
 40
38.0
 40
38.0
 40
39.0
 40
39.0
 40
39.0
 40
40.0
 40
40.0
 40
40.0
 40
41.0
 40
41.0
 40
41.0
 40
42.0
 40
42.0
 40
42.0
 40
43.0
 40
43.0
 40
43.0
 40
44.0
 40
44.0
 40
44.0
 40
45.0
 40
45.0
 40
45.0
 40
46.0
 40
46.0
 40
46.0
 40
47.0
 40
47.0
 40
47.0
 40
48.0
 40
48.0
 40
48.0
 40
49.0
 40
49.0
 40
49.0
 40
50.0
 40
50.0
 40
50.0
 40
51.0
 40
51.0
 40
51.0
 40
52.0
 40
52.0
 40
52.0
 40
53.0
 40
53.0
 40
53.0
 40
54.0
 40
54.0
 40
54.0
 40
55.0
 40
55.0
 40
55.0
 40
56.0
 40
56.0
 40
56.0
 40
57.0
 40
57.0
 40
57.0
 40
58.0
 40
58.0
 40
58.0
 40
59.0
 40
59.0
 40
59.0
 40
60.0
 40
60.0
 40
60.0
 40
61.0
 40
61.0
 40
61.0
 40
62.0
 40
62.0
 40
62.0
 40
63.0
 40
63.0
 40
63.0
 40
64.0
 40
64.0
 40
64.0
 40
65.0
 40
65.0
 40
65.0
 40
66.0
 40
66.0
 40
66.0
 40
67.0
 40
67.0
 40
67.0
 40
68.0
 40
68.0
 40
68.0
 40
69.0
 40
69.0
 40
69.0
 40
70.0
 40
70.0
 40
70.0
 40
71.0
 40
71.0
 40
71.0
 40
72.0
 40
72.0
 40
72.0
 40
73.0
 40
73.0
 40
73.0
 40
74.0
 40
74.0
 40
74.0
 40
75.0
 40
75.0
 40
75.0
 40
76.0
 40
76.0
 40
76.0
 40
77.0
 40
77.0
 40
77.0
 40
78.0
 40
78.0
 40
78.0
 40
79.0
 40
79.0
 40
79.0
 40
80.0
 40
80.0
 40
80.0
 40
81.0
 40
81.0
 40
81.0
 40
82.0
 40
82.0
 40
82.0
 40
83.0
 40
83.0
 40
83.0
 40
84.0
 40
84.0
 40
84.0
 40
85.0
 40
85.0
 40
85.0
 40
86.0
 40
86.0
 40
86.0
 40
87.0
 40
87.0
 40
87.0
 40
88.0
 40
88.0
 40
88.0
 40
88.0
 10
72.33819543646615
 20
8.935256564133793
 10
72.66672835957381
 20
9.791414481408403
 10
71.74139292392456
 20
13.08266927680793
 10
70.48649103650668
 20
15.5214351816793
 10
69.21161190134569
 20
17.999027313248
 10
68.91409775717588
 20
19.3899846361445
 10
68.71241325172531
 20
23.8156232643533
 10
68.51452265773473
 20
28.15783890414368
 10
68.554003452584
 20
29.38196747568101
 10
68.93638321892786
 20
30.7609358661102
 10
69.08770042763418
 20
31.30663899910538
 10
69.48668555446437
 20
32.8097858581508
 10
69.82301300622356
 20
34.1012488219507
 10
70.15933615161364
 20
35.39271178575061
 10
70.73293163934659
 20
37.06451329678958
 10
71.09765959743582
 20
37.81635372121637
 10
71.46239186189416
 20
38.56819414564316
 10
71.96795532551903
 20
39.90024033486404
 10
72.22113970287181
 20
40.7764314826839
 10
72.4743197738555
 20
41.65263985598144
 10
72.74120271233596
 20
42.36952978618957
 10
72.81420428675621
 20
42.36952978618957
 10
72.88720586117645
 20
42.36952978618957
 10
73.51795117749226
 20
41.85164579965232
 10
74.21586724403265
 20
41.21866117123773
 10
77.03088925793224
 20
38.66553532002939
 10
79.98076953661148
 20
36.63215380694806
 10
81.43792437024348
 20
36.24044644443826
 10
82.03253924711933
 20
36.08059401154068
 10
82.6548440793705
 20
35.59814283259721
 10
83.91839315658522
 20
34.31737689043841
 10
84.84608848267703
 20
33.37705528920501
 10
85.9877586925462
 20
32.3419935607155
 10
86.45543902437655
 20
32.01725885543692
 10
87.56351094002515
 20
31.24784844377355
 10
92.28549668629105
 20
29.09747148626976
 10
94.65694542437755
 20
28.28231020588052
 10
95.6811723274045
 20
27.93023866751914
 10
97.50144023059264
 20
27.2343465946065
 10
98.70198712318204
 20
26.73589294689559
 10
100.5969360848645
 20
25.94911925372782
 10
101.0418098842427
 20
25.67008374074205
 10
102.0754246726068
 20
24.62012197405681
 10
102.7863459747978
 20
23.8979610476777
 10
103.5179809139025
 20
22.89261326819124
 10
103.8913259172023
 20
22.12485650238543
 10
105.1363576059079
 20
19.56459930341635
 10
107.0190334147413
 20
16.9878745477824
 10
108.6226220341559
 20
15.64933435347505
 10
110.3926604444206
 20
14.1718534561772
 10
110.9932525620524
 20
14.04590076335962
 10
111.8237531303183
 20
14.97798858626058
 10
112.2370181781483
 20
15.44180179835112
 10
112.4233547829834
 20
15.52570710014467
 10
112.7052066615703
 20
15.37486359207526
 10
113.2130998710514
 20
15.10304555423865
 10
114.3929331267271
 20
15.13790992106889
 10
114.6260369034714
 20
15.43163876651819
 10
114.7343076434474
 20
15.56806454976699
 10
114.8818783107571
 20
16.00731423068168
 10
114.9539669348601
 20
16.40775491037672
 10
115.0531081716642
 20
16.95848788285532
 10
115.2527428452705
 20
17.23476731941182
 10
115.7735896139692
 20
17.54208706675295
 10
116.9621303486136
 20
18.24335348870266
 10
116.7903923361148
 20
18.68553150082344
 10
114.141243059563
 20
21.74472466087855
 10
112.7065416360907
 20
23.40148832990033
 10
110.9059280029388
 20
26.29347377808724
 10
110.9059107774611
 20
26.94103116062159
 10
110.9058935519834
 20
27.53829014832178
 10
111.6092356439939
 20
28.03236852470122
 10
112.6665010132167
 20
28.17778600730051
 10
114.0519720214712
 20
28.36833424142907
 10
114.6762147199617
 20
28.89024898974413
 10
114.6762147199617
 20
29.85809690431485
 10
114.6762147199617
 20
30.28172307697112
 10
114.5476437545364
 20
30.71985310183641
 10
114.3833040847024
 20
30.85624443412984
 10
114.0527213297504
 20
31.13061184266353
 10
112.8510289428951
 20
31.04109103514535
 10
111.5745779828959
 20
30.64702378219299
 10
110.8389467329687
 20
30.41992308442125
 10
110.6521967166693
 20
30.43819931624284
 10
109.7518554491379
 20
30.82553140742118
 10
108.4757834496477
 20
31.37449015569844
 10
107.0334597523007
 20
31.38069132766429
 10
105.4447625583431
 20
30.84404879593033
 10
103.7517048078434
 20
30.27216293685709
 10
103.2125042926735
 20
30.46340019009297
 10
100.0910582562723
 20
32.74274429900883
 10
98.67223011048478
 20
33.77880510520396
 10
96.79699570801041
 20
35.1373268536235
 10
95.92387069521813
 20
35.76168151771894
 10
95.05074568242583
 20
36.38603618181438
 10
93.82287056949245
 20
37.32072505184546
 10
93.19526029011494
 20
37.83878129315954
 10
92.28429090285326
 20
38.59070784497475
 10
91.66391532410258
 20
38.90111095282113
 10
90.11936702944624
 20
39.37773992030777
 10
89.05524592010563
 20
39.70610920137744
 10
87.78280849640652
 20
40.2314518197514
 10
87.2917273531439
 20
40.54514499383522
 10
86.80065482262013
 20
40.85885539339672
 10
85.249629748355
 20
42.23770320548212
 10
83.8450040089171
 20
43.60928186598532
 10
81.95782373766963
 20
45.45206346850505
 10
80.82394805645201
 20
46.37958653982003
 10
79.50146200734514
 20
47.16241559859841
 10
78.5171379233707
 20
47.74506738122349
 10
77.56790213743639
 20
48.44450790253881
 10
77.39204723577137
 20
48.71672212636213
 10
76.76149139971008
 20
49.69280381926529
 10
74.367528962292
 20
51.86462649648432
 10
73.03405305842342
 20
52.67033098962563
 10
72.10029005781749
 20
53.2345170601746
 10
71.27801896151493
 20
53.55859719730122
 10
70.40506189712973
 20
53.70647792320916
 10
69.7064223605273
 20
53.82483418036857
 10
68.77762029749404
 20
54.11985493664409
 10
68.34105348472815
 20
54.36207960382144
 10
67.904490978332
 20
54.60430427099878
 10
67.10595228390679
 20
54.96583259660809
 10
66.56651491841909
 20
55.16545865747555
 10
66.0270818593005
 20
55.36508471834301
 10
65.40200372514236
 20
55.72644078917549
 10
65.17745239806771
 20
55.96844152514296
 10
64.7775758527671
 20
56.39940575129216
 10
64.6814103172324
 20
56.40755340223618
 10
60.50276781351913
 20
56.36423132586361
 10
58.15624434163983
 20
56.33990895137532
 10
55.87917399577811
 20
56.22904577700799
 10
55.44261148938196
 20
56.11787254404237
 10
53.85224342408904
 20
55.71290156371671
 10
52.34442846059154
 20
55.02327956468066
 10
51.22720120355446
 20
54.18989372890288
 10
50.59888037322222
 20
53.72120570662807
 10
49.21572188534698
 20
52.92294261984578
 10
48.15351280402918
 20
52.41599681163719
 10
47.06286015268775
 20
51.89546010153676
 10
45.96737575485563
 20
51.21427858656534
 10
45.63672409799297
 20
50.85104493866542
 10
44.07880452628559
 20
49.13957315252267
 10
43.29672477578577
 20
48.14807465709328
 10
43.06679048693584
 20
47.59296641328322
 10
42.92826750177882
 20
47.25853376406916
 10
42.07238949851624
 20
46.35591873348369
 10
41.16483075583577
 20
45.58716288997226
 10
40.20711572851235
 20
44.77589456753936
 10
38.7764536795567
 20
43.24909712763528
 10
37.75523262238542
 20
41.94845298423038
 10
34.6324343859861
 20
37.97117631463053
 10
33.69954988474198
 20
37.14497350304654
 10
31.7343317400372
 20
36.61609966174758
 10
29.67632210023838
 20
36.06223165233068
 10
26.1050111823007
 20
33.938089097338
 10
22.9980754576628
 20
31.419930965826
 10
20.77627305694611
 20
29.61916230337494
 10
20.6898571417806
 20
29.57084483847433
 10
19.72385665969169
 20
29.58891436456372
 10
18.27280610471311
 20
29.61606171739201
 10
15.01857747359304
 20
30.21192544139989
 10
13.76988752406504
 20
30.67911484711628
 10
13.17420897394194
 20
30.90197807737801
 10
12.39492944015883
 20
31.05623223002864
 10
12.03815749957456
 20
31.02188462752888
 10
11.46767874670963
 20
30.96695257919802
 10
11.38201321641528
 20
30.88206542517655
 10
11.32754410279731
 20
30.31781045271685
 10
11.2616620336218
 20
29.63528535048616
 10
11.50733610270483
 20
29.31682071908418
 10
12.94401414974157
 20
28.22245167093234
 10
13.95379103017709
 20
27.45326519047884
 10
13.9300650878534
 20
26.77022332391767
 10
12.84704224653292
 20
25.43071850286007
 10
11.93379694303254
 20
24.30119225475738
 10
10.35570849014299
 20
22.74285496521586
 10
9.338421301437071
 20
21.96602037267114
 10
8.626123575920335
 20
21.42207423839961
 10
8.601321579537766
 20
21.17556042727922
 10
9.045390087833928
 20
19.0531748710102
 10
9.21116700846248
 20
18.26085457402852
 10
9.21343108218519
 20
18.25925260460401
 10
10.30047499595268
 20
18.16020610792717
 10
11.22411479864212
 20
18.07605964944606
 10
11.38948046099083
 20
18.00071541006093
 10
11.38948046099083
 20
17.66411235065882
 10
11.38948046099083
 20
17.15973313862498
 10
11.94983601593989
 20
17.07083244830338
 10
13.32690529745485
 20
17.35670647592927
 10
14.15807227638804
 20
17.52925408587917
 10
14.62602821586197
 20
17.80146830970249
 10
15.63201979757634
 20
18.69757210972381
 10
17.79711592576018
 20
20.62617104205989
 10
20.51053130636247
 20
23.76978626823903
 10
20.77657450280621
 20
24.65777686827169
 10
21.01572442221651
 20
25.45598827862093
 10
21.02881363207099
 20
25.46453211555166
 10
23.1485766093631
 20
26.20765644827089
 10
24.32091678224671
 20
26.61863912030789
 10
26.0837743215022
 20
27.25808330285357
 10
27.06604211407808
 20
27.62863777876874
 10
28.04830775346941
 20
27.9991922546839
 10
29.4984991877484
 20
28.51952225905213
 10
30.28868998505169
 20
28.78491519371302
 10
32.57476710255639
 20
29.5527064104742
 10
37.84595490697231
 20
32.35715198107648
 10
38.92266784049914
 20
33.37848500385269
 10
39.27738348968421
 20
33.71495025943334
 10
40.41177162886323
 20
34.50814905577684
 10
41.44352606563761
 20
35.14113368419143
 10
42.47528480878174
 20
35.77411831260601
 10
43.63614420078968
 20
36.57415562358964
 10
44.02321360343303
 20
36.91899246132419
 10
44.41028731244612
 20
37.26382929905874
 10
45.39670859832879
 20
38.04130123427774
 10
46.21526329782156
 20
38.64670787292195
 10
47.03382230368344
 20
39.25211451156617
 10
48.01128203480123
 20
40.06954955500955
 10
48.38739603363889
 20
40.46322062197521
 10
49.42438701562888
 20
41.54859797077656
 10
49.66902755605093
 20
41.4358399938641
 10
49.50092411934323
 20
39.94998751441234
 10
49.42444730480013
 20
39.27404254465654
 10
49.23562161843986
 20
38.35874956249643
 10
49.08130287024824
 20
37.91600310961211
 10
48.6826234956466
 20
36.77212803859954
 10
48.71999416947907
 20
36.54652595738622
 10
49.3902676507081
 20
36.05098341540373
 10
50.07278414019994
 20
35.54638027216001
 10
50.15451903180544
 20
34.93752853797921
 10
49.66645665350708
 20
33.99371016477618
 10
49.37054017239205
 20
33.4214625706716
 10
49.3733220870372
 20
33.30014353135073
 10
49.70472305217906
 20
32.32516426901928
 10
49.70472305217906
 20
32.32516426901928
 10
50.06211726314447
 20
31.27373833673099
 10
50.06211726314447
 20
31.27373833673099
 10
50.06211726314447
 20
31.27373833673099
 10
49.14420170200746
 20
29.33065277766357
 10
49.14420170200746
 20
29.33065277766357
 10
48.63934878933734
 20
28.2619496912593
 10
48.05203751499904
 20
26.76248908443803
 10
47.83907032166615
 20
25.99850469824477
 10
47.62609882196416
 20
25.23452031205151
 10
47.11037663287547
 20
23.80577029111867
 10
46.69302053409579
 20
22.82350465172733
 10
45.77538919334055
 20
20.66382593627477
 10
45.61537311840498
 20
18.93988290428957
 10
46.09734629034243
 20
16.40608403904148
 10
46.582019555907
 20
13.85810860566033
 10
47.68054425055016
 20
11.91641831028523
 10
49.50597118430433
 20
10.3811976117942
 10
50.3081358417818
 20
9.706561778342294
 10
51.00929029812657
 20
9.037730930869536
 10
51.06409746174455
 20
8.89489726992269
 10
51.14446723424336
 20
8.685469912253641
 10
53.20111606130459
 20
8.635223193852537
 10
61.69338852459406
 20
8.635223193852537
 10
70.90802431362447
 20
8.635223193852537
 10
72.23741347291308
 20
8.67270583329059
 10
72.33818682372731
 20
8.93530824056684
 10
72.33818682372731
 20
8.93530824056684
 10
72.33819543646615
 20
8.935256564133793
 10
72.33819543646615
 20
8.935256564133793
 97
        0
 75
     2
 76
     1
 98
        0
  0
ENDBLK
  5
73
330
70
100
AcDbEntity
  8
0
100
AcDbBlockEnd
  0
ENDSEC
  0
SECTION
  2
ENTITIES
  0
INSERT
  5
42
330
1F
100
AcDbEntity
  8
svg2
100
AcDbBlockReference
  2
block 2
 10
0.0
 20
0.0
 30
0.0
  0
INSERT
  5
46
330
1F
100
AcDbEntity
  8
svg2
100
AcDbBlockReference
  2
block 3
 10
0.0
 20
0.0
 30
0.0
  0
INSERT
  5
4A
330
1F
100
AcDbEntity
  8
svg2
100
AcDbBlockReference
  2
block 4
 10
0.0
 20
0.0
 30
0.0
  0
INSERT
  5
57
330
1F
100
AcDbEntity
  8
svg2
100
AcDbBlockReference
  2
block 6
 10
0.0
 20
0.0
 30
0.0
  0
INSERT
  5
5B
330
1F
100
AcDbEntity
  8
svg2
100
AcDbBlockReference
  2
block 7
 10
0.0
 20
0.0
 30
0.0
  0
INSERT
  5
65
330
1F
100
AcDbEntity
  8
svg2
100
AcDbBlockReference
  2
block 8
 10
0.0
 20
0.0
 30
0.0
  0
INSERT
  5
69
330
1F
100
AcDbEntity
  8
svg2
100
AcDbBlockReference
  2
block 9
 10
0.0
 20
0.0
 30
0.0
  0
INSERT
  5
6D
330
1F
100
AcDbEntity
  8
svg2
100
AcDbBlockReference
  2
block 10
 10
0.0
 20
0.0
 30
0.0
  0
INSERT
  5
71
330
1F
100
AcDbEntity
  8
svg2
100
AcDbBlockReference
  2
block 11
 10
0.0
 20
0.0
 30
0.0
  0
ENDSEC
  0
SECTION
  2
OBJECTS
  0
DICTIONARY
  5
C
330
0
100
AcDbDictionary
281
     1
  3
ACAD_GROUP
350
D
  3
ACAD_LAYOUT
350
1A
  3
ACAD_MATERIAL
350
3B
  3
ACAD_MLEADERSTYLE
350
9F
  3
ACAD_MLINESTYLE
350
17
  3
ACAD_PLOTSETTINGS
350
19
  3
ACAD_PLOTSTYLENAME
350
E
  3
ACAD_TABLESTYLE
350
9E
  3
ACAD_VISUALSTYLE
350
2A
  0
DICTIONARY
  5
D
102
{ACAD_REACTORS
330
C
102
}
330
C
100
AcDbDictionary
281
     1
  0
DICTIONARY
  5
1A
102
{ACAD_REACTORS
330
C
102
}
330
C
100
AcDbDictionary
281
     1
  3
Layout1
350
1E
  3
Layout2
350
26
  3
Model
350
22
  0
DICTIONARY
  5
3B
102
{ACAD_REACTORS
330
C
102
}
330
C
100
AcDbDictionary
281
     1
  3
ByBlock
350
3D
  3
ByLayer
350
3C
  3
Global
350
3E
  0
DICTIONARY
  5
9F
102
{ACAD_REACTORS
330
C
102
}
330
C
100
AcDbDictionary
281
     1
  0
DICTIONARY
  5
17
102
{ACAD_REACTORS
330
C
102
}
330
C
100
AcDbDictionary
281
     1
  3
Standard
350
18
  0
DICTIONARY
  5
19
102
{ACAD_REACTORS
330
C
102
}
330
C
100
AcDbDictionary
281
     1
  0
ACDBDICTIONARYWDFLT
  5
E
102
{ACAD_REACTORS
330
C
102
}
330
C
100
AcDbDictionary
281
     1
  3
Normal
350
F
100
AcDbDictionaryWithDefault
340
F
  0
DICTIONARY
  5
9E
102
{ACAD_REACTORS
330
C
102
}
330
C
100
AcDbDictionary
281
     1
  0
DICTIONARY
  5
2A
102
{ACAD_REACTORS
330
C
102
}
330
C
100
AcDbDictionary
281
     1
  3
2dWireframe
350
2F
  3
3D Hidden
350
31
  3
3dWireframe
350
30
  3
Basic
350
32
  3
Brighten
350
36
  3
ColorChange
350
3A
  3
Conceptual
350
34
  3
Dim
350
35
  3
Facepattern
350
39
  3
Flat
350
2B
  3
FlatWithEdges
350
2C
  3
Gouraud
350
2D
  3
GouraudWithEdges
350
2E
  3
Linepattern
350
38
  3
Realistic
350
33
  3
Thicken
350
37
  0
LAYOUT
  5
1E
102
{ACAD_REACTORS
330
1A
102
}
330
1A
100
AcDbPlotSettings
  1

  2
none_device
  4

  6

 40
0.0
 41
0.0
 42
0.0
 43
0.0
 44
0.0
 45
0.0
 46
0.0
 47
0.0
 48
0.0
 49
0.0
140
0.0
141
0.0
142
1.0
143
1.0
 70
   688
 72
     0
 73
     0
 74
     5
  7

 75
    16
 76
     0
 77
     2
 78
   300
147
1.0
148
0.0
149
0.0
100
AcDbLayout
  1
Layout1
 70
     1
 71
     1
 10
0.0
 20
0.0
 11
12.0
 21
9.0
 12
0.0
 22
0.0
 32
0.0
 14
1.000000000000000E+20
 24
1.000000000000000E+20
 34
1.000000000000000E+20
 15
-1.000000000000000E+20
 25
-1.000000000000000E+20
 35
-1.000000000000000E+20
146
0.0
 13
0.0
 23
0.0
 33
0.0
 16
1.0
 26
0.0
 36
0.0
 17
0.0
 27
1.0
 37
0.0
 76
     0
330
1B
  0
LAYOUT
  5
26
102
{ACAD_REACTORS
330
1A
102
}
330
1A
100
AcDbPlotSettings
  1

  2
none_device
  4

  6

 40
0.0
 41
0.0
 42
0.0
 43
0.0
 44
0.0
 45
0.0
 46
0.0
 47
0.0
 48
0.0
 49
0.0
140
0.0
141
0.0
142
1.0
143
1.0
 70
   688
 72
     0
 73
     0
 74
     5
  7

 75
    16
 76
     0
 77
     2
 78
   300
147
1.0
148
0.0
149
0.0
100
AcDbLayout
  1
Layout2
 70
     1
 71
     2
 10
0.0
 20
0.0
 11
0.0
 21
0.0
 12
0.0
 22
0.0
 32
0.0
 14
0.0
 24
0.0
 34
0.0
 15
0.0
 25
0.0
 35
0.0
146
0.0
 13
0.0
 23
0.0
 33
0.0
 16
1.0
 26
0.0
 36
0.0
 17
0.0
 27
1.0
 37
0.0
 76
     0
330
23
  0
LAYOUT
  5
22
102
{ACAD_REACTORS
330
1A
102
}
330
1A
100
AcDbPlotSettings
  1

  2
none_device
  4

  6

 40
0.0
 41
0.0
 42
0.0
 43
0.0
 44
0.0
 45
0.0
 46
0.0
 47
0.0
 48
0.0
 49
0.0
140
0.0
141
0.0
142
1.0
143
1.0
 70
  1712
 72
     0
 73
     0
 74
     0
  7

 75
     0
 76
     0
 77
     2
 78
   300
147
1.0
148
0.0
149
0.0
100
AcDbLayout
  1
Model
 70
     1
 71
     0
 10
0.0
 20
0.0
 11
12.0
 21
9.0
 12
0.0
 22
0.0
 32
0.0
 14
1.000000000000000E+20
 24
1.000000000000000E+20
 34
1.000000000000000E+20
 15
-1.000000000000000E+20
 25
-1.000000000000000E+20
 35
-1.000000000000000E+20
146
0.0
 13
0.0
 23
0.0
 33
0.0
 16
1.0
 26
0.0
 36
0.0
 17
0.0
 27
1.0
 37
0.0
 76
     0
330
1F
331
29
  0
MATERIAL
  5
3D
102
{ACAD_REACTORS
330
3B
102
}
102
{ACAD_XDICTIONARY
360
9A
102
}
330
3B
100
AcDbMaterial
  1
ByBlock
  0
MATERIAL
  5
3C
102
{ACAD_REACTORS
330
3B
102
}
102
{ACAD_XDICTIONARY
360
98
102
}
330
3B
100
AcDbMaterial
  1
ByLayer
  0
MATERIAL
  5
3E
102
{ACAD_REACTORS
330
3B
102
}
102
{ACAD_XDICTIONARY
360
9C
102
}
330
3B
100
AcDbMaterial
  1
Global
  0
MLINESTYLE
  5
18
102
{ACAD_REACTORS
330
17
102
}
330
17
100
AcDbMlineStyle
  2
Standard
 70
     0
  3

 62
   256
 51
90.0
 52
90.0
 71
     2
 49
0.5
 62
   256
  6
BYLAYER
 49
-0.5
 62
   256
  6
BYLAYER
  0
ACDBPLACEHOLDER
  5
F
102
{ACAD_REACTORS
330
E
102
}
330
E
  0
VISUALSTYLE
  5
2F
102
{ACAD_REACTORS
330
2A
102
}
102
{ACAD_XDICTIONARY
360
80
102
}
330
2A
100
AcDbVisualStyle
  2
2dWireframe
 70
     4
 71
     0
 72
     2
 73
     0
 90
        0
 40
-0.6
 41
-30.0
 62
     5
 63
     7
421
 16777215
 74
     1
 91
        4
 64
     7
 65
   257
 75
     1
175
     1
 42
1.0
 92
        0
 66
   257
 43
1.0
 76
     1
 77
     6
 78
     2
 67
     7
 79
     5
170
     0
171
     0
290
     0
174
     0
 93
        1
 44
0.0
173
     0
291
     0
 45
0.0
1001
ACAD
1000
AcDbSavedByObjectVersion
1070
     0
  0
VISUALSTYLE
  5
31
102
{ACAD_REACTORS
330
2A
102
}
102
{ACAD_XDICTIONARY
360
84
102
}
330
2A
100
AcDbVisualStyle
  2
3D Hidden
 70
     6
 71
     1
 72
     2
 73
     2
 90
        0
 40
-0.6
 41
-30.0
 62
     5
 63
     7
421
 16777215
 74
     2
 91
        2
 64
     7
 65
   257
 75
     2
175
     1
 42
40.0
 92
        0
 66
   257
 43
1.0
 76
     1
 77
     6
 78
     2
 67
     7
 79
     3
170
     0
171
     0
290
     0
174
     0
 93
        1
 44
0.0
173
     0
291
     0
 45
0.0
1001
ACAD
1000
AcDbSavedByObjectVersion
1070
     0
  0
VISUALSTYLE
  5
30
102
{ACAD_REACTORS
330
2A
102
}
102
{ACAD_XDICTIONARY
360
82
102
}
330
2A
100
AcDbVisualStyle
  2
3dWireframe
 70
     5
 71
     0
 72
     2
 73
     0
 90
        0
 40
-0.6
 41
-30.0
 62
     5
 63
     7
421
 16777215
 74
     1
 91
        4
 64
     7
 65
   257
 75
     1
175
     1
 42
1.0
 92
        0
 66
   257
 43
1.0
 76
     1
 77
     6
 78
     2
 67
     7
 79
     5
170
     0
171
     0
290
     0
174
     0
 93
        1
 44
0.0
173
     0
291
     0
 45
0.0
1001
ACAD
1000
AcDbSavedByObjectVersion
1070
     0
  0
VISUALSTYLE
  5
32
102
{ACAD_REACTORS
330
2A
102
}
102
{ACAD_XDICTIONARY
360
86
102
}
330
2A
100
AcDbVisualStyle
  2
Basic
 70
     7
 71
     1
 72
     0
 73
     1
 90
        0
 40
-0.6
 41
-30.0
 62
     5
 63
     7
421
 16777215
 74
     0
 91
        4
 64
     7
 65
   257
 75
     1
175
     1
 42
1.0
 92
        8
 66
     7
 43
1.0
 76
     1
 77
     6
 78
     2
 67
     7
 79
     5
170
     0
171
     0
290
     0
174
     0
 93
        1
 44
0.0
173
     0
291
     1
 45
0.0
1001
ACAD
1000
AcDbSavedByObjectVersion
1070
     0
  0
VISUALSTYLE
  5
36
102
{ACAD_REACTORS
330
2A
102
}
102
{ACAD_XDICTIONARY
360
8E
102
}
330
2A
100
AcDbVisualStyle
  2
Brighten
 70
    12
 71
     2
 72
     2
 73
     0
 90
        0
 40
-0.6
 41
-30.0
 62
     5
 63
     7
421
 16777215
 74
     1
 91
        4
 64
     7
 65
   257
 75
     1
175
     1
 42
1.0
 92
        8
 66
     7
 43
1.0
 76
     1
 77
     6
 78
     2
 67
     7
 79
     5
170
     0
171
     0
290
     0
174
     0
 93
        1
 44
50.0
173
     0
291
     1
 45
0.0
1001
ACAD
1000
AcDbSavedByObjectVersion
1070
     0
  0
VISUALSTYLE
  5
3A
102
{ACAD_REACTORS
330
2A
102
}
102
{ACAD_XDICTIONARY
360
96
102
}
330
2A
100
AcDbVisualStyle
  2
ColorChange
 70
    16
 71
     2
 72
     2
 73
     3
 90
        0
 40
-0.6
 41
-30.0
 62
     5
 63
     8
421
  8421504
 74
     1
 91
        4
 64
     7
 65
   257
 75
     1
175
     1
 42
1.0
 92
        8
 66
     8
424
  8421504
 43
1.0
 76
     1
 77
     6
 78
     2
 67
     7
 79
     5
170
     0
171
     0
290
     0
174
     0
 93
        1
 44
0.0
173
     0
291
     1
 45
0.0
1001
ACAD
1000
AcDbSavedByObjectVersion
1070
     0
  0
VISUALSTYLE
  5
34
102
{ACAD_REACTORS
330
2A
102
}
102
{ACAD_XDICTIONARY
360
8A
102
}
330
2A
100
AcDbVisualStyle
  2
Conceptual
 70
     9
 71
     3
 72
     2
 73
     0
 90
        0
 40
-0.6
 41
-30.0
 62
     5
 63
     7
421
 16777215
 74
     2
 91
        2
 64
     7
 65
   257
 75
     1
175
     1
 42
40.0
 92
        8
 66
     7
 43
1.0
 76
     1
 77
     6
 78
     2
 67
     7
 79
     3
170
     0
171
     0
290
     0
174
     0
 93
        1
 44
0.0
173
     0
291
     0
 45
0.0
1001
ACAD
1000
AcDbSavedByObjectVersion
1070
     0
  0
VISUALSTYLE
  5
35
102
{ACAD_REACTORS
330
2A
102
}
102
{ACAD_XDICTIONARY
360
8C
102
}
330
2A
100
AcDbVisualStyle
  2
Dim
 70
    11
 71
     2
 72
     2
 73
     0
 90
        0
 40
-0.6
 41
-30.0
 62
     5
 63
     7
421
 16777215
 74
     1
 91
        4
 64
     7
 65
   257
 75
     1
175
     1
 42
1.0
 92
        8
 66
     7
 43
1.0
 76
     1
 77
     6
 78
     2
 67
     7
 79
     5
170
     0
171
     0
290
     0
174
     0
 93
        1
 44
-50.0
173
     0
291
     1
 45
0.0
1001
ACAD
1000
AcDbSavedByObjectVersion
1070
     0
  0
VISUALSTYLE
  5
39
102
{ACAD_REACTORS
330
2A
102
}
102
{ACAD_XDICTIONARY
360
94
102
}
330
2A
100
AcDbVisualStyle
  2
Facepattern
 70
    15
 71
     2
 72
     2
 73
     0
 90
        0
 40
-0.6
 41
-30.0
 62
     5
 63
     7
421
 16777215
 74
     1
 91
        4
 64
     7
 65
   257
 75
     1
175
     1
 42
1.0
 92
        8
 66
     7
 43
1.0
 76
     1
 77
     6
 78
     2
 67
     7
 79
     5
170
     0
171
     0
290
     0
174
     0
 93
        1
 44
0.0
173
     0
291
     1
 45
0.0
1001
ACAD
1000
AcDbSavedByObjectVersion
1070
     0
  0
VISUALSTYLE
  5
2B
102
{ACAD_REACTORS
330
2A
102
}
102
{ACAD_XDICTIONARY
360
78
102
}
330
2A
100
AcDbVisualStyle
  2
Flat
 70
     0
 71
     2
 72
     1
 73
     1
 90
        2
 40
-0.6
 41
30.0
 62
     5
 63
     7
421
 16777215
 74
     0
 91
        4
 64
     7
 65
   257
 75
     1
175
     1
 42
1.0
 92
        8
 66
     7
 43
1.0
 76
     1
 77
     6
 78
     2
 67
     7
 79
     5
170
     0
171
     0
290
     0
174
     0
 93
       13
 44
0.0
173
     0
291
     1
 45
0.0
1001
ACAD
1000
AcDbSavedByObjectVersion
1070
     0
  0
VISUALSTYLE
  5
2C
102
{ACAD_REACTORS
330
2A
102
}
102
{ACAD_XDICTIONARY
360
7A
102
}
330
2A
100
AcDbVisualStyle
  2
FlatWithEdges
 70
     1
 71
     2
 72
     1
 73
     1
 90
        2
 40
-0.6
 41
30.0
 62
     5
 63
     7
421
 16777215
 74
     1
 91
        4
 64
     7
 65
   257
 75
     1
175
     1
 42
1.0
 92
        0
 66
   257
 43
1.0
 76
     1
 77
     6
 78
     2
 67
     7
 79
     5
170
     0
171
     0
290
     0
174
     0
 93
       13
 44
0.0
173
     0
291
     1
 45
0.0
1001
ACAD
1000
AcDbSavedByObjectVersion
1070
     0
  0
VISUALSTYLE
  5
2D
102
{ACAD_REACTORS
330
2A
102
}
102
{ACAD_XDICTIONARY
360
7C
102
}
330
2A
100
AcDbVisualStyle
  2
Gouraud
 70
     2
 71
     2
 72
     2
 73
     1
 90
        2
 40
-0.6
 41
30.0
 62
     5
 63
     7
421
 16777215
 74
     0
 91
        4
 64
     7
 65
   257
 75
     1
175
     1
 42
1.0
 92
        0
 66
     7
 43
1.0
 76
     1
 77
     6
 78
     2
 67
     7
 79
     5
170
     0
171
     0
290
     0
174
     0
 93
       13
 44
0.0
173
     0
291
     1
 45
0.0
1001
ACAD
1000
AcDbSavedByObjectVersion
1070
     0
  0
VISUALSTYLE
  5
2E
102
{ACAD_REACTORS
330
2A
102
}
102
{ACAD_XDICTIONARY
360
7E
102
}
330
2A
100
AcDbVisualStyle
  2
GouraudWithEdges
 70
     3
 71
     2
 72
     2
 73
     1
 90
        2
 40
-0.6
 41
30.0
 62
     5
 63
     7
421
 16777215
 74
     1
 91
        4
 64
     7
 65
   257
 75
     1
175
     1
 42
1.0
 92
        0
 66
   257
 43
1.0
 76
     1
 77
     6
 78
     2
 67
     7
 79
     5
170
     0
171
     0
290
     0
174
     0
 93
       13
 44
0.0
173
     0
291
     1
 45
0.0
1001
ACAD
1000
AcDbSavedByObjectVersion
1070
     0
  0
VISUALSTYLE
  5
38
102
{ACAD_REACTORS
330
2A
102
}
102
{ACAD_XDICTIONARY
360
92
102
}
330
2A
100
AcDbVisualStyle
  2
Linepattern
 70
    14
 71
     2
 72
     2
 73
     0
 90
        0
 40
-0.6
 41
-30.0
 62
     5
 63
     7
421
 16777215
 74
     1
 91
        4
 64
     7
 65
   257
 75
     7
175
     7
 42
1.0
 92
        8
 66
     7
 43
1.0
 76
     1
 77
     6
 78
     2
 67
     7
 79
     5
170
     0
171
     0
290
     0
174
     0
 93
        1
 44
0.0
173
     0
291
     1
 45
0.0
1001
ACAD
1000
AcDbSavedByObjectVersion
1070
     0
  0
VISUALSTYLE
  5
33
102
{ACAD_REACTORS
330
2A
102
}
102
{ACAD_XDICTIONARY
360
88
102
}
330
2A
100
AcDbVisualStyle
  2
Realistic
 70
     8
 71
     2
 72
     2
 73
     0
 90
        0
 40
-0.6
 41
-30.0
 62
     5
 63
     7
421
 16777215
 74
     1
 91
        0
 64
     7
 65
   257
 75
     1
175
     1
 42
1.0
 92
        8
 66
     8
424
  7895160
 43
1.0
 76
     1
 77
     6
 78
     2
 67
     7
 79
     5
170
     0
171
     0
290
     0
174
     0
 93
       13
 44
0.0
173
     0
291
     0
 45
0.0
1001
ACAD
1000
AcDbSavedByObjectVersion
1070
     0
  0
VISUALSTYLE
  5
37
102
{ACAD_REACTORS
330
2A
102
}
102
{ACAD_XDICTIONARY
360
90
102
}
330
2A
100
AcDbVisualStyle
  2
Thicken
 70
    13
 71
     2
 72
     2
 73
     0
 90
        0
 40
-0.6
 41
-30.0
 62
     5
 63
     7
421
 16777215
 74
     1
 91
        4
 64
     7
 65
   257
 75
     1
175
     1
 42
1.0
 92
       12
 66
     7
 43
1.0
 76
     1
 77
     6
 78
     2
 67
     7
 79
     5
170
     0
171
     0
290
     0
174
     0
 93
        1
 44
0.0
173
     0
291
     1
 45
0.0
1001
ACAD
1000
AcDbSavedByObjectVersion
1070
     0
  0
DICTIONARY
  5
9A
330
3D
100
AcDbDictionary
280
     1
281
     1
  3
ACAD_XREC_ROUNDTRIP
360
9B
  0
DICTIONARY
  5
98
330
3C
100
AcDbDictionary
280
     1
281
     1
  3
ACAD_XREC_ROUNDTRIP
360
99
  0
DICTIONARY
  5
9C
330
3E
100
AcDbDictionary
280
     1
281
     1
  3
ACAD_XREC_ROUNDTRIP
360
9D
  0
DICTIONARY
  5
80
330
2F
100
AcDbDictionary
280
     1
281
     1
  3
ACAD_XREC_ROUNDTRIP
360
81
  0
DICTIONARY
  5
84
330
31
100
AcDbDictionary
280
     1
281
     1
  3
ACAD_XREC_ROUNDTRIP
360
85
  0
DICTIONARY
  5
82
330
30
100
AcDbDictionary
280
     1
281
     1
  3
ACAD_XREC_ROUNDTRIP
360
83
  0
DICTIONARY
  5
86
330
32
100
AcDbDictionary
280
     1
281
     1
  3
ACAD_XREC_ROUNDTRIP
360
87
  0
DICTIONARY
  5
8E
330
36
100
AcDbDictionary
280
     1
281
     1
  3
ACAD_XREC_ROUNDTRIP
360
8F
  0
DICTIONARY
  5
96
330
3A
100
AcDbDictionary
280
     1
281
     1
  3
ACAD_XREC_ROUNDTRIP
360
97
  0
DICTIONARY
  5
8A
330
34
100
AcDbDictionary
280
     1
281
     1
  3
ACAD_XREC_ROUNDTRIP
360
8B
  0
DICTIONARY
  5
8C
330
35
100
AcDbDictionary
280
     1
281
     1
  3
ACAD_XREC_ROUNDTRIP
360
8D
  0
DICTIONARY
  5
94
330
39
100
AcDbDictionary
280
     1
281
     1
  3
ACAD_XREC_ROUNDTRIP
360
95
  0
DICTIONARY
  5
78
330
2B
100
AcDbDictionary
280
     1
281
     1
  3
ACAD_XREC_ROUNDTRIP
360
79
  0
DICTIONARY
  5
7A
330
2C
100
AcDbDictionary
280
     1
281
     1
  3
ACAD_XREC_ROUNDTRIP
360
7B
  0
DICTIONARY
  5
7C
330
2D
100
AcDbDictionary
280
     1
281
     1
  3
ACAD_XREC_ROUNDTRIP
360
7D
  0
DICTIONARY
  5
7E
330
2E
100
AcDbDictionary
280
     1
281
     1
  3
ACAD_XREC_ROUNDTRIP
360
7F
  0
DICTIONARY
  5
92
330
38
100
AcDbDictionary
280
     1
281
     1
  3
ACAD_XREC_ROUNDTRIP
360
93
  0
DICTIONARY
  5
88
330
33
100
AcDbDictionary
280
     1
281
     1
  3
ACAD_XREC_ROUNDTRIP
360
89
  0
DICTIONARY
  5
90
330
37
100
AcDbDictionary
280
     1
281
     1
  3
ACAD_XREC_ROUNDTRIP
360
91
  0
XRECORD
  5
9B
102
{ACAD_REACTORS
330
9A
102
}
330
9A
100
AcDbXrecord
280
     1
102
MATERIAL
148
0.0
149
0.0
149
0.0
 93
        0
 94
      127
282
     0
 72
     1
 77
     1
171
     1
175
     1
179
     1
273
     0
  0
XRECORD
  5
99
102
{ACAD_REACTORS
330
98
102
}
330
98
100
AcDbXrecord
280
     1
102
MATERIAL
148
0.0
149
0.0
149
0.0
 93
        0
 94
      127
282
     0
 72
     1
 77
     1
171
     1
175
     1
179
     1
273
     0
  0
XRECORD
  5
9D
102
{ACAD_REACTORS
330
9C
102
}
330
9C
100
AcDbXrecord
280
     1
102
MATERIAL
148
0.0
149
0.0
149
0.0
 93
        0
 94
      127
282
     0
 72
     1
 77
     1
171
     1
175
     1
179
     1
273
     0
  0
XRECORD
  5
81
102
{ACAD_REACTORS
330
80
102
}
330
80
100
AcDbXrecord
280
     1
102
RTVSPropertyOp0
 70
     1
102
RTVSPropertyOp1
 70
     1
102
RTVSPropertyOp2
 70
     1
102
RTVSPropertyOp3
 70
     1
102
RTVSPropertyOp4
 70
     1
102
RTVSPropertyOp5
 70
     1
102
RTVSPropertyOp6
 70
     1
102
RTVSPropertyOp7
 70
     1
102
RTVSPropertyOp8
 70
     1
102
RTVSPropertyOp9
 70
     1
102
RTVSPropertyOp10
 70
     1
102
RTVSPropertyOp11
 70
     1
102
RTVSPropertyOp12
 70
     1
102
RTVSPropertyOp13
 70
     1
102
RTVSPropertyOp14
 70
     1
102
RTVSPropertyOp15
 70
     1
102
RTVSPropertyOp16
 70
     1
102
RTVSPropertyOp17
 70
     1
102
RTVSPropertyOp18
 70
     1
102
RTVSPropertyOp19
 70
     1
102
RTVSPropertyOp20
 70
     1
102
RTVSPropertyOp21
 70
     1
102
RTVSPropertyOp22
 70
     1
102
RTVSPropertyOp23
 70
     1
102
RTVSPropertyOp24
 70
     1
102
RTVSPropertyOp25
 70
     1
102
RTVSPropertyOp26
 70
     1
102
RTVSPropertyOp27
 70
     1
102
RTVSPropertyOp28
 70
     1
102
RTVSPropertyOp29
 70
     1
102
RTVSPropertyOp30
 70
     1
102
RTVSPropertyOp31
 70
     1
102
RTVSPropertyOp32
 70
     1
  0
XRECORD
  5
85
102
{ACAD_REACTORS
330
84
102
}
330
84
100
AcDbXrecord
280
     1
102
RTVSPropertyOp0
 70
     1
102
RTVSPropertyOp1
 70
     1
102
RTVSPropertyOp2
 70
     1
102
RTVSPropertyOp3
 70
     1
102
RTVSPropertyOp4
 70
     1
102
RTVSPropertyOp5
 70
     1
102
RTVSPropertyOp6
 70
     1
102
RTVSPropertyOp7
 70
     1
102
RTVSPropertyOp8
 70
     1
102
RTVSPropertyOp9
 70
     1
102
RTVSPropertyOp10
 70
     1
102
RTVSPropertyOp11
 70
     1
102
RTVSPropertyOp12
 70
     1
102
RTVSPropertyOp13
 70
     1
102
RTVSPropertyOp14
 70
     1
102
RTVSPropertyOp15
 70
     1
102
RTVSPropertyOp16
 70
     1
102
RTVSPropertyOp17
 70
     1
102
RTVSPropertyOp18
 70
     1
102
RTVSPropertyOp19
 70
     1
102
RTVSPropertyOp20
 70
     1
102
RTVSPropertyOp21
 70
     1
102
RTVSPropertyOp22
 70
     1
102
RTVSPropertyOp23
 70
     1
102
RTVSPropertyOp24
 70
     1
102
RTVSPropertyOp25
 70
     1
102
RTVSPropertyOp26
 70
     1
102
RTVSPropertyOp27
 70
     1
102
RTVSPropertyOp28
 70
     1
102
RTVSPropertyOp29
 70
     1
102
RTVSPropertyOp30
 70
     1
102
RTVSPropertyOp31
 70
     1
102
RTVSPropertyOp32
 70
     1
  0
XRECORD
  5
83
102
{ACAD_REACTORS
330
82
102
}
330
82
100
AcDbXrecord
280
     1
102
RTVSPropertyOp0
 70
     1
102
RTVSPropertyOp1
 70
     1
102
RTVSPropertyOp2
 70
     1
102
RTVSPropertyOp3
 70
     1
102
RTVSPropertyOp4
 70
     1
102
RTVSPropertyOp5
 70
     1
102
RTVSPropertyOp6
 70
     1
102
RTVSPropertyOp7
 70
     1
102
RTVSPropertyOp8
 70
     1
102
RTVSPropertyOp9
 70
     1
102
RTVSPropertyOp10
 70
     1
102
RTVSPropertyOp11
 70
     1
102
RTVSPropertyOp12
 70
     1
102
RTVSPropertyOp13
 70
     1
102
RTVSPropertyOp14
 70
     1
102
RTVSPropertyOp15
 70
     1
102
RTVSPropertyOp16
 70
     1
102
RTVSPropertyOp17
 70
     1
102
RTVSPropertyOp18
 70
     1
102
RTVSPropertyOp19
 70
     1
102
RTVSPropertyOp20
 70
     1
102
RTVSPropertyOp21
 70
     1
102
RTVSPropertyOp22
 70
     1
102
RTVSPropertyOp23
 70
     1
102
RTVSPropertyOp24
 70
     1
102
RTVSPropertyOp25
 70
     1
102
RTVSPropertyOp26
 70
     1
102
RTVSPropertyOp27
 70
     1
102
RTVSPropertyOp28
 70
     1
102
RTVSPropertyOp29
 70
     1
102
RTVSPropertyOp30
 70
     1
102
RTVSPropertyOp31
 70
     1
102
RTVSPropertyOp32
 70
     1
  0
XRECORD
  5
87
102
{ACAD_REACTORS
330
86
102
}
330
86
100
AcDbXrecord
280
     1
102
RTVSPropertyOp0
 70
     1
102
RTVSPropertyOp1
 70
     1
102
RTVSPropertyOp2
 70
     1
102
RTVSPropertyOp3
 70
     1
102
RTVSPropertyOp4
 70
     1
102
RTVSPropertyOp5
 70
     1
102
RTVSPropertyOp6
 70
     1
102
RTVSPropertyOp7
 70
     1
102
RTVSPropertyOp8
 70
     1
102
RTVSPropertyOp9
 70
     1
102
RTVSPropertyOp10
 70
     1
102
RTVSPropertyOp11
 70
     1
102
RTVSPropertyOp12
 70
     1
102
RTVSPropertyOp13
 70
     1
102
RTVSPropertyOp14
 70
     1
102
RTVSPropertyOp15
 70
     1
102
RTVSPropertyOp16
 70
     1
102
RTVSPropertyOp17
 70
     1
102
RTVSPropertyOp18
 70
     1
102
RTVSPropertyOp19
 70
     1
102
RTVSPropertyOp20
 70
     1
102
RTVSPropertyOp21
 70
     1
102
RTVSPropertyOp22
 70
     1
102
RTVSPropertyOp23
 70
     1
102
RTVSPropertyOp24
 70
     1
102
RTVSPropertyOp25
 70
     1
102
RTVSPropertyOp26
 70
     1
102
RTVSPropertyOp27
 70
     1
102
RTVSPropertyOp28
 70
     1
102
RTVSPropertyOp29
 70
     1
102
RTVSPropertyOp30
 70
     1
102
RTVSPropertyOp31
 70
     1
102
RTVSPropertyOp32
 70
     1
  0
XRECORD
  5
8F
102
{ACAD_REACTORS
330
8E
102
}
330
8E
100
AcDbXrecord
280
     1
102
RTVSPropertyOp0
 70
     1
102
RTVSPropertyOp1
 70
     1
102
RTVSPropertyOp2
 70
     1
102
RTVSPropertyOp3
 70
     1
102
RTVSPropertyOp4
 70
     1
102
RTVSPropertyOp5
 70
     1
102
RTVSPropertyOp6
 70
     1
102
RTVSPropertyOp7
 70
     1
102
RTVSPropertyOp8
 70
     1
102
RTVSPropertyOp9
 70
     1
102
RTVSPropertyOp10
 70
     1
102
RTVSPropertyOp11
 70
     1
102
RTVSPropertyOp12
 70
     1
102
RTVSPropertyOp13
 70
     1
102
RTVSPropertyOp14
 70
     1
102
RTVSPropertyOp15
 70
     1
102
RTVSPropertyOp16
 70
     1
102
RTVSPropertyOp17
 70
     1
102
RTVSPropertyOp18
 70
     1
102
RTVSPropertyOp19
 70
     1
102
RTVSPropertyOp20
 70
     1
102
RTVSPropertyOp21
 70
     1
102
RTVSPropertyOp22
 70
     1
102
RTVSPropertyOp23
 70
     1
102
RTVSPropertyOp24
 70
     1
102
RTVSPropertyOp25
 70
     1
102
RTVSPropertyOp26
 70
     1
102
RTVSPropertyOp27
 70
     1
102
RTVSPropertyOp28
 70
     1
102
RTVSPropertyOp29
 70
     1
102
RTVSPropertyOp30
 70
     1
102
RTVSPropertyOp31
 70
     1
102
RTVSPropertyOp32
 70
     1
  0
XRECORD
  5
97
102
{ACAD_REACTORS
330
96
102
}
330
96
100
AcDbXrecord
280
     1
102
RTVSPropertyOp0
 70
     1
102
RTVSPropertyOp1
 70
     1
102
RTVSPropertyOp2
 70
     1
102
RTVSPropertyOp3
 70
     1
102
RTVSPropertyOp4
 70
     1
102
RTVSPropertyOp5
 70
     1
102
RTVSPropertyOp6
 70
     1
102
RTVSPropertyOp7
 70
     1
102
RTVSPropertyOp8
 70
     1
102
RTVSPropertyOp9
 70
     1
102
RTVSPropertyOp10
 70
     1
102
RTVSPropertyOp11
 70
     1
102
RTVSPropertyOp12
 70
     1
102
RTVSPropertyOp13
 70
     1
102
RTVSPropertyOp14
 70
     1
102
RTVSPropertyOp15
 70
     1
102
RTVSPropertyOp16
 70
     1
102
RTVSPropertyOp17
 70
     1
102
RTVSPropertyOp18
 70
     1
102
RTVSPropertyOp19
 70
     1
102
RTVSPropertyOp20
 70
     1
102
RTVSPropertyOp21
 70
     1
102
RTVSPropertyOp22
 70
     1
102
RTVSPropertyOp23
 70
     1
102
RTVSPropertyOp24
 70
     1
102
RTVSPropertyOp25
 70
     1
102
RTVSPropertyOp26
 70
     1
102
RTVSPropertyOp27
 70
     1
102
RTVSPropertyOp28
 70
     1
102
RTVSPropertyOp29
 70
     1
102
RTVSPropertyOp30
 70
     1
102
RTVSPropertyOp31
 70
     1
102
RTVSPropertyOp32
 70
     1
  0
XRECORD
  5
8B
102
{ACAD_REACTORS
330
8A
102
}
330
8A
100
AcDbXrecord
280
     1
102
RTVSPropertyOp0
 70
     1
102
RTVSPropertyOp1
 70
     1
102
RTVSPropertyOp2
 70
     1
102
RTVSPropertyOp3
 70
     1
102
RTVSPropertyOp4
 70
     1
102
RTVSPropertyOp5
 70
     1
102
RTVSPropertyOp6
 70
     1
102
RTVSPropertyOp7
 70
     1
102
RTVSPropertyOp8
 70
     1
102
RTVSPropertyOp9
 70
     1
102
RTVSPropertyOp10
 70
     1
102
RTVSPropertyOp11
 70
     1
102
RTVSPropertyOp12
 70
     1
102
RTVSPropertyOp13
 70
     1
102
RTVSPropertyOp14
 70
     1
102
RTVSPropertyOp15
 70
     1
102
RTVSPropertyOp16
 70
     1
102
RTVSPropertyOp17
 70
     1
102
RTVSPropertyOp18
 70
     1
102
RTVSPropertyOp19
 70
     1
102
RTVSPropertyOp20
 70
     1
102
RTVSPropertyOp21
 70
     1
102
RTVSPropertyOp22
 70
     1
102
RTVSPropertyOp23
 70
     1
102
RTVSPropertyOp24
 70
     1
102
RTVSPropertyOp25
 70
     1
102
RTVSPropertyOp26
 70
     1
102
RTVSPropertyOp27
 70
     1
102
RTVSPropertyOp28
 70
     1
102
RTVSPropertyOp29
 70
     1
102
RTVSPropertyOp30
 70
     1
102
RTVSPropertyOp31
 70
     1
102
RTVSPropertyOp32
 70
     1
  0
XRECORD
  5
8D
102
{ACAD_REACTORS
330
8C
102
}
330
8C
100
AcDbXrecord
280
     1
102
RTVSPropertyOp0
 70
     1
102
RTVSPropertyOp1
 70
     1
102
RTVSPropertyOp2
 70
     1
102
RTVSPropertyOp3
 70
     1
102
RTVSPropertyOp4
 70
     1
102
RTVSPropertyOp5
 70
     1
102
RTVSPropertyOp6
 70
     1
102
RTVSPropertyOp7
 70
     1
102
RTVSPropertyOp8
 70
     1
102
RTVSPropertyOp9
 70
     1
102
RTVSPropertyOp10
 70
     1
102
RTVSPropertyOp11
 70
     1
102
RTVSPropertyOp12
 70
     1
102
RTVSPropertyOp13
 70
     1
102
RTVSPropertyOp14
 70
     1
102
RTVSPropertyOp15
 70
     1
102
RTVSPropertyOp16
 70
     1
102
RTVSPropertyOp17
 70
     1
102
RTVSPropertyOp18
 70
     1
102
RTVSPropertyOp19
 70
     1
102
RTVSPropertyOp20
 70
     1
102
RTVSPropertyOp21
 70
     1
102
RTVSPropertyOp22
 70
     1
102
RTVSPropertyOp23
 70
     1
102
RTVSPropertyOp24
 70
     1
102
RTVSPropertyOp25
 70
     1
102
RTVSPropertyOp26
 70
     1
102
RTVSPropertyOp27
 70
     1
102
RTVSPropertyOp28
 70
     1
102
RTVSPropertyOp29
 70
     1
102
RTVSPropertyOp30
 70
     1
102
RTVSPropertyOp31
 70
     1
102
RTVSPropertyOp32
 70
     1
  0
XRECORD
  5
95
102
{ACAD_REACTORS
330
94
102
}
330
94
100
AcDbXrecord
280
     1
102
RTVSPropertyOp0
 70
     1
102
RTVSPropertyOp1
 70
     1
102
RTVSPropertyOp2
 70
     1
102
RTVSPropertyOp3
 70
     1
102
RTVSPropertyOp4
 70
     1
102
RTVSPropertyOp5
 70
     1
102
RTVSPropertyOp6
 70
     1
102
RTVSPropertyOp7
 70
     1
102
RTVSPropertyOp8
 70
     1
102
RTVSPropertyOp9
 70
     1
102
RTVSPropertyOp10
 70
     1
102
RTVSPropertyOp11
 70
     1
102
RTVSPropertyOp12
 70
     1
102
RTVSPropertyOp13
 70
     1
102
RTVSPropertyOp14
 70
     1
102
RTVSPropertyOp15
 70
     1
102
RTVSPropertyOp16
 70
     1
102
RTVSPropertyOp17
 70
     1
102
RTVSPropertyOp18
 70
     1
102
RTVSPropertyOp19
 70
     1
102
RTVSPropertyOp20
 70
     1
102
RTVSPropertyOp21
 70
     1
102
RTVSPropertyOp22
 70
     1
102
RTVSPropertyOp23
 70
     1
102
RTVSPropertyOp24
 70
     1
102
RTVSPropertyOp25
 70
     1
102
RTVSPropertyOp26
 70
     1
102
RTVSPropertyOp27
 70
     1
102
RTVSPropertyOp28
 70
     1
102
RTVSPropertyOp29
 70
     1
102
RTVSPropertyOp30
 70
     1
102
RTVSPropertyOp31
 70
     1
102
RTVSPropertyOp32
 70
     1
  0
XRECORD
  5
79
102
{ACAD_REACTORS
330
78
102
}
330
78
100
AcDbXrecord
280
     1
102
RTVSPropertyOp0
 70
     1
102
RTVSPropertyOp1
 70
     1
102
RTVSPropertyOp2
 70
     1
102
RTVSPropertyOp3
 70
     1
102
RTVSPropertyOp4
 70
     1
102
RTVSPropertyOp5
 70
     1
102
RTVSPropertyOp6
 70
     1
102
RTVSPropertyOp7
 70
     1
102
RTVSPropertyOp8
 70
     1
102
RTVSPropertyOp9
 70
     1
102
RTVSPropertyOp10
 70
     1
102
RTVSPropertyOp11
 70
     1
102
RTVSPropertyOp12
 70
     1
102
RTVSPropertyOp13
 70
     1
102
RTVSPropertyOp14
 70
     1
102
RTVSPropertyOp15
 70
     1
102
RTVSPropertyOp16
 70
     1
102
RTVSPropertyOp17
 70
     1
102
RTVSPropertyOp18
 70
     1
102
RTVSPropertyOp19
 70
     1
102
RTVSPropertyOp20
 70
     1
102
RTVSPropertyOp21
 70
     1
102
RTVSPropertyOp22
 70
     1
102
RTVSPropertyOp23
 70
     1
102
RTVSPropertyOp24
 70
     1
102
RTVSPropertyOp25
 70
     1
102
RTVSPropertyOp26
 70
     1
102
RTVSPropertyOp27
 70
     1
102
RTVSPropertyOp28
 70
     1
102
RTVSPropertyOp29
 70
     1
102
RTVSPropertyOp30
 70
     1
102
RTVSPropertyOp31
 70
     1
102
RTVSPropertyOp32
 70
     1
  0
XRECORD
  5
7B
102
{ACAD_REACTORS
330
7A
102
}
330
7A
100
AcDbXrecord
280
     1
102
RTVSPropertyOp0
 70
     1
102
RTVSPropertyOp1
 70
     1
102
RTVSPropertyOp2
 70
     1
102
RTVSPropertyOp3
 70
     1
102
RTVSPropertyOp4
 70
     1
102
RTVSPropertyOp5
 70
     1
102
RTVSPropertyOp6
 70
     1
102
RTVSPropertyOp7
 70
     1
102
RTVSPropertyOp8
 70
     1
102
RTVSPropertyOp9
 70
     1
102
RTVSPropertyOp10
 70
     1
102
RTVSPropertyOp11
 70
     1
102
RTVSPropertyOp12
 70
     1
102
RTVSPropertyOp13
 70
     1
102
RTVSPropertyOp14
 70
     1
102
RTVSPropertyOp15
 70
     1
102
RTVSPropertyOp16
 70
     1
102
RTVSPropertyOp17
 70
     1
102
RTVSPropertyOp18
 70
     1
102
RTVSPropertyOp19
 70
     1
102
RTVSPropertyOp20
 70
     1
102
RTVSPropertyOp21
 70
     1
102
RTVSPropertyOp22
 70
     1
102
RTVSPropertyOp23
 70
     1
102
RTVSPropertyOp24
 70
     1
102
RTVSPropertyOp25
 70
     1
102
RTVSPropertyOp26
 70
     1
102
RTVSPropertyOp27
 70
     1
102
RTVSPropertyOp28
 70
     1
102
RTVSPropertyOp29
 70
     1
102
RTVSPropertyOp30
 70
     1
102
RTVSPropertyOp31
 70
     1
102
RTVSPropertyOp32
 70
     1
  0
XRECORD
  5
7D
102
{ACAD_REACTORS
330
7C
102
}
330
7C
100
AcDbXrecord
280
     1
102
RTVSPropertyOp0
 70
     1
102
RTVSPropertyOp1
 70
     1
102
RTVSPropertyOp2
 70
     1
102
RTVSPropertyOp3
 70
     1
102
RTVSPropertyOp4
 70
     1
102
RTVSPropertyOp5
 70
     1
102
RTVSPropertyOp6
 70
     1
102
RTVSPropertyOp7
 70
     1
102
RTVSPropertyOp8
 70
     1
102
RTVSPropertyOp9
 70
     1
102
RTVSPropertyOp10
 70
     1
102
RTVSPropertyOp11
 70
     1
102
RTVSPropertyOp12
 70
     1
102
RTVSPropertyOp13
 70
     1
102
RTVSPropertyOp14
 70
     1
102
RTVSPropertyOp15
 70
     1
102
RTVSPropertyOp16
 70
     1
102
RTVSPropertyOp17
 70
     1
102
RTVSPropertyOp18
 70
     1
102
RTVSPropertyOp19
 70
     1
102
RTVSPropertyOp20
 70
     1
102
RTVSPropertyOp21
 70
     1
102
RTVSPropertyOp22
 70
     1
102
RTVSPropertyOp23
 70
     1
102
RTVSPropertyOp24
 70
     1
102
RTVSPropertyOp25
 70
     1
102
RTVSPropertyOp26
 70
     1
102
RTVSPropertyOp27
 70
     1
102
RTVSPropertyOp28
 70
     1
102
RTVSPropertyOp29
 70
     1
102
RTVSPropertyOp30
 70
     1
102
RTVSPropertyOp31
 70
     1
102
RTVSPropertyOp32
 70
     1
  0
XRECORD
  5
7F
102
{ACAD_REACTORS
330
7E
102
}
330
7E
100
AcDbXrecord
280
     1
102
RTVSPropertyOp0
 70
     1
102
RTVSPropertyOp1
 70
     1
102
RTVSPropertyOp2
 70
     1
102
RTVSPropertyOp3
 70
     1
102
RTVSPropertyOp4
 70
     1
102
RTVSPropertyOp5
 70
     1
102
RTVSPropertyOp6
 70
     1
102
RTVSPropertyOp7
 70
     1
102
RTVSPropertyOp8
 70
     1
102
RTVSPropertyOp9
 70
     1
102
RTVSPropertyOp10
 70
     1
102
RTVSPropertyOp11
 70
     1
102
RTVSPropertyOp12
 70
     1
102
RTVSPropertyOp13
 70
     1
102
RTVSPropertyOp14
 70
     1
102
RTVSPropertyOp15
 70
     1
102
RTVSPropertyOp16
 70
     1
102
RTVSPropertyOp17
 70
     1
102
RTVSPropertyOp18
 70
     1
102
RTVSPropertyOp19
 70
     1
102
RTVSPropertyOp20
 70
     1
102
RTVSPropertyOp21
 70
     1
102
RTVSPropertyOp22
 70
     1
102
RTVSPropertyOp23
 70
     1
102
RTVSPropertyOp24
 70
     1
102
RTVSPropertyOp25
 70
     1
102
RTVSPropertyOp26
 70
     1
102
RTVSPropertyOp27
 70
     1
102
RTVSPropertyOp28
 70
     1
102
RTVSPropertyOp29
 70
     1
102
RTVSPropertyOp30
 70
     1
102
RTVSPropertyOp31
 70
     1
102
RTVSPropertyOp32
 70
     1
  0
XRECORD
  5
93
102
{ACAD_REACTORS
330
92
102
}
330
92
100
AcDbXrecord
280
     1
102
RTVSPropertyOp0
 70
     1
102
RTVSPropertyOp1
 70
     1
102
RTVSPropertyOp2
 70
     1
102
RTVSPropertyOp3
 70
     1
102
RTVSPropertyOp4
 70
     1
102
RTVSPropertyOp5
 70
     1
102
RTVSPropertyOp6
 70
     1
102
RTVSPropertyOp7
 70
     1
102
RTVSPropertyOp8
 70
     1
102
RTVSPropertyOp9
 70
     1
102
RTVSPropertyOp10
 70
     1
102
RTVSPropertyOp11
 70
     1
102
RTVSPropertyOp12
 70
     1
102
RTVSPropertyOp13
 70
     1
102
RTVSPropertyOp14
 70
     1
102
RTVSPropertyOp15
 70
     1
102
RTVSPropertyOp16
 70
     1
102
RTVSPropertyOp17
 70
     1
102
RTVSPropertyOp18
 70
     1
102
RTVSPropertyOp19
 70
     1
102
RTVSPropertyOp20
 70
     1
102
RTVSPropertyOp21
 70
     1
102
RTVSPropertyOp22
 70
     1
102
RTVSPropertyOp23
 70
     1
102
RTVSPropertyOp24
 70
     1
102
RTVSPropertyOp25
 70
     1
102
RTVSPropertyOp26
 70
     1
102
RTVSPropertyOp27
 70
     1
102
RTVSPropertyOp28
 70
     1
102
RTVSPropertyOp29
 70
     1
102
RTVSPropertyOp30
 70
     1
102
RTVSPropertyOp31
 70
     1
102
RTVSPropertyOp32
 70
     1
  0
XRECORD
  5
89
102
{ACAD_REACTORS
330
88
102
}
330
88
100
AcDbXrecord
280
     1
102
RTVSPropertyOp0
 70
     1
102
RTVSPropertyOp1
 70
     1
102
RTVSPropertyOp2
 70
     1
102
RTVSPropertyOp3
 70
     1
102
RTVSPropertyOp4
 70
     1
102
RTVSPropertyOp5
 70
     1
102
RTVSPropertyOp6
 70
     1
102
RTVSPropertyOp7
 70
     1
102
RTVSPropertyOp8
 70
     1
102
RTVSPropertyOp9
 70
     1
102
RTVSPropertyOp10
 70
     1
102
RTVSPropertyOp11
 70
     1
102
RTVSPropertyOp12
 70
     1
102
RTVSPropertyOp13
 70
     1
102
RTVSPropertyOp14
 70
     1
102
RTVSPropertyOp15
 70
     1
102
RTVSPropertyOp16
 70
     1
102
RTVSPropertyOp17
 70
     1
102
RTVSPropertyOp18
 70
     1
102
RTVSPropertyOp19
 70
     1
102
RTVSPropertyOp20
 70
     1
102
RTVSPropertyOp21
 70
     1
102
RTVSPropertyOp22
 70
     1
102
RTVSPropertyOp23
 70
     1
102
RTVSPropertyOp24
 70
     1
102
RTVSPropertyOp25
 70
     1
102
RTVSPropertyOp26
 70
     1
102
RTVSPropertyOp27
 70
     1
102
RTVSPropertyOp28
 70
     1
102
RTVSPropertyOp29
 70
     1
102
RTVSPropertyOp30
 70
     1
102
RTVSPropertyOp31
 70
     1
102
RTVSPropertyOp32
 70
     1
  0
XRECORD
  5
91
102
{ACAD_REACTORS
330
90
102
}
330
90
100
AcDbXrecord
280
     1
102
RTVSPropertyOp0
 70
     1
102
RTVSPropertyOp1
 70
     1
102
RTVSPropertyOp2
 70
     1
102
RTVSPropertyOp3
 70
     1
102
RTVSPropertyOp4
 70
     1
102
RTVSPropertyOp5
 70
     1
102
RTVSPropertyOp6
 70
     1
102
RTVSPropertyOp7
 70
     1
102
RTVSPropertyOp8
 70
     1
102
RTVSPropertyOp9
 70
     1
102
RTVSPropertyOp10
 70
     1
102
RTVSPropertyOp11
 70
     1
102
RTVSPropertyOp12
 70
     1
102
RTVSPropertyOp13
 70
     1
102
RTVSPropertyOp14
 70
     1
102
RTVSPropertyOp15
 70
     1
102
RTVSPropertyOp16
 70
     1
102
RTVSPropertyOp17
 70
     1
102
RTVSPropertyOp18
 70
     1
102
RTVSPropertyOp19
 70
     1
102
RTVSPropertyOp20
 70
     1
102
RTVSPropertyOp21
 70
     1
102
RTVSPropertyOp22
 70
     1
102
RTVSPropertyOp23
 70
     1
102
RTVSPropertyOp24
 70
     1
102
RTVSPropertyOp25
 70
     1
102
RTVSPropertyOp26
 70
     1
102
RTVSPropertyOp27
 70
     1
102
RTVSPropertyOp28
 70
     1
102
RTVSPropertyOp29
 70
     1
102
RTVSPropertyOp30
 70
     1
102
RTVSPropertyOp31
 70
     1
102
RTVSPropertyOp32
 70
     1
  0
ENDSEC
  0
EOF
