  0
SECTION
  2
HEADER
  9
$ACADVER
  1
AC1018
  9
$ACADMAINTVER
 70
     0
  9
$DWGCODEPAGE
  3
UNDEFINED
  9
$INSBASE
 10
0.0
 20
0.0
 30
0.0
  9
$EXTMIN
 10
1.000000000000000E+20
 20
1.000000000000000E+20
 30
1.000000000000000E+20
  9
$EXTMAX
 10
-1.000000000000000E+20
 20
-1.000000000000000E+20
 30
-1.000000000000000E+20
  9
$LIMMIN
 10
0.0
 20
0.0
  9
$LIMMAX
 10
12.0
 20
9.0
  9
$ORTHOMODE
 70
     0
  9
$REGENMODE
 70
     1
  9
$FILLMODE
 70
     1
  9
$QTEXTMODE
 70
     0
  9
$MIRRTEXT
 70
     1
  9
$LTSCALE
 40
1.0
  9
$ATTMODE
 70
     1
  9
$TEXTSIZE
 40
0.2
  9
$TRACEWID
 40
0.05
  9
$TEXTSTYLE
  7
Standard
  9
$CLAYER
  8
0
  9
$CELTYPE
  6
ByLayer
  9
$CECOLOR
 62
   256
  9
$CELTSCALE
 40
1.0
  9
$DISPSILH
 70
     0
  9
$DIMSCALE
 40
1.0
  9
$DIMASZ
 40
0.18
  9
$DIMEXO
 40
0.0625
  9
$DIMDLI
 40
0.38
  9
$DIMRND
 40
0.0
  9
$DIMDLE
 40
0.0
  9
$DIMEXE
 40
0.18
  9
$DIMTP
 40
0.0
  9
$DIMTM
 40
0.0
  9
$DIMTXT
 40
0.18
  9
$DIMCEN
 40
0.09
  9
$DIMTSZ
 40
0.0
  9
$DIMTOL
 70
     0
  9
$DIMLIM
 70
     0
  9
$DIMTIH
 70
     1
  9
$DIMTOH
 70
     1
  9
$DIMSE1
 70
     0
  9
$DIMSE2
 70
     0
  9
$DIMTAD
 70
     0
  9
$DIMZIN
 70
     0
  9
$DIMBLK
  1

  9
$DIMASO
 70
     1
  9
$DIMSHO
 70
     1
  9
$DIMPOST
  1

  9
$DIMAPOST
  1

  9
$DIMALT
 70
     0
  9
$DIMALTD
 70
     2
  9
$DIMALTF
 40
25.4
  9
$DIMLFAC
 40
1.0
  9
$DIMTOFL
 70
     0
  9
$DIMTVP
 40
0.0
  9
$DIMTIX
 70
     0
  9
$DIMSOXD
 70
     0
  9
$DIMSAH
 70
     0
  9
$DIMBLK1
  1

  9
$DIMBLK2
  1

  9
$DIMSTYLE
  2
Standard
  9
$DIMCLRD
 70
     0
  9
$DIMCLRE
 70
     0
  9
$DIMCLRT
 70
     0
  9
$DIMTFAC
 40
1.0
  9
$DIMGAP
 40
0.09
  9
$DIMJUST
 70
     0
  9
$DIMSD1
 70
     0
  9
$DIMSD2
 70
     0
  9
$DIMTOLJ
 70
     1
  9
$DIMTZIN
 70
     0
  9
$DIMALTZ
 70
     0
  9
$DIMALTTZ
 70
     0
  9
$DIMUPT
 70
     0
  9
$DIMDEC
 70
     4
  9
$DIMTDEC
 70
     4
  9
$DIMALTU
 70
     2
  9
$DIMALTTD
 70
     2
  9
$DIMTXSTY
  7
Standard
  9
$DIMAUNIT
 70
     0
  9
$DIMADEC
 70
     0
  9
$DIMALTRND
 40
0.0
  9
$DIMAZIN
 70
     0
  9
$DIMDSEP
 70
    46
  9
$DIMATFIT
 70
     3
  9
$DIMFRAC
 70
     0
  9
$DIMLDRBLK
  1

  9
$DIMLUNIT
 70
     2
  9
$DIMLWD
 70
    -2
  9
$DIMLWE
 70
    -2
  9
$DIMTMOVE
 70
     0
  9
$LUNITS
 70
     2
  9
$LUPREC
 70
     4
  9
$SKETCHINC
 40
0.1
  9
$FILLETRAD
 40
0.5
  9
$AUNITS
 70
     0
  9
$AUPREC
 70
     0
  9
$MENU
  1
.
  9
$ELEVATION
 40
0.0
  9
$PELEVATION
 40
0.0
  9
$THICKNESS
 40
0.0
  9
$LIMCHECK
 70
     0
  9
$CHAMFERA
 40
0.5
  9
$CHAMFERB
 40
0.5
  9
$CHAMFERC
 40
1.0
  9
$CHAMFERD
 40
0.0
  9
$SKPOLY
 70
     0
  9
$TDCREATE
 40
2457409.984513877
  9
$TDUCREATE
 40
2457409.942847222
  9
$TDUPDATE
 40
2457409.984513877
  9
$TDUUPDATE
 40
2457409.942847222
  9
$TDINDWG
 40
0.0000000116
  9
$TDUSRTIMER
 40
0.0000000116
  9
$USRTIMER
 70
     1
  9
$ANGBASE
 50
0.0
  9
$ANGDIR
 70
     0
  9
$PDMODE
 70
     0
  9
$PDSIZE
 40
0.0
  9
$PLINEWID
 40
0.0
  9
$SPLFRAME
 70
     0
  9
$SPLINETYPE
 70
     6
  9
$SPLINESEGS
 70
     8
  9
$HANDSEED
  5
A0
  9
$SURFTAB1
 70
     6
  9
$SURFTAB2
 70
     6
  9
$SURFTYPE
 70
     6
  9
$SURFU
 70
     6
  9
$SURFV
 70
     6
  9
$UCSBASE
  2

  9
$UCSNAME
  2

  9
$UCSORG
 10
0.0
 20
0.0
 30
0.0
  9
$UCSXDIR
 10
1.0
 20
0.0
 30
0.0
  9
$UCSYDIR
 10
0.0
 20
1.0
 30
0.0
  9
$UCSORTHOREF
  2

  9
$UCSORTHOVIEW
 70
     0
  9
$UCSORGTOP
 10
0.0
 20
0.0
 30
0.0
  9
$UCSORGBOTTOM
 10
0.0
 20
0.0
 30
0.0
  9
$UCSORGLEFT
 10
0.0
 20
0.0
 30
0.0
  9
$UCSORGRIGHT
 10
0.0
 20
0.0
 30
0.0
  9
$UCSORGFRONT
 10
0.0
 20
0.0
 30
0.0
  9
$UCSORGBACK
 10
0.0
 20
0.0
 30
0.0
  9
$PUCSBASE
  2

  9
$PUCSNAME
  2

  9
$PUCSORG
 10
0.0
 20
0.0
 30
0.0
  9
$PUCSXDIR
 10
1.0
 20
0.0
 30
0.0
  9
$PUCSYDIR
 10
0.0
 20
1.0
 30
0.0
  9
$PUCSORTHOREF
  2

  9
$PUCSORTHOVIEW
 70
     0
  9
$PUCSORGTOP
 10
0.0
 20
0.0
 30
0.0
  9
$PUCSORGBOTTOM
 10
0.0
 20
0.0
 30
0.0
  9
$PUCSORGLEFT
 10
0.0
 20
0.0
 30
0.0
  9
$PUCSORGRIGHT
 10
0.0
 20
0.0
 30
0.0
  9
$PUCSORGFRONT
 10
0.0
 20
0.0
 30
0.0
  9
$PUCSORGBACK
 10
0.0
 20
0.0
 30
0.0
  9
$USERI1
 70
     0
  9
$USERI2
 70
     0
  9
$USERI3
 70
     0
  9
$USERI4
 70
     0
  9
$USERI5
 70
     0
  9
$USERR1
 40
0.0
  9
$USERR2
 40
0.0
  9
$USERR3
 40
0.0
  9
$USERR4
 40
0.0
  9
$USERR5
 40
0.0
  9
$WORLDVIEW
 70
     1
  9
$SHADEDGE
 70
     3
  9
$SHADEDIF
 70
    70
  9
$TILEMODE
 70
     1
  9
$MAXACTVP
 70
    64
  9
$PINSBASE
 10
0.0
 20
0.0
 30
0.0
  9
$PLIMCHECK
 70
     0
  9
$PEXTMIN
 10
1.000000000000000E+20
 20
1.000000000000000E+20
 30
1.000000000000000E+20
  9
$PEXTMAX
 10
-1.000000000000000E+20
 20
-1.000000000000000E+20
 30
-1.000000000000000E+20
  9
$PLIMMIN
 10
0.0
 20
0.0
  9
$PLIMMAX
 10
12.0
 20
9.0
  9
$UNITMODE
 70
     0
  9
$VISRETAIN
 70
     1
  9
$PLINEGEN
 70
     0
  9
$PSLTSCALE
 70
     1
  9
$TREEDEPTH
 70
  3020
  9
$CMLSTYLE
  2
Standard
  9
$CMLJUST
 70
     0
  9
$CMLSCALE
 40
1.0
  9
$PROXYGRAPHICS
 70
     1
  9
$MEASUREMENT
 70
     0
  9
$CELWEIGHT
370
    -1
  9
$ENDCAPS
280
     0
  9
$JOINSTYLE
280
     0
  9
$LWDISPLAY
290
     1
  9
$INSUNITS
 70
     1
  9
$HYPERLINKBASE
  1

  9
$STYLESHEET
  1

  9
$XEDIT
290
     1
  9
$CEPSNTYPE
380
     0
  9
$PSTYLEMODE
290
     1
  9
$FINGERPRINTGUID
  2
{60356A3E-4775-0F5B-C2DB-E284F94367D1}
  9
$VERSIONGUID
  2
{FAEB1C32-E019-11D5-929B-00C0DF256EC4}
  9
$EXTNAMES
290
     1
  9
$PSVPSCALE
 40
0.0
  9
$OLESTARTUP
290
     0
  9
$SORTENTS
280
   127
  9
$INDEXCTL
280
     0
  9
$HIDETEXT
280
     1
  9
$XCLIPFRAME
290
     0
  9
$HALOGAP
280
     0
  9
$OBSCOLOR
 70
   257
  9
$OBSLTYPE
280
     0
  9
$INTERSECTIONDISPLAY
280
     0
  9
$INTERSECTIONCOLOR
 70
   257
  9
$DIMASSOC
280
     2
  9
$PROJECTNAME
  1

  0
ENDSEC
  0
SECTION
  2
CLASSES
  0
CLASS
  1
ACDBDICTIONARYWDFLT
  2
AcDbDictionaryWithDefault
  3
ObjectDBX Classes
 90
        0
 91
        4
280
     0
281
     0
  0
CLASS
  1
VISUALSTYLE
  2
AcDbVisualStyle
  3
ObjectDBX Classes
 90
     4095
 91
        4
280
     0
281
     0
  0
CLASS
  1
MATERIAL
  2
AcDbMaterial
  3
ObjectDBX Classes
 90
     1153
 91
        4
280
     0
281
     0
  0
CLASS
  1
SUN
  2
AcDbSun
  3
SCENEOE
 90
     1024
 91
        4
280
     0
281
     0
  0
ENDSEC
  0
SECTION
  2
TABLES
  0
TABLE
  2
VPORT
  5
8
330
0
100
AcDbSymbolTable
 70
     1
  0
VPORT
  5
29
330
8
100
AcDbSymbolTableRecord
100
AcDbViewportTableRecord
  2
*Active
 70
     0
 10
0.0
 20
0.0
 11
1.0
 21
1.0
 12
0.0
 22
0.0
 13
0.0
 23
0.0
 14
0.5
 24
0.5
 15
0.5
 25
0.5
 16
0.0
 26
0.0
 36
1.0
 17
62.50000180695258
 27
50.00000036896973
 37
0.0
 40
100.0000007379395
 41
1.250000026914808
 42
50.0
 43
0.0
 44
0.0
 50
0.0
 51
0.0
 71
     0
 72
   100
 73
     1
 74
     3
 75
     0
 76
     0
 77
     0
 78
     0
281
     0
 65
     1
110
0.0
120
0.0
130
0.0
111
1.0
121
0.0
131
0.0
112
0.0
122
1.0
132
0.0
 79
     0
146
0.0
  0
ENDTAB
  0
TABLE
  2
LTYPE
  5
5
330
0
100
AcDbSymbolTable
 70
     1
  0
LTYPE
  5
14
330
5
100
AcDbSymbolTableRecord
100
AcDbLinetypeTableRecord
  2
ByBlock
 70
     0
  3

 72
    65
 73
     0
 40
0.0
  0
LTYPE
  5
15
330
5
100
AcDbSymbolTableRecord
100
AcDbLinetypeTableRecord
  2
ByLayer
 70
     0
  3

 72
    65
 73
     0
 40
0.0
  0
LTYPE
  5
16
330
5
100
AcDbSymbolTableRecord
100
AcDbLinetypeTableRecord
  2
Continuous
 70
     0
  3
Solid line
 72
    65
 73
     0
 40
0.0
  0
ENDTAB
  0
TABLE
  2
LAYER
  5
2
330
0
100
AcDbSymbolTable
 70
     2
  0
LAYER
  5
10
330
2
100
AcDbSymbolTableRecord
100
AcDbLayerTableRecord
  2
0
 70
     0
 62
     7
  6
Continuous
370
    -3
390
F
  0
LAYER
  5
40
330
2
100
AcDbSymbolTableRecord
100
AcDbLayerTableRecord
  2
svg2
 70
     0
 62
     7
  6
Continuous
370
    -3
390
F
  0
ENDTAB
  0
TABLE
  2
STYLE
  5
3
330
0
100
AcDbSymbolTable
 70
     1
  0
STYLE
  5
11
330
3
100
AcDbSymbolTableRecord
100
AcDbTextStyleTableRecord
  2
Standard
 70
     0
 40
0.0
 41
1.0
 50
0.0
 71
     0
 42
0.2
  3
txt
  4

  0
ENDTAB
  0
TABLE
  2
VIEW
  5
6
330
0
100
AcDbSymbolTable
 70
     0
  0
ENDTAB
  0
TABLE
  2
UCS
  5
7
330
0
100
AcDbSymbolTable
 70
     0
  0
ENDTAB
  0
TABLE
  2
APPID
  5
9
330
0
100
AcDbSymbolTable
 70
     1
  0
APPID
  5
12
330
9
100
AcDbSymbolTableRecord
100
AcDbRegAppTableRecord
  2
ACAD
 70
     0
  0
ENDTAB
  0
TABLE
  2
DIMSTYLE
  5
A
330
0
100
AcDbSymbolTable
 70
     1
100
AcDbDimStyleTable
  0
DIMSTYLE
105
27
330
A
100
AcDbSymbolTableRecord
100
AcDbDimStyleTableRecord
  2
Standard
 70
     0
178
     0
340
11
  0
ENDTAB
  0
TABLE
  2
BLOCK_RECORD
  5
1
330
0
100
AcDbSymbolTable
 70
    11
  0
BLOCK_RECORD
  5
1F
330
1
100
AcDbSymbolTableRecord
100
AcDbBlockTableRecord
  2
*Model_Space
340
22
  0
BLOCK_RECORD
  5
1B
330
1
100
AcDbSymbolTableRecord
100
AcDbBlockTableRecord
  2
*Paper_Space
340
1E
  0
BLOCK_RECORD
  5
23
330
1
100
AcDbSymbolTableRecord
100
AcDbBlockTableRecord
  2
*Paper_Space0
340
26
  0
BLOCK_RECORD
  5
41
330
1
100
AcDbSymbolTableRecord
100
AcDbBlockTableRecord
  2
block 2
340
0
102
{BLKREFS
331
42
102
}
  0
BLOCK_RECORD
  5
45
330
1
100
AcDbSymbolTableRecord
100
AcDbBlockTableRecord
  2
block 3
340
0
102
{BLKREFS
331
46
102
}
  0
BLOCK_RECORD
  5
49
330
1
100
AcDbSymbolTableRecord
100
AcDbBlockTableRecord
  2
block 4
340
0
102
{BLKREFS
331
4A
102
}
  0
BLOCK_RECORD
  5
4D
330
1
100
AcDbSymbolTableRecord
100
AcDbBlockTableRecord
  2
block 5
340
0
102
{BLKREFS
331
4E
102
}
  0
BLOCK_RECORD
  5
56
330
1
100
AcDbSymbolTableRecord
100
AcDbBlockTableRecord
  2
block 6
340
0
102
{BLKREFS
331
57
102
}
  0
BLOCK_RECORD
  5
5A
330
1
100
AcDbSymbolTableRecord
100
AcDbBlockTableRecord
  2
block 7
340
0
102
{BLKREFS
331
5B
102
}
  0
BLOCK_RECORD
  5
64
330
1
100
AcDbSymbolTableRecord
100
AcDbBlockTableRecord
  2
block 8
340
0
102
{BLKREFS
331
65
102
}
  0
BLOCK_RECORD
  5
68
330
1
100
AcDbSymbolTableRecord
100
AcDbBlockTableRecord
  2
block 9
340
0
102
{BLKREFS
331
69
102
}
  0
BLOCK_RECORD
  5
6C
330
1
100
AcDbSymbolTableRecord
100
AcDbBlockTableRecord
  2
block 10
340
0
102
{BLKREFS
331
6D
102
}
  0
BLOCK_RECORD
  5
70
330
1
100
AcDbSymbolTableRecord
100
AcDbBlockTableRecord
  2
block 11
340
0
102
{BLKREFS
331
71
102
}
  0
ENDTAB
  0
ENDSEC
  0
SECTION
  2
BLOCKS
  0
BLOCK
  5
20
330
1F
100
AcDbEntity
  8
0
100
AcDbBlockBegin
  2
*Model_Space
 70
     0
 10
0.0
 20
0.0
 30
0.0
  3
*Model_Space
  1

  0
ENDBLK
  5
21
330
1F
100
AcDbEntity
  8
0
100
AcDbBlockEnd
  0
BLOCK
  5
1C
330
1B
100
AcDbEntity
 67
     1
  8
0
100
AcDbBlockBegin
  2
*Paper_Space
 70
     0
 10
0.0
 20
0.0
 30
0.0
  3
*Paper_Space
  1

  0
ENDBLK
  5
1D
330
1B
100
AcDbEntity
 67
     1
  8
0
100
AcDbBlockEnd
  0
BLOCK
  5
24
330
23
100
AcDbEntity
  8
0
100
AcDbBlockBegin
  2
*Paper_Space0
 70
     0
 10
0.0
 20
0.0
 30
0.0
  3
*Paper_Space0
  1

  0
ENDBLK
  5
25
330
23
100
AcDbEntity
  8
0
100
AcDbBlockEnd
  0
BLOCK
  5
43
330
41
100
AcDbEntity
  8
0
100
AcDbBlockBegin
  2
block 2
 70
     0
 10
0.0
 20
0.0
 30
0.0
  3
block 2
  1

  0
ENDBLK
  5
44
330
41
100
AcDbEntity
  8
0
100
AcDbBlockEnd
  0
BLOCK
  5
47
330
45
100
AcDbEntity
  8
0
100
AcDbBlockBegin
  2
block 3
 70
     0
 10
0.0
 20
0.0
 30
0.0
  3
block 3
  1

  0
ENDBLK
  5
48
330
45
100
AcDbEntity
  8
0
100
AcDbBlockEnd
  0
BLOCK
  5
4B
330
49
100
AcDbEntity
  8
0
100
AcDbBlockBegin
  2
block 4
 70
     0
 10
0.0
 20
0.0
 30
0.0
  3
block 4
  1

  0
INSERT
  5
4E
330
49
100
AcDbEntity
  8
svg2
100
AcDbBlockReference
  2
block 5
 10
0.0
 20
0.0
 30
0.0
  0
ENDBLK
  5
4C
330
49
100
AcDbEntity
  8
0
100
AcDbBlockEnd
  0
BLOCK
  5
4F
330
4D
100
AcDbEntity
  8
0
100
AcDbBlockBegin
  2
block 5
 70
     0
 10
0.0
 20
0.0
 30
0.0
  3
block 5
  1

  0
SPLINE
  5
51
330
4D
100
AcDbEntity
  8
svg2
 62
     7
370
    35
100
AcDbSpline
210
0.0
220
0.0
230
1.0
 70
    11
 71
     3
 72
    17
 73
    13
 74
     0
 42
0.0000000001
 43
0.0000000001
 12
1.0
 22
0.0
 32
0.0
 13
1.0
 23
0.0
 33
0.0
 40
0.0
 40
0.0
 40
0.0
 40
0.0
 40
1.0
 40
1.0
 40
1.0
 40
2.0
 40
2.0
 40
2.0
 40
3.0
 40
3.0
 40
3.0
 40
4.0
 40
4.0
 40
4.0
 40
4.0
 10
121.280182949584
 20
4.013481114962436
 30
0.0
 10
120.3964814934944
 20
4.013481114962436
 30
0.0
 10
119.6803322588266
 20
4.729613124152517
 30
0.0
 10
119.6803322588266
 20
5.613349031197497
 30
0.0
 10
119.6803322588266
 20
6.49705048728711
 30
0.0
 10
120.3964642680167
 20
7.213182496477192
 30
0.0
 10
121.280182949584
 20
7.213182496477192
 30
0.0
 10
122.1638844056736
 20
7.213182496477192
 30
0.0
 10
122.8800336403414
 20
6.49705048728711
 30
0.0
 10
122.8800336403414
 20
5.613349031197497
 30
0.0
 10
122.8800336403414
 20
4.729630349630201
 30
0.0
 10
122.1639016311513
 20
4.013481114962436
 30
0.0
 10
121.280182949584
 20
4.013481114962436
 30
0.0
  0
SPLINE
  5
52
330
4D
100
AcDbEntity
  8
svg2
 62
     7
370
    35
100
AcDbSpline
210
0.0
220
0.0
230
1.0
 70
    11
 71
     3
 72
    17
 73
    13
 74
     0
 42
0.0000000001
 43
0.0000000001
 12
1.0
 22
0.0
 32
0.0
 13
1.0
 23
0.0
 33
0.0
 40
0.0
 40
0.0
 40
0.0
 40
0.0
 40
1.0
 40
1.0
 40
1.0
 40
2.0
 40
2.0
 40
2.0
 40
3.0
 40
3.0
 40
3.0
 40
4.0
 40
4.0
 40
4.0
 40
4.0
 10
121.280182949584
 20
95.98654208704053
 30
0.0
 10
122.1638844056736
 20
95.98654208704053
 30
0.0
 10
122.8800336403414
 20
95.2704014651116
 30
0.0
 10
122.8800336403414
 20
94.38669139628315
 30
0.0
 10
122.8800336403414
 20
93.5029813274547
 30
0.0
 10
122.1639016311513
 20
92.78648758323328
 30
0.0
 10
121.280182949584
 20
92.78648758323328
 30
0.0
 10
120.3964814934944
 20
92.78648758323328
 30
0.0
 10
119.6799877492729
 20
93.5029813274547
 30
0.0
 10
119.6799877492729
 20
94.38669139628315
 30
0.0
 10
119.6799877492729
 20
95.2704014651116
 30
0.0
 10
120.3964814934944
 20
95.98654208704053
 30
0.0
 10
121.280182949584
 20
95.98654208704053
 30
0.0
  0
SPLINE
  5
53
330
4D
100
AcDbEntity
  8
svg2
 62
     7
370
    35
100
AcDbSpline
210
0.0
220
0.0
230
1.0
 70
    11
 71
     3
 72
    17
 73
    13
 74
     0
 42
0.0000000001
 43
0.0000000001
 12
1.0
 22
0.0
 32
0.0
 13
1.0
 23
0.0
 33
0.0
 40
0.0
 40
0.0
 40
0.0
 40
0.0
 40
1.0
 40
1.0
 40
1.0
 40
2.0
 40
2.0
 40
2.0
 40
3.0
 40
3.0
 40
3.0
 40
4.0
 40
4.0
 40
4.0
 40
4.0
 10
3.72016488333503
 20
4.013481114962436
 30
0.0
 10
2.836454814506575
 20
4.013481114962436
 30
0.0
 10
2.119965376654572
 20
4.729613124152517
 30
0.0
 10
2.119965376654572
 20
5.613349031197497
 30
0.0
 10
2.119965376654572
 20
6.49705048728711
 30
0.0
 10
2.836459120875995
 20
7.213182496477192
 30
0.0
 10
3.72016488333503
 20
7.213182496477192
 30
0.0
 10
4.603874952163485
 20
7.213182496477192
 30
0.0
 10
5.320364390015488
 20
6.49705048728711
 30
0.0
 10
5.320364390015488
 20
5.613349031197497
 30
0.0
 10
5.320364390015488
 20
4.729630349630201
 30
0.0
 10
4.603870645794064
 20
4.013481114962436
 30
0.0
 10
3.72016488333503
 20
4.013481114962436
 30
0.0
  0
SPLINE
  5
54
330
4D
100
AcDbEntity
  8
svg2
 62
     7
370
    35
100
AcDbSpline
210
0.0
220
0.0
230
1.0
 70
    11
 71
     3
 72
    17
 73
    13
 74
     0
 42
0.0000000001
 43
0.0000000001
 12
1.0
 22
0.0
 32
0.0
 13
1.0
 23
0.0
 33
0.0
 40
0.0
 40
0.0
 40
0.0
 40
0.0
 40
1.0
 40
1.0
 40
1.0
 40
2.0
 40
2.0
 40
2.0
 40
3.0
 40
3.0
 40
3.0
 40
4.0
 40
4.0
 40
4.0
 40
4.0
 10
3.72016488333503
 20
95.98654208704053
 30
0.0
 10
4.603874952163485
 20
95.98654208704053
 30
0.0
 10
5.320364390015488
 20
95.2704014651116
 30
0.0
 10
5.320364390015488
 20
94.38669139628315
 30
0.0
 10
5.320364390015488
 20
93.5029813274547
 30
0.0
 10
4.603870645794064
 20
92.78648758323328
 30
0.0
 10
3.72016488333503
 20
92.78648758323328
 30
0.0
 10
2.836454814506575
 20
92.78648758323328
 30
0.0
 10
2.119965376654572
 20
93.5029813274547
 30
0.0
 10
2.119965376654572
 20
94.38669139628315
 30
0.0
 10
2.119965376654572
 20
95.2704014651116
 30
0.0
 10
2.836459120875995
 20
95.98654208704053
 30
0.0
 10
3.72016488333503
 20
95.98654208704053
 30
0.0
  0
SPLINE
  5
55
330
4D
100
AcDbEntity
  8
svg2
 62
     7
370
    35
100
AcDbSpline
210
0.0
220
0.0
230
1.0
 70
    11
 71
     3
 72
    29
 73
    25
 74
     0
 42
0.0000000001
 43
0.0000000001
 12
1.0
 22
0.0
 32
0.0
 13
1.0
 23
0.0
 33
0.0
 40
0.0
 40
0.0
 40
0.0
 40
0.0
 40
1.0
 40
1.0
 40
1.0
 40
2.0
 40
2.0
 40
2.0
 40
3.0
 40
3.0
 40
3.0
 40
4.0
 40
4.0
 40
4.0
 40
5.0
 40
5.0
 40
5.0
 40
6.0
 40
6.0
 40
6.0
 40
7.0
 40
7.0
 40
7.0
 40
8.0
 40
8.0
 40
8.0
 40
8.0
 10
121.7800835374203
 20
96.8868316781388
 30
0.0
 10
121.7800835374203
 20
96.8868316781388
 30
0.0
 10
3.219937011422777
 20
96.8868316781388
 30
0.0
 10
3.219937011422777
 20
96.8868316781388
 30
0.0
 10
2.119973989393414
 20
96.8868316781388
 30
0.0
 10
1.220041826957061
 20
95.98654208704053
 30
0.0
 10
1.220041826957061
 20
94.8865833713806
 30
0.0
 10
1.220041826957061
 20
94.8865833713806
 30
0.0
 10
1.220041826957061
 20
5.11344844336122
 30
0.0
 10
1.220041826957061
 20
5.11344844336122
 30
0.0
 10
1.220041826957061
 20
4.013481114962436
 30
0.0
 10
2.119978295762834
 20
3.113191523864162
 30
0.0
 10
3.219937011422777
 20
3.113191523864162
 30
0.0
 10
3.219937011422777
 20
3.113191523864162
 30
0.0
 10
121.7800835374203
 20
3.113191523864162
 30
0.0
 10
121.7800835374203
 20
3.113191523864162
 30
0.0
 10
122.880050865819
 20
3.113191523864162
 30
0.0
 10
123.779978721886
 20
4.013481114962436
 30
0.0
 10
123.779978721886
 20
5.11344844336122
 30
0.0
 10
123.779978721886
 20
5.11344844336122
 30
0.0
 10
123.779978721886
 20
94.8865833713806
 30
0.0
 10
123.779978721886
 20
94.8865833713806
 30
0.0
 10
123.779978721886
 20
95.98654208704053
 30
0.0
 10
122.880050865819
 20
96.8868316781388
 30
0.0
 10
121.7800835374203
 20
96.8868316781388
 30
0.0
  0
ENDBLK
  5
50
330
4D
100
AcDbEntity
  8
0
100
AcDbBlockEnd
  0
BLOCK
  5
58
330
56
100
AcDbEntity
  8
0
100
AcDbBlockBegin
  2
block 6
 70
     0
 10
0.0
 20
0.0
 30
0.0
  3
block 6
  1

  0
ENDBLK
  5
59
330
56
100
AcDbEntity
  8
0
100
AcDbBlockEnd
  0
BLOCK
  5
5C
330
5A
100
AcDbEntity
  8
0
100
AcDbBlockBegin
  2
block 7
 70
     0
 10
0.0
 20
0.0
 30
0.0
  3
block 7
  1

  0
POLYLINE
  5
5E
330
5A
100
AcDbEntity
  8
svg2
 62
     7
370
    40
100
AcDb2dPolyline
 66
     1
 10
0.0
 20
0.0
 30
0.0
  0
VERTEX
  5
5F
330
5E
100
AcDbEntity
  8
svg2
 62
     7
370
    40
100
AcDbVertex
100
AcDb2dVertex
 10
0.0
 20
214.0000036278152
 30
0.0
  0
VERTEX
  5
76
330
5E
100
AcDbEntity
  8
0
100
AcDbVertex
100
AcDb2dVertex
 10
0.0
 20
214.0000036278152
 30
0.0
  0
SEQEND
  5
60
330
5E
100
AcDbEntity
  8
svg2
 62
     7
370
    40
  0
POLYLINE
  5
61
330
5A
100
AcDbEntity
  8
svg2
 62
     7
370
    40
100
AcDb2dPolyline
 66
     1
 10
0.0
 20
0.0
 30
0.0
  0
VERTEX
  5
62
330
61
100
AcDbEntity
  8
svg2
 62
     7
370
    40
100
AcDbVertex
100
AcDb2dVertex
 10
0.0
 20
214.0000036278152
 30
0.0
  0
VERTEX
  5
77
330
61
100
AcDbEntity
  8
0
100
AcDbVertex
100
AcDb2dVertex
 10
0.0
 20
214.0000036278152
 30
0.0
  0
SEQEND
  5
63
330
61
100
AcDbEntity
  8
svg2
 62
     7
370
    40
  0
ENDBLK
  5
5D
330
5A
100
AcDbEntity
  8
0
100
AcDbBlockEnd
  0
BLOCK
  5
66
330
64
100
AcDbEntity
  8
0
100
AcDbBlockBegin
  2
block 8
 70
     0
 10
0.0
 20
0.0
 30
0.0
  3
block 8
  1

  0
ENDBLK
  5
67
330
64
100
AcDbEntity
  8
0
100
AcDbBlockEnd
  0
BLOCK
  5
6A
330
68
100
AcDbEntity
  8
0
100
AcDbBlockBegin
  2
block 9
 70
     0
 10
0.0
 20
0.0
 30
0.0
  3
block 9
  1

  0
ENDBLK
  5
6B
330
68
100
AcDbEntity
  8
0
100
AcDbBlockEnd
  0
BLOCK
  5
6E
330
6C
100
AcDbEntity
  8
0
100
AcDbBlockBegin
  2
block 10
 70
     0
 10
0.0
 20
0.0
 30
0.0
  3
block 10
  1

  0
ENDBLK
  5
6F
330
6C
100
AcDbEntity
  8
0
100
AcDbBlockEnd
  0
BLOCK
  5
72
330
70
100
AcDbEntity
  8
0
100
AcDbBlockBegin
  2
block 11
 70
     0
 10
0.0
 20
0.0
 30
0.0
  3
block 11
  1

  0
SPLINE
  5
74
330
70
100
AcDbEntity
  8
svg2
370
     0
100
AcDbSpline
210
0.0
220
0.0
230
1.0
 70
    11
 71
     3
 72
   392
 73
   388
 74
     0
 42
0.0000000001
 43
0.0000000001
 12
1.0
 22
0.0
 32
0.0
 13
1.0
 23
0.0
 33
0.0
 40
0.0
 40
0.0
 40
0.0
 40
0.0
 40
1.0
 40
1.0
 40
1.0
 40
2.0
 40
2.0
 40
2.0
 40
3.0
 40
3.0
 40
3.0
 40
4.0
 40
4.0
 40
4.0
 40
5.0
 40
5.0
 40
5.0
 40
6.0
 40
6.0
 40
6.0
 40
7.0
 40
7.0
 40
7.0
 40
8.0
 40
8.0
 40
8.0
 40
9.0
 40
9.0
 40
9.0
 40
10.0
 40
10.0
 40
10.0
 40
11.0
 40
11.0
 40
11.0
 40
12.0
 40
12.0
 40
12.0
 40
13.0
 40
13.0
 40
13.0
 40
14.0
 40
14.0
 40
14.0
 40
15.0
 40
15.0
 40
15.0
 40
16.0
 40
16.0
 40
16.0
 40
17.0
 40
17.0
 40
17.0
 40
18.0
 40
18.0
 40
18.0
 40
19.0
 40
19.0
 40
19.0
 40
20.0
 40
20.0
 40
20.0
 40
21.0
 40
21.0
 40
21.0
 40
22.0
 40
22.0
 40
22.0
 40
23.0
 40
23.0
 40
23.0
 40
24.0
 40
24.0
 40
24.0
 40
25.0
 40
25.0
 40
25.0
 40
26.0
 40
26.0
 40
26.0
 40
27.0
 40
27.0
 40
27.0
 40
28.0
 40
28.0
 40
28.0
 40
29.0
 40
29.0
 40
29.0
 40
30.0
 40
30.0
 40
30.0
 40
31.0
 40
31.0
 40
31.0
 40
32.0
 40
32.0
 40
32.0
 40
33.0
 40
33.0
 40
33.0
 40
34.0
 40
34.0
 40
34.0
 40
35.0
 40
35.0
 40
35.0
 40
36.0
 40
36.0
 40
36.0
 40
37.0
 40
37.0
 40
37.0
 40
38.0
 40
38.0
 40
38.0
 40
39.0
 40
39.0
 40
39.0
 40
40.0
 40
40.0
 40
40.0
 40
41.0
 40
41.0
 40
41.0
 40
42.0
 40
42.0
 40
42.0
 40
43.0
 40
43.0
 40
43.0
 40
44.0
 40
44.0
 40
44.0
 40
45.0
 40
45.0
 40
45.0
 40
46.0
 40
46.0
 40
46.0
 40
47.0
 40
47.0
 40
47.0
 40
48.0
 40
48.0
 40
48.0
 40
49.0
 40
49.0
 40
49.0
 40
50.0
 40
50.0
 40
50.0
 40
51.0
 40
51.0
 40
51.0
 40
52.0
 40
52.0
 40
52.0
 40
53.0
 40
53.0
 40
53.0
 40
54.0
 40
54.0
 40
54.0
 40
55.0
 40
55.0
 40
55.0
 40
56.0
 40
56.0
 40
56.0
 40
57.0
 40
57.0
 40
57.0
 40
58.0
 40
58.0
 40
58.0
 40
59.0
 40
59.0
 40
59.0
 40
60.0
 40
60.0
 40
60.0
 40
61.0
 40
61.0
 40
61.0
 40
62.0
 40
62.0
 40
62.0
 40
63.0
 40
63.0
 40
63.0
 40
64.0
 40
64.0
 40
64.0
 40
65.0
 40
65.0
 40
65.0
 40
66.0
 40
66.0
 40
66.0
 40
67.0
 40
67.0
 40
67.0
 40
68.0
 40
68.0
 40
68.0
 40
69.0
 40
69.0
 40
69.0
 40
70.0
 40
70.0
 40
70.0
 40
71.0
 40
71.0
 40
71.0
 40
72.0
 40
72.0
 40
72.0
 40
73.0
 40
73.0
 40
73.0
 40
74.0
 40
74.0
 40
74.0
 40
75.0
 40
75.0
 40
75.0
 40
76.0
 40
76.0
 40
76.0
 40
77.0
 40
77.0
 40
77.0
 40
78.0
 40
78.0
 40
78.0
 40
79.0
 40
79.0
 40
79.0
 40
80.0
 40
80.0
 40
80.0
 40
81.0
 40
81.0
 40
81.0
 40
82.0
 40
82.0
 40
82.0
 40
83.0
 40
83.0
 40
83.0
 40
84.0
 40
84.0
 40
84.0
 40
85.0
 40
85.0
 40
85.0
 40
86.0
 40
86.0
 40
86.0
 40
87.0
 40
87.0
 40
87.0
 40
88.0
 40
88.0
 40
88.0
 40
89.0
 40
89.0
 40
89.0
 40
90.0
 40
90.0
 40
90.0
 40
91.0
 40
91.0
 40
91.0
 40
92.0
 40
92.0
 40
92.0
 40
93.0
 40
93.0
 40
93.0
 40
94.0
 40
94.0
 40
94.0
 40
95.0
 40
95.0
 40
95.0
 40
96.0
 40
96.0
 40
96.0
 40
97.0
 40
97.0
 40
97.0
 40
98.0
 40
98.0
 40
98.0
 40
99.0
 40
99.0
 40
99.0
 40
100.0
 40
100.0
 40
100.0
 40
101.0
 40
101.0
 40
101.0
 40
102.0
 40
102.0
 40
102.0
 40
103.0
 40
103.0
 40
103.0
 40
104.0
 40
104.0
 40
104.0
 40
105.0
 40
105.0
 40
105.0
 40
106.0
 40
106.0
 40
106.0
 40
107.0
 40
107.0
 40
107.0
 40
108.0
 40
108.0
 40
108.0
 40
109.0
 40
109.0
 40
109.0
 40
110.0
 40
110.0
 40
110.0
 40
111.0
 40
111.0
 40
111.0
 40
112.0
 40
112.0
 40
112.0
 40
113.0
 40
113.0
 40
113.0
 40
114.0
 40
114.0
 40
114.0
 40
115.0
 40
115.0
 40
115.0
 40
116.0
 40
116.0
 40
116.0
 40
117.0
 40
117.0
 40
117.0
 40
118.0
 40
118.0
 40
118.0
 40
119.0
 40
119.0
 40
119.0
 40
120.0
 40
120.0
 40
120.0
 40
121.0
 40
121.0
 40
121.0
 40
122.0
 40
122.0
 40
122.0
 40
123.0
 40
123.0
 40
123.0
 40
124.0
 40
124.0
 40
124.0
 40
125.0
 40
125.0
 40
125.0
 40
126.0
 40
126.0
 40
126.0
 40
127.0
 40
127.0
 40
127.0
 40
128.0
 40
128.0
 40
128.0
 40
129.0
 40
129.0
 40
129.0
 40
129.0
 10
56.28315881750674
 20
91.16152214601419
 30
0.0
 10
55.6993744597237
 20
91.15150553074156
 30
0.0
 10
55.30952314243456
 20
91.03730061370375
 30
0.0
 10
54.51458457284507
 20
90.78170036310561
 30
0.0
 10
52.6720053696878
 20
90.18923005820128
 30
0.0
 10
51.62293502147233
 20
89.26650428242098
 30
0.0
 10
50.8555830543927
 20
87.56329211282718
 30
0.0
 10
50.14014437067904
 20
85.9753011634545
 30
0.0
 10
50.04215293450996
 20
84.72095049132247
 30
0.0
 10
50.45405716960363
 20
82.4191099085527
 30
0.0
 10
51.01318756245202
 20
79.29458051164625
 30
0.0
 10
51.78465211232941
 20
77.39714246843859
 30
0.0
 10
53.69044881858303
 20
74.45804533878886
 30
0.0
 10
54.56807398741967
 20
73.10457926806926
 30
0.0
 10
54.61534069818163
 20
72.96167670521167
 30
0.0
 10
54.57225547212752
 20
71.78844080748856
 30
0.0
 10
54.52454520531491
 20
70.48924360420901
 30
0.0
 10
54.85650599848147
 20
69.56298660550372
 30
0.0
 10
55.83543420157206
 20
68.2655550136867
 30
0.0
 10
56.08247769613088
 20
67.93813313388958
 30
0.0
 10
56.38306228169798
 20
67.30035982267914
 30
0.0
 10
56.50330042229457
 20
66.84827716089067
 30
0.0
 10
56.73226147165606
 20
65.98741668820863
 30
0.0
 10
57.76079474410373
 20
64.886570860448
 30
0.0
 10
58.8736984062424
 20
64.31106765106135
 30
0.0
 10
59.30801729417003
 20
64.08646464755364
 30
0.0
 10
59.58018845429914
 20
63.70030388885775
 30
0.0
 10
59.8956515462152
 20
62.86092358684631
 30
0.0
 10
60.27680830364357
 20
61.84673913730851
 30
0.0
 10
60.31778340868215
 20
61.40414771372334
 30
0.0
 10
60.25811004761939
 20
58.95635565854611
 30
0.0
 10
60.25811004761939
 20
58.95635565854611
 30
0.0
 10
60.19082733178987
 20
56.19559389934774
 30
0.0
 10
60.19082733178987
 20
56.19559389934774
 30
0.0
 10
60.19082733178987
 20
56.19559389934774
 30
0.0
 10
60.2832247940811
 20
56.17450991466384
 30
0.0
 10
60.2832247940811
 20
56.17450991466384
 30
0.0
 10
60.1958011884705
 20
56.11987069945359
 30
0.0
 10
60.12867350194012
 20
56.05238127789188
 30
0.0
 10
60.05068084536156
 20
55.96832094679918
 30
0.0
 10
59.8261295182869
 20
55.72630298535403
 30
0.0
 10
59.20105138412878
 20
55.3652052966868
 30
0.0
 10
58.66161832501018
 20
55.16557923581933
 30
0.0
 10
58.12218526589158
 20
54.96595317495187
 30
0.0
 10
57.32340541477881
 20
54.60444207482024
 30
0.0
 10
56.88684290838266
 20
54.3622174076429
 30
0.0
 10
56.45028040198651
 20
54.11999274046556
 30
0.0
 10
55.52142235615046
 20
53.8247997294132
 30
0.0
 10
54.82278281954803
 20
53.7064434722538
 30
0.0
 10
53.94982575516283
 20
53.55856274634586
 30
0.0
 10
53.12755896522938
 20
53.23441370730851
 30
0.0
 10
52.19379596462407
 20
52.67022763675953
 30
0.0
 10
50.8603243671246
 20
51.86452314361822
 30
0.0
 10
48.46647820168121
 20
49.69275214283224
 30
0.0
 10
47.83592236561991
 20
48.71667044992908
 30
0.0
 10
47.6600674639549
 20
48.44443900062807
 30
0.0
 10
46.71091349903925
 20
47.74499847931275
 30
0.0
 10
45.72659372143455
 20
47.16234669668768
 30
0.0
 10
44.4041076723277
 20
46.3795176379093
 30
0.0
 10
43.27016739556844
 20
45.45216682137114
 30
0.0
 10
41.38298281795186
 20
43.60938521885142
 30
0.0
 10
39.97835277214421
 20
42.23780655834822
 30
0.0
 10
38.42744396985314
 20
40.85878649148599
 30
0.0
 10
37.93637143933
 20
40.54507609192449
 30
0.0
 10
37.44529890880558
 20
40.23138291784067
 30
0.0
 10
36.17276243861012
 20
39.70607475042208
 30
0.0
 10
35.10863702290041
 20
39.3777054693524
 30
0.0
 10
33.56408657505888
 20
38.90107650186576
 30
0.0
 10
32.94381650235885
 20
38.59081119784085
 30
0.0
 10
32.03285572783664
 20
37.83888464602564
 30
0.0
 10
31.40524329527394
 20
37.32082840471156
 30
0.0
 10
30.17715501705472
 20
36.38615676015816
 30
0.0
 10
29.30403000426243
 20
35.76180209606272
 30
0.0
 10
28.43090499147013
 20
35.13744743196728
 30
0.0
 10
26.55567058899577
 20
33.77882233068163
 30
0.0
 10
25.13684459639284
 20
32.74276152448652
 30
0.0
 10
22.01539855999163
 20
30.46340019009297
 30
0.0
 10
21.47642843558592
 20
30.27207680946868
 30
0.0
 10
19.78337068508621
 20
30.84396266854191
 30
0.0
 10
18.19467995068218
 20
31.38060520027588
 30
0.0
 10
16.75210863709334
 20
31.37430067544392
 30
0.0
 10
15.47603879078832
 20
30.82535915264435
 30
0.0
 10
14.57569859984895
 20
30.43804428694369
 30
0.0
 10
14.38914129358114
 20
30.4199747608543
 30
0.0
 10
13.65351219683917
 20
30.64707545862603
 30
0.0
 10
12.37706339002449
 20
31.0411427115784
 30
0.0
 10
11.17527626304191
 20
31.13073242100731
 30
0.0
 10
10.84469243149739
 20
30.85636501247362
 30
0.0
 10
10.68034845529431
 20
30.71997368018019
 30
0.0
 10
10.55168597951882
 20
30.28160249862734
 30
0.0
 10
10.55168597951882
 20
29.85797632597107
 30
0.0
 10
10.55168597951882
 20
28.89014563687803
 30
0.0
 10
11.17601265221254
 20
28.36831701595138
 30
0.0
 10
12.56148581365222
 20
28.17776878182283
 30
0.0
 10
13.61874902968983
 20
28.03235129922354
 30
0.0
 10
14.32201576023596
 20
27.53820402093336
 30
0.0
 10
14.32199638157308
 20
26.94094503323317
 30
0.0
 10
14.3219791560954
 20
26.29338765069883
 30
0.0
 10
12.52154854364371
 20
23.40143665346728
 30
0.0
 10
11.08684604357945
 20
21.7446729844455
 30
0.0
 10
8.437696767027624
 20
18.6854798243904
 30
0.0
 10
8.265840329369594
 20
18.24340516513571
 30
0.0
 10
9.454388600160886
 20
17.542138743186
 30
0.0
 10
9.975229985897267
 20
17.23483622132255
 30
0.0
 10
10.17473008545925
 20
16.95836730451154
 30
0.0
 10
10.27387132226335
 20
16.40763433203294
 30
0.0
 10
10.3459620995516
 20
16.0071936523379
 30
0.0
 10
10.49364365587359
 20
15.56799564785626
 30
0.0
 10
10.60191547244224
 20
15.43156986460746
 30
0.0
 10
10.83501924918583
 20
15.13785824463584
 30
0.0
 10
12.01483527938447
 20
15.10301110328328
 30
0.0
 10
12.52272848886563
 20
15.3748291411199
 30
0.0
 10
12.80457821426736
 20
15.5256726491893
 30
0.0
 10
12.9909600359812
 20
15.44176734739576
 30
0.0
 10
13.40422400721923
 20
14.97795413530522
 30
0.0
 10
14.23472457548512
 20
14.04586631240426
 30
0.0
 10
14.83523164232114
 20
14.1717501033111
 30
0.0
 10
16.60527005258585
 20
15.64923100060895
 30
0.0
 10
18.20885867200042
 20
16.9877711949163
 30
0.0
 10
20.09173042064197
 20
19.5645476269833
 30
0.0
 10
21.33676210934754
 20
22.12480482595238
 30
0.0
 10
21.71011357220164
 20
22.89254436628051
 30
0.0
 10
22.44154611194326
 20
23.89799549863307
 30
0.0
 10
23.15246741413489
 20
24.62015642501217
 30
0.0
 10
24.18607789612929
 20
25.67011819169742
 30
0.0
 10
24.63095384869201
 20
25.94922260659391
 30
0.0
 10
26.52590281037448
 20
26.73599629976168
 30
0.0
 10
27.72645185614908
 20
27.23446717295028
 30
0.0
 10
29.54670253385953
 20
27.93018699108609
 30
0.0
 10
30.57092943688648
 20
28.28225852944747
 30
0.0
 10
32.94237817497297
 20
29.09741980983671
 30
0.0
 10
37.66452756327622
 20
31.24781399281818
 30
0.0
 10
38.77259947892546
 20
32.01722440448156
 30
0.0
 10
39.24027981075518
 20
32.34195910976013
 30
0.0
 10
40.38180360406467
 20
33.37691748538354
 30
0.0
 10
41.30949893015649
 20
34.31723908661694
 30
0.0
 10
42.57305231374031
 20
35.59798780329807
 30
0.0
 10
43.19535714599147
 20
36.0806801389291
 30
0.0
 10
43.78997202286733
 20
36.24053257182668
 30
0.0
 10
45.24712685649933
 20
36.63225715981416
 30
0.0
 10
48.19714493900003
 20
38.66539751620793
 30
0.0
 10
51.01216695289963
 20
41.21852336741627
 30
0.0
 10
51.71008301944001
 20
41.85150799583086
 30
0.0
 10
52.34063024276246
 20
42.36946088427884
 30
0.0
 10
52.41363181718271
 20
42.36946088427884
 30
0.0
 10
52.48663339160296
 20
42.36946088427884
 30
0.0
 10
52.7535895383639
 20
41.6525881795484
 30
0.0
 10
53.00677391571669
 20
40.77637980625085
 30
0.0
 10
53.25995829306947
 20
39.90017143295331
 30
0.0
 10
53.76569401147116
 20
38.56809079277706
 30
0.0
 10
54.13042627592949
 20
37.81625036835027
 30
0.0
 10
54.49515423401873
 20
37.06440994392348
 30
0.0
 10
55.06875402812077
 20
35.39259120740682
 30
0.0
 10
55.40507717351086
 20
34.10112824360692
 30
0.0
 10
55.74140462527004
 20
32.80966527980701
 30
0.0
 10
56.14021749732405
 20
31.30657009719465
 30
0.0
 10
56.29153470602974
 20
30.76086696419946
 30
0.0
 10
56.67391877874398
 20
29.3818813482926
 30
0.0
 10
56.71359336021686
 20
28.15777000223295
 30
0.0
 10
56.51570707259538
 20
23.81555436244257
 30
0.0
 10
56.3140225671448
 20
19.38989850875609
 30
0.0
 10
56.01643090832479
 20
17.99907898968105
 30
0.0
 10
54.74155177316445
 20
15.52148685811235
 30
0.0
 10
53.48664988574655
 20
13.08272095324097
 30
0.0
 10
52.56134459468293
 20
9.791362804975353
 30
0.0
 10
52.88988182416033
 20
8.935222113178426
 30
0.0
 10
52.9906594813443
 20
8.672602480424494
 30
0.0
 10
54.31987207948634
 20
8.635085390031074
 30
0.0
 10
63.53450356214765
 20
8.635085390031074
 30
0.0
 10
72.02677602543649
 20
8.635085390031074
 30
0.0
 10
74.08356696268892
 20
8.685487137731325
 30
0.0
 10
74.16393242881861
 20
8.894914495400373
 30
0.0
 10
74.2187438988057
 20
9.037748156347218
 30
0.0
 10
74.9198208405009
 20
9.706389523565466
 30
0.0
 10
75.72197688523953
 20
10.38102535701737
 30
0.0
 10
77.5474038189937
 20
11.9162460555084
 30
0.0
 10
78.6460878493051
 20
13.85810860566033
 30
0.0
 10
79.13076111486967
 20
16.40608403904148
 30
0.0
 10
79.61273859317687
 20
18.93988290428957
 30
0.0
 10
79.45246413607606
 20
20.66368813245331
 30
0.0
 10
78.53482848895106
 20
22.82336684790587
 30
0.0
 10
78.11747239017139
 20
23.8056324872972
 30
0.0
 10
77.60181910299407
 20
25.23438250823005
 30
0.0
 10
77.38885190966118
 20
25.99836689442331
 30
0.0
 10
77.1758847163283
 20
26.76235128061657
 30
0.0
 10
76.58866818211725
 20
28.26186356387089
 30
0.0
 10
76.08381526944713
 20
29.33056665027515
 30
0.0
 10
76.08381526944713
 20
29.33056665027515
 30
0.0
 10
75.16573175990239
 20
31.27370388577562
 30
0.0
 10
75.16573175990239
 20
31.27370388577562
 30
0.0
 10
75.16573175990239
 20
31.27370388577562
 30
0.0
 10
75.5232293237339
 20
32.32511259258623
 30
0.0
 10
75.5232293237339
 20
32.32511259258623
 30
0.0
 10
75.85463028887577
 20
33.30009185491768
 30
0.0
 10
75.85760168377607
 20
33.42129031589477
 30
0.0
 10
75.5616765899222
 20
33.99353790999935
 30
0.0
 10
75.07361851799293
 20
34.93735628320238
 30
0.0
 10
75.15511225291087
 20
35.54617356642782
 30
0.0
 10
75.83762874240271
 20
36.05077670967153
 30
0.0
 10
76.50790653000084
 20
36.54633647713171
 30
0.0
 10
76.54544084587194
 20
36.77223139146564
 30
0.0
 10
76.14675716490055
 20
37.91608923700053
 30
0.0
 10
75.99244272307804
 20
38.35883568988485
 30
0.0
 10
75.80341033098557
 20
39.27412867204495
 30
0.0
 10
75.72693782281222
 20
39.95007364180076
 30
0.0
 10
75.55883438610451
 20
41.43592612125251
 30
0.0
 10
75.80367732588967
 20
41.54859797077656
 30
0.0
 10
76.84066830787965
 20
40.46322062197521
 30
0.0
 10
77.21678661308641
 20
40.06954955500955
 30
0.0
 10
78.19407408942737
 20
39.25199393322239
 30
0.0
 10
79.01262878892015
 20
38.64658729457817
 30
0.0
 10
79.83118348841293
 20
38.04118065593396
 30
0.0
 10
80.81766936983658
 20
37.2637776226257
 30
0.0
 10
81.20474307884967
 20
36.91894078489114
 30
0.0
 10
81.59180817512392
 20
36.57410394715659
 30
0.0
 10
82.75266756713187
 20
35.77404941069528
 30
0.0
 10
83.78443061664508
 20
35.14106478228069
 30
0.0
 10
84.81618505341947
 20
34.50808015386611
 30
0.0
 10
85.95049137157918
 20
33.71484690656724
 30
0.0
 10
86.30520702076488
 20
33.37838165098659
 30
0.0
 10
87.38191995429172
 20
32.35704862821038
 30
0.0
 10
92.65332953673233
 20
29.55265473404116
 30
0.0
 10
94.93940880742223
 20
28.78486351727997
 30
0.0
 10
95.72960175791005
 20
28.51947058261909
 30
0.0
 10
97.17958218008711
 20
27.99920948016159
 30
0.0
 10
98.16184781947844
 20
27.62865500424642
 30
0.0
 10
99.14411345886977
 20
27.25810052833126
 30
0.0
 10
100.9070980360233
 20
26.61863912030789
 30
0.0
 10
102.0794382089069
 20
26.20765644827089
 30
0.0
 10
104.1992054925682
 20
25.46454934102934
 30
0.0
 10
104.2122365664353
 20
25.45588492575483
 30
0.0
 10
104.4513864858462
 20
24.65767351540559
 30
0.0
 10
104.7174339886591
 20
23.76968291537293
 30
0.0
 10
107.4307826205352
 20
20.62601601276074
 30
0.0
 10
109.595878748719
 20
18.69741708042467
 30
0.0
 10
110.6018724836186
 20
17.80131328040335
 30
0.0
 10
111.0700006778687
 20
17.52927131135685
 30
0.0
 10
111.9011644270254
 20
17.35672370140695
 30
0.0
 10
113.2782380149094
 20
17.07084967378107
 30
0.0
 10
113.8384105491583
 20
17.1596125602812
 30
0.0
 10
113.8384105491583
 20
17.66399177231504
 30
0.0
 10
113.8384105491583
 20
18.00059483171715
 30
0.0
 10
114.0040076788631
 20
18.07593907110228
 30
0.0
 10
114.9276464049606
 20
18.16008552958338
 30
0.0
 10
116.0146860123584
 20
18.25913202626023
 30
0.0
 10
116.0166755550307
 20
18.26073399568474
 30
0.0
 10
116.1824535522512
 20
19.05305429266641
 30
0.0
 10
116.6265177541783
 20
21.17543984893544
 30
0.0
 10
116.6017475172703
 20
21.42212591483266
 30
0.0
 10
115.8894481768646
 20
21.9660548236265
 30
0.0
 10
114.8721631413439
 20
22.74288941617123
 30
0.0
 10
113.2940682289001
 20
24.30112335284665
 30
0.0
 10
112.3808250785842
 20
25.43064960094934
 30
0.0
 10
111.2977990074866
 20
26.77015442200693
 30
0.0
 10
111.2743120686659
 20
27.45323073952347
 30
0.0
 10
112.2840867959169
 20
28.22241721997698
 30
0.0
 10
113.7207605365839
 20
29.31678626812881
 30
0.0
 10
113.9663011082152
 20
29.63526812500848
 30
0.0
 10
113.9004222688168
 20
30.31779322723917
 30
0.0
 10
113.8459553083834
 20
30.88206542517655
 30
0.0
 10
113.7602413314331
 20
30.96700425563107
 30
0.0
 10
113.1897679615299
 20
31.02193630396193
 30
0.0
 10
112.8329938677611
 20
31.05628390646169
 30
0.0
 10
112.0537735465573
 20
30.9018919499896
 30
0.0
 10
111.4580906900651
 20
30.67901149425019
 30
0.0
 10
110.2093985873519
 20
30.21182208853379
 30
0.0
 10
106.9550838288434
 20
29.61599281548128
 30
0.0
 10
105.50403542705
 20
29.58884546265299
 30
0.0
 10
104.5380392513302
 20
29.5707759365636
 30
0.0
 10
104.451619029795
 20
29.61897282312043
 30
0.0
 10
102.2298166290789
 20
31.41974148557149
 30
0.0
 10
99.12288305762556
 20
33.93789961708349
 30
0.0
 10
95.55161950975119
 20
36.06216275041995
 30
0.0
 10
93.49360556358327
 20
36.61601353435916
 30
0.0
 10
91.52838526569329
 20
37.14490460113581
 30
0.0
 10
90.59568593833458
 20
37.97112463819749
 30
0.0
 10
87.47288770193526
 20
41.94840130779733
 30
0.0
 10
86.45166664476399
 20
43.24904545120224
 30
0.0
 10
85.0208926302034
 20
44.77598069492777
 30
0.0
 10
84.06317329651024
 20
45.58724901736068
 30
0.0
 10
83.15562316656862
 20
46.35602208634979
 30
0.0
 10
82.29980114610882
 20
47.25858544050221
 30
0.0
 10
82.1612738545827
 20
47.59301808971627
 30
0.0
 10
81.93133956573213
 20
48.14814355900402
 30
0.0
 10
81.14911339867265
 20
49.13964205443339
 30
0.0
 10
79.59119813333436
 20
50.85111384057615
 30
0.0
 10
79.2605464764717
 20
51.21436471395376
 30
0.0
 10
78.1651008359647
 20
51.89544287605908
 30
0.0
 10
77.07445249099237
 20
52.41597958615951
 30
0.0
 10
76.01224340967457
 20
52.92294261984578
 30
0.0
 10
74.629166742818
 20
53.72113680471734
 30
0.0
 10
74.00084160611665
 20
54.18982482699215
 30
0.0
 10
73.10379901756161
 20
54.8589657330632
 30
0.0
 10
71.95325768668575
 20
55.43252246347168
 30
0.0
 10
70.71205005402578
 20
55.84336733168721
 30
0.0
 10
70.87446477672901
 20
55.94122527040393
 30
0.0
 10
71.01816832429822
 20
56.05834129317017
 30
0.0
 10
71.13125358528664
 20
56.19559389934774
 30
0.0
 10
72.50852957253379
 20
57.86722315560989
 30
0.0
 10
73.60274359138648
 20
59.68159994543046
 30
0.0
 10
73.8796086941842
 20
60.75283517705412
 30
0.0
 10
74.11857774607947
 20
61.677429917163
 30
0.0
 10
74.35736593045907
 20
62.07811175354561
 30
0.0
 10
75.04542902376481
 20
62.70930493228117
 30
0.0
 10
75.52133452118878
 20
63.14586743867732
 30
0.0
 10
76.05654733827505
 20
63.74441833720373
 30
0.0
 10
76.23481380681568
 20
64.03945631895694
 30
0.0
 10
76.66665653232671
 20
64.75417583897702
 30
0.0
 10
77.59125988517444
 20
64.91499289862485
 30
0.0
 10
78.94937683486843
 20
64.51167556415675
 30
0.0
 10
80.4643317588655
 20
64.06178053803401
 30
0.0
 10
81.84963051234315
 20
64.09239021187658
 30
0.0
 10
82.11135442025758
 20
64.58143874877261
 30
0.0
 10
82.2243363283799
 20
64.7925369777769
 30
0.0
 10
82.31661321232735
 20
65.07219260795925
 30
0.0
 10
82.31661321232735
 20
65.20279617975122
 30
0.0
 10
82.31661321232735
 20
65.33339975154318
 30
0.0
 10
81.51622277905123
 20
66.21735958979804
 30
0.0
 10
80.53780703392204
 20
67.16732745853388
 30
0.0
 10
78.57305182392949
 20
69.07492853357446
 30
0.0
 10
78.05786362464961
 20
69.98123842912293
 30
0.0
 10
77.76588316518513
 20
72.04299891668687
 30
0.0
 10
77.55483661261388
 20
73.53323528020894
 30
0.0
 10
77.30623851869386
 20
74.04803590624094
 30
0.0
 10
76.7110638137933
 20
74.22736174165908
 30
0.0
 10
76.46537682560168
 20
74.30138823200146
 30
0.0
 10
75.82718149018801
 20
74.72553116898823
 30
0.0
 10
75.2928557852024
 20
75.16993988046895
 30
0.0
 10
74.22988878286655
 20
76.05402890980642
 30
0.0
 10
72.5640731253224
 20
76.56999225558202
 30
0.0
 10
71.36100270025244
 20
76.69914888724863
 30
0.0
 10
69.67679453891266
 20
76.87994750100864
 30
0.0
 10
70.42826461556864
 20
76.94160609837469
 30
0.0
 10
70.06289070206692
 20
75.63378754351484
 30
0.0
 10
69.61706519504646
 20
74.03801067822948
 30
0.0
 10
68.56446362390663
 20
73.47142165354374
 30
0.0
 10
66.32472088818382
 20
72.85008144804283
 30
0.0
 10
64.11473085878852
 20
72.23699224635202
 30
0.0
 10
64.18287054213309
 20
72.24020479793988
 30
0.0
 10
62.74137366771487
 20
72.680789453375
 30
0.0
 10
61.45580612365163
 20
73.07371121206144
 30
0.0
 10
60.38728821113277
 20
73.96113337133058
 30
0.0
 10
60.17346835665457
 20
74.81306243383402
 30
0.0
 10
60.00103701867936
 20
75.50006616026228
 30
0.0
 10
60.37864963407478
 20
77.041496643458
 30
0.0
 10
60.84753574934295
 20
77.56421237648532
 30
0.0
 10
61.34344863909563
 20
78.11705546998007
 30
0.0
 10
63.18812504416047
 20
79.33344980203778
 30
0.0
 10
64.64296305104412
 20
80.06700538190414
 30
0.0
 10
65.73218598773785
 20
80.6162138996078
 30
0.0
 10
66.07669554139643
 20
80.69814688420665
 30
0.0
 10
66.98359110318674
 20
80.62294044864298
 30
0.0
 10
67.9083279534862
 20
80.54625262199858
 30
0.0
 10
68.12264734681719
 20
80.3903275980127
 30
0.0
 10
68.8889054960646
 20
79.70826758367946
 30
0.0
 10
71.14210132985778
 20
77.70265354062302
 30
0.0
 10
69.16139102116175
 20
78.057842890445
 30
0.0
 10
73.58505302580612
 20
80.63720314416445
 30
0.0
 10
74.94388483282395
 20
81.42951482840728
 30
0.0
 10
74.86968608770474
 20
82.12246134463614
 30
0.0
 10
73.40986991777073
 20
82.81753520735884
 30
0.0
 10
72.8946903312297
 20
83.06282600956375
 30
0.0
 10
72.66850258377515
 20
83.32827923339653
 30
0.0
 10
72.53674490497843
 20
83.84289899191286
 30
0.0
 10
72.28798316902042
 20
84.81451928609614
 30
0.0
 10
72.0897825164309
 20
84.99576576227592
 30
0.0
 10
70.89653492000996
 20
85.34265243185475
 30
0.0
 10
70.03745728426809
 20
85.59239602004068
 30
0.0
 10
69.81053745401202
 20
85.75357481471985
 30
0.0
 10
69.64389818290736
 20
86.23159043315997
 30
0.0
 10
69.42743421760484
 20
86.85254306541303
 30
0.0
 10
68.75306968542613
 20
87.24805725849075
 30
0.0
 10
67.28497236709637
 20
87.61569201593866
 30
0.0
 10
66.78061468690932
 20
87.7419892183099
 30
0.0
 10
66.44161297974017
 20
87.94200285242522
 30
0.0
 10
66.44161297974017
 20
88.11302600760018
 30
0.0
 10
66.44161297974017
 20
88.4805401867043
 30
0.0
 10
65.44701820469696
 20
88.98192216562131
 30
0.0
 10
62.74757053331162
 20
89.97523794894624
 30
0.0
 10
61.0573549866296
 20
90.59718965890491
 30
0.0
 10
60.07220407972574
 20
90.82580619871274
 30
0.0
 10
58.27932037968436
 20
91.01269401883368
 30
0.0
 10
57.30850107021333
 20
91.11389370022088
 30
0.0
 10
56.73721379648926
 20
91.16930806192687
 30
0.0
 10
56.28316312387584
 20
91.16152214601419
 30
0.0
 10
56.28316312387584
 20
91.16152214601419
 30
0.0
 10
56.28315881750674
 20
91.16152214601419
 30
0.0
 10
56.28315881750674
 20
91.16152214601419
 30
0.0
  0
HATCH
  5
75
330
70
100
AcDbEntity
  8
svg2
 62
     7
100
AcDbHatch
 10
0.0
 20
0.0
 30
0.0
210
0.0
220
0.0
230
1.0
  2
SOLID
 70
     1
 71
     0
 91
        1
 92
        1
 93
        1
 72
     4
 94
        3
 73
     0
 74
     1
 95
      392
 96
      388
 40
0.0
 40
0.0
 40
0.0
 40
0.0
 40
1.0
 40
1.0
 40
1.0
 40
2.0
 40
2.0
 40
2.0
 40
3.0
 40
3.0
 40
3.0
 40
4.0
 40
4.0
 40
4.0
 40
5.0
 40
5.0
 40
5.0
 40
6.0
 40
6.0
 40
6.0
 40
7.0
 40
7.0
 40
7.0
 40
8.0
 40
8.0
 40
8.0
 40
9.0
 40
9.0
 40
9.0
 40
10.0
 40
10.0
 40
10.0
 40
11.0
 40
11.0
 40
11.0
 40
12.0
 40
12.0
 40
12.0
 40
13.0
 40
13.0
 40
13.0
 40
14.0
 40
14.0
 40
14.0
 40
15.0
 40
15.0
 40
15.0
 40
16.0
 40
16.0
 40
16.0
 40
17.0
 40
17.0
 40
17.0
 40
18.0
 40
18.0
 40
18.0
 40
19.0
 40
19.0
 40
19.0
 40
20.0
 40
20.0
 40
20.0
 40
21.0
 40
21.0
 40
21.0
 40
22.0
 40
22.0
 40
22.0
 40
23.0
 40
23.0
 40
23.0
 40
24.0
 40
24.0
 40
24.0
 40
25.0
 40
25.0
 40
25.0
 40
26.0
 40
26.0
 40
26.0
 40
27.0
 40
27.0
 40
27.0
 40
28.0
 40
28.0
 40
28.0
 40
29.0
 40
29.0
 40
29.0
 40
30.0
 40
30.0
 40
30.0
 40
31.0
 40
31.0
 40
31.0
 40
32.0
 40
32.0
 40
32.0
 40
33.0
 40
33.0
 40
33.0
 40
34.0
 40
34.0
 40
34.0
 40
35.0
 40
35.0
 40
35.0
 40
36.0
 40
36.0
 40
36.0
 40
37.0
 40
37.0
 40
37.0
 40
38.0
 40
38.0
 40
38.0
 40
39.0
 40
39.0
 40
39.0
 40
40.0
 40
40.0
 40
40.0
 40
41.0
 40
41.0
 40
41.0
 40
42.0
 40
42.0
 40
42.0
 40
43.0
 40
43.0
 40
43.0
 40
44.0
 40
44.0
 40
44.0
 40
45.0
 40
45.0
 40
45.0
 40
46.0
 40
46.0
 40
46.0
 40
47.0
 40
47.0
 40
47.0
 40
48.0
 40
48.0
 40
48.0
 40
49.0
 40
49.0
 40
49.0
 40
50.0
 40
50.0
 40
50.0
 40
51.0
 40
51.0
 40
51.0
 40
52.0
 40
52.0
 40
52.0
 40
53.0
 40
53.0
 40
53.0
 40
54.0
 40
54.0
 40
54.0
 40
55.0
 40
55.0
 40
55.0
 40
56.0
 40
56.0
 40
56.0
 40
57.0
 40
57.0
 40
57.0
 40
58.0
 40
58.0
 40
58.0
 40
59.0
 40
59.0
 40
59.0
 40
60.0
 40
60.0
 40
60.0
 40
61.0
 40
61.0
 40
61.0
 40
62.0
 40
62.0
 40
62.0
 40
63.0
 40
63.0
 40
63.0
 40
64.0
 40
64.0
 40
64.0
 40
65.0
 40
65.0
 40
65.0
 40
66.0
 40
66.0
 40
66.0
 40
67.0
 40
67.0
 40
67.0
 40
68.0
 40
68.0
 40
68.0
 40
69.0
 40
69.0
 40
69.0
 40
70.0
 40
70.0
 40
70.0
 40
71.0
 40
71.0
 40
71.0
 40
72.0
 40
72.0
 40
72.0
 40
73.0
 40
73.0
 40
73.0
 40
74.0
 40
74.0
 40
74.0
 40
75.0
 40
75.0
 40
75.0
 40
76.0
 40
76.0
 40
76.0
 40
77.0
 40
77.0
 40
77.0
 40
78.0
 40
78.0
 40
78.0
 40
79.0
 40
79.0
 40
79.0
 40
80.0
 40
80.0
 40
80.0
 40
81.0
 40
81.0
 40
81.0
 40
82.0
 40
82.0
 40
82.0
 40
83.0
 40
83.0
 40
83.0
 40
84.0
 40
84.0
 40
84.0
 40
85.0
 40
85.0
 40
85.0
 40
86.0
 40
86.0
 40
86.0
 40
87.0
 40
87.0
 40
87.0
 40
88.0
 40
88.0
 40
88.0
 40
89.0
 40
89.0
 40
89.0
 40
90.0
 40
90.0
 40
90.0
 40
91.0
 40
91.0
 40
91.0
 40
92.0
 40
92.0
 40
92.0
 40
93.0
 40
93.0
 40
93.0
 40
94.0
 40
94.0
 40
94.0
 40
95.0
 40
95.0
 40
95.0
 40
96.0
 40
96.0
 40
96.0
 40
97.0
 40
97.0
 40
97.0
 40
98.0
 40
98.0
 40
98.0
 40
99.0
 40
99.0
 40
99.0
 40
100.0
 40
100.0
 40
100.0
 40
101.0
 40
101.0
 40
101.0
 40
102.0
 40
102.0
 40
102.0
 40
103.0
 40
103.0
 40
103.0
 40
104.0
 40
104.0
 40
104.0
 40
105.0
 40
105.0
 40
105.0
 40
106.0
 40
106.0
 40
106.0
 40
107.0
 40
107.0
 40
107.0
 40
108.0
 40
108.0
 40
108.0
 40
109.0
 40
109.0
 40
109.0
 40
110.0
 40
110.0
 40
110.0
 40
111.0
 40
111.0
 40
111.0
 40
112.0
 40
112.0
 40
112.0
 40
113.0
 40
113.0
 40
113.0
 40
114.0
 40
114.0
 40
114.0
 40
115.0
 40
115.0
 40
115.0
 40
116.0
 40
116.0
 40
116.0
 40
117.0
 40
117.0
 40
117.0
 40
118.0
 40
118.0
 40
118.0
 40
119.0
 40
119.0
 40
119.0
 40
120.0
 40
120.0
 40
120.0
 40
121.0
 40
121.0
 40
121.0
 40
122.0
 40
122.0
 40
122.0
 40
123.0
 40
123.0
 40
123.0
 40
124.0
 40
124.0
 40
124.0
 40
125.0
 40
125.0
 40
125.0
 40
126.0
 40
126.0
 40
126.0
 40
127.0
 40
127.0
 40
127.0
 40
128.0
 40
128.0
 40
128.0
 40
129.0
 40
129.0
 40
129.0
 40
129.0
 10
56.28315881750674
 20
91.16152214601419
 10
55.6993744597237
 20
91.15150553074156
 10
55.30952314243456
 20
91.03730061370375
 10
54.51458457284507
 20
90.78170036310561
 10
52.6720053696878
 20
90.18923005820128
 10
51.62293502147233
 20
89.26650428242098
 10
50.8555830543927
 20
87.56329211282718
 10
50.14014437067904
 20
85.9753011634545
 10
50.04215293450996
 20
84.72095049132247
 10
50.45405716960363
 20
82.4191099085527
 10
51.01318756245202
 20
79.29458051164625
 10
51.78465211232941
 20
77.39714246843859
 10
53.69044881858303
 20
74.45804533878886
 10
54.56807398741967
 20
73.10457926806926
 10
54.61534069818163
 20
72.96167670521167
 10
54.57225547212752
 20
71.78844080748856
 10
54.52454520531491
 20
70.48924360420901
 10
54.85650599848147
 20
69.56298660550372
 10
55.83543420157206
 20
68.2655550136867
 10
56.08247769613088
 20
67.93813313388958
 10
56.38306228169798
 20
67.30035982267914
 10
56.50330042229457
 20
66.84827716089067
 10
56.73226147165606
 20
65.98741668820863
 10
57.76079474410373
 20
64.886570860448
 10
58.8736984062424
 20
64.31106765106135
 10
59.30801729417003
 20
64.08646464755364
 10
59.58018845429914
 20
63.70030388885775
 10
59.8956515462152
 20
62.86092358684631
 10
60.27680830364357
 20
61.84673913730851
 10
60.31778340868215
 20
61.40414771372334
 10
60.25811004761939
 20
58.95635565854611
 10
60.25811004761939
 20
58.95635565854611
 10
60.19082733178987
 20
56.19559389934774
 10
60.19082733178987
 20
56.19559389934774
 10
60.19082733178987
 20
56.19559389934774
 10
60.2832247940811
 20
56.17450991466384
 10
60.2832247940811
 20
56.17450991466384
 10
60.1958011884705
 20
56.11987069945359
 10
60.12867350194012
 20
56.05238127789188
 10
60.05068084536156
 20
55.96832094679918
 10
59.8261295182869
 20
55.72630298535403
 10
59.20105138412878
 20
55.3652052966868
 10
58.66161832501018
 20
55.16557923581933
 10
58.12218526589158
 20
54.96595317495187
 10
57.32340541477881
 20
54.60444207482024
 10
56.88684290838266
 20
54.3622174076429
 10
56.45028040198651
 20
54.11999274046556
 10
55.52142235615046
 20
53.8247997294132
 10
54.82278281954803
 20
53.7064434722538
 10
53.94982575516283
 20
53.55856274634586
 10
53.12755896522938
 20
53.23441370730851
 10
52.19379596462407
 20
52.67022763675953
 10
50.8603243671246
 20
51.86452314361822
 10
48.46647820168121
 20
49.69275214283224
 10
47.83592236561991
 20
48.71667044992908
 10
47.6600674639549
 20
48.44443900062807
 10
46.71091349903925
 20
47.74499847931275
 10
45.72659372143455
 20
47.16234669668768
 10
44.4041076723277
 20
46.3795176379093
 10
43.27016739556844
 20
45.45216682137114
 10
41.38298281795186
 20
43.60938521885142
 10
39.97835277214421
 20
42.23780655834822
 10
38.42744396985314
 20
40.85878649148599
 10
37.93637143933
 20
40.54507609192449
 10
37.44529890880558
 20
40.23138291784067
 10
36.17276243861012
 20
39.70607475042208
 10
35.10863702290041
 20
39.3777054693524
 10
33.56408657505888
 20
38.90107650186576
 10
32.94381650235885
 20
38.59081119784085
 10
32.03285572783664
 20
37.83888464602564
 10
31.40524329527394
 20
37.32082840471156
 10
30.17715501705472
 20
36.38615676015816
 10
29.30403000426243
 20
35.76180209606272
 10
28.43090499147013
 20
35.13744743196728
 10
26.55567058899577
 20
33.77882233068163
 10
25.13684459639284
 20
32.74276152448652
 10
22.01539855999163
 20
30.46340019009297
 10
21.47642843558592
 20
30.27207680946868
 10
19.78337068508621
 20
30.84396266854191
 10
18.19467995068218
 20
31.38060520027588
 10
16.75210863709334
 20
31.37430067544392
 10
15.47603879078832
 20
30.82535915264435
 10
14.57569859984895
 20
30.43804428694369
 10
14.38914129358114
 20
30.4199747608543
 10
13.65351219683917
 20
30.64707545862603
 10
12.37706339002449
 20
31.0411427115784
 10
11.17527626304191
 20
31.13073242100731
 10
10.84469243149739
 20
30.85636501247362
 10
10.68034845529431
 20
30.71997368018019
 10
10.55168597951882
 20
30.28160249862734
 10
10.55168597951882
 20
29.85797632597107
 10
10.55168597951882
 20
28.89014563687803
 10
11.17601265221254
 20
28.36831701595138
 10
12.56148581365222
 20
28.17776878182283
 10
13.61874902968983
 20
28.03235129922354
 10
14.32201576023596
 20
27.53820402093336
 10
14.32199638157308
 20
26.94094503323317
 10
14.3219791560954
 20
26.29338765069883
 10
12.52154854364371
 20
23.40143665346728
 10
11.08684604357945
 20
21.7446729844455
 10
8.437696767027624
 20
18.6854798243904
 10
8.265840329369594
 20
18.24340516513571
 10
9.454388600160886
 20
17.542138743186
 10
9.975229985897267
 20
17.23483622132255
 10
10.17473008545925
 20
16.95836730451154
 10
10.27387132226335
 20
16.40763433203294
 10
10.3459620995516
 20
16.0071936523379
 10
10.49364365587359
 20
15.56799564785626
 10
10.60191547244224
 20
15.43156986460746
 10
10.83501924918583
 20
15.13785824463584
 10
12.01483527938447
 20
15.10301110328328
 10
12.52272848886563
 20
15.3748291411199
 10
12.80457821426736
 20
15.5256726491893
 10
12.9909600359812
 20
15.44176734739576
 10
13.40422400721923
 20
14.97795413530522
 10
14.23472457548512
 20
14.04586631240426
 10
14.83523164232114
 20
14.1717501033111
 10
16.60527005258585
 20
15.64923100060895
 10
18.20885867200042
 20
16.9877711949163
 10
20.09173042064197
 20
19.5645476269833
 10
21.33676210934754
 20
22.12480482595238
 10
21.71011357220164
 20
22.89254436628051
 10
22.44154611194326
 20
23.89799549863307
 10
23.15246741413489
 20
24.62015642501217
 10
24.18607789612929
 20
25.67011819169742
 10
24.63095384869201
 20
25.94922260659391
 10
26.52590281037448
 20
26.73599629976168
 10
27.72645185614908
 20
27.23446717295028
 10
29.54670253385953
 20
27.93018699108609
 10
30.57092943688648
 20
28.28225852944747
 10
32.94237817497297
 20
29.09741980983671
 10
37.66452756327622
 20
31.24781399281818
 10
38.77259947892546
 20
32.01722440448156
 10
39.24027981075518
 20
32.34195910976013
 10
40.38180360406467
 20
33.37691748538354
 10
41.30949893015649
 20
34.31723908661694
 10
42.57305231374031
 20
35.59798780329807
 10
43.19535714599147
 20
36.0806801389291
 10
43.78997202286733
 20
36.24053257182668
 10
45.24712685649933
 20
36.63225715981416
 10
48.19714493900003
 20
38.66539751620793
 10
51.01216695289963
 20
41.21852336741627
 10
51.71008301944001
 20
41.85150799583086
 10
52.34063024276246
 20
42.36946088427884
 10
52.41363181718271
 20
42.36946088427884
 10
52.48663339160296
 20
42.36946088427884
 10
52.7535895383639
 20
41.6525881795484
 10
53.00677391571669
 20
40.77637980625085
 10
53.25995829306947
 20
39.90017143295331
 10
53.76569401147116
 20
38.56809079277706
 10
54.13042627592949
 20
37.81625036835027
 10
54.49515423401873
 20
37.06440994392348
 10
55.06875402812077
 20
35.39259120740682
 10
55.40507717351086
 20
34.10112824360692
 10
55.74140462527004
 20
32.80966527980701
 10
56.14021749732405
 20
31.30657009719465
 10
56.29153470602974
 20
30.76086696419946
 10
56.67391877874398
 20
29.3818813482926
 10
56.71359336021686
 20
28.15777000223295
 10
56.51570707259538
 20
23.81555436244257
 10
56.3140225671448
 20
19.38989850875609
 10
56.01643090832479
 20
17.99907898968105
 10
54.74155177316445
 20
15.52148685811235
 10
53.48664988574655
 20
13.08272095324097
 10
52.56134459468293
 20
9.791362804975353
 10
52.88988182416033
 20
8.935222113178426
 10
52.9906594813443
 20
8.672602480424494
 10
54.31987207948634
 20
8.635085390031074
 10
63.53450356214765
 20
8.635085390031074
 10
72.02677602543649
 20
8.635085390031074
 10
74.08356696268892
 20
8.685487137731325
 10
74.16393242881861
 20
8.894914495400373
 10
74.2187438988057
 20
9.037748156347218
 10
74.9198208405009
 20
9.706389523565466
 10
75.72197688523953
 20
10.38102535701737
 10
77.5474038189937
 20
11.9162460555084
 10
78.6460878493051
 20
13.85810860566033
 10
79.13076111486967
 20
16.40608403904148
 10
79.61273859317687
 20
18.93988290428957
 10
79.45246413607606
 20
20.66368813245331
 10
78.53482848895106
 20
22.82336684790587
 10
78.11747239017139
 20
23.8056324872972
 10
77.60181910299407
 20
25.23438250823005
 10
77.38885190966118
 20
25.99836689442331
 10
77.1758847163283
 20
26.76235128061657
 10
76.58866818211725
 20
28.26186356387089
 10
76.08381526944713
 20
29.33056665027515
 10
76.08381526944713
 20
29.33056665027515
 10
75.16573175990239
 20
31.27370388577562
 10
75.16573175990239
 20
31.27370388577562
 10
75.16573175990239
 20
31.27370388577562
 10
75.5232293237339
 20
32.32511259258623
 10
75.5232293237339
 20
32.32511259258623
 10
75.85463028887577
 20
33.30009185491768
 10
75.85760168377607
 20
33.42129031589477
 10
75.5616765899222
 20
33.99353790999935
 10
75.07361851799293
 20
34.93735628320238
 10
75.15511225291087
 20
35.54617356642782
 10
75.83762874240271
 20
36.05077670967153
 10
76.50790653000084
 20
36.54633647713171
 10
76.54544084587194
 20
36.77223139146564
 10
76.14675716490055
 20
37.91608923700053
 10
75.99244272307804
 20
38.35883568988485
 10
75.80341033098557
 20
39.27412867204495
 10
75.72693782281222
 20
39.95007364180076
 10
75.55883438610451
 20
41.43592612125251
 10
75.80367732588967
 20
41.54859797077656
 10
76.84066830787965
 20
40.46322062197521
 10
77.21678661308641
 20
40.06954955500955
 10
78.19407408942737
 20
39.25199393322239
 10
79.01262878892015
 20
38.64658729457817
 10
79.83118348841293
 20
38.04118065593396
 10
80.81766936983658
 20
37.2637776226257
 10
81.20474307884967
 20
36.91894078489114
 10
81.59180817512392
 20
36.57410394715659
 10
82.75266756713187
 20
35.77404941069528
 10
83.78443061664508
 20
35.14106478228069
 10
84.81618505341947
 20
34.50808015386611
 10
85.95049137157918
 20
33.71484690656724
 10
86.30520702076488
 20
33.37838165098659
 10
87.38191995429172
 20
32.35704862821038
 10
92.65332953673233
 20
29.55265473404116
 10
94.93940880742223
 20
28.78486351727997
 10
95.72960175791005
 20
28.51947058261909
 10
97.17958218008711
 20
27.99920948016159
 10
98.16184781947844
 20
27.62865500424642
 10
99.14411345886977
 20
27.25810052833126
 10
100.9070980360233
 20
26.61863912030789
 10
102.0794382089069
 20
26.20765644827089
 10
104.1992054925682
 20
25.46454934102934
 10
104.2122365664353
 20
25.45588492575483
 10
104.4513864858462
 20
24.65767351540559
 10
104.7174339886591
 20
23.76968291537293
 10
107.4307826205352
 20
20.62601601276074
 10
109.595878748719
 20
18.69741708042467
 10
110.6018724836186
 20
17.80131328040335
 10
111.0700006778687
 20
17.52927131135685
 10
111.9011644270254
 20
17.35672370140695
 10
113.2782380149094
 20
17.07084967378107
 10
113.8384105491583
 20
17.1596125602812
 10
113.8384105491583
 20
17.66399177231504
 10
113.8384105491583
 20
18.00059483171715
 10
114.0040076788631
 20
18.07593907110228
 10
114.9276464049606
 20
18.16008552958338
 10
116.0146860123584
 20
18.25913202626023
 10
116.0166755550307
 20
18.26073399568474
 10
116.1824535522512
 20
19.05305429266641
 10
116.6265177541783
 20
21.17543984893544
 10
116.6017475172703
 20
21.42212591483266
 10
115.8894481768646
 20
21.9660548236265
 10
114.8721631413439
 20
22.74288941617123
 10
113.2940682289001
 20
24.30112335284665
 10
112.3808250785842
 20
25.43064960094934
 10
111.2977990074866
 20
26.77015442200693
 10
111.2743120686659
 20
27.45323073952347
 10
112.2840867959169
 20
28.22241721997698
 10
113.7207605365839
 20
29.31678626812881
 10
113.9663011082152
 20
29.63526812500848
 10
113.9004222688168
 20
30.31779322723917
 10
113.8459553083834
 20
30.88206542517655
 10
113.7602413314331
 20
30.96700425563107
 10
113.1897679615299
 20
31.02193630396193
 10
112.8329938677611
 20
31.05628390646169
 10
112.0537735465573
 20
30.9018919499896
 10
111.4580906900651
 20
30.67901149425019
 10
110.2093985873519
 20
30.21182208853379
 10
106.9550838288434
 20
29.61599281548128
 10
105.50403542705
 20
29.58884546265299
 10
104.5380392513302
 20
29.5707759365636
 10
104.451619029795
 20
29.61897282312043
 10
102.2298166290789
 20
31.41974148557149
 10
99.12288305762556
 20
33.93789961708349
 10
95.55161950975119
 20
36.06216275041995
 10
93.49360556358327
 20
36.61601353435916
 10
91.52838526569329
 20
37.14490460113581
 10
90.59568593833458
 20
37.97112463819749
 10
87.47288770193526
 20
41.94840130779733
 10
86.45166664476399
 20
43.24904545120224
 10
85.0208926302034
 20
44.77598069492777
 10
84.06317329651024
 20
45.58724901736068
 10
83.15562316656862
 20
46.35602208634979
 10
82.29980114610882
 20
47.25858544050221
 10
82.1612738545827
 20
47.59301808971627
 10
81.93133956573213
 20
48.14814355900402
 10
81.14911339867265
 20
49.13964205443339
 10
79.59119813333436
 20
50.85111384057615
 10
79.2605464764717
 20
51.21436471395376
 10
78.1651008359647
 20
51.89544287605908
 10
77.07445249099237
 20
52.41597958615951
 10
76.01224340967457
 20
52.92294261984578
 10
74.629166742818
 20
53.72113680471734
 10
74.00084160611665
 20
54.18982482699215
 10
73.10379901756161
 20
54.8589657330632
 10
71.95325768668575
 20
55.43252246347168
 10
70.71205005402578
 20
55.84336733168721
 10
70.87446477672901
 20
55.94122527040393
 10
71.01816832429822
 20
56.05834129317017
 10
71.13125358528664
 20
56.19559389934774
 10
72.50852957253379
 20
57.86722315560989
 10
73.60274359138648
 20
59.68159994543046
 10
73.8796086941842
 20
60.75283517705412
 10
74.11857774607947
 20
61.677429917163
 10
74.35736593045907
 20
62.07811175354561
 10
75.04542902376481
 20
62.70930493228117
 10
75.52133452118878
 20
63.14586743867732
 10
76.05654733827505
 20
63.74441833720373
 10
76.23481380681568
 20
64.03945631895694
 10
76.66665653232671
 20
64.75417583897702
 10
77.59125988517444
 20
64.91499289862485
 10
78.94937683486843
 20
64.51167556415675
 10
80.4643317588655
 20
64.06178053803401
 10
81.84963051234315
 20
64.09239021187658
 10
82.11135442025758
 20
64.58143874877261
 10
82.2243363283799
 20
64.7925369777769
 10
82.31661321232735
 20
65.07219260795925
 10
82.31661321232735
 20
65.20279617975122
 10
82.31661321232735
 20
65.33339975154318
 10
81.51622277905123
 20
66.21735958979804
 10
80.53780703392204
 20
67.16732745853388
 10
78.57305182392949
 20
69.07492853357446
 10
78.05786362464961
 20
69.98123842912293
 10
77.76588316518513
 20
72.04299891668687
 10
77.55483661261388
 20
73.53323528020894
 10
77.30623851869386
 20
74.04803590624094
 10
76.7110638137933
 20
74.22736174165908
 10
76.46537682560168
 20
74.30138823200146
 10
75.82718149018801
 20
74.72553116898823
 10
75.2928557852024
 20
75.16993988046895
 10
74.22988878286655
 20
76.05402890980642
 10
72.5640731253224
 20
76.56999225558202
 10
71.36100270025244
 20
76.69914888724863
 10
69.67679453891266
 20
76.87994750100864
 10
70.42826461556864
 20
76.94160609837469
 10
70.06289070206692
 20
75.63378754351484
 10
69.61706519504646
 20
74.03801067822948
 10
68.56446362390663
 20
73.47142165354374
 10
66.32472088818382
 20
72.85008144804283
 10
64.11473085878852
 20
72.23699224635202
 10
64.18287054213309
 20
72.24020479793988
 10
62.74137366771487
 20
72.680789453375
 10
61.45580612365163
 20
73.07371121206144
 10
60.38728821113277
 20
73.96113337133058
 10
60.17346835665457
 20
74.81306243383402
 10
60.00103701867936
 20
75.50006616026228
 10
60.37864963407478
 20
77.041496643458
 10
60.84753574934295
 20
77.56421237648532
 10
61.34344863909563
 20
78.11705546998007
 10
63.18812504416047
 20
79.33344980203778
 10
64.64296305104412
 20
80.06700538190414
 10
65.73218598773785
 20
80.6162138996078
 10
66.07669554139643
 20
80.69814688420665
 10
66.98359110318674
 20
80.62294044864298
 10
67.9083279534862
 20
80.54625262199858
 10
68.12264734681719
 20
80.3903275980127
 10
68.8889054960646
 20
79.70826758367946
 10
71.14210132985778
 20
77.70265354062302
 10
69.16139102116175
 20
78.057842890445
 10
73.58505302580612
 20
80.63720314416445
 10
74.94388483282395
 20
81.42951482840728
 10
74.86968608770474
 20
82.12246134463614
 10
73.40986991777073
 20
82.81753520735884
 10
72.8946903312297
 20
83.06282600956375
 10
72.66850258377515
 20
83.32827923339653
 10
72.53674490497843
 20
83.84289899191286
 10
72.28798316902042
 20
84.81451928609614
 10
72.0897825164309
 20
84.99576576227592
 10
70.89653492000996
 20
85.34265243185475
 10
70.03745728426809
 20
85.59239602004068
 10
69.81053745401202
 20
85.75357481471985
 10
69.64389818290736
 20
86.23159043315997
 10
69.42743421760484
 20
86.85254306541303
 10
68.75306968542613
 20
87.24805725849075
 10
67.28497236709637
 20
87.61569201593866
 10
66.78061468690932
 20
87.7419892183099
 10
66.44161297974017
 20
87.94200285242522
 10
66.44161297974017
 20
88.11302600760018
 10
66.44161297974017
 20
88.4805401867043
 10
65.44701820469696
 20
88.98192216562131
 10
62.74757053331162
 20
89.97523794894624
 10
61.0573549866296
 20
90.59718965890491
 10
60.07220407972574
 20
90.82580619871274
 10
58.27932037968436
 20
91.01269401883368
 10
57.30850107021333
 20
91.11389370022088
 10
56.73721379648926
 20
91.16930806192687
 10
56.28316312387584
 20
91.16152214601419
 10
56.28316312387584
 20
91.16152214601419
 10
56.28315881750674
 20
91.16152214601419
 10
56.28315881750674
 20
91.16152214601419
 97
        0
 75
     2
 76
     1
 98
        0
  0
ENDBLK
  5
73
330
70
100
AcDbEntity
  8
0
100
AcDbBlockEnd
  0
ENDSEC
  0
SECTION
  2
ENTITIES
  0
INSERT
  5
42
330
1F
100
AcDbEntity
  8
svg2
100
AcDbBlockReference
  2
block 2
 10
0.0
 20
0.0
 30
0.0
  0
INSERT
  5
46
330
1F
100
AcDbEntity
  8
svg2
100
AcDbBlockReference
  2
block 3
 10
0.0
 20
0.0
 30
0.0
  0
INSERT
  5
4A
330
1F
100
AcDbEntity
  8
svg2
100
AcDbBlockReference
  2
block 4
 10
0.0
 20
0.0
 30
0.0
  0
INSERT
  5
57
330
1F
100
AcDbEntity
  8
svg2
100
AcDbBlockReference
  2
block 6
 10
0.0
 20
0.0
 30
0.0
  0
INSERT
  5
5B
330
1F
100
AcDbEntity
  8
svg2
100
AcDbBlockReference
  2
block 7
 10
0.0
 20
0.0
 30
0.0
  0
INSERT
  5
65
330
1F
100
AcDbEntity
  8
svg2
100
AcDbBlockReference
  2
block 8
 10
0.0
 20
0.0
 30
0.0
  0
INSERT
  5
69
330
1F
100
AcDbEntity
  8
svg2
100
AcDbBlockReference
  2
block 9
 10
0.0
 20
0.0
 30
0.0
  0
INSERT
  5
6D
330
1F
100
AcDbEntity
  8
svg2
100
AcDbBlockReference
  2
block 10
 10
0.0
 20
0.0
 30
0.0
  0
INSERT
  5
71
330
1F
100
AcDbEntity
  8
svg2
100
AcDbBlockReference
  2
block 11
 10
0.0
 20
0.0
 30
0.0
  0
ENDSEC
  0
SECTION
  2
OBJECTS
  0
DICTIONARY
  5
C
330
0
100
AcDbDictionary
281
     1
  3
ACAD_GROUP
350
D
  3
ACAD_LAYOUT
350
1A
  3
ACAD_MATERIAL
350
3B
  3
ACAD_MLEADERSTYLE
350
9F
  3
ACAD_MLINESTYLE
350
17
  3
ACAD_PLOTSETTINGS
350
19
  3
ACAD_PLOTSTYLENAME
350
E
  3
ACAD_TABLESTYLE
350
9E
  3
ACAD_VISUALSTYLE
350
2A
  0
DICTIONARY
  5
D
102
{ACAD_REACTORS
330
C
102
}
330
C
100
AcDbDictionary
281
     1
  0
DICTIONARY
  5
1A
102
{ACAD_REACTORS
330
C
102
}
330
C
100
AcDbDictionary
281
     1
  3
Layout1
350
1E
  3
Layout2
350
26
  3
Model
350
22
  0
DICTIONARY
  5
3B
102
{ACAD_REACTORS
330
C
102
}
330
C
100
AcDbDictionary
281
     1
  3
ByBlock
350
3D
  3
ByLayer
350
3C
  3
Global
350
3E
  0
DICTIONARY
  5
9F
102
{ACAD_REACTORS
330
C
102
}
330
C
100
AcDbDictionary
281
     1
  0
DICTIONARY
  5
17
102
{ACAD_REACTORS
330
C
102
}
330
C
100
AcDbDictionary
281
     1
  3
Standard
350
18
  0
DICTIONARY
  5
19
102
{ACAD_REACTORS
330
C
102
}
330
C
100
AcDbDictionary
281
     1
  0
ACDBDICTIONARYWDFLT
  5
E
102
{ACAD_REACTORS
330
C
102
}
330
C
100
AcDbDictionary
281
     1
  3
Normal
350
F
100
AcDbDictionaryWithDefault
340
F
  0
DICTIONARY
  5
9E
102
{ACAD_REACTORS
330
C
102
}
330
C
100
AcDbDictionary
281
     1
  0
DICTIONARY
  5
2A
102
{ACAD_REACTORS
330
C
102
}
330
C
100
AcDbDictionary
281
     1
  3
2dWireframe
350
2F
  3
3D Hidden
350
31
  3
3dWireframe
350
30
  3
Basic
350
32
  3
Brighten
350
36
  3
ColorChange
350
3A
  3
Conceptual
350
34
  3
Dim
350
35
  3
Facepattern
350
39
  3
Flat
350
2B
  3
FlatWithEdges
350
2C
  3
Gouraud
350
2D
  3
GouraudWithEdges
350
2E
  3
Linepattern
350
38
  3
Realistic
350
33
  3
Thicken
350
37
  0
LAYOUT
  5
1E
102
{ACAD_REACTORS
330
1A
102
}
330
1A
100
AcDbPlotSettings
  1

  2
none_device
  4

  6

 40
0.0
 41
0.0
 42
0.0
 43
0.0
 44
0.0
 45
0.0
 46
0.0
 47
0.0
 48
0.0
 49
0.0
140
0.0
141
0.0
142
1.0
143
1.0
 70
   688
 72
     0
 73
     0
 74
     5
  7

 75
    16
 76
     0
 77
     2
 78
   300
147
1.0
148
0.0
149
0.0
100
AcDbLayout
  1
Layout1
 70
     1
 71
     1
 10
0.0
 20
0.0
 11
12.0
 21
9.0
 12
0.0
 22
0.0
 32
0.0
 14
1.000000000000000E+20
 24
1.000000000000000E+20
 34
1.000000000000000E+20
 15
-1.000000000000000E+20
 25
-1.000000000000000E+20
 35
-1.000000000000000E+20
146
0.0
 13
0.0
 23
0.0
 33
0.0
 16
1.0
 26
0.0
 36
0.0
 17
0.0
 27
1.0
 37
0.0
 76
     0
330
1B
  0
LAYOUT
  5
26
102
{ACAD_REACTORS
330
1A
102
}
330
1A
100
AcDbPlotSettings
  1

  2
none_device
  4

  6

 40
0.0
 41
0.0
 42
0.0
 43
0.0
 44
0.0
 45
0.0
 46
0.0
 47
0.0
 48
0.0
 49
0.0
140
0.0
141
0.0
142
1.0
143
1.0
 70
   688
 72
     0
 73
     0
 74
     5
  7

 75
    16
 76
     0
 77
     2
 78
   300
147
1.0
148
0.0
149
0.0
100
AcDbLayout
  1
Layout2
 70
     1
 71
     2
 10
0.0
 20
0.0
 11
0.0
 21
0.0
 12
0.0
 22
0.0
 32
0.0
 14
0.0
 24
0.0
 34
0.0
 15
0.0
 25
0.0
 35
0.0
146
0.0
 13
0.0
 23
0.0
 33
0.0
 16
1.0
 26
0.0
 36
0.0
 17
0.0
 27
1.0
 37
0.0
 76
     0
330
23
  0
LAYOUT
  5
22
102
{ACAD_REACTORS
330
1A
102
}
330
1A
100
AcDbPlotSettings
  1

  2
none_device
  4

  6

 40
0.0
 41
0.0
 42
0.0
 43
0.0
 44
0.0
 45
0.0
 46
0.0
 47
0.0
 48
0.0
 49
0.0
140
0.0
141
0.0
142
1.0
143
1.0
 70
  1712
 72
     0
 73
     0
 74
     0
  7

 75
     0
 76
     0
 77
     2
 78
   300
147
1.0
148
0.0
149
0.0
100
AcDbLayout
  1
Model
 70
     1
 71
     0
 10
0.0
 20
0.0
 11
12.0
 21
9.0
 12
0.0
 22
0.0
 32
0.0
 14
1.000000000000000E+20
 24
1.000000000000000E+20
 34
1.000000000000000E+20
 15
-1.000000000000000E+20
 25
-1.000000000000000E+20
 35
-1.000000000000000E+20
146
0.0
 13
0.0
 23
0.0
 33
0.0
 16
1.0
 26
0.0
 36
0.0
 17
0.0
 27
1.0
 37
0.0
 76
     0
330
1F
331
29
  0
MATERIAL
  5
3D
102
{ACAD_REACTORS
330
3B
102
}
102
{ACAD_XDICTIONARY
360
9A
102
}
330
3B
100
AcDbMaterial
  1
ByBlock
  0
MATERIAL
  5
3C
102
{ACAD_REACTORS
330
3B
102
}
102
{ACAD_XDICTIONARY
360
98
102
}
330
3B
100
AcDbMaterial
  1
ByLayer
  0
MATERIAL
  5
3E
102
{ACAD_REACTORS
330
3B
102
}
102
{ACAD_XDICTIONARY
360
9C
102
}
330
3B
100
AcDbMaterial
  1
Global
  0
MLINESTYLE
  5
18
102
{ACAD_REACTORS
330
17
102
}
330
17
100
AcDbMlineStyle
  2
Standard
 70
     0
  3

 62
   256
 51
90.0
 52
90.0
 71
     2
 49
0.5
 62
   256
  6
BYLAYER
 49
-0.5
 62
   256
  6
BYLAYER
  0
ACDBPLACEHOLDER
  5
F
102
{ACAD_REACTORS
330
E
102
}
330
E
  0
VISUALSTYLE
  5
2F
102
{ACAD_REACTORS
330
2A
102
}
102
{ACAD_XDICTIONARY
360
80
102
}
330
2A
100
AcDbVisualStyle
  2
2dWireframe
 70
     4
 71
     0
 72
     2
 73
     0
 90
        0
 40
-0.6
 41
-30.0
 62
     5
 63
     7
421
 16777215
 74
     1
 91
        4
 64
     7
 65
   257
 75
     1
175
     1
 42
1.0
 92
        0
 66
   257
 43
1.0
 76
     1
 77
     6
 78
     2
 67
     7
 79
     5
170
     0
171
     0
290
     0
174
     0
 93
        1
 44
0.0
173
     0
291
     0
 45
0.0
1001
ACAD
1000
AcDbSavedByObjectVersion
1070
     0
  0
VISUALSTYLE
  5
31
102
{ACAD_REACTORS
330
2A
102
}
102
{ACAD_XDICTIONARY
360
84
102
}
330
2A
100
AcDbVisualStyle
  2
3D Hidden
 70
     6
 71
     1
 72
     2
 73
     2
 90
        0
 40
-0.6
 41
-30.0
 62
     5
 63
     7
421
 16777215
 74
     2
 91
        2
 64
     7
 65
   257
 75
     2
175
     1
 42
40.0
 92
        0
 66
   257
 43
1.0
 76
     1
 77
     6
 78
     2
 67
     7
 79
     3
170
     0
171
     0
290
     0
174
     0
 93
        1
 44
0.0
173
     0
291
     0
 45
0.0
1001
ACAD
1000
AcDbSavedByObjectVersion
1070
     0
  0
VISUALSTYLE
  5
30
102
{ACAD_REACTORS
330
2A
102
}
102
{ACAD_XDICTIONARY
360
82
102
}
330
2A
100
AcDbVisualStyle
  2
3dWireframe
 70
     5
 71
     0
 72
     2
 73
     0
 90
        0
 40
-0.6
 41
-30.0
 62
     5
 63
     7
421
 16777215
 74
     1
 91
        4
 64
     7
 65
   257
 75
     1
175
     1
 42
1.0
 92
        0
 66
   257
 43
1.0
 76
     1
 77
     6
 78
     2
 67
     7
 79
     5
170
     0
171
     0
290
     0
174
     0
 93
        1
 44
0.0
173
     0
291
     0
 45
0.0
1001
ACAD
1000
AcDbSavedByObjectVersion
1070
     0
  0
VISUALSTYLE
  5
32
102
{ACAD_REACTORS
330
2A
102
}
102
{ACAD_XDICTIONARY
360
86
102
}
330
2A
100
AcDbVisualStyle
  2
Basic
 70
     7
 71
     1
 72
     0
 73
     1
 90
        0
 40
-0.6
 41
-30.0
 62
     5
 63
     7
421
 16777215
 74
     0
 91
        4
 64
     7
 65
   257
 75
     1
175
     1
 42
1.0
 92
        8
 66
     7
 43
1.0
 76
     1
 77
     6
 78
     2
 67
     7
 79
     5
170
     0
171
     0
290
     0
174
     0
 93
        1
 44
0.0
173
     0
291
     1
 45
0.0
1001
ACAD
1000
AcDbSavedByObjectVersion
1070
     0
  0
VISUALSTYLE
  5
36
102
{ACAD_REACTORS
330
2A
102
}
102
{ACAD_XDICTIONARY
360
8E
102
}
330
2A
100
AcDbVisualStyle
  2
Brighten
 70
    12
 71
     2
 72
     2
 73
     0
 90
        0
 40
-0.6
 41
-30.0
 62
     5
 63
     7
421
 16777215
 74
     1
 91
        4
 64
     7
 65
   257
 75
     1
175
     1
 42
1.0
 92
        8
 66
     7
 43
1.0
 76
     1
 77
     6
 78
     2
 67
     7
 79
     5
170
     0
171
     0
290
     0
174
     0
 93
        1
 44
50.0
173
     0
291
     1
 45
0.0
1001
ACAD
1000
AcDbSavedByObjectVersion
1070
     0
  0
VISUALSTYLE
  5
3A
102
{ACAD_REACTORS
330
2A
102
}
102
{ACAD_XDICTIONARY
360
96
102
}
330
2A
100
AcDbVisualStyle
  2
ColorChange
 70
    16
 71
     2
 72
     2
 73
     3
 90
        0
 40
-0.6
 41
-30.0
 62
     5
 63
     8
421
  8421504
 74
     1
 91
        4
 64
     7
 65
   257
 75
     1
175
     1
 42
1.0
 92
        8
 66
     8
424
  8421504
 43
1.0
 76
     1
 77
     6
 78
     2
 67
     7
 79
     5
170
     0
171
     0
290
     0
174
     0
 93
        1
 44
0.0
173
     0
291
     1
 45
0.0
1001
ACAD
1000
AcDbSavedByObjectVersion
1070
     0
  0
VISUALSTYLE
  5
34
102
{ACAD_REACTORS
330
2A
102
}
102
{ACAD_XDICTIONARY
360
8A
102
}
330
2A
100
AcDbVisualStyle
  2
Conceptual
 70
     9
 71
     3
 72
     2
 73
     0
 90
        0
 40
-0.6
 41
-30.0
 62
     5
 63
     7
421
 16777215
 74
     2
 91
        2
 64
     7
 65
   257
 75
     1
175
     1
 42
40.0
 92
        8
 66
     7
 43
1.0
 76
     1
 77
     6
 78
     2
 67
     7
 79
     3
170
     0
171
     0
290
     0
174
     0
 93
        1
 44
0.0
173
     0
291
     0
 45
0.0
1001
ACAD
1000
AcDbSavedByObjectVersion
1070
     0
  0
VISUALSTYLE
  5
35
102
{ACAD_REACTORS
330
2A
102
}
102
{ACAD_XDICTIONARY
360
8C
102
}
330
2A
100
AcDbVisualStyle
  2
Dim
 70
    11
 71
     2
 72
     2
 73
     0
 90
        0
 40
-0.6
 41
-30.0
 62
     5
 63
     7
421
 16777215
 74
     1
 91
        4
 64
     7
 65
   257
 75
     1
175
     1
 42
1.0
 92
        8
 66
     7
 43
1.0
 76
     1
 77
     6
 78
     2
 67
     7
 79
     5
170
     0
171
     0
290
     0
174
     0
 93
        1
 44
-50.0
173
     0
291
     1
 45
0.0
1001
ACAD
1000
AcDbSavedByObjectVersion
1070
     0
  0
VISUALSTYLE
  5
39
102
{ACAD_REACTORS
330
2A
102
}
102
{ACAD_XDICTIONARY
360
94
102
}
330
2A
100
AcDbVisualStyle
  2
Facepattern
 70
    15
 71
     2
 72
     2
 73
     0
 90
        0
 40
-0.6
 41
-30.0
 62
     5
 63
     7
421
 16777215
 74
     1
 91
        4
 64
     7
 65
   257
 75
     1
175
     1
 42
1.0
 92
        8
 66
     7
 43
1.0
 76
     1
 77
     6
 78
     2
 67
     7
 79
     5
170
     0
171
     0
290
     0
174
     0
 93
        1
 44
0.0
173
     0
291
     1
 45
0.0
1001
ACAD
1000
AcDbSavedByObjectVersion
1070
     0
  0
VISUALSTYLE
  5
2B
102
{ACAD_REACTORS
330
2A
102
}
102
{ACAD_XDICTIONARY
360
78
102
}
330
2A
100
AcDbVisualStyle
  2
Flat
 70
     0
 71
     2
 72
     1
 73
     1
 90
        2
 40
-0.6
 41
30.0
 62
     5
 63
     7
421
 16777215
 74
     0
 91
        4
 64
     7
 65
   257
 75
     1
175
     1
 42
1.0
 92
        8
 66
     7
 43
1.0
 76
     1
 77
     6
 78
     2
 67
     7
 79
     5
170
     0
171
     0
290
     0
174
     0
 93
       13
 44
0.0
173
     0
291
     1
 45
0.0
1001
ACAD
1000
AcDbSavedByObjectVersion
1070
     0
  0
VISUALSTYLE
  5
2C
102
{ACAD_REACTORS
330
2A
102
}
102
{ACAD_XDICTIONARY
360
7A
102
}
330
2A
100
AcDbVisualStyle
  2
FlatWithEdges
 70
     1
 71
     2
 72
     1
 73
     1
 90
        2
 40
-0.6
 41
30.0
 62
     5
 63
     7
421
 16777215
 74
     1
 91
        4
 64
     7
 65
   257
 75
     1
175
     1
 42
1.0
 92
        0
 66
   257
 43
1.0
 76
     1
 77
     6
 78
     2
 67
     7
 79
     5
170
     0
171
     0
290
     0
174
     0
 93
       13
 44
0.0
173
     0
291
     1
 45
0.0
1001
ACAD
1000
AcDbSavedByObjectVersion
1070
     0
  0
VISUALSTYLE
  5
2D
102
{ACAD_REACTORS
330
2A
102
}
102
{ACAD_XDICTIONARY
360
7C
102
}
330
2A
100
AcDbVisualStyle
  2
Gouraud
 70
     2
 71
     2
 72
     2
 73
     1
 90
        2
 40
-0.6
 41
30.0
 62
     5
 63
     7
421
 16777215
 74
     0
 91
        4
 64
     7
 65
   257
 75
     1
175
     1
 42
1.0
 92
        0
 66
     7
 43
1.0
 76
     1
 77
     6
 78
     2
 67
     7
 79
     5
170
     0
171
     0
290
     0
174
     0
 93
       13
 44
0.0
173
     0
291
     1
 45
0.0
1001
ACAD
1000
AcDbSavedByObjectVersion
1070
     0
  0
VISUALSTYLE
  5
2E
102
{ACAD_REACTORS
330
2A
102
}
102
{ACAD_XDICTIONARY
360
7E
102
}
330
2A
100
AcDbVisualStyle
  2
GouraudWithEdges
 70
     3
 71
     2
 72
     2
 73
     1
 90
        2
 40
-0.6
 41
30.0
 62
     5
 63
     7
421
 16777215
 74
     1
 91
        4
 64
     7
 65
   257
 75
     1
175
     1
 42
1.0
 92
        0
 66
   257
 43
1.0
 76
     1
 77
     6
 78
     2
 67
     7
 79
     5
170
     0
171
     0
290
     0
174
     0
 93
       13
 44
0.0
173
     0
291
     1
 45
0.0
1001
ACAD
1000
AcDbSavedByObjectVersion
1070
     0
  0
VISUALSTYLE
  5
38
102
{ACAD_REACTORS
330
2A
102
}
102
{ACAD_XDICTIONARY
360
92
102
}
330
2A
100
AcDbVisualStyle
  2
Linepattern
 70
    14
 71
     2
 72
     2
 73
     0
 90
        0
 40
-0.6
 41
-30.0
 62
     5
 63
     7
421
 16777215
 74
     1
 91
        4
 64
     7
 65
   257
 75
     7
175
     7
 42
1.0
 92
        8
 66
     7
 43
1.0
 76
     1
 77
     6
 78
     2
 67
     7
 79
     5
170
     0
171
     0
290
     0
174
     0
 93
        1
 44
0.0
173
     0
291
     1
 45
0.0
1001
ACAD
1000
AcDbSavedByObjectVersion
1070
     0
  0
VISUALSTYLE
  5
33
102
{ACAD_REACTORS
330
2A
102
}
102
{ACAD_XDICTIONARY
360
88
102
}
330
2A
100
AcDbVisualStyle
  2
Realistic
 70
     8
 71
     2
 72
     2
 73
     0
 90
        0
 40
-0.6
 41
-30.0
 62
     5
 63
     7
421
 16777215
 74
     1
 91
        0
 64
     7
 65
   257
 75
     1
175
     1
 42
1.0
 92
        8
 66
     8
424
  7895160
 43
1.0
 76
     1
 77
     6
 78
     2
 67
     7
 79
     5
170
     0
171
     0
290
     0
174
     0
 93
       13
 44
0.0
173
     0
291
     0
 45
0.0
1001
ACAD
1000
AcDbSavedByObjectVersion
1070
     0
  0
VISUALSTYLE
  5
37
102
{ACAD_REACTORS
330
2A
102
}
102
{ACAD_XDICTIONARY
360
90
102
}
330
2A
100
AcDbVisualStyle
  2
Thicken
 70
    13
 71
     2
 72
     2
 73
     0
 90
        0
 40
-0.6
 41
-30.0
 62
     5
 63
     7
421
 16777215
 74
     1
 91
        4
 64
     7
 65
   257
 75
     1
175
     1
 42
1.0
 92
       12
 66
     7
 43
1.0
 76
     1
 77
     6
 78
     2
 67
     7
 79
     5
170
     0
171
     0
290
     0
174
     0
 93
        1
 44
0.0
173
     0
291
     1
 45
0.0
1001
ACAD
1000
AcDbSavedByObjectVersion
1070
     0
  0
DICTIONARY
  5
9A
330
3D
100
AcDbDictionary
280
     1
281
     1
  3
ACAD_XREC_ROUNDTRIP
360
9B
  0
DICTIONARY
  5
98
330
3C
100
AcDbDictionary
280
     1
281
     1
  3
ACAD_XREC_ROUNDTRIP
360
99
  0
DICTIONARY
  5
9C
330
3E
100
AcDbDictionary
280
     1
281
     1
  3
ACAD_XREC_ROUNDTRIP
360
9D
  0
DICTIONARY
  5
80
330
2F
100
AcDbDictionary
280
     1
281
     1
  3
ACAD_XREC_ROUNDTRIP
360
81
  0
DICTIONARY
  5
84
330
31
100
AcDbDictionary
280
     1
281
     1
  3
ACAD_XREC_ROUNDTRIP
360
85
  0
DICTIONARY
  5
82
330
30
100
AcDbDictionary
280
     1
281
     1
  3
ACAD_XREC_ROUNDTRIP
360
83
  0
DICTIONARY
  5
86
330
32
100
AcDbDictionary
280
     1
281
     1
  3
ACAD_XREC_ROUNDTRIP
360
87
  0
DICTIONARY
  5
8E
330
36
100
AcDbDictionary
280
     1
281
     1
  3
ACAD_XREC_ROUNDTRIP
360
8F
  0
DICTIONARY
  5
96
330
3A
100
AcDbDictionary
280
     1
281
     1
  3
ACAD_XREC_ROUNDTRIP
360
97
  0
DICTIONARY
  5
8A
330
34
100
AcDbDictionary
280
     1
281
     1
  3
ACAD_XREC_ROUNDTRIP
360
8B
  0
DICTIONARY
  5
8C
330
35
100
AcDbDictionary
280
     1
281
     1
  3
ACAD_XREC_ROUNDTRIP
360
8D
  0
DICTIONARY
  5
94
330
39
100
AcDbDictionary
280
     1
281
     1
  3
ACAD_XREC_ROUNDTRIP
360
95
  0
DICTIONARY
  5
78
330
2B
100
AcDbDictionary
280
     1
281
     1
  3
ACAD_XREC_ROUNDTRIP
360
79
  0
DICTIONARY
  5
7A
330
2C
100
AcDbDictionary
280
     1
281
     1
  3
ACAD_XREC_ROUNDTRIP
360
7B
  0
DICTIONARY
  5
7C
330
2D
100
AcDbDictionary
280
     1
281
     1
  3
ACAD_XREC_ROUNDTRIP
360
7D
  0
DICTIONARY
  5
7E
330
2E
100
AcDbDictionary
280
     1
281
     1
  3
ACAD_XREC_ROUNDTRIP
360
7F
  0
DICTIONARY
  5
92
330
38
100
AcDbDictionary
280
     1
281
     1
  3
ACAD_XREC_ROUNDTRIP
360
93
  0
DICTIONARY
  5
88
330
33
100
AcDbDictionary
280
     1
281
     1
  3
ACAD_XREC_ROUNDTRIP
360
89
  0
DICTIONARY
  5
90
330
37
100
AcDbDictionary
280
     1
281
     1
  3
ACAD_XREC_ROUNDTRIP
360
91
  0
XRECORD
  5
9B
102
{ACAD_REACTORS
330
9A
102
}
330
9A
100
AcDbXrecord
280
     1
102
MATERIAL
148
0.0
149
0.0
149
0.0
 93
        0
 94
      127
282
     0
 72
     1
 77
     1
171
     1
175
     1
179
     1
273
     0
  0
XRECORD
  5
99
102
{ACAD_REACTORS
330
98
102
}
330
98
100
AcDbXrecord
280
     1
102
MATERIAL
148
0.0
149
0.0
149
0.0
 93
        0
 94
      127
282
     0
 72
     1
 77
     1
171
     1
175
     1
179
     1
273
     0
  0
XRECORD
  5
9D
102
{ACAD_REACTORS
330
9C
102
}
330
9C
100
AcDbXrecord
280
     1
102
MATERIAL
148
0.0
149
0.0
149
0.0
 93
        0
 94
      127
282
     0
 72
     1
 77
     1
171
     1
175
     1
179
     1
273
     0
  0
XRECORD
  5
81
102
{ACAD_REACTORS
330
80
102
}
330
80
100
AcDbXrecord
280
     1
102
RTVSPropertyOp0
 70
     1
102
RTVSPropertyOp1
 70
     1
102
RTVSPropertyOp2
 70
     1
102
RTVSPropertyOp3
 70
     1
102
RTVSPropertyOp4
 70
     1
102
RTVSPropertyOp5
 70
     1
102
RTVSPropertyOp6
 70
     1
102
RTVSPropertyOp7
 70
     1
102
RTVSPropertyOp8
 70
     1
102
RTVSPropertyOp9
 70
     1
102
RTVSPropertyOp10
 70
     1
102
RTVSPropertyOp11
 70
     1
102
RTVSPropertyOp12
 70
     1
102
RTVSPropertyOp13
 70
     1
102
RTVSPropertyOp14
 70
     1
102
RTVSPropertyOp15
 70
     1
102
RTVSPropertyOp16
 70
     1
102
RTVSPropertyOp17
 70
     1
102
RTVSPropertyOp18
 70
     1
102
RTVSPropertyOp19
 70
     1
102
RTVSPropertyOp20
 70
     1
102
RTVSPropertyOp21
 70
     1
102
RTVSPropertyOp22
 70
     1
102
RTVSPropertyOp23
 70
     1
102
RTVSPropertyOp24
 70
     1
102
RTVSPropertyOp25
 70
     1
102
RTVSPropertyOp26
 70
     1
102
RTVSPropertyOp27
 70
     1
102
RTVSPropertyOp28
 70
     1
102
RTVSPropertyOp29
 70
     1
102
RTVSPropertyOp30
 70
     1
102
RTVSPropertyOp31
 70
     1
102
RTVSPropertyOp32
 70
     1
  0
XRECORD
  5
85
102
{ACAD_REACTORS
330
84
102
}
330
84
100
AcDbXrecord
280
     1
102
RTVSPropertyOp0
 70
     1
102
RTVSPropertyOp1
 70
     1
102
RTVSPropertyOp2
 70
     1
102
RTVSPropertyOp3
 70
     1
102
RTVSPropertyOp4
 70
     1
102
RTVSPropertyOp5
 70
     1
102
RTVSPropertyOp6
 70
     1
102
RTVSPropertyOp7
 70
     1
102
RTVSPropertyOp8
 70
     1
102
RTVSPropertyOp9
 70
     1
102
RTVSPropertyOp10
 70
     1
102
RTVSPropertyOp11
 70
     1
102
RTVSPropertyOp12
 70
     1
102
RTVSPropertyOp13
 70
     1
102
RTVSPropertyOp14
 70
     1
102
RTVSPropertyOp15
 70
     1
102
RTVSPropertyOp16
 70
     1
102
RTVSPropertyOp17
 70
     1
102
RTVSPropertyOp18
 70
     1
102
RTVSPropertyOp19
 70
     1
102
RTVSPropertyOp20
 70
     1
102
RTVSPropertyOp21
 70
     1
102
RTVSPropertyOp22
 70
     1
102
RTVSPropertyOp23
 70
     1
102
RTVSPropertyOp24
 70
     1
102
RTVSPropertyOp25
 70
     1
102
RTVSPropertyOp26
 70
     1
102
RTVSPropertyOp27
 70
     1
102
RTVSPropertyOp28
 70
     1
102
RTVSPropertyOp29
 70
     1
102
RTVSPropertyOp30
 70
     1
102
RTVSPropertyOp31
 70
     1
102
RTVSPropertyOp32
 70
     1
  0
XRECORD
  5
83
102
{ACAD_REACTORS
330
82
102
}
330
82
100
AcDbXrecord
280
     1
102
RTVSPropertyOp0
 70
     1
102
RTVSPropertyOp1
 70
     1
102
RTVSPropertyOp2
 70
     1
102
RTVSPropertyOp3
 70
     1
102
RTVSPropertyOp4
 70
     1
102
RTVSPropertyOp5
 70
     1
102
RTVSPropertyOp6
 70
     1
102
RTVSPropertyOp7
 70
     1
102
RTVSPropertyOp8
 70
     1
102
RTVSPropertyOp9
 70
     1
102
RTVSPropertyOp10
 70
     1
102
RTVSPropertyOp11
 70
     1
102
RTVSPropertyOp12
 70
     1
102
RTVSPropertyOp13
 70
     1
102
RTVSPropertyOp14
 70
     1
102
RTVSPropertyOp15
 70
     1
102
RTVSPropertyOp16
 70
     1
102
RTVSPropertyOp17
 70
     1
102
RTVSPropertyOp18
 70
     1
102
RTVSPropertyOp19
 70
     1
102
RTVSPropertyOp20
 70
     1
102
RTVSPropertyOp21
 70
     1
102
RTVSPropertyOp22
 70
     1
102
RTVSPropertyOp23
 70
     1
102
RTVSPropertyOp24
 70
     1
102
RTVSPropertyOp25
 70
     1
102
RTVSPropertyOp26
 70
     1
102
RTVSPropertyOp27
 70
     1
102
RTVSPropertyOp28
 70
     1
102
RTVSPropertyOp29
 70
     1
102
RTVSPropertyOp30
 70
     1
102
RTVSPropertyOp31
 70
     1
102
RTVSPropertyOp32
 70
     1
  0
XRECORD
  5
87
102
{ACAD_REACTORS
330
86
102
}
330
86
100
AcDbXrecord
280
     1
102
RTVSPropertyOp0
 70
     1
102
RTVSPropertyOp1
 70
     1
102
RTVSPropertyOp2
 70
     1
102
RTVSPropertyOp3
 70
     1
102
RTVSPropertyOp4
 70
     1
102
RTVSPropertyOp5
 70
     1
102
RTVSPropertyOp6
 70
     1
102
RTVSPropertyOp7
 70
     1
102
RTVSPropertyOp8
 70
     1
102
RTVSPropertyOp9
 70
     1
102
RTVSPropertyOp10
 70
     1
102
RTVSPropertyOp11
 70
     1
102
RTVSPropertyOp12
 70
     1
102
RTVSPropertyOp13
 70
     1
102
RTVSPropertyOp14
 70
     1
102
RTVSPropertyOp15
 70
     1
102
RTVSPropertyOp16
 70
     1
102
RTVSPropertyOp17
 70
     1
102
RTVSPropertyOp18
 70
     1
102
RTVSPropertyOp19
 70
     1
102
RTVSPropertyOp20
 70
     1
102
RTVSPropertyOp21
 70
     1
102
RTVSPropertyOp22
 70
     1
102
RTVSPropertyOp23
 70
     1
102
RTVSPropertyOp24
 70
     1
102
RTVSPropertyOp25
 70
     1
102
RTVSPropertyOp26
 70
     1
102
RTVSPropertyOp27
 70
     1
102
RTVSPropertyOp28
 70
     1
102
RTVSPropertyOp29
 70
     1
102
RTVSPropertyOp30
 70
     1
102
RTVSPropertyOp31
 70
     1
102
RTVSPropertyOp32
 70
     1
  0
XRECORD
  5
8F
102
{ACAD_REACTORS
330
8E
102
}
330
8E
100
AcDbXrecord
280
     1
102
RTVSPropertyOp0
 70
     1
102
RTVSPropertyOp1
 70
     1
102
RTVSPropertyOp2
 70
     1
102
RTVSPropertyOp3
 70
     1
102
RTVSPropertyOp4
 70
     1
102
RTVSPropertyOp5
 70
     1
102
RTVSPropertyOp6
 70
     1
102
RTVSPropertyOp7
 70
     1
102
RTVSPropertyOp8
 70
     1
102
RTVSPropertyOp9
 70
     1
102
RTVSPropertyOp10
 70
     1
102
RTVSPropertyOp11
 70
     1
102
RTVSPropertyOp12
 70
     1
102
RTVSPropertyOp13
 70
     1
102
RTVSPropertyOp14
 70
     1
102
RTVSPropertyOp15
 70
     1
102
RTVSPropertyOp16
 70
     1
102
RTVSPropertyOp17
 70
     1
102
RTVSPropertyOp18
 70
     1
102
RTVSPropertyOp19
 70
     1
102
RTVSPropertyOp20
 70
     1
102
RTVSPropertyOp21
 70
     1
102
RTVSPropertyOp22
 70
     1
102
RTVSPropertyOp23
 70
     1
102
RTVSPropertyOp24
 70
     1
102
RTVSPropertyOp25
 70
     1
102
RTVSPropertyOp26
 70
     1
102
RTVSPropertyOp27
 70
     1
102
RTVSPropertyOp28
 70
     1
102
RTVSPropertyOp29
 70
     1
102
RTVSPropertyOp30
 70
     1
102
RTVSPropertyOp31
 70
     1
102
RTVSPropertyOp32
 70
     1
  0
XRECORD
  5
97
102
{ACAD_REACTORS
330
96
102
}
330
96
100
AcDbXrecord
280
     1
102
RTVSPropertyOp0
 70
     1
102
RTVSPropertyOp1
 70
     1
102
RTVSPropertyOp2
 70
     1
102
RTVSPropertyOp3
 70
     1
102
RTVSPropertyOp4
 70
     1
102
RTVSPropertyOp5
 70
     1
102
RTVSPropertyOp6
 70
     1
102
RTVSPropertyOp7
 70
     1
102
RTVSPropertyOp8
 70
     1
102
RTVSPropertyOp9
 70
     1
102
RTVSPropertyOp10
 70
     1
102
RTVSPropertyOp11
 70
     1
102
RTVSPropertyOp12
 70
     1
102
RTVSPropertyOp13
 70
     1
102
RTVSPropertyOp14
 70
     1
102
RTVSPropertyOp15
 70
     1
102
RTVSPropertyOp16
 70
     1
102
RTVSPropertyOp17
 70
     1
102
RTVSPropertyOp18
 70
     1
102
RTVSPropertyOp19
 70
     1
102
RTVSPropertyOp20
 70
     1
102
RTVSPropertyOp21
 70
     1
102
RTVSPropertyOp22
 70
     1
102
RTVSPropertyOp23
 70
     1
102
RTVSPropertyOp24
 70
     1
102
RTVSPropertyOp25
 70
     1
102
RTVSPropertyOp26
 70
     1
102
RTVSPropertyOp27
 70
     1
102
RTVSPropertyOp28
 70
     1
102
RTVSPropertyOp29
 70
     1
102
RTVSPropertyOp30
 70
     1
102
RTVSPropertyOp31
 70
     1
102
RTVSPropertyOp32
 70
     1
  0
XRECORD
  5
8B
102
{ACAD_REACTORS
330
8A
102
}
330
8A
100
AcDbXrecord
280
     1
102
RTVSPropertyOp0
 70
     1
102
RTVSPropertyOp1
 70
     1
102
RTVSPropertyOp2
 70
     1
102
RTVSPropertyOp3
 70
     1
102
RTVSPropertyOp4
 70
     1
102
RTVSPropertyOp5
 70
     1
102
RTVSPropertyOp6
 70
     1
102
RTVSPropertyOp7
 70
     1
102
RTVSPropertyOp8
 70
     1
102
RTVSPropertyOp9
 70
     1
102
RTVSPropertyOp10
 70
     1
102
RTVSPropertyOp11
 70
     1
102
RTVSPropertyOp12
 70
     1
102
RTVSPropertyOp13
 70
     1
102
RTVSPropertyOp14
 70
     1
102
RTVSPropertyOp15
 70
     1
102
RTVSPropertyOp16
 70
     1
102
RTVSPropertyOp17
 70
     1
102
RTVSPropertyOp18
 70
     1
102
RTVSPropertyOp19
 70
     1
102
RTVSPropertyOp20
 70
     1
102
RTVSPropertyOp21
 70
     1
102
RTVSPropertyOp22
 70
     1
102
RTVSPropertyOp23
 70
     1
102
RTVSPropertyOp24
 70
     1
102
RTVSPropertyOp25
 70
     1
102
RTVSPropertyOp26
 70
     1
102
RTVSPropertyOp27
 70
     1
102
RTVSPropertyOp28
 70
     1
102
RTVSPropertyOp29
 70
     1
102
RTVSPropertyOp30
 70
     1
102
RTVSPropertyOp31
 70
     1
102
RTVSPropertyOp32
 70
     1
  0
XRECORD
  5
8D
102
{ACAD_REACTORS
330
8C
102
}
330
8C
100
AcDbXrecord
280
     1
102
RTVSPropertyOp0
 70
     1
102
RTVSPropertyOp1
 70
     1
102
RTVSPropertyOp2
 70
     1
102
RTVSPropertyOp3
 70
     1
102
RTVSPropertyOp4
 70
     1
102
RTVSPropertyOp5
 70
     1
102
RTVSPropertyOp6
 70
     1
102
RTVSPropertyOp7
 70
     1
102
RTVSPropertyOp8
 70
     1
102
RTVSPropertyOp9
 70
     1
102
RTVSPropertyOp10
 70
     1
102
RTVSPropertyOp11
 70
     1
102
RTVSPropertyOp12
 70
     1
102
RTVSPropertyOp13
 70
     1
102
RTVSPropertyOp14
 70
     1
102
RTVSPropertyOp15
 70
     1
102
RTVSPropertyOp16
 70
     1
102
RTVSPropertyOp17
 70
     1
102
RTVSPropertyOp18
 70
     1
102
RTVSPropertyOp19
 70
     1
102
RTVSPropertyOp20
 70
     1
102
RTVSPropertyOp21
 70
     1
102
RTVSPropertyOp22
 70
     1
102
RTVSPropertyOp23
 70
     1
102
RTVSPropertyOp24
 70
     1
102
RTVSPropertyOp25
 70
     1
102
RTVSPropertyOp26
 70
     1
102
RTVSPropertyOp27
 70
     1
102
RTVSPropertyOp28
 70
     1
102
RTVSPropertyOp29
 70
     1
102
RTVSPropertyOp30
 70
     1
102
RTVSPropertyOp31
 70
     1
102
RTVSPropertyOp32
 70
     1
  0
XRECORD
  5
95
102
{ACAD_REACTORS
330
94
102
}
330
94
100
AcDbXrecord
280
     1
102
RTVSPropertyOp0
 70
     1
102
RTVSPropertyOp1
 70
     1
102
RTVSPropertyOp2
 70
     1
102
RTVSPropertyOp3
 70
     1
102
RTVSPropertyOp4
 70
     1
102
RTVSPropertyOp5
 70
     1
102
RTVSPropertyOp6
 70
     1
102
RTVSPropertyOp7
 70
     1
102
RTVSPropertyOp8
 70
     1
102
RTVSPropertyOp9
 70
     1
102
RTVSPropertyOp10
 70
     1
102
RTVSPropertyOp11
 70
     1
102
RTVSPropertyOp12
 70
     1
102
RTVSPropertyOp13
 70
     1
102
RTVSPropertyOp14
 70
     1
102
RTVSPropertyOp15
 70
     1
102
RTVSPropertyOp16
 70
     1
102
RTVSPropertyOp17
 70
     1
102
RTVSPropertyOp18
 70
     1
102
RTVSPropertyOp19
 70
     1
102
RTVSPropertyOp20
 70
     1
102
RTVSPropertyOp21
 70
     1
102
RTVSPropertyOp22
 70
     1
102
RTVSPropertyOp23
 70
     1
102
RTVSPropertyOp24
 70
     1
102
RTVSPropertyOp25
 70
     1
102
RTVSPropertyOp26
 70
     1
102
RTVSPropertyOp27
 70
     1
102
RTVSPropertyOp28
 70
     1
102
RTVSPropertyOp29
 70
     1
102
RTVSPropertyOp30
 70
     1
102
RTVSPropertyOp31
 70
     1
102
RTVSPropertyOp32
 70
     1
  0
XRECORD
  5
79
102
{ACAD_REACTORS
330
78
102
}
330
78
100
AcDbXrecord
280
     1
102
RTVSPropertyOp0
 70
     1
102
RTVSPropertyOp1
 70
     1
102
RTVSPropertyOp2
 70
     1
102
RTVSPropertyOp3
 70
     1
102
RTVSPropertyOp4
 70
     1
102
RTVSPropertyOp5
 70
     1
102
RTVSPropertyOp6
 70
     1
102
RTVSPropertyOp7
 70
     1
102
RTVSPropertyOp8
 70
     1
102
RTVSPropertyOp9
 70
     1
102
RTVSPropertyOp10
 70
     1
102
RTVSPropertyOp11
 70
     1
102
RTVSPropertyOp12
 70
     1
102
RTVSPropertyOp13
 70
     1
102
RTVSPropertyOp14
 70
     1
102
RTVSPropertyOp15
 70
     1
102
RTVSPropertyOp16
 70
     1
102
RTVSPropertyOp17
 70
     1
102
RTVSPropertyOp18
 70
     1
102
RTVSPropertyOp19
 70
     1
102
RTVSPropertyOp20
 70
     1
102
RTVSPropertyOp21
 70
     1
102
RTVSPropertyOp22
 70
     1
102
RTVSPropertyOp23
 70
     1
102
RTVSPropertyOp24
 70
     1
102
RTVSPropertyOp25
 70
     1
102
RTVSPropertyOp26
 70
     1
102
RTVSPropertyOp27
 70
     1
102
RTVSPropertyOp28
 70
     1
102
RTVSPropertyOp29
 70
     1
102
RTVSPropertyOp30
 70
     1
102
RTVSPropertyOp31
 70
     1
102
RTVSPropertyOp32
 70
     1
  0
XRECORD
  5
7B
102
{ACAD_REACTORS
330
7A
102
}
330
7A
100
AcDbXrecord
280
     1
102
RTVSPropertyOp0
 70
     1
102
RTVSPropertyOp1
 70
     1
102
RTVSPropertyOp2
 70
     1
102
RTVSPropertyOp3
 70
     1
102
RTVSPropertyOp4
 70
     1
102
RTVSPropertyOp5
 70
     1
102
RTVSPropertyOp6
 70
     1
102
RTVSPropertyOp7
 70
     1
102
RTVSPropertyOp8
 70
     1
102
RTVSPropertyOp9
 70
     1
102
RTVSPropertyOp10
 70
     1
102
RTVSPropertyOp11
 70
     1
102
RTVSPropertyOp12
 70
     1
102
RTVSPropertyOp13
 70
     1
102
RTVSPropertyOp14
 70
     1
102
RTVSPropertyOp15
 70
     1
102
RTVSPropertyOp16
 70
     1
102
RTVSPropertyOp17
 70
     1
102
RTVSPropertyOp18
 70
     1
102
RTVSPropertyOp19
 70
     1
102
RTVSPropertyOp20
 70
     1
102
RTVSPropertyOp21
 70
     1
102
RTVSPropertyOp22
 70
     1
102
RTVSPropertyOp23
 70
     1
102
RTVSPropertyOp24
 70
     1
102
RTVSPropertyOp25
 70
     1
102
RTVSPropertyOp26
 70
     1
102
RTVSPropertyOp27
 70
     1
102
RTVSPropertyOp28
 70
     1
102
RTVSPropertyOp29
 70
     1
102
RTVSPropertyOp30
 70
     1
102
RTVSPropertyOp31
 70
     1
102
RTVSPropertyOp32
 70
     1
  0
XRECORD
  5
7D
102
{ACAD_REACTORS
330
7C
102
}
330
7C
100
AcDbXrecord
280
     1
102
RTVSPropertyOp0
 70
     1
102
RTVSPropertyOp1
 70
     1
102
RTVSPropertyOp2
 70
     1
102
RTVSPropertyOp3
 70
     1
102
RTVSPropertyOp4
 70
     1
102
RTVSPropertyOp5
 70
     1
102
RTVSPropertyOp6
 70
     1
102
RTVSPropertyOp7
 70
     1
102
RTVSPropertyOp8
 70
     1
102
RTVSPropertyOp9
 70
     1
102
RTVSPropertyOp10
 70
     1
102
RTVSPropertyOp11
 70
     1
102
RTVSPropertyOp12
 70
     1
102
RTVSPropertyOp13
 70
     1
102
RTVSPropertyOp14
 70
     1
102
RTVSPropertyOp15
 70
     1
102
RTVSPropertyOp16
 70
     1
102
RTVSPropertyOp17
 70
     1
102
RTVSPropertyOp18
 70
     1
102
RTVSPropertyOp19
 70
     1
102
RTVSPropertyOp20
 70
     1
102
RTVSPropertyOp21
 70
     1
102
RTVSPropertyOp22
 70
     1
102
RTVSPropertyOp23
 70
     1
102
RTVSPropertyOp24
 70
     1
102
RTVSPropertyOp25
 70
     1
102
RTVSPropertyOp26
 70
     1
102
RTVSPropertyOp27
 70
     1
102
RTVSPropertyOp28
 70
     1
102
RTVSPropertyOp29
 70
     1
102
RTVSPropertyOp30
 70
     1
102
RTVSPropertyOp31
 70
     1
102
RTVSPropertyOp32
 70
     1
  0
XRECORD
  5
7F
102
{ACAD_REACTORS
330
7E
102
}
330
7E
100
AcDbXrecord
280
     1
102
RTVSPropertyOp0
 70
     1
102
RTVSPropertyOp1
 70
     1
102
RTVSPropertyOp2
 70
     1
102
RTVSPropertyOp3
 70
     1
102
RTVSPropertyOp4
 70
     1
102
RTVSPropertyOp5
 70
     1
102
RTVSPropertyOp6
 70
     1
102
RTVSPropertyOp7
 70
     1
102
RTVSPropertyOp8
 70
     1
102
RTVSPropertyOp9
 70
     1
102
RTVSPropertyOp10
 70
     1
102
RTVSPropertyOp11
 70
     1
102
RTVSPropertyOp12
 70
     1
102
RTVSPropertyOp13
 70
     1
102
RTVSPropertyOp14
 70
     1
102
RTVSPropertyOp15
 70
     1
102
RTVSPropertyOp16
 70
     1
102
RTVSPropertyOp17
 70
     1
102
RTVSPropertyOp18
 70
     1
102
RTVSPropertyOp19
 70
     1
102
RTVSPropertyOp20
 70
     1
102
RTVSPropertyOp21
 70
     1
102
RTVSPropertyOp22
 70
     1
102
RTVSPropertyOp23
 70
     1
102
RTVSPropertyOp24
 70
     1
102
RTVSPropertyOp25
 70
     1
102
RTVSPropertyOp26
 70
     1
102
RTVSPropertyOp27
 70
     1
102
RTVSPropertyOp28
 70
     1
102
RTVSPropertyOp29
 70
     1
102
RTVSPropertyOp30
 70
     1
102
RTVSPropertyOp31
 70
     1
102
RTVSPropertyOp32
 70
     1
  0
XRECORD
  5
93
102
{ACAD_REACTORS
330
92
102
}
330
92
100
AcDbXrecord
280
     1
102
RTVSPropertyOp0
 70
     1
102
RTVSPropertyOp1
 70
     1
102
RTVSPropertyOp2
 70
     1
102
RTVSPropertyOp3
 70
     1
102
RTVSPropertyOp4
 70
     1
102
RTVSPropertyOp5
 70
     1
102
RTVSPropertyOp6
 70
     1
102
RTVSPropertyOp7
 70
     1
102
RTVSPropertyOp8
 70
     1
102
RTVSPropertyOp9
 70
     1
102
RTVSPropertyOp10
 70
     1
102
RTVSPropertyOp11
 70
     1
102
RTVSPropertyOp12
 70
     1
102
RTVSPropertyOp13
 70
     1
102
RTVSPropertyOp14
 70
     1
102
RTVSPropertyOp15
 70
     1
102
RTVSPropertyOp16
 70
     1
102
RTVSPropertyOp17
 70
     1
102
RTVSPropertyOp18
 70
     1
102
RTVSPropertyOp19
 70
     1
102
RTVSPropertyOp20
 70
     1
102
RTVSPropertyOp21
 70
     1
102
RTVSPropertyOp22
 70
     1
102
RTVSPropertyOp23
 70
     1
102
RTVSPropertyOp24
 70
     1
102
RTVSPropertyOp25
 70
     1
102
RTVSPropertyOp26
 70
     1
102
RTVSPropertyOp27
 70
     1
102
RTVSPropertyOp28
 70
     1
102
RTVSPropertyOp29
 70
     1
102
RTVSPropertyOp30
 70
     1
102
RTVSPropertyOp31
 70
     1
102
RTVSPropertyOp32
 70
     1
  0
XRECORD
  5
89
102
{ACAD_REACTORS
330
88
102
}
330
88
100
AcDbXrecord
280
     1
102
RTVSPropertyOp0
 70
     1
102
RTVSPropertyOp1
 70
     1
102
RTVSPropertyOp2
 70
     1
102
RTVSPropertyOp3
 70
     1
102
RTVSPropertyOp4
 70
     1
102
RTVSPropertyOp5
 70
     1
102
RTVSPropertyOp6
 70
     1
102
RTVSPropertyOp7
 70
     1
102
RTVSPropertyOp8
 70
     1
102
RTVSPropertyOp9
 70
     1
102
RTVSPropertyOp10
 70
     1
102
RTVSPropertyOp11
 70
     1
102
RTVSPropertyOp12
 70
     1
102
RTVSPropertyOp13
 70
     1
102
RTVSPropertyOp14
 70
     1
102
RTVSPropertyOp15
 70
     1
102
RTVSPropertyOp16
 70
     1
102
RTVSPropertyOp17
 70
     1
102
RTVSPropertyOp18
 70
     1
102
RTVSPropertyOp19
 70
     1
102
RTVSPropertyOp20
 70
     1
102
RTVSPropertyOp21
 70
     1
102
RTVSPropertyOp22
 70
     1
102
RTVSPropertyOp23
 70
     1
102
RTVSPropertyOp24
 70
     1
102
RTVSPropertyOp25
 70
     1
102
RTVSPropertyOp26
 70
     1
102
RTVSPropertyOp27
 70
     1
102
RTVSPropertyOp28
 70
     1
102
RTVSPropertyOp29
 70
     1
102
RTVSPropertyOp30
 70
     1
102
RTVSPropertyOp31
 70
     1
102
RTVSPropertyOp32
 70
     1
  0
XRECORD
  5
91
102
{ACAD_REACTORS
330
90
102
}
330
90
100
AcDbXrecord
280
     1
102
RTVSPropertyOp0
 70
     1
102
RTVSPropertyOp1
 70
     1
102
RTVSPropertyOp2
 70
     1
102
RTVSPropertyOp3
 70
     1
102
RTVSPropertyOp4
 70
     1
102
RTVSPropertyOp5
 70
     1
102
RTVSPropertyOp6
 70
     1
102
RTVSPropertyOp7
 70
     1
102
RTVSPropertyOp8
 70
     1
102
RTVSPropertyOp9
 70
     1
102
RTVSPropertyOp10
 70
     1
102
RTVSPropertyOp11
 70
     1
102
RTVSPropertyOp12
 70
     1
102
RTVSPropertyOp13
 70
     1
102
RTVSPropertyOp14
 70
     1
102
RTVSPropertyOp15
 70
     1
102
RTVSPropertyOp16
 70
     1
102
RTVSPropertyOp17
 70
     1
102
RTVSPropertyOp18
 70
     1
102
RTVSPropertyOp19
 70
     1
102
RTVSPropertyOp20
 70
     1
102
RTVSPropertyOp21
 70
     1
102
RTVSPropertyOp22
 70
     1
102
RTVSPropertyOp23
 70
     1
102
RTVSPropertyOp24
 70
     1
102
RTVSPropertyOp25
 70
     1
102
RTVSPropertyOp26
 70
     1
102
RTVSPropertyOp27
 70
     1
102
RTVSPropertyOp28
 70
     1
102
RTVSPropertyOp29
 70
     1
102
RTVSPropertyOp30
 70
     1
102
RTVSPropertyOp31
 70
     1
102
RTVSPropertyOp32
 70
     1
  0
ENDSEC
  0
EOF
