<?xml version="1.0" encoding="UTF-8" standalone="no"?>
<!-- Created with Inkscape (http://www.inkscape.org/) -->

<svg
   xmlns:dc="http://purl.org/dc/elements/1.1/"
   xmlns:cc="http://creativecommons.org/ns#"
   xmlns:rdf="http://www.w3.org/1999/02/22-rdf-syntax-ns#"
   xmlns:svg="http://www.w3.org/2000/svg"
   xmlns="http://www.w3.org/2000/svg"
   xmlns:sodipodi="http://sodipodi.sourceforge.net/DTD/sodipodi-0.dtd"
   xmlns:inkscape="http://www.inkscape.org/namespaces/inkscape"
   width="214mm"
   height="214mm"
   viewBox="0 0 758.26772 758.26771"
   id="svg2"
   version="1.1"
   inkscape:version="0.91 r13725"
   sodipodi:docname="farnsworth-0.1.svg">
  <defs
     id="defs4">
    <clipPath
       id="clipPath4254"
       clipPathUnits="userSpaceOnUse">
      <path
         inkscape:connector-curvature="0"
         id="path4256"
         d="m 0,634.961 606.614,0 L 606.614,0 0,0 0,634.961 Z" />
    </clipPath>
  </defs>
  <sodipodi:namedview
     id="base"
     pagecolor="#ffffff"
     bordercolor="#666666"
     borderopacity="1.0"
     inkscape:pageopacity="0.0"
     inkscape:pageshadow="2"
     inkscape:zoom="2.2633333"
     inkscape:cx="380.04151"
     inkscape:cy="273.60004"
     inkscape:document-units="px"
     inkscape:current-layer="layer4"
     showgrid="false"
     inkscape:window-width="3070"
     inkscape:window-height="1752"
     inkscape:window-x="130"
     inkscape:window-y="48"
     inkscape:window-maximized="1" />
  <metadata
     id="metadata7">
    <rdf:RDF>
      <cc:Work
         rdf:about="">
        <dc:format>image/svg+xml</dc:format>
        <dc:type
           rdf:resource="http://purl.org/dc/dcmitype/StillImage" />
        <dc:title></dc:title>
      </cc:Work>
    </rdf:RDF>
  </metadata>
  <g
     inkscape:groupmode="layer"
     id="layer2"
     inkscape:label="Background"
     transform="translate(0,-294.09449)"
     style="display:none">
    <g
       transform="matrix(1.25,0,0,-1.25,1.0826772e-4,1052.675)"
       inkscape:label="plate_dimensions"
       id="g4248"
       style="fill:#ff0000;fill-opacity:1">
      <g
         id="g4250"
         style="fill:#ff0000;fill-opacity:1">
        <g
           clip-path="url(#clipPath4254)"
           id="g4252"
           style="fill:#ff0000;fill-opacity:1">
          <g
             transform="translate(599.5278,298.7717)"
             id="g4258"
             style="fill:#ff0000;fill-opacity:1">
            <path
               inkscape:connector-curvature="0"
               id="path4260"
               style="fill:#ff0000;fill-opacity:1;stroke:#231f20;stroke-width:1;stroke-linecap:butt;stroke-linejoin:miter;stroke-miterlimit:10;stroke-dasharray:none;stroke-opacity:1"
               d="m 0,0 c -2.505,0 -4.535,2.031 -4.535,4.535 0,2.505 2.03,4.536 4.535,4.536 2.505,0 4.535,-2.031 4.535,-4.536 C 4.535,2.031 2.505,0 0,0 Z m 0,-296.22 c -2.505,0 -4.535,2.03 -4.535,4.535 0,2.505 2.03,4.535 4.535,4.535 2.505,0 4.535,-2.03 4.535,-4.535 0,-2.505 -2.03,-4.535 -4.535,-4.535 z m 0,601.511 c 2.505,0 4.535,-2.03 4.535,-4.535 0,-2.505 -2.03,-4.536 -4.535,-4.536 -2.505,0 -4.536,2.031 -4.536,4.536 0,2.505 2.031,4.535 4.536,4.535 z M -296.221,-296.22 c -2.505,0 -4.535,2.03 -4.535,4.535 0,2.505 2.03,4.535 4.535,4.535 2.505,0 4.536,-2.03 4.536,-4.535 0,-2.505 -2.031,-4.535 -4.536,-4.535 z M -592.441,0 c -2.505,0 -4.536,2.031 -4.536,4.535 0,2.505 2.031,4.536 4.536,4.536 2.505,0 4.536,-2.031 4.536,-4.536 0,-2.504 -2.031,-4.535 -4.536,-4.535 z m 0,-296.22 c -2.505,0 -4.536,2.03 -4.536,4.535 0,2.505 2.031,4.535 4.536,4.535 2.505,0 4.536,-2.03 4.536,-4.535 0,-2.505 -2.031,-4.535 -4.536,-4.535 z m 0,601.511 c 2.505,0 4.536,-2.03 4.536,-4.535 0,-2.505 -2.031,-4.536 -4.536,-4.536 -2.505,0 -4.536,2.031 -4.536,4.536 0,2.505 2.031,4.535 4.536,4.535 z m 593.858,2.552 -595.276,0 c -3.118,0 -5.669,-2.552 -5.669,-5.67 l 0,-595.275 c 0,-3.118 2.551,-5.67 5.669,-5.67 l 595.276,0 c 3.118,0 5.669,2.552 5.669,5.67 l 0,595.275 c 0,3.118 -2.551,5.67 -5.669,5.67 z" />
          </g>
          <g
             transform="translate(204.0836,510.6542)"
             id="g4262"
             style="fill:#ffffff;fill-opacity:1;stroke:none">
            <path
               inkscape:connector-curvature="0"
               id="path4264"
               style="fill:#ffffff;fill-opacity:1;stroke:none;stroke-width:1;stroke-linecap:butt;stroke-linejoin:miter;stroke-miterlimit:10;stroke-dasharray:none;stroke-opacity:1"
               d="m 0,0 -1.003,-3.357 -1.373,-2.944 -1.744,-2.531 -2.114,-2.119 -2.476,-1.659 -2.694,-1.184 -2.91,-0.711 -3.128,-0.237 -2.806,0.237 -2.564,0.571 -2.321,0.905 -2.078,1.24 -1.855,1.406 -1.583,1.512 -1.31,1.617 -1.039,1.723 -0.986,2.215 -0.375,1.23 -0.307,1.512 -0.51,11.883 0.511,11.953 0.309,1.439 0.38,1.294 0.454,1.149 1.564,2.732 1.311,1.63 1.583,1.534 1.856,1.437 2.08,1.234 2.322,0.892 2.564,0.55 2.807,0.206 3.427,-0.3 3.094,-0.832 2.763,-1.362 2.431,-1.893 2.055,-2.306 1.639,-2.565 1.221,-2.824 0.805,-3.082 -7.98,0 -0.555,1.493 -0.742,1.378 -0.929,1.264 -1.117,1.15 -1.33,0.913 -1.466,0.663 -1.603,0.411 -1.739,0.161 -1.284,-0.094 -1.189,-0.214 -1.096,-0.332 -1.002,-0.452 -0.925,-0.561 -0.831,-0.628 -0.738,-0.693 -1.315,-1.647 -0.548,-1.007 -0.424,-1.125 -0.301,-1.244 -0.409,-3.955 0,-12.718 0.41,-3.901 0.301,-1.275 0.424,-1.148 0.548,-1.019 1.315,-1.647 0.738,-0.681 0.832,-0.605 1.928,-1.039 1.096,-0.364 1.19,-0.218 1.284,-0.072 2.973,0.438 2.571,1.315 2.171,2.191 L -7.972,0 0,0 Z" />
          </g>
          <g
             transform="translate(233.9357,514.6821)"
             id="g4266"
             style="fill:#ffffff;fill-opacity:1;stroke:none">
            <path
               inkscape:connector-curvature="0"
               id="path4268"
               style="fill:#ffffff;fill-opacity:1;stroke:none;stroke-width:1;stroke-linecap:butt;stroke-linejoin:miter;stroke-miterlimit:10;stroke-dasharray:none;stroke-opacity:1"
               d="m 0,0 -7.185,22.424 -0.136,0 L -14.505,0 0,0 Z m 2.145,-6.884 -18.829,0 -3.814,-11.464 -7.967,0 18.046,51.258 6.299,0 18.046,-51.258 -7.933,0 -3.848,11.464 z" />
          </g>
          <g
             transform="translate(252.3336,547.5917)"
             id="g4270"
             style="fill:#ffffff;fill-opacity:1;stroke:none">
            <path
               inkscape:connector-curvature="0"
               id="path4272"
               style="fill:#ffffff;fill-opacity:1;stroke:none;stroke-width:1;stroke-linecap:butt;stroke-linejoin:miter;stroke-miterlimit:10;stroke-dasharray:none;stroke-opacity:1"
               d="m 0,0 7.517,0 0,-33.076 0.208,-2.465 0.559,-2.153 0.908,-1.841 1.258,-1.528 1.498,-1.263 1.699,-0.901 1.899,-0.541 2.099,-0.181 2.103,0.181 1.912,0.541 1.72,0.901 1.529,1.263 1.227,1.528 0.887,1.841 0.546,2.153 0.204,2.465 0,33.076 7.517,0 0,-33.891 -0.368,-3.834 -0.969,-3.417 -1.569,-2.999 -2.17,-2.582 -2.65,-2.142 -2.979,-1.54 -3.306,-0.938 -3.634,-0.337 -3.577,0.336 -3.27,0.937 -2.964,1.539 -2.656,2.14 -2.24,2.579 -1.61,2.995 -0.979,3.413 L 0,-33.911 0,0 Z" />
          </g>
          <g
             transform="translate(307.0368,540.7045)"
             id="g4274"
             style="fill:#ffffff;fill-opacity:1;stroke:none">
            <path
               inkscape:connector-curvature="0"
               id="path4276"
               style="fill:#ffffff;fill-opacity:1;stroke:none;stroke-width:1;stroke-linecap:butt;stroke-linejoin:miter;stroke-miterlimit:10;stroke-dasharray:none;stroke-opacity:1"
               d="m 0,0 -13.608,0 0,6.887 34.742,0 0,-6.887 -13.617,0 0,-44.371 -7.517,0 L 0,0 Z" />
          </g>
          <path
             inkscape:connector-curvature="0"
             id="path4278"
             style="fill:#ffffff;fill-opacity:1;stroke:none;stroke-width:1;stroke-linecap:butt;stroke-linejoin:miter;stroke-miterlimit:10;stroke-dasharray:none;stroke-opacity:1"
             d="m 334.599,547.592 7.517,0 0,-51.258 -7.517,0 0,51.258 z" />
          <g
             transform="translate(358.9909,521.9628)"
             id="g4280"
             style="fill:#ffffff;fill-opacity:1;stroke:none">
            <path
               inkscape:connector-curvature="0"
               id="path4282"
               style="fill:#ffffff;fill-opacity:1;stroke:none;stroke-width:1;stroke-linecap:butt;stroke-linejoin:miter;stroke-miterlimit:10;stroke-dasharray:none;stroke-opacity:1"
               d="m 0,0 0.137,-6.35 0.409,-3.902 0.301,-1.275 0.424,-1.147 0.548,-1.02 1.315,-1.647 0.738,-0.68 0.831,-0.606 1.927,-1.039 1.096,-0.363 1.189,-0.218 1.284,-0.073 1.302,0.073 1.213,0.218 1.124,0.363 1.034,0.509 0.891,0.53 0.797,0.606 0.704,0.68 1.285,1.647 0.561,1.02 0.446,1.147 0.33,1.275 0.383,3.902 0,12.718 -0.383,3.954 -0.33,1.244 -0.446,1.126 -0.561,1.006 -1.285,1.647 -0.704,0.694 -0.797,0.627 -0.891,0.562 -1.034,0.451 -1.124,0.332 -1.213,0.214 L 10.199,18.32 8.915,18.225 7.726,18.011 6.63,17.679 5.628,17.228 4.703,16.666 3.872,16.039 3.134,15.345 1.819,13.698 1.271,12.692 0.847,11.567 0.546,10.323 0.137,6.368 0,0 Z m -7.517,0 0.511,11.978 0.309,1.442 0.38,1.297 0.454,1.152 1.563,2.726 1.31,1.624 1.583,1.528 1.855,1.432 2.079,1.23 2.32,0.889 2.564,0.547 2.806,0.206 2.838,-0.207 2.591,-0.549 2.344,-0.892 2.097,-1.235 1.821,-1.437 1.549,-1.534 1.276,-1.63 1.585,-2.732 0.483,-1.149 0.385,-1.294 0.287,-1.439 L 27.915,0 l -0.442,-11.883 -0.288,-1.47 -0.385,-1.316 -0.483,-1.162 -1.585,-2.732 -1.276,-1.617 -1.549,-1.511 -1.821,-1.407 -2.097,-1.239 -2.344,-0.905 -2.591,-0.572 -2.838,-0.237 -2.806,0.237 -2.563,0.572 -2.321,0.905 -2.078,1.239 -1.855,1.407 -1.583,1.511 -1.31,1.617 -1.039,1.723 -0.986,2.215 -0.375,1.23 -0.306,1.512 L -7.517,0 Z" />
          </g>
          <g
             transform="translate(397.0719,547.5917)"
             id="g4284"
             style="fill:#ffffff;fill-opacity:1;stroke:none">
            <path
               inkscape:connector-curvature="0"
               id="path4286"
               style="fill:#ffffff;fill-opacity:1;stroke:none;stroke-width:1;stroke-linecap:butt;stroke-linejoin:miter;stroke-miterlimit:10;stroke-dasharray:none;stroke-opacity:1"
               d="m 0,0 7.087,0 22.484,-36.439 0.136,0 0,36.439 7.518,0 0,-51.258 -7.121,0 -22.451,36.439 -0.135,0 0,-36.439 -7.518,0 L 0,0 Z" />
          </g>
          <g
             transform="translate(186.1398,468.1601)"
             id="g4288"
             style="fill:#ffffff;fill-opacity:1;stroke:none">
            <path
               inkscape:connector-curvature="0"
               id="path4290"
               style="fill:#ffffff;fill-opacity:1;stroke:none;stroke-width:1;stroke-linecap:butt;stroke-linejoin:miter;stroke-miterlimit:10;stroke-dasharray:none;stroke-opacity:1"
               d="m 0,0 -12.614,0 0,-14.346 -4.815,0 0,32.831 4.815,0 0,-14.076 12.614,0 0,14.076 4.814,0 0,-32.831 -4.814,0 L 0,0 Z" />
          </g>
          <g
             transform="translate(202.3258,470.2294)"
             id="g4292"
             style="fill:#ffffff;fill-opacity:1;stroke:none">
            <path
               inkscape:connector-curvature="0"
               id="path4294"
               style="fill:#ffffff;fill-opacity:1;stroke:none;stroke-width:1;stroke-linecap:butt;stroke-linejoin:miter;stroke-miterlimit:10;stroke-dasharray:none;stroke-opacity:1"
               d="m 0,0 0.087,-4.067 0.263,-2.499 0.192,-0.817 0.272,-0.735 0.351,-0.653 0.842,-1.055 0.473,-0.436 0.532,-0.388 1.235,-0.665 0.702,-0.233 0.762,-0.139 0.822,-0.047 0.834,0.047 0.777,0.139 0.719,0.233 0.662,0.326 0.571,0.339 0.511,0.388 0.451,0.436 0.823,1.055 0.359,0.653 0.285,0.735 0.212,0.817 0.246,2.499 0,8.145 -0.246,2.533 -0.212,0.797 -0.285,0.721 -0.359,0.645 -0.823,1.055 -0.451,0.444 -0.511,0.402 -0.571,0.36 L 8.863,11.324 8.144,11.536 7.367,11.673 6.533,11.734 5.711,11.673 4.949,11.536 4.247,11.324 3.605,11.035 3.012,10.675 2.48,10.273 2.007,9.829 1.165,8.774 0.814,8.129 0.542,7.409 0.35,6.612 0.087,4.078 0,0 Z m -4.814,0 0.327,7.672 0.197,0.924 0.244,0.83 0.29,0.738 1.002,1.747 0.839,1.04 1.014,0.978 1.188,0.917 1.331,0.788 1.487,0.569 1.642,0.351 1.797,0.132 1.818,-0.133 1.659,-0.352 1.502,-0.571 1.343,-0.791 1.166,-0.92 0.992,-0.982 0.818,-1.045 1.015,-1.749 0.309,-0.736 0.246,-0.829 0.184,-0.922 0.283,-7.656 -0.283,-7.611 -0.184,-0.942 -0.246,-0.843 -0.31,-0.744 -1.015,-1.75 -0.817,-1.036 -0.992,-0.968 -1.167,-0.9 -1.343,-0.794 -1.502,-0.58 -1.659,-0.366 -1.818,-0.152 -1.797,0.152 -1.642,0.366 -1.486,0.58 -1.331,0.794 -1.188,0.9 -1.014,0.968 -0.84,1.036 -0.664,1.104 -0.632,1.418 -0.24,0.788 -0.196,0.969 L -4.814,0 Z" />
          </g>
          <g
             transform="translate(231.2882,482.2333)"
             id="g4296"
             style="fill:#ffffff;fill-opacity:1;stroke:none">
            <path
               inkscape:connector-curvature="0"
               id="path4298"
               style="fill:#ffffff;fill-opacity:1;stroke:none;stroke-width:1;stroke-linecap:butt;stroke-linejoin:miter;stroke-miterlimit:10;stroke-dasharray:none;stroke-opacity:1"
               d="m 0,0 -8.716,0 0,4.412 22.252,0 0,-4.412 -8.722,0 0,-28.419 -4.814,0 L 0,0 Z" />
          </g>
          <g
             transform="translate(260.3922,461.7675)"
             id="g4300"
             style="fill:#ffffff;fill-opacity:1;stroke:none">
            <path
               inkscape:connector-curvature="0"
               id="path4302"
               style="fill:#ffffff;fill-opacity:1;stroke:none;stroke-width:1;stroke-linecap:butt;stroke-linejoin:miter;stroke-miterlimit:10;stroke-dasharray:none;stroke-opacity:1"
               d="m 0,0 1.989,-1.415 2.169,-1.017 2.35,-0.619 2.529,-0.221 2.718,0.32 1.953,0.869 1.19,1.418 0.426,1.968 L 15.081,2.957 14.31,4.244 13.009,5.165 11.179,5.72 6.968,6.329 5.04,6.787 3.358,7.461 1.92,8.353 0.729,9.461 l -0.964,1.319 -0.689,1.454 -0.413,1.588 -0.138,1.724 0.173,2.049 0.519,1.839 0.865,1.632 1.211,1.422 1.48,1.147 1.761,0.825 2.042,0.504 2.322,0.183 2.867,-0.262 2.673,-0.653 2.481,-1.043 2.287,-1.433 -2.685,-4.088 -1.834,1.072 -1.925,0.779 -2.014,0.485 L 8.643,20.196 7.576,20.124 6.602,19.908 5.721,19.549 4.933,19.046 4.253,18.376 3.76,17.559 3.456,16.595 3.34,15.485 3.407,14.792 3.607,14.133 3.941,13.508 4.409,12.916 5.024,12.375 5.8,11.925 6.737,11.564 7.834,11.293 13.502,10.332 15.301,9.631 16.807,8.675 18.022,7.462 18.948,6.09 19.609,4.611 20.006,3.025 20.138,1.332 19.351,-2.798 17.229,-5.767 13.772,-7.576 8.979,-8.224 5.573,-7.944 2.414,-7.104 -0.497,-5.703 -3.16,-3.742 0,0 Z" />
          </g>
          <g
             transform="translate(285.8717,486.6449)"
             id="g4304"
             style="fill:#ffffff;fill-opacity:1;stroke:none">
            <path
               inkscape:connector-curvature="0"
               id="path4306"
               style="fill:#ffffff;fill-opacity:1;stroke:none;stroke-width:1;stroke-linecap:butt;stroke-linejoin:miter;stroke-miterlimit:10;stroke-dasharray:none;stroke-opacity:1"
               d="m 0,0 4.814,0 0,-21.186 0.134,-1.579 0.358,-1.378 0.581,-1.179 0.806,-0.979 0.96,-0.809 1.088,-0.577 1.216,-0.347 1.345,-0.115 1.347,0.115 1.224,0.347 1.102,0.577 0.979,0.809 0.787,0.979 0.567,1.179 0.35,1.378 0.131,1.579 0,21.186 4.815,0 0,-21.707 -0.237,-2.456 -0.62,-2.189 -1.005,-1.921 -1.389,-1.653 -1.698,-1.372 -1.908,-0.987 -2.118,-0.601 -2.327,-0.215 -2.291,0.215 -2.095,0.6 -1.898,0.986 -1.702,1.37 -1.434,1.652 -1.031,1.919 -0.628,2.186 L 0,-21.72 0,0 Z" />
          </g>
          <g
             transform="translate(320.319,472.2538)"
             id="g4308"
             style="fill:#ffffff;fill-opacity:1;stroke:none">
            <path
               inkscape:connector-curvature="0"
               id="path4310"
               style="fill:#ffffff;fill-opacity:1;stroke:none;stroke-width:1;stroke-linecap:butt;stroke-linejoin:miter;stroke-miterlimit:10;stroke-dasharray:none;stroke-opacity:1"
               d="m 0,0 7.303,0 1.271,0.118 1.102,0.311 0.932,0.502 0.762,0.694 0.584,0.777 0.417,0.861 0.25,0.945 0.083,1.03 -0.116,1.198 -0.305,1.02 L 11.79,8.299 11.108,8.963 10.428,9.408 9.61,9.726 8.656,9.916 0,9.979 0,0 Z m -4.814,14.391 12.424,0 1.896,-0.135 1.713,-0.405 1.53,-0.676 1.347,-0.946 1.33,-1.358 0.969,-1.62 0.608,-1.881 0.246,-2.143 -0.417,-3.077 -1.162,-2.542 -1.908,-2.007 -2.654,-1.472 7.36,-14.569 -5.72,0 -6.582,14.031 -6.166,0 0,-14.031 -4.814,0 0,32.831 z" />
          </g>
          <g
             transform="translate(343.6295,486.6449)"
             id="g4312"
             style="fill:#ffffff;fill-opacity:1;stroke:none">
            <path
               inkscape:connector-curvature="0"
               id="path4314"
               style="fill:#ffffff;fill-opacity:1;stroke:none;stroke-width:1;stroke-linecap:butt;stroke-linejoin:miter;stroke-miterlimit:10;stroke-dasharray:none;stroke-opacity:1"
               d="m 0,0 20.314,0 0,-4.682 -15.5,0 0,-9.709 13.232,0 0,-4.409 -13.232,0 0,-14.031 -4.814,0 L 0,0 Z" />
          </g>
          <g
             transform="translate(380.776,465.5663)"
             id="g4316"
             style="fill:#ffffff;fill-opacity:1;stroke:none">
            <path
               inkscape:connector-curvature="0"
               id="path4318"
               style="fill:#ffffff;fill-opacity:1;stroke:none;stroke-width:1;stroke-linecap:butt;stroke-linejoin:miter;stroke-miterlimit:10;stroke-dasharray:none;stroke-opacity:1"
               d="m 0,0 -4.602,14.363 -0.086,0 L -9.29,0 0,0 Z m 1.374,-4.41 -12.061,0 -2.442,-7.342 -5.103,0 11.559,32.831 4.034,0 11.559,-32.831 -5.081,0 -2.465,7.342 z" />
          </g>
          <g
             transform="translate(414.5954,462.9862)"
             id="g4320"
             style="fill:#ffffff;fill-opacity:1;stroke:none">
            <path
               inkscape:connector-curvature="0"
               id="path4322"
               style="fill:#ffffff;fill-opacity:1;stroke:none;stroke-width:1;stroke-linecap:butt;stroke-linejoin:miter;stroke-miterlimit:10;stroke-dasharray:none;stroke-opacity:1"
               d="m 0,0 -0.642,-2.15 -0.88,-1.886 -1.117,-1.621 -1.354,-1.358 -1.586,-1.062 -1.725,-0.759 -1.864,-0.455 -2.003,-0.151 -1.798,0.152 -1.642,0.365 -1.486,0.58 -1.332,0.794 -1.188,0.9 -1.013,0.969 -0.84,1.035 -0.665,1.104 -0.632,1.418 -0.24,0.789 -0.196,0.968 -0.327,7.611 0.327,7.656 0.197,0.922 0.244,0.829 0.291,0.736 1.001,1.749 0.84,1.045 1.015,0.982 1.188,0.921 1.332,0.79 1.487,0.572 1.643,0.351 1.798,0.133 2.195,-0.193 1.982,-0.533 1.769,-0.872 1.557,-1.213 1.317,-1.477 1.049,-1.642 0.783,-1.809 0.515,-1.974 -5.111,0 -0.356,0.956 -0.475,0.883 -0.595,0.809 -0.715,0.737 -0.852,0.585 -0.939,0.424 -1.027,0.264 -1.114,0.103 -0.822,-0.061 -0.762,-0.136 -0.702,-0.213 -0.641,-0.289 -0.593,-0.36 -0.532,-0.402 -0.473,-0.444 -0.842,-1.055 -0.351,-0.645 -0.272,-0.721 -0.192,-0.797 -0.263,-2.532 0,-8.146 0.263,-2.499 0.192,-0.817 0.272,-0.735 0.351,-0.653 0.843,-1.055 0.473,-0.436 0.533,-0.387 1.234,-0.666 0.702,-0.233 0.762,-0.139 0.822,-0.047 1.904,0.281 1.648,0.842 1.391,1.403 L -5.105,0 0,0 Z" />
          </g>
          <g
             transform="translate(418.7936,486.6449)"
             id="g4324"
             style="fill:#ffffff;fill-opacity:1;stroke:none">
            <path
               inkscape:connector-curvature="0"
               id="path4326"
               style="fill:#ffffff;fill-opacity:1;stroke:none;stroke-width:1;stroke-linecap:butt;stroke-linejoin:miter;stroke-miterlimit:10;stroke-dasharray:none;stroke-opacity:1"
               d="m 0,0 20.314,0 0,-4.682 -15.5,0 0,-9.394 13.232,0 0,-4.409 -13.232,0 0,-9.664 15.5,0 0,-4.682 L 0,-32.831 0,0 Z" />
          </g>
          <g
             transform="translate(172.963,63.2319)"
             id="g4328"
             style="fill:#ffffff;fill-opacity:1;stroke:none">
            <path
               inkscape:connector-curvature="0"
               id="path4330"
               style="fill:#ffffff;fill-opacity:1;stroke:none;stroke-width:1;stroke-linecap:butt;stroke-linejoin:miter;stroke-miterlimit:10;stroke-dasharray:none;stroke-opacity:1"
               d="m 0,0 5.369,0 1.761,0.167 1.502,0.5 1.243,0.834 0.984,1.167 0.342,0.527 0.273,0.592 0.205,0.658 0.135,0.724 0,11.305 -0.163,0.82 -0.248,0.74 -0.331,0.657 -0.416,0.577 L 9.624,20.43 8.398,21.248 6.98,21.722 5.369,21.853 0,21.853 0,0 Z m -4.483,26.212 10.361,0 2.819,-0.338 2.443,-0.973 2.067,-1.606 1.691,-2.241 0.489,-0.871 0.389,-0.891 0.29,-0.912 0.192,-0.933 L 16.395,6.743 16.136,4.049 15.933,3.116 15.648,2.287 14.815,0.715 14.102,-0.318 13.261,-1.256 12.294,-2.1 11.199,-2.85 9.987,-3.51 8.645,-3.982 7.173,-4.265 -4.483,-4.359 l 0,30.571 z" />
          </g>
          <g
             transform="translate(199.0055,74.1577)"
             id="g4332"
             style="fill:#ffffff;fill-opacity:1;stroke:none">
            <path
               inkscape:connector-curvature="0"
               id="path4334"
               style="fill:#ffffff;fill-opacity:1;stroke:none;stroke-width:1;stroke-linecap:butt;stroke-linejoin:miter;stroke-miterlimit:10;stroke-dasharray:none;stroke-opacity:1"
               d="m 0,0 0.081,-3.787 0.244,-2.327 0.18,-0.761 0.253,-0.684 0.327,-0.608 0.784,-0.982 0.44,-0.406 0.496,-0.361 1.149,-0.62 0.654,-0.217 0.709,-0.13 0.766,-0.043 0.777,0.043 0.723,0.13 0.67,0.217 0.617,0.304 0.531,0.316 0.476,0.361 0.419,0.406 0.767,0.982 0.334,0.608 0.266,0.684 0.197,0.761 0.229,2.327 0,7.585 L 11.86,6.157 11.663,6.899 11.397,7.57 11.063,8.17 10.296,9.153 9.877,9.566 9.401,9.941 8.87,10.275 8.253,10.545 7.583,10.743 6.86,10.87 6.083,10.927 5.317,10.87 4.608,10.743 3.954,10.545 3.356,10.275 2.805,9.941 2.309,9.566 1.869,9.153 1.085,8.17 0.758,7.57 0.505,6.899 0.325,6.157 0.081,3.798 0,0 Z m -4.483,0 0.304,7.145 0.184,0.859 0.227,0.774 0.27,0.687 0.933,1.626 0.782,0.969 0.944,0.911 1.106,0.854 1.24,0.734 1.384,0.53 1.529,0.326 1.673,0.123 1.693,-0.123 1.545,-0.328 1.398,-0.532 1.251,-0.737 1.086,-0.857 0.924,-0.914 0.761,-0.973 0.945,-1.629 0.288,-0.685 0.23,-0.772 0.171,-0.858 0.264,-7.13 -0.264,-7.087 -0.172,-0.877 -0.229,-0.785 -0.288,-0.693 -0.945,-1.629 -0.762,-0.964 -0.923,-0.902 -1.087,-0.838 -1.25,-0.74 -1.398,-0.54 -1.546,-0.341 -1.692,-0.141 -1.674,0.141 -1.528,0.341 -1.384,0.54 -1.24,0.74 -1.107,0.838 -0.944,0.902 -0.781,0.964 -0.619,1.028 -0.588,1.32 -0.224,0.734 -0.183,0.902 L -4.483,0 Z" />
          </g>
          <g
             transform="translate(232.0138,89.4438)"
             id="g4336"
             style="fill:#ffffff;fill-opacity:1;stroke:none">
            <path
               inkscape:connector-curvature="0"
               id="path4338"
               style="fill:#ffffff;fill-opacity:1;stroke:none;stroke-width:1;stroke-linecap:butt;stroke-linejoin:miter;stroke-miterlimit:10;stroke-dasharray:none;stroke-opacity:1"
               d="m 0,0 4.226,0 13.411,-21.733 0.081,0 0,21.733 4.483,0 0,-30.571 -4.246,0 -13.391,21.733 -0.081,0 0,-21.733 -4.483,0 L 0,0 Z" />
          </g>
          <g
             transform="translate(264.8669,74.1577)"
             id="g4340"
             style="fill:#ffffff;fill-opacity:1;stroke:none">
            <path
               inkscape:connector-curvature="0"
               id="path4342"
               style="fill:#ffffff;fill-opacity:1;stroke:none;stroke-width:1;stroke-linecap:butt;stroke-linejoin:miter;stroke-miterlimit:10;stroke-dasharray:none;stroke-opacity:1"
               d="m 0,0 0.081,-3.787 0.244,-2.327 0.18,-0.761 0.253,-0.684 0.327,-0.608 0.784,-0.982 0.44,-0.406 0.496,-0.361 1.149,-0.62 0.654,-0.217 0.709,-0.13 0.766,-0.043 0.777,0.043 0.723,0.13 0.67,0.217 0.617,0.304 0.531,0.316 0.476,0.361 0.419,0.406 0.767,0.982 0.335,0.608 0.265,0.684 0.198,0.761 0.228,2.327 0,7.585 L 11.861,6.157 11.663,6.899 11.398,7.57 11.063,8.17 10.296,9.153 9.877,9.566 9.401,9.941 8.87,10.275 8.253,10.545 7.583,10.743 6.86,10.87 6.083,10.927 5.317,10.87 4.608,10.743 3.954,10.545 3.356,10.275 2.805,9.941 2.309,9.566 1.869,9.153 1.085,8.17 0.758,7.57 0.505,6.899 0.325,6.157 0.081,3.798 0,0 Z m -4.483,0 0.304,7.145 0.184,0.859 0.227,0.774 0.27,0.687 0.933,1.626 0.782,0.969 0.944,0.911 1.106,0.854 1.24,0.734 1.384,0.53 1.529,0.326 1.673,0.123 1.693,-0.123 1.545,-0.328 1.398,-0.532 1.251,-0.737 1.086,-0.857 0.924,-0.914 0.761,-0.973 0.946,-1.629 0.287,-0.685 0.23,-0.772 0.171,-0.858 0.264,-7.13 -0.264,-7.087 -0.171,-0.877 -0.23,-0.785 -0.288,-0.693 -0.945,-1.629 -0.761,-0.964 -0.924,-0.902 -1.086,-0.838 -1.251,-0.74 -1.398,-0.54 -1.546,-0.341 -1.692,-0.141 -1.674,0.141 -1.528,0.341 -1.384,0.54 -1.24,0.74 -1.107,0.838 -0.944,0.902 -0.781,0.964 -0.619,1.028 -0.588,1.32 -0.224,0.734 -0.183,0.902 L -4.483,0 Z" />
          </g>
          <g
             transform="translate(291.8351,85.3364)"
             id="g4344"
             style="fill:#ffffff;fill-opacity:1;stroke:none">
            <path
               inkscape:connector-curvature="0"
               id="path4346"
               style="fill:#ffffff;fill-opacity:1;stroke:none;stroke-width:1;stroke-linecap:butt;stroke-linejoin:miter;stroke-miterlimit:10;stroke-dasharray:none;stroke-opacity:1"
               d="m 0,0 -8.115,0 0,4.107 20.719,0 0,-4.107 -8.121,0 0,-26.464 -4.483,0 L 0,0 Z" />
          </g>
          <g
             transform="translate(323.6012,85.3364)"
             id="g4348"
             style="fill:#ffffff;fill-opacity:1;stroke:none">
            <path
               inkscape:connector-curvature="0"
               id="path4350"
               style="fill:#ffffff;fill-opacity:1;stroke:none;stroke-width:1;stroke-linecap:butt;stroke-linejoin:miter;stroke-miterlimit:10;stroke-dasharray:none;stroke-opacity:1"
               d="m 0,0 -8.115,0 0,4.107 20.719,0 0,-4.107 -8.121,0 0,-26.464 -4.483,0 L 0,0 Z" />
          </g>
          <g
             transform="translate(342.7419,74.1577)"
             id="g4352"
             style="fill:#ffffff;fill-opacity:1;stroke:none">
            <path
               inkscape:connector-curvature="0"
               id="path4354"
               style="fill:#ffffff;fill-opacity:1;stroke:none;stroke-width:1;stroke-linecap:butt;stroke-linejoin:miter;stroke-miterlimit:10;stroke-dasharray:none;stroke-opacity:1"
               d="m 0,0 0.082,-3.787 0.244,-2.327 0.179,-0.761 0.253,-0.684 0.327,-0.608 0.784,-0.982 0.44,-0.406 0.496,-0.361 1.15,-0.62 0.653,-0.217 0.71,-0.13 0.765,-0.043 0.777,0.043 0.723,0.13 0.67,0.217 0.617,0.304 0.532,0.316 0.475,0.361 0.42,0.406 0.767,0.982 0.334,0.608 0.266,0.684 0.197,0.761 0.229,2.327 0,7.585 L 11.861,6.157 11.664,6.899 11.398,7.57 11.064,8.17 10.297,9.153 9.877,9.566 9.402,9.941 8.87,10.275 8.253,10.545 7.583,10.743 6.86,10.87 6.083,10.927 5.318,10.87 4.608,10.743 3.955,10.545 3.357,10.275 2.805,9.941 2.309,9.566 1.869,9.153 1.085,8.17 0.758,7.57 0.505,6.899 0.326,6.157 0.082,3.798 0,0 Z m -4.482,0 0.303,7.145 0.184,0.859 0.228,0.774 0.27,0.687 0.933,1.626 0.781,0.969 0.944,0.911 1.107,0.854 1.239,0.734 1.384,0.53 1.529,0.326 1.674,0.123 1.692,-0.123 1.546,-0.328 1.398,-0.532 1.25,-0.737 1.087,-0.857 0.923,-0.914 0.762,-0.973 0.945,-1.629 0.288,-0.685 0.23,-0.772 0.171,-0.858 0.263,-7.13 -0.263,-7.087 -0.172,-0.877 -0.23,-0.785 -0.287,-0.693 -0.946,-1.629 -0.761,-0.964 -0.924,-0.902 -1.086,-0.838 -1.251,-0.74 -1.398,-0.54 -1.545,-0.341 -1.692,-0.141 -1.674,0.141 -1.529,0.341 -1.384,0.54 -1.239,0.74 -1.107,0.838 -0.944,0.902 -0.782,0.964 -0.619,1.028 -0.588,1.32 -0.224,0.734 -0.183,0.902 L -4.482,0 Z" />
          </g>
          <g
             transform="translate(364.9088,89.4438)"
             id="g4356"
             style="fill:#ffffff;fill-opacity:1;stroke:none">
            <path
               inkscape:connector-curvature="0"
               id="path4358"
               style="fill:#ffffff;fill-opacity:1;stroke:none;stroke-width:1;stroke-linecap:butt;stroke-linejoin:miter;stroke-miterlimit:10;stroke-dasharray:none;stroke-opacity:1"
               d="m 0,0 4.483,0 0,-19.728 0.125,-1.47 0.333,-1.284 0.541,-1.098 0.75,-0.911 0.894,-0.753 1.013,-0.538 1.133,-0.322 1.252,-0.108 1.255,0.108 1.14,0.322 1.026,0.538 0.911,0.753 0.732,0.911 0.529,1.098 0.326,1.284 0.121,1.47 0,19.728 4.484,0 0,-20.213 -0.22,-2.287 -0.578,-2.038 -0.936,-1.789 -1.293,-1.539 -1.581,-1.278 -1.776,-0.919 -1.972,-0.56 -2.168,-0.2 -2.133,0.2 -1.951,0.559 -1.767,0.918 -1.585,1.276 -1.336,1.538 -0.96,1.787 L 0.208,-22.51 0,-20.226 0,0 Z" />
          </g>
          <g
             transform="translate(412.4762,67.4135)"
             id="g4360"
             style="fill:#ffffff;fill-opacity:1;stroke:none">
            <path
               inkscape:connector-curvature="0"
               id="path4362"
               style="fill:#ffffff;fill-opacity:1;stroke:none;stroke-width:1;stroke-linecap:butt;stroke-linejoin:miter;stroke-miterlimit:10;stroke-dasharray:none;stroke-opacity:1"
               d="m 0,0 -0.598,-2.002 -0.819,-1.756 -1.04,-1.51 -1.261,-1.264 -1.477,-0.989 -1.606,-0.707 -1.736,-0.424 -1.865,-0.141 -1.674,0.141 -1.529,0.341 -1.385,0.54 -1.239,0.74 -1.107,0.838 -0.944,0.902 -0.781,0.965 -0.62,1.027 -0.589,1.32 -0.223,0.734 -0.183,0.902 -0.303,7.087 0.304,7.13 0.184,0.858 0.227,0.772 0.271,0.685 0.932,1.629 0.782,0.973 0.945,0.914 1.106,0.857 1.241,0.737 1.385,0.532 1.529,0.328 1.675,0.123 2.043,-0.179 1.846,-0.496 1.647,-0.813 1.45,-1.129 1.226,-1.375 0.978,-1.53 0.728,-1.684 0.48,-1.839 -4.76,0 -0.33,0.891 -0.443,0.822 -0.554,0.754 -0.666,0.686 -0.793,0.544 -0.875,0.395 -0.956,0.246 -1.037,0.096 -0.766,-0.057 -0.709,-0.127 -0.654,-0.198 -0.598,-0.269 -0.552,-0.335 -0.495,-0.374 -0.44,-0.414 -0.784,-0.983 -0.327,-0.6 -0.253,-0.671 -0.179,-0.742 -0.244,-2.359 0,-7.585 0.244,-2.327 0.179,-0.76 0.253,-0.685 0.327,-0.608 0.785,-0.982 0.44,-0.406 0.496,-0.361 1.15,-0.62 0.654,-0.217 0.71,-0.129 0.765,-0.044 1.773,0.262 1.534,0.784 L -5.81,-1.83 -4.755,0 0,0 Z" />
          </g>
          <g
             transform="translate(432.6149,72.2309)"
             id="g4364"
             style="fill:#ffffff;fill-opacity:1;stroke:none">
            <path
               inkscape:connector-curvature="0"
               id="path4366"
               style="fill:#ffffff;fill-opacity:1;stroke:none;stroke-width:1;stroke-linecap:butt;stroke-linejoin:miter;stroke-miterlimit:10;stroke-dasharray:none;stroke-opacity:1"
               d="m 0,0 -11.746,0 0,-13.358 -4.483,0 0,30.571 4.483,0 0,-13.108 11.746,0 0,13.108 4.483,0 0,-30.571 -4.483,0 L 0,0 Z" />
          </g>
          <path
             inkscape:connector-curvature="0"
             id="path4368"
             style="fill:#ffffff;fill-opacity:1;stroke:none;stroke-width:1;stroke-linecap:butt;stroke-linejoin:miter;stroke-miterlimit:10;stroke-dasharray:none;stroke-opacity:1"
             d="m 374.085,153.948 -141.732,0 0,14.173 141.732,0 0,-14.173 z" />
          <g
             transform="translate(266.5622,192.4877)"
             id="g4370"
             style="fill:#ffffff;fill-opacity:1;stroke:none">
            <path
               inkscape:connector-curvature="0"
               id="path4372"
               style="fill:#ffffff;fill-opacity:1;stroke:none;stroke-width:1;stroke-linecap:butt;stroke-linejoin:miter;stroke-miterlimit:10;stroke-dasharray:none;stroke-opacity:1"
               d="m 0,0 -11.727,7.96 8.945,14.778 2.865,5.914 0.816,2.187 0.326,1.519 -0.326,1.501 -2.064,4.901 -22.307,38.002 -1.896,4.492 -1.283,4.156 -0.472,3.61 0.472,3.609 1.283,4.156 4.208,9.106 9.434,15.455 11.727,-7.96 -8.945,-14.778 -2.864,-5.915 -0.817,-2.186 -0.325,-1.52 0.325,-1.498 2.064,-4.898 22.307,-38.007 1.896,-4.491 1.283,-4.157 0.472,-3.61 L 14.925,28.717 13.642,24.56 9.435,15.454 0,0 Z" />
          </g>
          <g
             transform="translate(309.0817,192.4877)"
             id="g4374"
             style="fill:#ffffff;fill-opacity:1;stroke:none">
            <path
               inkscape:connector-curvature="0"
               id="path4376"
               style="fill:#ffffff;fill-opacity:1;stroke:none;stroke-width:1;stroke-linecap:butt;stroke-linejoin:miter;stroke-miterlimit:10;stroke-dasharray:none;stroke-opacity:1"
               d="m 0,0 -11.727,7.96 8.945,14.778 2.864,5.914 0.817,2.187 0.326,1.519 -0.326,1.501 -2.064,4.901 -22.306,38.002 -1.896,4.492 -1.283,4.156 -0.472,3.61 0.472,3.609 1.283,4.156 4.207,9.106 9.434,15.455 11.727,-7.96 -8.944,-14.778 -2.865,-5.915 -0.816,-2.186 -0.326,-1.52 0.326,-1.498 2.064,-4.898 22.306,-38.007 1.897,-4.491 1.283,-4.157 0.471,-3.61 L 14.926,28.717 13.643,24.56 9.435,15.454 0,0 Z" />
          </g>
          <g
             transform="translate(351.6022,192.4877)"
             id="g4378"
             style="fill:#ffffff;fill-opacity:1;stroke:none">
            <path
               inkscape:connector-curvature="0"
               id="path4380"
               style="fill:#ffffff;fill-opacity:1;stroke:none;stroke-width:1;stroke-linecap:butt;stroke-linejoin:miter;stroke-miterlimit:10;stroke-dasharray:none;stroke-opacity:1"
               d="m 0,0 -11.727,7.96 8.944,14.778 2.864,5.914 0.817,2.187 0.326,1.519 -0.325,1.499 -2.065,4.898 -22.307,38.007 -1.896,4.492 -1.283,4.156 -0.472,3.61 0.472,3.609 1.283,4.156 4.208,9.106 9.434,15.455 11.727,-7.96 -8.944,-14.778 -2.865,-5.915 -0.817,-2.186 -0.325,-1.52 0.325,-1.501 2.065,-4.9 22.306,-38.002 1.897,-4.491 1.283,-4.157 0.471,-3.61 L 14.925,28.717 13.642,24.56 9.434,15.454 0,0 Z" />
          </g>
          <g
             transform="translate(303.2189,416.1528)"
             id="g4382"
             style="fill:#ffffff;fill-opacity:1;stroke:none">
            <path
               inkscape:connector-curvature="0"
               id="path4384"
               style="fill:#ffffff;fill-opacity:1;stroke:none;stroke-width:1;stroke-linecap:butt;stroke-linejoin:miter;stroke-miterlimit:10;stroke-dasharray:none;stroke-opacity:1"
               d="m 0,0 -2.061,-0.282 -1.886,-0.821 -1.65,-1.323 -1.355,-1.788 -157.268,-266.404 -1.154,-2.857 -0.253,-2.785 0.435,-2.546 0.909,-2.142 0.832,-1.223 1.415,-1.424 2.045,-1.181 2.723,-0.493 314.536,0 2.723,0.493 2.046,1.181 1.414,1.424 0.832,1.223 0.909,2.142 0.435,2.546 -0.253,2.785 -1.154,2.857 L 6.952,-4.214 5.597,-2.426 3.947,-1.103 2.061,-0.282 0,0 Z m 157.268,-299.442 -317.495,0.198 -2.859,0.584 -2.731,0.953 -2.575,1.306 -2.393,1.642 -2.183,1.963 -1.944,2.267 -1.679,2.554 -1.424,2.932 -1.01,3.058 -0.597,3.14 -0.185,3.18 0.228,3.176 0.64,3.129 1.051,3.04 160.419,271.802 1.944,2.21 2.173,1.914 2.375,1.602 2.551,1.273 2.697,0.93 2.818,0.569 2.911,0.193 2.911,-0.193 2.818,-0.569 2.698,-0.93 2.55,-1.273 2.375,-1.602 2.174,-1.914 1.944,-2.21 160.418,-271.802 1.052,-3.04 0.639,-3.13 0.228,-3.176 -0.185,-3.18 -0.597,-3.14 -1.01,-3.057 -1.424,-2.933 -1.679,-2.554 -1.944,-2.266 -2.183,-1.963 -2.393,-1.642 -2.575,-1.306 -2.731,-0.953 -2.859,-0.584 -2.959,-0.198 z" />
          </g>
          <g
             transform="translate(36.7624,581.1033)"
             id="g4386"
             style="fill:#ffffff;fill-opacity:1;stroke:none">
            <path
               inkscape:connector-curvature="0"
               id="path4388"
               style="fill:#ffffff;fill-opacity:1;stroke:none;stroke-width:1;stroke-linecap:butt;stroke-linejoin:miter;stroke-miterlimit:10;stroke-dasharray:none;stroke-opacity:1"
               d="m 0,0 -2.282,-0.231 -2.127,-0.661 -1.926,-1.047 -1.679,-1.386 -1.386,-1.679 -1.046,-1.925 -0.662,-2.128 -0.231,-2.282 0,-532.913 0.231,-2.282 0.662,-2.127 1.046,-1.926 1.386,-1.679 1.679,-1.386 1.926,-1.046 2.127,-0.662 2.282,-0.231 532.913,0 2.282,0.231 2.127,0.662 1.926,1.046 1.679,1.386 1.386,1.679 1.046,1.926 0.662,2.127 0.231,2.282 0,532.913 -0.231,2.282 -0.662,2.128 -1.046,1.925 -1.386,1.679 -1.679,1.386 -1.926,1.047 -2.127,0.661 L 532.913,0 0,0 Z m 532.913,-561.261 -534.65,0.088 -1.686,0.258 -1.629,0.42 -1.562,0.573 -1.486,0.717 -1.403,0.853 -1.309,0.98 -1.209,1.099 -1.098,1.208 -0.98,1.31 -0.853,1.402 -0.717,1.487 -0.573,1.562 -0.42,1.628 -0.258,1.687 0,536.387 0.258,1.687 0.42,1.628 0.573,1.562 0.717,1.487 0.853,1.402 0.98,1.31 1.098,1.208 1.209,1.098 1.309,0.98 1.403,0.853 1.486,0.717 1.562,0.573 1.629,0.42 1.686,0.258 536.387,0 1.687,-0.258 1.628,-0.42 1.562,-0.573 1.487,-0.717 1.402,-0.853 1.31,-0.98 1.209,-1.098 1.098,-1.208 0.98,-1.31 0.853,-1.402 0.717,-1.487 0.573,-1.562 0.42,-1.628 0.258,-1.687 0,-536.387 -0.258,-1.687 -0.42,-1.628 -0.573,-1.562 -0.717,-1.487 -0.853,-1.402 -0.98,-1.31 -1.098,-1.208 -1.209,-1.099 -1.31,-0.98 -1.402,-0.853 -1.487,-0.717 -1.562,-0.573 -1.628,-0.42 -1.687,-0.258 -1.737,-0.088 z" />
          </g>
        </g>
      </g>
    </g>
  </g>
  <g
     inkscape:groupmode="layer"
     id="layer3"
     inkscape:label="Body color">
    <path
       style="fill:#000000"
       d=""
       id="path4548"
       inkscape:connector-curvature="0" />
    <path
       style="fill:#000000"
       d=""
       id="path4546"
       inkscape:connector-curvature="0" />
    <path
       style="fill:#e5cb8a;fill-opacity:1"
       d="m 318.5971,638.35137 c -2.06951,-5.39306 3.75939,-26.12543 11.66427,-41.48774 8.03073,-15.60688 9.90485,-24.36877 11.17531,-52.24691 1.24653,-27.35249 0.99787,-35.06354 -1.41085,-43.75 -0.95318,-3.4375 -3.46647,-12.90609 -5.58506,-21.04131 -2.11858,-8.13522 -5.73177,-18.66621 -8.02928,-23.40221 -2.29753,-4.736 -5.4822,-13.12679 -7.07705,-18.64619 -1.59487,-5.51942 -3.27599,-10.03529 -3.73583,-10.03529 -0.45985,0 -4.43306,3.26232 -8.82938,7.24961 -17.73242,16.08269 -36.31433,28.89133 -45.49327,31.35885 -3.74559,1.0069 -7.66561,4.04603 -15.625,12.11379 -5.84375,5.92331 -13.03538,12.44335 -15.98139,14.48896 -6.97999,4.84665 -36.72477,18.39236 -51.66304,23.52723 -6.45181,2.21773 -17.91807,6.6013 -25.48057,9.74125 -11.93669,4.9561 -14.73907,6.71371 -21.25,13.32763 -4.47823,4.54908 -9.08694,10.88198 -11.43875,15.71817 -7.84272,16.12756 -19.70208,32.35893 -29.803436,40.7907 -11.149849,9.30695 -14.933109,10.10037 -20.164609,4.22891 -2.60323,-2.92169 -3.77703,-3.45019 -5.55246,-2.5 -3.19932,1.71221 -10.63132,1.49257 -12.0997,-0.3576 -0.68203,-0.85938 -1.6116,-3.62631 -2.0657,-6.14874 -0.62453,-3.46917 -1.88208,-5.20956 -5.16298,-7.14535 -7.48691,-4.41739 -6.40503,-7.20281 10.28252,-26.4733 9.03749,-10.43632 20.37993,-28.65354 20.38005,-32.73261 1.2e-4,-3.7623 -4.43041,-6.87458 -11.09035,-7.79055 -8.72739,-1.20033 -12.65958,-4.48801 -12.65958,-10.58462 0,-2.66856 0.80988,-5.42835 1.84511,-6.28752 2.08243,-1.72826 9.65213,-1.16441 17.69276,1.3179 4.63388,1.43058 5.81029,1.31538 11.48172,-1.12441 8.038249,-3.45796 17.123765,-3.49703 27.131265,-0.11663 10.66493,3.60243 14.06149,2.39783 33.72414,-11.96033 8.9375,-6.52639 20.75,-15.08403 26.25,-19.01696 5.5,-3.93294 13.23466,-9.82078 17.18812,-13.08409 5.73836,-4.73659 9.64625,-6.69183 19.3757,-9.69423 6.70315,-2.06851 14.7185,-5.37772 17.81187,-7.35378 3.09337,-1.97608 12.86361,-10.66182 21.71166,-19.30164 11.88777,-11.60804 19.03027,-17.45079 27.3609,-22.38194 6.20045,-3.67024 12.1799,-8.07616 13.28765,-9.79095 3.97201,-6.14859 19.05209,-19.82936 27.45192,-24.90462 5.88197,-3.55393 11.06163,-5.59536 16.56057,-6.52691 4.40089,-0.74552 10.25161,-2.60391 13.00161,-4.12973 2.75,-1.52584 7.78019,-3.80313 11.17819,-5.06065 3.398,-1.25753 7.3355,-3.53371 8.75,-5.0582 2.51891,-2.71478 3.12466,-2.76607 29.44681,-2.49318 14.78125,0.15325 29.125,0.85158 31.875,1.55185 10.01806,2.55102 19.5161,6.89509 26.55377,12.14478 3.95793,2.95237 12.67074,7.98076 19.36181,11.1742 6.87024,3.27896 13.77096,7.56986 15.85379,9.858 9.81364,10.78092 14.74013,17.02657 16.18854,20.52337 0.87259,2.10662 6.26396,7.79238 11.98084,12.63503 6.03286,5.11033 15.04491,14.72796 21.47778,22.92102 19.67116,25.05369 25.5476,30.25811 37.92693,33.58966 12.96385,3.48888 35.46029,16.86936 55.03154,32.73178 13.9956,11.34339 14.53996,11.6478 20.625,11.53398 9.14047,-0.17098 29.63955,-3.92448 37.50531,-6.86743 3.75231,-1.40392 8.66115,-2.37552 10.90854,-2.15913 3.59355,0.34603 4.13319,0.88071 4.4763,4.43514 0.41501,4.29936 -1.13256,6.30543 -10.18249,13.19912 -6.3608,4.84526 -6.21135,9.14786 0.61085,17.58573 5.75273,7.11515 15.69344,16.93141 22.10153,21.82486 4.48692,3.42638 4.64315,4.97923 1.84587,18.34862 -1.04426,4.99098 -1.05852,5.00112 -7.90603,5.625 -5.81822,0.5301 -6.85988,1.00462 -6.85988,3.125 0,3.17715 -3.5298,3.73721 -12.20426,1.9364 -5.23569,-1.08693 -8.18345,-2.80163 -14.52041,-8.44641 -13.63839,-12.14869 -30.73077,-31.95099 -32.40664,-37.54458 -1.50646,-5.02808 -1.5889,-5.08195 -14.94175,-9.76296 -7.38481,-2.58889 -18.48944,-6.61687 -24.67694,-8.9511 -6.1875,-2.33424 -15.32256,-5.61185 -20.30014,-7.28358 -14.40047,-4.83646 -47.60482,-22.50226 -54.38727,-28.93584 -2.23443,-2.11948 -9.38017,-7.11597 -15.87941,-11.10332 -6.49927,-3.98734 -13.81177,-9.02693 -16.25,-11.19909 -2.43826,-2.17216 -8.65193,-7.06962 -13.80818,-10.88325 -5.15625,-3.81362 -11.31348,-8.96279 -13.68271,-11.44259 -6.53221,-6.83705 -8.07327,-6.12677 -7.01434,3.23294 0.48174,4.25791 1.6712,10.02354 2.64328,12.8125 2.51138,7.20545 2.27596,8.62659 -1.94623,11.74819 -4.29929,3.1786 -4.81417,7.0139 -1.73976,12.95916 1.86406,3.60471 1.84653,4.36895 -0.24105,10.51053 l -2.25128,6.62316 5.78213,12.2399 c 3.18017,6.73195 6.87976,16.1774 8.2213,20.9899 1.34155,4.8125 4.59018,13.8125 7.2192,20 5.78035,13.60432 6.78833,24.46381 3.75226,40.42469 -3.05306,16.05021 -9.97291,28.28132 -21.47166,37.95203 -5.05299,4.24969 -9.46973,8.4628 -9.81497,9.36249 -0.50626,1.31928 -13.46154,1.63579 -66.95617,1.63579 -58.04494,0 -66.41905,-0.23608 -67.05386,-1.89035 z"
       id="path4615"
       inkscape:connector-curvature="0" />
  </g>
  <g
     inkscape:groupmode="layer"
     id="layer4"
     inkscape:label="Head color">
    <path
       style="fill:#d7ba8e;fill-opacity:1"
       d="m 417.71309,343.85621 c -1.9873,-0.86169 -9.85729,-1.1533 -21.61695,-0.80099 -11.76317,0.3524 -20.86008,0.0151 -25,-0.92684 l -6.50805,-1.48082 0.42396,-17.39043 c 0.3759,-15.41918 0.117,-18.20713 -2.28397,-24.5957 -1.98716,-5.28746 -3.70025,-7.71843 -6.43613,-9.13321 -7.01042,-3.62524 -13.4899,-10.56099 -14.93217,-15.98369 -0.75743,-2.8478 -2.65038,-6.86531 -4.20655,-8.92781 -6.16648,-8.1728 -8.25908,-14.00784 -7.95854,-22.19175 0.27141,-7.39047 -0.0258,-8.29021 -5.55415,-16.81602 -12.00503,-18.51401 -16.86365,-30.46609 -20.38573,-50.14818 -2.59468,-14.49977 -1.9782,-22.40032 2.5285,-32.40339 4.83372,-10.72891 11.44187,-16.54141 23.04868,-20.2735 8.9022,-2.86244 9.73696,-2.91372 23.71499,-1.45668 11.29377,1.17724 17.49928,2.61827 28.14631,6.53606 17.00437,6.25711 23.2698,9.41562 23.2698,11.73069 0,1.0773 2.13546,2.33617 5.3125,3.13174 9.24786,2.31581 13.49514,4.80832 14.8587,8.71983 1.04969,3.01115 2.48041,4.02627 7.89194,5.59944 7.51651,2.18511 8.76461,3.32631 10.33163,9.44676 0.82999,3.24172 2.25465,4.91519 5.49986,6.46035 9.1957,4.37843 9.52841,8.51744 1.10396,13.73327 -21.53224,13.33126 -21.8891,13.40185 -29.58245,5.85139 -4.61196,-4.52629 -6.17696,-5.27742 -12.00208,-5.76048 -5.71276,-0.47375 -7.88255,0.0415 -14.74381,3.50106 -9.16435,4.62083 -20.78444,12.28358 -23.90829,15.76607 -2.9536,3.2927 -5.33311,13.00253 -4.24695,17.33012 1.34689,5.36647 8.07887,10.95562 16.17693,13.43072 9.0803,2.77533 8.65077,2.79561 22.57196,-1.06635 14.10861,-3.91396 19.65908,-7.98953 23.88045,-17.5348 2.85711,-6.46044 3.15033,-6.71135 7.84284,-6.71135 7.62195,0 18.07232,4.06478 24.76815,9.63383 3.36581,2.79941 7.38588,5.47135 8.93349,5.93766 3.74916,1.12965 5.31462,4.37149 6.64403,13.75882 1.83925,12.98749 5.0848,18.69608 17.46119,30.71245 6.16327,5.984 11.20595,11.5531 11.20595,12.3758 0,0.82269 -0.58229,2.58382 -1.29397,3.91362 -1.64868,3.08056 -10.37328,3.2728 -19.91631,0.43882 -8.55507,-2.54059 -14.38007,-1.52722 -17.10033,2.97491 -1.12294,1.8585 -4.49447,5.62909 -7.49228,8.37909 -4.33426,3.97596 -5.83829,6.50006 -7.34359,12.32428 -1.74405,6.74792 -8.63638,18.17663 -17.31215,28.70653 -3.29455,3.99864 -10.56322,5.47558 -15.79137,3.20868 z"
       id="path4737"
       inkscape:connector-curvature="0" />
  </g>
  <g
     inkscape:groupmode="layer"
     id="layer6"
     inkscape:label="Glasses front colour">
    <path
       style="fill:#a5c4a4;fill-opacity:1"
       d="m 398.28925,231.30665 c -8.6927,-4.84795 -11.0163,-6.99781 -14.10561,-13.05093 -4.67304,-9.15625 -0.38276,-24.02034 8.52148,-29.52346 10.24988,-6.33478 21.62168,-4.04035 30.9054,6.23561 4.39392,4.86355 4.60223,5.49645 4.60223,13.98283 0,10.49796 -2.90292,16.83379 -9.90802,21.62492 -7.25245,4.96032 -12.11374,5.13787 -20.01548,0.73103 z m 60.02287,-8.43936 c -2.48247,-2.57812 -6.61412,-6.263 -9.18147,-8.18861 -4.58435,-3.43845 -4.66741,-3.65099 -4.64045,-11.875 0.0379,-11.5452 2.96682,-17.71474 9.8927,-20.83788 4.64137,-2.09296 6.12322,-2.20824 12.14614,-0.94492 9.94114,2.08517 14.48338,5.40441 19.00504,13.88791 4.63686,8.69964 5.0773,15.49411 1.46355,22.57765 -3.91369,7.67144 -7.87673,10.06835 -16.64699,10.06835 -7.05979,0 -7.804,-0.28978 -12.03852,-4.6875 z"
       id="path4873"
       inkscape:connector-curvature="0" />
  </g>
  <g
     inkscape:groupmode="layer"
     id="layer7"
     inkscape:label="Glasses side colour">
    <path
       style="fill:#84b3a3;fill-opacity:1"
       d="m 379.54881,238.80964 c -2.99505,-1.05865 -7.91693,-4.29282 -10.9375,-7.18704 -4.88349,-4.6792 -5.48891,-5.87453 -5.4645,-10.78898 0.0445,-8.95337 3.68587,-15.18486 12.28619,-21.02522 11.68843,-7.93747 13.85256,-6.70581 10.46068,5.95344 l -2.03931,7.61117 3.74316,5.32588 c 2.05874,2.92923 6.53399,7.43518 9.945,10.01322 7.37923,5.57723 7.85108,8.27648 1.82683,10.45061 -5.86386,2.11626 -13.20449,1.9855 -19.82055,-0.35308 z m 57.32055,-25.9131 c -7.92964,-1.88858 -8.75139,-2.69735 -8.73906,-8.60097 0.01,-5.01094 0.32731,-5.44254 7.28747,-9.92622 4.00209,-2.57813 8.57363,-4.6875 10.15896,-4.6875 2.70995,0 2.83487,0.34703 2.08753,5.79946 -0.43719,3.1897 -0.7949,8.23241 -0.7949,11.20602 0,6.72941 -2.1668,8.07482 -10,6.20921 z"
       id="path4941"
       inkscape:connector-curvature="0" />
  </g>
  <g
     inkscape:label="Body outline"
     inkscape:groupmode="layer"
     id="layer1"
     transform="translate(0,-294.09449)"
     style="display:inline">
    <path
       style="fill:#000000"
       d="m 316.26284,924.38265 c 0.82947,-8.92478 7.65766,-28.66812 12.10684,-35.00625 3.71836,-5.29703 7.523,-17.6136 8.09453,-26.20399 2.72168,-40.90801 3.20695,-55.01155 2.10753,-61.25 -2.50239,-14.19921 -10.5668,-42.18845 -14.58635,-50.625 -4.7796,-10.0318 -8.18048,-19.63308 -8.18048,-23.09491 0,-4.39508 -2.69447,-4.10838 -7.9291,0.8437 -17.51456,16.56919 -41.15122,32.87621 -47.65331,32.87621 -1.05354,0 -8.24411,5.93531 -15.97906,13.18958 -12.37544,11.60638 -15.71398,13.98962 -27.81353,19.85483 -18.98686,9.20384 -28.98828,13.39012 -45,18.83556 -7.5625,2.57194 -19.0399,7.27923 -25.50533,10.46064 -10.00913,4.92515 -12.64225,6.89848 -17.72609,13.28439 -3.28391,4.125 -8.30614,12 -11.16049,17.5 -6.54406,12.60961 -16.86061,26.20288 -26.715258,35.20045 -11.978839,10.93702 -17.191129,12.20301 -22.064409,5.35914 -2.36522,-3.32166 -2.68551,-3.41539 -5.91453,-1.73091 -7.86204,4.10138 -14.03889,0.65572 -14.03889,-7.83141 0,-3.46998 -0.71587,-4.43667 -4.84583,-6.54362 -2.66521,-1.35969 -5.14535,-3.25269 -5.51142,-4.20666 -1.0702,-2.78889 3.2885,-11.06584 8.90657,-16.91313 8.57816,-8.92813 13.69201,-15.62944 20.23621,-26.51797 8.23401,-13.70012 8.07568,-18.65589 -0.59803,-18.71834 -5.10339,-0.0367 -13.91077,-4.1527 -15.58664,-7.2841 -2.37321,-4.43438 -1.65667,-11.08249 1.42727,-13.24257 3.62054,-2.53592 6.72713,-2.40193 12.84687,0.55412 6.42935,3.1056 10.78753,3.1056 16.874999,0 5.89502,-3.00741 13.23475,-3.16317 22.499998,-0.4775 15.52184,4.49925 17.86282,3.7334 40.625,-13.29048 7.5625,-5.65599 17.83032,-13.04688 22.81735,-16.42419 4.98705,-3.37731 11.88369,-8.64185 15.32587,-11.69901 7.69845,-6.83731 11.04927,-8.60668 22.09706,-11.66818 13.79776,-3.82356 18.59042,-6.99987 35.92991,-23.81238 18.53426,-17.97096 22.98935,-21.60863 34.56323,-28.22163 5.25851,-3.00458 9.01697,-6.15934 10.40202,-8.73122 2.31815,-4.30455 12.40299,-13.65999 22.6217,-20.98556 7.50479,-5.38001 17.95781,-9.69195 23.47664,-9.68425 2.20892,0.002 8.23497,-2.01939 13.39122,-4.49438 5.15625,-2.47498 10.78125,-5.17535 12.5,-6.0008 2.74054,-1.31618 3.1401,-2.33955 3.24777,-8.31812 0.0675,-3.74951 0.53268,-11.8798 1.03368,-18.0673 1.17744,-14.54164 -1.56187,-23.89225 -7.89206,-26.93942 -6.467,-3.11306 -13.73535,-10.98819 -15.3741,-16.65763 -0.81921,-2.83413 -2.87631,-6.84045 -4.57134,-8.90295 -6.45817,-7.85826 -10.80445,-20.5776 -7.68936,-22.50284 2.62293,-1.62105 -0.10887,-7.99005 -10.30152,-24.01727 -6.9716,-10.96235 -12.01973,-23.99039 -14.80632,-38.21171 -3.08337,-15.73598 -3.02455,-23.54873 0.2503,-33.24608 3.87048,-11.46114 9.00837,-17.49568 19.10663,-22.44107 15.71327,-7.69523 33.15799,-6.86309 60.12132,2.86787 16.91065,6.10299 21.43924,8.36726 24.05562,12.02767 0.85557,1.19699 3.82822,2.56031 6.60587,3.02959 5.77191,0.97516 12.46351,6.00244 12.46351,9.36362 0,1.66146 1.86434,2.85894 6.9333,4.45333 7.49739,2.35822 11.8167,6.51659 11.8167,11.3764 0,2.05755 0.99924,3.36728 3.21042,4.20797 5.60907,2.13256 12.12598,7.73707 10.30518,8.86239 -1.00596,0.62172 -2.79891,-0.0852 -4.75295,-1.87393 -1.72571,-1.57974 -4.92501,-3.57581 -7.10956,-4.43572 -3.22586,-1.2698 -4.12467,-2.46767 -4.78521,-6.37739 -0.99996,-5.91873 -1.90525,-6.68926 -10.93038,-9.30338 -6.18158,-1.79049 -7.1875,-2.50275 -7.1875,-5.08933 0,-3.93293 -4.48233,-6.80168 -13.5037,-8.64253 -5.47147,-1.11648 -7.03907,-1.92939 -6.76641,-3.50884 0.4465,-2.58636 -2.71194,-4.22113 -21.77047,-11.26816 -17.73402,-6.55728 -36.49803,-9.49756 -45.71203,-7.16298 -17.22241,4.36369 -24.50699,11.02201 -30.3203,27.71366 -2.53709,7.28468 -2.36941,11.57317 1.13115,28.93034 3.313,16.4271 7.97324,27.43514 19.04161,44.97859 6.77737,10.74216 6.90932,11.1261 6.0866,17.71087 -0.91456,7.31985 0.85037,12.17478 8.02788,22.08306 1.92784,2.66131 3.85539,6.70554 4.28342,8.98721 0.85422,4.5533 6.41219,10.5422 13.25225,14.2797 7.97232,4.35617 9.375,9.25572 9.375,32.7465 0,11.29564 -0.5625,21.61516 -1.25,22.93226 -0.68776,1.31761 -5.23867,3.93439 -10.11791,5.81779 -4.87735,1.88269 -10.20562,4.36004 -11.84062,5.50524 -1.635,1.1452 -4.13564,2.08217 -5.55698,2.08217 -5.74544,0 -17.10879,3.93951 -23.96415,8.30804 -8.35446,5.3238 -22.37111,18.32116 -24.78969,22.98697 -0.93308,1.80009 -6.51997,6.05673 -12.92798,9.84983 -8.30283,4.91469 -16.01054,11.2072 -29.16873,23.81307 -19.33829,18.52658 -24.52521,22.37407 -34.13394,25.3195 -3.4375,1.05372 -8.77973,2.68332 -11.87165,3.62133 -3.33535,1.01186 -9.1816,4.69415 -14.375,9.05415 -4.81433,4.04177 -12.12835,9.6429 -16.25335,12.44694 -4.125,2.80403 -13.6875,9.66625 -21.25,15.24937 -25.15141,18.56836 -26.91532,19.15275 -43.75,14.49453 -10.901978,-3.01663 -14.404398,-2.81274 -22.977888,1.33761 -5.815759,2.81536 -8.272389,2.61004 -18.364159,-1.53496 -5.43503,-2.23234 -10.53295,-0.73184 -10.53295,3.1002 0,6.81542 3.59827,9.72074 13.89263,11.21722 3.77254,0.54841 6.7804,1.91647 8.69545,3.95496 2.60617,2.77414 2.76717,3.54214 1.46552,6.9906 -3.12609,8.28196 -12.21272,22.43164 -20.4406,31.83005 -15.61779,17.83963 -17.31079,21.61082 -10.8282,24.11999 2.43224,0.94144 3.87859,0.0842 10.06943,-5.96753 3.97608,-3.88678 9.48558,-10.86374 12.24332,-15.50437 4.53821,-7.6367 7.40245,-10.43905 7.40245,-7.24251 0,2.71911 -8.27833,14.92576 -15.89046,23.43099 -8.07097,9.01788 -8.13878,9.15477 -7.3015,14.73822 0.81746,5.45116 0.98901,5.6358 5.23635,5.6358 3.63258,0 5.67725,-1.22669 11.83532,-7.10049 4.42762,-4.22322 9.51415,-10.85046 12.552539,-16.35466 3.16017,-5.72483 5.5531,-8.8095 6.27439,-8.08821 1.69266,1.69265 -5.71619,14.65022 -12.911649,22.5816 -3.32475,3.66477 -6.04499,7.07434 -6.04499,7.5768 0,0.50245 1.18881,2.18958 2.64179,3.74918 2.0002,2.14697 3.44219,2.63703 5.9375,2.01791 8.797199,-2.18274 28.680267,-25.14531 38.613957,-44.59452 7.99787,-15.65905 15.84448,-23.81907 29.29227,-30.46226 6.11533,-3.02096 18.8297,-8.13681 28.25413,-11.36855 9.42444,-3.23174 23.52124,-8.87535 31.32623,-12.54135 7.80497,-3.666 14.55497,-6.66786 15,-6.6708 2.41354,-0.016 13.34004,-8.78331 24.0497,-19.29732 7.12425,-6.9941 13.19801,-11.94733 14.6501,-11.94733 6.27401,0 26.997,-13.73867 43.89269,-29.09942 5.12668,-4.66094 11.74348,-10.00469 14.70401,-11.875 2.96052,-1.87033 5.20177,-3.94688 4.98054,-4.61458 -0.22124,-0.66769 -2.72514,-2.35519 -5.56424,-3.75 -2.8391,-1.3948 -5.18825,-3.23912 -5.22034,-4.0985 -0.0869,-2.32812 1.35841,-1.93907 7.67264,2.06529 8.14037,5.16247 8.47607,6.25049 3.23689,10.49091 l -4.4828,3.62824 2.89385,10.51824 c 1.59162,5.78502 4.03796,12.45735 5.43632,14.82738 2.99591,5.07772 7.25621,18.1094 12.58698,38.50195 4.37403,16.73268 4.75677,26.12754 2.549,62.56905 -1.38908,22.92797 -3.16272,30.19487 -10.7375,43.99339 -5.0783,9.25083 -9.92109,23.81129 -11.11063,33.40555 -1.31565,10.61133 -3.64894,9.19803 -2.64516,-1.60226 z m 57.2061,4.04379 c -11.85831,-10.05173 -20.16403,-18.21543 -20.16403,-19.8193 0,-3.02858 2.15908,-1.78343 7.04497,4.06288 2.64187,3.16119 6.21565,6.49655 7.94172,7.41191 1.72608,0.91537 5.95081,4.20998 9.38831,7.32138 4.86608,4.40443 5.69643,5.65653 3.75,5.65453 -1.375,-0.001 -4.95743,-2.0855 -7.96097,-4.6314 z m 67.33597,3.5198 c 0,-1.3861 5.99385,-3.1966 7.05839,-2.1321 0.38058,0.3806 0.32118,1.2919 -0.13199,2.0251 -1.03447,1.6738 -6.9264,1.7648 -6.9264,0.107 z m 19.63129,-9.73599 c 9.09883,-8.62955 12.30743,-12.63573 15.3353,-19.14729 4.76636,-10.25025 7.48343,-22.76474 7.51171,-34.59806 0.0194,-8.12722 -0.68558,-10.82248 -6.70278,-25.625 -3.69847,-9.09838 -7.09975,-18.65614 -7.55843,-21.2395 -0.45866,-2.58335 -3.3389,-10.05802 -6.40051,-16.61035 -6.17699,-13.21974 -6.30578,-13.9665 -3.69904,-21.44854 1.5911,-4.56689 1.5971,-5.71395 0.0457,-8.75 -0.982,-1.92175 -2.0778,-4.47848 -2.43511,-5.6816 -0.45594,-1.53502 -1.93588,-2.1875 -4.96171,-2.1875 -5.36458,0 -8.26647,-1.06226 -8.26647,-3.026 0,-1.06278 2.12384,-1.35654 7.1875,-0.99415 5.97172,0.42736 7.76897,0.0555 10.625,-2.19846 3.89972,-3.07762 4.2038,-4.92368 1.63069,-9.89953 -2.2904,-4.42915 -4.6954,-22.03286 -4.45737,-32.6264 0.20297,-9.03337 2.19843,-12.50546 7.18708,-12.50546 3.6738,0 3.20653,2.94724 -0.55561,3.50443 -1.87659,0.27793 -2.76626,1.61545 -3.32584,5 -1.58461,9.58433 -1.20576,10.45475 8.29355,19.05451 4.972,4.50116 11.29,9.8318 14.04,11.84586 2.75,2.01405 7.8125,5.99029 11.25,8.83606 3.4375,2.84579 12.15625,8.86523 19.375,13.37654 7.21875,4.51131 14.77712,9.93044 16.79637,12.0425 2.01925,2.11205 4.19801,3.8401 4.8417,3.8401 0.64368,0 5.17907,2.4243 10.07863,5.38733 9.37705,5.6708 27.99602,14.85625 33.28633,16.42141 2.84312,0.84115 50.93802,17.90456 59.05406,20.95157 2.50608,0.94085 3.84278,2.68157 4.95424,6.4516 2.21464,7.512 22.21302,30.06995 36.61367,41.2998 3.92843,3.06347 20.24178,7.36963 21.31855,5.62737 0.34304,-0.55504 -1.93687,-2.86652 -5.06646,-5.13662 -18.5062,-13.42381 -21.50209,-16.0613 -21.37815,-18.82067 0.0967,-2.15453 5.00538,-12.0769 7.81175,-15.79085 0.20118,-0.26623 1.92919,1.16067 3.84004,3.1709 4.02285,4.23205 27.02716,20.43816 29.01165,20.43816 0.7357,0 1.33762,-0.5165 1.33762,-1.14776 0,-0.63128 0.34312,-2.04191 0.76249,-3.13476 0.53295,-1.38888 -2.34145,-4.9002 -9.54889,-11.66474 -14.36647,-13.48365 -23.7136,-24.7484 -23.7136,-28.57859 0,-1.84973 1.40838,-4.37645 3.4375,-6.1671 10.05898,-8.87681 14.0625,-12.8999 14.0625,-14.13117 0,-0.75254 -1.35276,-2.25462 -3.00613,-3.33794 -2.80718,-1.83934 -3.5311,-1.74798 -10.9375,1.38022 -4.73969,2.00189 -11.20097,3.58249 -16.05637,3.92782 -4.46875,0.31783 -10.50547,1.44381 -13.41493,2.50216 -3.24192,1.17927 -7.6189,1.70049 -11.30553,1.34625 -5.33084,-0.51223 -7.361,-1.70609 -17.83506,-10.4881 -17.6372,-14.78799 -49.76854,-34.21045 -56.7169,-34.28374 -8.17285,-0.0863 -20.5474,-10.65824 -35.08281,-29.97255 -3.88047,-5.15625 -13.90987,-16.12884 -22.28757,-24.38353 -8.37771,-8.25468 -16.3572,-16.78575 -17.7322,-18.95792 -9.80888,-15.49572 -17.01518,-21.78085 -32.11008,-28.0055 -4.89854,-2.01999 -11.25013,-5.5932 -14.11467,-7.94046 -6.89817,-5.65254 -20.36967,-12.17784 -21.46898,-10.39912 -0.45662,0.73882 -1.17678,3.03786 -1.60037,5.10896 -0.99326,4.85648 -3.8309,5.94872 -3.8309,1.47456 0,-4.08264 1.41759,-6.81268 6.3035,-12.13946 5.699,-6.21324 15.46083,-21.04223 17.179,-26.09628 0.83463,-2.45506 1.5175,-5.91904 1.5175,-7.69771 0,-2.4656 1.31799,-4.0678 5.54722,-6.74342 4.66435,-2.95088 9.21932,-8.63131 7.93708,-9.89818 -0.19761,-0.19525 -2.66165,0.067 -5.47563,0.58282 -3.25902,0.59737 -7.34299,0.32761 -11.25,-0.74307 -3.37352,-0.9245 -11.75867,-2.72962 -18.63367,-4.01137 -12.45637,-2.32233 -20.9987,-5.22117 -22.4883,-7.63138 -1.12015,-1.81247 2.29402,-1.56706 7.7755,0.55886 2.59204,1.00529 9.7753,2.71373 15.9628,3.79655 6.1875,1.08281 13.67324,2.85053 16.63498,3.92826 3.83774,1.3965 7.07014,1.69288 11.25,1.0315 3.22576,-0.5104 7.27127,-1.04084 8.99002,-1.17875 1.71875,-0.1379 4.262,-0.6201 5.65167,-1.07156 1.38966,-0.45145 6.45037,0.30125 11.24602,1.67269 10.77919,3.08257 16.33145,3.20226 17.90749,0.38605 1.75291,-3.13228 -0.3941,-6.59724 -7.52034,-12.13671 -7.62939,-5.93062 -15.32446,-15.44082 -17.27437,-21.34913 l -1.44519,-4.37898 -3.2378,3.8479 c -3.74976,4.45635 -3.55593,4.46717 -22.52801,-1.25638 -7.05404,-2.12808 -14.55404,-3.86924 -16.66667,-3.86924 -2.51401,0 -3.66335,-0.53985 -3.32656,-1.5625 0.92466,-2.80771 5.61703,-2.41036 19.32559,1.63645 18.96826,5.59951 19.86517,5.70156 21.60121,2.45775 1.23105,-2.30024 0.75394,-4.19646 -3.09534,-12.30194 -5.05043,-10.63477 -9.35852,-16.83398 -13.65503,-19.64916 -3.44747,-2.25887 -15.74484,-5.5806 -20.65992,-5.5806 -3.16148,0 -5.85803,-2.54804 -4.32206,-4.08402 0.31814,-0.31814 3.23251,-0.0417 6.47638,0.61422 3.24386,0.65596 7.45345,1.41378 9.35462,1.68405 9.01615,1.28172 17.83318,9.55903 24.9126,23.38765 4.74305,9.26486 6.21046,9.08561 2.88071,-0.3519 -2.23246,-6.32747 -2.2255,-6.25 -0.56121,-6.25 1.90071,0 4.95374,7.99628 6.34031,16.60612 1.61352,10.01894 4.9039,16.02698 12.64987,23.09785 11.56022,10.55269 14.69638,14.17404 14.6769,16.94753 -0.0515,7.32271 -7.23894,9.24356 -20.79712,5.55805 -8.86528,-2.40986 -9.67098,-2.44022 -13.70478,-0.51665 -2.35718,1.12406 -4.81283,3.43003 -5.45702,5.12436 -0.64418,1.69435 -3.31328,4.49816 -5.93132,6.2307 -4.04321,2.67567 -5.01039,4.22669 -6.42214,10.29898 -1.64625,7.08092 -7.68559,17.31452 -15.41005,26.11221 -2.11262,2.40615 -3.62566,4.56789 -3.36229,4.80385 0.26337,0.23597 3.59357,1.88882 7.40044,3.673 3.80688,1.78417 9.21666,5.20846 12.02175,7.60951 2.80509,2.40105 8.2099,5.52905 12.01069,6.9511 9.99419,3.73931 20.79897,11.15049 26.54597,18.20831 2.75,3.37724 5.96104,7.10814 7.13564,8.29089 1.1746,1.18275 3.25031,4.28318 4.6127,6.88983 1.36239,2.60665 8.07861,9.92913 14.92495,16.2722 6.84633,6.34305 16.24541,16.46805 20.88684,22.5 14.17874,18.4265 22.19654,25.92976 30.36572,28.41702 17.29338,5.26531 42.84972,20.32308 62.52613,36.84033 12.48396,10.4796 15.68572,11.40757 26.61937,7.71522 4.28399,-1.44672 10.63299,-2.64376 14.10887,-2.66008 3.8048,-0.0179 9.30443,-1.25917 13.81978,-3.1192 9.39407,-3.86979 11.96008,-3.87727 15.55999,-0.0454 4.75414,5.06055 1.43006,11.4297 -9.55795,18.31363 -6.68206,4.18627 -6.41965,6.30116 2.07119,16.6922 4.18796,5.12522 11.86479,13.13768 17.05962,17.8055 9.06834,8.14832 9.41385,8.66187 8.66075,12.8724 -0.43141,2.41201 -1.0971,6.78708 -1.4793,9.7224 -0.85163,6.54049 -3.56883,8.32383 -10.81695,7.09927 -4.69918,-0.79393 -5.0308,-0.68451 -3.50336,1.15594 1.407,1.69534 1.41033,2.36639 0.02,4.04157 -1.89477,2.28308 -7.4663,1.87553 -18.1263,-1.32591 -5.43456,-1.63211 -8.65982,-4.17847 -22.11897,-17.46299 -17.24119,-17.01748 -23.39372,-24.6127 -23.39372,-28.87925 0,-3.16286 -1.73557,-4.88185 -6.25,-6.19025 -13.33496,-3.86481 -66.46791,-24.05856 -75,-28.50455 -20.83948,-10.85926 -28.15445,-15.16835 -30.25147,-17.82049 -1.16956,-1.47917 -7.96091,-6.37368 -15.09186,-10.8767 -12.19853,-7.70303 -32.83039,-23.24987 -46.24827,-34.84966 l -5.96658,-5.15813 0.8189,7.34213 c 0.45038,4.03818 1.58848,9.23896 2.52908,11.55729 2.75354,6.7867 2.18955,10.45986 -2.0398,13.28485 -4.29558,2.86923 -4.75213,6.17627 -1.60876,11.65329 2.02185,3.52286 2.02165,4.11024 -0.004,10.53461 l -2.14469,6.80373 6.11055,13.00418 c 3.36082,7.1523 6.49914,15.35685 6.97408,18.23233 0.47494,2.87549 3.6308,11.75801 7.01302,19.73896 3.38223,7.98095 6.48243,17.44079 6.88933,21.02186 1.17202,10.31489 -2.32389,28.21894 -7.78036,39.84649 -4.01549,8.55686 -6.32152,11.53928 -15.39873,19.9154 -5.87179,5.4183 -11.51974,9.8454 -12.55099,9.8381 -1.03125,-0.01 3.30283,-4.92405 9.63129,-10.92611 z m 254.74371,-52.14798 c 0,-1.7634 -4.53203,-5.6616 -15.60501,-13.42251 l -15.605,-10.93739 -3.145,4.01857 c -1.72974,2.2102 -3.14499,4.59408 -3.14499,5.29751 0,2.11511 20.23394,16.68347 24.00138,17.28092 1.92425,0.30514 5.74862,0.48579 8.49862,0.40143 4.10527,-0.12594 5,-0.5981 5,-2.63853 z m -280.45315,5.93124 c -1.59408,-2.97858 0.17125,-5.93659 2.91467,-4.88384 1.27418,0.48895 1.93276,1.86244 1.68866,3.52174 -0.52441,3.5647 -3.02806,4.30552 -4.60333,1.3621 z M 80.453113,853.07183 c -2.56928,-2.11781 -4.34635,-4.37654 -3.94904,-5.01941 0.9066,-1.46691 10.487909,5.18592 10.524149,7.30749 0.0414,2.42611 -1.51166,1.88565 -6.575109,-2.28808 z M 92.501342,840.0328 c -1.49737,-3.90209 4.41093,-17.4197 6.63969,-15.19094 0.47407,0.47406 -0.0826,2.84271 -1.23709,5.26365 -1.15446,2.42095 -2.09903,5.75569 -2.09903,7.41054 0,3.65927 -2.21702,5.34826 -3.30357,2.51675 z m 571.898948,-9.26663 c -0.73696,-2.11407 -1.84741,-3.84376 -2.46766,-3.84376 -0.62024,0 -1.12772,-0.84375 -1.12772,-1.875 0,-4.07344 5.16059,-0.10875 6.778,5.2073 1.3161,4.32574 -1.68483,4.808 -3.18262,0.51146 z M 354.86741,793.37305 c -5.5395,-2.08395 -7.77785,-6.12205 -2.5,-4.51014 6.2891,1.92076 10.9375,4.25642 10.9375,5.49571 0,1.69634 -1.89778,1.47466 -8.4375,-0.98557 z m 54.14678,1.18572 c -2.16689,-3.5061 18.44134,-11.59772 26.71235,-10.48834 7.50934,1.00722 6.76721,3.51849 -0.85733,2.90112 -3.9104,-0.31663 -16.38713,3.43015 -21.15282,6.3522 -2.28266,1.39961 -4.27679,1.92336 -4.7022,1.23502 z m -49.14678,-10.42982 c -8.39323,-3.48155 -11.44896,-5.95654 -7.35418,-5.95654 2.0368,0 14.50375,4.93457 16.72918,6.62162 1.70679,1.29387 2.12585,3.46381 0.625,3.23623 -0.51562,-0.0781 -5.01562,-1.83378 -10,-3.90131 z m -2.1875,-13.38824 c -4.41567,-1.8073 -6.54376,-5.4673 -9.19905,-15.82104 -1.42853,-5.57026 -3.15602,-11.59722 -3.83887,-13.39325 -1.24233,-3.26754 0.20949,-5.90799 1.81767,-3.30587 1.43908,2.32847 6.84525,20.19755 6.84525,22.62567 0,1.2794 1.19332,3.5195 2.65182,4.978 2.79028,2.79029 6.51615,2.83401 28.91068,0.33929 6.30359,-0.70221 7.1875,-0.53313 7.1875,1.3749 0,1.56462 -0.7064,1.99085 -2.51547,1.51776 -1.3835,-0.36179 -6.30516,0.1351 -10.93703,1.10421 -9.26863,1.93925 -17.0734,2.15574 -20.9225,0.58033 z m 3.125,-9.4433 c 0,-1.03125 0.5625,-1.875 1.25,-1.875 0.6875,0 1.25,0.84375 1.25,1.875 0,1.03125 -0.5625,1.875 -1.25,1.875 -0.6875,0 -1.25,-0.84375 -1.25,-1.875 z m 142.34893,-7.19446 c -4.55184,-3.60555 -9.89559,-7.75572 -11.875,-9.22259 -3.92893,-2.9116 -3.48215,-5.23687 0.58771,-3.05875 4.46095,2.38741 21.43836,16.33773 21.43836,17.61585 0,2.23321 -1.77426,1.30081 -10.15107,-5.33451 z m -49.04958,4.45215 c -1.40772,-1.40774 -0.85736,-2.88269 1.07565,-2.88269 1.03125,0 1.875,0.5293 1.875,1.17623 0,1.57622 -1.95198,2.70512 -2.95065,1.70646 z M 265.80491,741.58593 c 0,-0.87254 3.51563,-3.48326 7.8125,-5.80157 4.29688,-2.31831 9.6322,-5.92533 11.85628,-8.01559 2.22407,-2.09026 4.4364,-3.40785 4.91629,-2.92796 1.88576,1.88576 -4.64432,7.96413 -13.98662,13.0191 -11.14366,6.02966 -10.59845,5.83799 -10.59845,3.72602 z m 148.12284,-3.59343 c -1.19987,-3.12681 -0.0914,-29.80714 1.25216,-30.13762 1.69219,-0.41624 2.37093,29.0716 0.70745,30.73508 -0.83398,0.83399 -1.48668,0.635 -1.95961,-0.59746 z m -13.12284,-69.29923 c -1.71875,-0.9537 -4.53125,-1.74997 -6.25,-1.7695 -4.63818,-0.0526 -8.75,-1.37251 -8.75,-2.80861 0,-1.9652 14.91437,0.13895 18.27355,2.57807 5.28954,3.84077 2.79284,5.36619 -3.27355,2.00004 z m 15,-0.30557 c 0,-1.4634 7.16807,-7.71529 8.84592,-7.71529 2.58978,0 0.87826,3.28337 -2.91632,5.59465 -5.6038,3.41328 -5.9296,3.52979 -5.9296,2.12064 z m -7.47925,-22.29863 c 0.054,-2.71149 6.07933,-17.24169 7.3214,-17.65571 0.77432,-0.2581 1.37442,0.28071 1.33355,1.19739 -0.15407,3.45586 -5.61523,16.49923 -7.1132,16.98906 -0.85937,0.28101 -1.55316,0.0421 -1.54175,-0.53074 z m -11.27075,-5.6875 c 0,-2.32604 -0.6194,-4.84856 -1.37645,-5.60561 -1.81281,-1.81281 -0.20066,-9.12355 2.01192,-9.12355 1.0573,0 1.70946,1.51613 1.7475,4.0625 0.0334,2.23437 0.21398,6.25997 0.40136,8.94579 0.21297,3.05287 -0.245,5.08321 -1.22183,5.41666 -1.04721,0.35749 -1.5625,-0.86131 -1.5625,-3.69579 z m -17.99126,-0.4564 c -1.99884,-5.20887 -0.0688,-20.52276 2.58646,-20.52276 1.37245,0 1.56334,1.04889 0.8531,4.6875 -0.50323,2.57812 -0.88777,7.64062 -0.85452,11.25 0.0594,6.44711 -1.08895,8.48401 -2.58504,4.58526 z m -31.86734,-70.00191 c -1.53632,-1.95311 -2.6414,-5.17331 -2.6414,-7.69704 0,-2.87549 -1.20387,-5.87542 -3.56913,-8.89394 -4.88865,-6.23883 -6.74983,-10.0457 -5.94135,-12.15255 0.98441,-2.56532 3.26048,-2.18631 3.26048,0.54293 0,1.27614 2.02019,4.96601 4.48932,8.19971 3.00945,3.94137 4.76263,7.81209 5.31848,11.74226 0.62549,4.42254 1.51978,6.16639 3.64039,7.0987 3.07794,1.35322 3.09231,3.54624 0.0271,4.141 -1.06838,0.20732 -3.13114,-1.13417 -4.58392,-2.98107 z m 42.22615,1.04165 c -0.35943,-2.54407 0.50759,-8.67046 1.48639,-10.50282 0.60679,-1.13593 3.82998,-4.06693 7.16264,-6.51333 5.69606,-4.1813 7.10504,-6.36695 11.59322,-17.98385 1.20864,-3.12838 3.6402,-3.80964 3.6402,-1.01989 0,0.98593 -1.45297,5.14288 -3.22882,9.23767 -2.45853,5.66886 -4.6206,8.43167 -9.0625,11.58053 -7.07161,5.01304 -7.24789,5.25571 -8.21625,11.31157 -0.42459,2.65518 -1.32783,4.82762 -2.0072,4.82762 -0.67938,0 -1.29483,-0.42188 -1.36768,-0.9375 z m -29.86755,-88.29205 c 0,-2.82325 9.68722,-10.77045 13.1286,-10.77045 4.17787,0 3.96383,1.96177 -0.37921,3.47576 -1.92534,0.67118 -5.15789,2.9762 -7.18345,5.12228 -4.00835,4.24686 -5.56594,4.8548 -5.56594,2.17241 z M 319.9747,464.96339 c -0.90212,-2.35092 1.30994,-4.91458 3.2213,-3.73329 2.06038,1.27338 1.62929,5.69231 -0.55531,5.69231 -1.05284,0 -2.25253,-0.88156 -2.66599,-1.95902 z m 29.58021,-0.063 c 0,-2.62586 9.10208,-11.72794 11.72794,-11.72794 3.16713,0 2.36678,3.39246 -0.99969,4.23739 -1.66196,0.41713 -4.2391,2.72811 -5.72695,5.13551 -2.88516,4.66828 -5.0013,5.66474 -5.0013,2.35504 z m -28.14953,-19.26764 c -0.48545,-0.78547 -0.29445,-2.01631 0.42442,-2.73519 1.67988,-1.67988 5.59643,-0.21461 4.91298,1.83805 -0.69575,2.0896 -4.23297,2.68416 -5.3374,0.89714 z"
       id="path4217"
       inkscape:connector-curvature="0" />
  </g>
  <g
     inkscape:groupmode="layer"
     id="layer5"
     inkscape:label="Glasses outline">
    <path
       style="fill:#000000"
       d="m 378.33809,238.20352 c -4.83657,-1.96422 -9.15794,-4.88859 -12.16864,-8.23483 l -4.66862,-5.18896 -13.113,5.14347 c -7.21214,2.82891 -15.3551,6.31212 -18.09545,7.74048 -5.204,2.71247 -8.89868,2.81661 -9.745,0.27467 -0.52675,-1.58213 8.86079,-7.01788 10.05591,-5.82275 0.68303,0.68302 28.1314,-9.11344 29.85295,-10.65466 0.47748,-0.42746 1.20872,-2.7194 1.62499,-5.09319 1.2999,-7.41291 5.4634,-13.0939 13.54151,-18.47704 11.36725,-7.57497 25.20547,-14.08582 29.87165,-14.05453 5.49588,0.0369 13.27745,3.78852 17.76506,8.56493 2.01925,2.14919 4.17245,3.90762 4.78489,3.90762 0.61245,0 7.64327,-3.95625 15.62407,-8.79166 13.87964,-8.40941 14.75857,-8.75527 20.2151,-7.95463 12.15145,1.78298 17.92798,5.86299 23.74024,16.76789 3.43528,6.44524 4.02709,8.69725 3.50434,13.33501 -0.6527,5.7908 -4.97741,12.39869 -11.11247,16.97918 -3.79111,2.83046 -14.56356,3.29962 -16.20774,0.70588 -1.41252,-2.22828 -1.37449,-3.86208 0.0691,-2.96988 0.64015,0.39563 4.04069,0.78414 7.55674,0.86336 5.13105,0.1156 7.02189,-0.44358 9.57987,-2.83306 7.77157,-7.25963 8.83784,-16.70804 3.02857,-26.83633 -4.36939,-7.61787 -8.01923,-10.2157 -16.9989,-12.0992 -13.0439,-2.73599 -19.65459,4.02268 -19.56242,20.00028 0.0344,5.96785 -0.37905,7.83316 -1.7363,7.83316 -2.13028,0 -2.53128,-12.86508 -0.56241,-18.04363 0.67049,-1.7635 0.97434,-3.20637 0.67524,-3.20637 -0.2991,0 -4.03671,2.20851 -8.30581,4.9078 l -7.76199,4.9078 0.29594,8.16336 c 0.42415,11.69971 -4.33908,20.34542 -13.946,25.31336 -4.62841,2.39345 -23.96235,7.96567 -27.50783,7.92801 -1.53649,-0.0163 -6.16861,-1.4003 -10.29361,-3.07554 z m 23.125,-3.46322 c 1.2134,-0.33408 0.33126,-1.26649 -2.5,-2.6425 -5.90487,-2.86979 -8.83948,-5.45867 -13.53455,-11.94003 -4.41614,-6.09629 -4.85255,-9.77041 -2.09045,-17.59904 1.03125,-2.92287 1.875,-5.80013 1.875,-6.39389 0,-0.59377 -3.51542,1.32049 -7.81206,4.2539 -8.12793,5.54911 -10.74487,9.32653 -12.3073,17.76499 -0.8864,4.78731 -0.67669,5.23928 4.93,10.625 7.53735,7.24029 16.9751,10.30636 24.56436,7.98028 2.75,-0.84286 5.84375,-1.76478 6.875,-2.04871 z m 16.50029,-6.31426 c 6.40072,-4.73227 8.49971,-9.53678 8.49971,-19.45561 0,-8.85694 -0.0354,-8.95039 -5.15086,-13.60245 -7.00947,-6.37446 -9.65369,-7.71319 -15.33723,-7.76496 -11.305,-0.10296 -18.87215,7.30942 -20.3696,19.95299 -1.07309,9.06051 2.96674,15.09344 14.60769,21.8146 6.49936,3.75255 11.77695,3.4717 17.75029,-0.94457 z m -12.12585,-7.11822 c -0.80139,-1.29668 8.0314,-14.95812 9.68806,-14.98428 1.93509,-0.0306 0.80169,3.05604 -3.50431,9.54331 -4.74375,7.14674 -4.99364,7.36662 -6.18375,5.44097 z m -6.87444,-8.9944 c 0,-2.51896 6.47661,-11.00469 8.39916,-11.00469 2.17719,0 2.01623,0.41428 -2.77416,7.14006 -3.79674,5.33068 -5.625,6.58678 -5.625,3.86463 z m 66.25,-0.75101 c 0,-1.75092 9.49724,-10.33978 10.41666,-9.42035 0.4863,0.4863 -1.21016,3.029 -3.76992,5.65043 -4.50942,4.61807 -6.64674,5.83032 -6.64674,3.76992 z m -3.75,-7.17848 c 0,-1.80512 5.20424,-10.5752 6.2754,-10.5752 1.9214,0 1.43655,2.76205 -1.2617,7.1875 -2.14182,3.51285 -5.0137,5.45334 -5.0137,3.3877 z"
       id="path4805"
       inkscape:connector-curvature="0" />
  </g>
</svg>
