<?xml version="1.0" encoding="UTF-8" standalone="no"?>
<!-- Created with Inkscape (http://www.inkscape.org/) -->

<svg
   xmlns:dc="http://purl.org/dc/elements/1.1/"
   xmlns:cc="http://creativecommons.org/ns#"
   xmlns:rdf="http://www.w3.org/1999/02/22-rdf-syntax-ns#"
   xmlns:svg="http://www.w3.org/2000/svg"
   xmlns="http://www.w3.org/2000/svg"
   xmlns:sodipodi="http://sodipodi.sourceforge.net/DTD/sodipodi-0.dtd"
   xmlns:inkscape="http://www.inkscape.org/namespaces/inkscape"
   width="214mm"
   height="214mm"
   viewBox="0 0 758.26772 758.26771"
   id="svg2"
   version="1.1"
   inkscape:version="0.91 r13725"
   sodipodi:docname="farnsworth.svg">
  <defs
     id="defs4">
    <clipPath
       id="clipPath4254"
       clipPathUnits="userSpaceOnUse">
      <path
         inkscape:connector-curvature="0"
         id="path4256"
         d="m 0,634.961 606.614,0 L 606.614,0 0,0 0,634.961 Z" />
    </clipPath>
  </defs>
  <sodipodi:namedview
     id="base"
     pagecolor="#ffffff"
     bordercolor="#666666"
     borderopacity="1.0"
     inkscape:pageopacity="0.0"
     inkscape:pageshadow="2"
     inkscape:zoom="2.2633333"
     inkscape:cx="401.31737"
     inkscape:cy="275.41738"
     inkscape:document-units="px"
     inkscape:current-layer="layer5"
     showgrid="false"
     inkscape:window-width="3070"
     inkscape:window-height="1752"
     inkscape:window-x="130"
     inkscape:window-y="48"
     inkscape:window-maximized="1" />
  <metadata
     id="metadata7">
    <rdf:RDF>
      <cc:Work
         rdf:about="">
        <dc:format>image/svg+xml</dc:format>
        <dc:type
           rdf:resource="http://purl.org/dc/dcmitype/StillImage" />
        <dc:title></dc:title>
      </cc:Work>
    </rdf:RDF>
  </metadata>
  <g
     inkscape:groupmode="layer"
     id="layer2"
     inkscape:label="Background"
     transform="translate(0,-294.09449)"
     style="display:inline">
    <g
       transform="matrix(1.25,0,0,-1.25,1.0826772e-4,1052.675)"
       inkscape:label="plate_dimensions"
       id="g4248"
       style="fill:#ff0000;fill-opacity:1">
      <g
         id="g4250"
         style="fill:#ff0000;fill-opacity:1">
        <g
           clip-path="url(#clipPath4254)"
           id="g4252"
           style="fill:#ff0000;fill-opacity:1">
          <g
             transform="translate(599.5278,298.7717)"
             id="g4258"
             style="fill:#ff0000;fill-opacity:1">
            <path
               inkscape:connector-curvature="0"
               id="path4260"
               style="fill:#ff0000;fill-opacity:1;stroke:#231f20;stroke-width:1;stroke-linecap:butt;stroke-linejoin:miter;stroke-miterlimit:10;stroke-dasharray:none;stroke-opacity:1"
               d="m 0,0 c -2.505,0 -4.535,2.031 -4.535,4.535 0,2.505 2.03,4.536 4.535,4.536 2.505,0 4.535,-2.031 4.535,-4.536 C 4.535,2.031 2.505,0 0,0 Z m 0,-296.22 c -2.505,0 -4.535,2.03 -4.535,4.535 0,2.505 2.03,4.535 4.535,4.535 2.505,0 4.535,-2.03 4.535,-4.535 0,-2.505 -2.03,-4.535 -4.535,-4.535 z m 0,601.511 c 2.505,0 4.535,-2.03 4.535,-4.535 0,-2.505 -2.03,-4.536 -4.535,-4.536 -2.505,0 -4.536,2.031 -4.536,4.536 0,2.505 2.031,4.535 4.536,4.535 z M -296.221,-296.22 c -2.505,0 -4.535,2.03 -4.535,4.535 0,2.505 2.03,4.535 4.535,4.535 2.505,0 4.536,-2.03 4.536,-4.535 0,-2.505 -2.031,-4.535 -4.536,-4.535 z M -592.441,0 c -2.505,0 -4.536,2.031 -4.536,4.535 0,2.505 2.031,4.536 4.536,4.536 2.505,0 4.536,-2.031 4.536,-4.536 0,-2.504 -2.031,-4.535 -4.536,-4.535 z m 0,-296.22 c -2.505,0 -4.536,2.03 -4.536,4.535 0,2.505 2.031,4.535 4.536,4.535 2.505,0 4.536,-2.03 4.536,-4.535 0,-2.505 -2.031,-4.535 -4.536,-4.535 z m 0,601.511 c 2.505,0 4.536,-2.03 4.536,-4.535 0,-2.505 -2.031,-4.536 -4.536,-4.536 -2.505,0 -4.536,2.031 -4.536,4.536 0,2.505 2.031,4.535 4.536,4.535 z m 593.858,2.552 -595.276,0 c -3.118,0 -5.669,-2.552 -5.669,-5.67 l 0,-595.275 c 0,-3.118 2.551,-5.67 5.669,-5.67 l 595.276,0 c 3.118,0 5.669,2.552 5.669,5.67 l 0,595.275 c 0,3.118 -2.551,5.67 -5.669,5.67 z" />
          </g>
          <g
             transform="translate(204.0836,510.6542)"
             id="g4262"
             style="fill:#ffffff;fill-opacity:1;stroke:none">
            <path
               inkscape:connector-curvature="0"
               id="path4264"
               style="fill:#ffffff;fill-opacity:1;stroke:none;stroke-width:1;stroke-linecap:butt;stroke-linejoin:miter;stroke-miterlimit:10;stroke-dasharray:none;stroke-opacity:1"
               d="m 0,0 -1.003,-3.357 -1.373,-2.944 -1.744,-2.531 -2.114,-2.119 -2.476,-1.659 -2.694,-1.184 -2.91,-0.711 -3.128,-0.237 -2.806,0.237 -2.564,0.571 -2.321,0.905 -2.078,1.24 -1.855,1.406 -1.583,1.512 -1.31,1.617 -1.039,1.723 -0.986,2.215 -0.375,1.23 -0.307,1.512 -0.51,11.883 0.511,11.953 0.309,1.439 0.38,1.294 0.454,1.149 1.564,2.732 1.311,1.63 1.583,1.534 1.856,1.437 2.08,1.234 2.322,0.892 2.564,0.55 2.807,0.206 3.427,-0.3 3.094,-0.832 2.763,-1.362 2.431,-1.893 2.055,-2.306 1.639,-2.565 1.221,-2.824 0.805,-3.082 -7.98,0 -0.555,1.493 -0.742,1.378 -0.929,1.264 -1.117,1.15 -1.33,0.913 -1.466,0.663 -1.603,0.411 -1.739,0.161 -1.284,-0.094 -1.189,-0.214 -1.096,-0.332 -1.002,-0.452 -0.925,-0.561 -0.831,-0.628 -0.738,-0.693 -1.315,-1.647 -0.548,-1.007 -0.424,-1.125 -0.301,-1.244 -0.409,-3.955 0,-12.718 0.41,-3.901 0.301,-1.275 0.424,-1.148 0.548,-1.019 1.315,-1.647 0.738,-0.681 0.832,-0.605 1.928,-1.039 1.096,-0.364 1.19,-0.218 1.284,-0.072 2.973,0.438 2.571,1.315 2.171,2.191 L -7.972,0 0,0 Z" />
          </g>
          <g
             transform="translate(233.9357,514.6821)"
             id="g4266"
             style="fill:#ffffff;fill-opacity:1;stroke:none">
            <path
               inkscape:connector-curvature="0"
               id="path4268"
               style="fill:#ffffff;fill-opacity:1;stroke:none;stroke-width:1;stroke-linecap:butt;stroke-linejoin:miter;stroke-miterlimit:10;stroke-dasharray:none;stroke-opacity:1"
               d="m 0,0 -7.185,22.424 -0.136,0 L -14.505,0 0,0 Z m 2.145,-6.884 -18.829,0 -3.814,-11.464 -7.967,0 18.046,51.258 6.299,0 18.046,-51.258 -7.933,0 -3.848,11.464 z" />
          </g>
          <g
             transform="translate(252.3336,547.5917)"
             id="g4270"
             style="fill:#ffffff;fill-opacity:1;stroke:none">
            <path
               inkscape:connector-curvature="0"
               id="path4272"
               style="fill:#ffffff;fill-opacity:1;stroke:none;stroke-width:1;stroke-linecap:butt;stroke-linejoin:miter;stroke-miterlimit:10;stroke-dasharray:none;stroke-opacity:1"
               d="m 0,0 7.517,0 0,-33.076 0.208,-2.465 0.559,-2.153 0.908,-1.841 1.258,-1.528 1.498,-1.263 1.699,-0.901 1.899,-0.541 2.099,-0.181 2.103,0.181 1.912,0.541 1.72,0.901 1.529,1.263 1.227,1.528 0.887,1.841 0.546,2.153 0.204,2.465 0,33.076 7.517,0 0,-33.891 -0.368,-3.834 -0.969,-3.417 -1.569,-2.999 -2.17,-2.582 -2.65,-2.142 -2.979,-1.54 -3.306,-0.938 -3.634,-0.337 -3.577,0.336 -3.27,0.937 -2.964,1.539 -2.656,2.14 -2.24,2.579 -1.61,2.995 -0.979,3.413 L 0,-33.911 0,0 Z" />
          </g>
          <g
             transform="translate(307.0368,540.7045)"
             id="g4274"
             style="fill:#ffffff;fill-opacity:1;stroke:none">
            <path
               inkscape:connector-curvature="0"
               id="path4276"
               style="fill:#ffffff;fill-opacity:1;stroke:none;stroke-width:1;stroke-linecap:butt;stroke-linejoin:miter;stroke-miterlimit:10;stroke-dasharray:none;stroke-opacity:1"
               d="m 0,0 -13.608,0 0,6.887 34.742,0 0,-6.887 -13.617,0 0,-44.371 -7.517,0 L 0,0 Z" />
          </g>
          <path
             inkscape:connector-curvature="0"
             id="path4278"
             style="fill:#ffffff;fill-opacity:1;stroke:none;stroke-width:1;stroke-linecap:butt;stroke-linejoin:miter;stroke-miterlimit:10;stroke-dasharray:none;stroke-opacity:1"
             d="m 334.599,547.592 7.517,0 0,-51.258 -7.517,0 0,51.258 z" />
          <g
             transform="translate(358.9909,521.9628)"
             id="g4280"
             style="fill:#ffffff;fill-opacity:1;stroke:none">
            <path
               inkscape:connector-curvature="0"
               id="path4282"
               style="fill:#ffffff;fill-opacity:1;stroke:none;stroke-width:1;stroke-linecap:butt;stroke-linejoin:miter;stroke-miterlimit:10;stroke-dasharray:none;stroke-opacity:1"
               d="m 0,0 0.137,-6.35 0.409,-3.902 0.301,-1.275 0.424,-1.147 0.548,-1.02 1.315,-1.647 0.738,-0.68 0.831,-0.606 1.927,-1.039 1.096,-0.363 1.189,-0.218 1.284,-0.073 1.302,0.073 1.213,0.218 1.124,0.363 1.034,0.509 0.891,0.53 0.797,0.606 0.704,0.68 1.285,1.647 0.561,1.02 0.446,1.147 0.33,1.275 0.383,3.902 0,12.718 -0.383,3.954 -0.33,1.244 -0.446,1.126 -0.561,1.006 -1.285,1.647 -0.704,0.694 -0.797,0.627 -0.891,0.562 -1.034,0.451 -1.124,0.332 -1.213,0.214 L 10.199,18.32 8.915,18.225 7.726,18.011 6.63,17.679 5.628,17.228 4.703,16.666 3.872,16.039 3.134,15.345 1.819,13.698 1.271,12.692 0.847,11.567 0.546,10.323 0.137,6.368 0,0 Z m -7.517,0 0.511,11.978 0.309,1.442 0.38,1.297 0.454,1.152 1.563,2.726 1.31,1.624 1.583,1.528 1.855,1.432 2.079,1.23 2.32,0.889 2.564,0.547 2.806,0.206 2.838,-0.207 2.591,-0.549 2.344,-0.892 2.097,-1.235 1.821,-1.437 1.549,-1.534 1.276,-1.63 1.585,-2.732 0.483,-1.149 0.385,-1.294 0.287,-1.439 L 27.915,0 l -0.442,-11.883 -0.288,-1.47 -0.385,-1.316 -0.483,-1.162 -1.585,-2.732 -1.276,-1.617 -1.549,-1.511 -1.821,-1.407 -2.097,-1.239 -2.344,-0.905 -2.591,-0.572 -2.838,-0.237 -2.806,0.237 -2.563,0.572 -2.321,0.905 -2.078,1.239 -1.855,1.407 -1.583,1.511 -1.31,1.617 -1.039,1.723 -0.986,2.215 -0.375,1.23 -0.306,1.512 L -7.517,0 Z" />
          </g>
          <g
             transform="translate(397.0719,547.5917)"
             id="g4284"
             style="fill:#ffffff;fill-opacity:1;stroke:none">
            <path
               inkscape:connector-curvature="0"
               id="path4286"
               style="fill:#ffffff;fill-opacity:1;stroke:none;stroke-width:1;stroke-linecap:butt;stroke-linejoin:miter;stroke-miterlimit:10;stroke-dasharray:none;stroke-opacity:1"
               d="m 0,0 7.087,0 22.484,-36.439 0.136,0 0,36.439 7.518,0 0,-51.258 -7.121,0 -22.451,36.439 -0.135,0 0,-36.439 -7.518,0 L 0,0 Z" />
          </g>
          <g
             transform="translate(186.1398,468.1601)"
             id="g4288"
             style="fill:#ffffff;fill-opacity:1;stroke:none">
            <path
               inkscape:connector-curvature="0"
               id="path4290"
               style="fill:#ffffff;fill-opacity:1;stroke:none;stroke-width:1;stroke-linecap:butt;stroke-linejoin:miter;stroke-miterlimit:10;stroke-dasharray:none;stroke-opacity:1"
               d="m 0,0 -12.614,0 0,-14.346 -4.815,0 0,32.831 4.815,0 0,-14.076 12.614,0 0,14.076 4.814,0 0,-32.831 -4.814,0 L 0,0 Z" />
          </g>
          <g
             transform="translate(202.3258,470.2294)"
             id="g4292"
             style="fill:#ffffff;fill-opacity:1;stroke:none">
            <path
               inkscape:connector-curvature="0"
               id="path4294"
               style="fill:#ffffff;fill-opacity:1;stroke:none;stroke-width:1;stroke-linecap:butt;stroke-linejoin:miter;stroke-miterlimit:10;stroke-dasharray:none;stroke-opacity:1"
               d="m 0,0 0.087,-4.067 0.263,-2.499 0.192,-0.817 0.272,-0.735 0.351,-0.653 0.842,-1.055 0.473,-0.436 0.532,-0.388 1.235,-0.665 0.702,-0.233 0.762,-0.139 0.822,-0.047 0.834,0.047 0.777,0.139 0.719,0.233 0.662,0.326 0.571,0.339 0.511,0.388 0.451,0.436 0.823,1.055 0.359,0.653 0.285,0.735 0.212,0.817 0.246,2.499 0,8.145 -0.246,2.533 -0.212,0.797 -0.285,0.721 -0.359,0.645 -0.823,1.055 -0.451,0.444 -0.511,0.402 -0.571,0.36 L 8.863,11.324 8.144,11.536 7.367,11.673 6.533,11.734 5.711,11.673 4.949,11.536 4.247,11.324 3.605,11.035 3.012,10.675 2.48,10.273 2.007,9.829 1.165,8.774 0.814,8.129 0.542,7.409 0.35,6.612 0.087,4.078 0,0 Z m -4.814,0 0.327,7.672 0.197,0.924 0.244,0.83 0.29,0.738 1.002,1.747 0.839,1.04 1.014,0.978 1.188,0.917 1.331,0.788 1.487,0.569 1.642,0.351 1.797,0.132 1.818,-0.133 1.659,-0.352 1.502,-0.571 1.343,-0.791 1.166,-0.92 0.992,-0.982 0.818,-1.045 1.015,-1.749 0.309,-0.736 0.246,-0.829 0.184,-0.922 0.283,-7.656 -0.283,-7.611 -0.184,-0.942 -0.246,-0.843 -0.31,-0.744 -1.015,-1.75 -0.817,-1.036 -0.992,-0.968 -1.167,-0.9 -1.343,-0.794 -1.502,-0.58 -1.659,-0.366 -1.818,-0.152 -1.797,0.152 -1.642,0.366 -1.486,0.58 -1.331,0.794 -1.188,0.9 -1.014,0.968 -0.84,1.036 -0.664,1.104 -0.632,1.418 -0.24,0.788 -0.196,0.969 L -4.814,0 Z" />
          </g>
          <g
             transform="translate(231.2882,482.2333)"
             id="g4296"
             style="fill:#ffffff;fill-opacity:1;stroke:none">
            <path
               inkscape:connector-curvature="0"
               id="path4298"
               style="fill:#ffffff;fill-opacity:1;stroke:none;stroke-width:1;stroke-linecap:butt;stroke-linejoin:miter;stroke-miterlimit:10;stroke-dasharray:none;stroke-opacity:1"
               d="m 0,0 -8.716,0 0,4.412 22.252,0 0,-4.412 -8.722,0 0,-28.419 -4.814,0 L 0,0 Z" />
          </g>
          <g
             transform="translate(260.3922,461.7675)"
             id="g4300"
             style="fill:#ffffff;fill-opacity:1;stroke:none">
            <path
               inkscape:connector-curvature="0"
               id="path4302"
               style="fill:#ffffff;fill-opacity:1;stroke:none;stroke-width:1;stroke-linecap:butt;stroke-linejoin:miter;stroke-miterlimit:10;stroke-dasharray:none;stroke-opacity:1"
               d="m 0,0 1.989,-1.415 2.169,-1.017 2.35,-0.619 2.529,-0.221 2.718,0.32 1.953,0.869 1.19,1.418 0.426,1.968 L 15.081,2.957 14.31,4.244 13.009,5.165 11.179,5.72 6.968,6.329 5.04,6.787 3.358,7.461 1.92,8.353 0.729,9.461 l -0.964,1.319 -0.689,1.454 -0.413,1.588 -0.138,1.724 0.173,2.049 0.519,1.839 0.865,1.632 1.211,1.422 1.48,1.147 1.761,0.825 2.042,0.504 2.322,0.183 2.867,-0.262 2.673,-0.653 2.481,-1.043 2.287,-1.433 -2.685,-4.088 -1.834,1.072 -1.925,0.779 -2.014,0.485 L 8.643,20.196 7.576,20.124 6.602,19.908 5.721,19.549 4.933,19.046 4.253,18.376 3.76,17.559 3.456,16.595 3.34,15.485 3.407,14.792 3.607,14.133 3.941,13.508 4.409,12.916 5.024,12.375 5.8,11.925 6.737,11.564 7.834,11.293 13.502,10.332 15.301,9.631 16.807,8.675 18.022,7.462 18.948,6.09 19.609,4.611 20.006,3.025 20.138,1.332 19.351,-2.798 17.229,-5.767 13.772,-7.576 8.979,-8.224 5.573,-7.944 2.414,-7.104 -0.497,-5.703 -3.16,-3.742 0,0 Z" />
          </g>
          <g
             transform="translate(285.8717,486.6449)"
             id="g4304"
             style="fill:#ffffff;fill-opacity:1;stroke:none">
            <path
               inkscape:connector-curvature="0"
               id="path4306"
               style="fill:#ffffff;fill-opacity:1;stroke:none;stroke-width:1;stroke-linecap:butt;stroke-linejoin:miter;stroke-miterlimit:10;stroke-dasharray:none;stroke-opacity:1"
               d="m 0,0 4.814,0 0,-21.186 0.134,-1.579 0.358,-1.378 0.581,-1.179 0.806,-0.979 0.96,-0.809 1.088,-0.577 1.216,-0.347 1.345,-0.115 1.347,0.115 1.224,0.347 1.102,0.577 0.979,0.809 0.787,0.979 0.567,1.179 0.35,1.378 0.131,1.579 0,21.186 4.815,0 0,-21.707 -0.237,-2.456 -0.62,-2.189 -1.005,-1.921 -1.389,-1.653 -1.698,-1.372 -1.908,-0.987 -2.118,-0.601 -2.327,-0.215 -2.291,0.215 -2.095,0.6 -1.898,0.986 -1.702,1.37 -1.434,1.652 -1.031,1.919 -0.628,2.186 L 0,-21.72 0,0 Z" />
          </g>
          <g
             transform="translate(320.319,472.2538)"
             id="g4308"
             style="fill:#ffffff;fill-opacity:1;stroke:none">
            <path
               inkscape:connector-curvature="0"
               id="path4310"
               style="fill:#ffffff;fill-opacity:1;stroke:none;stroke-width:1;stroke-linecap:butt;stroke-linejoin:miter;stroke-miterlimit:10;stroke-dasharray:none;stroke-opacity:1"
               d="m 0,0 7.303,0 1.271,0.118 1.102,0.311 0.932,0.502 0.762,0.694 0.584,0.777 0.417,0.861 0.25,0.945 0.083,1.03 -0.116,1.198 -0.305,1.02 L 11.79,8.299 11.108,8.963 10.428,9.408 9.61,9.726 8.656,9.916 0,9.979 0,0 Z m -4.814,14.391 12.424,0 1.896,-0.135 1.713,-0.405 1.53,-0.676 1.347,-0.946 1.33,-1.358 0.969,-1.62 0.608,-1.881 0.246,-2.143 -0.417,-3.077 -1.162,-2.542 -1.908,-2.007 -2.654,-1.472 7.36,-14.569 -5.72,0 -6.582,14.031 -6.166,0 0,-14.031 -4.814,0 0,32.831 z" />
          </g>
          <g
             transform="translate(343.6295,486.6449)"
             id="g4312"
             style="fill:#ffffff;fill-opacity:1;stroke:none">
            <path
               inkscape:connector-curvature="0"
               id="path4314"
               style="fill:#ffffff;fill-opacity:1;stroke:none;stroke-width:1;stroke-linecap:butt;stroke-linejoin:miter;stroke-miterlimit:10;stroke-dasharray:none;stroke-opacity:1"
               d="m 0,0 20.314,0 0,-4.682 -15.5,0 0,-9.709 13.232,0 0,-4.409 -13.232,0 0,-14.031 -4.814,0 L 0,0 Z" />
          </g>
          <g
             transform="translate(380.776,465.5663)"
             id="g4316"
             style="fill:#ffffff;fill-opacity:1;stroke:none">
            <path
               inkscape:connector-curvature="0"
               id="path4318"
               style="fill:#ffffff;fill-opacity:1;stroke:none;stroke-width:1;stroke-linecap:butt;stroke-linejoin:miter;stroke-miterlimit:10;stroke-dasharray:none;stroke-opacity:1"
               d="m 0,0 -4.602,14.363 -0.086,0 L -9.29,0 0,0 Z m 1.374,-4.41 -12.061,0 -2.442,-7.342 -5.103,0 11.559,32.831 4.034,0 11.559,-32.831 -5.081,0 -2.465,7.342 z" />
          </g>
          <g
             transform="translate(414.5954,462.9862)"
             id="g4320"
             style="fill:#ffffff;fill-opacity:1;stroke:none">
            <path
               inkscape:connector-curvature="0"
               id="path4322"
               style="fill:#ffffff;fill-opacity:1;stroke:none;stroke-width:1;stroke-linecap:butt;stroke-linejoin:miter;stroke-miterlimit:10;stroke-dasharray:none;stroke-opacity:1"
               d="m 0,0 -0.642,-2.15 -0.88,-1.886 -1.117,-1.621 -1.354,-1.358 -1.586,-1.062 -1.725,-0.759 -1.864,-0.455 -2.003,-0.151 -1.798,0.152 -1.642,0.365 -1.486,0.58 -1.332,0.794 -1.188,0.9 -1.013,0.969 -0.84,1.035 -0.665,1.104 -0.632,1.418 -0.24,0.789 -0.196,0.968 -0.327,7.611 0.327,7.656 0.197,0.922 0.244,0.829 0.291,0.736 1.001,1.749 0.84,1.045 1.015,0.982 1.188,0.921 1.332,0.79 1.487,0.572 1.643,0.351 1.798,0.133 2.195,-0.193 1.982,-0.533 1.769,-0.872 1.557,-1.213 1.317,-1.477 1.049,-1.642 0.783,-1.809 0.515,-1.974 -5.111,0 -0.356,0.956 -0.475,0.883 -0.595,0.809 -0.715,0.737 -0.852,0.585 -0.939,0.424 -1.027,0.264 -1.114,0.103 -0.822,-0.061 -0.762,-0.136 -0.702,-0.213 -0.641,-0.289 -0.593,-0.36 -0.532,-0.402 -0.473,-0.444 -0.842,-1.055 -0.351,-0.645 -0.272,-0.721 -0.192,-0.797 -0.263,-2.532 0,-8.146 0.263,-2.499 0.192,-0.817 0.272,-0.735 0.351,-0.653 0.843,-1.055 0.473,-0.436 0.533,-0.387 1.234,-0.666 0.702,-0.233 0.762,-0.139 0.822,-0.047 1.904,0.281 1.648,0.842 1.391,1.403 L -5.105,0 0,0 Z" />
          </g>
          <g
             transform="translate(418.7936,486.6449)"
             id="g4324"
             style="fill:#ffffff;fill-opacity:1;stroke:none">
            <path
               inkscape:connector-curvature="0"
               id="path4326"
               style="fill:#ffffff;fill-opacity:1;stroke:none;stroke-width:1;stroke-linecap:butt;stroke-linejoin:miter;stroke-miterlimit:10;stroke-dasharray:none;stroke-opacity:1"
               d="m 0,0 20.314,0 0,-4.682 -15.5,0 0,-9.394 13.232,0 0,-4.409 -13.232,0 0,-9.664 15.5,0 0,-4.682 L 0,-32.831 0,0 Z" />
          </g>
          <g
             transform="translate(172.963,63.2319)"
             id="g4328"
             style="fill:#ffffff;fill-opacity:1;stroke:none">
            <path
               inkscape:connector-curvature="0"
               id="path4330"
               style="fill:#ffffff;fill-opacity:1;stroke:none;stroke-width:1;stroke-linecap:butt;stroke-linejoin:miter;stroke-miterlimit:10;stroke-dasharray:none;stroke-opacity:1"
               d="m 0,0 5.369,0 1.761,0.167 1.502,0.5 1.243,0.834 0.984,1.167 0.342,0.527 0.273,0.592 0.205,0.658 0.135,0.724 0,11.305 -0.163,0.82 -0.248,0.74 -0.331,0.657 -0.416,0.577 L 9.624,20.43 8.398,21.248 6.98,21.722 5.369,21.853 0,21.853 0,0 Z m -4.483,26.212 10.361,0 2.819,-0.338 2.443,-0.973 2.067,-1.606 1.691,-2.241 0.489,-0.871 0.389,-0.891 0.29,-0.912 0.192,-0.933 L 16.395,6.743 16.136,4.049 15.933,3.116 15.648,2.287 14.815,0.715 14.102,-0.318 13.261,-1.256 12.294,-2.1 11.199,-2.85 9.987,-3.51 8.645,-3.982 7.173,-4.265 -4.483,-4.359 l 0,30.571 z" />
          </g>
          <g
             transform="translate(199.0055,74.1577)"
             id="g4332"
             style="fill:#ffffff;fill-opacity:1;stroke:none">
            <path
               inkscape:connector-curvature="0"
               id="path4334"
               style="fill:#ffffff;fill-opacity:1;stroke:none;stroke-width:1;stroke-linecap:butt;stroke-linejoin:miter;stroke-miterlimit:10;stroke-dasharray:none;stroke-opacity:1"
               d="m 0,0 0.081,-3.787 0.244,-2.327 0.18,-0.761 0.253,-0.684 0.327,-0.608 0.784,-0.982 0.44,-0.406 0.496,-0.361 1.149,-0.62 0.654,-0.217 0.709,-0.13 0.766,-0.043 0.777,0.043 0.723,0.13 0.67,0.217 0.617,0.304 0.531,0.316 0.476,0.361 0.419,0.406 0.767,0.982 0.334,0.608 0.266,0.684 0.197,0.761 0.229,2.327 0,7.585 L 11.86,6.157 11.663,6.899 11.397,7.57 11.063,8.17 10.296,9.153 9.877,9.566 9.401,9.941 8.87,10.275 8.253,10.545 7.583,10.743 6.86,10.87 6.083,10.927 5.317,10.87 4.608,10.743 3.954,10.545 3.356,10.275 2.805,9.941 2.309,9.566 1.869,9.153 1.085,8.17 0.758,7.57 0.505,6.899 0.325,6.157 0.081,3.798 0,0 Z m -4.483,0 0.304,7.145 0.184,0.859 0.227,0.774 0.27,0.687 0.933,1.626 0.782,0.969 0.944,0.911 1.106,0.854 1.24,0.734 1.384,0.53 1.529,0.326 1.673,0.123 1.693,-0.123 1.545,-0.328 1.398,-0.532 1.251,-0.737 1.086,-0.857 0.924,-0.914 0.761,-0.973 0.945,-1.629 0.288,-0.685 0.23,-0.772 0.171,-0.858 0.264,-7.13 -0.264,-7.087 -0.172,-0.877 -0.229,-0.785 -0.288,-0.693 -0.945,-1.629 -0.762,-0.964 -0.923,-0.902 -1.087,-0.838 -1.25,-0.74 -1.398,-0.54 -1.546,-0.341 -1.692,-0.141 -1.674,0.141 -1.528,0.341 -1.384,0.54 -1.24,0.74 -1.107,0.838 -0.944,0.902 -0.781,0.964 -0.619,1.028 -0.588,1.32 -0.224,0.734 -0.183,0.902 L -4.483,0 Z" />
          </g>
          <g
             transform="translate(232.0138,89.4438)"
             id="g4336"
             style="fill:#ffffff;fill-opacity:1;stroke:none">
            <path
               inkscape:connector-curvature="0"
               id="path4338"
               style="fill:#ffffff;fill-opacity:1;stroke:none;stroke-width:1;stroke-linecap:butt;stroke-linejoin:miter;stroke-miterlimit:10;stroke-dasharray:none;stroke-opacity:1"
               d="m 0,0 4.226,0 13.411,-21.733 0.081,0 0,21.733 4.483,0 0,-30.571 -4.246,0 -13.391,21.733 -0.081,0 0,-21.733 -4.483,0 L 0,0 Z" />
          </g>
          <g
             transform="translate(264.8669,74.1577)"
             id="g4340"
             style="fill:#ffffff;fill-opacity:1;stroke:none">
            <path
               inkscape:connector-curvature="0"
               id="path4342"
               style="fill:#ffffff;fill-opacity:1;stroke:none;stroke-width:1;stroke-linecap:butt;stroke-linejoin:miter;stroke-miterlimit:10;stroke-dasharray:none;stroke-opacity:1"
               d="m 0,0 0.081,-3.787 0.244,-2.327 0.18,-0.761 0.253,-0.684 0.327,-0.608 0.784,-0.982 0.44,-0.406 0.496,-0.361 1.149,-0.62 0.654,-0.217 0.709,-0.13 0.766,-0.043 0.777,0.043 0.723,0.13 0.67,0.217 0.617,0.304 0.531,0.316 0.476,0.361 0.419,0.406 0.767,0.982 0.335,0.608 0.265,0.684 0.198,0.761 0.228,2.327 0,7.585 L 11.861,6.157 11.663,6.899 11.398,7.57 11.063,8.17 10.296,9.153 9.877,9.566 9.401,9.941 8.87,10.275 8.253,10.545 7.583,10.743 6.86,10.87 6.083,10.927 5.317,10.87 4.608,10.743 3.954,10.545 3.356,10.275 2.805,9.941 2.309,9.566 1.869,9.153 1.085,8.17 0.758,7.57 0.505,6.899 0.325,6.157 0.081,3.798 0,0 Z m -4.483,0 0.304,7.145 0.184,0.859 0.227,0.774 0.27,0.687 0.933,1.626 0.782,0.969 0.944,0.911 1.106,0.854 1.24,0.734 1.384,0.53 1.529,0.326 1.673,0.123 1.693,-0.123 1.545,-0.328 1.398,-0.532 1.251,-0.737 1.086,-0.857 0.924,-0.914 0.761,-0.973 0.946,-1.629 0.287,-0.685 0.23,-0.772 0.171,-0.858 0.264,-7.13 -0.264,-7.087 -0.171,-0.877 -0.23,-0.785 -0.288,-0.693 -0.945,-1.629 -0.761,-0.964 -0.924,-0.902 -1.086,-0.838 -1.251,-0.74 -1.398,-0.54 -1.546,-0.341 -1.692,-0.141 -1.674,0.141 -1.528,0.341 -1.384,0.54 -1.24,0.74 -1.107,0.838 -0.944,0.902 -0.781,0.964 -0.619,1.028 -0.588,1.32 -0.224,0.734 -0.183,0.902 L -4.483,0 Z" />
          </g>
          <g
             transform="translate(291.8351,85.3364)"
             id="g4344"
             style="fill:#ffffff;fill-opacity:1;stroke:none">
            <path
               inkscape:connector-curvature="0"
               id="path4346"
               style="fill:#ffffff;fill-opacity:1;stroke:none;stroke-width:1;stroke-linecap:butt;stroke-linejoin:miter;stroke-miterlimit:10;stroke-dasharray:none;stroke-opacity:1"
               d="m 0,0 -8.115,0 0,4.107 20.719,0 0,-4.107 -8.121,0 0,-26.464 -4.483,0 L 0,0 Z" />
          </g>
          <g
             transform="translate(323.6012,85.3364)"
             id="g4348"
             style="fill:#ffffff;fill-opacity:1;stroke:none">
            <path
               inkscape:connector-curvature="0"
               id="path4350"
               style="fill:#ffffff;fill-opacity:1;stroke:none;stroke-width:1;stroke-linecap:butt;stroke-linejoin:miter;stroke-miterlimit:10;stroke-dasharray:none;stroke-opacity:1"
               d="m 0,0 -8.115,0 0,4.107 20.719,0 0,-4.107 -8.121,0 0,-26.464 -4.483,0 L 0,0 Z" />
          </g>
          <g
             transform="translate(342.7419,74.1577)"
             id="g4352"
             style="fill:#ffffff;fill-opacity:1;stroke:none">
            <path
               inkscape:connector-curvature="0"
               id="path4354"
               style="fill:#ffffff;fill-opacity:1;stroke:none;stroke-width:1;stroke-linecap:butt;stroke-linejoin:miter;stroke-miterlimit:10;stroke-dasharray:none;stroke-opacity:1"
               d="m 0,0 0.082,-3.787 0.244,-2.327 0.179,-0.761 0.253,-0.684 0.327,-0.608 0.784,-0.982 0.44,-0.406 0.496,-0.361 1.15,-0.62 0.653,-0.217 0.71,-0.13 0.765,-0.043 0.777,0.043 0.723,0.13 0.67,0.217 0.617,0.304 0.532,0.316 0.475,0.361 0.42,0.406 0.767,0.982 0.334,0.608 0.266,0.684 0.197,0.761 0.229,2.327 0,7.585 L 11.861,6.157 11.664,6.899 11.398,7.57 11.064,8.17 10.297,9.153 9.877,9.566 9.402,9.941 8.87,10.275 8.253,10.545 7.583,10.743 6.86,10.87 6.083,10.927 5.318,10.87 4.608,10.743 3.955,10.545 3.357,10.275 2.805,9.941 2.309,9.566 1.869,9.153 1.085,8.17 0.758,7.57 0.505,6.899 0.326,6.157 0.082,3.798 0,0 Z m -4.482,0 0.303,7.145 0.184,0.859 0.228,0.774 0.27,0.687 0.933,1.626 0.781,0.969 0.944,0.911 1.107,0.854 1.239,0.734 1.384,0.53 1.529,0.326 1.674,0.123 1.692,-0.123 1.546,-0.328 1.398,-0.532 1.25,-0.737 1.087,-0.857 0.923,-0.914 0.762,-0.973 0.945,-1.629 0.288,-0.685 0.23,-0.772 0.171,-0.858 0.263,-7.13 -0.263,-7.087 -0.172,-0.877 -0.23,-0.785 -0.287,-0.693 -0.946,-1.629 -0.761,-0.964 -0.924,-0.902 -1.086,-0.838 -1.251,-0.74 -1.398,-0.54 -1.545,-0.341 -1.692,-0.141 -1.674,0.141 -1.529,0.341 -1.384,0.54 -1.239,0.74 -1.107,0.838 -0.944,0.902 -0.782,0.964 -0.619,1.028 -0.588,1.32 -0.224,0.734 -0.183,0.902 L -4.482,0 Z" />
          </g>
          <g
             transform="translate(364.9088,89.4438)"
             id="g4356"
             style="fill:#ffffff;fill-opacity:1;stroke:none">
            <path
               inkscape:connector-curvature="0"
               id="path4358"
               style="fill:#ffffff;fill-opacity:1;stroke:none;stroke-width:1;stroke-linecap:butt;stroke-linejoin:miter;stroke-miterlimit:10;stroke-dasharray:none;stroke-opacity:1"
               d="m 0,0 4.483,0 0,-19.728 0.125,-1.47 0.333,-1.284 0.541,-1.098 0.75,-0.911 0.894,-0.753 1.013,-0.538 1.133,-0.322 1.252,-0.108 1.255,0.108 1.14,0.322 1.026,0.538 0.911,0.753 0.732,0.911 0.529,1.098 0.326,1.284 0.121,1.47 0,19.728 4.484,0 0,-20.213 -0.22,-2.287 -0.578,-2.038 -0.936,-1.789 -1.293,-1.539 -1.581,-1.278 -1.776,-0.919 -1.972,-0.56 -2.168,-0.2 -2.133,0.2 -1.951,0.559 -1.767,0.918 -1.585,1.276 -1.336,1.538 -0.96,1.787 L 0.208,-22.51 0,-20.226 0,0 Z" />
          </g>
          <g
             transform="translate(412.4762,67.4135)"
             id="g4360"
             style="fill:#ffffff;fill-opacity:1;stroke:none">
            <path
               inkscape:connector-curvature="0"
               id="path4362"
               style="fill:#ffffff;fill-opacity:1;stroke:none;stroke-width:1;stroke-linecap:butt;stroke-linejoin:miter;stroke-miterlimit:10;stroke-dasharray:none;stroke-opacity:1"
               d="m 0,0 -0.598,-2.002 -0.819,-1.756 -1.04,-1.51 -1.261,-1.264 -1.477,-0.989 -1.606,-0.707 -1.736,-0.424 -1.865,-0.141 -1.674,0.141 -1.529,0.341 -1.385,0.54 -1.239,0.74 -1.107,0.838 -0.944,0.902 -0.781,0.965 -0.62,1.027 -0.589,1.32 -0.223,0.734 -0.183,0.902 -0.303,7.087 0.304,7.13 0.184,0.858 0.227,0.772 0.271,0.685 0.932,1.629 0.782,0.973 0.945,0.914 1.106,0.857 1.241,0.737 1.385,0.532 1.529,0.328 1.675,0.123 2.043,-0.179 1.846,-0.496 1.647,-0.813 1.45,-1.129 1.226,-1.375 0.978,-1.53 0.728,-1.684 0.48,-1.839 -4.76,0 -0.33,0.891 -0.443,0.822 -0.554,0.754 -0.666,0.686 -0.793,0.544 -0.875,0.395 -0.956,0.246 -1.037,0.096 -0.766,-0.057 -0.709,-0.127 -0.654,-0.198 -0.598,-0.269 -0.552,-0.335 -0.495,-0.374 -0.44,-0.414 -0.784,-0.983 -0.327,-0.6 -0.253,-0.671 -0.179,-0.742 -0.244,-2.359 0,-7.585 0.244,-2.327 0.179,-0.76 0.253,-0.685 0.327,-0.608 0.785,-0.982 0.44,-0.406 0.496,-0.361 1.15,-0.62 0.654,-0.217 0.71,-0.129 0.765,-0.044 1.773,0.262 1.534,0.784 L -5.81,-1.83 -4.755,0 0,0 Z" />
          </g>
          <g
             transform="translate(432.6149,72.2309)"
             id="g4364"
             style="fill:#ffffff;fill-opacity:1;stroke:none">
            <path
               inkscape:connector-curvature="0"
               id="path4366"
               style="fill:#ffffff;fill-opacity:1;stroke:none;stroke-width:1;stroke-linecap:butt;stroke-linejoin:miter;stroke-miterlimit:10;stroke-dasharray:none;stroke-opacity:1"
               d="m 0,0 -11.746,0 0,-13.358 -4.483,0 0,30.571 4.483,0 0,-13.108 11.746,0 0,13.108 4.483,0 0,-30.571 -4.483,0 L 0,0 Z" />
          </g>
          <path
             inkscape:connector-curvature="0"
             id="path4368"
             style="fill:#ffffff;fill-opacity:1;stroke:none;stroke-width:1;stroke-linecap:butt;stroke-linejoin:miter;stroke-miterlimit:10;stroke-dasharray:none;stroke-opacity:1"
             d="m 374.085,153.948 -141.732,0 0,14.173 141.732,0 0,-14.173 z" />
          <g
             transform="translate(266.5622,192.4877)"
             id="g4370"
             style="fill:#ffffff;fill-opacity:1;stroke:none">
            <path
               inkscape:connector-curvature="0"
               id="path4372"
               style="fill:#ffffff;fill-opacity:1;stroke:none;stroke-width:1;stroke-linecap:butt;stroke-linejoin:miter;stroke-miterlimit:10;stroke-dasharray:none;stroke-opacity:1"
               d="m 0,0 -11.727,7.96 8.945,14.778 2.865,5.914 0.816,2.187 0.326,1.519 -0.326,1.501 -2.064,4.901 -22.307,38.002 -1.896,4.492 -1.283,4.156 -0.472,3.61 0.472,3.609 1.283,4.156 4.208,9.106 9.434,15.455 11.727,-7.96 -8.945,-14.778 -2.864,-5.915 -0.817,-2.186 -0.325,-1.52 0.325,-1.498 2.064,-4.898 22.307,-38.007 1.896,-4.491 1.283,-4.157 0.472,-3.61 L 14.925,28.717 13.642,24.56 9.435,15.454 0,0 Z" />
          </g>
          <g
             transform="translate(309.0817,192.4877)"
             id="g4374"
             style="fill:#ffffff;fill-opacity:1;stroke:none">
            <path
               inkscape:connector-curvature="0"
               id="path4376"
               style="fill:#ffffff;fill-opacity:1;stroke:none;stroke-width:1;stroke-linecap:butt;stroke-linejoin:miter;stroke-miterlimit:10;stroke-dasharray:none;stroke-opacity:1"
               d="m 0,0 -11.727,7.96 8.945,14.778 2.864,5.914 0.817,2.187 0.326,1.519 -0.326,1.501 -2.064,4.901 -22.306,38.002 -1.896,4.492 -1.283,4.156 -0.472,3.61 0.472,3.609 1.283,4.156 4.207,9.106 9.434,15.455 11.727,-7.96 -8.944,-14.778 -2.865,-5.915 -0.816,-2.186 -0.326,-1.52 0.326,-1.498 2.064,-4.898 22.306,-38.007 1.897,-4.491 1.283,-4.157 0.471,-3.61 L 14.926,28.717 13.643,24.56 9.435,15.454 0,0 Z" />
          </g>
          <g
             transform="translate(351.6022,192.4877)"
             id="g4378"
             style="fill:#ffffff;fill-opacity:1;stroke:none">
            <path
               inkscape:connector-curvature="0"
               id="path4380"
               style="fill:#ffffff;fill-opacity:1;stroke:none;stroke-width:1;stroke-linecap:butt;stroke-linejoin:miter;stroke-miterlimit:10;stroke-dasharray:none;stroke-opacity:1"
               d="m 0,0 -11.727,7.96 8.944,14.778 2.864,5.914 0.817,2.187 0.326,1.519 -0.325,1.499 -2.065,4.898 -22.307,38.007 -1.896,4.492 -1.283,4.156 -0.472,3.61 0.472,3.609 1.283,4.156 4.208,9.106 9.434,15.455 11.727,-7.96 -8.944,-14.778 -2.865,-5.915 -0.817,-2.186 -0.325,-1.52 0.325,-1.501 2.065,-4.9 22.306,-38.002 1.897,-4.491 1.283,-4.157 0.471,-3.61 L 14.925,28.717 13.642,24.56 9.434,15.454 0,0 Z" />
          </g>
          <g
             transform="translate(303.2189,416.1528)"
             id="g4382"
             style="fill:#ffffff;fill-opacity:1;stroke:none">
            <path
               inkscape:connector-curvature="0"
               id="path4384"
               style="fill:#ffffff;fill-opacity:1;stroke:none;stroke-width:1;stroke-linecap:butt;stroke-linejoin:miter;stroke-miterlimit:10;stroke-dasharray:none;stroke-opacity:1"
               d="m 0,0 -2.061,-0.282 -1.886,-0.821 -1.65,-1.323 -1.355,-1.788 -157.268,-266.404 -1.154,-2.857 -0.253,-2.785 0.435,-2.546 0.909,-2.142 0.832,-1.223 1.415,-1.424 2.045,-1.181 2.723,-0.493 314.536,0 2.723,0.493 2.046,1.181 1.414,1.424 0.832,1.223 0.909,2.142 0.435,2.546 -0.253,2.785 -1.154,2.857 L 6.952,-4.214 5.597,-2.426 3.947,-1.103 2.061,-0.282 0,0 Z m 157.268,-299.442 -317.495,0.198 -2.859,0.584 -2.731,0.953 -2.575,1.306 -2.393,1.642 -2.183,1.963 -1.944,2.267 -1.679,2.554 -1.424,2.932 -1.01,3.058 -0.597,3.14 -0.185,3.18 0.228,3.176 0.64,3.129 1.051,3.04 160.419,271.802 1.944,2.21 2.173,1.914 2.375,1.602 2.551,1.273 2.697,0.93 2.818,0.569 2.911,0.193 2.911,-0.193 2.818,-0.569 2.698,-0.93 2.55,-1.273 2.375,-1.602 2.174,-1.914 1.944,-2.21 160.418,-271.802 1.052,-3.04 0.639,-3.13 0.228,-3.176 -0.185,-3.18 -0.597,-3.14 -1.01,-3.057 -1.424,-2.933 -1.679,-2.554 -1.944,-2.266 -2.183,-1.963 -2.393,-1.642 -2.575,-1.306 -2.731,-0.953 -2.859,-0.584 -2.959,-0.198 z" />
          </g>
          <g
             transform="translate(36.7624,581.1033)"
             id="g4386"
             style="fill:#ffffff;fill-opacity:1;stroke:none">
            <path
               inkscape:connector-curvature="0"
               id="path4388"
               style="fill:#ffffff;fill-opacity:1;stroke:none;stroke-width:1;stroke-linecap:butt;stroke-linejoin:miter;stroke-miterlimit:10;stroke-dasharray:none;stroke-opacity:1"
               d="m 0,0 -2.282,-0.231 -2.127,-0.661 -1.926,-1.047 -1.679,-1.386 -1.386,-1.679 -1.046,-1.925 -0.662,-2.128 -0.231,-2.282 0,-532.913 0.231,-2.282 0.662,-2.127 1.046,-1.926 1.386,-1.679 1.679,-1.386 1.926,-1.046 2.127,-0.662 2.282,-0.231 532.913,0 2.282,0.231 2.127,0.662 1.926,1.046 1.679,1.386 1.386,1.679 1.046,1.926 0.662,2.127 0.231,2.282 0,532.913 -0.231,2.282 -0.662,2.128 -1.046,1.925 -1.386,1.679 -1.679,1.386 -1.926,1.047 -2.127,0.661 L 532.913,0 0,0 Z m 532.913,-561.261 -534.65,0.088 -1.686,0.258 -1.629,0.42 -1.562,0.573 -1.486,0.717 -1.403,0.853 -1.309,0.98 -1.209,1.099 -1.098,1.208 -0.98,1.31 -0.853,1.402 -0.717,1.487 -0.573,1.562 -0.42,1.628 -0.258,1.687 0,536.387 0.258,1.687 0.42,1.628 0.573,1.562 0.717,1.487 0.853,1.402 0.98,1.31 1.098,1.208 1.209,1.098 1.309,0.98 1.403,0.853 1.486,0.717 1.562,0.573 1.629,0.42 1.686,0.258 536.387,0 1.687,-0.258 1.628,-0.42 1.562,-0.573 1.487,-0.717 1.402,-0.853 1.31,-0.98 1.209,-1.098 1.098,-1.208 0.98,-1.31 0.853,-1.402 0.717,-1.487 0.573,-1.562 0.42,-1.628 0.258,-1.687 0,-536.387 -0.258,-1.687 -0.42,-1.628 -0.573,-1.562 -0.717,-1.487 -0.853,-1.402 -0.98,-1.31 -1.098,-1.208 -1.209,-1.099 -1.31,-0.98 -1.402,-0.853 -1.487,-0.717 -1.562,-0.573 -1.628,-0.42 -1.687,-0.258 -1.737,-0.088 z" />
          </g>
        </g>
      </g>
    </g>
  </g>
  <g
     inkscape:groupmode="layer"
     id="layer4"
     inkscape:label="Head color" />
  <g
     inkscape:groupmode="layer"
     id="layer3"
     inkscape:label="Body color">
    <path
       style="fill:#000000"
       d=""
       id="path4548"
       inkscape:connector-curvature="0" />
    <path
       style="fill:#000000"
       d=""
       id="path4546"
       inkscape:connector-curvature="0" />
  </g>
  <g
     inkscape:groupmode="layer"
     id="layer7"
     inkscape:label="Glasses side colour" />
  <g
     inkscape:groupmode="layer"
     id="layer6"
     inkscape:label="Glasses front colour" />
  <g
     inkscape:label="Body outline"
     inkscape:groupmode="layer"
     id="layer1"
     transform="translate(0,-294.09449)"
     style="display:inline" />
  <g
     inkscape:groupmode="layer"
     id="layer5"
     inkscape:label="Glasses outline">
    <path
       inkscape:connector-curvature="0"
       style="fill:#d7ba8e;fill-opacity:0.71372549"
       d="m 359.75664,303.6364 c -2.06852,0.0355 -3.44989,0.44014 -6.2666,1.34583 -6.52883,2.0993 -10.246,5.3688 -12.96497,11.40381 -2.53502,5.62673 -2.88223,10.0713 -1.42273,18.22742 1.98117,11.07117 4.7147,17.79436 11.46753,28.2085 3.1097,4.79576 3.27718,5.30208 3.12451,9.45922 -0.16905,4.60345 1.00719,7.88547 4.47583,12.48267 0.87535,1.16016 1.94041,3.41996 2.36646,5.02185 0.81128,3.05027 4.45569,6.95091 8.39905,8.99011 1.53893,0.79581 2.50331,2.16411 3.62109,5.13831 1.35055,3.59357 1.49575,5.16179 1.2843,13.83508 l -0.2384,9.78223 0.32739,0.0747 c -0.30977,0.19362 -0.54763,0.43276 -0.82397,0.73059 -0.79566,0.85753 -3.0105,2.137 -4.92188,2.84437 -1.91137,0.70735 -4.7417,1.98827 -6.28857,2.84655 -1.54688,0.85828 -4.8381,1.90426 -7.3136,2.32361 -3.09315,0.52399 -6.0067,1.67255 -9.31531,3.67163 -4.7249,2.85484 -13.20703,10.55009 -15.44128,14.00867 -0.62311,0.96457 -3.98625,3.44293 -7.474,5.50744 -4.68598,2.77378 -8.70388,6.05972 -15.39075,12.58924 -4.97703,4.8599 -10.47238,9.74624 -12.2124,10.85779 -1.74002,1.11153 -6.24901,2.97281 -10.01953,4.13635 -5.47282,1.68885 -7.67062,2.78818 -10.89844,5.45251 -2.22382,1.83561 -6.57532,5.14746 -9.66907,7.35974 -3.09375,2.21227 -9.73828,7.0263 -14.76562,10.69739 -11.06024,8.07647 -12.96998,8.7544 -18.969,6.72803 -5.62922,-1.90148 -10.74069,-1.87918 -15.2622,0.0659 -3.19018,1.37238 -3.85121,1.43641 -6.45777,0.63171 -4.52285,-1.3963 -8.78115,-1.71372 -9.95251,-0.74158 -0.58232,0.48328 -1.03821,2.03654 -1.03821,3.5376 0,3.42935 2.21218,5.27831 7.12134,5.95349 3.74621,0.51524 6.2381,2.26616 6.23803,4.38245 -6e-5,2.29448 -6.37954,12.54156 -11.46313,18.41199 -9.38675,10.83965 -9.99569,12.40609 -5.7843,14.89087 1.8455,1.08888 2.55239,2.06849 2.90368,4.01989 0.25544,1.41887 0.77872,2.9751 1.16236,3.4585 0.82596,1.04072 5.00641,1.16417 6.80603,0.20105 0.99868,-0.53448 1.65909,-0.2372 3.12341,1.40625 2.94272,3.3027 5.0705,2.85662 11.34229,-2.37854 5.68201,-4.74287 12.3536,-13.87319 16.76513,-22.94495 1.3229,-2.72035 3.91459,-6.28294 6.4336,-8.84179 3.6624,-3.72033 5.23873,-4.70927 11.95312,-7.49708 4.25391,-1.76622 10.70362,-4.2314 14.33277,-5.47888 8.40277,-2.88836 25.13479,-10.50788 29.06103,-13.23413 1.65713,-1.15066 5.70191,-4.8178 8.98901,-8.14966 4.47716,-4.53811 6.68217,-6.24843 8.78907,-6.81481 5.16315,-1.38798 15.61596,-8.59204 25.59045,-17.63855 2.47293,-2.24285 4.70716,-4.07813 4.96582,-4.07813 0.25866,0 1.20457,2.54009 2.10168,5.64477 0.89711,3.10466 2.68909,7.82466 3.98145,10.48865 1.29235,2.66401 3.32478,8.58776 4.51648,13.16382 1.19171,4.57606 2.60483,9.90198 3.14099,11.83557 1.35491,4.88614 1.49549,9.2236 0.79431,24.60938 -0.71463,15.68144 -1.76909,20.60955 -6.28637,29.38843 -4.4465,8.64129 -7.72514,20.30356 -6.56104,23.33715 0.35708,0.93053 5.06689,1.06348 37.71716,1.06348 30.09073,0 37.37856,-0.17856 37.66333,-0.92065 0.1942,-0.50608 2.67833,-2.8753 5.52064,-5.26575 6.46804,-5.43978 10.36102,-12.32039 12.07836,-21.34863 1.70779,-8.978 1.13988,-15.08598 -2.11157,-22.73841 -1.47883,-3.48046 -3.30593,-8.54296 -4.06054,-11.25 -0.75462,-2.70703 -2.83531,-8.02028 -4.62415,-11.80701 l -3.25305,-6.88512 1.26672,-3.72547 c 1.17426,-3.45464 1.18477,-3.88409 0.13623,-5.91174 -1.72935,-3.34421 -1.44057,-5.50147 0.97778,-7.28943 2.37499,-1.7559 2.50799,-2.55631 1.09534,-6.60938 -0.54679,-1.56879 -1.21657,-4.81195 -1.48755,-7.20703 -0.59565,-5.26484 0.27192,-5.66408 3.94629,-1.81823 1.33269,1.39488 4.79553,4.29172 7.69592,6.43689 2.90039,2.14516 6.39582,4.89974 7.76734,6.12158 1.3715,1.22184 5.48478,4.05668 9.14062,6.29956 3.65582,2.24288 7.67502,5.05352 8.93189,6.24573 3.81513,3.61889 22.49336,13.55573 30.59362,16.27624 2.79989,0.94035 7.93763,2.78379 11.4181,4.0968 3.48047,1.313 9.72726,3.57879 13.88122,5.03504 7.51098,2.63307 7.55716,2.66377 8.40454,5.49206 0.94268,3.1464 10.55692,14.28538 18.22852,21.11902 3.56454,3.17519 5.22326,4.13909 8.16834,4.75049 4.87938,1.01295 6.86425,0.6984 6.86425,-1.08875 0,-1.19271 0.58675,-1.45963 3.8595,-1.75781 3.85172,-0.35093 3.85877,-0.35663 4.44617,-3.16406 1.57347,-7.52028 1.48568,-8.39432 -1.03821,-10.32166 -3.60455,-2.75256 -9.19622,-8.27385 -12.43213,-12.27612 -3.83749,-4.7463 -3.92073,-7.16663 -0.34277,-9.89209 5.09058,-3.8777 5.96061,-5.00617 5.72717,-7.42456 -0.193,-1.99937 -0.4967,-2.30035 -2.51807,-2.49499 -1.26416,-0.12172 -4.02519,0.42538 -6.13586,1.21508 -4.42449,1.65541 -15.95553,3.76662 -21.09705,3.8628 -3.42283,0.064 -3.72904,-0.10677 -11.60156,-6.48743 -11.00883,-8.92261 -23.66291,-16.4495 -30.95508,-18.41199 -6.96337,-1.874 -10.26822,-4.80159 -21.33325,-18.89429 -3.61849,-4.60859 -8.68818,-10.01899 -12.08167,-12.89355 -3.21574,-2.72399 -6.24817,-5.92208 -6.73901,-7.10706 -0.81473,-1.96695 -3.5864,-5.48016 -9.10657,-11.54443 -1.17159,-1.28708 -5.05309,-3.70039 -8.9176,-5.5448 -3.76372,-1.79631 -8.66441,-4.62457 -10.89075,-6.28528 -3.17851,-2.37098 -7.25522,-4.40323 -11.6532,-5.85901 0.57549,-0.34674 1.08467,-0.76173 1.48536,-1.24804 4.88012,-5.92307 8.75725,-12.352 9.73828,-16.14771 0.84673,-3.27612 1.69284,-4.69589 4.13086,-6.93237 1.68627,-1.54688 3.5827,-3.66773 4.21435,-4.71314 1.53015,-2.53245 4.8063,-3.1023 9.61853,-1.67322 5.36796,1.59412 10.27648,1.48563 11.20386,-0.24719 0.40032,-0.74801 0.7273,-1.73889 0.7273,-2.20165 0,-0.46277 -2.83602,-3.59494 -6.30286,-6.96094 -6.96172,-6.75921 -8.7872,-9.97054 -9.82178,-17.276 -0.74779,-5.28038 -1.62865,-7.10445 -3.73755,-7.73987 -0.87053,-0.2623 -3.13188,-1.76518 -5.02514,-3.33985 -3.76641,-3.13259 -9.64442,-5.41845 -13.93177,-5.41845 -2.63953,0 -2.80498,0.1409 -4.41211,3.7749 -2.37452,5.36922 -5.49689,7.66192 -13.43298,9.86352 -7.83067,2.17236 -7.58923,2.16098 -12.6969,0.59986 -4.55516,-1.39225 -8.34125,-4.53666 -9.09887,-7.5553 -0.61097,-2.43427 0.72702,-7.89603 2.38842,-9.74817 1.75717,-1.9589 8.29342,-6.26895 13.44837,-8.86817 3.85945,-1.946 5.08015,-2.23633 8.29357,-1.96984 3.27663,0.27172 4.15688,0.69493 6.75111,3.24096 4.32751,4.24714 4.528,4.20734 16.63989,-3.2915 4.73875,-2.9339 4.55185,-5.26272 -0.62073,-7.72559 -1.82543,-0.86915 -2.62688,-1.80971 -3.09375,-3.63317 -0.88145,-3.44276 -1.58373,-4.08497 -5.81177,-5.31409 -3.04398,-0.88491 -3.84802,-1.45601 -4.43847,-3.14978 -0.767,-2.20023 -3.15648,-3.60166 -8.3584,-4.9043 -1.78709,-0.44751 -2.98828,-1.15622 -2.98828,-1.76221 0,-1.30222 -3.52416,-3.07876 -13.08912,-6.59838 -5.98895,-2.20376 -9.47965,-3.01383 -15.83239,-3.67603 -3.43991,-0.35857 -5.46415,-0.55493 -7.073,-0.52735 z"
       id="path4737" />
    <path
       style="fill:#d7ba8e;fill-opacity:0.71372549"
       d="m 347.73289,594.98933 c -1.1641,-3.0336 2.11466,-14.69556 6.56115,-23.33686 4.51729,-8.77887 5.57148,-13.70743 6.28611,-29.38888 0.70118,-15.38578 0.5613,-19.72325 -0.7936,-24.60938 -0.53616,-1.93359 -1.94989,-7.25968 -3.1416,-11.83574 -1.1917,-4.57606 -3.22412,-10.49974 -4.51647,-13.16374 -1.29236,-2.664 -3.08373,-7.38382 -3.98084,-10.48848 -0.89711,-3.10468 -1.84274,-5.64485 -2.1014,-5.64485 -0.25867,0 -2.4936,1.83505 -4.96653,4.0779 -9.97448,9.04652 -20.42681,16.25138 -25.58996,17.63936 -2.1069,0.56638 -4.31191,2.27589 -8.78906,6.814 -3.28711,3.33187 -7.33241,6.99939 -8.98954,8.15004 -3.92624,2.72624 -20.65768,10.34571 -29.06046,13.23407 -3.62914,1.24747 -10.07891,3.71323 -14.33282,5.47945 -6.71439,2.78781 -8.29072,3.77647 -11.95312,7.4968 -2.51901,2.55885 -5.11141,6.12111 -6.4343,8.84147 -4.41153,9.07175 -11.08242,18.20189 -16.76443,22.94476 -6.27179,5.23516 -8.39988,5.68146 -11.34259,2.37877 -1.46432,-1.64345 -2.12458,-1.94074 -3.12326,-1.40625 -1.79962,0.96311 -5.98012,0.83957 -6.80608,-0.20115 -0.38365,-0.4834 -0.90653,-2.0398 -1.16196,-3.45867 -0.3513,-1.95141 -1.05867,-2.93038 -2.90418,-4.01926 -4.21138,-2.48478 -3.60283,-4.05158 5.78392,-14.89123 5.08359,-5.87043 11.46371,-16.11762 11.46378,-18.41209 7e-5,-2.1163 -2.49211,-3.86695 -6.23832,-4.38219 -4.90916,-0.67518 -7.12102,-2.5245 -7.12102,-5.95385 0,-1.50106 0.45556,-3.05344 1.03788,-3.53673 1.17136,-0.97214 5.42932,-0.65498 9.95217,0.74132 2.60656,0.8047 3.26829,0.7399 6.45847,-0.63248 4.52152,-1.9451 9.63212,-1.96708 15.26134,-0.0656 5.99902,2.02636 7.90959,1.34878 18.96983,-6.72769 5.02734,-3.67109 11.67187,-8.48477 14.76562,-10.69704 3.09375,-2.21228 7.4445,-5.52419 9.66832,-7.3598 3.22783,-2.66433 5.42602,-3.76415 10.89883,-5.453 3.77052,-1.16354 8.27916,-3.02497 10.01918,-4.1365 1.74002,-1.11155 7.23578,-5.99728 12.21281,-10.85718 6.68687,-6.52952 10.70452,-9.81607 15.3905,-12.58984 3.48776,-2.06451 6.8512,-4.54284 7.47431,-5.50741 2.23425,-3.45858 10.7168,-11.15401 15.4417,-14.00885 3.30861,-1.99908 6.22217,-3.14739 9.31532,-3.67138 2.4755,-0.41936 5.76653,-1.4647 7.31341,-2.32298 1.54687,-0.85828 4.37635,-2.13926 6.28773,-2.84661 1.91137,-0.70736 4.12622,-1.98771 4.92187,-2.84524 1.41689,-1.52706 1.75763,-1.55591 16.56384,-1.40241 8.31445,0.0862 16.38281,0.47901 17.92968,0.87291 5.63516,1.43495 10.97781,3.87849 14.9365,6.83144 2.22633,1.66071 7.12729,4.48918 10.89102,6.28549 3.86451,1.84441 7.74616,4.25804 8.91775,5.54512 5.52018,6.06427 8.29133,9.57745 9.10606,11.5444 0.49083,1.18497 3.52347,4.38321 6.73922,7.1072 3.39348,2.87456 8.46276,8.28448 12.08125,12.89308 11.06503,14.0927 14.37053,17.02018 21.3339,18.89418 7.29216,1.9625 19.94641,9.48902 30.95524,18.41163 7.87253,6.38065 8.17873,6.55188 11.60156,6.48786 5.14152,-0.0962 16.67225,-2.20752 21.09674,-3.86293 2.11067,-0.7897 4.8719,-1.33623 6.13605,-1.21451 2.02138,0.19464 2.32492,0.4954 2.51792,2.49477 0.23344,2.41839 -0.63706,3.5468 -5.72765,7.4245 -3.57795,2.72546 -3.49388,5.14567 0.3436,9.89198 3.23591,4.00227 8.82756,9.52391 12.43212,12.27648 2.52389,1.92734 2.61177,2.80082 1.0383,10.3211 -0.5874,2.80742 -0.59542,2.81313 -4.44715,3.16406 -3.27274,0.29818 -3.85868,0.5651 -3.85868,1.75781 0,1.78715 -1.98551,2.10218 -6.86489,1.08923 -2.94508,-0.6114 -4.60319,-1.57592 -8.16773,-4.75111 -7.6716,-6.83364 -17.28606,-17.97243 -18.22874,-21.11882 -0.84738,-2.8283 -0.89376,-2.8586 -8.40473,-5.49167 -4.15396,-1.45625 -10.40031,-3.72199 -13.88078,-5.03499 -3.48047,-1.31301 -8.61894,-3.15667 -11.41883,-4.09702 -8.10027,-2.72051 -26.77771,-12.65752 -30.59284,-16.27641 -1.25687,-1.1922 -5.27635,-4.00273 -8.93217,-6.24561 -3.65584,-2.24288 -7.76912,-5.07765 -9.14062,-6.29949 -1.37152,-1.22184 -4.86671,-3.97666 -7.7671,-6.12183 -2.9004,-2.14516 -6.36384,-5.04157 -7.69653,-6.43646 -3.67437,-3.84584 -4.54121,-3.44631 -3.94557,1.81853 0.27098,2.39508 0.94005,5.63824 1.48685,7.20703 1.41265,4.05307 1.28023,4.85246 -1.09475,6.60836 -2.41836,1.78796 -2.70798,3.94532 -0.97862,7.28953 1.04853,2.02765 1.03867,2.45753 -0.13559,5.91217 l -1.26635,3.72553 3.25245,6.88494 c 1.78885,3.78672 3.86987,9.09979 4.62448,11.80682 0.75463,2.70703 2.58198,7.76953 4.0608,11.25 3.25145,7.65243 3.81844,13.76089 2.11065,22.73889 -1.71735,9.02824 -5.60976,15.90824 -12.07781,21.34802 -2.84231,2.39045 -5.32672,4.76032 -5.52092,5.2664 -0.28477,0.74209 -7.57212,0.92013 -37.66284,0.92013 -32.65028,0 -37.36072,-0.1328 -37.7178,-1.06332 z"
       id="path4615"
       inkscape:connector-curvature="0" />
    <path
       inkscape:connector-curvature="0"
       style="fill:#a5c4a4;fill-opacity:0.71372549"
       d="m 427.98283,337.28643 c -1.30078,-0.051 -2.23875,0.24967 -3.87048,0.98547 -2.04187,0.92076 -3.46096,2.31952 -4.35718,4.37037 -0.16998,-0.0193 -0.36029,-0.0297 -0.59655,-0.0297 -0.89175,0 -3.46282,1.18653 -5.71399,2.63672 -3.91509,2.52207 -4.09338,2.7646 -4.099,5.58326 -1.1e-4,0.0542 0.003,0.0934 0.003,0.14612 -0.11823,-2.52782 -0.59747,-3.23582 -2.54553,-5.3921 -5.22209,-5.78022 -11.61921,-7.07125 -17.38476,-3.50793 -1.39004,0.85909 -2.57,2.13207 -3.50794,3.62109 -0.84316,-0.62567 -2.80697,0.30015 -6.20728,2.60925 -4.83768,3.28521 -6.88647,6.79052 -6.9115,11.82679 -0.0137,2.76437 0.32702,3.4368 3.07398,6.06885 1.69907,1.628 4.46763,3.44748 6.15235,4.04297 3.72153,1.31545 7.8505,1.38815 11.14892,0.19775 2.27954,-0.82268 2.89754,-1.78103 1.79956,-3.27393 3.14428,1.1921 5.56075,0.69518 8.85169,-1.55566 3.94037,-2.69501 5.57336,-6.25896 5.57336,-12.16406 0,-0.51375 -0.003,-0.95451 -0.009,-1.37439 0.16912,2.21239 1.04996,2.68193 4.87793,3.59362 2.84622,0.67788 4.35772,0.59531 5.07458,-0.56359 0.3884,0.47606 0.96232,0.92027 1.82264,1.56555 1.44413,1.08315 3.76828,3.15637 5.16467,4.60657 2.38192,2.47371 2.80084,2.63672 6.77197,2.63672 4.93327,0 7.1622,-1.34827 9.36365,-5.66346 2.03274,-3.98449 1.78426,-7.80665 -0.82397,-12.70019 -2.54344,-4.77197 -5.09781,-6.63838 -10.6897,-7.81129 -1.27046,-0.26647 -2.18144,-0.42422 -2.96192,-0.45483 z"
       id="path4941" />
    <path
       style="fill:#a5c4a4;fill-opacity:0.71372549"
       d="m 392.55972,366.02667 c -4.88964,-2.72697 -6.19667,-3.93627 -7.9344,-7.34115 -2.62859,-5.15039 -0.21531,-13.51144 4.79333,-16.60694 5.76556,-3.56332 12.16219,-2.2727 17.38429,3.50753 2.47158,2.73574 2.58875,3.09175 2.58875,7.86534 0,5.9051 -1.63289,9.46901 -5.57326,12.16402 -4.0795,2.79018 -6.81398,2.89005 -11.25871,0.4112 z m 33.76287,-4.74714 c -1.39639,-1.45019 -3.72045,-3.52294 -5.16458,-4.60609 -2.5787,-1.93413 -2.62542,-2.05368 -2.61025,-6.67969 0.0213,-6.49418 1.66883,-9.96454 5.56464,-11.72131 2.61077,-1.17729 3.44431,-1.24213 6.83221,-0.53152 5.59189,1.17291 8.1469,3.03999 10.69033,7.81195 2.60823,4.89355 2.85598,8.71544 0.82325,12.69993 -2.20145,4.31519 -4.43066,5.66345 -9.36394,5.66345 -3.97113,0 -4.38974,-0.163 -6.77166,-2.63672 z"
       id="path4873"
       inkscape:connector-curvature="0" />
    <path
       style="display:inline;fill:#000000"
       d="m 346.41987,590.45377 c 0.46657,-5.02019 4.30743,-16.12582 6.81009,-19.69102 2.09158,-2.97958 4.23169,-9.90765 4.55318,-14.73974 1.53094,-23.01076 1.80391,-30.944 1.18548,-34.45313 -1.40759,-7.98705 -5.94382,-23.731 -8.20482,-28.47656 -2.68852,-5.64289 -4.60152,-11.04361 -4.60152,-12.99088 0,-2.47224 -1.51564,-2.31097 -4.46012,0.47458 -9.85194,9.32017 -23.14756,18.49286 -26.80498,18.49286 -0.59262,0 -4.63732,3.33862 -8.98823,7.41914 -6.96118,6.52859 -8.83911,7.86916 -15.64511,11.16835 -10.6801,5.17716 -16.3059,7.53194 -25.3125,10.595 -4.2539,1.44671 -10.70994,4.09456 -14.34674,5.88411 -5.63014,2.77039 -7.11127,3.88039 -9.97093,7.47247 -1.8472,2.32031 -4.6722,6.75 -6.27778,9.84375 -3.68103,7.0929 -9.48409,14.73912 -15.02733,19.80025 -6.73809,6.15207 -9.67001,6.86419 -12.41123,3.01452 -1.33043,-1.86844 -1.5106,-1.92116 -3.32692,-0.97364 -4.4224,2.30703 -7.89688,0.36884 -7.89688,-4.40517 0,-1.95186 -0.40267,-2.49563 -2.72578,-3.68078 -1.49918,-0.76483 -2.89426,-1.82964 -3.10017,-2.36625 -0.60199,-1.56875 1.84978,-6.22454 5.00995,-9.51364 4.82521,-5.02207 7.70175,-8.79156 11.38286,-14.91635 4.63163,-7.70632 4.54257,-10.49394 -0.33639,-10.52907 -2.87065,-0.0206 -7.82481,-2.33589 -8.76748,-4.09731 -1.33493,-2.49434 -0.93188,-6.2339 0.80284,-7.44894 2.03655,-1.42646 3.78401,-1.35109 7.22636,0.31169 3.61651,1.7469 6.06799,1.7469 9.49219,0 3.31595,-1.69167 7.44454,-1.77928 12.65625,-0.26859 8.73103,2.53082 10.04783,2.10003 22.85156,-7.4759 4.25391,-3.18149 10.02955,-7.33887 12.83476,-9.23861 2.80521,-1.89973 6.68457,-4.86104 8.6208,-6.58069 4.33038,-3.84599 6.21521,-4.84126 12.4296,-6.56335 7.76124,-2.15075 10.45711,-3.93743 20.21057,-13.39446 10.42552,-10.10867 12.93151,-12.15486 19.44182,-15.87467 2.95791,-1.69008 5.07204,-3.46463 5.85113,-4.91131 1.30396,-2.42131 6.97669,-7.68375 12.72471,-11.80438 4.22144,-3.02626 10.10127,-5.45172 13.20561,-5.44739 1.24252,0.001 4.63217,-1.13591 7.53256,-2.52809 2.90039,-1.39218 6.06445,-2.91113 7.03125,-3.37545 1.54156,-0.74035 1.76631,-1.316 1.82687,-4.67894 0.038,-2.1091 0.29963,-6.68239 0.58145,-10.16286 0.66231,-8.17967 -0.87855,-13.43939 -4.43929,-15.15342 -3.63768,-1.7511 -7.72613,-6.18086 -8.64793,-9.36992 -0.4608,-1.5942 -1.61792,-3.84775 -2.57138,-5.00791 -3.63272,-4.42027 -6.0775,-11.5749 -4.32526,-12.65785 1.4754,-0.91184 -0.0612,-4.4944 -5.79461,-13.50971 -3.92152,-6.16632 -6.76109,-13.49459 -8.32855,-21.49409 -1.7344,-8.85149 -1.70131,-13.24616 0.14079,-18.70092 2.17715,-6.44689 5.06721,-9.84132 10.74748,-12.6231 8.83872,-4.32857 18.65137,-3.86049 33.81824,1.61318 9.51224,3.43293 12.05958,4.70658 13.53129,6.76556 0.48126,0.67331 2.15337,1.44018 3.7158,1.70415 3.2467,0.54852 7.01073,3.37637 7.01073,5.26703 0,0.93457 1.04869,1.60816 3.89998,2.505 4.21728,1.3265 6.64689,3.66558 6.64689,6.39923 0,1.15737 0.56207,1.89409 1.80586,2.36698 3.1551,1.19956 6.82087,4.3521 5.79667,4.98509 -0.56586,0.34972 -1.57439,-0.0479 -2.67354,-1.05408 -0.97071,-0.88861 -2.77032,-2.01139 -3.99913,-2.49509 -1.81454,-0.71427 -2.32012,-1.38807 -2.69168,-3.58729 -0.56247,-3.32928 -1.0717,-3.7627 -6.14833,-5.23315 -3.47714,-1.00715 -4.04297,-1.40779 -4.04297,-2.86275 0,-2.21227 -2.52131,-3.82594 -7.59583,-4.86142 -3.07771,-0.62802 -3.95948,-1.08528 -3.80611,-1.97372 0.25116,-1.45483 -1.52547,-2.37439 -12.24589,-6.33834 -9.97539,-3.68847 -20.53014,-5.34238 -25.71302,-4.02918 -9.6876,2.45458 -13.78518,6.19988 -17.05517,15.58894 -1.42711,4.09763 -1.33279,6.5099 0.63628,16.27331 1.86356,9.24025 4.48494,15.43227 10.7109,25.30046 3.81227,6.04246 3.88649,6.25843 3.42371,9.96236 -0.51444,4.11742 0.47834,6.84832 4.51569,12.42173 1.08441,1.49698 2.16865,3.77186 2.40942,5.0553 0.4805,2.56123 3.60686,5.92999 7.45439,8.03233 4.48443,2.45035 5.27344,5.20634 5.27344,18.41991 0,6.3538 -0.31641,12.15853 -0.70313,12.89939 -0.38686,0.74116 -2.94675,2.2131 -5.69132,3.27251 -2.74351,1.05901 -5.74066,2.45252 -6.66035,3.0967 -0.91969,0.64417 -2.3263,1.17122 -3.1258,1.17122 -3.23181,0 -9.62369,2.21597 -13.47983,4.67327 -4.69939,2.99464 -12.58375,10.30565 -13.94421,12.93017 -0.52485,1.01255 -3.66748,3.40691 -7.27198,5.54053 -4.67035,2.76452 -9.00593,6.30405 -16.40741,13.39485 -10.87779,10.42121 -13.79544,12.58542 -19.20035,14.24222 -1.93359,0.59272 -4.93859,1.50937 -6.6778,2.037 -1.87613,0.56917 -5.16465,2.64046 -8.08594,5.09296 -2.70806,2.2735 -6.82219,5.42413 -9.14251,7.0014 -2.32031,1.57727 -7.69921,5.43727 -11.95312,8.57777 -14.14767,10.44471 -15.13987,10.77343 -24.60938,8.15318 -6.13236,-1.69686 -8.10247,-1.58217 -12.92506,0.7524 -3.27136,1.58364 -4.65322,1.46815 -10.32984,-0.86341 -3.0572,-1.25569 -5.92478,-0.41166 -5.92478,1.74386 0,3.83367 2.02403,5.46792 7.8146,6.30969 2.12206,0.30848 3.81398,1.07801 4.89119,2.22466 1.46597,1.56046 1.55654,1.99246 0.82436,3.93221 -1.75843,4.65861 -6.86966,12.6178 -11.49784,17.90441 -8.78501,10.03479 -9.73732,12.15608 -6.09086,13.56749 1.36813,0.52956 2.18171,0.0474 5.66405,-3.35673 2.23655,-2.18632 5.33564,-6.11086 6.88687,-8.72121 2.55274,-4.29565 4.16388,-5.87197 4.16388,-4.07391 0,1.5295 -4.65656,8.39574 -8.93839,13.17993 -4.53992,5.07256 -4.57806,5.14956 -4.10709,8.29025 0.45982,3.06627 0.55632,3.17013 2.94545,3.17013 2.04332,0 3.19345,-0.69001 6.65737,-3.99402 2.49053,-2.37556 5.3517,-6.10338 7.0608,-9.1995 1.77759,-3.22021 3.12362,-4.95534 3.52934,-4.54962 0.95212,0.95212 -3.21535,8.24075 -7.2628,12.70215 -1.87017,2.06144 -3.40031,3.97932 -3.40031,4.26195 0,0.28263 0.66871,1.23164 1.48601,2.10892 1.12511,1.20767 1.93623,1.48333 3.33984,1.13507 4.94843,-1.22779 16.13265,-14.14423 21.72035,-25.08441 4.49881,-8.80822 8.91252,-13.39823 16.47691,-17.13503 3.43987,-1.69929 10.5917,-4.57695 15.89294,-6.39481 5.30125,-1.81785 13.2307,-4.99238 17.62101,-7.0545 4.39029,-2.06213 8.18717,-3.75068 8.4375,-3.75233 1.35762,-0.009 7.50377,-4.94061 13.52796,-10.85474 4.00739,-3.93418 7.42388,-6.72038 8.24068,-6.72038 3.52913,0 15.18581,-7.728 24.68963,-16.36842 2.88376,-2.62178 6.60571,-5.62764 8.27101,-6.67969 1.66529,-1.05206 2.926,-2.22012 2.80155,-2.5957 -0.12444,-0.37557 -1.53289,-1.32479 -3.12988,-2.10937 -1.59699,-0.78458 -2.91839,-1.82201 -2.93644,-2.30541 -0.0489,-1.30957 0.7641,-1.09073 4.31586,1.16173 4.57896,2.90389 4.76779,3.5159 1.82075,5.90113 l -2.52158,2.04089 1.62779,5.91651 c 0.89529,3.25407 2.27136,7.00726 3.05793,8.3404 1.6852,2.85622 4.08162,10.18654 7.08018,21.65735 2.46039,9.41213 2.67568,14.69674 1.43381,35.19509 -0.78135,12.89698 -1.77903,16.98461 -6.03984,24.74628 -2.85654,5.20359 -5.58061,13.39385 -6.24973,18.79062 -0.74005,5.96887 -2.05253,5.17389 -1.4879,-0.90127 z m 32.17843,2.27463 c -6.6703,-5.6541 -11.34227,-10.24618 -11.34227,-11.14835 0,-1.70358 1.21448,-1.00318 3.9628,2.28537 1.48605,1.77816 3.4963,3.6543 4.46721,4.16919 0.97092,0.5149 3.34734,2.36812 5.28093,4.11828 2.73717,2.47749 3.20424,3.1818 2.10937,3.18067 -0.77343,-5.6e-4 -2.78855,-1.17309 -4.47804,-2.60516 z m 37.87648,1.97989 c 0,-0.77968 3.37154,-1.79809 3.97035,-1.19931 0.21407,0.21409 0.18066,0.7267 -0.0743,1.13912 -0.58189,0.94151 -3.8961,0.9927 -3.8961,0.0602 z m 11.0426,-5.4765 c 5.11809,-4.85412 6.92293,-7.10759 8.62611,-10.77035 2.68108,-5.76576 4.20943,-12.80516 4.22534,-19.4614 0.0109,-4.57157 -0.38564,-6.08765 -3.77032,-14.41407 -2.08039,-5.11784 -3.99361,-10.49408 -4.25162,-11.94722 -0.25799,-1.45313 -1.87813,-5.65763 -3.60028,-9.34332 -3.47456,-7.4361 -3.547,-7.85615 -2.08071,-12.0648 0.89499,-2.56888 0.89837,-3.2141 0.0257,-4.92188 -0.55237,-1.08098 -1.16876,-2.51914 -1.36975,-3.1959 -0.25646,-0.86345 -1.08893,-1.23047 -2.79096,-1.23047 -3.01757,0 -4.64989,-0.59752 -4.64989,-1.70212 0,-0.59781 1.19466,-0.76305 4.04297,-0.55921 3.35909,0.24039 4.37005,0.0312 5.97656,-1.23663 2.1936,-1.73116 2.36464,-2.76957 0.91727,-5.56849 -1.28835,-2.4914 -2.64116,-12.39348 -2.50727,-18.35235 0.11417,-5.08127 1.23661,-7.03432 4.04273,-7.03432 2.06651,0 1.80367,1.65782 -0.31253,1.97124 -1.05558,0.15634 -1.55602,0.90869 -1.87079,2.8125 -0.89134,5.39119 -0.67824,5.8808 4.66513,10.71816 2.79675,2.53191 6.35062,5.53039 7.8975,6.6633 1.54687,1.1329 4.39453,3.36954 6.32812,4.97028 1.93359,1.60076 6.83789,4.9867 10.89844,7.52431 4.06055,2.53761 8.31213,5.58587 9.44796,6.7739 1.13582,1.18803 2.36138,2.16006 2.72345,2.16006 0.36207,0 2.91323,1.36367 5.66923,3.03037 5.27459,3.18983 15.74776,8.35664 18.72356,9.23705 1.59926,0.47314 28.65264,10.07131 33.21791,11.78525 1.40967,0.52923 2.16157,1.50839 2.78676,3.62903 1.24574,4.2255 12.49483,16.91435 20.59519,23.23114 2.20974,1.7232 11.386,4.14541 11.99169,3.16539 0.19296,-0.31221 -1.08949,-1.61242 -2.84989,-2.88935 -10.40974,-7.55089 -12.09492,-9.03448 -12.02521,-10.58662 0.0544,-1.21193 2.81553,-6.79326 4.39411,-8.88236 0.11317,-0.14975 1.08517,0.65288 2.16002,1.78363 2.26286,2.38053 15.20278,11.49647 16.31906,11.49647 0.41383,0 0.75241,-0.29053 0.75241,-0.64562 0,-0.35509 0.193,-1.14857 0.4289,-1.7633 0.29978,-0.78124 -1.31707,-2.75636 -5.37125,-6.56141 -8.08114,-7.58456 -13.3389,-13.92098 -13.3389,-16.07546 0,-1.04047 0.79221,-2.46175 1.93359,-3.46899 5.65818,-4.99321 7.91016,-7.2562 7.91016,-7.94879 0,-0.4233 -0.76093,-1.26822 -1.69095,-1.87759 -1.57904,-1.03463 -1.98624,-0.98324 -6.15234,0.77637 -2.66608,1.12607 -6.30055,2.01516 -9.03171,2.2094 -2.51367,0.17878 -5.90933,0.81215 -7.5459,1.40747 -1.82358,0.66334 -4.28563,0.95652 -6.35936,0.75726 -2.9986,-0.28813 -4.14056,-0.95967 -10.03222,-5.89955 -9.92093,-8.31825 -27.99481,-19.24338 -31.90326,-19.28461 -4.59723,-0.0485 -11.55791,-5.99526 -19.73408,-16.85956 -2.18276,-2.90039 -7.8243,-9.07247 -12.53676,-13.71573 -4.71246,-4.64326 -9.20092,-9.44199 -9.97436,-10.66383 -5.51749,-8.71634 -9.57104,-12.25173 -18.06192,-15.75309 -2.75543,-1.13625 -6.3282,-3.14618 -7.9395,-4.46651 -3.88022,-3.17956 -11.45794,-6.85004 -12.0763,-5.84951 -0.25685,0.41559 -0.66194,1.7088 -0.90021,2.87379 -0.55871,2.73177 -2.15488,3.34616 -2.15488,0.82944 0,-2.29648 0.79739,-3.83213 3.54572,-6.82844 3.20568,-3.49495 8.69671,-11.83626 9.66318,-14.67916 0.46948,-1.38097 0.8536,-3.32946 0.8536,-4.32996 0,-1.3869 0.74137,-2.28814 3.12031,-3.79318 2.6237,-1.65987 5.18587,-4.85511 4.46461,-5.56772 -0.11116,-0.10983 -1.49718,0.0377 -3.08004,0.32783 -1.8332,0.33602 -4.13044,0.18428 -6.32813,-0.41797 -1.8976,-0.52004 -6.61425,-1.53542 -10.48144,-2.2564 -7.00671,-1.30631 -11.81177,-2.93691 -12.64967,-4.29265 -0.63008,-1.01952 1.29039,-0.88147 4.37372,0.31436 1.45802,0.56547 5.49861,1.52647 8.97908,2.13556 3.48046,0.60908 7.69119,1.60342 9.35717,2.20964 2.15873,0.78553 3.97696,0.95225 6.32813,0.58022 1.81449,-0.2871 4.09009,-0.58547 5.05688,-0.66305 0.9668,-0.0776 2.39738,-0.3488 3.17907,-0.60275 0.78168,-0.25394 3.62833,0.16946 6.32588,0.94089 6.0633,1.73395 9.18644,1.80127 10.07297,0.21715 0.98601,-1.7619 -0.22168,-3.71094 -4.23019,-6.8269 -4.29154,-3.33597 -8.62001,-8.68546 -9.71684,-12.00888 l -0.81292,-2.46318 -1.82126,2.16445 c -2.10924,2.50669 -2.00021,2.51278 -12.672,-0.70672 -3.9679,-1.19704 -8.18665,-2.17645 -9.37501,-2.17645 -1.41413,0 -2.06063,-0.30366 -1.87119,-0.8789 0.52012,-1.57934 3.15958,-1.35583 10.87065,0.9205 10.66964,3.14973 11.17416,3.20713 12.15068,1.38249 0.69246,-1.29389 0.42409,-2.36051 -1.74113,-6.91985 -2.84087,-5.98205 -5.26417,-9.46911 -7.68095,-11.05265 -1.93921,-1.27061 -8.85648,-3.13909 -11.62121,-3.13909 -1.77833,0 -3.29514,-1.43327 -2.43116,-2.29726 0.17896,-0.17895 1.81829,-0.0235 3.64297,0.3455 1.82467,0.36898 4.19256,0.79525 5.26197,0.94728 5.07158,0.72097 10.03116,5.37695 14.01334,13.15555 2.66796,5.21149 3.49338,5.11066 1.6204,-0.19794 -1.25576,-3.5592 -1.25185,-3.51563 -0.31568,-3.51563 1.06914,0 2.78647,4.49791 3.56642,9.34095 0.9076,5.63565 2.75844,9.01517 7.11555,12.99254 6.50263,5.93589 8.26672,7.9729 8.25576,9.53298 -0.029,4.11903 -4.07191,5.19951 -11.69838,3.12641 -4.98672,-1.35555 -5.43993,-1.37263 -7.70894,-0.29062 -1.32591,0.63228 -2.70722,1.92939 -3.06957,2.88245 -0.36236,0.95308 -1.86372,2.53022 -3.33637,3.50477 -2.27431,1.50507 -2.81835,2.37752 -3.61246,5.79318 -0.92601,3.98302 -4.32314,9.73942 -8.66815,14.68812 -1.18835,1.35346 -2.03943,2.56943 -1.89129,2.70216 0.14815,0.13274 2.02139,1.06246 4.16275,2.06606 2.14137,1.0036 5.18437,2.92976 6.76223,4.28035 1.57787,1.35059 4.61807,3.11009 6.75602,3.91 5.62173,2.10336 11.69942,6.27215 14.93211,10.24217 1.54687,1.8997 3.35308,3.99833 4.01379,4.66363 0.66072,0.66529 1.8283,2.40929 2.59465,3.87553 0.76634,1.46624 4.54422,5.58513 8.39528,9.15311 3.85106,3.56797 9.13804,9.26328 11.74885,12.65625 7.97554,10.36491 12.48555,14.58549 17.08072,15.98457 9.72752,2.96174 24.10296,11.43174 35.17094,20.72269 7.02223,5.89477 8.82322,6.41676 14.9734,4.33981 2.40974,-0.81378 5.98106,-1.48711 7.93624,-1.49629 2.1402,-0.0101 5.23374,-0.70829 7.77363,-1.75455 5.28416,-2.17676 6.72754,-2.18097 8.75249,-0.0255 2.6742,2.84656 0.80441,6.4292 -5.37635,10.30141 -3.75866,2.35478 -3.61105,3.54441 1.16505,9.38937 2.35573,2.88293 6.67394,7.38994 9.59603,10.01559 5.10095,4.58343 5.29529,4.8723 4.87168,7.24073 -0.24267,1.35675 -0.61712,3.81773 -0.83211,5.46885 -0.47904,3.67902 -2.00747,4.68215 -6.08453,3.99334 -2.64329,-0.44659 -2.82983,-0.38504 -1.97064,0.65021 0.79143,0.95363 0.79331,1.3311 0.0113,2.27338 -1.06581,1.28424 -4.1998,1.05499 -10.19605,-0.74582 -3.05694,-0.91806 -4.87115,-2.35039 -12.44192,-9.82293 -9.69817,-9.57233 -13.15897,-13.84465 -13.15897,-16.24458 0,-1.77911 -0.97625,-2.74604 -3.51562,-3.48202 -7.50092,-2.17395 -37.3882,-13.53294 -42.1875,-16.0338 -11.72221,-6.10834 -15.83688,-8.5322 -17.01645,-10.02403 -0.65788,-0.83203 -4.47802,-3.5852 -8.48917,-6.11814 -6.86168,-4.33296 -18.4671,-13.07806 -26.01466,-19.60294 l -3.3562,-2.90145 0.46063,4.12995 c 0.25334,2.27148 0.89352,5.19692 1.42261,6.50098 1.54887,3.81752 1.23162,5.88367 -1.14739,7.47273 -2.41626,1.61394 -2.67307,3.47415 -0.90492,6.55497 1.13729,1.98161 1.13717,2.31201 -0.002,5.92572 l -1.20639,3.8271 3.43718,7.31485 c 1.89046,4.02317 3.65577,8.63823 3.92292,10.25568 0.26716,1.61747 2.04233,6.61389 3.94483,11.10317 1.9025,4.48928 3.64636,9.81044 3.87524,11.8248 0.65927,5.80212 -1.30718,15.87315 -4.37645,22.41365 -2.25871,4.81323 -3.55585,6.49084 -8.66178,11.20241 -3.30289,3.04779 -6.47986,5.53804 -7.05994,5.53393 -0.58007,-0.006 1.85785,-2.76978 5.4176,-6.14594 z m 143.29334,-29.33323 c 0,-0.99192 -2.54927,-3.18465 -8.77782,-7.55017 l -8.77781,-6.15228 -1.76906,2.26045 c -0.97298,1.24324 -1.76906,2.58417 -1.76906,2.97985 0,1.18975 11.38159,9.38445 13.50078,9.72051 1.08239,0.17165 3.23359,0.27326 4.78047,0.22581 2.30921,-0.0708 2.8125,-0.33643 2.8125,-1.48417 z m -157.7549,3.33632 c -0.89667,-1.67545 0.0963,-3.33933 1.6395,-2.74716 0.71673,0.27503 1.08718,1.04762 0.94988,1.98098 -0.29499,2.00514 -1.70329,2.42185 -2.58938,0.76618 z M 213.7769,550.34143 c -1.44522,-1.19126 -2.44483,-2.4618 -2.22134,-2.82341 0.50996,-0.82514 5.89945,2.91708 5.91983,4.11046 0.0233,1.36469 -0.8503,1.06068 -3.69849,-1.28705 z m 6.77712,-7.33445 c -0.84227,-2.19493 2.48115,-9.79858 3.73483,-8.5449 0.26666,0.26665 -0.0465,1.59902 -0.69586,2.9608 -0.64939,1.36178 -1.18071,3.23757 -1.18071,4.16843 0,2.05834 -1.24707,3.00839 -1.85826,1.41567 z m 321.69316,-5.21248 c -0.41454,-1.18916 -1.03916,-2.16212 -1.38806,-2.16212 -0.34888,0 -0.63434,-0.4746 -0.63434,-1.05468 0,-2.29131 2.90283,-0.0612 3.81263,2.9291 0.7403,2.43323 -0.94772,2.7045 -1.79023,0.2877 z M 368.13494,516.76087 c -3.11597,-1.17222 -4.37504,-3.44365 -1.40625,-2.53695 3.53762,1.08042 6.15234,2.39423 6.15234,3.09133 0,0.95419 -1.0675,0.8295 -4.74609,-0.55438 z m 30.45756,0.66697 c -1.21887,-1.97218 10.37326,-6.52372 15.0257,-5.89969 4.224,0.56656 3.80655,1.97915 -0.48225,1.63188 -2.1996,-0.17811 -9.21776,1.92946 -11.89846,3.57311 -1.284,0.78728 -2.4057,1.08189 -2.64499,0.6947 z m -27.64506,-5.86678 c -4.72119,-1.95837 -6.44004,-3.35055 -4.13673,-3.35055 1.1457,0 8.15836,2.7757 9.41017,3.72466 0.96006,0.7278 1.19579,1.94839 0.35156,1.82038 -0.29004,-0.0439 -2.82129,-1.0315 -5.625,-2.19449 z m -1.23047,-7.53088 c -2.48382,-1.01661 -3.68087,-3.07536 -5.17447,-8.89934 -0.80354,-3.13327 -1.77526,-6.52343 -2.15936,-7.5337 -0.69881,-1.83799 0.11784,-3.32324 1.02244,-1.85955 0.80948,1.30976 3.85045,11.36112 3.85045,12.72694 0,0.71966 0.67124,1.97972 1.49165,2.80012 1.56953,1.56954 3.66534,1.59413 16.26226,0.19085 3.54577,-0.39499 4.04297,-0.29988 4.04297,0.77338 0,0.8801 -0.39735,1.11986 -1.41495,0.85374 -0.77822,-0.2035 -3.54666,0.076 -6.15208,0.62112 -5.21361,1.09083 -9.60379,1.21261 -11.76891,0.32644 z m 1.75781,-5.31186 c 0,-0.58008 0.31641,-1.05469 0.70313,-1.05469 0.38672,0 0.70312,0.47461 0.70312,1.05469 0,0.58008 -0.3164,1.05469 -0.70312,1.05469 -0.38672,0 -0.70313,-0.47461 -0.70313,-1.05469 z m 80.07128,-4.04688 c -2.56042,-2.02812 -5.56627,-4.36259 -6.67969,-5.18771 -2.21003,-1.63777 -1.95871,-2.94574 0.33058,-1.72055 2.50929,1.34292 12.05908,9.18998 12.05908,9.90892 0,1.25618 -0.99802,0.73171 -5.70997,-3.00066 z m -27.59039,2.50433 c -0.79185,-0.79185 -0.48227,-1.62151 0.60505,-1.62151 0.58008,0 1.05469,0.29773 1.05469,0.66163 0,0.88662 -1.09799,1.52163 -1.65974,0.95988 z m -105.91839,-9.54516 c 0,-0.4908 1.97754,-1.95933 4.39453,-3.26338 2.417,-1.30405 5.41812,-3.333 6.66916,-4.50877 1.25104,-1.17577 2.49548,-1.91691 2.76541,-1.64698 1.06074,1.06074 -2.61243,4.47983 -7.86747,7.32325 -6.26831,3.39168 -5.96163,3.28387 -5.96163,2.09588 z m 83.3191,-2.0213 c -0.67493,-1.75883 -0.0514,-16.76652 0.70434,-16.95241 0.95186,-0.23414 1.33365,16.35277 0.39794,17.28848 -0.46911,0.46912 -0.83626,0.35719 -1.10228,-0.33607 z m -7.3816,-38.98082 c -0.9668,-0.53645 -2.54883,-0.98435 -3.51562,-0.99534 -2.60898,-0.0296 -4.92188,-0.77204 -4.92188,-1.57984 0,-1.10543 8.38934,0.0782 10.27887,1.45016 2.97537,2.16043 1.57098,3.01848 -1.84137,1.12502 z m 8.4375,-0.17188 c 0,-0.82316 4.03204,-4.33985 4.97583,-4.33985 1.45675,0 0.49402,1.8469 -1.64043,3.14699 -3.15214,1.91997 -3.3354,1.98551 -3.3354,1.19286 z m -4.20708,-12.54298 c 0.0304,-1.52521 3.41963,-9.69845 4.11829,-9.93134 0.43556,-0.14518 0.77311,0.1579 0.75012,0.67354 -0.0867,1.94392 -3.15856,9.28081 -4.00117,9.55634 -0.4834,0.15807 -0.87365,0.0237 -0.86724,-0.29854 z m -6.33979,-3.19922 c 0,-1.3084 -0.34842,-2.72731 -0.77426,-3.15315 -1.0197,-1.01971 -0.11287,-5.132 1.13171,-5.132 0.59473,0 0.96157,0.85282 0.98297,2.28516 0.0188,1.25683 0.12036,3.52123 0.22576,5.032 0.1198,1.71724 -0.13781,2.85931 -0.68728,3.04687 -0.58905,0.20109 -0.8789,-0.48448 -0.8789,-2.07888 z m -10.12009,-0.25672 c -1.12434,-2.92999 -0.0387,-11.54406 1.45489,-11.54406 0.772,0 0.87938,0.59001 0.47987,2.63672 -0.28307,1.4502 -0.49938,4.29785 -0.48067,6.32813 0.0334,3.6265 -0.61254,4.77225 -1.45409,2.57921 z m -17.92538,-39.37608 c -0.86418,-1.09862 -1.48578,-2.90998 -1.48578,-4.32958 0,-1.61747 -0.67718,-3.30493 -2.00764,-5.00284 -2.74986,-3.50935 -3.79678,-5.65071 -3.34201,-6.83581 0.55373,-1.443 1.83402,-1.2298 1.83402,0.3054 0,0.71782 1.13636,2.79338 2.52524,4.61233 1.69282,2.21702 2.67898,4.3943 2.99165,6.60502 0.35184,2.48768 0.85488,3.4686 2.04772,3.99302 1.73134,0.76119 1.73942,1.99476 0.0152,2.32931 -0.60096,0.11662 -1.76126,-0.63797 -2.57845,-1.67685 z m 23.75221,0.58593 c -0.20218,-1.43104 0.28552,-4.87713 0.8361,-5.90784 0.34132,-0.63896 2.15436,-2.28764 4.02898,-3.66374 3.20404,-2.35198 3.99659,-3.58141 6.52119,-10.11592 0.67986,-1.75971 2.04761,-2.14292 2.04761,-0.57369 0,0.55459 -0.81729,2.89287 -1.81621,5.19619 -1.38292,3.18874 -2.59909,4.74282 -5.09766,6.51405 -3.97778,2.81984 -4.07693,2.95634 -4.62164,6.36276 -0.23883,1.49354 -0.7469,2.71553 -1.12905,2.71553 -0.38215,0 -0.72834,-0.2373 -0.76932,-0.52734 z m -16.80049,-49.66428 c 0,-1.58808 5.44906,-6.05838 7.38483,-6.05838 2.35006,0 2.22966,1.1035 -0.2133,1.95512 -1.08301,0.37754 -2.90131,1.67411 -4.04069,2.88128 -2.2547,2.38886 -3.13084,2.73083 -3.13084,1.22198 z m -22.26387,-9.97282 c -0.50744,-1.3224 0.73684,-2.76446 1.81198,-2.09998 1.15896,0.71628 0.91648,3.20192 -0.31236,3.20192 -0.59222,0 -1.26705,-0.49587 -1.49962,-1.10194 z m 16.63887,-0.0354 c 0,-1.47705 5.11992,-6.59697 6.59696,-6.59697 1.78151,0 1.33132,1.90826 -0.56232,2.38353 -0.93486,0.23464 -2.3845,1.53457 -3.22141,2.88873 -1.6229,2.62591 -2.81323,3.18641 -2.81323,1.32471 z m -15.83411,-10.83805 c -0.27307,-0.44183 -0.16563,-1.13417 0.23873,-1.53854 0.94493,-0.94494 3.14799,-0.12072 2.76355,1.0339 -0.39136,1.1754 -2.38104,1.50984 -3.00228,0.50464 z"
       id="path4217"
       inkscape:connector-curvature="0" />
    <path
       style="fill:#000000"
       d="m 381.3372,369.90616 c -2.72058,-1.10487 -5.15135,-2.74983 -6.84486,-4.63209 l -2.6261,-2.91879 -7.37607,2.8932 c -4.05682,1.59126 -8.63724,3.55057 -10.17869,4.35402 -2.92725,1.52576 -5.0055,1.58434 -5.48156,0.1545 -0.2963,-0.88995 4.9842,-3.94756 5.65645,-3.27529 0.38421,0.38419 15.82391,-5.12632 16.79229,-5.99325 0.26858,-0.24045 0.6799,-1.52966 0.91405,-2.86492 0.7312,-4.16976 3.07316,-7.36532 7.6171,-10.39334 6.39408,-4.26092 14.17808,-7.92327 16.8028,-7.90567 3.09144,0.0208 7.46857,2.13104 9.99285,4.81777 1.13583,1.20892 2.347,2.19804 2.6915,2.19804 0.3445,0 4.29934,-2.22539 8.78854,-4.94531 7.8073,-4.73029 8.3017,-4.92484 11.37099,-4.47448 6.8352,1.00293 10.08449,3.29793 13.35389,9.43194 1.93234,3.62545 2.26524,4.8922 1.97119,7.50094 -0.36714,3.25733 -2.79979,6.97427 -6.25076,9.55079 -2.1325,1.59214 -8.19201,1.85604 -9.11686,0.39706 -0.79454,-1.25341 -0.77315,-2.17242 0.0389,-1.67056 0.36009,0.22254 2.27289,0.44108 4.25067,0.48564 2.88621,0.065 3.94981,-0.24951 5.38867,-1.59359 4.37151,-4.08355 4.97129,-9.39828 1.70358,-15.09544 -2.45779,-4.28505 -4.51082,-5.74633 -9.56189,-6.8058 -7.33719,-1.53899 -11.0557,2.26276 -11.00386,11.25016 0.0194,3.35691 -0.21321,4.40615 -0.97667,4.40615 -1.19828,0 -1.42384,-7.23661 -0.31635,-10.14954 0.37715,-0.99197 0.54806,-1.80358 0.37982,-1.80358 -0.16824,0 -2.27065,1.24228 -4.67202,2.76063 l -4.36612,2.76064 0.16647,4.59189 c 0.23858,6.58109 -2.44073,11.4443 -7.84463,14.23877 -2.60348,1.34631 -13.47882,4.48068 -15.47315,4.4595 -0.86428,-0.009 -3.46984,-0.78767 -5.79016,-1.72999 z m 13.00781,-1.94806 c 0.68254,-0.18792 0.18633,-0.7124 -1.40625,-1.48641 -3.32149,-1.61425 -4.97221,-3.0705 -7.61319,-6.71626 -2.48408,-3.42917 -2.72956,-5.49586 -1.17587,-9.89946 0.58007,-1.64412 1.05468,-3.26258 1.05468,-3.59657 0,-0.33399 -1.97742,0.74278 -4.39428,2.39282 -4.57196,3.12138 -6.04399,5.24617 -6.92286,9.99281 -0.4986,2.69286 -0.38063,2.94709 2.77313,5.97656 4.23976,4.07266 9.54849,5.79733 13.81745,4.48891 1.54688,-0.47411 3.28711,-0.99269 3.86719,-1.1524 z m 9.28141,-3.55177 c 3.60041,-2.6619 4.78109,-5.36444 4.78109,-10.94378 0,-4.98203 -0.0199,-5.0346 -2.89736,-7.65138 -3.94283,-3.58563 -5.4302,-4.33867 -8.62719,-4.36779 -6.35906,-0.0579 -10.61559,4.11155 -11.4579,11.22356 -0.60362,5.09653 1.66879,8.49006 8.21682,12.27071 3.65589,2.11081 6.62454,1.95283 9.98454,-0.53132 z m -6.82079,-4.004 c -0.45078,-0.72938 4.51766,-8.41394 5.44953,-8.42866 1.08849,-0.0172 0.45095,1.71902 -1.97117,5.36811 -2.66836,4.02004 -2.80892,4.14373 -3.47836,3.06055 z m -3.86687,-5.05935 c 0,-1.41692 3.64309,-6.19014 4.72453,-6.19014 1.22467,0 1.13412,0.23303 -1.56047,4.01628 -2.13567,2.99851 -3.16406,3.70507 -3.16406,2.17386 z m 37.26562,-0.42244 c 0,-0.9849 5.3422,-5.81613 5.85937,-5.29895 0.27355,0.27354 -0.68071,1.70381 -2.12058,3.17837 -2.53654,2.59766 -3.73879,3.27955 -3.73879,2.12058 z m -2.10937,-4.0379 c 0,-1.01538 2.92738,-5.94855 3.52991,-5.94855 1.08079,0 0.80806,1.55365 -0.70971,4.04297 -1.20477,1.97598 -2.8202,3.0675 -2.8202,1.90558 z"
       id="path4805"
       inkscape:connector-curvature="0" />
  </g>
</svg>
