  0
SECTION
  2
HEADER
  9
$ACADVER
  1
AC1014
  9
$HANDSEED
  5
FFFF
  9
$MEASUREMENT
 70
     1
  0
ENDSEC
  0
SECTION
  2
TABLES
  0
TABLE
  2
VPORT
  5
8
330
0
100
AcDbSymbolTable
 70
     4
  0
VPORT
  5
2E
330
8
100
AcDbSymbolTableRecord
100
AcDbViewportTableRecord
  2
*ACTIVE
 70
     0
 10
0.0
 20
0.0
 11
1.0
 21
1.0
 12
210.0
 22
148.5
 13
0.0
 23
0.0
 14
10.0
 24
10.0
 15
10.0
 25
10.0
 16
0.0
 26
0.0
 36
1.0
 17
0.0
 27
0.0
 37
0.0
 40
341.0
 41
1.24
 42
50.0
 43
0.0
 44
0.0
 50
0.0
 51
0.0
 71
     0
 72
   100
 73
     1
 74
     3
 75
     0
 76
     0
 77
     0
 78
     0
  0
ENDTAB
  0
TABLE
  2
LTYPE
  5
5
330
0
100
AcDbSymbolTable
 70
     1
  0
LTYPE
  5
14
330
5
100
AcDbSymbolTableRecord
100
AcDbLinetypeTableRecord
  2
BYBLOCK
 70
     0
  3

 72
    65
 73
     0
 40
0.0
  0
LTYPE
  5
15
330
5
100
AcDbSymbolTableRecord
100
AcDbLinetypeTableRecord
  2
BYLAYER
 70
     0
  3

 72
    65
 73
     0
 40
0.0
  0
LTYPE
  5
16
330
5
100
AcDbSymbolTableRecord
100
AcDbLinetypeTableRecord
  2
CONTINUOUS
 70
     0
  3
Solid line
 72
    65
 73
     0
 40
0.0
  0
ENDTAB
  0
TABLE
  2
LAYER
  5
2
100
AcDbSymbolTable
 70
9
  0
LAYER
  5
50
100
AcDbSymbolTableRecord
100
AcDbLayerTableRecord
  2
0
 70
0
  6
CONTINUOUS
  0
LAYER
  5
51
100
AcDbSymbolTableRecord
100
AcDbLayerTableRecord
  2
Back_plate
 70
0
  6
CONTINUOUS
  0
LAYER
  5
52
100
AcDbSymbolTableRecord
100
AcDbLayerTableRecord
  2
Cut_lines
 70
0
  6
CONTINUOUS
  0
LAYER
  5
53
100
AcDbSymbolTableRecord
100
AcDbLayerTableRecord
  2
Torso_color
 70
0
  6
CONTINUOUS
  0
LAYER
  5
54
100
AcDbSymbolTableRecord
100
AcDbLayerTableRecord
  2
Body_color
 70
0
  6
CONTINUOUS
  0
LAYER
  5
55
100
AcDbSymbolTableRecord
100
AcDbLayerTableRecord
  2
Body_outline
 70
0
  6
CONTINUOUS
  0
LAYER
  5
56
100
AcDbSymbolTableRecord
100
AcDbLayerTableRecord
  2
Glasses_colour
 70
0
  6
CONTINUOUS
  0
LAYER
  5
57
100
AcDbSymbolTableRecord
100
AcDbLayerTableRecord
  2
Glasses_front_colour
 70
0
  6
CONTINUOUS
  0
LAYER
  5
58
100
AcDbSymbolTableRecord
100
AcDbLayerTableRecord
  2
Glasses_outline
 70
0
  6
CONTINUOUS
  0
ENDTAB
  0
TABLE
  2
STYLE
  5
3
330
0
100
AcDbSymbolTable
 70
     1
  0
STYLE
  5
11
330
3
100
AcDbSymbolTableRecord
100
AcDbTextStyleTableRecord
  2
STANDARD
 70
     0
 40
0.0
 41
1.0
 50
0.0
 71
     0
 42
2.5
  3
txt
  4

  0
ENDTAB
  0
TABLE
  2
VIEW
  5
6
330
0
100
AcDbSymbolTable
 70
     0
  0
ENDTAB
  0
TABLE
  2
UCS
  5
7
330
0
100
AcDbSymbolTable
 70
     0
  0
ENDTAB
  0
TABLE
  2
APPID
  5
9
330
0
100
AcDbSymbolTable
 70
     2
  0
APPID
  5
12
330
9
100
AcDbSymbolTableRecord
100
AcDbRegAppTableRecord
  2
ACAD
 70
     0
  0
ENDTAB
  0
TABLE
  2
DIMSTYLE
  5
A
330
0
100
AcDbSymbolTable
 70
     1
  0
DIMSTYLE
105
27
330
A
100
AcDbSymbolTableRecord
100
AcDbDimStyleTableRecord
  2
ISO-25
 70
     0
  3

  4

  5

  6

  7

 40
1.0
 41
2.5
 42
0.625
 43
3.75
 44
1.25
 45
0.0
 46
0.0
 47
0.0
 48
0.0
140
2.5
141
2.5
142
0.0
143
0.03937007874016
144
1.0
145
0.0
146
1.0
147
0.625
 71
     0
 72
     0
 73
     0
 74
     0
 75
     0
 76
     0
 77
     1
 78
     8
170
     0
171
     3
172
     1
173
     0
174
     0
175
     0
176
     0
177
     0
178
     0
270
     2
271
     2
272
     2
273
     2
274
     3
340
11
275
     0
280
     0
281
     0
282
     0
283
     0
284
     8
285
     0
286
     0
287
     3
288
     0
  0
ENDTAB
  0
TABLE
  2
BLOCK_RECORD
  5
1
330
0
100
AcDbSymbolTable
 70
     1
  0
BLOCK_RECORD
  5
1F
330
1
100
AcDbSymbolTableRecord
100
AcDbBlockTableRecord
  2
*MODEL_SPACE
  0
BLOCK_RECORD
  5
1B
330
1
100
AcDbSymbolTableRecord
100
AcDbBlockTableRecord
  2
*PAPER_SPACE
  0
ENDTAB
  0
ENDSEC
  0
SECTION
  2
BLOCKS
  0
BLOCK
  5
20
330
1F
100
AcDbEntity
  8
0
100
AcDbBlockBegin
  2
*MODEL_SPACE
 70
     0
 10
0.0
 20
0.0
 30
0.0
  3
*MODEL_SPACE
  1

  0
ENDBLK
  5
21
330
1F
100
AcDbEntity
  8
0
100
AcDbBlockEnd
  0
BLOCK
  5
1C
330
1B
100
AcDbEntity
 67
     1
  8
0
100
AcDbBlockBegin
  2
*PAPER_SPACE
  1

  0
ENDBLK
  5
1D
330
1B
100
AcDbEntity
 67
     1
  8
0
100
AcDbBlockEnd
  0
ENDSEC
  0
SECTION
  2
ENTITIES
  0
SPLINE
  5
100
100
AcDbEntity
  8
Cut_lines
 62
1
100
AcDbSpline
 70
8
 71
3
 72
8
 73
4
 74
0
 40
0
 40
0
 40
0
 40
0
 40
1
 40
1
 40
1
 40
1
 10
121.280185
 20
4.013476
 30
0.0
 10
120.396477
 20
4.013476
 30
0.0
 10
119.680338
 20
4.729615
 30
0.0
 10
119.680338
 20
5.613338
 30
0.0
  0
SPLINE
  5
101
100
AcDbEntity
  8
Cut_lines
 62
1
100
AcDbSpline
 70
8
 71
3
 72
8
 73
4
 74
0
 40
0
 40
0
 40
0
 40
0
 40
1
 40
1
 40
1
 40
1
 10
119.680338
 20
5.613338
 30
0.0
 10
119.680338
 20
6.497032
 30
0.0
 10
120.396477
 20
7.213171
 30
0.0
 10
121.280185
 20
7.213171
 30
0.0
  0
SPLINE
  5
102
100
AcDbEntity
  8
Cut_lines
 62
1
100
AcDbSpline
 70
8
 71
3
 72
8
 73
4
 74
0
 40
0
 40
0
 40
0
 40
0
 40
1
 40
1
 40
1
 40
1
 10
121.280185
 20
7.213171
 30
0.0
 10
122.163894
 20
7.213171
 30
0.0
 10
122.880033
 20
6.497032
 30
0.0
 10
122.880033
 20
5.613338
 30
0.0
  0
SPLINE
  5
103
100
AcDbEntity
  8
Cut_lines
 62
1
100
AcDbSpline
 70
8
 71
3
 72
8
 73
4
 74
0
 40
0
 40
0
 40
0
 40
0
 40
1
 40
1
 40
1
 40
1
 10
122.880033
 20
5.613338
 30
0.0
 10
122.880033
 20
4.729615
 30
0.0
 10
122.163894
 20
4.013476
 30
0.0
 10
121.280185
 20
4.013476
 30
0.0
  0
SPLINE
  5
104
100
AcDbEntity
  8
Cut_lines
 62
1
100
AcDbSpline
 70
8
 71
3
 72
8
 73
4
 74
0
 40
0
 40
0
 40
0
 40
0
 40
1
 40
1
 40
1
 40
1
 10
121.280185
 20
95.986532
 30
0.0
 10
122.163894
 20
95.986532
 30
0.0
 10
122.880033
 20
95.270393
 30
0.0
 10
122.880033
 20
94.386685
 30
0.0
  0
SPLINE
  5
105
100
AcDbEntity
  8
Cut_lines
 62
1
100
AcDbSpline
 70
8
 71
3
 72
8
 73
4
 74
0
 40
0
 40
0
 40
0
 40
0
 40
1
 40
1
 40
1
 40
1
 10
122.880033
 20
94.386685
 30
0.0
 10
122.880033
 20
93.502976
 30
0.0
 10
122.163894
 20
92.786485
 30
0.0
 10
121.280185
 20
92.786485
 30
0.0
  0
SPLINE
  5
106
100
AcDbEntity
  8
Cut_lines
 62
1
100
AcDbSpline
 70
8
 71
3
 72
8
 73
4
 74
0
 40
0
 40
0
 40
0
 40
0
 40
1
 40
1
 40
1
 40
1
 10
121.280185
 20
92.786485
 30
0.0
 10
120.396477
 20
92.786485
 30
0.0
 10
119.679985
 20
93.502976
 30
0.0
 10
119.679985
 20
94.386685
 30
0.0
  0
SPLINE
  5
107
100
AcDbEntity
  8
Cut_lines
 62
1
100
AcDbSpline
 70
8
 71
3
 72
8
 73
4
 74
0
 40
0
 40
0
 40
0
 40
0
 40
1
 40
1
 40
1
 40
1
 10
119.679985
 20
94.386685
 30
0.0
 10
119.679985
 20
95.270393
 30
0.0
 10
120.396477
 20
95.986532
 30
0.0
 10
121.280185
 20
95.986532
 30
0.0
  0
LWPOLYLINE
  5
108
100
AcDbEntity
  8
Cut_lines
 62
1
100
AcDbPolyline
 90
2
 70
1
 10
121.280185
 20
4.013476
 30
0.0
 10
121.280185
 20
4.013476
 30
0.0
  0
SPLINE
  5
109
100
AcDbEntity
  8
Cut_lines
 62
1
100
AcDbSpline
 70
8
 71
3
 72
8
 73
4
 74
0
 40
0
 40
0
 40
0
 40
0
 40
1
 40
1
 40
1
 40
1
 10
3.720166
 20
4.013476
 30
0.0
 10
2.836458
 20
4.013476
 30
0.0
 10
2.119966
 20
4.729615
 30
0.0
 10
2.119966
 20
5.613338
 30
0.0
  0
SPLINE
  5
10a
100
AcDbEntity
  8
Cut_lines
 62
1
100
AcDbSpline
 70
8
 71
3
 72
8
 73
4
 74
0
 40
0
 40
0
 40
0
 40
0
 40
1
 40
1
 40
1
 40
1
 10
2.119966
 20
5.613338
 30
0.0
 10
2.119966
 20
6.497032
 30
0.0
 10
2.836458
 20
7.213171
 30
0.0
 10
3.720166
 20
7.213171
 30
0.0
  0
SPLINE
  5
10b
100
AcDbEntity
  8
Cut_lines
 62
1
100
AcDbSpline
 70
8
 71
3
 72
8
 73
4
 74
0
 40
0
 40
0
 40
0
 40
0
 40
1
 40
1
 40
1
 40
1
 10
3.720166
 20
7.213171
 30
0.0
 10
4.603874
 20
7.213171
 30
0.0
 10
5.320366
 20
6.497032
 30
0.0
 10
5.320366
 20
5.613338
 30
0.0
  0
SPLINE
  5
10c
100
AcDbEntity
  8
Cut_lines
 62
1
100
AcDbSpline
 70
8
 71
3
 72
8
 73
4
 74
0
 40
0
 40
0
 40
0
 40
0
 40
1
 40
1
 40
1
 40
1
 10
5.320366
 20
5.613338
 30
0.0
 10
5.320366
 20
4.729615
 30
0.0
 10
4.603874
 20
4.013476
 30
0.0
 10
3.720166
 20
4.013476
 30
0.0
  0
LWPOLYLINE
  5
10d
100
AcDbEntity
  8
Cut_lines
 62
1
100
AcDbPolyline
 90
2
 70
1
 10
121.280185
 20
95.986532
 30
0.0
 10
121.280185
 20
95.986532
 30
0.0
  0
SPLINE
  5
10e
100
AcDbEntity
  8
Cut_lines
 62
1
100
AcDbSpline
 70
8
 71
3
 72
8
 73
4
 74
0
 40
0
 40
0
 40
0
 40
0
 40
1
 40
1
 40
1
 40
1
 10
3.720166
 20
95.986532
 30
0.0
 10
4.603874
 20
95.986532
 30
0.0
 10
5.320366
 20
95.270393
 30
0.0
 10
5.320366
 20
94.386685
 30
0.0
  0
SPLINE
  5
10f
100
AcDbEntity
  8
Cut_lines
 62
1
100
AcDbSpline
 70
8
 71
3
 72
8
 73
4
 74
0
 40
0
 40
0
 40
0
 40
0
 40
1
 40
1
 40
1
 40
1
 10
5.320366
 20
94.386685
 30
0.0
 10
5.320366
 20
93.502976
 30
0.0
 10
4.603874
 20
92.786485
 30
0.0
 10
3.720166
 20
92.786485
 30
0.0
  0
SPLINE
  5
110
100
AcDbEntity
  8
Cut_lines
 62
1
100
AcDbSpline
 70
8
 71
3
 72
8
 73
4
 74
0
 40
0
 40
0
 40
0
 40
0
 40
1
 40
1
 40
1
 40
1
 10
3.720166
 20
92.786485
 30
0.0
 10
2.836458
 20
92.786485
 30
0.0
 10
2.119966
 20
93.502976
 30
0.0
 10
2.119966
 20
94.386685
 30
0.0
  0
SPLINE
  5
111
100
AcDbEntity
  8
Cut_lines
 62
1
100
AcDbSpline
 70
8
 71
3
 72
8
 73
4
 74
0
 40
0
 40
0
 40
0
 40
0
 40
1
 40
1
 40
1
 40
1
 10
2.119966
 20
94.386685
 30
0.0
 10
2.119966
 20
95.270393
 30
0.0
 10
2.836458
 20
95.986532
 30
0.0
 10
3.720166
 20
95.986532
 30
0.0
  0
LWPOLYLINE
  5
112
100
AcDbEntity
  8
Cut_lines
 62
1
100
AcDbPolyline
 90
2
 70
1
 10
3.720166
 20
4.013476
 30
0.0
 10
3.720166
 20
4.013476
 30
0.0
  0
LWPOLYLINE
  5
113
100
AcDbEntity
  8
Cut_lines
 62
1
100
AcDbPolyline
 90
2
 70
1
 10
3.720166
 20
95.986532
 30
0.0
 10
3.720166
 20
95.986532
 30
0.0
  0
SPLINE
  5
114
100
AcDbEntity
  8
Cut_lines
 62
1
100
AcDbSpline
 70
8
 71
3
 72
8
 73
4
 74
0
 40
0
 40
0
 40
0
 40
0
 40
1
 40
1
 40
1
 40
1
 10
3.219927
 20
96.886821
 30
0.0
 10
2.119966
 20
96.886821
 30
0.0
 10
1.220030
 20
95.986532
 30
0.0
 10
1.220030
 20
94.886571
 30
0.0
  0
LWPOLYLINE
  5
115
100
AcDbEntity
  8
Cut_lines
 62
1
100
AcDbPolyline
 90
2
 70
1
 10
121.780071
 20
96.886821
 30
0.0
 10
3.219927
 20
96.886821
 30
0.0
  0
SPLINE
  5
116
100
AcDbEntity
  8
Cut_lines
 62
1
100
AcDbSpline
 70
8
 71
3
 72
8
 73
4
 74
0
 40
0
 40
0
 40
0
 40
0
 40
1
 40
1
 40
1
 40
1
 10
1.220030
 20
5.113437
 30
0.0
 10
1.220030
 20
4.013476
 30
0.0
 10
2.119966
 20
3.113187
 30
0.0
 10
3.219927
 20
3.113187
 30
0.0
  0
LWPOLYLINE
  5
117
100
AcDbEntity
  8
Cut_lines
 62
1
100
AcDbPolyline
 90
2
 70
1
 10
1.220030
 20
94.886571
 30
0.0
 10
1.220030
 20
5.113437
 30
0.0
  0
SPLINE
  5
118
100
AcDbEntity
  8
Cut_lines
 62
1
100
AcDbSpline
 70
8
 71
3
 72
8
 73
4
 74
0
 40
0
 40
0
 40
0
 40
0
 40
1
 40
1
 40
1
 40
1
 10
121.780071
 20
3.113187
 30
0.0
 10
122.880033
 20
3.113187
 30
0.0
 10
123.779969
 20
4.013476
 30
0.0
 10
123.779969
 20
5.113437
 30
0.0
  0
LWPOLYLINE
  5
119
100
AcDbEntity
  8
Cut_lines
 62
1
100
AcDbPolyline
 90
2
 70
1
 10
3.219927
 20
3.113187
 30
0.0
 10
121.780071
 20
3.113187
 30
0.0
  0
SPLINE
  5
11a
100
AcDbEntity
  8
Cut_lines
 62
1
100
AcDbSpline
 70
8
 71
3
 72
8
 73
4
 74
0
 40
0
 40
0
 40
0
 40
0
 40
1
 40
1
 40
1
 40
1
 10
123.779969
 20
94.886571
 30
0.0
 10
123.779969
 20
95.986532
 30
0.0
 10
122.880033
 20
96.886821
 30
0.0
 10
121.780071
 20
96.886821
 30
0.0
  0
LWPOLYLINE
  5
11b
100
AcDbEntity
  8
Cut_lines
 62
1
100
AcDbPolyline
 90
2
 70
1
 10
123.779969
 20
5.113437
 30
0.0
 10
123.779969
 20
94.886571
 30
0.0
  0
SPLINE
  5
11c
100
AcDbEntity
  8
Glasses_outline
 62
7
100
AcDbSpline
 70
8
 71
3
 72
8
 73
4
 74
0
 40
0
 40
0
 40
0
 40
0
 40
1
 40
1
 40
1
 40
1
 10
52.519227
 20
10.215284
 30
0.0
 10
52.650904
 20
11.632093
 30
0.0
 10
53.734880
 20
14.766349
 30
0.0
 10
54.441186
 20
15.772528
 30
0.0
  0
SPLINE
  5
11d
100
AcDbEntity
  8
Glasses_outline
 62
7
100
AcDbSpline
 70
8
 71
3
 72
8
 73
4
 74
0
 40
0
 40
0
 40
0
 40
0
 40
1
 40
1
 40
1
 40
1
 10
54.441186
 20
15.772528
 30
0.0
 10
55.031476
 20
16.613431
 30
0.0
 10
55.635463
 20
18.568687
 30
0.0
 10
55.726195
 20
19.932410
 30
0.0
  0
SPLINE
  5
11e
100
AcDbEntity
  8
Glasses_outline
 62
7
100
AcDbSpline
 70
8
 71
3
 72
8
 73
4
 74
0
 40
0
 40
0
 40
0
 40
0
 40
1
 40
1
 40
1
 40
1
 10
55.726195
 20
19.932410
 30
0.0
 10
56.158260
 20
26.426558
 30
0.0
 10
56.235298
 20
28.665494
 30
0.0
 10
56.060763
 20
29.655849
 30
0.0
  0
SPLINE
  5
11f
100
AcDbEntity
  8
Glasses_outline
 62
7
100
AcDbSpline
 70
8
 71
3
 72
8
 73
4
 74
0
 40
0
 40
0
 40
0
 40
0
 40
1
 40
1
 40
1
 40
1
 10
56.060763
 20
29.655849
 30
0.0
 10
55.663510
 20
31.909972
 30
0.0
 10
54.383285
 20
36.353264
 30
0.0
 10
53.745181
 20
37.692567
 30
0.0
  0
SPLINE
  5
120
100
AcDbEntity
  8
Glasses_outline
 62
7
100
AcDbSpline
 70
8
 71
3
 72
8
 73
4
 74
0
 40
0
 40
0
 40
0
 40
0
 40
1
 40
1
 40
1
 40
1
 10
53.745181
 20
37.692567
 30
0.0
 10
52.986421
 20
39.285116
 30
0.0
 10
52.446530
 20
40.809319
 30
0.0
 10
52.446530
 20
41.358882
 30
0.0
  0
SPLINE
  5
121
100
AcDbEntity
  8
Glasses_outline
 62
7
100
AcDbSpline
 70
8
 71
3
 72
8
 73
4
 74
0
 40
0
 40
0
 40
0
 40
0
 40
1
 40
1
 40
1
 40
1
 10
52.446530
 20
41.358882
 30
0.0
 10
52.446530
 20
42.056603
 30
0.0
 10
52.018782
 20
42.011089
 30
0.0
 10
51.187785
 20
41.224945
 30
0.0
  0
SPLINE
  5
122
100
AcDbEntity
  8
Glasses_outline
 62
7
100
AcDbSpline
 70
8
 71
3
 72
8
 73
4
 74
0
 40
0
 40
0
 40
0
 40
0
 40
1
 40
1
 40
1
 40
1
 10
51.187785
 20
41.224945
 30
0.0
 10
48.407348
 20
38.594586
 30
0.0
 10
44.655029
 20
36.005849
 30
0.0
 10
43.622824
 20
36.005849
 30
0.0
  0
SPLINE
  5
123
100
AcDbEntity
  8
Glasses_outline
 62
7
100
AcDbSpline
 70
8
 71
3
 72
8
 73
4
 74
0
 40
0
 40
0
 40
0
 40
0
 40
1
 40
1
 40
1
 40
1
 10
43.622824
 20
36.005849
 30
0.0
 10
43.455573
 20
36.005849
 30
0.0
 10
42.314069
 20
35.063616
 30
0.0
 10
41.086145
 20
33.912002
 30
0.0
  0
SPLINE
  5
124
100
AcDbEntity
  8
Glasses_outline
 62
7
100
AcDbSpline
 70
8
 71
3
 72
8
 73
4
 74
0
 40
0
 40
0
 40
0
 40
0
 40
1
 40
1
 40
1
 40
1
 10
41.086145
 20
33.912002
 30
0.0
 10
39.121546
 20
32.069489
 30
0.0
 10
38.591552
 20
31.691151
 30
0.0
 10
36.670748
 20
30.760046
 30
0.0
  0
SPLINE
  5
125
100
AcDbEntity
  8
Glasses_outline
 62
7
100
AcDbSpline
 70
8
 71
3
 72
8
 73
4
 74
0
 40
0
 40
0
 40
0
 40
0
 40
1
 40
1
 40
1
 40
1
 10
36.670748
 20
30.760046
 30
0.0
 10
33.656586
 20
29.298936
 30
0.0
 10
32.068860
 20
28.634365
 30
0.0
 10
29.526998
 20
27.769901
 30
0.0
  0
SPLINE
  5
126
100
AcDbEntity
  8
Glasses_outline
 62
7
100
AcDbSpline
 70
8
 71
3
 72
8
 73
4
 74
0
 40
0
 40
0
 40
0
 40
0
 40
1
 40
1
 40
1
 40
1
 10
29.526998
 20
27.769901
 30
0.0
 10
28.326453
 20
27.361608
 30
0.0
 10
26.504415
 20
26.614326
 30
0.0
 10
25.478029
 20
26.109275
 30
0.0
  0
SPLINE
  5
127
100
AcDbEntity
  8
Glasses_outline
 62
7
100
AcDbSpline
 70
8
 71
3
 72
8
 73
4
 74
0
 40
0
 40
0
 40
0
 40
0
 40
1
 40
1
 40
1
 40
1
 10
25.478029
 20
26.109275
 30
0.0
 10
23.889078
 20
25.327409
 30
0.0
 10
23.471070
 20
25.014143
 30
0.0
 10
22.664011
 20
24.000378
 30
0.0
  0
SPLINE
  5
128
100
AcDbEntity
  8
Glasses_outline
 62
7
100
AcDbSpline
 70
8
 71
3
 72
8
 73
4
 74
0
 40
0
 40
0
 40
0
 40
0
 40
1
 40
1
 40
1
 40
1
 10
22.664011
 20
24.000378
 30
0.0
 10
22.142690
 20
23.345535
 30
0.0
 10
21.345412
 20
22.095378
 30
0.0
 10
20.892282
 20
21.222253
 30
0.0
  0
SPLINE
  5
129
100
AcDbEntity
  8
Glasses_outline
 62
7
100
AcDbSpline
 70
8
 71
3
 72
8
 73
4
 74
0
 40
0
 40
0
 40
0
 40
0
 40
1
 40
1
 40
1
 40
1
 10
20.892282
 20
21.222253
 30
0.0
 10
19.853413
 20
19.220479
 30
0.0
 10
18.215661
 20
17.062546
 30
0.0
 10
16.651235
 20
15.634182
 30
0.0
  0
SPLINE
  5
12a
100
AcDbEntity
  8
Glasses_outline
 62
7
100
AcDbSpline
 70
8
 71
3
 72
8
 73
4
 74
0
 40
0
 40
0
 40
0
 40
0
 40
1
 40
1
 40
1
 40
1
 10
16.651235
 20
15.634182
 30
0.0
 10
14.749597
 20
13.897931
 30
0.0
 10
13.922144
 20
13.696955
 30
0.0
 10
13.148510
 20
14.783418
 30
0.0
  0
SPLINE
  5
12b
100
AcDbEntity
  8
Glasses_outline
 62
7
100
AcDbSpline
 70
8
 71
3
 72
8
 73
4
 74
0
 40
0
 40
0
 40
0
 40
0
 40
1
 40
1
 40
1
 40
1
 10
13.148510
 20
14.783418
 30
0.0
 10
12.773033
 20
15.310733
 30
0.0
 10
12.722185
 20
15.325612
 30
0.0
 10
12.209580
 20
15.058201
 30
0.0
  0
SPLINE
  5
12c
100
AcDbEntity
  8
Glasses_outline
 62
7
100
AcDbSpline
 70
8
 71
3
 72
8
 73
4
 74
0
 40
0
 40
0
 40
0
 40
0
 40
1
 40
1
 40
1
 40
1
 10
12.209580
 20
15.058201
 30
0.0
 10
10.961480
 20
14.407105
 30
0.0
 10
9.980905
 20
14.954106
 30
0.0
 10
9.980905
 20
16.301437
 30
0.0
  0
SPLINE
  5
12d
100
AcDbEntity
  8
Glasses_outline
 62
7
100
AcDbSpline
 70
8
 71
3
 72
8
 73
4
 74
0
 40
0
 40
0
 40
0
 40
0
 40
1
 40
1
 40
1
 40
1
 10
9.980905
 20
16.301437
 30
0.0
 10
9.980905
 20
16.852296
 30
0.0
 10
9.867262
 20
17.005760
 30
0.0
 10
9.211629
 20
17.340235
 30
0.0
  0
SPLINE
  5
12e
100
AcDbEntity
  8
Glasses_outline
 62
7
100
AcDbSpline
 70
8
 71
3
 72
8
 73
4
 74
0
 40
0
 40
0
 40
0
 40
0
 40
1
 40
1
 40
1
 40
1
 10
9.211629
 20
17.340235
 30
0.0
 10
8.788527
 20
17.556087
 30
0.0
 10
8.394804
 20
17.856600
 30
0.0
 10
8.336692
 20
18.008044
 30
0.0
  0
SPLINE
  5
12f
100
AcDbEntity
  8
Glasses_outline
 62
7
100
AcDbSpline
 70
8
 71
3
 72
8
 73
4
 74
0
 40
0
 40
0
 40
0
 40
0
 40
1
 40
1
 40
1
 40
1
 10
8.336692
 20
18.008044
 30
0.0
 10
8.166797
 20
18.450780
 30
0.0
 10
8.858741
 20
19.764747
 30
0.0
 10
9.750611
 20
20.693004
 30
0.0
  0
SPLINE
  5
130
100
AcDbEntity
  8
Glasses_outline
 62
7
100
AcDbSpline
 70
8
 71
3
 72
8
 73
4
 74
0
 40
0
 40
0
 40
0
 40
0
 40
1
 40
1
 40
1
 40
1
 10
9.750611
 20
20.693004
 30
0.0
 10
11.112393
 20
22.110344
 30
0.0
 10
11.924216
 20
23.174178
 30
0.0
 10
12.963107
 20
24.902730
 30
0.0
  0
SPLINE
  5
131
100
AcDbEntity
  8
Glasses_outline
 62
7
100
AcDbSpline
 70
8
 71
3
 72
8
 73
4
 74
0
 40
0
 40
0
 40
0
 40
0
 40
1
 40
1
 40
1
 40
1
 10
12.963107
 20
24.902730
 30
0.0
 10
14.270256
 20
27.077624
 30
0.0
 10
14.245122
 20
27.864353
 30
0.0
 10
12.868171
 20
27.874267
 30
0.0
  0
SPLINE
  5
132
100
AcDbEntity
  8
Glasses_outline
 62
7
100
AcDbSpline
 70
8
 71
3
 72
8
 73
4
 74
0
 40
0
 40
0
 40
0
 40
0
 40
1
 40
1
 40
1
 40
1
 10
12.868171
 20
27.874267
 30
0.0
 10
12.058009
 20
27.880081
 30
0.0
 10
10.659835
 20
28.533507
 30
0.0
 10
10.393793
 20
29.030619
 30
0.0
  0
SPLINE
  5
133
100
AcDbEntity
  8
Glasses_outline
 62
7
100
AcDbSpline
 70
8
 71
3
 72
8
 73
4
 74
0
 40
0
 40
0
 40
0
 40
0
 40
1
 40
1
 40
1
 40
1
 10
10.393793
 20
29.030619
 30
0.0
 10
10.017046
 20
29.734577
 30
0.0
 10
10.130796
 20
30.789964
 30
0.0
 10
10.620372
 20
31.132876
 30
0.0
  0
SPLINE
  5
134
100
AcDbEntity
  8
Glasses_outline
 62
7
100
AcDbSpline
 70
8
 71
3
 72
8
 73
4
 74
0
 40
0
 40
0
 40
0
 40
0
 40
1
 40
1
 40
1
 40
1
 10
10.620372
 20
31.132876
 30
0.0
 10
11.195132
 20
31.535454
 30
0.0
 10
11.688304
 20
31.514183
 30
0.0
 10
12.659812
 20
31.044910
 30
0.0
  0
SPLINE
  5
135
100
AcDbEntity
  8
Glasses_outline
 62
7
100
AcDbSpline
 70
8
 71
3
 72
8
 73
4
 74
0
 40
0
 40
0
 40
0
 40
0
 40
1
 40
1
 40
1
 40
1
 10
12.659812
 20
31.044910
 30
0.0
 10
13.680471
 20
30.551896
 30
0.0
 10
14.372333
 20
30.551896
 30
0.0
 10
15.338719
 20
31.044910
 30
0.0
  0
SPLINE
  5
136
100
AcDbEntity
  8
Glasses_outline
 62
7
100
AcDbSpline
 70
8
 71
3
 72
8
 73
4
 74
0
 40
0
 40
0
 40
0
 40
0
 40
1
 40
1
 40
1
 40
1
 10
15.338719
 20
31.044910
 30
0.0
 10
16.274553
 20
31.522337
 30
0.0
 10
17.439733
 20
31.547062
 30
0.0
 10
18.910594
 20
31.120712
 30
0.0
  0
SPLINE
  5
137
100
AcDbEntity
  8
Glasses_outline
 62
7
100
AcDbSpline
 70
8
 71
3
 72
8
 73
4
 74
0
 40
0
 40
0
 40
0
 40
0
 40
1
 40
1
 40
1
 40
1
 10
18.910594
 20
31.120712
 30
0.0
 10
21.374684
 20
30.406458
 30
0.0
 10
21.746314
 20
30.528037
 30
0.0
 10
25.359812
 20
33.230577
 30
0.0
  0
SPLINE
  5
138
100
AcDbEntity
  8
Glasses_outline
 62
7
100
AcDbSpline
 70
8
 71
3
 72
8
 73
4
 74
0
 40
0
 40
0
 40
0
 40
0
 40
1
 40
1
 40
1
 40
1
 10
25.359812
 20
33.230577
 30
0.0
 10
26.560359
 20
34.128464
 30
0.0
 10
28.190373
 20
35.301769
 30
0.0
 10
28.982066
 20
35.837918
 30
0.0
  0
SPLINE
  5
139
100
AcDbEntity
  8
Glasses_outline
 62
7
100
AcDbSpline
 70
8
 71
3
 72
8
 73
4
 74
0
 40
0
 40
0
 40
0
 40
0
 40
1
 40
1
 40
1
 40
1
 10
28.982066
 20
35.837918
 30
0.0
 10
29.773759
 20
36.374064
 30
0.0
 10
30.868600
 20
37.209811
 30
0.0
 10
31.415047
 20
37.695135
 30
0.0
  0
SPLINE
  5
13a
100
AcDbEntity
  8
Glasses_outline
 62
7
100
AcDbSpline
 70
8
 71
3
 72
8
 73
4
 74
0
 40
0
 40
0
 40
0
 40
0
 40
1
 40
1
 40
1
 40
1
 10
31.415047
 20
37.695135
 30
0.0
 10
32.637177
 20
38.780559
 30
0.0
 10
33.169118
 20
39.061446
 30
0.0
 10
34.922957
 20
39.547458
 30
0.0
  0
SPLINE
  5
13b
100
AcDbEntity
  8
Glasses_outline
 62
7
100
AcDbSpline
 70
8
 71
3
 72
8
 73
4
 74
0
 40
0
 40
0
 40
0
 40
0
 40
1
 40
1
 40
1
 40
1
 10
34.922957
 20
39.547458
 30
0.0
 10
37.113351
 20
40.154448
 30
0.0
 10
37.874186
 20
40.658688
 30
0.0
 10
40.626829
 20
43.327672
 30
0.0
  0
SPLINE
  5
13c
100
AcDbEntity
  8
Glasses_outline
 62
7
100
AcDbSpline
 70
8
 71
3
 72
8
 73
4
 74
0
 40
0
 40
0
 40
0
 40
0
 40
1
 40
1
 40
1
 40
1
 10
40.626829
 20
43.327672
 30
0.0
 10
43.569142
 20
46.180564
 30
0.0
 10
44.276388
 20
46.758044
 30
0.0
 10
46.113742
 20
47.807857
 30
0.0
  0
SPLINE
  5
13d
100
AcDbEntity
  8
Glasses_outline
 62
7
100
AcDbSpline
 70
8
 71
3
 72
8
 73
4
 74
0
 40
0
 40
0
 40
0
 40
0
 40
1
 40
1
 40
1
 40
1
 10
46.113742
 20
47.807857
 30
0.0
 10
46.948530
 20
48.284835
 30
0.0
 10
47.545185
 20
48.785653
 30
0.0
 10
47.765061
 20
49.193938
 30
0.0
  0
SPLINE
  5
13e
100
AcDbEntity
  8
Glasses_outline
 62
7
100
AcDbSpline
 70
8
 71
3
 72
8
 73
4
 74
0
 40
0
 40
0
 40
0
 40
0
 40
1
 40
1
 40
1
 40
1
 10
47.765061
 20
49.193938
 30
0.0
 10
48.133068
 20
49.877285
 30
0.0
 10
49.734038
 20
51.362463
 30
0.0
 10
51.356257
 20
52.525396
 30
0.0
  0
SPLINE
  5
13f
100
AcDbEntity
  8
Glasses_outline
 62
7
100
AcDbSpline
 70
8
 71
3
 72
8
 73
4
 74
0
 40
0
 40
0
 40
0
 40
0
 40
1
 40
1
 40
1
 40
1
 10
51.356257
 20
52.525396
 30
0.0
 10
52.547641
 20
53.379474
 30
0.0
 10
54.207060
 20
54.063993
 30
0.0
 10
55.083174
 20
54.062771
 30
0.0
  0
SPLINE
  5
140
100
AcDbEntity
  8
Glasses_outline
 62
7
100
AcDbSpline
 70
8
 71
3
 72
8
 73
4
 74
0
 40
0
 40
0
 40
0
 40
0
 40
1
 40
1
 40
1
 40
1
 10
55.083174
 20
54.062771
 30
0.0
 10
55.433841
 20
54.062489
 30
0.0
 10
56.390475
 20
54.383350
 30
0.0
 10
57.209030
 20
54.776254
 30
0.0
  0
SPLINE
  5
141
100
AcDbEntity
  8
Glasses_outline
 62
7
100
AcDbSpline
 70
8
 71
3
 72
8
 73
4
 74
0
 40
0
 40
0
 40
0
 40
0
 40
1
 40
1
 40
1
 40
1
 10
57.209030
 20
54.776254
 30
0.0
 10
58.027584
 20
55.169158
 30
0.0
 10
58.920552
 20
55.597839
 30
0.0
 10
59.193405
 20
55.728881
 30
0.0
  0
SPLINE
  5
142
100
AcDbEntity
  8
Glasses_outline
 62
7
100
AcDbSpline
 70
8
 71
3
 72
8
 73
4
 74
0
 40
0
 40
0
 40
0
 40
0
 40
1
 40
1
 40
1
 40
1
 10
59.193405
 20
55.728881
 30
0.0
 10
59.628467
 20
55.937824
 30
0.0
 10
59.691897
 20
56.100285
 30
0.0
 10
59.708988
 20
57.049382
 30
0.0
  0
SPLINE
  5
143
100
AcDbEntity
  8
Glasses_outline
 62
7
100
AcDbSpline
 70
8
 71
3
 72
8
 73
4
 74
0
 40
0
 40
0
 40
0
 40
0
 40
1
 40
1
 40
1
 40
1
 10
59.708988
 20
57.049382
 30
0.0
 10
59.719712
 20
57.644617
 30
0.0
 10
59.793550
 20
58.935301
 30
0.0
 10
59.873086
 20
59.917567
 30
0.0
  0
SPLINE
  5
144
100
AcDbEntity
  8
Glasses_outline
 62
7
100
AcDbSpline
 70
8
 71
3
 72
8
 73
4
 74
0
 40
0
 40
0
 40
0
 40
0
 40
1
 40
1
 40
1
 40
1
 10
59.873086
 20
59.917567
 30
0.0
 10
60.060005
 20
62.226051
 30
0.0
 10
59.625140
 20
63.710461
 30
0.0
 10
58.620220
 20
64.194199
 30
0.0
  0
SPLINE
  5
145
100
AcDbEntity
  8
Glasses_outline
 62
7
100
AcDbSpline
 70
8
 71
3
 72
8
 73
4
 74
0
 40
0
 40
0
 40
0
 40
0
 40
1
 40
1
 40
1
 40
1
 10
58.620220
 20
64.194199
 30
0.0
 10
57.593586
 20
64.688398
 30
0.0
 10
56.439734
 20
65.938575
 30
0.0
 10
56.179582
 20
66.838598
 30
0.0
  0
SPLINE
  5
146
100
AcDbEntity
  8
Glasses_outline
 62
7
100
AcDbSpline
 70
8
 71
3
 72
8
 73
4
 74
0
 40
0
 40
0
 40
0
 40
0
 40
1
 40
1
 40
1
 40
1
 10
56.179582
 20
66.838598
 30
0.0
 10
56.049534
 20
67.288517
 30
0.0
 10
55.722969
 20
67.924519
 30
0.0
 10
55.453881
 20
68.251942
 30
0.0
  0
SPLINE
  5
147
100
AcDbEntity
  8
Glasses_outline
 62
7
100
AcDbSpline
 70
8
 71
3
 72
8
 73
4
 74
0
 40
0
 40
0
 40
0
 40
0
 40
1
 40
1
 40
1
 40
1
 10
55.453881
 20
68.251942
 30
0.0
 10
54.428647
 20
69.499440
 30
0.0
 10
53.738676
 20
71.518636
 30
0.0
 10
54.233197
 20
71.824268
 30
0.0
  0
SPLINE
  5
148
100
AcDbEntity
  8
Glasses_outline
 62
7
100
AcDbSpline
 70
8
 71
3
 72
8
 73
4
 74
0
 40
0
 40
0
 40
0
 40
0
 40
1
 40
1
 40
1
 40
1
 10
54.233197
 20
71.824268
 30
0.0
 10
54.649587
 20
72.081610
 30
0.0
 10
54.215925
 20
73.092688
 30
0.0
 10
52.597829
 20
75.637009
 30
0.0
  0
SPLINE
  5
149
100
AcDbEntity
  8
Glasses_outline
 62
7
100
AcDbSpline
 70
8
 71
3
 72
8
 73
4
 74
0
 40
0
 40
0
 40
0
 40
0
 40
1
 40
1
 40
1
 40
1
 10
52.597829
 20
75.637009
 30
0.0
 10
51.491089
 20
77.377281
 30
0.0
 10
50.689699
 20
79.445482
 30
0.0
 10
50.247327
 20
81.703118
 30
0.0
  0
SPLINE
  5
14a
100
AcDbEntity
  8
Glasses_outline
 62
7
100
AcDbSpline
 70
8
 71
3
 72
8
 73
4
 74
0
 40
0
 40
0
 40
0
 40
0
 40
1
 40
1
 40
1
 40
1
 10
50.247327
 20
81.703118
 30
0.0
 10
49.757841
 20
84.201206
 30
0.0
 10
49.767180
 20
85.441479
 30
0.0
 10
50.287061
 20
86.980934
 30
0.0
  0
SPLINE
  5
14b
100
AcDbEntity
  8
Glasses_outline
 62
7
100
AcDbSpline
 70
8
 71
3
 72
8
 73
4
 74
0
 40
0
 40
0
 40
0
 40
0
 40
1
 40
1
 40
1
 40
1
 10
50.287061
 20
86.980934
 30
0.0
 10
50.901501
 20
88.800389
 30
0.0
 10
51.717140
 20
89.758373
 30
0.0
 10
53.320239
 20
90.543453
 30
0.0
  0
SPLINE
  5
14c
100
AcDbEntity
  8
Glasses_outline
 62
7
100
AcDbSpline
 70
8
 71
3
 72
8
 73
4
 74
0
 40
0
 40
0
 40
0
 40
0
 40
1
 40
1
 40
1
 40
1
 10
53.320239
 20
90.543453
 30
0.0
 10
55.814722
 20
91.765072
 30
0.0
 10
58.584070
 20
91.632969
 30
0.0
 10
62.864498
 20
90.088178
 30
0.0
  0
SPLINE
  5
14d
100
AcDbEntity
  8
Glasses_outline
 62
7
100
AcDbSpline
 70
8
 71
3
 72
8
 73
4
 74
0
 40
0
 40
0
 40
0
 40
0
 40
1
 40
1
 40
1
 40
1
 10
62.864498
 20
90.088178
 30
0.0
 10
65.549063
 20
89.119329
 30
0.0
 10
66.267979
 20
88.759876
 30
0.0
 10
66.683328
 20
88.178786
 30
0.0
  0
SPLINE
  5
14e
100
AcDbEntity
  8
Glasses_outline
 62
7
100
AcDbSpline
 70
8
 71
3
 72
8
 73
4
 74
0
 40
0
 40
0
 40
0
 40
0
 40
1
 40
1
 40
1
 40
1
 10
66.683328
 20
88.178786
 30
0.0
 10
66.819151
 20
87.988763
 30
0.0
 10
67.291057
 20
87.772336
 30
0.0
 10
67.732010
 20
87.697837
 30
0.0
  0
SPLINE
  5
14f
100
AcDbEntity
  8
Glasses_outline
 62
7
100
AcDbSpline
 70
8
 71
3
 72
8
 73
4
 74
0
 40
0
 40
0
 40
0
 40
0
 40
1
 40
1
 40
1
 40
1
 10
67.732010
 20
87.697837
 30
0.0
 10
68.648301
 20
87.543033
 30
0.0
 10
69.710594
 20
86.744951
 30
0.0
 10
69.710594
 20
86.211364
 30
0.0
  0
SPLINE
  5
150
100
AcDbEntity
  8
Glasses_outline
 62
7
100
AcDbSpline
 70
8
 71
3
 72
8
 73
4
 74
0
 40
0
 40
0
 40
0
 40
0
 40
1
 40
1
 40
1
 40
1
 10
69.710594
 20
86.211364
 30
0.0
 10
69.710594
 20
85.947608
 30
0.0
 10
70.006557
 20
85.757506
 30
0.0
 10
70.811255
 20
85.504398
 30
0.0
  0
SPLINE
  5
151
100
AcDbEntity
  8
Glasses_outline
 62
7
100
AcDbSpline
 70
8
 71
3
 72
8
 73
4
 74
0
 40
0
 40
0
 40
0
 40
0
 40
1
 40
1
 40
1
 40
1
 10
70.811255
 20
85.504398
 30
0.0
 10
72.001465
 20
85.130030
 30
0.0
 10
72.687155
 20
84.469890
 30
0.0
 10
72.687155
 20
83.698393
 30
0.0
  0
SPLINE
  5
152
100
AcDbEntity
  8
Glasses_outline
 62
7
100
AcDbSpline
 70
8
 71
3
 72
8
 73
4
 74
0
 40
0
 40
0
 40
0
 40
0
 40
1
 40
1
 40
1
 40
1
 10
72.687155
 20
83.698393
 30
0.0
 10
72.687155
 20
83.371757
 30
0.0
 10
72.845783
 20
83.163839
 30
0.0
 10
73.196808
 20
83.030379
 30
0.0
  0
SPLINE
  5
153
100
AcDbEntity
  8
Glasses_outline
 62
7
100
AcDbSpline
 70
8
 71
3
 72
8
 73
4
 74
0
 40
0
 40
0
 40
0
 40
0
 40
1
 40
1
 40
1
 40
1
 10
73.196808
 20
83.030379
 30
0.0
 10
74.087248
 20
82.691836
 30
0.0
 10
75.121810
 20
81.802119
 30
0.0
 10
74.832758
 20
81.623475
 30
0.0
  0
SPLINE
  5
154
100
AcDbEntity
  8
Glasses_outline
 62
7
100
AcDbSpline
 70
8
 71
3
 72
8
 73
4
 74
0
 40
0
 40
0
 40
0
 40
0
 40
1
 40
1
 40
1
 40
1
 10
74.832758
 20
81.623475
 30
0.0
 10
74.673059
 20
81.524777
 30
0.0
 10
74.388430
 20
81.636994
 30
0.0
 10
74.078225
 20
81.920960
 30
0.0
  0
SPLINE
  5
155
100
AcDbEntity
  8
Glasses_outline
 62
7
100
AcDbSpline
 70
8
 71
3
 72
8
 73
4
 74
0
 40
0
 40
0
 40
0
 40
0
 40
1
 40
1
 40
1
 40
1
 10
74.078225
 20
81.920960
 30
0.0
 10
73.804269
 20
82.171746
 30
0.0
 10
73.296379
 20
82.488619
 30
0.0
 10
72.949582
 20
82.625130
 30
0.0
  0
SPLINE
  5
156
100
AcDbEntity
  8
Glasses_outline
 62
7
100
AcDbSpline
 70
8
 71
3
 72
8
 73
4
 74
0
 40
0
 40
0
 40
0
 40
0
 40
1
 40
1
 40
1
 40
1
 10
72.949582
 20
82.625130
 30
0.0
 10
72.437478
 20
82.826713
 30
0.0
 10
72.294792
 20
83.016874
 30
0.0
 10
72.189930
 20
83.637543
 30
0.0
  0
SPLINE
  5
157
100
AcDbEntity
  8
Glasses_outline
 62
7
100
AcDbSpline
 70
8
 71
3
 72
8
 73
4
 74
0
 40
0
 40
0
 40
0
 40
0
 40
1
 40
1
 40
1
 40
1
 10
72.189930
 20
83.637543
 30
0.0
 10
72.031188
 20
84.577140
 30
0.0
 10
71.887472
 20
84.699461
 30
0.0
 10
70.454734
 20
85.114454
 30
0.0
  0
SPLINE
  5
158
100
AcDbEntity
  8
Glasses_outline
 62
7
100
AcDbSpline
 70
8
 71
3
 72
8
 73
4
 74
0
 40
0
 40
0
 40
0
 40
0
 40
1
 40
1
 40
1
 40
1
 10
70.454734
 20
85.114454
 30
0.0
 10
69.473408
 20
85.398694
 30
0.0
 10
69.313719
 20
85.511764
 30
0.0
 10
69.313719
 20
85.922386
 30
0.0
  0
SPLINE
  5
159
100
AcDbEntity
  8
Glasses_outline
 62
7
100
AcDbSpline
 70
8
 71
3
 72
8
 73
4
 74
0
 40
0
 40
0
 40
0
 40
0
 40
1
 40
1
 40
1
 40
1
 10
69.313719
 20
85.922386
 30
0.0
 10
69.313719
 20
86.546738
 30
0.0
 10
68.602149
 20
87.002151
 30
0.0
 10
67.170006
 20
87.294387
 30
0.0
  0
SPLINE
  5
15a
100
AcDbEntity
  8
Glasses_outline
 62
7
100
AcDbSpline
 70
8
 71
3
 72
8
 73
4
 74
0
 40
0
 40
0
 40
0
 40
0
 40
1
 40
1
 40
1
 40
1
 10
67.170006
 20
87.294387
 30
0.0
 10
66.301408
 20
87.471628
 30
0.0
 10
66.052553
 20
87.600677
 30
0.0
 10
66.095838
 20
87.851414
 30
0.0
  0
SPLINE
  5
15b
100
AcDbEntity
  8
Glasses_outline
 62
7
100
AcDbSpline
 70
8
 71
3
 72
8
 73
4
 74
0
 40
0
 40
0
 40
0
 40
0
 40
1
 40
1
 40
1
 40
1
 10
66.095838
 20
87.851414
 30
0.0
 10
66.166721
 20
88.262000
 30
0.0
 10
65.665316
 20
88.521520
 30
0.0
 10
62.639775
 20
89.640235
 30
0.0
  0
SPLINE
  5
15c
100
AcDbEntity
  8
Glasses_outline
 62
7
100
AcDbSpline
 70
8
 71
3
 72
8
 73
4
 74
0
 40
0
 40
0
 40
0
 40
0
 40
1
 40
1
 40
1
 40
1
 10
62.639775
 20
89.640235
 30
0.0
 10
59.824499
 20
90.681203
 30
0.0
 10
56.845714
 20
91.147973
 30
0.0
 10
55.382990
 20
90.777359
 30
0.0
  0
SPLINE
  5
15d
100
AcDbEntity
  8
Glasses_outline
 62
7
100
AcDbSpline
 70
8
 71
3
 72
8
 73
4
 74
0
 40
0
 40
0
 40
0
 40
0
 40
1
 40
1
 40
1
 40
1
 10
55.382990
 20
90.777359
 30
0.0
 10
52.648934
 20
90.084622
 30
0.0
 10
51.492506
 20
89.027615
 30
0.0
 10
50.569642
 20
86.377813
 30
0.0
  0
SPLINE
  5
15e
100
AcDbEntity
  8
Glasses_outline
 62
7
100
AcDbSpline
 70
8
 71
3
 72
8
 73
4
 74
0
 40
0
 40
0
 40
0
 40
0
 40
1
 40
1
 40
1
 40
1
 10
50.569642
 20
86.377813
 30
0.0
 10
50.166880
 20
85.221371
 30
0.0
 10
50.193499
 20
84.540575
 30
0.0
 10
50.749214
 20
81.785124
 30
0.0
  0
SPLINE
  5
15f
100
AcDbEntity
  8
Glasses_outline
 62
7
100
AcDbSpline
 70
8
 71
3
 72
8
 73
4
 74
0
 40
0
 40
0
 40
0
 40
0
 40
1
 40
1
 40
1
 40
1
 10
50.749214
 20
81.785124
 30
0.0
 10
51.275152
 20
79.177320
 30
0.0
 10
52.014964
 20
77.429794
 30
0.0
 10
53.772068
 20
74.644772
 30
0.0
  0
SPLINE
  5
160
100
AcDbEntity
  8
Glasses_outline
 62
7
100
AcDbSpline
 70
8
 71
3
 72
8
 73
4
 74
0
 40
0
 40
0
 40
0
 40
0
 40
1
 40
1
 40
1
 40
1
 10
53.772068
 20
74.644772
 30
0.0
 10
54.847975
 20
72.939455
 30
0.0
 10
54.868922
 20
72.878504
 30
0.0
 10
54.738315
 20
71.833172
 30
0.0
  0
SPLINE
  5
161
100
AcDbEntity
  8
Glasses_outline
 62
7
100
AcDbSpline
 70
8
 71
3
 72
8
 73
4
 74
0
 40
0
 40
0
 40
0
 40
0
 40
1
 40
1
 40
1
 40
1
 10
54.738315
 20
71.833172
 30
0.0
 10
54.593129
 20
70.671145
 30
0.0
 10
54.873313
 20
69.900424
 30
0.0
 10
56.012743
 20
68.327484
 30
0.0
  0
SPLINE
  5
162
100
AcDbEntity
  8
Glasses_outline
 62
7
100
AcDbSpline
 70
8
 71
3
 72
8
 73
4
 74
0
 40
0
 40
0
 40
0
 40
0
 40
1
 40
1
 40
1
 40
1
 10
56.012743
 20
68.327484
 30
0.0
 10
56.318788
 20
67.905003
 30
0.0
 10
56.624784
 20
67.262981
 30
0.0
 10
56.692735
 20
66.900766
 30
0.0
  0
SPLINE
  5
163
100
AcDbEntity
  8
Glasses_outline
 62
7
100
AcDbSpline
 70
8
 71
3
 72
8
 73
4
 74
0
 40
0
 40
0
 40
0
 40
0
 40
1
 40
1
 40
1
 40
1
 10
56.692735
 20
66.900766
 30
0.0
 10
56.828343
 20
66.177930
 30
0.0
 10
57.710671
 20
65.227191
 30
0.0
 10
58.796530
 20
64.633864
 30
0.0
  0
SPLINE
  5
164
100
AcDbEntity
  8
Glasses_outline
 62
7
100
AcDbSpline
 70
8
 71
3
 72
8
 73
4
 74
0
 40
0
 40
0
 40
0
 40
0
 40
1
 40
1
 40
1
 40
1
 10
58.796530
 20
64.633864
 30
0.0
 10
60.062135
 20
63.942321
 30
0.0
 10
60.284812
 20
63.164519
 30
0.0
 10
60.284812
 20
59.435356
 30
0.0
  0
SPLINE
  5
165
100
AcDbEntity
  8
Glasses_outline
 62
7
100
AcDbSpline
 70
8
 71
3
 72
8
 73
4
 74
0
 40
0
 40
0
 40
0
 40
0
 40
1
 40
1
 40
1
 40
1
 10
60.284812
 20
59.435356
 30
0.0
 10
60.284812
 20
57.642173
 30
0.0
 10
60.195514
 20
56.003949
 30
0.0
 10
60.086373
 20
55.794862
 30
0.0
  0
SPLINE
  5
166
100
AcDbEntity
  8
Glasses_outline
 62
7
100
AcDbSpline
 70
8
 71
3
 72
8
 73
4
 74
0
 40
0
 40
0
 40
0
 40
0
 40
1
 40
1
 40
1
 40
1
 10
60.086373
 20
55.794862
 30
0.0
 10
59.977192
 20
55.585690
 30
0.0
 10
59.254734
 20
55.170276
 30
0.0
 10
58.480156
 20
54.871287
 30
0.0
  0
SPLINE
  5
167
100
AcDbEntity
  8
Glasses_outline
 62
7
100
AcDbSpline
 70
8
 71
3
 72
8
 73
4
 74
0
 40
0
 40
0
 40
0
 40
0
 40
1
 40
1
 40
1
 40
1
 10
58.480156
 20
54.871287
 30
0.0
 10
57.705876
 20
54.572410
 30
0.0
 10
56.860014
 20
54.179131
 30
0.0
 10
56.600457
 20
53.997329
 30
0.0
  0
SPLINE
  5
168
100
AcDbEntity
  8
Glasses_outline
 62
7
100
AcDbSpline
 70
8
 71
3
 72
8
 73
4
 74
0
 40
0
 40
0
 40
0
 40
0
 40
1
 40
1
 40
1
 40
1
 10
56.600457
 20
53.997329
 30
0.0
 10
56.340900
 20
53.815530
 30
0.0
 10
55.943923
 20
53.666785
 30
0.0
 10
55.718287
 20
53.666785
 30
0.0
  0
SPLINE
  5
169
100
AcDbEntity
  8
Glasses_outline
 62
7
100
AcDbSpline
 70
8
 71
3
 72
8
 73
4
 74
0
 40
0
 40
0
 40
0
 40
0
 40
1
 40
1
 40
1
 40
1
 10
55.718287
 20
53.666785
 30
0.0
 10
54.806198
 20
53.666785
 30
0.0
 10
53.002267
 20
53.041389
 30
0.0
 10
51.913979
 20
52.347884
 30
0.0
  0
SPLINE
  5
16a
100
AcDbEntity
  8
Glasses_outline
 62
7
100
AcDbSpline
 70
8
 71
3
 72
8
 73
4
 74
0
 40
0
 40
0
 40
0
 40
0
 40
1
 40
1
 40
1
 40
1
 10
51.913979
 20
52.347884
 30
0.0
 10
50.587707
 20
51.502730
 30
0.0
 10
48.362565
 20
49.439401
 30
0.0
 10
47.978613
 20
48.698703
 30
0.0
  0
SPLINE
  5
16b
100
AcDbEntity
  8
Glasses_outline
 62
7
100
AcDbSpline
 70
8
 71
3
 72
8
 73
4
 74
0
 40
0
 40
0
 40
0
 40
0
 40
1
 40
1
 40
1
 40
1
 10
47.978613
 20
48.698703
 30
0.0
 10
47.830489
 20
48.412939
 30
0.0
 10
46.943569
 20
47.737197
 30
0.0
 10
45.926299
 20
47.135042
 30
0.0
  0
SPLINE
  5
16c
100
AcDbEntity
  8
Glasses_outline
 62
7
100
AcDbSpline
 70
8
 71
3
 72
8
 73
4
 74
0
 40
0
 40
0
 40
0
 40
0
 40
1
 40
1
 40
1
 40
1
 10
45.926299
 20
47.135042
 30
0.0
 10
44.608222
 20
46.354833
 30
0.0
 10
43.384625
 20
45.355899
 30
0.0
 10
41.295763
 20
43.354718
 30
0.0
  0
SPLINE
  5
16d
100
AcDbEntity
  8
Glasses_outline
 62
7
100
AcDbSpline
 70
8
 71
3
 72
8
 73
4
 74
0
 40
0
 40
0
 40
0
 40
0
 40
1
 40
1
 40
1
 40
1
 10
41.295763
 20
43.354718
 30
0.0
 10
38.225809
 20
40.413621
 30
0.0
 10
37.402383
 20
39.802833
 30
0.0
 10
35.876998
 20
39.335247
 30
0.0
  0
SPLINE
  5
16e
100
AcDbEntity
  8
Glasses_outline
 62
7
100
AcDbSpline
 70
8
 71
3
 72
8
 73
4
 74
0
 40
0
 40
0
 40
0
 40
0
 40
1
 40
1
 40
1
 40
1
 10
35.876998
 20
39.335247
 30
0.0
 10
35.331296
 20
39.167968
 30
0.0
 10
34.483218
 20
38.909269
 30
0.0
 10
33.992374
 20
38.760360
 30
0.0
  0
SPLINE
  5
16f
100
AcDbEntity
  8
Glasses_outline
 62
7
100
AcDbSpline
 70
8
 71
3
 72
8
 73
4
 74
0
 40
0
 40
0
 40
0
 40
0
 40
1
 40
1
 40
1
 40
1
 10
33.992374
 20
38.760360
 30
0.0
 10
33.462889
 20
38.599728
 30
0.0
 10
32.534795
 20
38.015164
 30
0.0
 10
31.710342
 20
37.323014
 30
0.0
  0
SPLINE
  5
170
100
AcDbEntity
  8
Glasses_outline
 62
7
100
AcDbSpline
 70
8
 71
3
 72
8
 73
4
 74
0
 40
0
 40
0
 40
0
 40
0
 40
1
 40
1
 40
1
 40
1
 10
31.710342
 20
37.323014
 30
0.0
 10
30.946067
 20
36.681381
 30
0.0
 10
29.784969
 20
35.792204
 30
0.0
 10
29.130123
 20
35.347063
 30
0.0
  0
SPLINE
  5
171
100
AcDbEntity
  8
Glasses_outline
 62
7
100
AcDbSpline
 70
8
 71
3
 72
8
 73
4
 74
0
 40
0
 40
0
 40
0
 40
0
 40
1
 40
1
 40
1
 40
1
 10
29.130123
 20
35.347063
 30
0.0
 10
28.475280
 20
34.901922
 30
0.0
 10
26.957234
 20
33.812545
 30
0.0
 10
25.756687
 20
32.926226
 30
0.0
  0
SPLINE
  5
172
100
AcDbEntity
  8
Glasses_outline
 62
7
100
AcDbSpline
 70
8
 71
3
 72
8
 73
4
 74
0
 40
0
 40
0
 40
0
 40
0
 40
1
 40
1
 40
1
 40
1
 10
25.756687
 20
32.926226
 30
0.0
 10
21.763900
 20
29.978496
 30
0.0
 10
21.483879
 20
29.885724
 30
0.0
 10
18.811373
 20
30.625217
 30
0.0
  0
SPLINE
  5
173
100
AcDbEntity
  8
Glasses_outline
 62
7
100
AcDbSpline
 70
8
 71
3
 72
8
 73
4
 74
0
 40
0
 40
0
 40
0
 40
0
 40
1
 40
1
 40
1
 40
1
 10
18.811373
 20
30.625217
 30
0.0
 10
17.080684
 20
31.104109
 30
0.0
 10
16.524676
 20
31.071741
 30
0.0
 10
15.163633
 20
30.412873
 30
0.0
  0
SPLINE
  5
174
100
AcDbEntity
  8
Glasses_outline
 62
7
100
AcDbSpline
 70
8
 71
3
 72
8
 73
4
 74
0
 40
0
 40
0
 40
0
 40
0
 40
1
 40
1
 40
1
 40
1
 10
15.163633
 20
30.412873
 30
0.0
 10
14.240383
 20
29.965935
 30
0.0
 10
13.850391
 20
29.998529
 30
0.0
 10
12.248323
 20
30.656547
 30
0.0
  0
SPLINE
  5
175
100
AcDbEntity
  8
Glasses_outline
 62
7
100
AcDbSpline
 70
8
 71
3
 72
8
 73
4
 74
0
 40
0
 40
0
 40
0
 40
0
 40
1
 40
1
 40
1
 40
1
 10
12.248323
 20
30.656547
 30
0.0
 10
11.385513
 20
31.010930
 30
0.0
 10
10.576219
 20
30.772726
 30
0.0
 10
10.576219
 20
30.164391
 30
0.0
  0
SPLINE
  5
176
100
AcDbEntity
  8
Glasses_outline
 62
7
100
AcDbSpline
 70
8
 71
3
 72
8
 73
4
 74
0
 40
0
 40
0
 40
0
 40
0
 40
1
 40
1
 40
1
 40
1
 10
10.576219
 20
30.164391
 30
0.0
 10
10.576219
 20
29.082444
 30
0.0
 10
11.147445
 20
28.621222
 30
0.0
 10
12.781672
 20
28.383656
 30
0.0
  0
SPLINE
  5
177
100
AcDbEntity
  8
Glasses_outline
 62
7
100
AcDbSpline
 70
8
 71
3
 72
8
 73
4
 74
0
 40
0
 40
0
 40
0
 40
0
 40
1
 40
1
 40
1
 40
1
 10
12.781672
 20
28.383656
 30
0.0
 10
13.380565
 20
28.296596
 30
0.0
 10
13.858062
 20
28.079417
 30
0.0
 10
14.162075
 20
27.755807
 30
0.0
  0
SPLINE
  5
178
100
AcDbEntity
  8
Glasses_outline
 62
7
100
AcDbSpline
 70
8
 71
3
 72
8
 73
4
 74
0
 40
0
 40
0
 40
0
 40
0
 40
1
 40
1
 40
1
 40
1
 10
14.162075
 20
27.755807
 30
0.0
 10
14.575804
 20
27.315411
 30
0.0
 10
14.601365
 20
27.193491
 30
0.0
 10
14.394728
 20
26.646050
 30
0.0
  0
SPLINE
  5
179
100
AcDbEntity
  8
Glasses_outline
 62
7
100
AcDbSpline
 70
8
 71
3
 72
8
 73
4
 74
0
 40
0
 40
0
 40
0
 40
0
 40
1
 40
1
 40
1
 40
1
 10
14.394728
 20
26.646050
 30
0.0
 10
13.898459
 20
25.331287
 30
0.0
 10
12.455957
 20
23.085027
 30
0.0
 10
11.149782
 20
21.593028
 30
0.0
  0
SPLINE
  5
17a
100
AcDbEntity
  8
Glasses_outline
 62
7
100
AcDbSpline
 70
8
 71
3
 72
8
 73
4
 74
0
 40
0
 40
0
 40
0
 40
0
 40
1
 40
1
 40
1
 40
1
 10
11.149782
 20
21.593028
 30
0.0
 10
8.670457
 20
18.760987
 30
0.0
 10
8.401693
 20
18.162312
 30
0.0
 10
9.430806
 20
17.763981
 30
0.0
  0
SPLINE
  5
17b
100
AcDbEntity
  8
Glasses_outline
 62
7
100
AcDbSpline
 70
8
 71
3
 72
8
 73
4
 74
0
 40
0
 40
0
 40
0
 40
0
 40
1
 40
1
 40
1
 40
1
 10
9.430806
 20
17.763981
 30
0.0
 10
9.816922
 20
17.614527
 30
0.0
 10
10.046533
 20
17.750603
 30
0.0
 10
11.029326
 20
18.711324
 30
0.0
  0
SPLINE
  5
17c
100
AcDbEntity
  8
Glasses_outline
 62
7
100
AcDbSpline
 70
8
 71
3
 72
8
 73
4
 74
0
 40
0
 40
0
 40
0
 40
0
 40
1
 40
1
 40
1
 40
1
 10
11.029326
 20
18.711324
 30
0.0
 10
11.660530
 20
19.328353
 30
0.0
 10
12.535162
 20
20.435945
 30
0.0
 10
12.972954
 20
21.172644
 30
0.0
  0
SPLINE
  5
17d
100
AcDbEntity
  8
Glasses_outline
 62
7
100
AcDbSpline
 70
8
 71
3
 72
8
 73
4
 74
0
 40
0
 40
0
 40
0
 40
0
 40
1
 40
1
 40
1
 40
1
 10
12.972954
 20
21.172644
 30
0.0
 10
13.693394
 20
22.384972
 30
0.0
 10
14.148094
 20
22.829844
 30
0.0
 10
14.148094
 20
22.322392
 30
0.0
  0
SPLINE
  5
17e
100
AcDbEntity
  8
Glasses_outline
 62
7
100
AcDbSpline
 70
8
 71
3
 72
8
 73
4
 74
0
 40
0
 40
0
 40
0
 40
0
 40
1
 40
1
 40
1
 40
1
 10
14.148094
 20
22.322392
 30
0.0
 10
14.148094
 20
21.890733
 30
0.0
 10
12.833909
 20
19.952927
 30
0.0
 10
11.625481
 20
18.602723
 30
0.0
  0
SPLINE
  5
17f
100
AcDbEntity
  8
Glasses_outline
 62
7
100
AcDbSpline
 70
8
 71
3
 72
8
 73
4
 74
0
 40
0
 40
0
 40
0
 40
0
 40
1
 40
1
 40
1
 40
1
 10
11.625481
 20
18.602723
 30
0.0
 10
10.344215
 20
17.171133
 30
0.0
 10
10.333451
 20
17.149402
 30
0.0
 10
10.466369
 20
16.263030
 30
0.0
  0
SPLINE
  5
180
100
AcDbEntity
  8
Glasses_outline
 62
7
100
AcDbSpline
 70
8
 71
3
 72
8
 73
4
 74
0
 40
0
 40
0
 40
0
 40
0
 40
1
 40
1
 40
1
 40
1
 10
10.466369
 20
16.263030
 30
0.0
 10
10.596141
 20
15.397660
 30
0.0
 10
10.623375
 20
15.368349
 30
0.0
 10
11.297641
 20
15.368349
 30
0.0
  0
SPLINE
  5
181
100
AcDbEntity
  8
Glasses_outline
 62
7
100
AcDbSpline
 70
8
 71
3
 72
8
 73
4
 74
0
 40
0
 40
0
 40
0
 40
0
 40
1
 40
1
 40
1
 40
1
 10
11.297641
 20
15.368349
 30
0.0
 10
11.874311
 20
15.368349
 30
0.0
 10
12.198903
 20
15.563085
 30
0.0
 10
13.176498
 20
16.495550
 30
0.0
  0
SPLINE
  5
182
100
AcDbEntity
  8
Glasses_outline
 62
7
100
AcDbSpline
 70
8
 71
3
 72
8
 73
4
 74
0
 40
0
 40
0
 40
0
 40
0
 40
1
 40
1
 40
1
 40
1
 10
13.176498
 20
16.495550
 30
0.0
 10
13.879381
 20
17.165986
 30
0.0
 10
14.686867
 20
18.218059
 30
0.0
 10
15.169213
 20
19.091853
 30
0.0
  0
SPLINE
  5
183
100
AcDbEntity
  8
Glasses_outline
 62
7
100
AcDbSpline
 70
8
 71
3
 72
8
 73
4
 74
0
 40
0
 40
0
 40
0
 40
0
 40
1
 40
1
 40
1
 40
1
 10
15.169213
 20
19.091853
 30
0.0
 10
15.670888
 20
20.000668
 30
0.0
 10
16.050768
 20
20.490360
 30
0.0
 10
16.165271
 20
20.375857
 30
0.0
  0
SPLINE
  5
184
100
AcDbEntity
  8
Glasses_outline
 62
7
100
AcDbSpline
 70
8
 71
3
 72
8
 73
4
 74
0
 40
0
 40
0
 40
0
 40
0
 40
1
 40
1
 40
1
 40
1
 10
16.165271
 20
20.375857
 30
0.0
 10
16.433981
 20
20.107148
 30
0.0
 10
15.257828
 20
18.050134
 30
0.0
 10
14.115548
 20
16.791028
 30
0.0
  0
SPLINE
  5
185
100
AcDbEntity
  8
Glasses_outline
 62
7
100
AcDbSpline
 70
8
 71
3
 72
8
 73
4
 74
0
 40
0
 40
0
 40
0
 40
0
 40
1
 40
1
 40
1
 40
1
 10
14.115548
 20
16.791028
 30
0.0
 10
13.587744
 20
16.209244
 30
0.0
 10
13.155905
 20
15.667976
 30
0.0
 10
13.155905
 20
15.588211
 30
0.0
  0
SPLINE
  5
186
100
AcDbEntity
  8
Glasses_outline
 62
7
100
AcDbSpline
 70
8
 71
3
 72
8
 73
4
 74
0
 40
0
 40
0
 40
0
 40
0
 40
1
 40
1
 40
1
 40
1
 10
13.155905
 20
15.588211
 30
0.0
 10
13.155905
 20
15.508447
 30
0.0
 10
13.344629
 20
15.240615
 30
0.0
 10
13.575290
 20
14.993027
 30
0.0
  0
SPLINE
  5
187
100
AcDbEntity
  8
Glasses_outline
 62
7
100
AcDbSpline
 70
8
 71
3
 72
8
 73
4
 74
0
 40
0
 40
0
 40
0
 40
0
 40
1
 40
1
 40
1
 40
1
 10
13.575290
 20
14.993027
 30
0.0
 10
13.892821
 20
14.652196
 30
0.0
 10
14.121737
 20
14.574398
 30
0.0
 10
14.517867
 20
14.672685
 30
0.0
  0
SPLINE
  5
188
100
AcDbEntity
  8
Glasses_outline
 62
7
100
AcDbSpline
 70
8
 71
3
 72
8
 73
4
 74
0
 40
0
 40
0
 40
0
 40
0
 40
1
 40
1
 40
1
 40
1
 10
14.517867
 20
14.672685
 30
0.0
 10
15.914424
 20
15.019195
 30
0.0
 10
19.070859
 20
18.664501
 30
0.0
 10
20.647832
 20
21.752063
 30
0.0
  0
SPLINE
  5
189
100
AcDbEntity
  8
Glasses_outline
 62
7
100
AcDbSpline
 70
8
 71
3
 72
8
 73
4
 74
0
 40
0
 40
0
 40
0
 40
0
 40
1
 40
1
 40
1
 40
1
 10
20.647832
 20
21.752063
 30
0.0
 10
21.917496
 20
24.237938
 30
0.0
 10
23.163143
 20
25.533341
 30
0.0
 10
25.297982
 20
26.587949
 30
0.0
  0
SPLINE
  5
18a
100
AcDbEntity
  8
Glasses_outline
 62
7
100
AcDbSpline
 70
8
 71
3
 72
8
 73
4
 74
0
 40
0
 40
0
 40
0
 40
0
 40
1
 40
1
 40
1
 40
1
 10
25.297982
 20
26.587949
 30
0.0
 10
26.268790
 20
27.067527
 30
0.0
 10
28.287195
 20
27.879666
 30
0.0
 10
29.783323
 20
28.392707
 30
0.0
  0
SPLINE
  5
18b
100
AcDbEntity
  8
Glasses_outline
 62
7
100
AcDbSpline
 70
8
 71
3
 72
8
 73
4
 74
0
 40
0
 40
0
 40
0
 40
0
 40
1
 40
1
 40
1
 40
1
 10
29.783323
 20
28.392707
 30
0.0
 10
31.279454
 20
28.905744
 30
0.0
 10
33.517321
 20
29.801667
 30
0.0
 10
34.756364
 20
30.383643
 30
0.0
  0
SPLINE
  5
18c
100
AcDbEntity
  8
Glasses_outline
 62
7
100
AcDbSpline
 70
8
 71
3
 72
8
 73
4
 74
0
 40
0
 40
0
 40
0
 40
0
 40
1
 40
1
 40
1
 40
1
 10
34.756364
 20
30.383643
 30
0.0
 10
35.995401
 20
30.965622
 30
0.0
 10
37.066965
 20
31.442169
 30
0.0
 10
37.137614
 20
31.442634
 30
0.0
  0
SPLINE
  5
18d
100
AcDbEntity
  8
Glasses_outline
 62
7
100
AcDbSpline
 70
8
 71
3
 72
8
 73
4
 74
0
 40
0
 40
0
 40
0
 40
0
 40
1
 40
1
 40
1
 40
1
 10
37.137614
 20
31.442634
 30
0.0
 10
37.520764
 20
31.445174
 30
0.0
 10
39.255344
 20
32.836984
 30
0.0
 10
40.955505
 20
34.506083
 30
0.0
  0
SPLINE
  5
18e
100
AcDbEntity
  8
Glasses_outline
 62
7
100
AcDbSpline
 70
8
 71
3
 72
8
 73
4
 74
0
 40
0
 40
0
 40
0
 40
0
 40
1
 40
1
 40
1
 40
1
 10
40.955505
 20
34.506083
 30
0.0
 10
42.086479
 20
35.616396
 30
0.0
 10
43.050689
 20
36.402724
 30
0.0
 10
43.281208
 20
36.402724
 30
0.0
  0
SPLINE
  5
18f
100
AcDbEntity
  8
Glasses_outline
 62
7
100
AcDbSpline
 70
8
 71
3
 72
8
 73
4
 74
0
 40
0
 40
0
 40
0
 40
0
 40
1
 40
1
 40
1
 40
1
 10
43.281208
 20
36.402724
 30
0.0
 10
44.277207
 20
36.402724
 30
0.0
 10
47.566981
 20
38.583737
 30
0.0
 10
50.249170
 20
41.022256
 30
0.0
  0
SPLINE
  5
190
100
AcDbEntity
  8
Glasses_outline
 62
7
100
AcDbSpline
 70
8
 71
3
 72
8
 73
4
 74
0
 40
0
 40
0
 40
0
 40
0
 40
1
 40
1
 40
1
 40
1
 10
50.249170
 20
41.022256
 30
0.0
 10
51.063031
 20
41.762180
 30
0.0
 10
52.113448
 20
42.610501
 30
0.0
 10
52.583433
 20
42.907412
 30
0.0
  0
SPLINE
  5
191
100
AcDbEntity
  8
Glasses_outline
 62
7
100
AcDbSpline
 70
8
 71
3
 72
8
 73
4
 74
0
 40
0
 40
0
 40
0
 40
0
 40
1
 40
1
 40
1
 40
1
 10
52.583433
 20
42.907412
 30
0.0
 10
53.053415
 20
43.204327
 30
0.0
 10
53.409215
 20
43.533980
 30
0.0
 10
53.374092
 20
43.639977
 30
0.0
  0
SPLINE
  5
192
100
AcDbEntity
  8
Glasses_outline
 62
7
100
AcDbSpline
 70
8
 71
3
 72
8
 73
4
 74
0
 40
0
 40
0
 40
0
 40
0
 40
1
 40
1
 40
1
 40
1
 10
53.374092
 20
43.639977
 30
0.0
 10
53.338973
 20
43.745971
 30
0.0
 10
52.941477
 20
44.013862
 30
0.0
 10
52.490771
 20
44.235288
 30
0.0
  0
SPLINE
  5
193
100
AcDbEntity
  8
Glasses_outline
 62
7
100
AcDbSpline
 70
8
 71
3
 72
8
 73
4
 74
0
 40
0
 40
0
 40
0
 40
0
 40
1
 40
1
 40
1
 40
1
 10
52.490771
 20
44.235288
 30
0.0
 10
52.040065
 20
44.456714
 30
0.0
 10
51.667136
 20
44.749499
 30
0.0
 10
51.662042
 20
44.885926
 30
0.0
  0
SPLINE
  5
194
100
AcDbEntity
  8
Glasses_outline
 62
7
100
AcDbSpline
 70
8
 71
3
 72
8
 73
4
 74
0
 40
0
 40
0
 40
0
 40
0
 40
1
 40
1
 40
1
 40
1
 10
51.662042
 20
44.885926
 30
0.0
 10
51.648241
 20
45.255515
 30
0.0
 10
51.877688
 20
45.193754
 30
0.0
 10
52.880074
 20
44.558060
 30
0.0
  0
SPLINE
  5
195
100
AcDbEntity
  8
Glasses_outline
 62
7
100
AcDbSpline
 70
8
 71
3
 72
8
 73
4
 74
0
 40
0
 40
0
 40
0
 40
0
 40
1
 40
1
 40
1
 40
1
 10
52.880074
 20
44.558060
 30
0.0
 10
54.172358
 20
43.738517
 30
0.0
 10
54.225650
 20
43.565795
 30
0.0
 10
53.393930
 20
42.892630
 30
0.0
  0
LWPOLYLINE
  5
196
100
AcDbEntity
  8
Cut_lines
 62
1
100
AcDbPolyline
 90
2
 70
1
 10
121.780071
 20
96.886821
 30
0.0
 10
121.780071
 20
96.886821
 30
0.0
  0
SPLINE
  5
197
100
AcDbEntity
  8
Glasses_outline
 62
7
100
AcDbSpline
 70
8
 71
3
 72
8
 73
4
 74
0
 40
0
 40
0
 40
0
 40
0
 40
1
 40
1
 40
1
 40
1
 10
53.141682
 20
40.646875
 30
0.0
 10
53.394353
 20
39.728504
 30
0.0
 10
53.782711
 20
38.669270
 30
0.0
 10
54.004698
 20
38.293028
 30
0.0
  0
SPLINE
  5
198
100
AcDbEntity
  8
Glasses_outline
 62
7
100
AcDbSpline
 70
8
 71
3
 72
8
 73
4
 74
0
 40
0
 40
0
 40
0
 40
0
 40
1
 40
1
 40
1
 40
1
 10
54.004698
 20
38.293028
 30
0.0
 10
54.480299
 20
37.486940
 30
0.0
 10
55.156622
 20
35.418160
 30
0.0
 10
56.002882
 20
32.180843
 30
0.0
  0
SPLINE
  5
199
100
AcDbEntity
  8
Glasses_outline
 62
7
100
AcDbSpline
 70
8
 71
3
 72
8
 73
4
 74
0
 40
0
 40
0
 40
0
 40
0
 40
1
 40
1
 40
1
 40
1
 10
56.002882
 20
32.180843
 30
0.0
 10
56.697259
 20
29.524531
 30
0.0
 10
56.758019
 20
28.033096
 30
0.0
 10
56.407535
 20
22.248006
 30
0.0
  0
SPLINE
  5
19a
100
AcDbEntity
  8
Glasses_outline
 62
7
100
AcDbSpline
 70
8
 71
3
 72
8
 73
4
 74
0
 40
0
 40
0
 40
0
 40
0
 40
1
 40
1
 40
1
 40
1
 10
56.407535
 20
22.248006
 30
0.0
 10
56.187021
 20
18.608192
 30
0.0
 10
55.905454
 20
17.454572
 30
0.0
 10
54.702958
 20
15.264056
 30
0.0
  0
SPLINE
  5
19b
100
AcDbEntity
  8
Glasses_outline
 62
7
100
AcDbSpline
 70
8
 71
3
 72
8
 73
4
 74
0
 40
0
 40
0
 40
0
 40
0
 40
1
 40
1
 40
1
 40
1
 10
54.702958
 20
15.264056
 30
0.0
 10
53.896779
 20
13.795488
 30
0.0
 10
53.127986
 20
11.484014
 30
0.0
 10
52.939146
 20
9.960926
 30
0.0
  0
SPLINE
  5
19c
100
AcDbEntity
  8
Glasses_outline
 62
7
100
AcDbSpline
 70
8
 71
3
 72
8
 73
4
 74
0
 40
0
 40
0
 40
0
 40
0
 40
1
 40
1
 40
1
 40
1
 10
52.939146
 20
9.960926
 30
0.0
 10
52.730287
 20
8.276378
 30
0.0
 10
52.359876
 20
8.500739
 30
0.0
 10
52.519227
 20
10.215284
 30
0.0
  0
LWPOLYLINE
  5
19d
100
AcDbEntity
  8
Glasses_outline
 62
7
100
AcDbPolyline
 90
3
 70
1
 10
53.393930
 20
42.892630
 30
0.0
 10
52.682284
 20
42.316645
 30
0.0
 10
53.141682
 20
40.646875
 30
0.0
  0
SPLINE
  5
19e
100
AcDbEntity
  8
Glasses_outline
 62
7
100
AcDbSpline
 70
8
 71
3
 72
8
 73
4
 74
0
 40
0
 40
0
 40
0
 40
0
 40
1
 40
1
 40
1
 40
1
 10
61.600695
 20
9.573333
 30
0.0
 10
59.718188
 20
11.169046
 30
0.0
 10
58.399655
 20
12.465033
 30
0.0
 10
58.399655
 20
12.719645
 30
0.0
  0
SPLINE
  5
19f
100
AcDbEntity
  8
Glasses_outline
 62
7
100
AcDbSpline
 70
8
 71
3
 72
8
 73
4
 74
0
 40
0
 40
0
 40
0
 40
0
 40
1
 40
1
 40
1
 40
1
 10
58.399655
 20
12.719645
 30
0.0
 10
58.399655
 20
13.200433
 30
0.0
 10
58.742408
 20
13.002765
 30
0.0
 10
59.518045
 20
12.074663
 30
0.0
  0
SPLINE
  5
1a0
100
AcDbEntity
  8
Glasses_outline
 62
7
100
AcDbSpline
 70
8
 71
3
 72
8
 73
4
 74
0
 40
0
 40
0
 40
0
 40
0
 40
1
 40
1
 40
1
 40
1
 10
59.518045
 20
12.074663
 30
0.0
 10
59.937441
 20
11.572827
 30
0.0
 10
60.504778
 20
11.043338
 30
0.0
 10
60.778791
 20
10.898025
 30
0.0
  0
SPLINE
  5
1a1
100
AcDbEntity
  8
Glasses_outline
 62
7
100
AcDbSpline
 70
8
 71
3
 72
8
 73
4
 74
0
 40
0
 40
0
 40
0
 40
0
 40
1
 40
1
 40
1
 40
1
 10
60.778791
 20
10.898025
 30
0.0
 10
61.052806
 20
10.752709
 30
0.0
 10
61.723484
 20
10.229689
 30
0.0
 10
62.269187
 20
9.735755
 30
0.0
  0
SPLINE
  5
1a2
100
AcDbEntity
  8
Glasses_outline
 62
7
100
AcDbSpline
 70
8
 71
3
 72
8
 73
4
 74
0
 40
0
 40
0
 40
0
 40
0
 40
1
 40
1
 40
1
 40
1
 10
62.269187
 20
9.735755
 30
0.0
 10
63.041677
 20
9.036552
 30
0.0
 10
63.173494
 20
8.837780
 30
0.0
 10
62.864498
 20
8.838099
 30
0.0
  0
SPLINE
  5
1a3
100
AcDbEntity
  8
Glasses_outline
 62
7
100
AcDbSpline
 70
8
 71
3
 72
8
 73
4
 74
0
 40
0
 40
0
 40
0
 40
0
 40
1
 40
1
 40
1
 40
1
 10
62.864498
 20
8.838099
 30
0.0
 10
62.646219
 20
8.838257
 30
0.0
 10
62.077507
 20
9.169171
 30
0.0
 10
61.600695
 20
9.573333
 30
0.0
  0
LWPOLYLINE
  5
1a4
100
AcDbEntity
  8
Glasses_outline
 62
7
100
AcDbPolyline
 90
2
 70
1
 10
52.519227
 20
10.215284
 30
0.0
 10
52.519227
 20
10.215284
 30
0.0
  0
SPLINE
  5
1a5
100
AcDbEntity
  8
Glasses_outline
 62
7
100
AcDbSpline
 70
8
 71
3
 72
8
 73
4
 74
0
 40
0
 40
0
 40
0
 40
0
 40
1
 40
1
 40
1
 40
1
 10
72.290280
 20
9.014564
 30
0.0
 10
72.290280
 20
9.234607
 30
0.0
 10
73.241803
 20
9.522025
 30
0.0
 10
73.410801
 20
9.353036
 30
0.0
  0
SPLINE
  5
1a6
100
AcDbEntity
  8
Glasses_outline
 62
7
100
AcDbSpline
 70
8
 71
3
 72
8
 73
4
 74
0
 40
0
 40
0
 40
0
 40
0
 40
1
 40
1
 40
1
 40
1
 10
73.410801
 20
9.353036
 30
0.0
 10
73.471216
 20
9.292615
 30
0.0
 10
73.461787
 20
9.147945
 30
0.0
 10
73.389831
 20
9.031551
 30
0.0
  0
SPLINE
  5
1a7
100
AcDbEntity
  8
Glasses_outline
 62
7
100
AcDbSpline
 70
8
 71
3
 72
8
 73
4
 74
0
 40
0
 40
0
 40
0
 40
0
 40
1
 40
1
 40
1
 40
1
 10
73.389831
 20
9.031551
 30
0.0
 10
73.225609
 20
8.765836
 30
0.0
 10
72.290265
 20
8.751389
 30
0.0
 10
72.290265
 20
9.014561
 30
0.0
  0
LWPOLYLINE
  5
1a8
100
AcDbEntity
  8
Glasses_outline
 62
7
100
AcDbPolyline
 90
2
 70
1
 10
61.600695
 20
9.573333
 30
0.0
 10
61.600695
 20
9.573333
 30
0.0
  0
SPLINE
  5
1a9
100
AcDbEntity
  8
Glasses_outline
 62
7
100
AcDbSpline
 70
8
 71
3
 72
8
 73
4
 74
0
 40
0
 40
0
 40
0
 40
0
 40
1
 40
1
 40
1
 40
1
 10
75.406747
 20
10.560154
 30
0.0
 10
76.851185
 20
11.930095
 30
0.0
 10
77.360551
 20
12.566074
 30
0.0
 10
77.841227
 20
13.599786
 30
0.0
  0
SPLINE
  5
1aa
100
AcDbEntity
  8
Glasses_outline
 62
7
100
AcDbSpline
 70
8
 71
3
 72
8
 73
4
 74
0
 40
0
 40
0
 40
0
 40
0
 40
1
 40
1
 40
1
 40
1
 10
77.841227
 20
13.599786
 30
0.0
 10
78.597887
 20
15.227012
 30
0.0
 10
79.029221
 20
17.213687
 30
0.0
 10
79.033711
 20
19.092226
 30
0.0
  0
SPLINE
  5
1ab
100
AcDbEntity
  8
Glasses_outline
 62
7
100
AcDbSpline
 70
8
 71
3
 72
8
 73
4
 74
0
 40
0
 40
0
 40
0
 40
0
 40
1
 40
1
 40
1
 40
1
 10
79.033711
 20
19.092226
 30
0.0
 10
79.036788
 20
20.382424
 30
0.0
 10
78.924875
 20
20.810296
 30
0.0
 10
77.969643
 20
23.160197
 30
0.0
  0
SPLINE
  5
1ac
100
AcDbEntity
  8
Glasses_outline
 62
7
100
AcDbSpline
 70
8
 71
3
 72
8
 73
4
 74
0
 40
0
 40
0
 40
0
 40
0
 40
1
 40
1
 40
1
 40
1
 10
77.969643
 20
23.160197
 30
0.0
 10
77.382511
 20
24.604565
 30
0.0
 10
76.842558
 20
26.121859
 30
0.0
 10
76.769742
 20
26.531968
 30
0.0
  0
SPLINE
  5
1ad
100
AcDbEntity
  8
Glasses_outline
 62
7
100
AcDbSpline
 70
8
 71
3
 72
8
 73
4
 74
0
 40
0
 40
0
 40
0
 40
0
 40
1
 40
1
 40
1
 40
1
 10
76.769742
 20
26.531968
 30
0.0
 10
76.696931
 20
26.942073
 30
0.0
 10
76.239692
 20
28.128676
 30
0.0
 10
75.753663
 20
29.168860
 30
0.0
  0
SPLINE
  5
1ae
100
AcDbEntity
  8
Glasses_outline
 62
7
100
AcDbSpline
 70
8
 71
3
 72
8
 73
4
 74
0
 40
0
 40
0
 40
0
 40
0
 40
1
 40
1
 40
1
 40
1
 10
75.753663
 20
29.168860
 30
0.0
 10
74.773065
 20
31.267493
 30
0.0
 10
74.752621
 20
31.386040
 30
0.0
 10
75.166440
 20
32.573815
 30
0.0
  0
SPLINE
  5
1af
100
AcDbEntity
  8
Glasses_outline
 62
7
100
AcDbSpline
 70
8
 71
3
 72
8
 73
4
 74
0
 40
0
 40
0
 40
0
 40
0
 40
1
 40
1
 40
1
 40
1
 10
75.166440
 20
32.573815
 30
0.0
 10
75.419026
 20
33.298810
 30
0.0
 10
75.419980
 20
33.480905
 30
0.0
 10
75.173693
 20
33.962879
 30
0.0
  0
SPLINE
  5
1b0
100
AcDbEntity
  8
Glasses_outline
 62
7
100
AcDbSpline
 70
8
 71
3
 72
8
 73
4
 74
0
 40
0
 40
0
 40
0
 40
0
 40
1
 40
1
 40
1
 40
1
 10
75.173693
 20
33.962879
 30
0.0
 10
75.017802
 20
34.267955
 30
0.0
 10
74.843843
 20
34.673836
 30
0.0
 10
74.787119
 20
34.864833
 30
0.0
  0
SPLINE
  5
1b1
100
AcDbEntity
  8
Glasses_outline
 62
7
100
AcDbSpline
 70
8
 71
3
 72
8
 73
4
 74
0
 40
0
 40
0
 40
0
 40
0
 40
1
 40
1
 40
1
 40
1
 10
74.787119
 20
34.864833
 30
0.0
 10
74.714741
 20
35.108517
 30
0.0
 10
74.479799
 20
35.212099
 30
0.0
 10
73.999448
 20
35.212099
 30
0.0
  0
SPLINE
  5
1b2
100
AcDbEntity
  8
Glasses_outline
 62
7
100
AcDbSpline
 70
8
 71
3
 72
8
 73
4
 74
0
 40
0
 40
0
 40
0
 40
0
 40
1
 40
1
 40
1
 40
1
 10
73.999448
 20
35.212099
 30
0.0
 10
73.147823
 20
35.212099
 30
0.0
 10
72.687146
 20
35.380732
 30
0.0
 10
72.687146
 20
35.692475
 30
0.0
  0
SPLINE
  5
1b3
100
AcDbEntity
  8
Glasses_outline
 62
7
100
AcDbSpline
 70
8
 71
3
 72
8
 73
4
 74
0
 40
0
 40
0
 40
0
 40
0
 40
1
 40
1
 40
1
 40
1
 10
72.687146
 20
35.692475
 30
0.0
 10
72.687146
 20
35.861190
 30
0.0
 10
73.024306
 20
35.907824
 30
0.0
 10
73.828162
 20
35.850296
 30
0.0
  0
SPLINE
  5
1b4
100
AcDbEntity
  8
Glasses_outline
 62
7
100
AcDbSpline
 70
8
 71
3
 72
8
 73
4
 74
0
 40
0
 40
0
 40
0
 40
0
 40
1
 40
1
 40
1
 40
1
 10
73.828162
 20
35.850296
 30
0.0
 10
74.776172
 20
35.782453
 30
0.0
 10
75.061487
 20
35.841491
 30
0.0
 10
75.514880
 20
36.199301
 30
0.0
  0
SPLINE
  5
1b5
100
AcDbEntity
  8
Glasses_outline
 62
7
100
AcDbSpline
 70
8
 71
3
 72
8
 73
4
 74
0
 40
0
 40
0
 40
0
 40
0
 40
1
 40
1
 40
1
 40
1
 10
75.514880
 20
36.199301
 30
0.0
 10
76.133963
 20
36.687873
 30
0.0
 10
76.182234
 20
36.980935
 30
0.0
 10
75.773754
 20
37.770852
 30
0.0
  0
SPLINE
  5
1b6
100
AcDbEntity
  8
Glasses_outline
 62
7
100
AcDbSpline
 70
8
 71
3
 72
8
 73
4
 74
0
 40
0
 40
0
 40
0
 40
0
 40
1
 40
1
 40
1
 40
1
 10
75.773754
 20
37.770852
 30
0.0
 10
75.410153
 20
38.473981
 30
0.0
 10
75.028360
 20
41.268568
 30
0.0
 10
75.066147
 20
42.950293
 30
0.0
  0
SPLINE
  5
1b7
100
AcDbEntity
  8
Glasses_outline
 62
7
100
AcDbSpline
 70
8
 71
3
 72
8
 73
4
 74
0
 40
0
 40
0
 40
0
 40
0
 40
1
 40
1
 40
1
 40
1
 10
75.066147
 20
42.950293
 30
0.0
 10
75.098368
 20
44.384341
 30
0.0
 10
75.415146
 20
44.935535
 30
0.0
 10
76.207095
 20
44.935535
 30
0.0
  0
SPLINE
  5
1b8
100
AcDbEntity
  8
Glasses_outline
 62
7
100
AcDbSpline
 70
8
 71
3
 72
8
 73
4
 74
0
 40
0
 40
0
 40
0
 40
0
 40
1
 40
1
 40
1
 40
1
 10
76.207095
 20
44.935535
 30
0.0
 10
76.790310
 20
44.935535
 30
0.0
 10
76.716131
 20
44.467661
 30
0.0
 10
76.118892
 20
44.379207
 30
0.0
  0
SPLINE
  5
1b9
100
AcDbEntity
  8
Glasses_outline
 62
7
100
AcDbSpline
 70
8
 71
3
 72
8
 73
4
 74
0
 40
0
 40
0
 40
0
 40
0
 40
1
 40
1
 40
1
 40
1
 10
76.118892
 20
44.379207
 30
0.0
 10
75.820984
 20
44.335084
 30
0.0
 10
75.679749
 20
44.122754
 30
0.0
 10
75.590914
 20
43.585457
 30
0.0
  0
SPLINE
  5
1ba
100
AcDbEntity
  8
Glasses_outline
 62
7
100
AcDbSpline
 70
8
 71
3
 72
8
 73
4
 74
0
 40
0
 40
0
 40
0
 40
0
 40
1
 40
1
 40
1
 40
1
 10
75.590914
 20
43.585457
 30
0.0
 10
75.339358
 20
42.063943
 30
0.0
 10
75.399499
 20
41.925765
 30
0.0
 10
76.907517
 20
40.560554
 30
0.0
  0
SPLINE
  5
1bb
100
AcDbEntity
  8
Glasses_outline
 62
7
100
AcDbSpline
 70
8
 71
3
 72
8
 73
4
 74
0
 40
0
 40
0
 40
0
 40
0
 40
1
 40
1
 40
1
 40
1
 10
76.907517
 20
40.560554
 30
0.0
 10
77.696822
 20
39.845993
 30
0.0
 10
78.699803
 20
38.999755
 30
0.0
 10
79.136367
 20
38.680023
 30
0.0
  0
SPLINE
  5
1bc
100
AcDbEntity
  8
Glasses_outline
 62
7
100
AcDbSpline
 70
8
 71
3
 72
8
 73
4
 74
0
 40
0
 40
0
 40
0
 40
0
 40
1
 40
1
 40
1
 40
1
 10
79.136367
 20
38.680023
 30
0.0
 10
79.572928
 20
38.360293
 30
0.0
 10
80.376601
 20
37.729064
 30
0.0
 10
80.922303
 20
37.277299
 30
0.0
  0
SPLINE
  5
1bd
100
AcDbEntity
  8
Glasses_outline
 62
7
100
AcDbSpline
 70
8
 71
3
 72
8
 73
4
 74
0
 40
0
 40
0
 40
0
 40
0
 40
1
 40
1
 40
1
 40
1
 10
80.922303
 20
37.277299
 30
0.0
 10
81.468005
 20
36.825529
 30
0.0
 10
82.852108
 20
35.869942
 30
0.0
 10
83.998085
 20
35.153772
 30
0.0
  0
SPLINE
  5
1be
100
AcDbEntity
  8
Glasses_outline
 62
7
100
AcDbSpline
 70
8
 71
3
 72
8
 73
4
 74
0
 40
0
 40
0
 40
0
 40
0
 40
1
 40
1
 40
1
 40
1
 10
83.998085
 20
35.153772
 30
0.0
 10
85.144062
 20
34.437602
 30
0.0
 10
86.343953
 20
33.577315
 30
0.0
 10
86.664509
 20
33.242027
 30
0.0
  0
SPLINE
  5
1bf
100
AcDbEntity
  8
Glasses_outline
 62
7
100
AcDbSpline
 70
8
 71
3
 72
8
 73
4
 74
0
 40
0
 40
0
 40
0
 40
0
 40
1
 40
1
 40
1
 40
1
 10
86.664509
 20
33.242027
 30
0.0
 10
86.985063
 20
32.906738
 30
0.0
 10
87.330943
 20
32.632410
 30
0.0
 10
87.433127
 20
32.632410
 30
0.0
  0
SPLINE
  5
1c0
100
AcDbEntity
  8
Glasses_outline
 62
7
100
AcDbSpline
 70
8
 71
3
 72
8
 73
4
 74
0
 40
0
 40
0
 40
0
 40
0
 40
1
 40
1
 40
1
 40
1
 10
87.433127
 20
32.632410
 30
0.0
 10
87.535312
 20
32.632410
 30
0.0
 10
88.255306
 20
32.247552
 30
0.0
 10
89.033110
 20
31.777172
 30
0.0
  0
SPLINE
  5
1c1
100
AcDbEntity
  8
Glasses_outline
 62
7
100
AcDbSpline
 70
8
 71
3
 72
8
 73
4
 74
0
 40
0
 40
0
 40
0
 40
0
 40
1
 40
1
 40
1
 40
1
 10
89.033110
 20
31.777172
 30
0.0
 10
90.521717
 20
30.876931
 30
0.0
 10
93.477478
 20
29.418742
 30
0.0
 10
94.317315
 20
29.170271
 30
0.0
  0
SPLINE
  5
1c2
100
AcDbEntity
  8
Glasses_outline
 62
7
100
AcDbSpline
 70
8
 71
3
 72
8
 73
4
 74
0
 40
0
 40
0
 40
0
 40
0
 40
1
 40
1
 40
1
 40
1
 10
94.317315
 20
29.170271
 30
0.0
 10
94.768662
 20
29.036741
 30
0.0
 10
102.403727
 20
26.327924
 30
0.0
 10
103.692147
 20
25.844212
 30
0.0
  0
SPLINE
  5
1c3
100
AcDbEntity
  8
Glasses_outline
 62
7
100
AcDbSpline
 70
8
 71
3
 72
8
 73
4
 74
0
 40
0
 40
0
 40
0
 40
0
 40
1
 40
1
 40
1
 40
1
 10
103.692147
 20
25.844212
 30
0.0
 10
104.089987
 20
25.694851
 30
0.0
 10
104.302190
 20
25.418511
 30
0.0
 10
104.478633
 20
24.820019
 30
0.0
  0
SPLINE
  5
1c4
100
AcDbEntity
  8
Glasses_outline
 62
7
100
AcDbSpline
 70
8
 71
3
 72
8
 73
4
 74
0
 40
0
 40
0
 40
0
 40
0
 40
1
 40
1
 40
1
 40
1
 10
104.478633
 20
24.820019
 30
0.0
 10
104.830208
 20
23.627489
 30
0.0
 10
108.004951
 20
20.046413
 30
0.0
 10
110.291053
 20
18.263675
 30
0.0
  0
SPLINE
  5
1c5
100
AcDbEntity
  8
Glasses_outline
 62
7
100
AcDbSpline
 70
8
 71
3
 72
8
 73
4
 74
0
 40
0
 40
0
 40
0
 40
0
 40
1
 40
1
 40
1
 40
1
 10
110.291053
 20
18.263675
 30
0.0
 10
110.914691
 20
17.777350
 30
0.0
 10
113.504435
 20
17.093748
 30
0.0
 10
113.675374
 20
17.370331
 30
0.0
  0
SPLINE
  5
1c6
100
AcDbEntity
  8
Glasses_outline
 62
7
100
AcDbSpline
 70
8
 71
3
 72
8
 73
4
 74
0
 40
0
 40
0
 40
0
 40
0
 40
1
 40
1
 40
1
 40
1
 10
113.675374
 20
17.370331
 30
0.0
 10
113.729832
 20
17.458444
 30
0.0
 10
113.367896
 20
17.825392
 30
0.0
 10
112.871072
 20
18.185770
 30
0.0
  0
SPLINE
  5
1c7
100
AcDbEntity
  8
Glasses_outline
 62
7
100
AcDbSpline
 70
8
 71
3
 72
8
 73
4
 74
0
 40
0
 40
0
 40
0
 40
0
 40
1
 40
1
 40
1
 40
1
 10
112.871072
 20
18.185770
 30
0.0
 10
109.933212
 20
20.316799
 30
0.0
 10
109.457617
 20
20.735501
 30
0.0
 10
109.477291
 20
21.173550
 30
0.0
  0
SPLINE
  5
1c8
100
AcDbEntity
  8
Glasses_outline
 62
7
100
AcDbSpline
 70
8
 71
3
 72
8
 73
4
 74
0
 40
0
 40
0
 40
0
 40
0
 40
1
 40
1
 40
1
 40
1
 10
109.477291
 20
21.173550
 30
0.0
 10
109.492644
 20
21.515583
 30
0.0
 10
110.271896
 20
23.090759
 30
0.0
 10
110.717406
 20
23.680349
 30
0.0
  0
SPLINE
  5
1c9
100
AcDbEntity
  8
Glasses_outline
 62
7
100
AcDbSpline
 70
8
 71
3
 72
8
 73
4
 74
0
 40
0
 40
0
 40
0
 40
0
 40
1
 40
1
 40
1
 40
1
 10
110.717406
 20
23.680349
 30
0.0
 10
110.749345
 20
23.722612
 30
0.0
 10
111.023665
 20
23.496092
 30
0.0
 10
111.327012
 20
23.176969
 30
0.0
  0
SPLINE
  5
1ca
100
AcDbEntity
  8
Glasses_outline
 62
7
100
AcDbSpline
 70
8
 71
3
 72
8
 73
4
 74
0
 40
0
 40
0
 40
0
 40
0
 40
1
 40
1
 40
1
 40
1
 10
111.327012
 20
23.176969
 30
0.0
 10
111.965641
 20
22.505131
 30
0.0
 10
115.617574
 20
19.932410
 30
0.0
 10
115.932613
 20
19.932410
 30
0.0
  0
SPLINE
  5
1cb
100
AcDbEntity
  8
Glasses_outline
 62
7
100
AcDbSpline
 70
8
 71
3
 72
8
 73
4
 74
0
 40
0
 40
0
 40
0
 40
0
 40
1
 40
1
 40
1
 40
1
 10
115.932613
 20
19.932410
 30
0.0
 10
116.049405
 20
19.932410
 30
0.0
 10
116.144960
 20
20.014404
 30
0.0
 10
116.144960
 20
20.114618
 30
0.0
  0
SPLINE
  5
1cc
100
AcDbEntity
  8
Glasses_outline
 62
7
100
AcDbSpline
 70
8
 71
3
 72
8
 73
4
 74
0
 40
0
 40
0
 40
0
 40
0
 40
1
 40
1
 40
1
 40
1
 10
116.144960
 20
20.114618
 30
0.0
 10
116.144960
 20
20.214832
 30
0.0
 10
116.199429
 20
20.438770
 30
0.0
 10
116.266005
 20
20.612260
 30
0.0
  0
SPLINE
  5
1cd
100
AcDbEntity
  8
Glasses_outline
 62
7
100
AcDbSpline
 70
8
 71
3
 72
8
 73
4
 74
0
 40
0
 40
0
 40
0
 40
0
 40
1
 40
1
 40
1
 40
1
 10
116.266005
 20
20.612260
 30
0.0
 10
116.350610
 20
20.832744
 30
0.0
 10
115.894299
 20
21.390167
 30
0.0
 10
114.750119
 20
22.464036
 30
0.0
  0
SPLINE
  5
1ce
100
AcDbEntity
  8
Glasses_outline
 62
7
100
AcDbSpline
 70
8
 71
3
 72
8
 73
4
 74
0
 40
0
 40
0
 40
0
 40
0
 40
1
 40
1
 40
1
 40
1
 10
114.750119
 20
22.464036
 30
0.0
 10
112.469442
 20
24.604568
 30
0.0
 10
110.985585
 20
26.392846
 30
0.0
 10
110.985585
 20
27.000888
 30
0.0
  0
SPLINE
  5
1cf
100
AcDbEntity
  8
Glasses_outline
 62
7
100
AcDbSpline
 70
8
 71
3
 72
8
 73
4
 74
0
 40
0
 40
0
 40
0
 40
0
 40
1
 40
1
 40
1
 40
1
 10
110.985585
 20
27.000888
 30
0.0
 10
110.985585
 20
27.294532
 30
0.0
 10
111.209164
 20
27.695649
 30
0.0
 10
111.531287
 20
27.979914
 30
0.0
  0
SPLINE
  5
1d0
100
AcDbEntity
  8
Glasses_outline
 62
7
100
AcDbSpline
 70
8
 71
3
 72
8
 73
4
 74
0
 40
0
 40
0
 40
0
 40
0
 40
1
 40
1
 40
1
 40
1
 10
111.531287
 20
27.979914
 30
0.0
 10
113.128151
 20
29.389109
 30
0.0
 10
113.763710
 20
30.027775
 30
0.0
 10
113.763710
 20
30.223239
 30
0.0
  0
SPLINE
  5
1d1
100
AcDbEntity
  8
Glasses_outline
 62
7
100
AcDbSpline
 70
8
 71
3
 72
8
 73
4
 74
0
 40
0
 40
0
 40
0
 40
0
 40
1
 40
1
 40
1
 40
1
 10
113.763710
 20
30.223239
 30
0.0
 10
113.763710
 20
30.342704
 30
0.0
 10
113.548959
 20
30.581159
 30
0.0
 10
113.286486
 20
30.753137
 30
0.0
  0
SPLINE
  5
1d2
100
AcDbEntity
  8
Glasses_outline
 62
7
100
AcDbSpline
 70
8
 71
3
 72
8
 73
4
 74
0
 40
0
 40
0
 40
0
 40
0
 40
1
 40
1
 40
1
 40
1
 10
113.286486
 20
30.753137
 30
0.0
 10
112.840846
 20
31.045133
 30
0.0
 10
112.725925
 20
31.030629
 30
0.0
 10
111.550159
 20
30.534028
 30
0.0
  0
SPLINE
  5
1d3
100
AcDbEntity
  8
Glasses_outline
 62
7
100
AcDbSpline
 70
8
 71
3
 72
8
 73
4
 74
0
 40
0
 40
0
 40
0
 40
0
 40
1
 40
1
 40
1
 40
1
 10
111.550159
 20
30.534028
 30
0.0
 10
110.797732
 20
30.216226
 30
0.0
 10
109.772004
 20
29.965305
 30
0.0
 10
109.001210
 20
29.910486
 30
0.0
  0
SPLINE
  5
1d4
100
AcDbEntity
  8
Glasses_outline
 62
7
100
AcDbSpline
 70
8
 71
3
 72
8
 73
4
 74
0
 40
0
 40
0
 40
0
 40
0
 40
1
 40
1
 40
1
 40
1
 10
109.001210
 20
29.910486
 30
0.0
 10
108.291797
 20
29.860031
 30
0.0
 10
107.333466
 20
29.681280
 30
0.0
 10
106.871589
 20
29.513267
 30
0.0
  0
SPLINE
  5
1d5
100
AcDbEntity
  8
Glasses_outline
 62
7
100
AcDbSpline
 70
8
 71
3
 72
8
 73
4
 74
0
 40
0
 40
0
 40
0
 40
0
 40
1
 40
1
 40
1
 40
1
 10
106.871589
 20
29.513267
 30
0.0
 10
106.356935
 20
29.326058
 30
0.0
 10
105.662089
 20
29.243316
 30
0.0
 10
105.076837
 20
29.299552
 30
0.0
  0
SPLINE
  5
1d6
100
AcDbEntity
  8
Glasses_outline
 62
7
100
AcDbSpline
 70
8
 71
3
 72
8
 73
4
 74
0
 40
0
 40
0
 40
0
 40
0
 40
1
 40
1
 40
1
 40
1
 10
105.076837
 20
29.299552
 30
0.0
 10
104.230565
 20
29.380868
 30
0.0
 10
103.908279
 20
29.570392
 30
0.0
 10
102.245521
 20
30.964536
 30
0.0
  0
SPLINE
  5
1d7
100
AcDbEntity
  8
Glasses_outline
 62
7
100
AcDbSpline
 70
8
 71
3
 72
8
 73
4
 74
0
 40
0
 40
0
 40
0
 40
0
 40
1
 40
1
 40
1
 40
1
 10
102.245521
 20
30.964536
 30
0.0
 10
99.445614
 20
33.312131
 30
0.0
 10
94.344764
 20
36.395445
 30
0.0
 10
93.241712
 20
36.407081
 30
0.0
  0
SPLINE
  5
1d8
100
AcDbEntity
  8
Glasses_outline
 62
7
100
AcDbSpline
 70
8
 71
3
 72
8
 73
4
 74
0
 40
0
 40
0
 40
0
 40
0
 40
1
 40
1
 40
1
 40
1
 10
93.241712
 20
36.407081
 30
0.0
 10
91.944272
 20
36.420769
 30
0.0
 10
89.979813
 20
38.099077
 30
0.0
 10
87.672316
 20
41.165224
 30
0.0
  0
SPLINE
  5
1d9
100
AcDbEntity
  8
Glasses_outline
 62
7
100
AcDbSpline
 70
8
 71
3
 72
8
 73
4
 74
0
 40
0
 40
0
 40
0
 40
0
 40
1
 40
1
 40
1
 40
1
 10
87.672316
 20
41.165224
 30
0.0
 10
87.056293
 20
41.983778
 30
0.0
 10
85.464125
 20
43.725676
 30
0.0
 10
84.134164
 20
45.036107
 30
0.0
  0
SPLINE
  5
1da
100
AcDbEntity
  8
Glasses_outline
 62
7
100
AcDbSpline
 70
8
 71
3
 72
8
 73
4
 74
0
 40
0
 40
0
 40
0
 40
0
 40
1
 40
1
 40
1
 40
1
 10
84.134164
 20
45.036107
 30
0.0
 10
82.804203
 20
46.346539
 30
0.0
 10
81.537460
 20
47.700847
 30
0.0
 10
81.319178
 20
48.045677
 30
0.0
  0
SPLINE
  5
1db
100
AcDbEntity
  8
Glasses_outline
 62
7
100
AcDbSpline
 70
8
 71
3
 72
8
 73
4
 74
0
 40
0
 40
0
 40
0
 40
0
 40
1
 40
1
 40
1
 40
1
 10
81.319178
 20
48.045677
 30
0.0
 10
79.762020
 20
50.505622
 30
0.0
 10
78.618018
 20
51.503388
 30
0.0
 10
76.221703
 20
52.491549
 30
0.0
  0
SPLINE
  5
1dc
100
AcDbEntity
  8
Glasses_outline
 62
7
100
AcDbSpline
 70
8
 71
3
 72
8
 73
4
 74
0
 40
0
 40
0
 40
0
 40
0
 40
1
 40
1
 40
1
 40
1
 10
76.221703
 20
52.491549
 30
0.0
 10
75.444059
 20
52.812224
 30
0.0
 10
74.435744
 20
53.379471
 30
0.0
 10
73.981000
 20
53.752098
 30
0.0
  0
SPLINE
  5
1dd
100
AcDbEntity
  8
Glasses_outline
 62
7
100
AcDbSpline
 70
8
 71
3
 72
8
 73
4
 74
0
 40
0
 40
0
 40
0
 40
0
 40
1
 40
1
 40
1
 40
1
 10
73.981000
 20
53.752098
 30
0.0
 10
72.885915
 20
54.649440
 30
0.0
 10
70.747314
 20
55.685331
 30
0.0
 10
70.572799
 20
55.402959
 30
0.0
  0
SPLINE
  5
1de
100
AcDbEntity
  8
Glasses_outline
 62
7
100
AcDbSpline
 70
8
 71
3
 72
8
 73
4
 74
0
 40
0
 40
0
 40
0
 40
0
 40
1
 40
1
 40
1
 40
1
 10
70.572799
 20
55.402959
 30
0.0
 10
70.500311
 20
55.285671
 30
0.0
 10
70.385985
 20
54.920698
 30
0.0
 10
70.318740
 20
54.591912
 30
0.0
  0
SPLINE
  5
1df
100
AcDbEntity
  8
Glasses_outline
 62
7
100
AcDbSpline
 70
8
 71
3
 72
8
 73
4
 74
0
 40
0
 40
0
 40
0
 40
0
 40
1
 40
1
 40
1
 40
1
 10
70.318740
 20
54.591912
 30
0.0
 10
70.161060
 20
53.820946
 30
0.0
 10
69.710585
 20
53.647551
 30
0.0
 10
69.710585
 20
54.357826
 30
0.0
  0
SPLINE
  5
1e0
100
AcDbEntity
  8
Glasses_outline
 62
7
100
AcDbSpline
 70
8
 71
3
 72
8
 73
4
 74
0
 40
0
 40
0
 40
0
 40
0
 40
1
 40
1
 40
1
 40
1
 10
69.710585
 20
54.357826
 30
0.0
 10
69.710585
 20
55.005943
 30
0.0
 10
69.935626
 20
55.439338
 30
0.0
 10
70.711266
 20
56.284963
 30
0.0
  0
SPLINE
  5
1e1
100
AcDbEntity
  8
Glasses_outline
 62
7
100
AcDbSpline
 70
8
 71
3
 72
8
 73
4
 74
0
 40
0
 40
0
 40
0
 40
0
 40
1
 40
1
 40
1
 40
1
 10
70.711266
 20
56.284963
 30
0.0
 10
71.615980
 20
57.271316
 30
0.0
 10
73.165671
 20
59.625419
 30
0.0
 10
73.438430
 20
60.427748
 30
0.0
  0
SPLINE
  5
1e2
100
AcDbEntity
  8
Glasses_outline
 62
7
100
AcDbSpline
 70
8
 71
3
 72
8
 73
4
 74
0
 40
0
 40
0
 40
0
 40
0
 40
1
 40
1
 40
1
 40
1
 10
73.438430
 20
60.427748
 30
0.0
 10
73.570928
 20
60.817489
 30
0.0
 10
73.679335
 20
61.367396
 30
0.0
 10
73.679335
 20
61.649759
 30
0.0
  0
SPLINE
  5
1e3
100
AcDbEntity
  8
Glasses_outline
 62
7
100
AcDbSpline
 70
8
 71
3
 72
8
 73
4
 74
0
 40
0
 40
0
 40
0
 40
0
 40
1
 40
1
 40
1
 40
1
 10
73.679335
 20
61.649759
 30
0.0
 10
73.679335
 20
62.041173
 30
0.0
 10
73.888566
 20
62.295523
 30
0.0
 10
74.559956
 20
62.720279
 30
0.0
  0
SPLINE
  5
1e4
100
AcDbEntity
  8
Glasses_outline
 62
7
100
AcDbSpline
 70
8
 71
3
 72
8
 73
4
 74
0
 40
0
 40
0
 40
0
 40
0
 40
1
 40
1
 40
1
 40
1
 10
74.559956
 20
62.720279
 30
0.0
 10
75.300422
 20
63.188731
 30
0.0
 10
76.023524
 20
64.090499
 30
0.0
 10
75.819968
 20
64.291613
 30
0.0
  0
SPLINE
  5
1e5
100
AcDbEntity
  8
Glasses_outline
 62
7
100
AcDbSpline
 70
8
 71
3
 72
8
 73
4
 74
0
 40
0
 40
0
 40
0
 40
0
 40
1
 40
1
 40
1
 40
1
 10
75.819968
 20
64.291613
 30
0.0
 10
75.788596
 20
64.322610
 30
0.0
 10
75.397431
 20
64.280973
 30
0.0
 10
74.950712
 20
64.199092
 30
0.0
  0
SPLINE
  5
1e6
100
AcDbEntity
  8
Glasses_outline
 62
7
100
AcDbSpline
 70
8
 71
3
 72
8
 73
4
 74
0
 40
0
 40
0
 40
0
 40
0
 40
1
 40
1
 40
1
 40
1
 10
74.950712
 20
64.199092
 30
0.0
 10
74.433343
 20
64.104260
 30
0.0
 10
73.785010
 20
64.147084
 30
0.0
 10
73.164773
 20
64.317053
 30
0.0
  0
SPLINE
  5
1e7
100
AcDbEntity
  8
Glasses_outline
 62
7
100
AcDbSpline
 70
8
 71
3
 72
8
 73
4
 74
0
 40
0
 40
0
 40
0
 40
0
 40
1
 40
1
 40
1
 40
1
 10
73.164773
 20
64.317053
 30
0.0
 10
72.629228
 20
64.463820
 30
0.0
 10
71.298085
 20
64.750382
 30
0.0
 10
70.206678
 20
64.953859
 30
0.0
  0
SPLINE
  5
1e8
100
AcDbEntity
  8
Glasses_outline
 62
7
100
AcDbSpline
 70
8
 71
3
 72
8
 73
4
 74
0
 40
0
 40
0
 40
0
 40
0
 40
1
 40
1
 40
1
 40
1
 10
70.206678
 20
64.953859
 30
0.0
 10
68.229229
 20
65.322529
 30
0.0
 10
66.873134
 20
65.782720
 30
0.0
 10
66.636660
 20
66.165340
 30
0.0
  0
SPLINE
  5
1e9
100
AcDbEntity
  8
Glasses_outline
 62
7
100
AcDbSpline
 70
8
 71
3
 72
8
 73
4
 74
0
 40
0
 40
0
 40
0
 40
0
 40
1
 40
1
 40
1
 40
1
 10
66.636660
 20
66.165340
 30
0.0
 10
66.458838
 20
66.453071
 30
0.0
 10
67.000837
 20
66.414111
 30
0.0
 10
67.871021
 20
66.076621
 30
0.0
  0
SPLINE
  5
1ea
100
AcDbEntity
  8
Glasses_outline
 62
7
100
AcDbSpline
 70
8
 71
3
 72
8
 73
4
 74
0
 40
0
 40
0
 40
0
 40
0
 40
1
 40
1
 40
1
 40
1
 10
67.871021
 20
66.076621
 30
0.0
 10
68.282507
 20
65.917033
 30
0.0
 10
69.422851
 20
65.645817
 30
0.0
 10
70.405117
 20
65.473918
 30
0.0
  0
SPLINE
  5
1eb
100
AcDbEntity
  8
Glasses_outline
 62
7
100
AcDbSpline
 70
8
 71
3
 72
8
 73
4
 74
0
 40
0
 40
0
 40
0
 40
0
 40
1
 40
1
 40
1
 40
1
 10
70.405117
 20
65.473918
 30
0.0
 10
71.387380
 20
65.302022
 30
0.0
 10
72.575742
 20
65.021398
 30
0.0
 10
73.045918
 20
64.850309
 30
0.0
  0
SPLINE
  5
1ec
100
AcDbEntity
  8
Glasses_outline
 62
7
100
AcDbSpline
 70
8
 71
3
 72
8
 73
4
 74
0
 40
0
 40
0
 40
0
 40
0
 40
1
 40
1
 40
1
 40
1
 10
73.045918
 20
64.850309
 30
0.0
 10
73.655160
 20
64.628615
 30
0.0
 10
74.168305
 20
64.581563
 30
0.0
 10
74.831857
 20
64.686558
 30
0.0
  0
SPLINE
  5
1ed
100
AcDbEntity
  8
Glasses_outline
 62
7
100
AcDbSpline
 70
8
 71
3
 72
8
 73
4
 74
0
 40
0
 40
0
 40
0
 40
0
 40
1
 40
1
 40
1
 40
1
 10
74.831857
 20
64.686558
 30
0.0
 10
75.343947
 20
64.767584
 30
0.0
 10
75.986172
 20
64.851790
 30
0.0
 10
76.259021
 20
64.873685
 30
0.0
  0
SPLINE
  5
1ee
100
AcDbEntity
  8
Glasses_outline
 62
7
100
AcDbSpline
 70
8
 71
3
 72
8
 73
4
 74
0
 40
0
 40
0
 40
0
 40
0
 40
1
 40
1
 40
1
 40
1
 10
76.259021
 20
64.873685
 30
0.0
 10
76.531874
 20
64.895586
 30
0.0
 10
76.935615
 20
64.972124
 30
0.0
 10
77.156225
 20
65.043795
 30
0.0
  0
SPLINE
  5
1ef
100
AcDbEntity
  8
Glasses_outline
 62
7
100
AcDbSpline
 70
8
 71
3
 72
8
 73
4
 74
0
 40
0
 40
0
 40
0
 40
0
 40
1
 40
1
 40
1
 40
1
 10
77.156225
 20
65.043795
 30
0.0
 10
77.376833
 20
65.115462
 30
0.0
 10
78.180221
 20
64.995969
 30
0.0
 10
78.941529
 20
64.778255
 30
0.0
  0
SPLINE
  5
1f0
100
AcDbEntity
  8
Glasses_outline
 62
7
100
AcDbSpline
 70
8
 71
3
 72
8
 73
4
 74
0
 40
0
 40
0
 40
0
 40
0
 40
1
 40
1
 40
1
 40
1
 10
78.941529
 20
64.778255
 30
0.0
 10
80.652727
 20
64.288895
 30
0.0
 10
81.534147
 20
64.269896
 30
0.0
 10
81.784345
 20
64.716970
 30
0.0
  0
SPLINE
  5
1f1
100
AcDbEntity
  8
Glasses_outline
 62
7
100
AcDbSpline
 70
8
 71
3
 72
8
 73
4
 74
0
 40
0
 40
0
 40
0
 40
0
 40
1
 40
1
 40
1
 40
1
 10
81.784345
 20
64.716970
 30
0.0
 10
82.062619
 20
65.214217
 30
0.0
 10
81.721782
 20
65.764280
 30
0.0
 10
80.590492
 20
66.643673
 30
0.0
  0
SPLINE
  5
1f2
100
AcDbEntity
  8
Glasses_outline
 62
7
100
AcDbSpline
 70
8
 71
3
 72
8
 73
4
 74
0
 40
0
 40
0
 40
0
 40
0
 40
1
 40
1
 40
1
 40
1
 10
80.590492
 20
66.643673
 30
0.0
 10
79.379324
 20
67.585158
 30
0.0
 10
78.157733
 20
69.094903
 30
0.0
 10
77.848183
 20
70.032846
 30
0.0
  0
LWPOLYLINE
  5
1f3
100
AcDbEntity
  8
Glasses_outline
 62
7
100
AcDbPolyline
 90
2
 70
1
 10
72.290265
 20
9.014561
 30
0.0
 10
72.290280
 20
9.014564
 30
0.0
  0
SPLINE
  5
1f4
100
AcDbEntity
  8
Glasses_outline
 62
7
100
AcDbSpline
 70
8
 71
3
 72
8
 73
4
 74
0
 40
0
 40
0
 40
0
 40
0
 40
1
 40
1
 40
1
 40
1
 10
77.104759
 20
70.117154
 30
0.0
 10
76.509485
 20
69.409710
 30
0.0
 10
76.540256
 20
69.407992
 30
0.0
 10
73.528439
 20
70.316606
 30
0.0
  0
SPLINE
  5
1f5
100
AcDbEntity
  8
Glasses_outline
 62
7
100
AcDbSpline
 70
8
 71
3
 72
8
 73
4
 74
0
 40
0
 40
0
 40
0
 40
0
 40
1
 40
1
 40
1
 40
1
 10
73.528439
 20
70.316606
 30
0.0
 10
72.408610
 20
70.654437
 30
0.0
 10
71.217985
 20
70.930849
 30
0.0
 10
70.882603
 20
70.930849
 30
0.0
  0
SPLINE
  5
1f6
100
AcDbEntity
  8
Glasses_outline
 62
7
100
AcDbSpline
 70
8
 71
3
 72
8
 73
4
 74
0
 40
0
 40
0
 40
0
 40
0
 40
1
 40
1
 40
1
 40
1
 10
70.882603
 20
70.930849
 30
0.0
 10
70.483504
 20
70.930849
 30
0.0
 10
70.301048
 20
71.016548
 30
0.0
 10
70.354512
 20
71.178894
 30
0.0
  0
SPLINE
  5
1f7
100
AcDbEntity
  8
Glasses_outline
 62
7
100
AcDbSpline
 70
8
 71
3
 72
8
 73
4
 74
0
 40
0
 40
0
 40
0
 40
0
 40
1
 40
1
 40
1
 40
1
 10
70.354512
 20
71.178894
 30
0.0
 10
70.501301
 20
71.624619
 30
0.0
 10
71.246215
 20
71.561539
 30
0.0
 10
73.422451
 20
70.919108
 30
0.0
  0
SPLINE
  5
1f8
100
AcDbEntity
  8
Glasses_outline
 62
7
100
AcDbSpline
 70
8
 71
3
 72
8
 73
4
 74
0
 40
0
 40
0
 40
0
 40
0
 40
1
 40
1
 40
1
 40
1
 10
73.422451
 20
70.919108
 30
0.0
 10
76.433660
 20
70.030184
 30
0.0
 10
76.576047
 20
70.013985
 30
0.0
 10
76.851643
 20
70.528939
 30
0.0
  0
SPLINE
  5
1f9
100
AcDbEntity
  8
Glasses_outline
 62
7
100
AcDbSpline
 70
8
 71
3
 72
8
 73
4
 74
0
 40
0
 40
0
 40
0
 40
0
 40
1
 40
1
 40
1
 40
1
 10
76.851643
 20
70.528939
 30
0.0
 10
77.047070
 20
70.894103
 30
0.0
 10
76.971330
 20
71.195127
 30
0.0
 10
76.360257
 20
72.481874
 30
0.0
  0
SPLINE
  5
1fa
100
AcDbEntity
  8
Glasses_outline
 62
7
100
AcDbSpline
 70
8
 71
3
 72
8
 73
4
 74
0
 40
0
 40
0
 40
0
 40
0
 40
1
 40
1
 40
1
 40
1
 10
76.360257
 20
72.481874
 30
0.0
 10
75.558500
 20
74.170142
 30
0.0
 10
74.874591
 20
75.154268
 30
0.0
 10
74.192522
 20
75.601178
 30
0.0
  0
SPLINE
  5
1fb
100
AcDbEntity
  8
Glasses_outline
 62
7
100
AcDbSpline
 70
8
 71
3
 72
8
 73
4
 74
0
 40
0
 40
0
 40
0
 40
0
 40
1
 40
1
 40
1
 40
1
 10
74.192522
 20
75.601178
 30
0.0
 10
73.645234
 20
75.959772
 30
0.0
 10
71.693027
 20
76.487099
 30
0.0
 10
70.912759
 20
76.487099
 30
0.0
  0
SPLINE
  5
1fc
100
AcDbEntity
  8
Glasses_outline
 62
7
100
AcDbSpline
 70
8
 71
3
 72
8
 73
4
 74
0
 40
0
 40
0
 40
0
 40
0
 40
1
 40
1
 40
1
 40
1
 10
70.912759
 20
76.487099
 30
0.0
 10
70.410874
 20
76.487099
 30
0.0
 10
69.982797
 20
76.891599
 30
0.0
 10
70.226631
 20
77.135436
 30
0.0
  0
SPLINE
  5
1fd
100
AcDbEntity
  8
Glasses_outline
 62
7
100
AcDbSpline
 70
8
 71
3
 72
8
 73
4
 74
0
 40
0
 40
0
 40
0
 40
0
 40
1
 40
1
 40
1
 40
1
 10
70.226631
 20
77.135436
 30
0.0
 10
70.277138
 20
77.185940
 30
0.0
 10
70.739793
 20
77.142069
 30
0.0
 10
71.254758
 20
77.037929
 30
0.0
  0
SPLINE
  5
1fe
100
AcDbEntity
  8
Glasses_outline
 62
7
100
AcDbSpline
 70
8
 71
3
 72
8
 73
4
 74
0
 40
0
 40
0
 40
0
 40
0
 40
1
 40
1
 40
1
 40
1
 10
71.254758
 20
77.037929
 30
0.0
 10
71.769721
 20
76.933794
 30
0.0
 10
72.437992
 20
76.813491
 30
0.0
 10
72.739803
 20
76.770585
 30
0.0
  0
SPLINE
  5
1ff
100
AcDbEntity
  8
Glasses_outline
 62
7
100
AcDbSpline
 70
8
 71
3
 72
8
 73
4
 74
0
 40
0
 40
0
 40
0
 40
0
 40
1
 40
1
 40
1
 40
1
 10
72.739803
 20
76.770585
 30
0.0
 10
74.171116
 20
76.567111
 30
0.0
 10
75.570819
 20
75.253090
 30
0.0
 10
76.694679
 20
73.057797
 30
0.0
  0
SPLINE
  5
200
100
AcDbEntity
  8
Glasses_outline
 62
7
100
AcDbSpline
 70
8
 71
3
 72
8
 73
4
 74
0
 40
0
 40
0
 40
0
 40
0
 40
1
 40
1
 40
1
 40
1
 10
76.694679
 20
73.057797
 30
0.0
 10
77.447637
 20
71.586998
 30
0.0
 10
77.680589
 20
71.615455
 30
0.0
 10
77.151992
 20
73.113660
 30
0.0
  0
SPLINE
  5
201
100
AcDbEntity
  8
Glasses_outline
 62
7
100
AcDbSpline
 70
8
 71
3
 72
8
 73
4
 74
0
 40
0
 40
0
 40
0
 40
0
 40
1
 40
1
 40
1
 40
1
 10
77.151992
 20
73.113660
 30
0.0
 10
76.797589
 20
74.118145
 30
0.0
 10
76.798692
 20
74.105849
 30
0.0
 10
77.062900
 20
74.105849
 30
0.0
  0
SPLINE
  5
202
100
AcDbEntity
  8
Glasses_outline
 62
7
100
AcDbSpline
 70
8
 71
3
 72
8
 73
4
 74
0
 40
0
 40
0
 40
0
 40
0
 40
1
 40
1
 40
1
 40
1
 10
77.062900
 20
74.105849
 30
0.0
 10
77.364635
 20
74.105849
 30
0.0
 10
77.849304
 20
72.836438
 30
0.0
 10
78.069423
 20
71.469625
 30
0.0
  0
SPLINE
  5
203
100
AcDbEntity
  8
Glasses_outline
 62
7
100
AcDbSpline
 70
8
 71
3
 72
8
 73
4
 74
0
 40
0
 40
0
 40
0
 40
0
 40
1
 40
1
 40
1
 40
1
 10
78.069423
 20
71.469625
 30
0.0
 10
78.325568
 20
69.879119
 30
0.0
 10
78.847916
 20
68.925344
 30
0.0
 10
80.077589
 20
67.802841
 30
0.0
  0
SPLINE
  5
204
100
AcDbEntity
  8
Glasses_outline
 62
7
100
AcDbSpline
 70
8
 71
3
 72
8
 73
4
 74
0
 40
0
 40
0
 40
0
 40
0
 40
1
 40
1
 40
1
 40
1
 10
80.077589
 20
67.802841
 30
0.0
 10
81.912776
 20
66.127601
 30
0.0
 10
82.410641
 20
65.552712
 30
0.0
 10
82.407548
 20
65.112423
 30
0.0
  0
SPLINE
  5
205
100
AcDbEntity
  8
Glasses_outline
 62
7
100
AcDbSpline
 70
8
 71
3
 72
8
 73
4
 74
0
 40
0
 40
0
 40
0
 40
0
 40
1
 40
1
 40
1
 40
1
 10
82.407548
 20
65.112423
 30
0.0
 10
82.399364
 20
63.949941
 30
0.0
 10
81.258365
 20
63.645005
 30
0.0
 10
79.106006
 20
64.230080
 30
0.0
  0
SPLINE
  5
206
100
AcDbEntity
  8
Glasses_outline
 62
7
100
AcDbSpline
 70
8
 71
3
 72
8
 73
4
 74
0
 40
0
 40
0
 40
0
 40
0
 40
1
 40
1
 40
1
 40
1
 10
79.106006
 20
64.230080
 30
0.0
 10
77.698642
 20
64.612647
 30
0.0
 10
77.570736
 20
64.617467
 30
0.0
 10
76.930371
 20
64.312100
 30
0.0
  0
SPLINE
  5
207
100
AcDbEntity
  8
Glasses_outline
 62
7
100
AcDbSpline
 70
8
 71
3
 72
8
 73
4
 74
0
 40
0
 40
0
 40
0
 40
0
 40
1
 40
1
 40
1
 40
1
 10
76.930371
 20
64.312100
 30
0.0
 10
76.556170
 20
64.133656
 30
0.0
 10
76.166334
 20
63.767583
 30
0.0
 10
76.064070
 20
63.498608
 30
0.0
  0
SPLINE
  5
208
100
AcDbEntity
  8
Glasses_outline
 62
7
100
AcDbSpline
 70
8
 71
3
 72
8
 73
4
 74
0
 40
0
 40
0
 40
0
 40
0
 40
1
 40
1
 40
1
 40
1
 10
76.064070
 20
63.498608
 30
0.0
 10
75.961804
 20
63.229628
 30
0.0
 10
75.538087
 20
62.784524
 30
0.0
 10
75.122473
 20
62.509484
 30
0.0
  0
SPLINE
  5
209
100
AcDbEntity
  8
Glasses_outline
 62
7
100
AcDbSpline
 70
8
 71
3
 72
8
 73
4
 74
0
 40
0
 40
0
 40
0
 40
0
 40
1
 40
1
 40
1
 40
1
 10
75.122473
 20
62.509484
 30
0.0
 10
74.480612
 20
62.084720
 30
0.0
 10
74.327072
 20
61.838495
 30
0.0
 10
74.102956
 20
60.874520
 30
0.0
  0
SPLINE
  5
20a
100
AcDbEntity
  8
Glasses_outline
 62
7
100
AcDbSpline
 70
8
 71
3
 72
8
 73
4
 74
0
 40
0
 40
0
 40
0
 40
0
 40
1
 40
1
 40
1
 40
1
 10
74.102956
 20
60.874520
 30
0.0
 10
73.841616
 20
59.750423
 30
0.0
 10
72.882870
 20
58.125839
 30
0.0
 10
71.656612
 20
56.729206
 30
0.0
  0
SPLINE
  5
20b
100
AcDbEntity
  8
Glasses_outline
 62
7
100
AcDbSpline
 70
8
 71
3
 72
8
 73
4
 74
0
 40
0
 40
0
 40
0
 40
0
 40
1
 40
1
 40
1
 40
1
 10
71.656612
 20
56.729206
 30
0.0
 10
71.321233
 20
56.347230
 30
0.0
 10
71.081039
 20
56.004056
 30
0.0
 10
71.122848
 20
55.966597
 30
0.0
  0
SPLINE
  5
20c
100
AcDbEntity
  8
Glasses_outline
 62
7
100
AcDbSpline
 70
8
 71
3
 72
8
 73
4
 74
0
 40
0
 40
0
 40
0
 40
0
 40
1
 40
1
 40
1
 40
1
 10
71.122848
 20
55.966597
 30
0.0
 10
71.164659
 20
55.929135
 30
0.0
 10
71.693329
 20
55.666747
 30
0.0
 10
72.297668
 20
55.383509
 30
0.0
  0
SPLINE
  5
20d
100
AcDbEntity
  8
Glasses_outline
 62
7
100
AcDbSpline
 70
8
 71
3
 72
8
 73
4
 74
0
 40
0
 40
0
 40
0
 40
0
 40
1
 40
1
 40
1
 40
1
 10
72.297668
 20
55.383509
 30
0.0
 10
72.902010
 20
55.100270
 30
0.0
 10
73.760813
 20
54.556665
 30
0.0
 10
74.206120
 20
54.175499
 30
0.0
  0
SPLINE
  5
20e
100
AcDbEntity
  8
Glasses_outline
 62
7
100
AcDbSpline
 70
8
 71
3
 72
8
 73
4
 74
0
 40
0
 40
0
 40
0
 40
0
 40
1
 40
1
 40
1
 40
1
 10
74.206120
 20
54.175499
 30
0.0
 10
74.651430
 20
53.794332
 30
0.0
 10
75.509442
 20
53.297762
 30
0.0
 10
76.112819
 20
53.072010
 30
0.0
  0
SPLINE
  5
20f
100
AcDbEntity
  8
Glasses_outline
 62
7
100
AcDbSpline
 70
8
 71
3
 72
8
 73
4
 74
0
 40
0
 40
0
 40
0
 40
0
 40
1
 40
1
 40
1
 40
1
 10
76.112819
 20
53.072010
 30
0.0
 10
77.699396
 20
52.478395
 30
0.0
 10
79.414655
 20
51.301870
 30
0.0
 10
80.326992
 20
50.181442
 30
0.0
  0
SPLINE
  5
210
100
AcDbEntity
  8
Glasses_outline
 62
7
100
AcDbSpline
 70
8
 71
3
 72
8
 73
4
 74
0
 40
0
 40
0
 40
0
 40
0
 40
1
 40
1
 40
1
 40
1
 10
80.326992
 20
50.181442
 30
0.0
 10
80.763553
 20
49.645304
 30
0.0
 10
81.273306
 20
49.053024
 30
0.0
 10
81.459773
 20
48.865262
 30
0.0
  0
SPLINE
  5
211
100
AcDbEntity
  8
Glasses_outline
 62
7
100
AcDbSpline
 70
8
 71
3
 72
8
 73
4
 74
0
 40
0
 40
0
 40
0
 40
0
 40
1
 40
1
 40
1
 40
1
 10
81.459773
 20
48.865262
 30
0.0
 10
81.646243
 20
48.677502
 30
0.0
 10
81.975760
 20
48.185307
 30
0.0
 10
82.192041
 20
47.771501
 30
0.0
  0
SPLINE
  5
212
100
AcDbEntity
  8
Glasses_outline
 62
7
100
AcDbSpline
 70
8
 71
3
 72
8
 73
4
 74
0
 40
0
 40
0
 40
0
 40
0
 40
1
 40
1
 40
1
 40
1
 10
82.192041
 20
47.771501
 30
0.0
 10
82.408319
 20
47.357696
 30
0.0
 10
83.474520
 20
46.195253
 30
0.0
 10
84.561375
 20
45.188290
 30
0.0
  0
SPLINE
  5
213
100
AcDbEntity
  8
Glasses_outline
 62
7
100
AcDbSpline
 70
8
 71
3
 72
8
 73
4
 74
0
 40
0
 40
0
 40
0
 40
0
 40
1
 40
1
 40
1
 40
1
 10
84.561375
 20
45.188290
 30
0.0
 10
85.648230
 20
44.181330
 30
0.0
 10
87.140333
 20
42.573987
 30
0.0
 10
87.877162
 20
41.616415
 30
0.0
  0
SPLINE
  5
214
100
AcDbEntity
  8
Glasses_outline
 62
7
100
AcDbSpline
 70
8
 71
3
 72
8
 73
4
 74
0
 40
0
 40
0
 40
0
 40
0
 40
1
 40
1
 40
1
 40
1
 10
87.877162
 20
41.616415
 30
0.0
 10
90.128036
 20
38.691207
 30
0.0
 10
91.400861
 20
37.500066
 30
0.0
 10
92.697721
 20
37.105214
 30
0.0
  0
SPLINE
  5
215
100
AcDbEntity
  8
Glasses_outline
 62
7
100
AcDbSpline
 70
8
 71
3
 72
8
 73
4
 74
0
 40
0
 40
0
 40
0
 40
0
 40
1
 40
1
 40
1
 40
1
 10
92.697721
 20
37.105214
 30
0.0
 10
95.443043
 20
36.269345
 30
0.0
 10
99.500111
 20
33.878923
 30
0.0
 10
102.623741
 20
31.256811
 30
0.0
  0
SPLINE
  5
216
100
AcDbEntity
  8
Glasses_outline
 62
7
100
AcDbSpline
 70
8
 71
3
 72
8
 73
4
 74
0
 40
0
 40
0
 40
0
 40
0
 40
1
 40
1
 40
1
 40
1
 10
102.623741
 20
31.256811
 30
0.0
 10
104.605571
 20
29.593176
 30
0.0
 10
105.113850
 20
29.445858
 30
0.0
 10
106.849568
 20
30.032020
 30
0.0
  0
SPLINE
  5
217
100
AcDbEntity
  8
Glasses_outline
 62
7
100
AcDbSpline
 70
8
 71
3
 72
8
 73
4
 74
0
 40
0
 40
0
 40
0
 40
0
 40
1
 40
1
 40
1
 40
1
 10
106.849568
 20
30.032020
 30
0.0
 10
107.529650
 20
30.261687
 30
0.0
 10
108.537556
 20
30.451715
 30
0.0
 10
109.089351
 20
30.454306
 30
0.0
  0
SPLINE
  5
218
100
AcDbEntity
  8
Glasses_outline
 62
7
100
AcDbSpline
 70
8
 71
3
 72
8
 73
4
 74
0
 40
0
 40
0
 40
0
 40
0
 40
1
 40
1
 40
1
 40
1
 10
109.089351
 20
30.454306
 30
0.0
 10
109.693363
 20
30.457157
 30
0.0
 10
110.566429
 20
30.654201
 30
0.0
 10
111.283242
 20
30.949479
 30
0.0
  0
SPLINE
  5
219
100
AcDbEntity
  8
Glasses_outline
 62
7
100
AcDbSpline
 70
8
 71
3
 72
8
 73
4
 74
0
 40
0
 40
0
 40
0
 40
0
 40
1
 40
1
 40
1
 40
1
 10
111.283242
 20
30.949479
 30
0.0
 10
112.774549
 20
31.563809
 30
0.0
 10
113.181903
 20
31.564997
 30
0.0
 10
113.753389
 20
30.956676
 30
0.0
  0
SPLINE
  5
21a
100
AcDbEntity
  8
Glasses_outline
 62
7
100
AcDbSpline
 70
8
 71
3
 72
8
 73
4
 74
0
 40
0
 40
0
 40
0
 40
0
 40
1
 40
1
 40
1
 40
1
 10
113.753389
 20
30.956676
 30
0.0
 10
114.508108
 20
30.153313
 30
0.0
 10
113.980412
 20
29.142213
 30
0.0
 10
112.236064
 20
28.049389
 30
0.0
  0
SPLINE
  5
21b
100
AcDbEntity
  8
Glasses_outline
 62
7
100
AcDbSpline
 70
8
 71
3
 72
8
 73
4
 74
0
 40
0
 40
0
 40
0
 40
0
 40
1
 40
1
 40
1
 40
1
 10
112.236064
 20
28.049389
 30
0.0
 10
111.175286
 20
27.384818
 30
0.0
 10
111.216945
 20
27.049078
 30
0.0
 10
112.564867
 20
25.399500
 30
0.0
  0
SPLINE
  5
21c
100
AcDbEntity
  8
Glasses_outline
 62
7
100
AcDbSpline
 70
8
 71
3
 72
8
 73
4
 74
0
 40
0
 40
0
 40
0
 40
0
 40
1
 40
1
 40
1
 40
1
 10
112.564867
 20
25.399500
 30
0.0
 10
113.229706
 20
24.585873
 30
0.0
 10
114.448401
 20
23.313895
 30
0.0
 10
115.273080
 20
22.572878
 30
0.0
  0
SPLINE
  5
21d
100
AcDbEntity
  8
Glasses_outline
 62
7
100
AcDbSpline
 70
8
 71
3
 72
8
 73
4
 74
0
 40
0
 40
0
 40
0
 40
0
 40
1
 40
1
 40
1
 40
1
 10
115.273080
 20
22.572878
 30
0.0
 10
116.712681
 20
21.279332
 30
0.0
 10
116.767528
 20
21.197807
 30
0.0
 10
116.647976
 20
20.529383
 30
0.0
  0
SPLINE
  5
21e
100
AcDbEntity
  8
Glasses_outline
 62
7
100
AcDbSpline
 70
8
 71
3
 72
8
 73
4
 74
0
 40
0
 40
0
 40
0
 40
0
 40
1
 40
1
 40
1
 40
1
 10
116.647976
 20
20.529383
 30
0.0
 10
116.579489
 20
20.146478
 30
0.0
 10
116.473811
 20
19.451935
 30
0.0
 10
116.413136
 20
18.985952
 30
0.0
  0
SPLINE
  5
21f
100
AcDbEntity
  8
Glasses_outline
 62
7
100
AcDbSpline
 70
8
 71
3
 72
8
 73
4
 74
0
 40
0
 40
0
 40
0
 40
0
 40
1
 40
1
 40
1
 40
1
 10
116.413136
 20
18.985952
 30
0.0
 10
116.277940
 20
17.947651
 30
0.0
 10
115.846583
 20
17.664545
 30
0.0
 10
114.695946
 20
17.858943
 30
0.0
  0
SPLINE
  5
220
100
AcDbEntity
  8
Glasses_outline
 62
7
100
AcDbSpline
 70
8
 71
3
 72
8
 73
4
 74
0
 40
0
 40
0
 40
0
 40
0
 40
1
 40
1
 40
1
 40
1
 10
114.695946
 20
17.858943
 30
0.0
 10
113.949951
 20
17.984980
 30
0.0
 10
113.897306
 20
17.967610
 30
0.0
 10
114.139788
 20
17.675439
 30
0.0
  0
SPLINE
  5
221
100
AcDbEntity
  8
Glasses_outline
 62
7
100
AcDbSpline
 70
8
 71
3
 72
8
 73
4
 74
0
 40
0
 40
0
 40
0
 40
0
 40
1
 40
1
 40
1
 40
1
 10
114.139788
 20
17.675439
 30
0.0
 10
114.363147
 20
17.406304
 30
0.0
 10
114.363678
 20
17.299773
 30
0.0
 10
114.142977
 20
17.033841
 30
0.0
  0
SPLINE
  5
222
100
AcDbEntity
  8
Glasses_outline
 62
7
100
AcDbSpline
 70
8
 71
3
 72
8
 73
4
 74
0
 40
0
 40
0
 40
0
 40
0
 40
1
 40
1
 40
1
 40
1
 10
114.142977
 20
17.033841
 30
0.0
 10
113.842182
 20
16.671400
 30
0.0
 10
112.957700
 20
16.736099
 30
0.0
 10
111.265425
 20
17.244328
 30
0.0
  0
SPLINE
  5
223
100
AcDbEntity
  8
Glasses_outline
 62
7
100
AcDbSpline
 70
8
 71
3
 72
8
 73
4
 74
0
 40
0
 40
0
 40
0
 40
0
 40
1
 40
1
 40
1
 40
1
 10
111.265425
 20
17.244328
 30
0.0
 10
110.402689
 20
17.503425
 30
0.0
 10
109.890679
 20
17.907660
 30
0.0
 10
107.754039
 20
20.016577
 30
0.0
  0
SPLINE
  5
224
100
AcDbEntity
  8
Glasses_outline
 62
7
100
AcDbSpline
 70
8
 71
3
 72
8
 73
4
 74
0
 40
0
 40
0
 40
0
 40
0
 40
1
 40
1
 40
1
 40
1
 10
107.754039
 20
20.016577
 30
0.0
 10
105.017000
 20
22.718101
 30
0.0
 10
104.040285
 20
23.923845
 30
0.0
 10
104.040285
 20
24.601158
 30
0.0
  0
SPLINE
  5
225
100
AcDbEntity
  8
Glasses_outline
 62
7
100
AcDbSpline
 70
8
 71
3
 72
8
 73
4
 74
0
 40
0
 40
0
 40
0
 40
0
 40
1
 40
1
 40
1
 40
1
 10
104.040285
 20
24.601158
 30
0.0
 10
104.040285
 20
25.103263
 30
0.0
 10
103.764766
 20
25.376152
 30
0.0
 10
103.048099
 20
25.583862
 30
0.0
  0
SPLINE
  5
226
100
AcDbEntity
  8
Glasses_outline
 62
7
100
AcDbSpline
 70
8
 71
3
 72
8
 73
4
 74
0
 40
0
 40
0
 40
0
 40
0
 40
1
 40
1
 40
1
 40
1
 10
103.048099
 20
25.583862
 30
0.0
 10
100.931173
 20
26.197399
 30
0.0
 10
92.496318
 20
29.403158
 30
0.0
 10
91.141849
 20
30.108956
 30
0.0
  0
SPLINE
  5
227
100
AcDbEntity
  8
Glasses_outline
 62
7
100
AcDbSpline
 70
8
 71
3
 72
8
 73
4
 74
0
 40
0
 40
0
 40
0
 40
0
 40
1
 40
1
 40
1
 40
1
 10
91.141849
 20
30.108956
 30
0.0
 10
87.833581
 20
31.832866
 30
0.0
 10
86.672330
 20
32.516933
 30
0.0
 10
86.339429
 20
32.937960
 30
0.0
  0
SPLINE
  5
228
100
AcDbEntity
  8
Glasses_outline
 62
7
100
AcDbSpline
 70
8
 71
3
 72
8
 73
4
 74
0
 40
0
 40
0
 40
0
 40
0
 40
1
 40
1
 40
1
 40
1
 10
86.339429
 20
32.937960
 30
0.0
 10
86.153760
 20
33.172778
 30
0.0
 10
85.075632
 20
33.949784
 30
0.0
 10
83.943596
 20
34.664636
 30
0.0
  0
SPLINE
  5
229
100
AcDbEntity
  8
Glasses_outline
 62
7
100
AcDbSpline
 70
8
 71
3
 72
8
 73
4
 74
0
 40
0
 40
0
 40
0
 40
0
 40
1
 40
1
 40
1
 40
1
 10
83.943596
 20
34.664636
 30
0.0
 10
82.007078
 20
35.887493
 30
0.0
 10
78.731770
 20
38.355555
 30
0.0
 10
76.601681
 20
40.197021
 30
0.0
  0
LWPOLYLINE
  5
22a
100
AcDbEntity
  8
Glasses_outline
 62
7
100
AcDbPolyline
 90
3
 70
1
 10
77.848183
 20
70.032846
 30
0.0
 10
77.618759
 20
70.728010
 30
0.0
 10
77.104759
 20
70.117154
 30
0.0
  0
SPLINE
  5
22b
100
AcDbEntity
  8
Glasses_outline
 62
7
100
AcDbSpline
 70
8
 71
3
 72
8
 73
4
 74
0
 40
0
 40
0
 40
0
 40
0
 40
1
 40
1
 40
1
 40
1
 10
75.784487
 20
39.850311
 30
0.0
 10
75.855985
 20
39.209249
 30
0.0
 10
76.036658
 20
38.383624
 30
0.0
 10
76.185979
 20
38.015590
 30
0.0
  0
SPLINE
  5
22c
100
AcDbEntity
  8
Glasses_outline
 62
7
100
AcDbSpline
 70
8
 71
3
 72
8
 73
4
 74
0
 40
0
 40
0
 40
0
 40
0
 40
1
 40
1
 40
1
 40
1
 10
76.185979
 20
38.015590
 30
0.0
 10
76.623105
 20
36.938201
 30
0.0
 10
76.533570
 20
36.355087
 30
0.0
 10
75.862160
 20
35.906619
 30
0.0
  0
SPLINE
  5
22d
100
AcDbEntity
  8
Glasses_outline
 62
7
100
AcDbSpline
 70
8
 71
3
 72
8
 73
4
 74
0
 40
0
 40
0
 40
0
 40
0
 40
1
 40
1
 40
1
 40
1
 10
75.862160
 20
35.906619
 30
0.0
 10
75.180238
 20
35.451130
 30
0.0
 10
75.107760
 20
34.926137
 30
0.0
 10
75.606772
 20
34.056661
 30
0.0
  0
SPLINE
  5
22e
100
AcDbEntity
  8
Glasses_outline
 62
7
100
AcDbSpline
 70
8
 71
3
 72
8
 73
4
 74
0
 40
0
 40
0
 40
0
 40
0
 40
1
 40
1
 40
1
 40
1
 10
75.606772
 20
34.056661
 30
0.0
 10
75.927740
 20
33.497407
 30
0.0
 10
75.927706
 20
33.404161
 30
0.0
 10
75.606207
 20
32.384291
 30
0.0
  0
LWPOLYLINE
  5
22f
100
AcDbEntity
  8
Glasses_outline
 62
7
100
AcDbPolyline
 90
3
 70
1
 10
76.601681
 20
40.197021
 30
0.0
 10
75.654487
 20
41.015874
 30
0.0
 10
75.784487
 20
39.850311
 30
0.0
  0
SPLINE
  5
230
100
AcDbEntity
  8
Glasses_outline
 62
7
100
AcDbSpline
 70
8
 71
3
 72
8
 73
4
 74
0
 40
0
 40
0
 40
0
 40
0
 40
1
 40
1
 40
1
 40
1
 10
76.235786
 20
29.239785
 30
0.0
 10
76.769316
 20
28.104357
 30
0.0
 10
77.267525
 20
26.801885
 30
0.0
 10
77.342921
 20
26.345405
 30
0.0
  0
SPLINE
  5
231
100
AcDbEntity
  8
Glasses_outline
 62
7
100
AcDbSpline
 70
8
 71
3
 72
8
 73
4
 74
0
 40
0
 40
0
 40
0
 40
0
 40
1
 40
1
 40
1
 40
1
 10
77.342921
 20
26.345405
 30
0.0
 10
77.418319
 20
25.888919
 30
0.0
 10
77.919312
 20
24.478818
 30
0.0
 10
78.456240
 20
23.211843
 30
0.0
  0
SPLINE
  5
232
100
AcDbEntity
  8
Glasses_outline
 62
7
100
AcDbSpline
 70
8
 71
3
 72
8
 73
4
 74
0
 40
0
 40
0
 40
0
 40
0
 40
1
 40
1
 40
1
 40
1
 10
78.456240
 20
23.211843
 30
0.0
 10
78.993167
 20
21.944869
 30
0.0
 10
79.485323
 20
20.443119
 30
0.0
 10
79.549919
 20
19.874622
 30
0.0
  0
SPLINE
  5
233
100
AcDbEntity
  8
Glasses_outline
 62
7
100
AcDbSpline
 70
8
 71
3
 72
8
 73
4
 74
0
 40
0
 40
0
 40
0
 40
0
 40
1
 40
1
 40
1
 40
1
 10
79.549919
 20
19.874622
 30
0.0
 10
79.735979
 20
18.237135
 30
0.0
 10
79.181003
 20
15.394866
 30
0.0
 10
78.314787
 20
13.548992
 30
0.0
  0
SPLINE
  5
234
100
AcDbEntity
  8
Glasses_outline
 62
7
100
AcDbSpline
 70
8
 71
3
 72
8
 73
4
 74
0
 40
0
 40
0
 40
0
 40
0
 40
1
 40
1
 40
1
 40
1
 10
78.314787
 20
13.548992
 30
0.0
 10
77.677329
 20
12.190591
 30
0.0
 10
77.311247
 20
11.717133
 30
0.0
 10
75.870240
 20
10.387423
 30
0.0
  0
SPLINE
  5
235
100
AcDbEntity
  8
Glasses_outline
 62
7
100
AcDbSpline
 70
8
 71
3
 72
8
 73
4
 74
0
 40
0
 40
0
 40
0
 40
0
 40
1
 40
1
 40
1
 40
1
 10
75.870240
 20
10.387423
 30
0.0
 10
74.938091
 20
9.527269
 30
0.0
 10
74.041480
 20
8.824465
 30
0.0
 10
73.877768
 20
8.825625
 30
0.0
  0
SPLINE
  5
236
100
AcDbEntity
  8
Glasses_outline
 62
7
100
AcDbSpline
 70
8
 71
3
 72
8
 73
4
 74
0
 40
0
 40
0
 40
0
 40
0
 40
1
 40
1
 40
1
 40
1
 10
73.877768
 20
8.825625
 30
0.0
 10
73.714060
 20
8.827318
 30
0.0
 10
74.402095
 20
9.607318
 30
0.0
 10
75.406735
 20
10.560146
 30
0.0
  0
LWPOLYLINE
  5
237
100
AcDbEntity
  8
Glasses_outline
 62
7
100
AcDbPolyline
 90
3
 70
1
 10
75.606207
 20
32.384291
 30
0.0
 10
75.265737
 20
31.304199
 30
0.0
 10
76.235786
 20
29.239785
 30
0.0
  0
SPLINE
  5
238
100
AcDbEntity
  8
Glasses_outline
 62
7
100
AcDbSpline
 70
8
 71
3
 72
8
 73
4
 74
0
 40
0
 40
0
 40
0
 40
0
 40
1
 40
1
 40
1
 40
1
 10
115.847312
 20
18.838643
 30
0.0
 10
115.847312
 20
19.118585
 30
0.0
 10
115.127851
 20
19.737422
 30
0.0
 10
113.370016
 20
20.969469
 30
0.0
  0
LWPOLYLINE
  5
239
100
AcDbEntity
  8
Glasses_outline
 62
7
100
AcDbPolyline
 90
2
 70
1
 10
75.406735
 20
10.560146
 30
0.0
 10
75.406747
 20
10.560154
 30
0.0
  0
SPLINE
  5
23a
100
AcDbEntity
  8
Glasses_outline
 62
7
100
AcDbSpline
 70
8
 71
3
 72
8
 73
4
 74
0
 40
0
 40
0
 40
0
 40
0
 40
1
 40
1
 40
1
 40
1
 10
110.393455
 20
22.067830
 30
0.0
 10
110.118858
 20
21.716960
 30
0.0
 10
109.894187
 20
21.338520
 30
0.0
 10
109.894187
 20
21.226850
 30
0.0
  0
SPLINE
  5
23b
100
AcDbEntity
  8
Glasses_outline
 62
7
100
AcDbSpline
 70
8
 71
3
 72
8
 73
4
 74
0
 40
0
 40
0
 40
0
 40
0
 40
1
 40
1
 40
1
 40
1
 10
109.894187
 20
21.226850
 30
0.0
 10
109.894187
 20
20.891076
 30
0.0
 10
113.106324
 20
18.578350
 30
0.0
 10
113.704407
 20
18.483506
 30
0.0
  0
SPLINE
  5
23c
100
AcDbEntity
  8
Glasses_outline
 62
7
100
AcDbSpline
 70
8
 71
3
 72
8
 73
4
 74
0
 40
0
 40
0
 40
0
 40
0
 40
1
 40
1
 40
1
 40
1
 10
113.704407
 20
18.483506
 30
0.0
 10
114.009881
 20
18.435063
 30
0.0
 10
114.616998
 20
18.406386
 30
0.0
 10
115.053562
 20
18.419778
 30
0.0
  0
SPLINE
  5
23d
100
AcDbEntity
  8
Glasses_outline
 62
7
100
AcDbSpline
 70
8
 71
3
 72
8
 73
4
 74
0
 40
0
 40
0
 40
0
 40
0
 40
1
 40
1
 40
1
 40
1
 10
115.053562
 20
18.419778
 30
0.0
 10
115.705272
 20
18.439759
 30
0.0
 10
115.847312
 20
18.514726
 30
0.0
 10
115.847312
 20
18.838643
 30
0.0
  0
LWPOLYLINE
  5
23e
100
AcDbEntity
  8
Glasses_outline
 62
7
100
AcDbPolyline
 90
3
 70
1
 10
113.370016
 20
20.969469
 30
0.0
 10
110.892723
 20
22.705779
 30
0.0
 10
110.393455
 20
22.067830
 30
0.0
  0
SPLINE
  5
23f
100
AcDbEntity
  8
Glasses_outline
 62
7
100
AcDbSpline
 70
8
 71
3
 72
8
 73
4
 74
0
 40
0
 40
0
 40
0
 40
0
 40
1
 40
1
 40
1
 40
1
 10
71.325373
 20
17.897060
 30
0.0
 10
71.072313
 20
18.369909
 30
0.0
 10
71.352551
 20
18.839493
 30
0.0
 10
71.788076
 20
18.672369
 30
0.0
  0
SPLINE
  5
240
100
AcDbEntity
  8
Glasses_outline
 62
7
100
AcDbSpline
 70
8
 71
3
 72
8
 73
4
 74
0
 40
0
 40
0
 40
0
 40
0
 40
1
 40
1
 40
1
 40
1
 10
71.788076
 20
18.672369
 30
0.0
 10
71.990354
 20
18.594750
 30
0.0
 10
72.094903
 20
18.376708
 30
0.0
 10
72.056154
 20
18.113293
 30
0.0
  0
SPLINE
  5
241
100
AcDbEntity
  8
Glasses_outline
 62
7
100
AcDbSpline
 70
8
 71
3
 72
8
 73
4
 74
0
 40
0
 40
0
 40
0
 40
0
 40
1
 40
1
 40
1
 40
1
 10
72.056154
 20
18.113293
 30
0.0
 10
71.972901
 20
17.547398
 30
0.0
 10
71.575447
 20
17.429793
 30
0.0
 10
71.325373
 20
17.897060
 30
0.0
  0
LWPOLYLINE
  5
242
100
AcDbEntity
  8
Glasses_outline
 62
7
100
AcDbPolyline
 90
2
 70
1
 10
115.847312
 20
18.838643
 30
0.0
 10
115.847312
 20
18.838643
 30
0.0
  0
SPLINE
  5
243
100
AcDbEntity
  8
Glasses_outline
 62
7
100
AcDbSpline
 70
8
 71
3
 72
8
 73
4
 74
0
 40
0
 40
0
 40
0
 40
0
 40
1
 40
1
 40
1
 40
1
 10
15.084433
 20
21.535878
 30
0.0
 10
14.676560
 20
21.872078
 30
0.0
 10
14.394448
 20
22.230653
 30
0.0
 10
14.457522
 20
22.332707
 30
0.0
  0
SPLINE
  5
244
100
AcDbEntity
  8
Glasses_outline
 62
7
100
AcDbSpline
 70
8
 71
3
 72
8
 73
4
 74
0
 40
0
 40
0
 40
0
 40
0
 40
1
 40
1
 40
1
 40
1
 10
14.457522
 20
22.332707
 30
0.0
 10
14.601444
 20
22.565580
 30
0.0
 10
16.122478
 20
21.509442
 30
0.0
 10
16.128230
 20
21.172644
 30
0.0
  0
SPLINE
  5
245
100
AcDbEntity
  8
Glasses_outline
 62
7
100
AcDbSpline
 70
8
 71
3
 72
8
 73
4
 74
0
 40
0
 40
0
 40
0
 40
0
 40
1
 40
1
 40
1
 40
1
 10
16.128230
 20
21.172644
 30
0.0
 10
16.134805
 20
20.787498
 30
0.0
 10
15.888256
 20
20.873296
 30
0.0
 10
15.084433
 20
21.535878
 30
0.0
  0
LWPOLYLINE
  5
246
100
AcDbEntity
  8
Glasses_outline
 62
7
100
AcDbPolyline
 90
2
 70
1
 10
71.325373
 20
17.897060
 30
0.0
 10
71.325373
 20
17.897060
 30
0.0
  0
SPLINE
  5
247
100
AcDbEntity
  8
Glasses_outline
 62
7
100
AcDbSpline
 70
8
 71
3
 72
8
 73
4
 74
0
 40
0
 40
0
 40
0
 40
0
 40
1
 40
1
 40
1
 40
1
 10
16.997087
 20
23.605823
 30
0.0
 10
16.759380
 20
24.225281
 30
0.0
 10
17.697323
 20
26.371200
 30
0.0
 10
18.051139
 20
26.017383
 30
0.0
  0
SPLINE
  5
248
100
AcDbEntity
  8
Glasses_outline
 62
7
100
AcDbSpline
 70
8
 71
3
 72
8
 73
4
 74
0
 40
0
 40
0
 40
0
 40
0
 40
1
 40
1
 40
1
 40
1
 10
18.051139
 20
26.017383
 30
0.0
 10
18.126397
 20
25.942129
 30
0.0
 10
18.038016
 20
25.566104
 30
0.0
 10
17.854752
 20
25.181780
 30
0.0
  0
SPLINE
  5
249
100
AcDbEntity
  8
Glasses_outline
 62
7
100
AcDbSpline
 70
8
 71
3
 72
8
 73
4
 74
0
 40
0
 40
0
 40
0
 40
0
 40
1
 40
1
 40
1
 40
1
 10
17.854752
 20
25.181780
 30
0.0
 10
17.671480
 20
24.797455
 30
0.0
 10
17.521530
 20
24.268066
 30
0.0
 10
17.521530
 20
24.005356
 30
0.0
  0
SPLINE
  5
24a
100
AcDbEntity
  8
Glasses_outline
 62
7
100
AcDbSpline
 70
8
 71
3
 72
8
 73
4
 74
0
 40
0
 40
0
 40
0
 40
0
 40
1
 40
1
 40
1
 40
1
 10
17.521530
 20
24.005356
 30
0.0
 10
17.521530
 20
23.424447
 30
0.0
 10
17.169579
 20
23.156322
 30
0.0
 10
16.997087
 20
23.605823
 30
0.0
  0
LWPOLYLINE
  5
24b
100
AcDbEntity
  8
Glasses_outline
 62
7
100
AcDbPolyline
 90
2
 70
1
 10
15.084433
 20
21.535878
 30
0.0
 10
15.084433
 20
21.535878
 30
0.0
  0
SPLINE
  5
24c
100
AcDbEntity
  8
Glasses_outline
 62
7
100
AcDbSpline
 70
8
 71
3
 72
8
 73
4
 74
0
 40
0
 40
0
 40
0
 40
0
 40
1
 40
1
 40
1
 40
1
 10
107.786046
 20
25.076900
 30
0.0
 10
107.669053
 20
25.412508
 30
0.0
 10
107.492772
 20
25.687099
 30
0.0
 10
107.394304
 20
25.687099
 30
0.0
  0
SPLINE
  5
24d
100
AcDbEntity
  8
Glasses_outline
 62
7
100
AcDbSpline
 70
8
 71
3
 72
8
 73
4
 74
0
 40
0
 40
0
 40
0
 40
0
 40
1
 40
1
 40
1
 40
1
 10
107.394304
 20
25.687099
 30
0.0
 10
107.295843
 20
25.687099
 30
0.0
 10
107.215280
 20
25.821041
 30
0.0
 10
107.215280
 20
25.984753
 30
0.0
  0
SPLINE
  5
24e
100
AcDbEntity
  8
Glasses_outline
 62
7
100
AcDbSpline
 70
8
 71
3
 72
8
 73
4
 74
0
 40
0
 40
0
 40
0
 40
0
 40
1
 40
1
 40
1
 40
1
 10
107.215280
 20
25.984753
 30
0.0
 10
107.215280
 20
26.631411
 30
0.0
 10
108.034523
 20
26.002025
 30
0.0
 10
108.291289
 20
25.158096
 30
0.0
  0
SPLINE
  5
24f
100
AcDbEntity
  8
Glasses_outline
 62
7
100
AcDbSpline
 70
8
 71
3
 72
8
 73
4
 74
0
 40
0
 40
0
 40
0
 40
0
 40
1
 40
1
 40
1
 40
1
 10
108.291289
 20
25.158096
 30
0.0
 10
108.500218
 20
24.471384
 30
0.0
 10
108.023821
 20
24.394826
 30
0.0
 10
107.786046
 20
25.076900
 30
0.0
  0
LWPOLYLINE
  5
250
100
AcDbEntity
  8
Glasses_outline
 62
7
100
AcDbPolyline
 90
2
 70
1
 10
16.997087
 20
23.605823
 30
0.0
 10
16.997087
 20
23.605823
 30
0.0
  0
SPLINE
  5
251
100
AcDbEntity
  8
Glasses_outline
 62
7
100
AcDbSpline
 70
8
 71
3
 72
8
 73
4
 74
0
 40
0
 40
0
 40
0
 40
0
 40
1
 40
1
 40
1
 40
1
 10
58.647703
 20
31.013058
 30
0.0
 10
57.768307
 20
31.343885
 30
0.0
 10
57.412969
 20
31.984933
 30
0.0
 10
58.250828
 20
31.729042
 30
0.0
  0
SPLINE
  5
252
100
AcDbEntity
  8
Glasses_outline
 62
7
100
AcDbSpline
 70
8
 71
3
 72
8
 73
4
 74
0
 40
0
 40
0
 40
0
 40
0
 40
1
 40
1
 40
1
 40
1
 10
58.250828
 20
31.729042
 30
0.0
 10
59.249223
 20
31.424123
 30
0.0
 10
59.987155
 20
31.053337
 30
0.0
 10
59.987155
 20
30.856600
 30
0.0
  0
SPLINE
  5
253
100
AcDbEntity
  8
Glasses_outline
 62
7
100
AcDbSpline
 70
8
 71
3
 72
8
 73
4
 74
0
 40
0
 40
0
 40
0
 40
0
 40
1
 40
1
 40
1
 40
1
 10
59.987155
 20
30.856600
 30
0.0
 10
59.987155
 20
30.587306
 30
0.0
 10
59.685882
 20
30.622496
 30
0.0
 10
58.647703
 20
31.013058
 30
0.0
  0
LWPOLYLINE
  5
254
100
AcDbEntity
  8
Glasses_outline
 62
7
100
AcDbPolyline
 90
2
 70
1
 10
107.786046
 20
25.076900
 30
0.0
 10
107.786046
 20
25.076900
 30
0.0
  0
SPLINE
  5
255
100
AcDbEntity
  8
Glasses_outline
 62
7
100
AcDbSpline
 70
8
 71
3
 72
8
 73
4
 74
0
 40
0
 40
0
 40
0
 40
0
 40
1
 40
1
 40
1
 40
1
 10
67.243503
 20
30.824824
 30
0.0
 10
66.899511
 20
31.381417
 30
0.0
 10
70.171067
 20
32.665963
 30
0.0
 10
71.484089
 20
32.489848
 30
0.0
  0
SPLINE
  5
256
100
AcDbEntity
  8
Glasses_outline
 62
7
100
AcDbSpline
 70
8
 71
3
 72
8
 73
4
 74
0
 40
0
 40
0
 40
0
 40
0
 40
1
 40
1
 40
1
 40
1
 10
71.484089
 20
32.489848
 30
0.0
 10
72.676196
 20
32.329952
 30
0.0
 10
72.558382
 20
31.931288
 30
0.0
 10
71.347988
 20
32.029295
 30
0.0
  0
SPLINE
  5
257
100
AcDbEntity
  8
Glasses_outline
 62
7
100
AcDbSpline
 70
8
 71
3
 72
8
 73
4
 74
0
 40
0
 40
0
 40
0
 40
0
 40
1
 40
1
 40
1
 40
1
 10
71.347988
 20
32.029295
 30
0.0
 10
70.727212
 20
32.079562
 30
0.0
 10
68.746531
 20
31.484759
 30
0.0
 10
67.989978
 20
31.020884
 30
0.0
  0
SPLINE
  5
258
100
AcDbEntity
  8
Glasses_outline
 62
7
100
AcDbSpline
 70
8
 71
3
 72
8
 73
4
 74
0
 40
0
 40
0
 40
0
 40
0
 40
1
 40
1
 40
1
 40
1
 10
67.989978
 20
31.020884
 30
0.0
 10
67.627604
 20
30.798696
 30
0.0
 10
67.311036
 20
30.715551
 30
0.0
 10
67.243503
 20
30.824824
 30
0.0
  0
LWPOLYLINE
  5
259
100
AcDbEntity
  8
Glasses_outline
 62
7
100
AcDbPolyline
 90
2
 70
1
 10
58.647703
 20
31.013058
 30
0.0
 10
58.647703
 20
31.013058
 30
0.0
  0
SPLINE
  5
25a
100
AcDbEntity
  8
Glasses_outline
 62
7
100
AcDbSpline
 70
8
 71
3
 72
8
 73
4
 74
0
 40
0
 40
0
 40
0
 40
0
 40
1
 40
1
 40
1
 40
1
 10
59.441453
 20
32.480560
 30
0.0
 10
58.109028
 20
33.033256
 30
0.0
 10
57.623930
 20
33.426160
 30
0.0
 10
58.273975
 20
33.426160
 30
0.0
  0
SPLINE
  5
25b
100
AcDbEntity
  8
Glasses_outline
 62
7
100
AcDbSpline
 70
8
 71
3
 72
8
 73
4
 74
0
 40
0
 40
0
 40
0
 40
0
 40
1
 40
1
 40
1
 40
1
 10
58.273975
 20
33.426160
 30
0.0
 10
58.597317
 20
33.426160
 30
0.0
 10
60.576446
 20
32.642796
 30
0.0
 10
60.929734
 20
32.374978
 30
0.0
  0
SPLINE
  5
25c
100
AcDbEntity
  8
Glasses_outline
 62
7
100
AcDbSpline
 70
8
 71
3
 72
8
 73
4
 74
0
 40
0
 40
0
 40
0
 40
0
 40
1
 40
1
 40
1
 40
1
 10
60.929734
 20
32.374978
 30
0.0
 10
61.200685
 20
32.169577
 30
0.0
 10
61.267213
 20
31.825099
 30
0.0
 10
61.028953
 20
31.861226
 30
0.0
  0
SPLINE
  5
25d
100
AcDbEntity
  8
Glasses_outline
 62
7
100
AcDbSpline
 70
8
 71
3
 72
8
 73
4
 74
0
 40
0
 40
0
 40
0
 40
0
 40
1
 40
1
 40
1
 40
1
 10
61.028953
 20
31.861226
 30
0.0
 10
60.947097
 20
31.873616
 30
0.0
 10
60.232722
 20
32.152338
 30
0.0
 10
59.441453
 20
32.480560
 30
0.0
  0
LWPOLYLINE
  5
25e
100
AcDbEntity
  8
Glasses_outline
 62
7
100
AcDbPolyline
 90
2
 70
1
 10
67.243503
 20
30.824824
 30
0.0
 10
67.243503
 20
30.824824
 30
0.0
  0
SPLINE
  5
25f
100
AcDbEntity
  8
Glasses_outline
 62
7
100
AcDbSpline
 70
8
 71
3
 72
8
 73
4
 74
0
 40
0
 40
0
 40
0
 40
0
 40
1
 40
1
 40
1
 40
1
 10
59.094187
 20
34.605942
 30
0.0
 10
58.393197
 20
34.892852
 30
0.0
 10
58.055363
 20
35.473877
 30
0.0
 10
57.633836
 20
37.117533
 30
0.0
  0
SPLINE
  5
260
100
AcDbEntity
  8
Glasses_outline
 62
7
100
AcDbSpline
 70
8
 71
3
 72
8
 73
4
 74
0
 40
0
 40
0
 40
0
 40
0
 40
1
 40
1
 40
1
 40
1
 10
57.633836
 20
37.117533
 30
0.0
 10
57.407059
 20
38.001812
 30
0.0
 10
57.132818
 20
38.958590
 30
0.0
 10
57.024417
 20
39.243711
 30
0.0
  0
SPLINE
  5
261
100
AcDbEntity
  8
Glasses_outline
 62
7
100
AcDbSpline
 70
8
 71
3
 72
8
 73
4
 74
0
 40
0
 40
0
 40
0
 40
0
 40
1
 40
1
 40
1
 40
1
 10
57.024417
 20
39.243711
 30
0.0
 10
56.827197
 20
39.762432
 30
0.0
 10
57.057674
 20
40.181603
 30
0.0
 10
57.312972
 20
39.768517
 30
0.0
  0
SPLINE
  5
262
100
AcDbEntity
  8
Glasses_outline
 62
7
100
AcDbSpline
 70
8
 71
3
 72
8
 73
4
 74
0
 40
0
 40
0
 40
0
 40
0
 40
1
 40
1
 40
1
 40
1
 10
57.312972
 20
39.768517
 30
0.0
 10
57.541425
 20
39.398874
 30
0.0
 10
58.399655
 20
36.562157
 30
0.0
 10
58.399655
 20
36.176692
 30
0.0
  0
SPLINE
  5
263
100
AcDbEntity
  8
Glasses_outline
 62
7
100
AcDbSpline
 70
8
 71
3
 72
8
 73
4
 74
0
 40
0
 40
0
 40
0
 40
0
 40
1
 40
1
 40
1
 40
1
 10
58.399655
 20
36.176692
 30
0.0
 10
58.399655
 20
35.973588
 30
0.0
 10
58.589093
 20
35.617971
 30
0.0
 10
58.820631
 20
35.386436
 30
0.0
  0
SPLINE
  5
264
100
AcDbEntity
  8
Glasses_outline
 62
7
100
AcDbSpline
 70
8
 71
3
 72
8
 73
4
 74
0
 40
0
 40
0
 40
0
 40
0
 40
1
 40
1
 40
1
 40
1
 10
58.820631
 20
35.386436
 30
0.0
 10
59.263588
 20
34.943477
 30
0.0
 10
59.855072
 20
34.936537
 30
0.0
 10
63.410203
 20
35.332574
 30
0.0
  0
SPLINE
  5
265
100
AcDbEntity
  8
Glasses_outline
 62
7
100
AcDbSpline
 70
8
 71
3
 72
8
 73
4
 74
0
 40
0
 40
0
 40
0
 40
0
 40
1
 40
1
 40
1
 40
1
 10
63.410203
 20
35.332574
 30
0.0
 10
64.410898
 20
35.444049
 30
0.0
 10
64.551219
 20
35.417206
 30
0.0
 10
64.551219
 20
35.114309
 30
0.0
  0
SPLINE
  5
266
100
AcDbEntity
  8
Glasses_outline
 62
7
100
AcDbSpline
 70
8
 71
3
 72
8
 73
4
 74
0
 40
0
 40
0
 40
0
 40
0
 40
1
 40
1
 40
1
 40
1
 10
64.551219
 20
35.114309
 30
0.0
 10
64.551219
 20
34.865925
 30
0.0
 10
64.439078
 20
34.798259
 30
0.0
 10
64.151888
 20
34.873364
 30
0.0
  0
SPLINE
  5
267
100
AcDbEntity
  8
Glasses_outline
 62
7
100
AcDbSpline
 70
8
 71
3
 72
8
 73
4
 74
0
 40
0
 40
0
 40
0
 40
0
 40
1
 40
1
 40
1
 40
1
 10
64.151888
 20
34.873364
 30
0.0
 10
63.932257
 20
34.930796
 30
0.0
 10
63.150942
 20
34.851915
 30
0.0
 10
62.415634
 20
34.698070
 30
0.0
  0
SPLINE
  5
268
100
AcDbEntity
  8
Glasses_outline
 62
7
100
AcDbSpline
 70
8
 71
3
 72
8
 73
4
 74
0
 40
0
 40
0
 40
0
 40
0
 40
1
 40
1
 40
1
 40
1
 10
62.415634
 20
34.698070
 30
0.0
 10
60.944238
 20
34.390214
 30
0.0
 10
59.705232
 20
34.355845
 30
0.0
 10
59.094187
 20
34.605942
 30
0.0
  0
LWPOLYLINE
  5
269
100
AcDbEntity
  8
Glasses_outline
 62
7
100
AcDbPolyline
 90
2
 70
1
 10
59.441453
 20
32.480560
 30
0.0
 10
59.441453
 20
32.480560
 30
0.0
  0
SPLINE
  5
26a
100
AcDbEntity
  8
Glasses_outline
 62
7
100
AcDbSpline
 70
8
 71
3
 72
8
 73
4
 74
0
 40
0
 40
0
 40
0
 40
0
 40
1
 40
1
 40
1
 40
1
 10
59.590280
 20
36.105067
 30
0.0
 10
59.590280
 20
36.268778
 30
0.0
 10
59.679578
 20
36.402724
 30
0.0
 10
59.788719
 20
36.402724
 30
0.0
  0
SPLINE
  5
26b
100
AcDbEntity
  8
Glasses_outline
 62
7
100
AcDbSpline
 70
8
 71
3
 72
8
 73
4
 74
0
 40
0
 40
0
 40
0
 40
0
 40
1
 40
1
 40
1
 40
1
 10
59.788719
 20
36.402724
 30
0.0
 10
59.897859
 20
36.402724
 30
0.0
 10
59.987155
 20
36.268778
 30
0.0
 10
59.987155
 20
36.105067
 30
0.0
  0
SPLINE
  5
26c
100
AcDbEntity
  8
Glasses_outline
 62
7
100
AcDbSpline
 70
8
 71
3
 72
8
 73
4
 74
0
 40
0
 40
0
 40
0
 40
0
 40
1
 40
1
 40
1
 40
1
 10
59.987155
 20
36.105067
 30
0.0
 10
59.987155
 20
35.941355
 30
0.0
 10
59.897859
 20
35.807410
 30
0.0
 10
59.788719
 20
35.807410
 30
0.0
  0
SPLINE
  5
26d
100
AcDbEntity
  8
Glasses_outline
 62
7
100
AcDbSpline
 70
8
 71
3
 72
8
 73
4
 74
0
 40
0
 40
0
 40
0
 40
0
 40
1
 40
1
 40
1
 40
1
 10
59.788719
 20
35.807410
 30
0.0
 10
59.679578
 20
35.807410
 30
0.0
 10
59.590280
 20
35.941355
 30
0.0
 10
59.590280
 20
36.105067
 30
0.0
  0
LWPOLYLINE
  5
26e
100
AcDbEntity
  8
Glasses_outline
 62
7
100
AcDbPolyline
 90
2
 70
1
 10
59.094187
 20
34.605942
 30
0.0
 10
59.094187
 20
34.605942
 30
0.0
  0
SPLINE
  5
26f
100
AcDbEntity
  8
Glasses_outline
 62
7
100
AcDbSpline
 70
8
 71
3
 72
8
 73
4
 74
0
 40
0
 40
0
 40
0
 40
0
 40
1
 40
1
 40
1
 40
1
 10
82.188174
 20
37.247186
 30
0.0
 10
81.465567
 20
37.819567
 30
0.0
 10
80.617249
 20
38.478406
 30
0.0
 10
80.303017
 20
38.711273
 30
0.0
  0
SPLINE
  5
270
100
AcDbEntity
  8
Glasses_outline
 62
7
100
AcDbSpline
 70
8
 71
3
 72
8
 73
4
 74
0
 40
0
 40
0
 40
0
 40
0
 40
1
 40
1
 40
1
 40
1
 10
80.303017
 20
38.711273
 30
0.0
 10
79.679298
 20
39.173488
 30
0.0
 10
79.750226
 20
39.542626
 30
0.0
 10
80.396314
 20
39.196851
 30
0.0
  0
SPLINE
  5
271
100
AcDbEntity
  8
Glasses_outline
 62
7
100
AcDbSpline
 70
8
 71
3
 72
8
 73
4
 74
0
 40
0
 40
0
 40
0
 40
0
 40
1
 40
1
 40
1
 40
1
 10
80.396314
 20
39.196851
 30
0.0
 10
81.104492
 20
38.817849
 30
0.0
 10
83.799655
 20
36.603234
 30
0.0
 10
83.799655
 20
36.400333
 30
0.0
  0
SPLINE
  5
272
100
AcDbEntity
  8
Glasses_outline
 62
7
100
AcDbSpline
 70
8
 71
3
 72
8
 73
4
 74
0
 40
0
 40
0
 40
0
 40
0
 40
1
 40
1
 40
1
 40
1
 10
83.799655
 20
36.400333
 30
0.0
 10
83.799655
 20
36.045811
 30
0.0
 10
83.517991
 20
36.193828
 30
0.0
 10
82.188174
 20
37.247186
 30
0.0
  0
LWPOLYLINE
  5
273
100
AcDbEntity
  8
Glasses_outline
 62
7
100
AcDbPolyline
 90
2
 70
1
 10
59.590280
 20
36.105067
 30
0.0
 10
59.590280
 20
36.105067
 30
0.0
  0
SPLINE
  5
274
100
AcDbEntity
  8
Glasses_outline
 62
7
100
AcDbSpline
 70
8
 71
3
 72
8
 73
4
 74
0
 40
0
 40
0
 40
0
 40
0
 40
1
 40
1
 40
1
 40
1
 10
74.401553
 20
36.540409
 30
0.0
 10
74.178075
 20
36.763886
 30
0.0
 10
74.265446
 20
36.998035
 30
0.0
 10
74.572312
 20
36.998035
 30
0.0
  0
SPLINE
  5
275
100
AcDbEntity
  8
Glasses_outline
 62
7
100
AcDbSpline
 70
8
 71
3
 72
8
 73
4
 74
0
 40
0
 40
0
 40
0
 40
0
 40
1
 40
1
 40
1
 40
1
 10
74.572312
 20
36.998035
 30
0.0
 10
74.736023
 20
36.998035
 30
0.0
 10
74.869969
 20
36.914009
 30
0.0
 10
74.869969
 20
36.811308
 30
0.0
  0
SPLINE
  5
276
100
AcDbEntity
  8
Glasses_outline
 62
7
100
AcDbSpline
 70
8
 71
3
 72
8
 73
4
 74
0
 40
0
 40
0
 40
0
 40
0
 40
1
 40
1
 40
1
 40
1
 10
74.869969
 20
36.811308
 30
0.0
 10
74.869969
 20
36.561084
 30
0.0
 10
74.560091
 20
36.381870
 30
0.0
 10
74.401553
 20
36.540409
 30
0.0
  0
LWPOLYLINE
  5
277
100
AcDbEntity
  8
Glasses_outline
 62
7
100
AcDbPolyline
 90
2
 70
1
 10
82.188174
 20
37.247186
 30
0.0
 10
82.188174
 20
37.247186
 30
0.0
  0
SPLINE
  5
278
100
AcDbEntity
  8
Glasses_outline
 62
7
100
AcDbSpline
 70
8
 71
3
 72
8
 73
4
 74
0
 40
0
 40
0
 40
0
 40
0
 40
1
 40
1
 40
1
 40
1
 10
44.509030
 20
39.234265
 30
0.0
 10
44.509030
 20
39.372780
 30
0.0
 10
45.067135
 20
39.787231
 30
0.0
 10
45.749264
 20
40.155263
 30
0.0
  0
SPLINE
  5
279
100
AcDbEntity
  8
Glasses_outline
 62
7
100
AcDbSpline
 70
8
 71
3
 72
8
 73
4
 74
0
 40
0
 40
0
 40
0
 40
0
 40
1
 40
1
 40
1
 40
1
 10
45.749264
 20
40.155263
 30
0.0
 10
46.431395
 20
40.523295
 30
0.0
 10
47.278377
 20
41.095910
 30
0.0
 10
47.631449
 20
41.427738
 30
0.0
  0
SPLINE
  5
27a
100
AcDbEntity
  8
Glasses_outline
 62
7
100
AcDbSpline
 70
8
 71
3
 72
8
 73
4
 74
0
 40
0
 40
0
 40
0
 40
0
 40
1
 40
1
 40
1
 40
1
 10
47.631449
 20
41.427738
 30
0.0
 10
47.984520
 20
41.759567
 30
0.0
 10
48.335729
 20
41.968733
 30
0.0
 10
48.411909
 20
41.892553
 30
0.0
  0
SPLINE
  5
27b
100
AcDbEntity
  8
Glasses_outline
 62
7
100
AcDbSpline
 70
8
 71
3
 72
8
 73
4
 74
0
 40
0
 40
0
 40
0
 40
0
 40
1
 40
1
 40
1
 40
1
 10
48.411909
 20
41.892553
 30
0.0
 10
48.711273
 20
41.593188
 30
0.0
 10
47.674623
 20
40.628245
 30
0.0
 10
46.191534
 20
39.825769
 30
0.0
  0
SPLINE
  5
27c
100
AcDbEntity
  8
Glasses_outline
 62
7
100
AcDbSpline
 70
8
 71
3
 72
8
 73
4
 74
0
 40
0
 40
0
 40
0
 40
0
 40
1
 40
1
 40
1
 40
1
 10
46.191534
 20
39.825769
 30
0.0
 10
44.422478
 20
38.868561
 30
0.0
 10
44.509030
 20
38.898988
 30
0.0
 10
44.509030
 20
39.234265
 30
0.0
  0
LWPOLYLINE
  5
27d
100
AcDbEntity
  8
Glasses_outline
 62
7
100
AcDbPolyline
 90
2
 70
1
 10
74.401553
 20
36.540409
 30
0.0
 10
74.401553
 20
36.540409
 30
0.0
  0
SPLINE
  5
27e
100
AcDbEntity
  8
Glasses_outline
 62
7
100
AcDbSpline
 70
8
 71
3
 72
8
 73
4
 74
0
 40
0
 40
0
 40
0
 40
0
 40
1
 40
1
 40
1
 40
1
 10
68.023531
 20
39.804721
 30
0.0
 10
67.833051
 20
40.301102
 30
0.0
 10
68.009025
 20
44.536605
 30
0.0
 10
68.222312
 20
44.589067
 30
0.0
  0
SPLINE
  5
27f
100
AcDbEntity
  8
Glasses_outline
 62
7
100
AcDbSpline
 70
8
 71
3
 72
8
 73
4
 74
0
 40
0
 40
0
 40
0
 40
0
 40
1
 40
1
 40
1
 40
1
 10
68.222312
 20
44.589067
 30
0.0
 10
68.490948
 20
44.655147
 30
0.0
 10
68.598697
 20
39.973952
 30
0.0
 10
68.334619
 20
39.709874
 30
0.0
  0
SPLINE
  5
280
100
AcDbEntity
  8
Glasses_outline
 62
7
100
AcDbSpline
 70
8
 71
3
 72
8
 73
4
 74
0
 40
0
 40
0
 40
0
 40
0
 40
1
 40
1
 40
1
 40
1
 10
68.334619
 20
39.709874
 30
0.0
 10
68.202226
 20
39.577478
 30
0.0
 10
68.098608
 20
39.609067
 30
0.0
 10
68.023531
 20
39.804721
 30
0.0
  0
LWPOLYLINE
  5
281
100
AcDbEntity
  8
Glasses_outline
 62
7
100
AcDbPolyline
 90
2
 70
1
 10
44.509030
 20
39.234265
 30
0.0
 10
44.509030
 20
39.234265
 30
0.0
  0
SPLINE
  5
282
100
AcDbEntity
  8
Glasses_outline
 62
7
100
AcDbSpline
 70
8
 71
3
 72
8
 73
4
 74
0
 40
0
 40
0
 40
0
 40
0
 40
1
 40
1
 40
1
 40
1
 10
65.940280
 20
50.805974
 30
0.0
 10
65.667427
 20
50.957372
 30
0.0
 10
65.220943
 20
51.083780
 30
0.0
 10
64.948094
 20
51.086881
 30
0.0
  0
SPLINE
  5
283
100
AcDbEntity
  8
Glasses_outline
 62
7
100
AcDbSpline
 70
8
 71
3
 72
8
 73
4
 74
0
 40
0
 40
0
 40
0
 40
0
 40
1
 40
1
 40
1
 40
1
 10
64.948094
 20
51.086881
 30
0.0
 10
64.211781
 20
51.095235
 30
0.0
 10
63.559030
 20
51.304768
 30
0.0
 10
63.559030
 20
51.532747
 30
0.0
  0
SPLINE
  5
284
100
AcDbEntity
  8
Glasses_outline
 62
7
100
AcDbSpline
 70
8
 71
3
 72
8
 73
4
 74
0
 40
0
 40
0
 40
0
 40
0
 40
1
 40
1
 40
1
 40
1
 10
63.559030
 20
51.532747
 30
0.0
 10
63.559030
 20
51.844724
 30
0.0
 10
65.926688
 20
51.510678
 30
0.0
 10
66.459955
 20
51.123480
 30
0.0
  0
SPLINE
  5
285
100
AcDbEntity
  8
Glasses_outline
 62
7
100
AcDbSpline
 70
8
 71
3
 72
8
 73
4
 74
0
 40
0
 40
0
 40
0
 40
0
 40
1
 40
1
 40
1
 40
1
 10
66.459955
 20
51.123480
 30
0.0
 10
67.299671
 20
50.513759
 30
0.0
 10
66.903321
 20
50.271598
 30
0.0
 10
65.940280
 20
50.805974
 30
0.0
  0
LWPOLYLINE
  5
286
100
AcDbEntity
  8
Glasses_outline
 62
7
100
AcDbPolyline
 90
2
 70
1
 10
68.023531
 20
39.804721
 30
0.0
 10
68.023531
 20
39.804721
 30
0.0
  0
SPLINE
  5
287
100
AcDbEntity
  8
Glasses_outline
 62
7
100
AcDbSpline
 70
8
 71
3
 72
8
 73
4
 74
0
 40
0
 40
0
 40
0
 40
0
 40
1
 40
1
 40
1
 40
1
 10
68.321530
 20
50.854483
 30
0.0
 10
68.321530
 20
51.086797
 30
0.0
 10
69.459461
 20
52.079285
 30
0.0
 10
69.725819
 20
52.079285
 30
0.0
  0
SPLINE
  5
288
100
AcDbEntity
  8
Glasses_outline
 62
7
100
AcDbSpline
 70
8
 71
3
 72
8
 73
4
 74
0
 40
0
 40
0
 40
0
 40
0
 40
1
 40
1
 40
1
 40
1
 10
69.725819
 20
52.079285
 30
0.0
 10
70.136947
 20
52.079285
 30
0.0
 10
69.865243
 20
51.558049
 30
0.0
 10
69.262854
 20
51.191134
 30
0.0
  0
SPLINE
  5
289
100
AcDbEntity
  8
Glasses_outline
 62
7
100
AcDbSpline
 70
8
 71
3
 72
8
 73
4
 74
0
 40
0
 40
0
 40
0
 40
0
 40
1
 40
1
 40
1
 40
1
 10
69.262854
 20
51.191134
 30
0.0
 10
68.373250
 20
50.649276
 30
0.0
 10
68.321530
 20
50.630779
 30
0.0
 10
68.321530
 20
50.854483
 30
0.0
  0
LWPOLYLINE
  5
28a
100
AcDbEntity
  8
Glasses_outline
 62
7
100
AcDbPolyline
 90
2
 70
1
 10
65.940280
 20
50.805974
 30
0.0
 10
65.940280
 20
50.805974
 30
0.0
  0
SPLINE
  5
28b
100
AcDbEntity
  8
Glasses_outline
 62
7
100
AcDbSpline
 70
8
 71
3
 72
8
 73
4
 74
0
 40
0
 40
0
 40
0
 40
0
 40
1
 40
1
 40
1
 40
1
 10
67.134198
 20
54.394390
 30
0.0
 10
67.142778
 20
54.824838
 30
0.0
 10
68.099294
 20
57.131508
 30
0.0
 10
68.296471
 20
57.197235
 30
0.0
  0
SPLINE
  5
28c
100
AcDbEntity
  8
Glasses_outline
 62
7
100
AcDbSpline
 70
8
 71
3
 72
8
 73
4
 74
0
 40
0
 40
0
 40
0
 40
0
 40
1
 40
1
 40
1
 40
1
 10
68.296471
 20
57.197235
 30
0.0
 10
68.419396
 20
57.238208
 30
0.0
 10
68.514660
 20
57.152672
 30
0.0
 10
68.508172
 20
57.007147
 30
0.0
  0
SPLINE
  5
28d
100
AcDbEntity
  8
Glasses_outline
 62
7
100
AcDbSpline
 70
8
 71
3
 72
8
 73
4
 74
0
 40
0
 40
0
 40
0
 40
0
 40
1
 40
1
 40
1
 40
1
 10
68.508172
 20
57.007147
 30
0.0
 10
68.483703
 20
56.458530
 30
0.0
 10
67.616756
 20
54.387896
 30
0.0
 10
67.378953
 20
54.310136
 30
0.0
  0
SPLINE
  5
28e
100
AcDbEntity
  8
Glasses_outline
 62
7
100
AcDbSpline
 70
8
 71
3
 72
8
 73
4
 74
0
 40
0
 40
0
 40
0
 40
0
 40
1
 40
1
 40
1
 40
1
 10
67.378953
 20
54.310136
 30
0.0
 10
67.242526
 20
54.265525
 30
0.0
 10
67.132389
 20
54.303447
 30
0.0
 10
67.134198
 20
54.394390
 30
0.0
  0
LWPOLYLINE
  5
28f
100
AcDbEntity
  8
Glasses_outline
 62
7
100
AcDbPolyline
 90
2
 70
1
 10
68.321530
 20
50.854483
 30
0.0
 10
68.321530
 20
50.854483
 30
0.0
  0
SPLINE
  5
290
100
AcDbEntity
  8
Glasses_outline
 62
7
100
AcDbSpline
 70
8
 71
3
 72
8
 73
4
 74
0
 40
0
 40
0
 40
0
 40
0
 40
1
 40
1
 40
1
 40
1
 10
65.344969
 20
55.297281
 30
0.0
 10
65.344969
 20
55.666541
 30
0.0
 10
65.246637
 20
56.066989
 30
0.0
 10
65.126455
 20
56.187170
 30
0.0
  0
SPLINE
  5
291
100
AcDbEntity
  8
Glasses_outline
 62
7
100
AcDbSpline
 70
8
 71
3
 72
8
 73
4
 74
0
 40
0
 40
0
 40
0
 40
0
 40
1
 40
1
 40
1
 40
1
 10
65.126455
 20
56.187170
 30
0.0
 10
64.838673
 20
56.474955
 30
0.0
 10
65.094601
 20
57.635535
 30
0.0
 10
65.445849
 20
57.635535
 30
0.0
  0
SPLINE
  5
292
100
AcDbEntity
  8
Glasses_outline
 62
7
100
AcDbSpline
 70
8
 71
3
 72
8
 73
4
 74
0
 40
0
 40
0
 40
0
 40
0
 40
1
 40
1
 40
1
 40
1
 10
65.445849
 20
57.635535
 30
0.0
 10
65.613695
 20
57.635535
 30
0.0
 10
65.717225
 20
57.394850
 30
0.0
 10
65.723265
 20
56.990612
 30
0.0
  0
SPLINE
  5
293
100
AcDbEntity
  8
Glasses_outline
 62
7
100
AcDbSpline
 70
8
 71
3
 72
8
 73
4
 74
0
 40
0
 40
0
 40
0
 40
0
 40
1
 40
1
 40
1
 40
1
 10
65.723265
 20
56.990612
 30
0.0
 10
65.728571
 20
56.635906
 30
0.0
 10
65.757233
 20
55.996842
 30
0.0
 10
65.786979
 20
55.570470
 30
0.0
  0
SPLINE
  5
294
100
AcDbEntity
  8
Glasses_outline
 62
7
100
AcDbSpline
 70
8
 71
3
 72
8
 73
4
 74
0
 40
0
 40
0
 40
0
 40
0
 40
1
 40
1
 40
1
 40
1
 10
65.786979
 20
55.570470
 30
0.0
 10
65.820790
 20
55.085826
 30
0.0
 10
65.748086
 20
54.763509
 30
0.0
 10
65.593014
 20
54.710575
 30
0.0
  0
SPLINE
  5
295
100
AcDbEntity
  8
Glasses_outline
 62
7
100
AcDbSpline
 70
8
 71
3
 72
8
 73
4
 74
0
 40
0
 40
0
 40
0
 40
0
 40
1
 40
1
 40
1
 40
1
 10
65.593014
 20
54.710575
 30
0.0
 10
65.426771
 20
54.653823
 30
0.0
 10
65.344969
 20
54.847306
 30
0.0
 10
65.344969
 20
55.297281
 30
0.0
  0
LWPOLYLINE
  5
296
100
AcDbEntity
  8
Glasses_outline
 62
7
100
AcDbPolyline
 90
2
 70
1
 10
67.134198
 20
54.394390
 30
0.0
 10
67.134198
 20
54.394390
 30
0.0
  0
SPLINE
  5
297
100
AcDbEntity
  8
Glasses_outline
 62
7
100
AcDbSpline
 70
8
 71
3
 72
8
 73
4
 74
0
 40
0
 40
0
 40
0
 40
0
 40
1
 40
1
 40
1
 40
1
 10
62.488854
 20
55.369733
 30
0.0
 10
62.171540
 20
56.196642
 30
0.0
 10
62.477932
 20
58.627724
 30
0.0
 10
62.899457
 20
58.627724
 30
0.0
  0
SPLINE
  5
298
100
AcDbEntity
  8
Glasses_outline
 62
7
100
AcDbSpline
 70
8
 71
3
 72
8
 73
4
 74
0
 40
0
 40
0
 40
0
 40
0
 40
1
 40
1
 40
1
 40
1
 10
62.899457
 20
58.627724
 30
0.0
 10
63.117332
 20
58.627724
 30
0.0
 10
63.147637
 20
58.461210
 30
0.0
 10
63.034886
 20
57.883583
 30
0.0
  0
SPLINE
  5
299
100
AcDbEntity
  8
Glasses_outline
 62
7
100
AcDbSpline
 70
8
 71
3
 72
8
 73
4
 74
0
 40
0
 40
0
 40
0
 40
0
 40
1
 40
1
 40
1
 40
1
 10
63.034886
 20
57.883583
 30
0.0
 10
62.954998
 20
57.474304
 30
0.0
 10
62.893950
 20
56.670634
 30
0.0
 10
62.899231
 20
56.097644
 30
0.0
  0
SPLINE
  5
29a
100
AcDbEntity
  8
Glasses_outline
 62
7
100
AcDbSpline
 70
8
 71
3
 72
8
 73
4
 74
0
 40
0
 40
0
 40
0
 40
0
 40
1
 40
1
 40
1
 40
1
 10
62.899231
 20
56.097644
 30
0.0
 10
62.908657
 20
55.074165
 30
0.0
 10
62.726358
 20
54.750809
 30
0.0
 10
62.488854
 20
55.369733
 30
0.0
  0
LWPOLYLINE
  5
29b
100
AcDbEntity
  8
Glasses_outline
 62
7
100
AcDbPolyline
 90
2
 70
1
 10
65.344969
 20
55.297281
 30
0.0
 10
65.344969
 20
55.297281
 30
0.0
  0
SPLINE
  5
29c
100
AcDbEntity
  8
Glasses_outline
 62
7
100
AcDbSpline
 70
8
 71
3
 72
8
 73
4
 74
0
 40
0
 40
0
 40
0
 40
0
 40
1
 40
1
 40
1
 40
1
 10
57.429914
 20
66.482538
 30
0.0
 10
57.186023
 20
66.792593
 30
0.0
 10
57.010594
 20
67.303799
 30
0.0
 10
57.010594
 20
67.704442
 30
0.0
  0
SPLINE
  5
29d
100
AcDbEntity
  8
Glasses_outline
 62
7
100
AcDbSpline
 70
8
 71
3
 72
8
 73
4
 74
0
 40
0
 40
0
 40
0
 40
0
 40
1
 40
1
 40
1
 40
1
 10
57.010594
 20
67.704442
 30
0.0
 10
57.010594
 20
68.160928
 30
0.0
 10
56.819478
 20
68.637167
 30
0.0
 10
56.443993
 20
69.116354
 30
0.0
  0
SPLINE
  5
29e
100
AcDbEntity
  8
Glasses_outline
 62
7
100
AcDbSpline
 70
8
 71
3
 72
8
 73
4
 74
0
 40
0
 40
0
 40
0
 40
0
 40
1
 40
1
 40
1
 40
1
 10
56.443993
 20
69.116354
 30
0.0
 10
55.667921
 20
70.106771
 30
0.0
 10
55.372457
 20
70.711110
 30
0.0
 10
55.500803
 20
71.045572
 30
0.0
  0
SPLINE
  5
29f
100
AcDbEntity
  8
Glasses_outline
 62
7
100
AcDbSpline
 70
8
 71
3
 72
8
 73
4
 74
0
 40
0
 40
0
 40
0
 40
0
 40
1
 40
1
 40
1
 40
1
 10
55.500803
 20
71.045572
 30
0.0
 10
55.657078
 20
71.452819
 30
0.0
 10
56.018405
 20
71.392649
 30
0.0
 10
56.018405
 20
70.959381
 30
0.0
  0
SPLINE
  5
2a0
100
AcDbEntity
  8
Glasses_outline
 62
7
100
AcDbSpline
 70
8
 71
3
 72
8
 73
4
 74
0
 40
0
 40
0
 40
0
 40
0
 40
1
 40
1
 40
1
 40
1
 10
56.018405
 20
70.959381
 30
0.0
 10
56.018405
 20
70.756797
 30
0.0
 10
56.339111
 20
70.171027
 30
0.0
 10
56.731083
 20
69.657679
 30
0.0
  0
SPLINE
  5
2a1
100
AcDbEntity
  8
Glasses_outline
 62
7
100
AcDbSpline
 70
8
 71
3
 72
8
 73
4
 74
0
 40
0
 40
0
 40
0
 40
0
 40
1
 40
1
 40
1
 40
1
 10
56.731083
 20
69.657679
 30
0.0
 10
57.208835
 20
69.031987
 30
0.0
 10
57.487151
 20
68.417510
 30
0.0
 10
57.575394
 20
67.793596
 30
0.0
  0
SPLINE
  5
2a2
100
AcDbEntity
  8
Glasses_outline
 62
7
100
AcDbSpline
 70
8
 71
3
 72
8
 73
4
 74
0
 40
0
 40
0
 40
0
 40
0
 40
1
 40
1
 40
1
 40
1
 10
57.575394
 20
67.793596
 30
0.0
 10
57.674691
 20
67.091517
 30
0.0
 10
57.816660
 20
66.814680
 30
0.0
 10
58.153306
 20
66.666677
 30
0.0
  0
SPLINE
  5
2a3
100
AcDbEntity
  8
Glasses_outline
 62
7
100
AcDbSpline
 70
8
 71
3
 72
8
 73
4
 74
0
 40
0
 40
0
 40
0
 40
0
 40
1
 40
1
 40
1
 40
1
 10
58.153306
 20
66.666677
 30
0.0
 10
58.641928
 20
66.451852
 30
0.0
 10
58.644209
 20
66.103711
 30
0.0
 10
58.157595
 20
66.009294
 30
0.0
  0
SPLINE
  5
2a4
100
AcDbEntity
  8
Glasses_outline
 62
7
100
AcDbSpline
 70
8
 71
3
 72
8
 73
4
 74
0
 40
0
 40
0
 40
0
 40
0
 40
1
 40
1
 40
1
 40
1
 10
58.157595
 20
66.009294
 30
0.0
 10
57.987991
 20
65.976381
 30
0.0
 10
57.660529
 20
66.189343
 30
0.0
 10
57.429900
 20
66.482538
 30
0.0
  0
LWPOLYLINE
  5
2a5
100
AcDbEntity
  8
Glasses_outline
 62
7
100
AcDbPolyline
 90
2
 70
1
 10
62.488854
 20
55.369733
 30
0.0
 10
62.488854
 20
55.369733
 30
0.0
  0
SPLINE
  5
2a6
100
AcDbEntity
  8
Glasses_outline
 62
7
100
AcDbSpline
 70
8
 71
3
 72
8
 73
4
 74
0
 40
0
 40
0
 40
0
 40
0
 40
1
 40
1
 40
1
 40
1
 10
64.133315
 20
66.317176
 30
0.0
 10
64.076255
 20
66.721047
 30
0.0
 10
64.213895
 20
67.693610
 30
0.0
 10
64.369281
 20
67.984499
 30
0.0
  0
SPLINE
  5
2a7
100
AcDbEntity
  8
Glasses_outline
 62
7
100
AcDbSpline
 70
8
 71
3
 72
8
 73
4
 74
0
 40
0
 40
0
 40
0
 40
0
 40
1
 40
1
 40
1
 40
1
 10
64.369281
 20
67.984499
 30
0.0
 10
64.465609
 20
68.164828
 30
0.0
 10
64.977289
 20
68.630122
 30
0.0
 10
65.506349
 20
69.018488
 30
0.0
  0
SPLINE
  5
2a8
100
AcDbEntity
  8
Glasses_outline
 62
7
100
AcDbSpline
 70
8
 71
3
 72
8
 73
4
 74
0
 40
0
 40
0
 40
0
 40
0
 40
1
 40
1
 40
1
 40
1
 10
65.506349
 20
69.018488
 30
0.0
 10
66.410600
 20
69.682269
 30
0.0
 10
66.634275
 20
70.029242
 30
0.0
 10
67.346774
 20
71.873426
 30
0.0
  0
SPLINE
  5
2a9
100
AcDbEntity
  8
Glasses_outline
 62
7
100
AcDbSpline
 70
8
 71
3
 72
8
 73
4
 74
0
 40
0
 40
0
 40
0
 40
0
 40
1
 40
1
 40
1
 40
1
 10
67.346774
 20
71.873426
 30
0.0
 10
67.538645
 20
72.370055
 30
0.0
 10
67.924655
 20
72.478205
 30
0.0
 10
67.924655
 20
72.035334
 30
0.0
  0
SPLINE
  5
2aa
100
AcDbEntity
  8
Glasses_outline
 62
7
100
AcDbSpline
 70
8
 71
3
 72
8
 73
4
 74
0
 40
0
 40
0
 40
0
 40
0
 40
1
 40
1
 40
1
 40
1
 10
67.924655
 20
72.035334
 30
0.0
 10
67.924655
 20
71.878816
 30
0.0
 10
67.693997
 20
71.218902
 30
0.0
 10
67.412080
 20
70.568853
 30
0.0
  0
SPLINE
  5
2ab
100
AcDbEntity
  8
Glasses_outline
 62
7
100
AcDbSpline
 70
8
 71
3
 72
8
 73
4
 74
0
 40
0
 40
0
 40
0
 40
0
 40
1
 40
1
 40
1
 40
1
 10
67.412080
 20
70.568853
 30
0.0
 10
67.021789
 20
69.668920
 30
0.0
 10
66.678559
 20
69.230324
 30
0.0
 10
65.973407
 20
68.730444
 30
0.0
  0
SPLINE
  5
2ac
100
AcDbEntity
  8
Glasses_outline
 62
7
100
AcDbSpline
 70
8
 71
3
 72
8
 73
4
 74
0
 40
0
 40
0
 40
0
 40
0
 40
1
 40
1
 40
1
 40
1
 10
65.973407
 20
68.730444
 30
0.0
 10
64.850789
 20
67.934622
 30
0.0
 10
64.822807
 20
67.896099
 30
0.0
 10
64.669077
 20
66.934732
 30
0.0
  0
SPLINE
  5
2ad
100
AcDbEntity
  8
Glasses_outline
 62
7
100
AcDbSpline
 70
8
 71
3
 72
8
 73
4
 74
0
 40
0
 40
0
 40
0
 40
0
 40
1
 40
1
 40
1
 40
1
 10
64.669077
 20
66.934732
 30
0.0
 10
64.601674
 20
66.513221
 30
0.0
 10
64.458286
 20
66.168349
 30
0.0
 10
64.350434
 20
66.168349
 30
0.0
  0
SPLINE
  5
2ae
100
AcDbEntity
  8
Glasses_outline
 62
7
100
AcDbSpline
 70
8
 71
3
 72
8
 73
4
 74
0
 40
0
 40
0
 40
0
 40
0
 40
1
 40
1
 40
1
 40
1
 10
64.350434
 20
66.168349
 30
0.0
 10
64.242583
 20
66.168349
 30
0.0
 10
64.144881
 20
66.235320
 30
0.0
 10
64.133315
 20
66.317176
 30
0.0
  0
LWPOLYLINE
  5
2af
100
AcDbEntity
  8
Glasses_outline
 62
7
100
AcDbPolyline
 90
2
 70
1
 10
57.429900
 20
66.482538
 30
0.0
 10
57.429914
 20
66.482538
 30
0.0
  0
SPLINE
  5
2b0
100
AcDbEntity
  8
Glasses_outline
 62
7
100
AcDbSpline
 70
8
 71
3
 72
8
 73
4
 74
0
 40
0
 40
0
 40
0
 40
0
 40
1
 40
1
 40
1
 40
1
 10
59.391844
 20
80.333539
 30
0.0
 10
59.391844
 20
80.781731
 30
0.0
 10
60.929689
 20
82.043349
 30
0.0
 10
61.476007
 20
82.043349
 30
0.0
  0
SPLINE
  5
2b1
100
AcDbEntity
  8
Glasses_outline
 62
7
100
AcDbSpline
 70
8
 71
3
 72
8
 73
4
 74
0
 40
0
 40
0
 40
0
 40
0
 40
1
 40
1
 40
1
 40
1
 10
61.476007
 20
82.043349
 30
0.0
 10
62.139246
 20
82.043349
 30
0.0
 10
62.105266
 20
81.731916
 30
0.0
 10
61.415809
 20
81.491570
 30
0.0
  0
SPLINE
  5
2b2
100
AcDbEntity
  8
Glasses_outline
 62
7
100
AcDbSpline
 70
8
 71
3
 72
8
 73
4
 74
0
 40
0
 40
0
 40
0
 40
0
 40
1
 40
1
 40
1
 40
1
 10
61.415809
 20
81.491570
 30
0.0
 10
61.110159
 20
81.385020
 30
0.0
 10
60.596994
 20
81.019099
 30
0.0
 10
60.275436
 20
80.678409
 30
0.0
  0
SPLINE
  5
2b3
100
AcDbEntity
  8
Glasses_outline
 62
7
100
AcDbSpline
 70
8
 71
3
 72
8
 73
4
 74
0
 40
0
 40
0
 40
0
 40
0
 40
1
 40
1
 40
1
 40
1
 10
60.275436
 20
80.678409
 30
0.0
 10
59.639110
 20
80.004220
 30
0.0
 10
59.391844
 20
79.907708
 30
0.0
 10
59.391844
 20
80.333539
 30
0.0
  0
LWPOLYLINE
  5
2b4
100
AcDbEntity
  8
Glasses_outline
 62
7
100
AcDbPolyline
 90
2
 70
1
 10
64.133315
 20
66.317176
 30
0.0
 10
64.133315
 20
66.317176
 30
0.0
  0
SPLINE
  5
2b5
100
AcDbEntity
  8
Glasses_outline
 62
7
100
AcDbSpline
 70
8
 71
3
 72
8
 73
4
 74
0
 40
0
 40
0
 40
0
 40
0
 40
1
 40
1
 40
1
 40
1
 10
53.108485
 20
83.148091
 30
0.0
 10
52.965274
 20
83.521301
 30
0.0
 10
53.316437
 20
83.928283
 30
0.0
 10
53.619866
 20
83.740752
 30
0.0
  0
SPLINE
  5
2b6
100
AcDbEntity
  8
Glasses_outline
 62
7
100
AcDbSpline
 70
8
 71
3
 72
8
 73
4
 74
0
 40
0
 40
0
 40
0
 40
0
 40
1
 40
1
 40
1
 40
1
 10
53.619866
 20
83.740752
 30
0.0
 10
53.946950
 20
83.538601
 30
0.0
 10
53.878517
 20
82.837099
 30
0.0
 10
53.531711
 20
82.837099
 30
0.0
  0
SPLINE
  5
2b7
100
AcDbEntity
  8
Glasses_outline
 62
7
100
AcDbSpline
 70
8
 71
3
 72
8
 73
4
 74
0
 40
0
 40
0
 40
0
 40
0
 40
1
 40
1
 40
1
 40
1
 10
53.531711
 20
82.837099
 30
0.0
 10
53.364573
 20
82.837099
 30
0.0
 10
53.174121
 20
82.977044
 30
0.0
 10
53.108485
 20
83.148091
 30
0.0
  0
LWPOLYLINE
  5
2b8
100
AcDbEntity
  8
Glasses_outline
 62
7
100
AcDbPolyline
 90
2
 70
1
 10
59.391844
 20
80.333539
 30
0.0
 10
59.391844
 20
80.333539
 30
0.0
  0
SPLINE
  5
2b9
100
AcDbEntity
  8
Glasses_outline
 62
7
100
AcDbSpline
 70
8
 71
3
 72
8
 73
4
 74
0
 40
0
 40
0
 40
0
 40
0
 40
1
 40
1
 40
1
 40
1
 10
57.804344
 20
83.158081
 30
0.0
 10
57.804344
 20
83.574938
 30
0.0
 10
59.249299
 20
85.019893
 30
0.0
 10
59.666152
 20
85.019893
 30
0.0
  0
SPLINE
  5
2ba
100
AcDbEntity
  8
Glasses_outline
 62
7
100
AcDbSpline
 70
8
 71
3
 72
8
 73
4
 74
0
 40
0
 40
0
 40
0
 40
0
 40
1
 40
1
 40
1
 40
1
 10
59.666152
 20
85.019893
 30
0.0
 10
60.168934
 20
85.019893
 30
0.0
 10
60.041880
 20
84.481339
 30
0.0
 10
59.507453
 20
84.347208
 30
0.0
  0
SPLINE
  5
2bb
100
AcDbEntity
  8
Glasses_outline
 62
7
100
AcDbSpline
 70
8
 71
3
 72
8
 73
4
 74
0
 40
0
 40
0
 40
0
 40
0
 40
1
 40
1
 40
1
 40
1
 10
59.507453
 20
84.347208
 30
0.0
 10
59.243615
 20
84.280987
 30
0.0
 10
58.834494
 20
83.914118
 30
0.0
 10
58.598300
 20
83.531944
 30
0.0
  0
SPLINE
  5
2bc
100
AcDbEntity
  8
Glasses_outline
 62
7
100
AcDbSpline
 70
8
 71
3
 72
8
 73
4
 74
0
 40
0
 40
0
 40
0
 40
0
 40
1
 40
1
 40
1
 40
1
 10
58.598300
 20
83.531944
 30
0.0
 10
58.140281
 20
82.790854
 30
0.0
 10
57.804344
 20
82.632668
 30
0.0
 10
57.804344
 20
83.158081
 30
0.0
  0
LWPOLYLINE
  5
2bd
100
AcDbEntity
  8
Glasses_outline
 62
7
100
AcDbPolyline
 90
2
 70
1
 10
53.108485
 20
83.148091
 30
0.0
 10
53.108485
 20
83.148091
 30
0.0
  0
SPLINE
  5
2be
100
AcDbEntity
  8
Glasses_outline
 62
7
100
AcDbSpline
 70
8
 71
3
 72
8
 73
4
 74
0
 40
0
 40
0
 40
0
 40
0
 40
1
 40
1
 40
1
 40
1
 10
53.335606
 20
86.216820
 30
0.0
 10
53.258539
 20
86.341514
 30
0.0
 10
53.288861
 20
86.536908
 30
0.0
 10
53.402981
 20
86.651030
 30
0.0
  0
SPLINE
  5
2bf
100
AcDbEntity
  8
Glasses_outline
 62
7
100
AcDbSpline
 70
8
 71
3
 72
8
 73
4
 74
0
 40
0
 40
0
 40
0
 40
0
 40
1
 40
1
 40
1
 40
1
 10
53.402981
 20
86.651030
 30
0.0
 10
53.669661
 20
86.917713
 30
0.0
 10
54.291413
 20
86.685100
 30
0.0
 10
54.182916
 20
86.359240
 30
0.0
  0
SPLINE
  5
2c0
100
AcDbEntity
  8
Glasses_outline
 62
7
100
AcDbSpline
 70
8
 71
3
 72
8
 73
4
 74
0
 40
0
 40
0
 40
0
 40
0
 40
1
 40
1
 40
1
 40
1
 10
54.182916
 20
86.359240
 30
0.0
 10
54.072465
 20
86.027516
 30
0.0
 10
53.510934
 20
85.933130
 30
0.0
 10
53.335606
 20
86.216820
 30
0.0
  0
LWPOLYLINE
  5
2c1
100
AcDbEntity
  8
Glasses_outline
 62
7
100
AcDbPolyline
 90
2
 70
1
 10
57.804344
 20
83.158081
 30
0.0
 10
57.804344
 20
83.158081
 30
0.0
  0
LWPOLYLINE
  5
2c2
100
AcDbEntity
  8
Glasses_outline
 62
7
100
AcDbPolyline
 90
2
 70
1
 10
53.335606
 20
86.216820
 30
0.0
 10
53.335606
 20
86.216820
 30
0.0
  0
ENDSEC
  0
SECTION
  2
OBJECTS
  0
DICTIONARY
  5
C
330
0
100
AcDbDictionary
  3
ACAD_GROUP
350
D
  3
ACAD_MLINESTYLE
350
17
  0
DICTIONARY
  5
D
330
C
100
AcDbDictionary
  0
DICTIONARY
  5
1A
330
C
100
AcDbDictionary
  0
DICTIONARY
  5
17
330
C
100
AcDbDictionary
  3
STANDARD
350
18
  0
DICTIONARY
  5
19
330
C
100
AcDbDictionary
  0
ENDSEC
  0
EOF
