<?xml version="1.0" encoding="UTF-8" standalone="no"?>
<!-- Created with Inkscape (http://www.inkscape.org/) -->

<svg
   xmlns:dc="http://purl.org/dc/elements/1.1/"
   xmlns:cc="http://creativecommons.org/ns#"
   xmlns:rdf="http://www.w3.org/1999/02/22-rdf-syntax-ns#"
   xmlns:svg="http://www.w3.org/2000/svg"
   xmlns="http://www.w3.org/2000/svg"
   xmlns:sodipodi="http://sodipodi.sourceforge.net/DTD/sodipodi-0.dtd"
   xmlns:inkscape="http://www.inkscape.org/namespaces/inkscape"
   width="214mm"
   height="214mm"
   viewBox="0 0 758.26772 758.26771"
   id="svg2"
   version="1.1"
   inkscape:version="0.91 r13725"
   sodipodi:docname="farnsworth-laser-body-back.svg"
   enable-background="new">
  <defs
     id="defs4">
    <clipPath
       id="clipPath4254"
       clipPathUnits="userSpaceOnUse">
      <path
         inkscape:connector-curvature="0"
         id="path4256"
         d="m 0,634.961 606.614,0 L 606.614,0 0,0 0,634.961 Z" />
    </clipPath>
  </defs>
  <sodipodi:namedview
     id="base"
     pagecolor="#6d6d6d"
     bordercolor="#898989"
     borderopacity="1"
     inkscape:pageopacity="1"
     inkscape:pageshadow="2"
     inkscape:zoom="1.4142136"
     inkscape:cx="441.37288"
     inkscape:cy="402.77033"
     inkscape:document-units="px"
     inkscape:current-layer="layer4"
     showgrid="false"
     inkscape:window-width="3070"
     inkscape:window-height="1752"
     inkscape:window-x="130"
     inkscape:window-y="48"
     inkscape:window-maximized="1"
     borderlayer="true"
     showguides="true"
     inkscape:guide-bbox="true" />
  <metadata
     id="metadata7">
    <rdf:RDF>
      <cc:Work
         rdf:about="">
        <dc:format>image/svg+xml</dc:format>
        <dc:type
           rdf:resource="http://purl.org/dc/dcmitype/StillImage" />
        <dc:title />
      </cc:Work>
    </rdf:RDF>
  </metadata>
  <g
     inkscape:groupmode="layer"
     id="layer8"
     inkscape:label="Cut lines"
     style="display:inline" />
  <g
     inkscape:groupmode="layer"
     id="layer4"
     inkscape:label="Torso color"
     style="display:inline">
    <path
       style="display:inline;fill:#000000;fill-opacity:0.71372549"
       d="m 410.53483,593.92868 c 1.1641,-3.0336 -2.11466,-14.69556 -6.56115,-23.33686 -4.51729,-8.77887 -5.57148,-13.70743 -6.28611,-29.38888 -0.70118,-15.38578 -0.5613,-19.72325 0.7936,-24.60938 0.53616,-1.93359 1.94989,-7.25968 3.1416,-11.83574 1.1917,-4.57606 3.22412,-10.49974 4.51647,-13.16374 1.29236,-2.664 3.08373,-7.38382 3.98084,-10.48848 0.89711,-3.10468 1.84274,-5.64485 2.1014,-5.64485 0.25867,0 2.4936,1.83505 4.96653,4.0779 9.97448,9.04652 20.42681,16.25138 25.58996,17.63936 2.1069,0.56638 4.31191,2.27589 8.78906,6.814 3.28711,3.33187 7.33241,6.99939 8.98954,8.15004 3.92624,2.72624 20.65768,10.34571 29.06046,13.23407 3.62914,1.24747 10.07891,3.71323 14.33282,5.47945 6.71439,2.78781 8.29072,3.77647 11.95312,7.4968 2.51901,2.55885 5.11141,6.12111 6.4343,8.84147 4.41153,9.07175 11.08242,18.20189 16.76443,22.94476 6.27179,5.23516 8.39988,5.68146 11.34259,2.37877 1.46432,-1.64345 2.12458,-1.94074 3.12326,-1.40625 1.79962,0.96311 5.98012,0.83957 6.80608,-0.20115 0.38365,-0.4834 0.90653,-2.0398 1.16196,-3.45867 0.3513,-1.95141 1.05867,-2.93038 2.90418,-4.01926 4.21138,-2.48478 3.60283,-4.05158 -5.78392,-14.89123 -5.08359,-5.87043 -11.46371,-16.11762 -11.46378,-18.41209 -7e-5,-2.1163 2.49211,-3.86695 6.23832,-4.38219 4.90916,-0.67518 7.12102,-2.5245 7.12102,-5.95385 0,-1.50106 -0.45556,-3.05344 -1.03788,-3.53673 -1.17136,-0.97214 -5.42932,-0.65498 -9.95217,0.74132 -2.60656,0.8047 -3.26829,0.7399 -6.45847,-0.63248 -4.52152,-1.9451 -9.63212,-1.96708 -15.26134,-0.0656 -5.99902,2.02636 -7.90959,1.34878 -18.96983,-6.72769 -5.02734,-3.67109 -11.67187,-8.48477 -14.76562,-10.69704 -3.09375,-2.21228 -7.4445,-5.52419 -9.66832,-7.3598 -3.22783,-2.66433 -5.42602,-3.76415 -10.89883,-5.453 -3.77052,-1.16354 -8.27916,-3.02497 -10.01918,-4.1365 -1.74002,-1.11155 -7.23578,-5.99728 -12.21281,-10.85718 -6.68687,-6.52952 -10.70452,-9.81607 -15.3905,-12.58984 -3.48776,-2.06451 -6.8512,-4.54284 -7.47431,-5.50741 -2.23425,-3.45858 -10.7168,-11.15401 -15.4417,-14.00885 -3.30861,-1.99908 -6.22217,-3.14739 -9.31532,-3.67138 -2.4755,-0.41936 -5.76653,-1.4647 -7.31341,-2.32298 -1.54687,-0.85828 -4.37635,-2.13926 -6.28773,-2.84661 -1.91137,-0.70736 -4.12622,-1.98771 -4.92187,-2.84524 -1.41689,-1.52706 -1.75763,-1.55591 -16.56384,-1.40241 -8.31445,0.0862 -16.38281,0.47901 -17.92968,0.87291 -5.63516,1.43495 -10.97781,3.87849 -14.9365,6.83144 -2.22633,1.66071 -7.12729,4.48918 -10.89102,6.28549 -3.86451,1.84441 -7.74616,4.25804 -8.91775,5.54512 -5.52018,6.06427 -8.29133,9.57745 -9.10606,11.5444 -0.49083,1.18497 -3.52347,4.38321 -6.73922,7.1072 -3.39348,2.87456 -8.46276,8.28448 -12.08125,12.89308 -11.06503,14.0927 -14.37053,17.02018 -21.3339,18.89418 -7.29216,1.9625 -19.94641,9.48902 -30.95524,18.41163 -7.87253,6.38065 -8.17873,6.55188 -11.60156,6.48786 -5.14152,-0.0962 -16.67225,-2.20752 -21.09674,-3.86293 -2.11067,-0.7897 -4.8719,-1.33623 -6.13605,-1.21451 -2.02138,0.19464 -2.32492,0.4954 -2.51792,2.49477 -0.23344,2.41839 0.63706,3.5468 5.72765,7.4245 3.57795,2.72546 3.49388,5.14567 -0.3436,9.89198 -3.23591,4.00227 -8.82756,9.52391 -12.43212,12.27648 -2.52389,1.92734 -2.61177,2.80082 -1.0383,10.3211 0.5874,2.80742 0.59542,2.81313 4.44715,3.16406 3.27274,0.29818 3.85868,0.5651 3.85868,1.75781 0,1.78715 1.98551,2.10218 6.86489,1.08923 2.94508,-0.6114 4.60319,-1.57592 8.16773,-4.75111 7.6716,-6.83364 17.28606,-17.97243 18.22874,-21.11882 0.84738,-2.8283 0.89376,-2.8586 8.40473,-5.49167 4.15396,-1.45625 10.40031,-3.72199 13.88078,-5.03499 3.48047,-1.31301 8.61894,-3.15667 11.41883,-4.09702 8.10027,-2.72051 26.77771,-12.65752 30.59284,-16.27641 1.25687,-1.1922 5.27635,-4.00273 8.93217,-6.24561 3.65584,-2.24288 7.76912,-5.07765 9.14062,-6.29949 1.37152,-1.22184 4.86671,-3.97666 7.7671,-6.12183 2.9004,-2.14516 6.36384,-5.04157 7.69653,-6.43646 3.67437,-3.84584 4.54121,-3.44631 3.94557,1.81853 -0.27098,2.39508 -0.94005,5.63824 -1.48685,7.20703 -1.41265,4.05307 -1.28023,4.85246 1.09475,6.60836 2.41836,1.78796 2.70798,3.94532 0.97862,7.28953 -1.04853,2.02765 -1.03867,2.45753 0.13559,5.91217 l 1.26635,3.72553 -3.25245,6.88494 c -1.78885,3.78672 -3.86987,9.09979 -4.62448,11.80682 -0.75463,2.70703 -2.58198,7.76953 -4.0608,11.25 -3.25145,7.65243 -3.81844,13.76089 -2.11065,22.73889 1.71735,9.02824 5.60976,15.90824 12.07781,21.34802 2.84231,2.39045 5.32672,4.76032 5.52092,5.2664 0.28477,0.74209 7.57212,0.92013 37.66284,0.92013 32.65028,0 37.36072,-0.1328 37.7178,-1.06332 z"
       id="path4615"
       inkscape:connector-curvature="0" />
    <path
       inkscape:connector-curvature="0"
       style="display:inline;opacity:0.68300003;fill:none;fill-opacity:1;stroke:#0000ff;stroke-width:0.5;stroke-linecap:round;stroke-linejoin:round;stroke-miterlimit:10;stroke-dasharray:none;stroke-opacity:1"
       d="M 7.8267717e-5,-35.433522 C -19.629842,-35.433522 -35.433522,-19.629842 -35.433522,7.8267717e-5 l 0,758.267571732283 c 0,19.62992 15.80368,35.43359 35.433600267717,35.43359 l 758.267571732283,0 c 19.62992,0 35.43359,-15.80367 35.43359,-35.43359 l 0,-758.267571732283 C 793.70124,-19.629842 777.89757,-35.433522 758.26765,-35.433522 l -758.267571732283,0 z M 8.8594483,3.1895283 c 3.1312497,0 5.6699297,2.53672 5.6699297,5.66797 0,3.1312497 -2.53868,5.6699197 -5.6699297,5.6699197 -3.13125,0 -5.66992,-2.53867 -5.66992,-5.6699197 0,-3.13125 2.53867,-5.66797 5.66992,-5.66797 z m 740.5507817,0 c 3.13125,0 5.66796,2.53672 5.66796,5.66797 0,3.1312497 -2.53671,5.6699197 -5.66796,5.6699197 -3.13125,0 -5.66993,-2.53867 -5.66993,-5.6699197 0,-3.13125 2.53868,-5.66797 5.66993,-5.66797 z M 8.8594483,743.7403 c 3.1312497,0 5.6699297,2.53873 5.6699297,5.66993 0,3.1313 -2.53868,5.66796 -5.6699297,5.66796 -3.13125,0 -5.66992,-2.53666 -5.66992,-5.66796 0,-3.1312 2.53867,-5.66993 5.66992,-5.66993 z m 740.5507817,0 c 3.13125,0 5.66796,2.53873 5.66796,5.66993 0,3.1313 -2.53671,5.66796 -5.66796,5.66796 -3.13125,0 -5.66797,-2.53666 -5.66797,-5.66796 0,-3.1312 2.53672,-5.66993 5.66797,-5.66993 z"
       id="path6019" />
  </g>
  <g
     inkscape:groupmode="layer"
     id="layer3"
     inkscape:label="Body color"
     style="display:inline">
    <path
       style="fill:#000000"
       d=""
       id="path4548"
       inkscape:connector-curvature="0" />
    <path
       style="fill:#000000"
       d=""
       id="path4546"
       inkscape:connector-curvature="0" />
  </g>
  <g
     inkscape:label="Body outline"
     inkscape:groupmode="layer"
     id="layer1"
     transform="translate(0,-294.09449)"
     style="display:inline" />
  <g
     inkscape:groupmode="layer"
     id="layer7"
     inkscape:label="Glasses colour"
     style="display:inline" />
  <g
     inkscape:groupmode="layer"
     id="layer6"
     inkscape:label="Glasses front colour"
     style="display:inline" />
  <g
     inkscape:groupmode="layer"
     id="layer5"
     inkscape:label="Glasses outline"
     style="display:inline" />
</svg>
