<?xml version="1.0" encoding="UTF-8" standalone="no"?>
<!-- Created with Inkscape (http://www.inkscape.org/) -->

<svg
   xmlns:dc="http://purl.org/dc/elements/1.1/"
   xmlns:cc="http://creativecommons.org/ns#"
   xmlns:rdf="http://www.w3.org/1999/02/22-rdf-syntax-ns#"
   xmlns:svg="http://www.w3.org/2000/svg"
   xmlns="http://www.w3.org/2000/svg"
   xmlns:sodipodi="http://sodipodi.sourceforge.net/DTD/sodipodi-0.dtd"
   xmlns:inkscape="http://www.inkscape.org/namespaces/inkscape"
   width="214mm"
   height="214mm"
   viewBox="0 0 758.26772 758.26771"
   id="svg2"
   version="1.1"
   inkscape:version="0.91 r13725"
   sodipodi:docname="farnsworth-laser-body-front.svg"
   enable-background="new">
  <defs
     id="defs4">
    <clipPath
       id="clipPath4254"
       clipPathUnits="userSpaceOnUse">
      <path
         inkscape:connector-curvature="0"
         id="path4256"
         d="m 0,634.961 606.614,0 L 606.614,0 0,0 0,634.961 Z" />
    </clipPath>
  </defs>
  <sodipodi:namedview
     id="base"
     pagecolor="#6d6d6d"
     bordercolor="#898989"
     borderopacity="1"
     inkscape:pageopacity="1"
     inkscape:pageshadow="2"
     inkscape:zoom="1.4142136"
     inkscape:cx="351.22609"
     inkscape:cy="282.39953"
     inkscape:document-units="px"
     inkscape:current-layer="layer1"
     showgrid="false"
     inkscape:window-width="3070"
     inkscape:window-height="1752"
     inkscape:window-x="130"
     inkscape:window-y="48"
     inkscape:window-maximized="1"
     borderlayer="true"
     showguides="true"
     inkscape:guide-bbox="true" />
  <metadata
     id="metadata7">
    <rdf:RDF>
      <cc:Work
         rdf:about="">
        <dc:format>image/svg+xml</dc:format>
        <dc:type
           rdf:resource="http://purl.org/dc/dcmitype/StillImage" />
        <dc:title />
      </cc:Work>
    </rdf:RDF>
  </metadata>
  <g
     inkscape:groupmode="layer"
     id="layer8"
     inkscape:label="Cut lines"
     style="display:inline" />
  <g
     inkscape:groupmode="layer"
     id="layer4"
     inkscape:label="Torso color"
     style="display:inline" />
  <g
     inkscape:groupmode="layer"
     id="layer3"
     inkscape:label="Body color"
     style="display:inline">
    <path
       style="fill:#000000"
       d=""
       id="path4548"
       inkscape:connector-curvature="0" />
    <path
       style="fill:#000000"
       d=""
       id="path4546"
       inkscape:connector-curvature="0" />
    <path
       inkscape:connector-curvature="0"
       style="display:inline;fill:#000000;fill-opacity:0.71372551"
       d="m 359.75664,302.57575 c -2.06852,0.0355 -3.44989,0.44014 -6.2666,1.34583 -6.52883,2.0993 -10.246,5.3688 -12.96497,11.40381 -2.53502,5.62673 -2.88223,10.0713 -1.42273,18.22742 1.98117,11.07117 4.7147,17.79436 11.46753,28.2085 3.1097,4.79576 3.27718,5.30208 3.12451,9.45922 -0.16905,4.60345 1.00719,7.88547 4.47583,12.48267 0.87535,1.16016 1.94041,3.41996 2.36646,5.02185 0.81128,3.05027 4.45569,6.95091 8.39905,8.99011 1.53893,0.79581 2.50331,2.16411 3.62109,5.13831 1.35055,3.59357 1.49575,5.16179 1.2843,13.83508 l -0.2384,9.78223 0.32739,0.0747 c -0.30977,0.19362 -0.54763,0.43276 -0.82397,0.73059 -0.79566,0.85753 -3.0105,2.137 -4.92188,2.84437 -1.91137,0.70735 -4.7417,1.98827 -6.28857,2.84655 -1.54688,0.85828 -4.8381,1.90426 -7.3136,2.32361 -3.09315,0.52399 -6.0067,1.67255 -9.31531,3.67163 -4.7249,2.85484 -13.20703,10.55009 -15.44128,14.00867 -0.62311,0.96457 -3.98625,3.44293 -7.474,5.50744 -4.68598,2.77378 -8.70388,6.05972 -15.39075,12.58924 -4.97703,4.8599 -10.47238,9.74624 -12.2124,10.85779 -1.74002,1.11153 -6.24901,2.97281 -10.01953,4.13635 -5.47282,1.68885 -7.67062,2.78818 -10.89844,5.45251 -2.22382,1.83561 -6.57532,5.14746 -9.66907,7.35974 -3.09375,2.21227 -9.73828,7.0263 -14.76562,10.69739 -11.06024,8.07647 -12.96998,8.7544 -18.969,6.72803 -5.62922,-1.90148 -10.74069,-1.87918 -15.2622,0.0659 -3.19018,1.37238 -3.85121,1.43641 -6.45777,0.63171 -4.52285,-1.3963 -8.78115,-1.71372 -9.95251,-0.74158 -0.58232,0.48328 -1.03821,2.03654 -1.03821,3.5376 0,3.42935 2.21218,5.27831 7.12134,5.95349 3.74621,0.51524 6.2381,2.26616 6.23803,4.38245 -6e-5,2.29448 -6.37954,12.54156 -11.46313,18.41199 -9.38675,10.83965 -9.99569,12.40609 -5.7843,14.89087 1.8455,1.08888 2.55239,2.06849 2.90368,4.01989 0.25544,1.41887 0.77872,2.9751 1.16236,3.4585 0.82596,1.04072 5.00641,1.16417 6.80603,0.20105 0.99868,-0.53448 1.65909,-0.2372 3.12341,1.40625 2.94272,3.3027 5.0705,2.85662 11.34229,-2.37854 5.68201,-4.74287 12.3536,-13.87319 16.76513,-22.94495 1.3229,-2.72035 3.91459,-6.28294 6.4336,-8.84179 3.6624,-3.72033 5.23873,-4.70927 11.95312,-7.49708 4.25391,-1.76622 10.70362,-4.2314 14.33277,-5.47888 8.40277,-2.88836 25.13479,-10.50788 29.06103,-13.23413 1.65713,-1.15066 5.70191,-4.8178 8.98901,-8.14966 4.47716,-4.53811 6.68217,-6.24843 8.78907,-6.81481 5.16315,-1.38798 15.61596,-8.59204 25.59045,-17.63855 2.47293,-2.24285 4.70716,-4.07813 4.96582,-4.07813 0.25866,0 1.20457,2.54009 2.10168,5.64477 0.89711,3.10466 2.68909,7.82466 3.98145,10.48865 1.29235,2.66401 3.32478,8.58776 4.51648,13.16382 1.19171,4.57606 2.60483,9.90198 3.14099,11.83557 1.35491,4.88614 1.49549,9.2236 0.79431,24.60938 -0.71463,15.68144 -1.76909,20.60955 -6.28637,29.38843 -4.4465,8.64129 -7.72514,20.30356 -6.56104,23.33715 0.35708,0.93053 5.06689,1.06348 37.71716,1.06348 30.09073,0 37.37856,-0.17856 37.66333,-0.92065 0.1942,-0.50608 2.67833,-2.8753 5.52064,-5.26575 6.46804,-5.43978 10.36102,-12.32039 12.07836,-21.34863 1.70779,-8.978 1.13988,-15.08598 -2.11157,-22.73841 -1.47883,-3.48046 -3.30593,-8.54296 -4.06054,-11.25 -0.75462,-2.70703 -2.83531,-8.02028 -4.62415,-11.80701 l -3.25305,-6.88512 1.26672,-3.72547 c 1.17426,-3.45464 1.18477,-3.88409 0.13623,-5.91174 -1.72935,-3.34421 -1.44057,-5.50147 0.97778,-7.28943 2.37499,-1.7559 2.50799,-2.55631 1.09534,-6.60938 -0.54679,-1.56879 -1.21657,-4.81195 -1.48755,-7.20703 -0.59565,-5.26484 0.27192,-5.66408 3.94629,-1.81823 1.33269,1.39488 4.79553,4.29172 7.69592,6.43689 2.90039,2.14516 6.39582,4.89974 7.76734,6.12158 1.3715,1.22184 5.48478,4.05668 9.14062,6.29956 3.65582,2.24288 7.67502,5.05352 8.93189,6.24573 3.81513,3.61889 22.49336,13.55573 30.59362,16.27624 2.79989,0.94035 7.93763,2.78379 11.4181,4.0968 3.48047,1.313 9.72726,3.57879 13.88122,5.03504 7.51098,2.63307 7.55716,2.66377 8.40454,5.49206 0.94268,3.1464 10.55692,14.28538 18.22852,21.11902 3.56454,3.17519 5.22326,4.13909 8.16834,4.75049 4.87938,1.01295 6.86425,0.6984 6.86425,-1.08875 0,-1.19271 0.58675,-1.45963 3.8595,-1.75781 3.85172,-0.35093 3.85877,-0.35663 4.44617,-3.16406 1.57347,-7.52028 1.48568,-8.39432 -1.03821,-10.32166 -3.60455,-2.75256 -9.19622,-8.27385 -12.43213,-12.27612 -3.83749,-4.7463 -3.92073,-7.16663 -0.34277,-9.89209 5.09058,-3.8777 5.96061,-5.00617 5.72717,-7.42456 -0.193,-1.99937 -0.4967,-2.30035 -2.51807,-2.49499 -1.26416,-0.12172 -4.02519,0.42538 -6.13586,1.21508 -4.42449,1.65541 -15.95553,3.76662 -21.09705,3.8628 -3.42283,0.064 -3.72904,-0.10677 -11.60156,-6.48743 -11.00883,-8.92261 -23.66291,-16.4495 -30.95508,-18.41199 -6.96337,-1.874 -10.26822,-4.80159 -21.33325,-18.89429 -3.61849,-4.60859 -8.68818,-10.01899 -12.08167,-12.89355 -3.21574,-2.72399 -6.24817,-5.92208 -6.73901,-7.10706 -0.81473,-1.96695 -3.5864,-5.48016 -9.10657,-11.54443 -1.17159,-1.28708 -5.05309,-3.70039 -8.9176,-5.5448 -3.76372,-1.79631 -8.66441,-4.62457 -10.89075,-6.28528 -3.17851,-2.37098 -7.25522,-4.40323 -11.6532,-5.85901 0.57549,-0.34674 1.08467,-0.76173 1.48536,-1.24804 4.88012,-5.92307 8.75725,-12.352 9.73828,-16.14771 0.84673,-3.27612 1.69284,-4.69589 4.13086,-6.93237 1.68627,-1.54688 3.5827,-3.66773 4.21435,-4.71314 1.53015,-2.53245 4.8063,-3.1023 9.61853,-1.67322 5.36796,1.59412 10.27648,1.48563 11.20386,-0.24719 0.40032,-0.74801 0.7273,-1.73889 0.7273,-2.20165 0,-0.46277 -2.83602,-3.59494 -6.30286,-6.96094 -6.96172,-6.75921 -8.7872,-9.97054 -9.82178,-17.276 -0.74779,-5.28038 -1.62865,-7.10445 -3.73755,-7.73987 -0.87053,-0.2623 -3.13188,-1.76518 -5.02514,-3.33985 -3.76641,-3.13259 -9.66891,-4.96083 -13.93177,-5.41845 -5.96766,-0.64063 -3.30498,-0.8591 -4.59961,3.7749 -1.57969,5.65433 -5.30939,7.66192 -13.24548,9.86352 -7.83067,2.17236 -7.58923,2.16098 -12.6969,0.59986 -4.55516,-1.39225 -8.34125,-4.53666 -9.09887,-7.5553 -0.61097,-2.43427 0.72702,-7.89603 2.38842,-9.74817 1.75717,-1.9589 8.29342,-6.26895 13.44837,-8.86817 3.85945,-1.946 5.08015,-2.23633 8.29357,-1.96984 3.27663,0.27172 4.03603,0.82421 6.75111,3.24096 7.98376,7.10652 0.9655,5.84797 16.63989,-3.2915 4.81477,-2.80741 4.55185,-5.26272 -0.62073,-7.72559 -1.82543,-0.86915 -2.62688,-1.80971 -3.09375,-3.63317 -0.88145,-3.44276 -1.58373,-4.08497 -5.81177,-5.31409 -3.04398,-0.88491 -3.84802,-1.45601 -4.43847,-3.14978 -0.767,-2.20023 -3.15648,-3.60166 -8.3584,-4.9043 -1.78709,-0.44751 -2.98828,-1.15622 -2.98828,-1.76221 0,-1.30222 -3.52416,-3.07876 -13.08912,-6.59838 -5.98895,-2.20376 -9.47965,-3.01383 -15.83239,-3.67603 -3.43991,-0.35857 -5.46415,-0.55493 -7.073,-0.52735 z"
       id="path4737"
       sodipodi:nodetypes="cssssssssssccsssssssssssssssssssssscsssssssssssssssssssssssssscccsssssssssssssssssssssssssssssssssccsssssssssssssssssssssssssssscc" />
    <path
       inkscape:connector-curvature="0"
       style="display:inline;opacity:0.68300003;fill:none;fill-opacity:1;stroke:#0000ff;stroke-width:0.5;stroke-linecap:round;stroke-linejoin:round;stroke-miterlimit:10;stroke-dasharray:none;stroke-opacity:1"
       d="M 6.8267717e-5,-35.433522 C -19.629862,-35.433522 -35.433532,-19.629852 -35.433532,7.1267717e-5 l 0,758.267578732283 c 0,19.62992 15.80367,35.43359 35.433600267717,35.43359 l 758.267581732283,0 c 19.6299,0 35.4336,-15.80367 35.4336,-35.43359 l 0,-758.267578732283 C 793.70125,-19.629852 777.89755,-35.433522 758.26765,-35.433522 l -758.267581732283,0 z M 8.8594383,3.1895243 c 3.1312497,0 5.6699197,2.536719 5.6699197,5.667969 0,3.1312497 -2.53867,5.6699217 -5.6699197,5.6699217 -3.13125,0 -5.66992,-2.538672 -5.66992,-5.6699217 0,-3.13125 2.53867,-5.667969 5.66992,-5.667969 z m 740.5508117,0 c 3.1312,0 5.6679,2.536719 5.6679,5.667969 0,3.1312497 -2.5367,5.6699217 -5.6679,5.6699217 -3.1313,0 -5.67,-2.538672 -5.67,-5.6699217 0,-3.13125 2.5387,-5.667969 5.67,-5.667969 z M 8.8594383,743.7403 c 3.1312497,0 5.6699197,2.53873 5.6699197,5.66993 0,3.1313 -2.53867,5.66796 -5.6699197,5.66796 -3.13125,0 -5.66992,-2.53666 -5.66992,-5.66796 0,-3.1312 2.53867,-5.66993 5.66992,-5.66993 z m 740.5508117,0 c 3.1312,0 5.6679,2.53873 5.6679,5.66993 0,3.1313 -2.5367,5.66796 -5.6679,5.66796 -3.1313,0 -5.668,-2.53666 -5.668,-5.66796 0,-3.1312 2.5367,-5.66993 5.668,-5.66993 z"
       id="path6019" />
  </g>
  <g
     inkscape:label="Body outline"
     inkscape:groupmode="layer"
     id="layer1"
     transform="translate(0,-294.09449)"
     style="display:inline">
    <path
       style="display:inline;fill:#00ff00;fill-opacity:1"
       d="m 346.41987,883.48761 c 0.46657,-5.02019 4.30743,-16.12582 6.81009,-19.69102 2.09158,-2.97958 4.23169,-9.90765 4.55318,-14.73974 1.53094,-23.01076 1.80391,-30.944 1.18548,-34.45313 -1.40759,-7.98705 -5.94382,-23.731 -8.20482,-28.47656 -2.68852,-5.64289 -4.60152,-11.04361 -4.60152,-12.99088 0,-2.47224 -1.51564,-2.31097 -4.46012,0.47458 -9.85194,9.32017 -23.14756,18.49286 -26.80498,18.49286 -0.59262,0 -4.63732,3.33862 -8.98823,7.41914 -6.96118,6.52859 -8.83911,7.86916 -15.64511,11.16835 -10.6801,5.17716 -16.3059,7.53194 -25.3125,10.595 -4.2539,1.44671 -10.70994,4.09456 -14.34674,5.88411 -5.63014,2.77039 -7.11127,3.88039 -9.97093,7.47247 -1.8472,2.32031 -4.6722,6.75 -6.27778,9.84375 -3.68103,7.0929 -9.48409,14.73912 -15.02733,19.80025 -6.73809,6.15207 -9.67001,6.86419 -12.41123,3.01452 -1.33043,-1.86844 -1.5106,-1.92116 -3.32692,-0.97364 -4.4224,2.30703 -7.89688,0.36884 -7.89688,-4.40517 0,-1.95186 -0.40267,-2.49563 -2.72578,-3.68078 -1.49918,-0.76483 -2.89426,-1.82964 -3.10017,-2.36625 -0.60199,-1.56875 1.84978,-6.22454 5.00995,-9.51364 4.82521,-5.02207 7.70175,-8.79156 11.38286,-14.91635 4.63163,-7.70632 4.54257,-10.49394 -0.33639,-10.52907 -2.87065,-0.0206 -7.82481,-2.33589 -8.76748,-4.09731 -1.33493,-2.49434 -0.93188,-6.2339 0.80284,-7.44894 2.03655,-1.42646 3.78401,-1.35109 7.22636,0.31169 3.61651,1.7469 6.06799,1.7469 9.49219,0 3.31595,-1.69167 7.44454,-1.77928 12.65625,-0.26859 8.73103,2.53082 10.04783,2.10003 22.85156,-7.4759 4.25391,-3.18149 10.02955,-7.33887 12.83476,-9.23861 2.80521,-1.89973 6.68457,-4.86104 8.6208,-6.58069 4.33038,-3.84599 6.21521,-4.84126 12.4296,-6.56335 7.76124,-2.15075 10.45711,-3.93743 20.21057,-13.39446 10.42552,-10.10867 12.93151,-12.15486 19.44182,-15.87467 2.95791,-1.69008 5.07204,-3.46463 5.85113,-4.91131 1.30396,-2.42131 6.97669,-7.68375 12.72471,-11.80438 4.22144,-3.02626 10.10127,-5.45172 13.20561,-5.44739 1.24252,0.001 4.63217,-1.13591 7.53256,-2.52809 2.90039,-1.39218 6.06445,-2.91113 7.03125,-3.37545 1.54156,-0.74035 1.76631,-1.316 1.82687,-4.67894 0.038,-2.1091 0.29963,-6.68239 0.58145,-10.16286 0.66231,-8.17967 -0.87855,-13.43939 -4.43929,-15.15342 -3.63768,-1.7511 -7.72613,-6.18086 -8.64793,-9.36992 -0.4608,-1.5942 -1.61792,-3.84775 -2.57138,-5.00791 -3.63272,-4.42027 -6.0775,-11.5749 -4.32526,-12.65785 1.4754,-0.91184 -0.0612,-4.4944 -5.79461,-13.50971 -3.92152,-6.16632 -6.76109,-13.49459 -8.32855,-21.49409 -1.7344,-8.85149 -1.70131,-13.24616 0.14079,-18.70092 2.17715,-6.44689 5.06721,-9.84132 10.74748,-12.6231 8.83872,-4.32857 18.65137,-3.86049 33.81824,1.61318 9.51224,3.43293 12.05958,4.70658 13.53129,6.76556 0.48126,0.67331 2.15337,1.44018 3.7158,1.70415 3.2467,0.54852 7.01073,3.37637 7.01073,5.26703 0,0.93457 1.04869,1.60816 3.89998,2.505 4.21728,1.3265 6.64689,3.66558 6.64689,6.39923 0,1.15737 0.56207,1.89409 1.80586,2.36698 3.1551,1.19956 6.82087,4.3521 5.79667,4.98509 -0.56586,0.34972 -1.57439,-0.0479 -2.67354,-1.05408 -0.97071,-0.88861 -2.77032,-2.01139 -3.99913,-2.49509 -1.81454,-0.71427 -2.32012,-1.38807 -2.69168,-3.58729 -0.56247,-3.32928 -1.0717,-3.7627 -6.14833,-5.23315 -3.47714,-1.00715 -4.04297,-1.40779 -4.04297,-2.86275 0,-2.21227 -2.52131,-3.82594 -7.59583,-4.86142 -3.07771,-0.62802 -3.95948,-1.08528 -3.80611,-1.97372 0.25116,-1.45483 -1.52547,-2.37439 -12.24589,-6.33834 -9.97539,-3.68847 -20.53014,-5.34238 -25.71302,-4.02918 -9.6876,2.45458 -13.78518,6.19988 -17.05517,15.58894 -1.42711,4.09763 -1.33279,6.5099 0.63628,16.27331 1.86356,9.24025 4.48494,15.43227 10.7109,25.30046 3.81227,6.04246 3.88649,6.25843 3.42371,9.96236 -0.51444,4.11742 0.47834,6.84832 4.51569,12.42173 1.08441,1.49698 2.16865,3.77186 2.40942,5.0553 0.4805,2.56123 3.60686,5.92999 7.45439,8.03233 4.48443,2.45035 5.27344,5.20634 5.27344,18.41991 0,6.3538 -0.31641,12.15853 -0.70313,12.89939 -0.38686,0.74116 -2.94675,2.2131 -5.69132,3.27251 -2.74351,1.05901 -5.74066,2.45252 -6.66035,3.0967 -0.91969,0.64417 -2.3263,1.17122 -3.1258,1.17122 -3.23181,0 -9.62369,2.21597 -13.47983,4.67327 -4.69939,2.99464 -12.58375,10.30565 -13.94421,12.93017 -0.52485,1.01255 -3.66748,3.40691 -7.27198,5.54053 -4.67035,2.76452 -9.00593,6.30405 -16.40741,13.39485 -10.87779,10.42121 -13.79544,12.58542 -19.20035,14.24222 -1.93359,0.59272 -4.93859,1.50937 -6.6778,2.037 -1.87613,0.56917 -5.16465,2.64046 -8.08594,5.09296 -2.70806,2.2735 -6.82219,5.42413 -9.14251,7.0014 -2.32031,1.57727 -7.69921,5.43727 -11.95312,8.57777 -14.14767,10.44471 -15.13987,10.77343 -24.60938,8.15318 -6.13236,-1.69686 -8.10247,-1.58217 -12.92506,0.7524 -3.27136,1.58364 -4.65322,1.46815 -10.32984,-0.86341 -3.0572,-1.25569 -5.92478,-0.41166 -5.92478,1.74386 0,3.83367 2.02403,5.46792 7.8146,6.30969 2.12206,0.30848 3.81398,1.07801 4.89119,2.22466 1.46597,1.56046 1.55654,1.99246 0.82436,3.93221 -1.75843,4.65861 -6.86966,12.6178 -11.49784,17.90441 -8.78501,10.03479 -9.73732,12.15608 -6.09086,13.56749 1.36813,0.52956 2.18171,0.0474 5.66405,-3.35673 2.23655,-2.18632 5.33564,-6.11086 6.88687,-8.72121 2.55274,-4.29565 4.16388,-5.87197 4.16388,-4.07391 0,1.5295 -4.65656,8.39574 -8.93839,13.17993 -4.53992,5.07256 -4.57806,5.14956 -4.10709,8.29025 0.45982,3.06627 0.55632,3.17013 2.94545,3.17013 2.04332,0 3.19345,-0.69001 6.65737,-3.99402 2.49053,-2.37556 5.3517,-6.10338 7.0608,-9.1995 1.77759,-3.22021 3.12362,-4.95534 3.52934,-4.54962 0.95212,0.95212 -3.21535,8.24075 -7.2628,12.70215 -1.87017,2.06144 -3.40031,3.97932 -3.40031,4.26195 0,0.28263 0.66871,1.23164 1.48601,2.10892 1.12511,1.20767 1.93623,1.48333 3.33984,1.13507 4.94843,-1.22779 16.13265,-14.14423 21.72035,-25.08441 4.49881,-8.80822 8.91252,-13.39823 16.47691,-17.13503 3.43987,-1.69929 10.5917,-4.57695 15.89294,-6.39481 5.30125,-1.81785 13.2307,-4.99238 17.62101,-7.0545 4.39029,-2.06213 8.18717,-3.75068 8.4375,-3.75233 1.35762,-0.009 7.50377,-4.94061 13.52796,-10.85474 4.00739,-3.93418 7.42388,-6.72038 8.24068,-6.72038 3.52913,0 15.18581,-7.728 24.68963,-16.36842 2.88376,-2.62178 6.60571,-5.62764 8.27101,-6.67969 1.66529,-1.05206 2.926,-2.22012 2.80155,-2.5957 -0.12444,-0.37557 -1.53289,-1.32479 -3.12988,-2.10937 -1.59699,-0.78458 -2.91839,-1.82201 -2.93644,-2.30541 -0.0489,-1.30957 0.7641,-1.09073 4.31586,1.16173 4.57896,2.90389 4.76779,3.5159 1.82075,5.90113 l -2.52158,2.04089 1.62779,5.91651 c 0.89529,3.25407 2.27136,7.00726 3.05793,8.3404 1.6852,2.85622 4.08162,10.18654 7.08018,21.65735 2.46039,9.41213 2.67568,14.69674 1.43381,35.19509 -0.78135,12.89698 -1.77903,16.98461 -6.03984,24.74628 -2.85654,5.20359 -5.58061,13.39385 -6.24973,18.79062 -0.74005,5.96887 -2.05253,5.17389 -1.4879,-0.90127 z m 32.17843,2.27463 c -6.6703,-5.6541 -11.34227,-10.24618 -11.34227,-11.14835 0,-1.70358 1.21448,-1.00318 3.9628,2.28537 1.48605,1.77816 3.4963,3.6543 4.46721,4.16919 0.97092,0.5149 3.34734,2.36812 5.28093,4.11828 2.73717,2.47749 3.20424,3.1818 2.10937,3.18067 -0.77343,-5.6e-4 -2.78855,-1.17309 -4.47804,-2.60516 z m 37.87648,1.97989 c 0,-0.77968 3.37154,-1.79809 3.97035,-1.19931 0.21407,0.21409 0.18066,0.7267 -0.0743,1.13912 -0.58189,0.94151 -3.8961,0.9927 -3.8961,0.0602 z m 11.0426,-5.4765 c 5.11809,-4.85412 6.92293,-7.10759 8.62611,-10.77035 2.68108,-5.76576 4.20943,-12.80516 4.22534,-19.4614 0.0109,-4.57157 -0.38564,-6.08765 -3.77032,-14.41407 -2.08039,-5.11784 -3.99361,-10.49408 -4.25162,-11.94722 -0.25799,-1.45313 -1.87813,-5.65763 -3.60028,-9.34332 -3.47456,-7.4361 -3.547,-7.85615 -2.08071,-12.0648 0.89499,-2.56888 0.89837,-3.2141 0.0257,-4.92188 -0.55237,-1.08098 -1.16876,-2.51914 -1.36975,-3.1959 -0.25646,-0.86345 -1.08893,-1.23047 -2.79096,-1.23047 -3.01757,0 -4.64989,-0.59752 -4.64989,-1.70212 0,-0.59781 1.19466,-0.76305 4.04297,-0.55921 3.35909,0.24039 4.37005,0.0312 5.97656,-1.23663 2.1936,-1.73116 2.36464,-2.76957 0.91727,-5.56849 -1.28835,-2.4914 -2.64116,-12.39348 -2.50727,-18.35235 0.11417,-5.08127 1.23661,-7.03432 4.04273,-7.03432 2.06651,0 1.80367,1.65782 -0.31253,1.97124 -1.05558,0.15634 -1.55602,0.90869 -1.87079,2.8125 -0.89134,5.39119 -0.67824,5.8808 4.66513,10.71816 2.79675,2.53191 6.35062,5.53039 7.8975,6.6633 1.54687,1.1329 4.39453,3.36954 6.32812,4.97028 1.93359,1.60076 6.83789,4.9867 10.89844,7.52431 4.06055,2.53761 8.31213,5.58587 9.44796,6.7739 1.13582,1.18803 2.36138,2.16006 2.72345,2.16006 0.36207,0 2.91323,1.36367 5.66923,3.03037 5.27459,3.18983 15.74776,8.35664 18.72356,9.23705 1.59926,0.47314 28.65264,10.07131 33.21791,11.78525 1.40967,0.52923 2.16157,1.50839 2.78676,3.62903 1.24574,4.2255 12.49483,16.91435 20.59519,23.23114 2.20974,1.7232 11.386,4.14541 11.99169,3.16539 0.19296,-0.31221 -1.08949,-1.61242 -2.84989,-2.88935 -10.40974,-7.55089 -12.09492,-9.03448 -12.02521,-10.58662 0.0544,-1.21193 2.81553,-6.79326 4.39411,-8.88236 0.11317,-0.14975 1.08517,0.65288 2.16002,1.78363 2.26286,2.38053 15.20278,11.49647 16.31906,11.49647 0.41383,0 0.75241,-0.29053 0.75241,-0.64562 0,-0.35509 0.193,-1.14857 0.4289,-1.7633 0.29978,-0.78124 -1.31707,-2.75636 -5.37125,-6.56141 -8.08114,-7.58456 -13.3389,-13.92098 -13.3389,-16.07546 0,-1.04047 0.79221,-2.46175 1.93359,-3.46899 5.65818,-4.99321 7.91016,-7.2562 7.91016,-7.94879 0,-0.4233 -0.76093,-1.26822 -1.69095,-1.87759 -1.57904,-1.03463 -1.98624,-0.98324 -6.15234,0.77637 -2.66608,1.12607 -6.30055,2.01516 -9.03171,2.2094 -2.51367,0.17878 -5.90933,0.81215 -7.5459,1.40747 -1.82358,0.66334 -4.28563,0.95652 -6.35936,0.75726 -2.9986,-0.28813 -4.14056,-0.95967 -10.03222,-5.89955 -9.92093,-8.31825 -27.99481,-19.24338 -31.90326,-19.28461 -4.59723,-0.0485 -11.55791,-5.99526 -19.73408,-16.85956 -2.18276,-2.90039 -7.8243,-9.07247 -12.53676,-13.71573 -4.71246,-4.64326 -9.20092,-9.44199 -9.97436,-10.66383 -5.51749,-8.71634 -9.57104,-12.25173 -18.06192,-15.75309 -2.75543,-1.13625 -6.3282,-3.14618 -7.9395,-4.46651 -3.88022,-3.17956 -11.45794,-6.85004 -12.0763,-5.84951 -0.25685,0.41559 -0.66194,1.7088 -0.90021,2.87379 -0.55871,2.73177 -2.15488,3.34616 -2.15488,0.82944 0,-2.29648 0.79739,-3.83213 3.54572,-6.82844 3.20568,-3.49495 8.69671,-11.83626 9.66318,-14.67916 0.46948,-1.38097 0.8536,-3.32946 0.8536,-4.32996 0,-1.3869 0.74137,-2.28814 3.12031,-3.79318 2.6237,-1.65987 5.18587,-4.85511 4.46461,-5.56772 -0.11116,-0.10983 -1.49718,0.0377 -3.08004,0.32783 -1.8332,0.33602 -4.13044,0.18428 -6.32813,-0.41797 -1.8976,-0.52004 -6.61425,-1.53542 -10.48144,-2.2564 -7.00671,-1.30631 -11.81177,-2.93691 -12.64967,-4.29265 -0.63008,-1.01952 1.29039,-0.88147 4.37372,0.31436 1.45802,0.56547 5.49861,1.52647 8.97908,2.13556 3.48046,0.60908 7.69119,1.60342 9.35717,2.20964 2.15873,0.78553 3.97696,0.95225 6.32813,0.58022 1.81449,-0.2871 4.09009,-0.58547 5.05688,-0.66305 0.9668,-0.0776 2.39738,-0.3488 3.17907,-0.60275 0.78168,-0.25394 3.62833,0.16946 6.32588,0.94089 6.0633,1.73395 9.18644,1.80127 10.07297,0.21715 0.98601,-1.7619 -0.22168,-3.71094 -4.23019,-6.8269 -4.29154,-3.33597 -8.62001,-8.68546 -9.71684,-12.00888 l -0.81292,-2.46318 -1.82126,2.16445 c -2.10924,2.50669 -2.00021,2.51278 -12.672,-0.70672 -3.9679,-1.19704 -8.18665,-2.17645 -9.37501,-2.17645 -1.41413,0 -2.06063,-0.30366 -1.87119,-0.8789 0.52012,-1.57934 3.15958,-1.35583 10.87065,0.9205 10.66964,3.14973 11.17416,3.20713 12.15068,1.38249 0.69246,-1.29389 0.42409,-2.36051 -1.74113,-6.91985 -2.84087,-5.98205 -5.26417,-9.46911 -7.68095,-11.05265 -1.93921,-1.27061 -8.85648,-3.13909 -11.62121,-3.13909 -1.77833,0 -3.29514,-1.43327 -2.43116,-2.29726 0.17896,-0.17895 1.81829,-0.0235 3.64297,0.3455 1.82467,0.36898 4.19256,0.79525 5.26197,0.94728 5.07158,0.72097 10.03116,5.37695 14.01334,13.15555 2.66796,5.21149 3.49338,5.11066 1.6204,-0.19794 -1.25576,-3.5592 -1.25185,-3.51563 -0.31568,-3.51563 1.06914,0 2.78647,4.49791 3.56642,9.34095 0.9076,5.63565 2.75844,9.01517 7.11555,12.99254 6.50263,5.93589 8.26672,7.9729 8.25576,9.53298 -0.029,4.11903 -4.07191,5.19951 -11.69838,3.12641 -4.98672,-1.35555 -5.43993,-1.37263 -7.70894,-0.29062 -1.32591,0.63228 -2.70722,1.92939 -3.06957,2.88245 -0.36236,0.95308 -1.86372,2.53022 -3.33637,3.50477 -2.27431,1.50507 -2.81835,2.37752 -3.61246,5.79318 -0.92601,3.98302 -4.32314,9.73942 -8.66815,14.68812 -1.18835,1.35346 -2.03943,2.56943 -1.89129,2.70216 0.14815,0.13274 2.02139,1.06246 4.16275,2.06606 2.14137,1.0036 5.18437,2.92976 6.76223,4.28035 1.57787,1.35059 4.61807,3.11009 6.75602,3.91 5.62173,2.10336 11.69942,6.27215 14.93211,10.24217 1.54687,1.8997 3.35308,3.99833 4.01379,4.66363 0.66072,0.66529 1.8283,2.40929 2.59465,3.87553 0.76634,1.46624 4.54422,5.58513 8.39528,9.15311 3.85106,3.56797 9.13804,9.26328 11.74885,12.65625 7.97554,10.36491 12.48555,14.58549 17.08072,15.98457 9.72752,2.96174 24.10296,11.43174 35.17094,20.72269 7.02223,5.89477 8.82322,6.41676 14.9734,4.33981 2.40974,-0.81378 5.98106,-1.48711 7.93624,-1.49629 2.1402,-0.0101 5.23374,-0.70829 7.77363,-1.75455 5.28416,-2.17676 6.72754,-2.18097 8.75249,-0.0255 2.6742,2.84656 0.80441,6.4292 -5.37635,10.30141 -3.75866,2.35478 -3.61105,3.54441 1.16505,9.38937 2.35573,2.88293 6.67394,7.38994 9.59603,10.01559 5.10095,4.58343 5.29529,4.8723 4.87168,7.24073 -0.24267,1.35675 -0.61712,3.81773 -0.83211,5.46885 -0.47904,3.67902 -2.00747,4.68215 -6.08453,3.99334 -2.64329,-0.44659 -2.82983,-0.38504 -1.97064,0.65021 0.79143,0.95363 0.79331,1.3311 0.0113,2.27338 -1.06581,1.28424 -4.1998,1.05499 -10.19605,-0.74582 -3.05694,-0.91806 -4.87115,-2.35039 -12.44192,-9.82293 -9.69817,-9.57233 -13.15897,-13.84465 -13.15897,-16.24458 0,-1.77911 -0.97625,-2.74604 -3.51562,-3.48202 -7.50092,-2.17395 -37.3882,-13.53294 -42.1875,-16.0338 -11.72221,-6.10834 -15.83688,-8.5322 -17.01645,-10.02403 -0.65788,-0.83203 -4.47802,-3.5852 -8.48917,-6.11814 -6.86168,-4.33296 -18.4671,-13.07806 -26.01466,-19.60294 l -3.3562,-2.90145 0.46063,4.12995 c 0.25334,2.27148 0.89352,5.19692 1.42261,6.50098 1.54887,3.81752 1.23162,5.88367 -1.14739,7.47273 -2.41626,1.61394 -2.67307,3.47415 -0.90492,6.55497 1.13729,1.98161 1.13717,2.31201 -0.002,5.92572 l -1.20639,3.8271 3.43718,7.31485 c 1.89046,4.02317 3.65577,8.63823 3.92292,10.25568 0.26716,1.61747 2.04233,6.61389 3.94483,11.10317 1.9025,4.48928 3.64636,9.81044 3.87524,11.8248 0.65927,5.80212 -1.30718,15.87315 -4.37645,22.41365 -2.25871,4.81323 -3.55585,6.49084 -8.66178,11.20241 -3.30289,3.04779 -6.47986,5.53804 -7.05994,5.53393 -0.58007,-0.006 1.85785,-2.76978 5.4176,-6.14594 z M 570.81072,852.9324 c 0,-0.99192 -2.54927,-3.18465 -8.77782,-7.55017 l -8.77781,-6.15228 -1.76906,2.26045 c -0.97298,1.24324 -1.76906,2.58417 -1.76906,2.97985 0,1.18975 11.38159,9.38445 13.50078,9.72051 1.08239,0.17165 3.23359,0.27326 4.78047,0.22581 2.30921,-0.0708 2.8125,-0.33643 2.8125,-1.48417 z m -157.7549,3.33632 c -0.89667,-1.67545 0.0963,-3.33933 1.6395,-2.74716 0.71673,0.27503 1.08718,1.04762 0.94988,1.98098 -0.29499,2.00514 -1.70329,2.42185 -2.58938,0.76618 z M 213.7769,843.37527 c -1.44522,-1.19126 -2.44483,-2.4618 -2.22134,-2.82341 0.50996,-0.82514 5.89945,2.91708 5.91983,4.11046 0.0233,1.36469 -0.8503,1.06068 -3.69849,-1.28705 z m 6.77712,-7.33445 c -0.84227,-2.19493 2.48115,-9.79858 3.73483,-8.5449 0.26666,0.26665 -0.0465,1.59902 -0.69586,2.9608 -0.64939,1.36178 -1.18071,3.23757 -1.18071,4.16843 0,2.05834 -1.24707,3.00839 -1.85826,1.41567 z m 321.69316,-5.21248 c -0.41454,-1.18916 -1.03916,-2.16212 -1.38806,-2.16212 -0.34888,0 -0.63434,-0.4746 -0.63434,-1.05468 0,-2.29131 2.90283,-0.0612 3.81263,2.9291 0.7403,2.43323 -0.94772,2.7045 -1.79023,0.2877 z M 368.13494,809.79471 c -3.11597,-1.17222 -4.37504,-3.44365 -1.40625,-2.53695 3.53762,1.08042 6.15234,2.39423 6.15234,3.09133 0,0.95419 -1.0675,0.8295 -4.74609,-0.55438 z m 30.45756,0.66697 c -1.21887,-1.97218 10.37326,-6.52372 15.0257,-5.89969 4.224,0.56656 3.80655,1.97915 -0.48225,1.63188 -2.1996,-0.17811 -9.21776,1.92946 -11.89846,3.57311 -1.284,0.78728 -2.4057,1.08189 -2.64499,0.6947 z m -27.64506,-5.86678 c -4.72119,-1.95837 -6.44004,-3.35055 -4.13673,-3.35055 1.1457,0 8.15836,2.7757 9.41017,3.72466 0.96006,0.7278 1.19579,1.94839 0.35156,1.82038 -0.29004,-0.0439 -2.82129,-1.0315 -5.625,-2.19449 z m -1.23047,-7.53088 c -2.48382,-1.01661 -3.68087,-3.07536 -5.17447,-8.89934 -0.80354,-3.13327 -1.77526,-6.52343 -2.15936,-7.5337 -0.69881,-1.83799 0.11784,-3.32324 1.02244,-1.85955 0.80948,1.30976 3.85045,11.36112 3.85045,12.72694 0,0.71966 0.67124,1.97972 1.49165,2.80012 1.56953,1.56954 3.66534,1.59413 16.26226,0.19085 3.54577,-0.39499 4.04297,-0.29988 4.04297,0.77338 0,0.8801 -0.39735,1.11986 -1.41495,0.85374 -0.77822,-0.2035 -3.54666,0.076 -6.15208,0.62112 -5.21361,1.09083 -9.60379,1.21261 -11.76891,0.32644 z m 1.75781,-5.31186 c 0,-0.58008 0.31641,-1.05469 0.70313,-1.05469 0.38672,0 0.70312,0.47461 0.70312,1.05469 0,0.58008 -0.3164,1.05469 -0.70312,1.05469 -0.38672,0 -0.70313,-0.47461 -0.70313,-1.05469 z m 80.07128,-4.04688 c -2.56042,-2.02812 -5.56627,-4.36259 -6.67969,-5.18771 -2.21003,-1.63777 -1.95871,-2.94574 0.33058,-1.72055 2.50929,1.34292 12.05908,9.18998 12.05908,9.90892 0,1.25618 -0.99802,0.73171 -5.70997,-3.00066 z m -27.59039,2.50433 c -0.79185,-0.79185 -0.48227,-1.62151 0.60505,-1.62151 0.58008,0 1.05469,0.29773 1.05469,0.66163 0,0.88662 -1.09799,1.52163 -1.65974,0.95988 z m -105.91839,-9.54516 c 0,-0.4908 1.97754,-1.95933 4.39453,-3.26338 2.417,-1.30405 5.41812,-3.333 6.66916,-4.50877 1.25104,-1.17577 2.49548,-1.91691 2.76541,-1.64698 1.06074,1.06074 -2.61243,4.47983 -7.86747,7.32325 -6.26831,3.39168 -5.96163,3.28387 -5.96163,2.09588 z m 83.3191,-2.0213 c -0.67493,-1.75883 -0.0514,-16.76652 0.70434,-16.95241 0.95186,-0.23414 1.33365,16.35277 0.39794,17.28848 -0.46911,0.46912 -0.83626,0.35719 -1.10228,-0.33607 z m -7.3816,-38.98082 c -0.9668,-0.53645 -2.54883,-0.98435 -3.51562,-0.99534 -2.60898,-0.0296 -4.92188,-0.77204 -4.92188,-1.57984 0,-1.10543 8.38934,0.0782 10.27887,1.45016 2.97537,2.16043 1.57098,3.01848 -1.84137,1.12502 z m 8.4375,-0.17188 c 0,-0.82316 4.03204,-4.33985 4.97583,-4.33985 1.45675,0 0.49402,1.8469 -1.64043,3.14699 -3.15214,1.91997 -3.3354,1.98551 -3.3354,1.19286 z m -4.20708,-12.54298 c 0.0304,-1.52521 3.41963,-9.69845 4.11829,-9.93134 0.43556,-0.14518 0.77311,0.1579 0.75012,0.67354 -0.0867,1.94392 -3.15856,9.28081 -4.00117,9.55634 -0.4834,0.15807 -0.87365,0.0237 -0.86724,-0.29854 z m -6.33979,-3.19922 c 0,-1.3084 -0.34842,-2.72731 -0.77426,-3.15315 -1.0197,-1.01971 -0.11287,-5.132 1.13171,-5.132 0.59473,0 0.96157,0.85282 0.98297,2.28516 0.0188,1.25683 0.12036,3.52123 0.22576,5.032 0.1198,1.71724 -0.13781,2.85931 -0.68728,3.04687 -0.58905,0.20109 -0.8789,-0.48448 -0.8789,-2.07888 z m -10.12009,-0.25672 c -1.12434,-2.92999 -0.0387,-11.54406 1.45489,-11.54406 0.772,0 0.87938,0.59001 0.47987,2.63672 -0.28307,1.4502 -0.49938,4.29785 -0.48067,6.32813 0.0334,3.6265 -0.61254,4.77225 -1.45409,2.57921 z m -17.92538,-39.37608 c -0.86418,-1.09862 -1.48578,-2.90998 -1.48578,-4.32958 0,-1.61747 -0.67718,-3.30493 -2.00764,-5.00284 -2.74986,-3.50935 -3.79678,-5.65071 -3.34201,-6.83581 0.55373,-1.443 1.83402,-1.2298 1.83402,0.3054 0,0.71782 1.13636,2.79338 2.52524,4.61233 1.69282,2.21702 2.67898,4.3943 2.99165,6.60502 0.35184,2.48768 0.85488,3.4686 2.04772,3.99302 1.73134,0.76119 1.73942,1.99476 0.0152,2.32931 -0.60096,0.11662 -1.76126,-0.63797 -2.57845,-1.67685 z m 23.75221,0.58593 c -0.20218,-1.43104 0.28552,-4.87713 0.8361,-5.90784 0.34132,-0.63896 2.15436,-2.28764 4.02898,-3.66374 3.20404,-2.35198 3.99659,-3.58141 6.52119,-10.11592 0.67986,-1.75971 2.04761,-2.14292 2.04761,-0.57369 0,0.55459 -0.81729,2.89287 -1.81621,5.19619 -1.38292,3.18874 -2.59909,4.74282 -5.09766,6.51405 -3.97778,2.81984 -4.07693,2.95634 -4.62164,6.36276 -0.23883,1.49354 -0.7469,2.71553 -1.12905,2.71553 -0.38215,0 -0.72834,-0.2373 -0.76932,-0.52734 z M 370.77166,635.0371 c 0,-1.58808 5.44906,-6.05838 7.38483,-6.05838 2.35006,0 2.22966,1.1035 -0.2133,1.95512 -1.08301,0.37754 -2.90131,1.67411 -4.04069,2.88128 -2.2547,2.38886 -3.13084,2.73083 -3.13084,1.22198 z m -22.26387,-9.97282 c -0.50744,-1.3224 0.73684,-2.76446 1.81198,-2.09998 1.15896,0.71628 0.91648,3.20192 -0.31236,3.20192 -0.59222,0 -1.26705,-0.49587 -1.49962,-1.10194 z m 16.63887,-0.0354 c 0,-1.47705 5.11992,-6.59697 6.59696,-6.59697 1.78151,0 1.33132,1.90826 -0.56232,2.38353 -0.93486,0.23464 -2.3845,1.53457 -3.22141,2.88873 -1.6229,2.62591 -2.81323,3.18641 -2.81323,1.32471 z m -15.83411,-10.83805 c -0.27307,-0.44183 -0.16563,-1.13417 0.23873,-1.53854 0.94493,-0.94494 3.14799,-0.12072 2.76355,1.0339 -0.39136,1.1754 -2.38104,1.50984 -3.00228,0.50464 z"
       id="path4217"
       inkscape:connector-curvature="0" />
  </g>
  <g
     inkscape:groupmode="layer"
     id="layer7"
     inkscape:label="Glasses colour"
     style="display:inline" />
  <g
     inkscape:groupmode="layer"
     id="layer6"
     inkscape:label="Glasses front colour"
     style="display:inline" />
  <g
     inkscape:groupmode="layer"
     id="layer5"
     inkscape:label="Glasses outline"
     style="display:inline" />
</svg>
