<?xml version="1.0" encoding="UTF-8" standalone="no"?>
<!-- Created with Inkscape (http://www.inkscape.org/) -->

<svg
   xmlns:dc="http://purl.org/dc/elements/1.1/"
   xmlns:cc="http://creativecommons.org/ns#"
   xmlns:rdf="http://www.w3.org/1999/02/22-rdf-syntax-ns#"
   xmlns:svg="http://www.w3.org/2000/svg"
   xmlns="http://www.w3.org/2000/svg"
   xmlns:sodipodi="http://sodipodi.sourceforge.net/DTD/sodipodi-0.dtd"
   xmlns:inkscape="http://www.inkscape.org/namespaces/inkscape"
   width="214mm"
   height="214mm"
   viewBox="0 0 758.26772 758.26771"
   id="svg2"
   version="1.1"
   inkscape:version="0.91 r13725"
   sodipodi:docname="farnsworth.svg"
   enable-background="new">
  <defs
     id="defs4">
    <clipPath
       id="clipPath4254"
       clipPathUnits="userSpaceOnUse">
      <path
         inkscape:connector-curvature="0"
         id="path4256"
         d="m 0,634.961 606.614,0 L 606.614,0 0,0 0,634.961 Z" />
    </clipPath>
  </defs>
  <sodipodi:namedview
     id="base"
     pagecolor="#6d6d6d"
     bordercolor="#898989"
     borderopacity="1"
     inkscape:pageopacity="1"
     inkscape:pageshadow="2"
     inkscape:zoom="1"
     inkscape:cx="429.14922"
     inkscape:cy="473.87402"
     inkscape:document-units="px"
     inkscape:current-layer="layer8"
     showgrid="false"
     inkscape:window-width="3070"
     inkscape:window-height="1752"
     inkscape:window-x="130"
     inkscape:window-y="48"
     inkscape:window-maximized="1"
     borderlayer="true"
     showguides="true"
     inkscape:guide-bbox="true">
    <sodipodi:guide
       position="266.00001,453.00001"
       orientation="0,1"
       id="guide4905" />
  </sodipodi:namedview>
  <metadata
     id="metadata7">
    <rdf:RDF>
      <cc:Work
         rdf:about="">
        <dc:format>image/svg+xml</dc:format>
        <dc:type
           rdf:resource="http://purl.org/dc/dcmitype/StillImage" />
        <dc:title></dc:title>
      </cc:Work>
    </rdf:RDF>
  </metadata>
  <g
     inkscape:groupmode="layer"
     id="layer9"
     inkscape:label="Back plate"
     style="display:none"
     sodipodi:insensitive="true">
    <g
       id="g5247">
      <path
         d="m 749.40986,679.21037 c -3.13125,0 -5.66875,-2.53875 -5.66875,-5.66875 0,-3.13125 2.5375,-5.67 5.66875,-5.67 3.13125,0 5.66875,2.53875 5.66875,5.67 0,3.13 -2.5375,5.66875 -5.66875,5.66875 z m 0,370.27503 c -3.13125,0 -5.66875,-2.5375 -5.66875,-5.6688 0,-3.1312 2.5375,-5.6687 5.66875,-5.6687 3.13125,0 5.66875,2.5375 5.66875,5.6687 0,3.1313 -2.5375,5.6688 -5.66875,5.6688 z m 0,-751.88878 c 3.13125,0 5.66875,2.5375 5.66875,5.66875 0,3.13125 -2.5375,5.67 -5.66875,5.67 -3.13125,0 -5.67,-2.53875 -5.67,-5.67 0,-3.13125 2.53875,-5.66875 5.67,-5.66875 z M 379.13361,1049.4854 c -3.13125,0 -5.66875,-2.5375 -5.66875,-5.6688 0,-3.1312 2.5375,-5.6687 5.66875,-5.6687 3.13125,0 5.67,2.5375 5.67,5.6687 0,3.1313 -2.53875,5.6688 -5.67,5.6688 z M 8.85861,679.21037 c -3.13125,0 -5.67,-2.53875 -5.67,-5.66875 0,-3.13125 2.53875,-5.67 5.67,-5.67 3.13125,0 5.67,2.53875 5.67,5.67 0,3.13 -2.53875,5.66875 -5.67,5.66875 z m 0,370.27503 c -3.13125,0 -5.67,-2.5375 -5.67,-5.6688 0,-3.1312 2.53875,-5.6687 5.67,-5.6687 3.13125,0 5.67,2.5375 5.67,5.6687 0,3.1313 -2.53875,5.6688 -5.67,5.6688 z m 0,-751.88878 c 3.13125,0 5.67,2.5375 5.67,5.66875 0,3.13125 -2.53875,5.67 -5.67,5.67 -3.13125,0 -5.67,-2.53875 -5.67,-5.67 0,-3.13125 2.53875,-5.66875 5.67,-5.66875 z m 742.3225,-3.19 -744.095,0 c -3.8975,0 -7.08625,3.19 -7.08625,7.0875 l 0,744.09378 c 0,3.8975 3.18875,7.0875 7.08625,7.0875 l 744.095,0 c 3.8975,0 7.08625,-3.19 7.08625,-7.0875 l 0,-744.09378 c 0,-3.8975 -3.18875,-7.0875 -7.08625,-7.0875 z"
         style="display:inline;fill:#ff0000;fill-opacity:1;stroke:#231f20;stroke-width:1.25;stroke-linecap:butt;stroke-linejoin:miter;stroke-miterlimit:10;stroke-dasharray:none;stroke-opacity:1"
         id="path4260"
         inkscape:connector-curvature="0"
         transform="translate(0,-294.09449)" />
      <path
         d="m 45.953108,326.29588 -2.8525,0.28875 -2.65875,0.82625 -2.4075,1.30875 -2.09875,1.7325 -1.7325,2.09875 -1.3075,2.40625 -0.8275,2.66 -0.28875,2.8525 0,666.14127 0.28875,2.8525 0.8275,2.6587 1.3075,2.4075 1.7325,2.0988 2.09875,1.7325 2.4075,1.3075 2.65875,0.8275 2.8525,0.2887 666.141252,0 2.8525,-0.2887 2.65875,-0.8275 2.4075,-1.3075 2.09875,-1.7325 1.7325,-2.0988 1.3075,-2.4075 0.8275,-2.6587 0.28875,-2.8525 0,-666.14127 -0.28875,-2.8525 -0.8275,-2.66 -1.3075,-2.40625 -1.7325,-2.09875 -2.09875,-1.7325 -2.4075,-1.30875 -2.65875,-0.82625 -2.8525,-0.28875 -666.141252,0 z m 666.141252,701.57622 -668.312502,-0.11 -2.1075,-0.3225 -2.03625,-0.525 -1.9525,-0.7162 -1.8575,-0.8963 -1.75375,-1.0662 -1.63625,-1.225 -1.51125,-1.3738 -1.3725,-1.51 -1.225,-1.6375 -1.06625,-1.7525 -0.89625,-1.8587 -0.71625,-1.9525 -0.525,-2.035 -0.3225,-2.1088 0,-670.48372 0.3225,-2.10875 0.525,-2.035 0.71625,-1.9525 0.89625,-1.85875 1.06625,-1.7525 1.225,-1.6375 1.3725,-1.51 1.51125,-1.3725 1.63625,-1.225 1.75375,-1.06625 1.8575,-0.89625 1.9525,-0.71625 2.03625,-0.525 2.1075,-0.3225 670.483752,0 2.10875,0.3225 2.035,0.525 1.9525,0.71625 1.85875,0.89625 1.7525,1.06625 1.6375,1.225 1.51125,1.3725 1.3725,1.51 1.225,1.6375 1.06625,1.7525 0.89625,1.85875 0.71625,1.9525 0.525,2.035 0.3225,2.10875 0,670.48372 -0.3225,2.1088 -0.525,2.035 -0.71625,1.9525 -0.89625,1.8587 -1.06625,1.7525 -1.225,1.6375 -1.3725,1.51 -1.51125,1.3738 -1.6375,1.225 -1.7525,1.0662 -1.85875,0.8963 -1.9525,0.7162 -2.035,0.525 -2.10875,0.3225 -2.17125,0.11 z"
         style="display:inline;fill:#ffffff;fill-opacity:1;stroke:none;stroke-width:1;stroke-linecap:butt;stroke-linejoin:miter;stroke-miterlimit:10;stroke-dasharray:none;stroke-opacity:1"
         id="path4388"
         inkscape:connector-curvature="0"
         transform="translate(0,-294.09449)" />
      <path
         d="m 255.10461,414.35725 -1.25375,4.19625 -1.71625,3.68 -2.18,3.16375 -2.6425,2.64875 -3.095,2.07375 -3.3675,1.48 -3.6375,0.88875 -3.91,0.29625 -3.5075,-0.29625 -3.205,-0.71375 -2.90125,-1.13125 -2.5975,-1.55 -2.31875,-1.7575 -1.97875,-1.89 -1.6375,-2.02125 -1.29875,-2.15375 -1.2325,-2.76875 -0.46875,-1.5375 -0.38375,-1.89 -0.6375,-14.85375 0.63875,-14.94125 0.38625,-1.79875 0.475,-1.6175 0.5675,-1.43625 1.955,-3.415 1.63875,-2.0375 1.97875,-1.9175 2.32,-1.79625 2.6,-1.5425 2.9025,-1.115 3.205,-0.6875 3.50875,-0.2575 4.28375,0.375 3.8675,1.04 3.45375,1.7025 3.03875,2.36625 2.56875,2.8825 2.04875,3.20625 1.52625,3.53 1.00625,3.8525 -9.975,0 -0.69375,-1.86625 -0.9275,-1.7225 -1.16125,-1.58 -1.39625,-1.4375 -1.6625,-1.14125 -1.8325,-0.82875 -2.00375,-0.51375 -2.17375,-0.20125 -1.605,0.1175 -1.48625,0.2675 -1.37,0.415 -1.2525,0.565 -1.15625,0.70125 -1.03875,0.785 -0.9225,0.86625 -1.64375,2.05875 -0.685,1.25875 -0.53,1.40625 -0.37625,1.555 -0.51125,4.94375 0,15.8975 0.5125,4.87625 0.37625,1.59375 0.53,1.435 0.685,1.27375 1.64375,2.05875 0.9225,0.85125 1.04,0.75625 2.41,1.29875 1.37,0.455 1.4875,0.2725 1.605,0.09 3.71625,-0.5475 3.21375,-1.64375 2.71375,-2.73875 2.2125,-3.83375 9.965,0 z"
         style="display:inline;fill:#ffffff;fill-opacity:1;stroke:none;stroke-width:1;stroke-linecap:butt;stroke-linejoin:miter;stroke-miterlimit:10;stroke-dasharray:none;stroke-opacity:1"
         id="path4264"
         inkscape:connector-curvature="0"
         transform="translate(0,-294.09449)" />
      <path
         d="m 292.41973,409.32237 -8.98125,-28.03 -0.17,0 -8.98,28.03 18.13125,0 z m 2.68125,8.605 -23.53625,0 -4.7675,14.33 -9.95875,0 22.5575,-64.0725 7.87375,0 22.5575,64.0725 -9.91625,0 -4.81,-14.33 z"
         style="display:inline;fill:#ffffff;fill-opacity:1;stroke:none;stroke-width:1;stroke-linecap:butt;stroke-linejoin:miter;stroke-miterlimit:10;stroke-dasharray:none;stroke-opacity:1"
         id="path4268"
         inkscape:connector-curvature="0"
         transform="translate(0,-294.09449)" />
      <path
         d="m 315.41711,368.18538 9.39625,0 0,41.345 0.26,3.08125 0.69875,2.69125 1.135,2.30125 1.5725,1.91 1.8725,1.57875 2.12375,1.12625 2.37375,0.67625 2.62375,0.22625 2.62875,-0.22625 2.39,-0.67625 2.15,-1.12625 1.91125,-1.57875 1.53375,-1.91 1.10875,-2.30125 0.6825,-2.69125 0.255,-3.08125 0,-41.345 9.39625,0 0,42.36375 -0.46,4.7925 -1.21125,4.27125 -1.96125,3.74875 -2.7125,3.2275 -3.3125,2.6775 -3.72375,1.925 -4.1325,1.1725 -4.5425,0.42125 -4.47125,-0.42 -4.0875,-1.17125 -3.705,-1.92375 -3.32,-2.675 -2.8,-3.22375 -2.0125,-3.74375 -1.22375,-4.26625 -0.43625,-4.7875 0,-42.38875 z"
         style="display:inline;fill:#ffffff;fill-opacity:1;stroke:none;stroke-width:1;stroke-linecap:butt;stroke-linejoin:miter;stroke-miterlimit:10;stroke-dasharray:none;stroke-opacity:1"
         id="path4272"
         inkscape:connector-curvature="0"
         transform="translate(0,-294.09449)" />
      <path
         d="m 383.79611,376.79437 -17.01,0 0,-8.60875 43.4275,0 0,8.60875 -17.02125,0 0,55.46375 -9.39625,0 0,-55.46375 z"
         style="display:inline;fill:#ffffff;fill-opacity:1;stroke:none;stroke-width:1;stroke-linecap:butt;stroke-linejoin:miter;stroke-miterlimit:10;stroke-dasharray:none;stroke-opacity:1"
         id="path4276"
         inkscape:connector-curvature="0"
         transform="translate(0,-294.09449)" />
      <path
         inkscape:connector-curvature="0"
         id="path4278"
         style="display:inline;fill:#ffffff;fill-opacity:1;stroke:none;stroke-width:1;stroke-linecap:butt;stroke-linejoin:miter;stroke-miterlimit:10;stroke-dasharray:none;stroke-opacity:1"
         d="m 418.24886,368.185 9.39625,0 0,64.0725 -9.39625,0 0,-64.0725 z"
         transform="translate(0,-294.09449)" />
      <path
         d="m 448.73873,400.2215 0.17125,7.9375 0.51125,4.8775 0.37625,1.59375 0.53,1.43375 0.685,1.275 1.64375,2.05875 0.9225,0.85 1.03875,0.7575 2.40875,1.29875 1.37,0.45375 1.48625,0.2725 1.605,0.0913 1.6275,-0.0913 1.51625,-0.2725 1.405,-0.45375 1.2925,-0.63625 1.11375,-0.6625 0.99625,-0.7575 0.88,-0.85 1.60625,-2.05875 0.70125,-1.275 0.5575,-1.43375 0.4125,-1.59375 0.47875,-4.8775 0,-15.8975 -0.47875,-4.9425 -0.4125,-1.555 -0.5575,-1.4075 -0.70125,-1.2575 -1.60625,-2.05875 -0.88,-0.8675 -0.99625,-0.78375 -1.11375,-0.7025 -1.2925,-0.56375 -1.405,-0.415 -1.51625,-0.2675 -1.6275,-0.11875 -1.605,0.11875 -1.48625,0.2675 -1.37,0.415 -1.2525,0.56375 -1.15625,0.7025 -1.03875,0.78375 -0.9225,0.8675 -1.64375,2.05875 -0.685,1.2575 -0.53,1.40625 -0.37625,1.555 -0.51125,4.94375 -0.17125,7.96 z m -9.39625,0 0.63875,-14.9725 0.38625,-1.8025 0.475,-1.62125 0.5675,-1.44 1.95375,-3.4075 1.6375,-2.03 1.97875,-1.91 2.31875,-1.79 2.59875,-1.5375 2.9,-1.11125 3.205,-0.68375 3.5075,-0.2575 3.5475,0.25875 3.23875,0.68625 2.93,1.115 2.62125,1.54375 2.27625,1.79625 1.93625,1.9175 1.595,2.0375 1.98125,3.415 0.60375,1.43625 0.48125,1.6175 0.35875,1.79875 0.5525,14.94125 -0.5525,14.85375 -0.36,1.8375 -0.48125,1.645 -0.60375,1.4525 -1.98125,3.415 -1.595,2.02125 -1.93625,1.88875 -2.27625,1.75875 -2.62125,1.54875 -2.93,1.13125 -3.23875,0.715 -3.5475,0.29625 -3.5075,-0.29625 -3.20375,-0.715 -2.90125,-1.13125 -2.5975,-1.54875 -2.31875,-1.75875 -1.97875,-1.88875 -1.6375,-2.02125 -1.29875,-2.15375 -1.2325,-2.76875 -0.46875,-1.5375 -0.3825,-1.89 -0.63875,-14.85375 z"
         style="display:inline;fill:#ffffff;fill-opacity:1;stroke:none;stroke-width:1;stroke-linecap:butt;stroke-linejoin:miter;stroke-miterlimit:10;stroke-dasharray:none;stroke-opacity:1"
         id="path4282"
         inkscape:connector-curvature="0"
         transform="translate(0,-294.09449)" />
      <path
         d="m 496.33998,368.18538 8.85875,0 28.105,45.54875 0.17,0 0,-45.54875 9.3975,0 0,64.0725 -8.90125,0 -28.06375,-45.54875 -0.16875,0 0,45.54875 -9.3975,0 0,-64.0725 z"
         style="display:inline;fill:#ffffff;fill-opacity:1;stroke:none;stroke-width:1;stroke-linecap:butt;stroke-linejoin:miter;stroke-miterlimit:10;stroke-dasharray:none;stroke-opacity:1"
         id="path4286"
         inkscape:connector-curvature="0"
         transform="translate(0,-294.09449)" />
      <path
         d="m 232.67486,467.47487 -15.7675,0 0,17.9325 -6.01875,0 0,-41.03875 6.01875,0 0,17.595 15.7675,0 0,-17.595 6.0175,0 0,41.03875 -6.0175,0 0,-17.9325 z"
         style="display:inline;fill:#ffffff;fill-opacity:1;stroke:none;stroke-width:1;stroke-linecap:butt;stroke-linejoin:miter;stroke-miterlimit:10;stroke-dasharray:none;stroke-opacity:1"
         id="path4290"
         inkscape:connector-curvature="0"
         transform="translate(0,-294.09449)" />
      <path
         d="m 252.90736,464.88825 0.10875,5.08375 0.32875,3.12375 0.24,1.02125 0.34,0.91875 0.43875,0.81625 1.0525,1.31875 0.59125,0.545 0.665,0.485 1.54375,0.83125 0.8775,0.29125 0.9525,0.17375 1.0275,0.0587 1.0425,-0.0587 0.97125,-0.17375 0.89875,-0.29125 0.8275,-0.4075 0.71375,-0.42375 0.63875,-0.485 0.56375,-0.545 1.02875,-1.31875 0.44875,-0.81625 0.35625,-0.91875 0.265,-1.02125 0.3075,-3.12375 0,-10.18125 -0.3075,-3.16625 -0.265,-0.99625 -0.35625,-0.90125 -0.44875,-0.80625 -1.02875,-1.31875 -0.56375,-0.555 -0.63875,-0.5025 -0.71375,-0.45 -0.8275,-0.36125 -0.89875,-0.265 -0.97125,-0.17125 -1.0425,-0.0763 -1.0275,0.0763 -0.9525,0.17125 -0.8775,0.265 -0.8025,0.36125 -0.74125,0.45 -0.665,0.5025 -0.59125,0.555 -1.0525,1.31875 -0.43875,0.80625 -0.34,0.9 -0.24,0.99625 -0.32875,3.1675 -0.10875,5.0975 z m -6.0175,0 0.40875,-9.59 0.24625,-1.155 0.305,-1.0375 0.3625,-0.9225 1.2525,-2.18375 1.04875,-1.3 1.2675,-1.2225 1.485,-1.14625 1.66375,-0.985 1.85875,-0.71125 2.0525,-0.43875 2.24625,-0.165 2.2725,0.16625 2.07375,0.44 1.8775,0.71375 1.67875,0.98875 1.4575,1.15 1.24,1.2275 1.0225,1.30625 1.26875,2.18625 0.38625,0.92 0.3075,1.03625 0.23,1.1525 0.35375,9.57 -0.35375,9.51375 -0.23,1.1775 -0.3075,1.05375 -0.3875,0.93 -1.26875,2.1875 -1.02125,1.295 -1.24,1.21 -1.45875,1.125 -1.67875,0.9925 -1.8775,0.725 -2.07375,0.4575 -2.2725,0.19 -2.24625,-0.19 -2.0525,-0.4575 -1.8575,-0.725 -1.66375,-0.9925 -1.485,-1.125 -1.2675,-1.21 -1.05,-1.295 -0.83,-1.38 -0.79,-1.7725 -0.3,-0.985 -0.245,-1.21125 -0.40875,-9.51375 z"
         style="display:inline;fill:#ffffff;fill-opacity:1;stroke:none;stroke-width:1;stroke-linecap:butt;stroke-linejoin:miter;stroke-miterlimit:10;stroke-dasharray:none;stroke-opacity:1"
         id="path4294"
         inkscape:connector-curvature="0"
         transform="translate(0,-294.09449)" />
      <path
         d="m 289.11036,449.88337 -10.895,0 0,-5.515 27.815,0 0,5.515 -10.9025,0 0,35.52375 -6.0175,0 0,-35.52375 z"
         style="display:inline;fill:#ffffff;fill-opacity:1;stroke:none;stroke-width:1;stroke-linecap:butt;stroke-linejoin:miter;stroke-miterlimit:10;stroke-dasharray:none;stroke-opacity:1"
         id="path4298"
         inkscape:connector-curvature="0"
         transform="translate(0,-294.09449)" />
      <path
         d="m 325.49036,475.46562 2.48625,1.76875 2.71125,1.27125 2.9375,0.77375 3.16125,0.27625 3.3975,-0.4 2.44125,-1.08625 1.4875,-1.7725 0.5325,-2.46 -0.30375,-2.0675 -0.96375,-1.60875 -1.62625,-1.15125 -2.2875,-0.69375 -5.26375,-0.76125 -2.41,-0.5725 -2.1025,-0.8425 -1.7975,-1.115 -1.48875,-1.385 -1.205,-1.64875 -0.86125,-1.8175 -0.51625,-1.985 -0.1725,-2.155 0.21625,-2.56125 0.64875,-2.29875 1.08125,-2.04 1.51375,-1.7775 1.85,-1.43375 2.20125,-1.03125 2.5525,-0.63 2.9025,-0.22875 3.58375,0.3275 3.34125,0.81625 3.10125,1.30375 2.85875,1.79125 -3.35625,5.11 -2.2925,-1.34 -2.40625,-0.97375 -2.5175,-0.60625 -2.63125,-0.24 -1.33375,0.09 -1.2175,0.27 -1.10125,0.44875 -0.985,0.62875 -0.85,0.8375 -0.61625,1.02125 -0.38,1.205 -0.145,1.3875 0.0837,0.86625 0.25,0.82375 0.4175,0.78125 0.585,0.74 0.76875,0.67625 0.97,0.5625 1.17125,0.45125 1.37125,0.33875 7.085,1.20125 2.24875,0.87625 1.8825,1.195 1.51875,1.51625 1.1575,1.715 0.82625,1.84875 0.49625,1.9825 0.165,2.11625 -0.98375,5.1625 -2.6525,3.71125 -4.32125,2.26125 -5.99125,0.81 -4.2575,-0.35 -3.94875,-1.05 -3.63875,-1.75125 -3.32875,-2.45125 3.95,-4.6775 z"
         style="display:inline;fill:#ffffff;fill-opacity:1;stroke:none;stroke-width:1;stroke-linecap:butt;stroke-linejoin:miter;stroke-miterlimit:10;stroke-dasharray:none;stroke-opacity:1"
         id="path4302"
         inkscape:connector-curvature="0"
         transform="translate(0,-294.09449)" />
      <path
         d="m 357.33973,444.36887 6.0175,0 0,26.4825 0.1675,1.97375 0.4475,1.7225 0.72625,1.47375 1.0075,1.22375 1.2,1.01125 1.36,0.72125 1.52,0.43375 1.68125,0.14375 1.68375,-0.14375 1.53,-0.43375 1.3775,-0.72125 1.22375,-1.01125 0.98375,-1.22375 0.70875,-1.47375 0.4375,-1.7225 0.16375,-1.97375 0,-26.4825 6.01875,0 0,27.13375 -0.29625,3.07 -0.775,2.73625 -1.25625,2.40125 -1.73625,2.06625 -2.1225,1.715 -2.385,1.23375 -2.6475,0.75125 -2.90875,0.26875 -2.86375,-0.26875 -2.61875,-0.75 -2.3725,-1.2325 -2.1275,-1.7125 -1.7925,-2.065 -1.28875,-2.39875 -0.785,-2.7325 -0.27875,-3.06625 0,-27.15 z"
         style="display:inline;fill:#ffffff;fill-opacity:1;stroke:none;stroke-width:1;stroke-linecap:butt;stroke-linejoin:miter;stroke-miterlimit:10;stroke-dasharray:none;stroke-opacity:1"
         id="path4306"
         inkscape:connector-curvature="0"
         transform="translate(0,-294.09449)" />
      <path
         d="m 400.39886,462.35775 9.12875,0 1.58875,-0.1475 1.3775,-0.38875 1.165,-0.6275 0.9525,-0.8675 0.73,-0.97125 0.52125,-1.07625 0.3125,-1.18125 0.10375,-1.2875 -0.145,-1.4975 -0.38125,-1.275 -0.61625,-1.05375 -0.8525,-0.83 -0.85,-0.55625 -1.0225,-0.3975 -1.1925,-0.2375 -10.82,-0.0788 0,12.47375 z m -6.0175,-17.98875 15.53,0 2.37,0.16875 2.14125,0.50625 1.9125,0.845 1.68375,1.1825 1.6625,1.6975 1.21125,2.025 0.76,2.35125 0.3075,2.67875 -0.52125,3.84625 -1.4525,3.1775 -2.385,2.50875 -3.3175,1.84 9.2,18.21125 -7.15,0 -8.2275,-17.53875 -7.7075,0 0,17.53875 -6.0175,0 0,-41.03875 z"
         style="display:inline;fill:#ffffff;fill-opacity:1;stroke:none;stroke-width:1;stroke-linecap:butt;stroke-linejoin:miter;stroke-miterlimit:10;stroke-dasharray:none;stroke-opacity:1"
         id="path4310"
         inkscape:connector-curvature="0"
         transform="translate(0,-294.09449)" />
      <path
         d="m 429.53698,444.36887 25.3925,0 0,5.8525 -19.375,0 0,12.13625 16.54,0 0,5.51125 -16.54,0 0,17.53875 -6.0175,0 0,-41.03875 z"
         style="display:inline;fill:#ffffff;fill-opacity:1;stroke:none;stroke-width:1;stroke-linecap:butt;stroke-linejoin:miter;stroke-miterlimit:10;stroke-dasharray:none;stroke-opacity:1"
         id="path4314"
         inkscape:connector-curvature="0"
         transform="translate(0,-294.09449)" />
      <path
         d="m 475.97011,470.71712 -5.7525,-17.95375 -0.1075,0 -5.7525,17.95375 11.6125,0 z m 1.7175,5.5125 -15.07625,0 -3.0525,9.1775 -6.37875,0 14.44875,-41.03875 5.0425,0 14.44875,41.03875 -6.35125,0 -3.08125,-9.1775 z"
         style="display:inline;fill:#ffffff;fill-opacity:1;stroke:none;stroke-width:1;stroke-linecap:butt;stroke-linejoin:miter;stroke-miterlimit:10;stroke-dasharray:none;stroke-opacity:1"
         id="path4318"
         inkscape:connector-curvature="0"
         transform="translate(0,-294.09449)" />
      <path
         d="m 518.24436,473.94225 -0.8025,2.6875 -1.1,2.3575 -1.39625,2.02625 -1.6925,1.6975 -1.9825,1.3275 -2.15625,0.94875 -2.33,0.56875 -2.50375,0.18875 -2.2475,-0.19 -2.0525,-0.45625 -1.8575,-0.725 -1.665,-0.9925 -1.485,-1.125 -1.26625,-1.21125 -1.05,-1.29375 -0.83125,-1.38 -0.79,-1.7725 -0.3,-0.98625 -0.245,-1.21 -0.40875,-9.51375 0.40875,-9.57 0.24625,-1.1525 0.305,-1.03625 0.36375,-0.92 1.25125,-2.18625 1.05,-1.30625 1.26875,-1.2275 1.485,-1.15125 1.665,-0.9875 1.85875,-0.715 2.05375,-0.43875 2.2475,-0.16625 2.74375,0.24125 2.4775,0.66625 2.21125,1.09 1.94625,1.51625 1.64625,1.84625 1.31125,2.0525 0.97875,2.26125 0.64375,2.4675 -6.38875,0 -0.445,-1.195 -0.59375,-1.10375 -0.74375,-1.01125 -0.89375,-0.92125 -1.065,-0.73125 -1.17375,-0.53 -1.28375,-0.33 -1.3925,-0.12875 -1.0275,0.0763 -0.9525,0.17 -0.8775,0.26625 -0.80125,0.36125 -0.74125,0.45 -0.665,0.5025 -0.59125,0.555 -1.0525,1.31875 -0.43875,0.80625 -0.34,0.90125 -0.24,0.99625 -0.32875,3.165 0,10.1825 0.32875,3.12375 0.24,1.02125 0.34,0.91875 0.43875,0.81625 1.05375,1.31875 0.59125,0.545 0.66625,0.48375 1.5425,0.8325 0.8775,0.29125 0.9525,0.17375 1.0275,0.0587 2.38,-0.35125 2.06,-1.0525 1.73875,-1.75375 1.4175,-2.45625 6.38125,0 z"
         style="display:inline;fill:#ffffff;fill-opacity:1;stroke:none;stroke-width:1;stroke-linecap:butt;stroke-linejoin:miter;stroke-miterlimit:10;stroke-dasharray:none;stroke-opacity:1"
         id="path4322"
         inkscape:connector-curvature="0"
         transform="translate(0,-294.09449)" />
      <path
         d="m 523.49211,444.36887 25.3925,0 0,5.8525 -19.375,0 0,11.7425 16.54,0 0,5.51125 -16.54,0 0,12.08 19.375,0 0,5.8525 -25.3925,0 0,-41.03875 z"
         style="display:inline;fill:#ffffff;fill-opacity:1;stroke:none;stroke-width:1;stroke-linecap:butt;stroke-linejoin:miter;stroke-miterlimit:10;stroke-dasharray:none;stroke-opacity:1"
         id="path4326"
         inkscape:connector-curvature="0"
         transform="translate(0,-294.09449)" />
      <path
         d="m 216.20386,973.63512 6.71125,0 2.20125,-0.20875 1.8775,-0.625 1.55375,-1.0425 1.23,-1.45875 0.4275,-0.65875 0.34125,-0.74 0.25625,-0.8225 0.16875,-0.905 0,-14.13125 -0.20375,-1.025 -0.31,-0.925 -0.41375,-0.82125 -0.52,-0.72125 -1.29,-1.4525 -1.5325,-1.0225 -1.7725,-0.5925 -2.01375,-0.16375 -6.71125,0 0,27.31625 z m -5.60375,-32.765 12.95125,0 3.52375,0.4225 3.05375,1.21625 2.58375,2.0075 2.11375,2.80125 0.61125,1.08875 0.48625,1.11375 0.3625,1.14 0.24,1.16625 0.17125,13.38 -0.32375,3.3675 -0.25375,1.16625 -0.35625,1.03625 -1.04125,1.965 -0.89125,1.29125 -1.05125,1.1725 -1.20875,1.055 -1.36875,0.9375 -1.515,0.825 -1.6775,0.59 -1.84,0.35375 -14.57,0.1175 0,-38.21375 z"
         style="display:inline;fill:#ffffff;fill-opacity:1;stroke:none;stroke-width:1;stroke-linecap:butt;stroke-linejoin:miter;stroke-miterlimit:10;stroke-dasharray:none;stroke-opacity:1"
         id="path4330"
         inkscape:connector-curvature="0"
         transform="translate(0,-294.09449)" />
      <path
         d="m 248.75698,959.97787 0.10125,4.73375 0.305,2.90875 0.225,0.95125 0.31625,0.855 0.40875,0.76 0.98,1.2275 0.55,0.5075 0.62,0.45125 1.43625,0.775 0.8175,0.27125 0.88625,0.1625 0.9575,0.0537 0.97125,-0.0537 0.90375,-0.1625 0.8375,-0.27125 0.77125,-0.38 0.66375,-0.395 0.595,-0.45125 0.52375,-0.5075 0.95875,-1.2275 0.4175,-0.76 0.3325,-0.855 0.24625,-0.95125 0.28625,-2.90875 0,-9.48125 -0.28625,-2.94875 -0.24625,-0.9275 -0.3325,-0.83875 -0.4175,-0.75 -0.95875,-1.22875 -0.52375,-0.51625 -0.595,-0.46875 -0.66375,-0.4175 -0.77125,-0.3375 -0.8375,-0.2475 -0.90375,-0.15875 -0.97125,-0.0712 -0.9575,0.0712 -0.88625,0.15875 -0.8175,0.2475 -0.7475,0.3375 -0.68875,0.4175 -0.62,0.46875 -0.55,0.51625 -0.98,1.22875 -0.40875,0.75 -0.31625,0.83875 -0.225,0.9275 -0.305,2.94875 -0.10125,4.7475 z m -5.60375,0 0.38,-8.93125 0.23,-1.07375 0.28375,-0.9675 0.3375,-0.85875 1.16625,-2.0325 0.9775,-1.21125 1.18,-1.13875 1.3825,-1.0675 1.55,-0.9175 1.73,-0.6625 1.91125,-0.4075 2.09125,-0.15375 2.11625,0.15375 1.93125,0.41 1.7475,0.665 1.56375,0.92125 1.3575,1.07125 1.155,1.1425 0.95125,1.21625 1.18125,2.03625 0.36,0.85625 0.2875,0.965 0.21375,1.0725 0.33,8.9125 -0.33,8.85875 -0.215,1.09625 -0.28625,0.98125 -0.36,0.86625 -1.18125,2.03625 -0.9525,1.205 -1.15375,1.1275 -1.35875,1.0475 -1.5625,0.925 -1.7475,0.675 -1.9325,0.42625 -2.115,0.17625 -2.0925,-0.17625 -1.91,-0.42625 -1.73,-0.675 -1.55,-0.925 -1.38375,-1.0475 -1.18,-1.1275 -0.97625,-1.205 -0.77375,-1.285 -0.735,-1.65 -0.28,-0.9175 -0.22875,-1.1275 -0.38,-8.85875 z"
         style="display:inline;fill:#ffffff;fill-opacity:1;stroke:none;stroke-width:1;stroke-linecap:butt;stroke-linejoin:miter;stroke-miterlimit:10;stroke-dasharray:none;stroke-opacity:1"
         id="path4334"
         inkscape:connector-curvature="0"
         transform="translate(0,-294.09449)" />
      <path
         d="m 290.01736,940.87025 5.2825,0 16.76375,27.16625 0.10125,0 0,-27.16625 5.60375,0 0,38.21375 -5.3075,0 -16.73875,-27.16625 -0.10125,0 0,27.16625 -5.60375,0 0,-38.21375 z"
         style="display:inline;fill:#ffffff;fill-opacity:1;stroke:none;stroke-width:1;stroke-linecap:butt;stroke-linejoin:miter;stroke-miterlimit:10;stroke-dasharray:none;stroke-opacity:1"
         id="path4338"
         inkscape:connector-curvature="0"
         transform="translate(0,-294.09449)" />
      <path
         d="m 331.08373,959.97787 0.10125,4.73375 0.305,2.90875 0.225,0.95125 0.31625,0.855 0.40875,0.76 0.98,1.2275 0.55,0.5075 0.62,0.45125 1.43625,0.775 0.8175,0.27125 0.88625,0.1625 0.9575,0.0537 0.97125,-0.0537 0.90375,-0.1625 0.8375,-0.27125 0.77125,-0.38 0.66375,-0.395 0.595,-0.45125 0.52375,-0.5075 0.95875,-1.2275 0.41875,-0.76 0.33125,-0.855 0.2475,-0.95125 0.285,-2.90875 0,-9.48125 -0.285,-2.94875 -0.2475,-0.9275 -0.33125,-0.83875 -0.41875,-0.75 -0.95875,-1.22875 -0.52375,-0.51625 -0.595,-0.46875 -0.66375,-0.4175 -0.77125,-0.3375 -0.8375,-0.2475 -0.90375,-0.15875 -0.97125,-0.0712 -0.9575,0.0712 -0.88625,0.15875 -0.8175,0.2475 -0.7475,0.3375 -0.68875,0.4175 -0.62,0.46875 -0.55,0.51625 -0.98,1.22875 -0.40875,0.75 -0.31625,0.83875 -0.225,0.9275 -0.305,2.94875 -0.10125,4.7475 z m -5.60375,0 0.38,-8.93125 0.23,-1.07375 0.28375,-0.9675 0.3375,-0.85875 1.16625,-2.0325 0.9775,-1.21125 1.18,-1.13875 1.3825,-1.0675 1.55,-0.9175 1.73,-0.6625 1.91125,-0.4075 2.09125,-0.15375 2.11625,0.15375 1.93125,0.41 1.7475,0.665 1.56375,0.92125 1.3575,1.07125 1.155,1.1425 0.95125,1.21625 1.1825,2.03625 0.35875,0.85625 0.2875,0.965 0.21375,1.0725 0.33,8.9125 -0.33,8.85875 -0.21375,1.09625 -0.2875,0.98125 -0.36,0.86625 -1.18125,2.03625 -0.95125,1.205 -1.155,1.1275 -1.3575,1.0475 -1.56375,0.925 -1.7475,0.675 -1.9325,0.42625 -2.115,0.17625 -2.0925,-0.17625 -1.91,-0.42625 -1.73,-0.675 -1.55,-0.925 -1.38375,-1.0475 -1.18,-1.1275 -0.97625,-1.205 -0.77375,-1.285 -0.735,-1.65 -0.28,-0.9175 -0.22875,-1.1275 -0.38,-8.85875 z"
         style="display:inline;fill:#ffffff;fill-opacity:1;stroke:none;stroke-width:1;stroke-linecap:butt;stroke-linejoin:miter;stroke-miterlimit:10;stroke-dasharray:none;stroke-opacity:1"
         id="path4342"
         inkscape:connector-curvature="0"
         transform="translate(0,-294.09449)" />
      <path
         d="m 364.79398,946.0045 -10.14375,0 0,-5.13375 25.89875,0 0,5.13375 -10.15125,0 0,33.08 -5.60375,0 0,-33.08 z"
         style="display:inline;fill:#ffffff;fill-opacity:1;stroke:none;stroke-width:1;stroke-linecap:butt;stroke-linejoin:miter;stroke-miterlimit:10;stroke-dasharray:none;stroke-opacity:1"
         id="path4346"
         inkscape:connector-curvature="0"
         transform="translate(0,-294.09449)" />
      <path
         d="m 404.50161,946.0045 -10.14375,0 0,-5.13375 25.89875,0 0,5.13375 -10.15125,0 0,33.08 -5.60375,0 0,-33.08 z"
         style="display:inline;fill:#ffffff;fill-opacity:1;stroke:none;stroke-width:1;stroke-linecap:butt;stroke-linejoin:miter;stroke-miterlimit:10;stroke-dasharray:none;stroke-opacity:1"
         id="path4350"
         inkscape:connector-curvature="0"
         transform="translate(0,-294.09449)" />
      <path
         d="m 428.42748,959.97787 0.1025,4.73375 0.305,2.90875 0.22375,0.95125 0.31625,0.855 0.40875,0.76 0.98,1.2275 0.55,0.5075 0.62,0.45125 1.4375,0.775 0.81625,0.27125 0.8875,0.1625 0.95625,0.0537 0.97125,-0.0537 0.90375,-0.1625 0.8375,-0.27125 0.77125,-0.38 0.665,-0.395 0.59375,-0.45125 0.525,-0.5075 0.95875,-1.2275 0.4175,-0.76 0.3325,-0.855 0.24625,-0.95125 0.28625,-2.90875 0,-9.48125 -0.28625,-2.94875 -0.24625,-0.9275 -0.3325,-0.83875 -0.4175,-0.75 -0.95875,-1.22875 -0.525,-0.51625 -0.59375,-0.46875 -0.665,-0.4175 -0.77125,-0.3375 -0.8375,-0.2475 -0.90375,-0.15875 -0.97125,-0.0712 -0.95625,0.0712 -0.8875,0.15875 -0.81625,0.2475 -0.7475,0.3375 -0.69,0.4175 -0.62,0.46875 -0.55,0.51625 -0.98,1.22875 -0.40875,0.75 -0.31625,0.83875 -0.22375,0.9275 -0.305,2.94875 -0.1025,4.7475 z m -5.6025,0 0.37875,-8.93125 0.23,-1.07375 0.285,-0.9675 0.3375,-0.85875 1.16625,-2.0325 0.97625,-1.21125 1.18,-1.13875 1.38375,-1.0675 1.54875,-0.9175 1.73,-0.6625 1.91125,-0.4075 2.0925,-0.15375 2.115,0.15375 1.9325,0.41 1.7475,0.665 1.5625,0.92125 1.35875,1.07125 1.15375,1.1425 0.9525,1.21625 1.18125,2.03625 0.36,0.85625 0.2875,0.965 0.21375,1.0725 0.32875,8.9125 -0.32875,8.85875 -0.215,1.09625 -0.2875,0.98125 -0.35875,0.86625 -1.1825,2.03625 -0.95125,1.205 -1.155,1.1275 -1.3575,1.0475 -1.56375,0.925 -1.7475,0.675 -1.93125,0.42625 -2.115,0.17625 -2.0925,-0.17625 -1.91125,-0.42625 -1.73,-0.675 -1.54875,-0.925 -1.38375,-1.0475 -1.18,-1.1275 -0.9775,-1.205 -0.77375,-1.285 -0.735,-1.65 -0.28,-0.9175 -0.22875,-1.1275 -0.37875,-8.85875 z"
         style="display:inline;fill:#ffffff;fill-opacity:1;stroke:none;stroke-width:1;stroke-linecap:butt;stroke-linejoin:miter;stroke-miterlimit:10;stroke-dasharray:none;stroke-opacity:1"
         id="path4354"
         inkscape:connector-curvature="0"
         transform="translate(0,-294.09449)" />
      <path
         d="m 456.13611,940.87025 5.60375,0 0,24.66 0.15625,1.8375 0.41625,1.605 0.67625,1.3725 0.9375,1.13875 1.1175,0.94125 1.26625,0.6725 1.41625,0.4025 1.565,0.135 1.56875,-0.135 1.425,-0.4025 1.2825,-0.6725 1.13875,-0.94125 0.915,-1.13875 0.66125,-1.3725 0.4075,-1.605 0.15125,-1.8375 0,-24.66 5.605,0 0,25.26625 -0.275,2.85875 -0.7225,2.5475 -1.17,2.23625 -1.61625,1.92375 -1.97625,1.5975 -2.22,1.14875 -2.465,0.7 -2.71,0.25 -2.66625,-0.25 -2.43875,-0.69875 -2.20875,-1.1475 -1.98125,-1.595 -1.67,-1.9225 -1.2,-2.23375 -0.73,-2.54375 -0.26,-2.855 0,-25.2825 z"
         style="display:inline;fill:#ffffff;fill-opacity:1;stroke:none;stroke-width:1;stroke-linecap:butt;stroke-linejoin:miter;stroke-miterlimit:10;stroke-dasharray:none;stroke-opacity:1"
         id="path4358"
         inkscape:connector-curvature="0"
         transform="translate(0,-294.09449)" />
      <path
         d="m 515.59536,968.40812 -0.7475,2.5025 -1.02375,2.195 -1.3,1.8875 -1.57625,1.58 -1.84625,1.23625 -2.0075,0.88375 -2.17,0.53 -2.33125,0.17625 -2.0925,-0.17625 -1.91125,-0.42625 -1.73125,-0.675 -1.54875,-0.925 -1.38375,-1.0475 -1.18,-1.1275 -0.97625,-1.20625 -0.775,-1.28375 -0.73625,-1.65 -0.27875,-0.9175 -0.22875,-1.1275 -0.37875,-8.85875 0.38,-8.9125 0.23,-1.0725 0.28375,-0.965 0.33875,-0.85625 1.165,-2.03625 0.9775,-1.21625 1.18125,-1.1425 1.3825,-1.07125 1.55125,-0.92125 1.73125,-0.665 1.91125,-0.41 2.09375,-0.15375 2.55375,0.22375 2.3075,0.62 2.05875,1.01625 1.8125,1.41125 1.5325,1.71875 1.2225,1.9125 0.91,2.105 0.6,2.29875 -5.95,0 -0.4125,-1.11375 -0.55375,-1.0275 -0.6925,-0.9425 -0.8325,-0.8575 -0.99125,-0.68 -1.09375,-0.49375 -1.195,-0.3075 -1.29625,-0.12 -0.9575,0.0712 -0.88625,0.15875 -0.8175,0.2475 -0.7475,0.33625 -0.69,0.41875 -0.61875,0.4675 -0.55,0.5175 -0.98,1.22875 -0.40875,0.75 -0.31625,0.83875 -0.22375,0.9275 -0.305,2.94875 0,9.48125 0.305,2.90875 0.22375,0.95 0.31625,0.85625 0.40875,0.76 0.98125,1.2275 0.55,0.5075 0.62,0.45125 1.4375,0.775 0.8175,0.27125 0.8875,0.16125 0.95625,0.055 2.21625,-0.3275 1.9175,-0.98 1.61875,-1.6325 1.31875,-2.2875 5.94375,0 z"
         style="display:inline;fill:#ffffff;fill-opacity:1;stroke:none;stroke-width:1;stroke-linecap:butt;stroke-linejoin:miter;stroke-miterlimit:10;stroke-dasharray:none;stroke-opacity:1"
         id="path4362"
         inkscape:connector-curvature="0"
         transform="translate(0,-294.09449)" />
      <path
         d="m 540.76873,962.38637 -14.6825,0 0,16.6975 -5.60375,0 0,-38.21375 5.60375,0 0,16.385 14.6825,0 0,-16.385 5.60375,0 0,38.21375 -5.60375,0 0,-16.6975 z"
         style="display:inline;fill:#ffffff;fill-opacity:1;stroke:none;stroke-width:1;stroke-linecap:butt;stroke-linejoin:miter;stroke-miterlimit:10;stroke-dasharray:none;stroke-opacity:1"
         id="path4366"
         inkscape:connector-curvature="0"
         transform="translate(0,-294.09449)" />
      <path
         inkscape:connector-curvature="0"
         id="path4368"
         style="display:inline;fill:#ffffff;fill-opacity:1;stroke:none;stroke-width:1;stroke-linecap:butt;stroke-linejoin:miter;stroke-miterlimit:10;stroke-dasharray:none;stroke-opacity:1"
         d="m 467.60636,860.24 -177.165,0 0,-17.71625 177.165,0 0,17.71625 z"
         transform="translate(0,-294.09449)" />
      <path
         d="m 333.20286,812.06537 -14.65875,-9.95 11.18125,-18.4725 3.58125,-7.3925 1.02,-2.73375 0.4075,-1.89875 -0.4075,-1.87625 -2.58,-6.12625 -27.88375,-47.5025 -2.37,-5.615 -1.60375,-5.195 -0.59,-4.5125 0.59,-4.51125 1.60375,-5.195 5.26,-11.3825 11.7925,-19.31875 14.65875,9.95 -11.18125,18.4725 -3.58,7.39375 -1.02125,2.7325 -0.40625,1.9 0.40625,1.8725 2.58,6.1225 27.88375,47.50875 2.37,5.61375 1.60375,5.19625 0.59,4.5125 -0.59,4.51125 -1.60375,5.19625 -5.25875,11.3825 -11.79375,19.3175 z"
         style="display:inline;fill:#ffffff;fill-opacity:1;stroke:none;stroke-width:1;stroke-linecap:butt;stroke-linejoin:miter;stroke-miterlimit:10;stroke-dasharray:none;stroke-opacity:1"
         id="path4372"
         inkscape:connector-curvature="0"
         transform="translate(0,-294.09449)" />
      <path
         d="m 386.35223,812.06537 -14.65875,-9.95 11.18125,-18.4725 3.58,-7.3925 1.02125,-2.73375 0.4075,-1.89875 -0.4075,-1.87625 -2.58,-6.12625 -27.8825,-47.5025 -2.37,-5.615 -1.60375,-5.195 -0.59,-4.5125 0.59,-4.51125 1.60375,-5.195 5.25875,-11.3825 11.7925,-19.31875 14.65875,9.95 -11.18,18.4725 -3.58125,7.39375 -1.02,2.7325 -0.4075,1.9 0.4075,1.8725 2.58,6.1225 27.8825,47.50875 2.37125,5.61375 1.60375,5.19625 0.58875,4.5125 -0.58875,4.51125 -1.60375,5.19625 -5.26,11.3825 -11.79375,19.3175 z"
         style="display:inline;fill:#ffffff;fill-opacity:1;stroke:none;stroke-width:1;stroke-linecap:butt;stroke-linejoin:miter;stroke-miterlimit:10;stroke-dasharray:none;stroke-opacity:1"
         id="path4376"
         inkscape:connector-curvature="0"
         transform="translate(0,-294.09449)" />
      <path
         d="m 439.50286,812.06537 -14.65875,-9.95 11.18,-18.4725 3.58,-7.3925 1.02125,-2.73375 0.4075,-1.89875 -0.40625,-1.87375 -2.58125,-6.1225 -27.88375,-47.50875 -2.37,-5.615 -1.60375,-5.195 -0.59,-4.5125 0.59,-4.51125 1.60375,-5.195 5.26,-11.3825 11.7925,-19.31875 14.65875,9.95 -11.18,18.4725 -3.58125,7.39375 -1.02125,2.7325 -0.40625,1.9 0.40625,1.87625 2.58125,6.125 27.8825,47.5025 2.37125,5.61375 1.60375,5.19625 0.58875,4.5125 -0.58875,4.51125 -1.60375,5.19625 -5.26,11.3825 -11.7925,19.3175 z"
         style="display:inline;fill:#ffffff;fill-opacity:1;stroke:none;stroke-width:1;stroke-linecap:butt;stroke-linejoin:miter;stroke-miterlimit:10;stroke-dasharray:none;stroke-opacity:1"
         id="path4380"
         inkscape:connector-curvature="0"
         transform="translate(0,-294.09449)" />
      <path
         d="m 379.02373,532.484 -2.57625,0.3525 -2.3575,1.02625 -2.0625,1.65375 -1.69375,2.235 -196.585,333.005 -1.4425,3.57125 -0.31625,3.48125 0.54375,3.1825 1.13625,2.6775 1.04,1.52875 1.76875,1.78 2.55625,1.47625 3.40375,0.61625 393.17,0 3.40375,-0.61625 2.5575,-1.47625 1.7675,-1.78 1.04,-1.52875 1.13625,-2.6775 0.54375,-3.1825 -0.31625,-3.48125 -1.4425,-3.57125 -196.585,-333.005 -1.69375,-2.235 -2.0625,-1.65375 -2.3575,-1.02625 -2.57625,-0.3525 z m 196.585,374.3025 -396.86875,-0.2475 -3.57375,-0.73 -3.41375,-1.19125 -3.21875,-1.6325 -2.99125,-2.0525 -2.72875,-2.45375 -2.43,-2.83375 -2.09875,-3.1925 -1.78,-3.665 -1.2625,-3.8225 -0.74625,-3.925 -0.23125,-3.975 0.285,-3.97 0.8,-3.91125 1.31375,-3.8 200.52375,-339.7525 2.43,-2.7625 2.71625,-2.3925 2.96875,-2.0025 3.18875,-1.59125 3.37125,-1.1625 3.5225,-0.71125 3.63875,-0.24125 3.63875,0.24125 3.5225,0.71125 3.3725,1.1625 3.1875,1.59125 2.96875,2.0025 2.7175,2.3925 2.43,2.7625 200.5225,339.7525 1.315,3.8 0.79875,3.9125 0.285,3.97 -0.23125,3.975 -0.74625,3.925 -1.2625,3.82125 -1.78,3.66625 -2.09875,3.1925 -2.43,2.8325 -2.72875,2.45375 -2.99125,2.0525 -3.21875,1.6325 -3.41375,1.19125 -3.57375,0.73 -3.69875,0.2475 z"
         style="display:inline;fill:#ffffff;fill-opacity:1;stroke:none;stroke-width:1;stroke-linecap:butt;stroke-linejoin:miter;stroke-miterlimit:10;stroke-dasharray:none;stroke-opacity:1"
         id="path4384"
         inkscape:connector-curvature="0"
         transform="translate(0,-294.09449)" />
    </g>
  </g>
  <g
     inkscape:groupmode="layer"
     id="layer8"
     inkscape:label="Cut lines"
     style="display:inline">
    <path
       inkscape:connector-curvature="0"
       id="path4260-7"
       style="display:inline;fill:none;fill-opacity:1;stroke:#ffffff;stroke-width:1.25;stroke-linecap:butt;stroke-linejoin:miter;stroke-miterlimit:10;stroke-dasharray:none;stroke-opacity:0.38422391"
       d="m 749.41011,384.80322 c -3.13125,0 -5.66875,-2.53875 -5.66875,-5.66875 0,-3.13125 2.5375,-5.67 5.66875,-5.67 3.13125,0 5.66875,2.53875 5.66875,5.67 0,3.13 -2.5375,5.66875 -5.66875,5.66875 z m 0,370.27503 c -3.13125,0 -5.66875,-2.5375 -5.66875,-5.6688 0,-3.1312 2.5375,-5.6687 5.66875,-5.6687 3.13125,0 5.66875,2.5375 5.66875,5.6687 0,3.1313 -2.5375,5.6688 -5.66875,5.6688 z m 0,-751.8887817 c 3.13125,0 5.66875,2.5375 5.66875,5.66875 0,3.1312497 -2.5375,5.6699997 -5.66875,5.6699997 -3.13125,0 -5.67,-2.53875 -5.67,-5.6699997 0,-3.13125 2.53875,-5.66875 5.67,-5.66875 z M 379.13386,755.07825 c -3.13125,0 -5.66875,-2.5375 -5.66875,-5.6688 0,-3.1312 2.5375,-5.6687 5.66875,-5.6687 3.13125,0 5.67,2.5375 5.67,5.6687 0,3.1313 -2.53875,5.6688 -5.67,5.6688 z M 8.8588583,384.80322 c -3.13125,0 -5.67,-2.53875 -5.67,-5.66875 0,-3.13125 2.53875,-5.67 5.67,-5.67 3.1312497,0 5.6699997,2.53875 5.6699997,5.67 0,3.13 -2.53875,5.66875 -5.6699997,5.66875 z m 0,370.27503 c -3.13125,0 -5.67,-2.5375 -5.67,-5.6688 0,-3.1312 2.53875,-5.6687 5.67,-5.6687 3.1312497,0 5.6699997,2.5375 5.6699997,5.6687 0,3.1313 -2.53875,5.6688 -5.6699997,5.6688 z m 0,-751.8887817 c 3.1312497,0 5.6699997,2.5375 5.6699997,5.66875 0,3.1312497 -2.53875,5.6699997 -5.6699997,5.6699997 -3.13125,0 -5.67,-2.53875 -5.67,-5.6699997 0,-3.13125 2.53875,-5.66875 5.67,-5.66875 z M 751.18136,-5.3173228e-4 l -744.0950017,0 c -3.8975,0 -7.08625003228,3.19000003228 -7.08625003228,7.08750003228 l 0,744.0937817 c 0,3.8975 3.18875003228,7.0875 7.08625003228,7.0875 l 744.0950017,0 c 3.8975,0 7.08625,-3.19 7.08625,-7.0875 l 0,-744.0937817 c 0,-3.8975 -3.18875,-7.08750003228 -7.08625,-7.08750003228 z" />
  </g>
  <g
     inkscape:groupmode="layer"
     id="layer4"
     inkscape:label="Torso color"
     sodipodi:insensitive="true"
     style="display:inline">
    <path
       style="display:inline;fill:#d7ba8e;fill-opacity:0.71372549"
       d="m 347.73289,593.92868 c -1.1641,-3.0336 2.11466,-14.69556 6.56115,-23.33686 4.51729,-8.77887 5.57148,-13.70743 6.28611,-29.38888 0.70118,-15.38578 0.5613,-19.72325 -0.7936,-24.60938 -0.53616,-1.93359 -1.94989,-7.25968 -3.1416,-11.83574 -1.1917,-4.57606 -3.22412,-10.49974 -4.51647,-13.16374 -1.29236,-2.664 -3.08373,-7.38382 -3.98084,-10.48848 -0.89711,-3.10468 -1.84274,-5.64485 -2.1014,-5.64485 -0.25867,0 -2.4936,1.83505 -4.96653,4.0779 -9.97448,9.04652 -20.42681,16.25138 -25.58996,17.63936 -2.1069,0.56638 -4.31191,2.27589 -8.78906,6.814 -3.28711,3.33187 -7.33241,6.99939 -8.98954,8.15004 -3.92624,2.72624 -20.65768,10.34571 -29.06046,13.23407 -3.62914,1.24747 -10.07891,3.71323 -14.33282,5.47945 -6.71439,2.78781 -8.29072,3.77647 -11.95312,7.4968 -2.51901,2.55885 -5.11141,6.12111 -6.4343,8.84147 -4.41153,9.07175 -11.08242,18.20189 -16.76443,22.94476 -6.27179,5.23516 -8.39988,5.68146 -11.34259,2.37877 -1.46432,-1.64345 -2.12458,-1.94074 -3.12326,-1.40625 -1.79962,0.96311 -5.98012,0.83957 -6.80608,-0.20115 -0.38365,-0.4834 -0.90653,-2.0398 -1.16196,-3.45867 -0.3513,-1.95141 -1.05867,-2.93038 -2.90418,-4.01926 -4.21138,-2.48478 -3.60283,-4.05158 5.78392,-14.89123 5.08359,-5.87043 11.46371,-16.11762 11.46378,-18.41209 7e-5,-2.1163 -2.49211,-3.86695 -6.23832,-4.38219 -4.90916,-0.67518 -7.12102,-2.5245 -7.12102,-5.95385 0,-1.50106 0.45556,-3.05344 1.03788,-3.53673 1.17136,-0.97214 5.42932,-0.65498 9.95217,0.74132 2.60656,0.8047 3.26829,0.7399 6.45847,-0.63248 4.52152,-1.9451 9.63212,-1.96708 15.26134,-0.0656 5.99902,2.02636 7.90959,1.34878 18.96983,-6.72769 5.02734,-3.67109 11.67187,-8.48477 14.76562,-10.69704 3.09375,-2.21228 7.4445,-5.52419 9.66832,-7.3598 3.22783,-2.66433 5.42602,-3.76415 10.89883,-5.453 3.77052,-1.16354 8.27916,-3.02497 10.01918,-4.1365 1.74002,-1.11155 7.23578,-5.99728 12.21281,-10.85718 6.68687,-6.52952 10.70452,-9.81607 15.3905,-12.58984 3.48776,-2.06451 6.8512,-4.54284 7.47431,-5.50741 2.23425,-3.45858 10.7168,-11.15401 15.4417,-14.00885 3.30861,-1.99908 6.22217,-3.14739 9.31532,-3.67138 2.4755,-0.41936 5.76653,-1.4647 7.31341,-2.32298 1.54687,-0.85828 4.37635,-2.13926 6.28773,-2.84661 1.91137,-0.70736 4.12622,-1.98771 4.92187,-2.84524 1.41689,-1.52706 1.75763,-1.55591 16.56384,-1.40241 8.31445,0.0862 16.38281,0.47901 17.92968,0.87291 5.63516,1.43495 10.97781,3.87849 14.9365,6.83144 2.22633,1.66071 7.12729,4.48918 10.89102,6.28549 3.86451,1.84441 7.74616,4.25804 8.91775,5.54512 5.52018,6.06427 8.29133,9.57745 9.10606,11.5444 0.49083,1.18497 3.52347,4.38321 6.73922,7.1072 3.39348,2.87456 8.46276,8.28448 12.08125,12.89308 11.06503,14.0927 14.37053,17.02018 21.3339,18.89418 7.29216,1.9625 19.94641,9.48902 30.95524,18.41163 7.87253,6.38065 8.17873,6.55188 11.60156,6.48786 5.14152,-0.0962 16.67225,-2.20752 21.09674,-3.86293 2.11067,-0.7897 4.8719,-1.33623 6.13605,-1.21451 2.02138,0.19464 2.32492,0.4954 2.51792,2.49477 0.23344,2.41839 -0.63706,3.5468 -5.72765,7.4245 -3.57795,2.72546 -3.49388,5.14567 0.3436,9.89198 3.23591,4.00227 8.82756,9.52391 12.43212,12.27648 2.52389,1.92734 2.61177,2.80082 1.0383,10.3211 -0.5874,2.80742 -0.59542,2.81313 -4.44715,3.16406 -3.27274,0.29818 -3.85868,0.5651 -3.85868,1.75781 0,1.78715 -1.98551,2.10218 -6.86489,1.08923 -2.94508,-0.6114 -4.60319,-1.57592 -8.16773,-4.75111 -7.6716,-6.83364 -17.28606,-17.97243 -18.22874,-21.11882 -0.84738,-2.8283 -0.89376,-2.8586 -8.40473,-5.49167 -4.15396,-1.45625 -10.40031,-3.72199 -13.88078,-5.03499 -3.48047,-1.31301 -8.61894,-3.15667 -11.41883,-4.09702 -8.10027,-2.72051 -26.77771,-12.65752 -30.59284,-16.27641 -1.25687,-1.1922 -5.27635,-4.00273 -8.93217,-6.24561 -3.65584,-2.24288 -7.76912,-5.07765 -9.14062,-6.29949 -1.37152,-1.22184 -4.86671,-3.97666 -7.7671,-6.12183 -2.9004,-2.14516 -6.36384,-5.04157 -7.69653,-6.43646 -3.67437,-3.84584 -4.54121,-3.44631 -3.94557,1.81853 0.27098,2.39508 0.94005,5.63824 1.48685,7.20703 1.41265,4.05307 1.28023,4.85246 -1.09475,6.60836 -2.41836,1.78796 -2.70798,3.94532 -0.97862,7.28953 1.04853,2.02765 1.03867,2.45753 -0.13559,5.91217 l -1.26635,3.72553 3.25245,6.88494 c 1.78885,3.78672 3.86987,9.09979 4.62448,11.80682 0.75463,2.70703 2.58198,7.76953 4.0608,11.25 3.25145,7.65243 3.81844,13.76089 2.11065,22.73889 -1.71735,9.02824 -5.60976,15.90824 -12.07781,21.34802 -2.84231,2.39045 -5.32672,4.76032 -5.52092,5.2664 -0.28477,0.74209 -7.57212,0.92013 -37.66284,0.92013 -32.65028,0 -37.36072,-0.1328 -37.7178,-1.06332 z"
       id="path4615"
       inkscape:connector-curvature="0" />
  </g>
  <g
     inkscape:groupmode="layer"
     id="layer3"
     inkscape:label="Body color"
     sodipodi:insensitive="true"
     style="display:inline">
    <path
       style="fill:#000000"
       d=""
       id="path4548"
       inkscape:connector-curvature="0" />
    <path
       style="fill:#000000"
       d=""
       id="path4546"
       inkscape:connector-curvature="0" />
    <path
       inkscape:connector-curvature="0"
       style="display:inline;fill:#d7ba8e;fill-opacity:0.71372549"
       d="m 359.75664,302.57575 c -2.06852,0.0355 -3.44989,0.44014 -6.2666,1.34583 -6.52883,2.0993 -10.246,5.3688 -12.96497,11.40381 -2.53502,5.62673 -2.88223,10.0713 -1.42273,18.22742 1.98117,11.07117 4.7147,17.79436 11.46753,28.2085 3.1097,4.79576 3.27718,5.30208 3.12451,9.45922 -0.16905,4.60345 1.00719,7.88547 4.47583,12.48267 0.87535,1.16016 1.94041,3.41996 2.36646,5.02185 0.81128,3.05027 4.45569,6.95091 8.39905,8.99011 1.53893,0.79581 2.50331,2.16411 3.62109,5.13831 1.35055,3.59357 1.49575,5.16179 1.2843,13.83508 l -0.2384,9.78223 0.32739,0.0747 c -0.30977,0.19362 -0.54763,0.43276 -0.82397,0.73059 -0.79566,0.85753 -3.0105,2.137 -4.92188,2.84437 -1.91137,0.70735 -4.7417,1.98827 -6.28857,2.84655 -1.54688,0.85828 -4.8381,1.90426 -7.3136,2.32361 -3.09315,0.52399 -6.0067,1.67255 -9.31531,3.67163 -4.7249,2.85484 -13.20703,10.55009 -15.44128,14.00867 -0.62311,0.96457 -3.98625,3.44293 -7.474,5.50744 -4.68598,2.77378 -8.70388,6.05972 -15.39075,12.58924 -4.97703,4.8599 -10.47238,9.74624 -12.2124,10.85779 -1.74002,1.11153 -6.24901,2.97281 -10.01953,4.13635 -5.47282,1.68885 -7.67062,2.78818 -10.89844,5.45251 -2.22382,1.83561 -6.57532,5.14746 -9.66907,7.35974 -3.09375,2.21227 -9.73828,7.0263 -14.76562,10.69739 -11.06024,8.07647 -12.96998,8.7544 -18.969,6.72803 -5.62922,-1.90148 -10.74069,-1.87918 -15.2622,0.0659 -3.19018,1.37238 -3.85121,1.43641 -6.45777,0.63171 -4.52285,-1.3963 -8.78115,-1.71372 -9.95251,-0.74158 -0.58232,0.48328 -1.03821,2.03654 -1.03821,3.5376 0,3.42935 2.21218,5.27831 7.12134,5.95349 3.74621,0.51524 6.2381,2.26616 6.23803,4.38245 -6e-5,2.29448 -6.37954,12.54156 -11.46313,18.41199 -9.38675,10.83965 -9.99569,12.40609 -5.7843,14.89087 1.8455,1.08888 2.55239,2.06849 2.90368,4.01989 0.25544,1.41887 0.77872,2.9751 1.16236,3.4585 0.82596,1.04072 5.00641,1.16417 6.80603,0.20105 0.99868,-0.53448 1.65909,-0.2372 3.12341,1.40625 2.94272,3.3027 5.0705,2.85662 11.34229,-2.37854 5.68201,-4.74287 12.3536,-13.87319 16.76513,-22.94495 1.3229,-2.72035 3.91459,-6.28294 6.4336,-8.84179 3.6624,-3.72033 5.23873,-4.70927 11.95312,-7.49708 4.25391,-1.76622 10.70362,-4.2314 14.33277,-5.47888 8.40277,-2.88836 25.13479,-10.50788 29.06103,-13.23413 1.65713,-1.15066 5.70191,-4.8178 8.98901,-8.14966 4.47716,-4.53811 6.68217,-6.24843 8.78907,-6.81481 5.16315,-1.38798 15.61596,-8.59204 25.59045,-17.63855 2.47293,-2.24285 4.70716,-4.07813 4.96582,-4.07813 0.25866,0 1.20457,2.54009 2.10168,5.64477 0.89711,3.10466 2.68909,7.82466 3.98145,10.48865 1.29235,2.66401 3.32478,8.58776 4.51648,13.16382 1.19171,4.57606 2.60483,9.90198 3.14099,11.83557 1.35491,4.88614 1.49549,9.2236 0.79431,24.60938 -0.71463,15.68144 -1.76909,20.60955 -6.28637,29.38843 -4.4465,8.64129 -7.72514,20.30356 -6.56104,23.33715 0.35708,0.93053 5.06689,1.06348 37.71716,1.06348 30.09073,0 37.37856,-0.17856 37.66333,-0.92065 0.1942,-0.50608 2.67833,-2.8753 5.52064,-5.26575 6.46804,-5.43978 10.36102,-12.32039 12.07836,-21.34863 1.70779,-8.978 1.13988,-15.08598 -2.11157,-22.73841 -1.47883,-3.48046 -3.30593,-8.54296 -4.06054,-11.25 -0.75462,-2.70703 -2.83531,-8.02028 -4.62415,-11.80701 l -3.25305,-6.88512 1.26672,-3.72547 c 1.17426,-3.45464 1.18477,-3.88409 0.13623,-5.91174 -1.72935,-3.34421 -1.44057,-5.50147 0.97778,-7.28943 2.37499,-1.7559 2.50799,-2.55631 1.09534,-6.60938 -0.54679,-1.56879 -1.21657,-4.81195 -1.48755,-7.20703 -0.59565,-5.26484 0.27192,-5.66408 3.94629,-1.81823 1.33269,1.39488 4.79553,4.29172 7.69592,6.43689 2.90039,2.14516 6.39582,4.89974 7.76734,6.12158 1.3715,1.22184 5.48478,4.05668 9.14062,6.29956 3.65582,2.24288 7.67502,5.05352 8.93189,6.24573 3.81513,3.61889 22.49336,13.55573 30.59362,16.27624 2.79989,0.94035 7.93763,2.78379 11.4181,4.0968 3.48047,1.313 9.72726,3.57879 13.88122,5.03504 7.51098,2.63307 7.55716,2.66377 8.40454,5.49206 0.94268,3.1464 10.55692,14.28538 18.22852,21.11902 3.56454,3.17519 5.22326,4.13909 8.16834,4.75049 4.87938,1.01295 6.86425,0.6984 6.86425,-1.08875 0,-1.19271 0.58675,-1.45963 3.8595,-1.75781 3.85172,-0.35093 3.85877,-0.35663 4.44617,-3.16406 1.57347,-7.52028 1.48568,-8.39432 -1.03821,-10.32166 -3.60455,-2.75256 -9.19622,-8.27385 -12.43213,-12.27612 -3.83749,-4.7463 -3.92073,-7.16663 -0.34277,-9.89209 5.09058,-3.8777 5.96061,-5.00617 5.72717,-7.42456 -0.193,-1.99937 -0.4967,-2.30035 -2.51807,-2.49499 -1.26416,-0.12172 -4.02519,0.42538 -6.13586,1.21508 -4.42449,1.65541 -15.95553,3.76662 -21.09705,3.8628 -3.42283,0.064 -3.72904,-0.10677 -11.60156,-6.48743 -11.00883,-8.92261 -23.66291,-16.4495 -30.95508,-18.41199 -6.96337,-1.874 -10.26822,-4.80159 -21.33325,-18.89429 -3.61849,-4.60859 -8.68818,-10.01899 -12.08167,-12.89355 -3.21574,-2.72399 -6.24817,-5.92208 -6.73901,-7.10706 -0.81473,-1.96695 -3.5864,-5.48016 -9.10657,-11.54443 -1.17159,-1.28708 -5.05309,-3.70039 -8.9176,-5.5448 -3.76372,-1.79631 -8.66441,-4.62457 -10.89075,-6.28528 -3.17851,-2.37098 -7.25522,-4.40323 -11.6532,-5.85901 0.57549,-0.34674 1.08467,-0.76173 1.48536,-1.24804 4.88012,-5.92307 8.75725,-12.352 9.73828,-16.14771 0.84673,-3.27612 1.69284,-4.69589 4.13086,-6.93237 1.68627,-1.54688 3.5827,-3.66773 4.21435,-4.71314 1.53015,-2.53245 4.8063,-3.1023 9.61853,-1.67322 5.36796,1.59412 10.27648,1.48563 11.20386,-0.24719 0.40032,-0.74801 0.7273,-1.73889 0.7273,-2.20165 0,-0.46277 -2.83602,-3.59494 -6.30286,-6.96094 -6.96172,-6.75921 -8.7872,-9.97054 -9.82178,-17.276 -0.74779,-5.28038 -1.62865,-7.10445 -3.73755,-7.73987 -0.87053,-0.2623 -3.13188,-1.76518 -5.02514,-3.33985 -3.76641,-3.13259 -9.66891,-4.96083 -13.93177,-5.41845 -5.96766,-0.64063 -3.30498,-0.8591 -4.59961,3.7749 -1.57969,5.65433 -5.30939,7.66192 -13.24548,9.86352 -7.83067,2.17236 -7.58923,2.16098 -12.6969,0.59986 -4.55516,-1.39225 -8.34125,-4.53666 -9.09887,-7.5553 -0.61097,-2.43427 0.72702,-7.89603 2.38842,-9.74817 1.75717,-1.9589 8.29342,-6.26895 13.44837,-8.86817 3.85945,-1.946 5.08015,-2.23633 8.29357,-1.96984 3.27663,0.27172 4.03603,0.82421 6.75111,3.24096 7.98376,7.10652 0.9655,5.84797 16.63989,-3.2915 4.81477,-2.80741 4.55185,-5.26272 -0.62073,-7.72559 -1.82543,-0.86915 -2.62688,-1.80971 -3.09375,-3.63317 -0.88145,-3.44276 -1.58373,-4.08497 -5.81177,-5.31409 -3.04398,-0.88491 -3.84802,-1.45601 -4.43847,-3.14978 -0.767,-2.20023 -3.15648,-3.60166 -8.3584,-4.9043 -1.78709,-0.44751 -2.98828,-1.15622 -2.98828,-1.76221 0,-1.30222 -3.52416,-3.07876 -13.08912,-6.59838 -5.98895,-2.20376 -9.47965,-3.01383 -15.83239,-3.67603 -3.43991,-0.35857 -5.46415,-0.55493 -7.073,-0.52735 z"
       id="path4737"
       sodipodi:nodetypes="cssssssssssccsssssssssssssssssssssscsssssssssssssssssssssssssscccsssssssssssssssssssssssssssssssssccsssssssssssssssssssssssssssscc" />
  </g>
  <g
     inkscape:label="Body outline"
     inkscape:groupmode="layer"
     id="layer1"
     transform="translate(0,-294.09449)"
     style="display:inline"
     sodipodi:insensitive="true">
    <path
       style="display:inline;fill:#000000"
       d="m 346.41987,883.48761 c 0.46657,-5.02019 4.30743,-16.12582 6.81009,-19.69102 2.09158,-2.97958 4.23169,-9.90765 4.55318,-14.73974 1.53094,-23.01076 1.80391,-30.944 1.18548,-34.45313 -1.40759,-7.98705 -5.94382,-23.731 -8.20482,-28.47656 -2.68852,-5.64289 -4.60152,-11.04361 -4.60152,-12.99088 0,-2.47224 -1.51564,-2.31097 -4.46012,0.47458 -9.85194,9.32017 -23.14756,18.49286 -26.80498,18.49286 -0.59262,0 -4.63732,3.33862 -8.98823,7.41914 -6.96118,6.52859 -8.83911,7.86916 -15.64511,11.16835 -10.6801,5.17716 -16.3059,7.53194 -25.3125,10.595 -4.2539,1.44671 -10.70994,4.09456 -14.34674,5.88411 -5.63014,2.77039 -7.11127,3.88039 -9.97093,7.47247 -1.8472,2.32031 -4.6722,6.75 -6.27778,9.84375 -3.68103,7.0929 -9.48409,14.73912 -15.02733,19.80025 -6.73809,6.15207 -9.67001,6.86419 -12.41123,3.01452 -1.33043,-1.86844 -1.5106,-1.92116 -3.32692,-0.97364 -4.4224,2.30703 -7.89688,0.36884 -7.89688,-4.40517 0,-1.95186 -0.40267,-2.49563 -2.72578,-3.68078 -1.49918,-0.76483 -2.89426,-1.82964 -3.10017,-2.36625 -0.60199,-1.56875 1.84978,-6.22454 5.00995,-9.51364 4.82521,-5.02207 7.70175,-8.79156 11.38286,-14.91635 4.63163,-7.70632 4.54257,-10.49394 -0.33639,-10.52907 -2.87065,-0.0206 -7.82481,-2.33589 -8.76748,-4.09731 -1.33493,-2.49434 -0.93188,-6.2339 0.80284,-7.44894 2.03655,-1.42646 3.78401,-1.35109 7.22636,0.31169 3.61651,1.7469 6.06799,1.7469 9.49219,0 3.31595,-1.69167 7.44454,-1.77928 12.65625,-0.26859 8.73103,2.53082 10.04783,2.10003 22.85156,-7.4759 4.25391,-3.18149 10.02955,-7.33887 12.83476,-9.23861 2.80521,-1.89973 6.68457,-4.86104 8.6208,-6.58069 4.33038,-3.84599 6.21521,-4.84126 12.4296,-6.56335 7.76124,-2.15075 10.45711,-3.93743 20.21057,-13.39446 10.42552,-10.10867 12.93151,-12.15486 19.44182,-15.87467 2.95791,-1.69008 5.07204,-3.46463 5.85113,-4.91131 1.30396,-2.42131 6.97669,-7.68375 12.72471,-11.80438 4.22144,-3.02626 10.10127,-5.45172 13.20561,-5.44739 1.24252,0.001 4.63217,-1.13591 7.53256,-2.52809 2.90039,-1.39218 6.06445,-2.91113 7.03125,-3.37545 1.54156,-0.74035 1.76631,-1.316 1.82687,-4.67894 0.038,-2.1091 0.29963,-6.68239 0.58145,-10.16286 0.66231,-8.17967 -0.87855,-13.43939 -4.43929,-15.15342 -3.63768,-1.7511 -7.72613,-6.18086 -8.64793,-9.36992 -0.4608,-1.5942 -1.61792,-3.84775 -2.57138,-5.00791 -3.63272,-4.42027 -6.0775,-11.5749 -4.32526,-12.65785 1.4754,-0.91184 -0.0612,-4.4944 -5.79461,-13.50971 -3.92152,-6.16632 -6.76109,-13.49459 -8.32855,-21.49409 -1.7344,-8.85149 -1.70131,-13.24616 0.14079,-18.70092 2.17715,-6.44689 5.06721,-9.84132 10.74748,-12.6231 8.83872,-4.32857 18.65137,-3.86049 33.81824,1.61318 9.51224,3.43293 12.05958,4.70658 13.53129,6.76556 0.48126,0.67331 2.15337,1.44018 3.7158,1.70415 3.2467,0.54852 7.01073,3.37637 7.01073,5.26703 0,0.93457 1.04869,1.60816 3.89998,2.505 4.21728,1.3265 6.64689,3.66558 6.64689,6.39923 0,1.15737 0.56207,1.89409 1.80586,2.36698 3.1551,1.19956 6.82087,4.3521 5.79667,4.98509 -0.56586,0.34972 -1.57439,-0.0479 -2.67354,-1.05408 -0.97071,-0.88861 -2.77032,-2.01139 -3.99913,-2.49509 -1.81454,-0.71427 -2.32012,-1.38807 -2.69168,-3.58729 -0.56247,-3.32928 -1.0717,-3.7627 -6.14833,-5.23315 -3.47714,-1.00715 -4.04297,-1.40779 -4.04297,-2.86275 0,-2.21227 -2.52131,-3.82594 -7.59583,-4.86142 -3.07771,-0.62802 -3.95948,-1.08528 -3.80611,-1.97372 0.25116,-1.45483 -1.52547,-2.37439 -12.24589,-6.33834 -9.97539,-3.68847 -20.53014,-5.34238 -25.71302,-4.02918 -9.6876,2.45458 -13.78518,6.19988 -17.05517,15.58894 -1.42711,4.09763 -1.33279,6.5099 0.63628,16.27331 1.86356,9.24025 4.48494,15.43227 10.7109,25.30046 3.81227,6.04246 3.88649,6.25843 3.42371,9.96236 -0.51444,4.11742 0.47834,6.84832 4.51569,12.42173 1.08441,1.49698 2.16865,3.77186 2.40942,5.0553 0.4805,2.56123 3.60686,5.92999 7.45439,8.03233 4.48443,2.45035 5.27344,5.20634 5.27344,18.41991 0,6.3538 -0.31641,12.15853 -0.70313,12.89939 -0.38686,0.74116 -2.94675,2.2131 -5.69132,3.27251 -2.74351,1.05901 -5.74066,2.45252 -6.66035,3.0967 -0.91969,0.64417 -2.3263,1.17122 -3.1258,1.17122 -3.23181,0 -9.62369,2.21597 -13.47983,4.67327 -4.69939,2.99464 -12.58375,10.30565 -13.94421,12.93017 -0.52485,1.01255 -3.66748,3.40691 -7.27198,5.54053 -4.67035,2.76452 -9.00593,6.30405 -16.40741,13.39485 -10.87779,10.42121 -13.79544,12.58542 -19.20035,14.24222 -1.93359,0.59272 -4.93859,1.50937 -6.6778,2.037 -1.87613,0.56917 -5.16465,2.64046 -8.08594,5.09296 -2.70806,2.2735 -6.82219,5.42413 -9.14251,7.0014 -2.32031,1.57727 -7.69921,5.43727 -11.95312,8.57777 -14.14767,10.44471 -15.13987,10.77343 -24.60938,8.15318 -6.13236,-1.69686 -8.10247,-1.58217 -12.92506,0.7524 -3.27136,1.58364 -4.65322,1.46815 -10.32984,-0.86341 -3.0572,-1.25569 -5.92478,-0.41166 -5.92478,1.74386 0,3.83367 2.02403,5.46792 7.8146,6.30969 2.12206,0.30848 3.81398,1.07801 4.89119,2.22466 1.46597,1.56046 1.55654,1.99246 0.82436,3.93221 -1.75843,4.65861 -6.86966,12.6178 -11.49784,17.90441 -8.78501,10.03479 -9.73732,12.15608 -6.09086,13.56749 1.36813,0.52956 2.18171,0.0474 5.66405,-3.35673 2.23655,-2.18632 5.33564,-6.11086 6.88687,-8.72121 2.55274,-4.29565 4.16388,-5.87197 4.16388,-4.07391 0,1.5295 -4.65656,8.39574 -8.93839,13.17993 -4.53992,5.07256 -4.57806,5.14956 -4.10709,8.29025 0.45982,3.06627 0.55632,3.17013 2.94545,3.17013 2.04332,0 3.19345,-0.69001 6.65737,-3.99402 2.49053,-2.37556 5.3517,-6.10338 7.0608,-9.1995 1.77759,-3.22021 3.12362,-4.95534 3.52934,-4.54962 0.95212,0.95212 -3.21535,8.24075 -7.2628,12.70215 -1.87017,2.06144 -3.40031,3.97932 -3.40031,4.26195 0,0.28263 0.66871,1.23164 1.48601,2.10892 1.12511,1.20767 1.93623,1.48333 3.33984,1.13507 4.94843,-1.22779 16.13265,-14.14423 21.72035,-25.08441 4.49881,-8.80822 8.91252,-13.39823 16.47691,-17.13503 3.43987,-1.69929 10.5917,-4.57695 15.89294,-6.39481 5.30125,-1.81785 13.2307,-4.99238 17.62101,-7.0545 4.39029,-2.06213 8.18717,-3.75068 8.4375,-3.75233 1.35762,-0.009 7.50377,-4.94061 13.52796,-10.85474 4.00739,-3.93418 7.42388,-6.72038 8.24068,-6.72038 3.52913,0 15.18581,-7.728 24.68963,-16.36842 2.88376,-2.62178 6.60571,-5.62764 8.27101,-6.67969 1.66529,-1.05206 2.926,-2.22012 2.80155,-2.5957 -0.12444,-0.37557 -1.53289,-1.32479 -3.12988,-2.10937 -1.59699,-0.78458 -2.91839,-1.82201 -2.93644,-2.30541 -0.0489,-1.30957 0.7641,-1.09073 4.31586,1.16173 4.57896,2.90389 4.76779,3.5159 1.82075,5.90113 l -2.52158,2.04089 1.62779,5.91651 c 0.89529,3.25407 2.27136,7.00726 3.05793,8.3404 1.6852,2.85622 4.08162,10.18654 7.08018,21.65735 2.46039,9.41213 2.67568,14.69674 1.43381,35.19509 -0.78135,12.89698 -1.77903,16.98461 -6.03984,24.74628 -2.85654,5.20359 -5.58061,13.39385 -6.24973,18.79062 -0.74005,5.96887 -2.05253,5.17389 -1.4879,-0.90127 z m 32.17843,2.27463 c -6.6703,-5.6541 -11.34227,-10.24618 -11.34227,-11.14835 0,-1.70358 1.21448,-1.00318 3.9628,2.28537 1.48605,1.77816 3.4963,3.6543 4.46721,4.16919 0.97092,0.5149 3.34734,2.36812 5.28093,4.11828 2.73717,2.47749 3.20424,3.1818 2.10937,3.18067 -0.77343,-5.6e-4 -2.78855,-1.17309 -4.47804,-2.60516 z m 37.87648,1.97989 c 0,-0.77968 3.37154,-1.79809 3.97035,-1.19931 0.21407,0.21409 0.18066,0.7267 -0.0743,1.13912 -0.58189,0.94151 -3.8961,0.9927 -3.8961,0.0602 z m 11.0426,-5.4765 c 5.11809,-4.85412 6.92293,-7.10759 8.62611,-10.77035 2.68108,-5.76576 4.20943,-12.80516 4.22534,-19.4614 0.0109,-4.57157 -0.38564,-6.08765 -3.77032,-14.41407 -2.08039,-5.11784 -3.99361,-10.49408 -4.25162,-11.94722 -0.25799,-1.45313 -1.87813,-5.65763 -3.60028,-9.34332 -3.47456,-7.4361 -3.547,-7.85615 -2.08071,-12.0648 0.89499,-2.56888 0.89837,-3.2141 0.0257,-4.92188 -0.55237,-1.08098 -1.16876,-2.51914 -1.36975,-3.1959 -0.25646,-0.86345 -1.08893,-1.23047 -2.79096,-1.23047 -3.01757,0 -4.64989,-0.59752 -4.64989,-1.70212 0,-0.59781 1.19466,-0.76305 4.04297,-0.55921 3.35909,0.24039 4.37005,0.0312 5.97656,-1.23663 2.1936,-1.73116 2.36464,-2.76957 0.91727,-5.56849 -1.28835,-2.4914 -2.64116,-12.39348 -2.50727,-18.35235 0.11417,-5.08127 1.23661,-7.03432 4.04273,-7.03432 2.06651,0 1.80367,1.65782 -0.31253,1.97124 -1.05558,0.15634 -1.55602,0.90869 -1.87079,2.8125 -0.89134,5.39119 -0.67824,5.8808 4.66513,10.71816 2.79675,2.53191 6.35062,5.53039 7.8975,6.6633 1.54687,1.1329 4.39453,3.36954 6.32812,4.97028 1.93359,1.60076 6.83789,4.9867 10.89844,7.52431 4.06055,2.53761 8.31213,5.58587 9.44796,6.7739 1.13582,1.18803 2.36138,2.16006 2.72345,2.16006 0.36207,0 2.91323,1.36367 5.66923,3.03037 5.27459,3.18983 15.74776,8.35664 18.72356,9.23705 1.59926,0.47314 28.65264,10.07131 33.21791,11.78525 1.40967,0.52923 2.16157,1.50839 2.78676,3.62903 1.24574,4.2255 12.49483,16.91435 20.59519,23.23114 2.20974,1.7232 11.386,4.14541 11.99169,3.16539 0.19296,-0.31221 -1.08949,-1.61242 -2.84989,-2.88935 -10.40974,-7.55089 -12.09492,-9.03448 -12.02521,-10.58662 0.0544,-1.21193 2.81553,-6.79326 4.39411,-8.88236 0.11317,-0.14975 1.08517,0.65288 2.16002,1.78363 2.26286,2.38053 15.20278,11.49647 16.31906,11.49647 0.41383,0 0.75241,-0.29053 0.75241,-0.64562 0,-0.35509 0.193,-1.14857 0.4289,-1.7633 0.29978,-0.78124 -1.31707,-2.75636 -5.37125,-6.56141 -8.08114,-7.58456 -13.3389,-13.92098 -13.3389,-16.07546 0,-1.04047 0.79221,-2.46175 1.93359,-3.46899 5.65818,-4.99321 7.91016,-7.2562 7.91016,-7.94879 0,-0.4233 -0.76093,-1.26822 -1.69095,-1.87759 -1.57904,-1.03463 -1.98624,-0.98324 -6.15234,0.77637 -2.66608,1.12607 -6.30055,2.01516 -9.03171,2.2094 -2.51367,0.17878 -5.90933,0.81215 -7.5459,1.40747 -1.82358,0.66334 -4.28563,0.95652 -6.35936,0.75726 -2.9986,-0.28813 -4.14056,-0.95967 -10.03222,-5.89955 -9.92093,-8.31825 -27.99481,-19.24338 -31.90326,-19.28461 -4.59723,-0.0485 -11.55791,-5.99526 -19.73408,-16.85956 -2.18276,-2.90039 -7.8243,-9.07247 -12.53676,-13.71573 -4.71246,-4.64326 -9.20092,-9.44199 -9.97436,-10.66383 -5.51749,-8.71634 -9.57104,-12.25173 -18.06192,-15.75309 -2.75543,-1.13625 -6.3282,-3.14618 -7.9395,-4.46651 -3.88022,-3.17956 -11.45794,-6.85004 -12.0763,-5.84951 -0.25685,0.41559 -0.66194,1.7088 -0.90021,2.87379 -0.55871,2.73177 -2.15488,3.34616 -2.15488,0.82944 0,-2.29648 0.79739,-3.83213 3.54572,-6.82844 3.20568,-3.49495 8.69671,-11.83626 9.66318,-14.67916 0.46948,-1.38097 0.8536,-3.32946 0.8536,-4.32996 0,-1.3869 0.74137,-2.28814 3.12031,-3.79318 2.6237,-1.65987 5.18587,-4.85511 4.46461,-5.56772 -0.11116,-0.10983 -1.49718,0.0377 -3.08004,0.32783 -1.8332,0.33602 -4.13044,0.18428 -6.32813,-0.41797 -1.8976,-0.52004 -6.61425,-1.53542 -10.48144,-2.2564 -7.00671,-1.30631 -11.81177,-2.93691 -12.64967,-4.29265 -0.63008,-1.01952 1.29039,-0.88147 4.37372,0.31436 1.45802,0.56547 5.49861,1.52647 8.97908,2.13556 3.48046,0.60908 7.69119,1.60342 9.35717,2.20964 2.15873,0.78553 3.97696,0.95225 6.32813,0.58022 1.81449,-0.2871 4.09009,-0.58547 5.05688,-0.66305 0.9668,-0.0776 2.39738,-0.3488 3.17907,-0.60275 0.78168,-0.25394 3.62833,0.16946 6.32588,0.94089 6.0633,1.73395 9.18644,1.80127 10.07297,0.21715 0.98601,-1.7619 -0.22168,-3.71094 -4.23019,-6.8269 -4.29154,-3.33597 -8.62001,-8.68546 -9.71684,-12.00888 l -0.81292,-2.46318 -1.82126,2.16445 c -2.10924,2.50669 -2.00021,2.51278 -12.672,-0.70672 -3.9679,-1.19704 -8.18665,-2.17645 -9.37501,-2.17645 -1.41413,0 -2.06063,-0.30366 -1.87119,-0.8789 0.52012,-1.57934 3.15958,-1.35583 10.87065,0.9205 10.66964,3.14973 11.17416,3.20713 12.15068,1.38249 0.69246,-1.29389 0.42409,-2.36051 -1.74113,-6.91985 -2.84087,-5.98205 -5.26417,-9.46911 -7.68095,-11.05265 -1.93921,-1.27061 -8.85648,-3.13909 -11.62121,-3.13909 -1.77833,0 -3.29514,-1.43327 -2.43116,-2.29726 0.17896,-0.17895 1.81829,-0.0235 3.64297,0.3455 1.82467,0.36898 4.19256,0.79525 5.26197,0.94728 5.07158,0.72097 10.03116,5.37695 14.01334,13.15555 2.66796,5.21149 3.49338,5.11066 1.6204,-0.19794 -1.25576,-3.5592 -1.25185,-3.51563 -0.31568,-3.51563 1.06914,0 2.78647,4.49791 3.56642,9.34095 0.9076,5.63565 2.75844,9.01517 7.11555,12.99254 6.50263,5.93589 8.26672,7.9729 8.25576,9.53298 -0.029,4.11903 -4.07191,5.19951 -11.69838,3.12641 -4.98672,-1.35555 -5.43993,-1.37263 -7.70894,-0.29062 -1.32591,0.63228 -2.70722,1.92939 -3.06957,2.88245 -0.36236,0.95308 -1.86372,2.53022 -3.33637,3.50477 -2.27431,1.50507 -2.81835,2.37752 -3.61246,5.79318 -0.92601,3.98302 -4.32314,9.73942 -8.66815,14.68812 -1.18835,1.35346 -2.03943,2.56943 -1.89129,2.70216 0.14815,0.13274 2.02139,1.06246 4.16275,2.06606 2.14137,1.0036 5.18437,2.92976 6.76223,4.28035 1.57787,1.35059 4.61807,3.11009 6.75602,3.91 5.62173,2.10336 11.69942,6.27215 14.93211,10.24217 1.54687,1.8997 3.35308,3.99833 4.01379,4.66363 0.66072,0.66529 1.8283,2.40929 2.59465,3.87553 0.76634,1.46624 4.54422,5.58513 8.39528,9.15311 3.85106,3.56797 9.13804,9.26328 11.74885,12.65625 7.97554,10.36491 12.48555,14.58549 17.08072,15.98457 9.72752,2.96174 24.10296,11.43174 35.17094,20.72269 7.02223,5.89477 8.82322,6.41676 14.9734,4.33981 2.40974,-0.81378 5.98106,-1.48711 7.93624,-1.49629 2.1402,-0.0101 5.23374,-0.70829 7.77363,-1.75455 5.28416,-2.17676 6.72754,-2.18097 8.75249,-0.0255 2.6742,2.84656 0.80441,6.4292 -5.37635,10.30141 -3.75866,2.35478 -3.61105,3.54441 1.16505,9.38937 2.35573,2.88293 6.67394,7.38994 9.59603,10.01559 5.10095,4.58343 5.29529,4.8723 4.87168,7.24073 -0.24267,1.35675 -0.61712,3.81773 -0.83211,5.46885 -0.47904,3.67902 -2.00747,4.68215 -6.08453,3.99334 -2.64329,-0.44659 -2.82983,-0.38504 -1.97064,0.65021 0.79143,0.95363 0.79331,1.3311 0.0113,2.27338 -1.06581,1.28424 -4.1998,1.05499 -10.19605,-0.74582 -3.05694,-0.91806 -4.87115,-2.35039 -12.44192,-9.82293 -9.69817,-9.57233 -13.15897,-13.84465 -13.15897,-16.24458 0,-1.77911 -0.97625,-2.74604 -3.51562,-3.48202 -7.50092,-2.17395 -37.3882,-13.53294 -42.1875,-16.0338 -11.72221,-6.10834 -15.83688,-8.5322 -17.01645,-10.02403 -0.65788,-0.83203 -4.47802,-3.5852 -8.48917,-6.11814 -6.86168,-4.33296 -18.4671,-13.07806 -26.01466,-19.60294 l -3.3562,-2.90145 0.46063,4.12995 c 0.25334,2.27148 0.89352,5.19692 1.42261,6.50098 1.54887,3.81752 1.23162,5.88367 -1.14739,7.47273 -2.41626,1.61394 -2.67307,3.47415 -0.90492,6.55497 1.13729,1.98161 1.13717,2.31201 -0.002,5.92572 l -1.20639,3.8271 3.43718,7.31485 c 1.89046,4.02317 3.65577,8.63823 3.92292,10.25568 0.26716,1.61747 2.04233,6.61389 3.94483,11.10317 1.9025,4.48928 3.64636,9.81044 3.87524,11.8248 0.65927,5.80212 -1.30718,15.87315 -4.37645,22.41365 -2.25871,4.81323 -3.55585,6.49084 -8.66178,11.20241 -3.30289,3.04779 -6.47986,5.53804 -7.05994,5.53393 -0.58007,-0.006 1.85785,-2.76978 5.4176,-6.14594 z M 570.81072,852.9324 c 0,-0.99192 -2.54927,-3.18465 -8.77782,-7.55017 l -8.77781,-6.15228 -1.76906,2.26045 c -0.97298,1.24324 -1.76906,2.58417 -1.76906,2.97985 0,1.18975 11.38159,9.38445 13.50078,9.72051 1.08239,0.17165 3.23359,0.27326 4.78047,0.22581 2.30921,-0.0708 2.8125,-0.33643 2.8125,-1.48417 z m -157.7549,3.33632 c -0.89667,-1.67545 0.0963,-3.33933 1.6395,-2.74716 0.71673,0.27503 1.08718,1.04762 0.94988,1.98098 -0.29499,2.00514 -1.70329,2.42185 -2.58938,0.76618 z M 213.7769,843.37527 c -1.44522,-1.19126 -2.44483,-2.4618 -2.22134,-2.82341 0.50996,-0.82514 5.89945,2.91708 5.91983,4.11046 0.0233,1.36469 -0.8503,1.06068 -3.69849,-1.28705 z m 6.77712,-7.33445 c -0.84227,-2.19493 2.48115,-9.79858 3.73483,-8.5449 0.26666,0.26665 -0.0465,1.59902 -0.69586,2.9608 -0.64939,1.36178 -1.18071,3.23757 -1.18071,4.16843 0,2.05834 -1.24707,3.00839 -1.85826,1.41567 z m 321.69316,-5.21248 c -0.41454,-1.18916 -1.03916,-2.16212 -1.38806,-2.16212 -0.34888,0 -0.63434,-0.4746 -0.63434,-1.05468 0,-2.29131 2.90283,-0.0612 3.81263,2.9291 0.7403,2.43323 -0.94772,2.7045 -1.79023,0.2877 z M 368.13494,809.79471 c -3.11597,-1.17222 -4.37504,-3.44365 -1.40625,-2.53695 3.53762,1.08042 6.15234,2.39423 6.15234,3.09133 0,0.95419 -1.0675,0.8295 -4.74609,-0.55438 z m 30.45756,0.66697 c -1.21887,-1.97218 10.37326,-6.52372 15.0257,-5.89969 4.224,0.56656 3.80655,1.97915 -0.48225,1.63188 -2.1996,-0.17811 -9.21776,1.92946 -11.89846,3.57311 -1.284,0.78728 -2.4057,1.08189 -2.64499,0.6947 z m -27.64506,-5.86678 c -4.72119,-1.95837 -6.44004,-3.35055 -4.13673,-3.35055 1.1457,0 8.15836,2.7757 9.41017,3.72466 0.96006,0.7278 1.19579,1.94839 0.35156,1.82038 -0.29004,-0.0439 -2.82129,-1.0315 -5.625,-2.19449 z m -1.23047,-7.53088 c -2.48382,-1.01661 -3.68087,-3.07536 -5.17447,-8.89934 -0.80354,-3.13327 -1.77526,-6.52343 -2.15936,-7.5337 -0.69881,-1.83799 0.11784,-3.32324 1.02244,-1.85955 0.80948,1.30976 3.85045,11.36112 3.85045,12.72694 0,0.71966 0.67124,1.97972 1.49165,2.80012 1.56953,1.56954 3.66534,1.59413 16.26226,0.19085 3.54577,-0.39499 4.04297,-0.29988 4.04297,0.77338 0,0.8801 -0.39735,1.11986 -1.41495,0.85374 -0.77822,-0.2035 -3.54666,0.076 -6.15208,0.62112 -5.21361,1.09083 -9.60379,1.21261 -11.76891,0.32644 z m 1.75781,-5.31186 c 0,-0.58008 0.31641,-1.05469 0.70313,-1.05469 0.38672,0 0.70312,0.47461 0.70312,1.05469 0,0.58008 -0.3164,1.05469 -0.70312,1.05469 -0.38672,0 -0.70313,-0.47461 -0.70313,-1.05469 z m 80.07128,-4.04688 c -2.56042,-2.02812 -5.56627,-4.36259 -6.67969,-5.18771 -2.21003,-1.63777 -1.95871,-2.94574 0.33058,-1.72055 2.50929,1.34292 12.05908,9.18998 12.05908,9.90892 0,1.25618 -0.99802,0.73171 -5.70997,-3.00066 z m -27.59039,2.50433 c -0.79185,-0.79185 -0.48227,-1.62151 0.60505,-1.62151 0.58008,0 1.05469,0.29773 1.05469,0.66163 0,0.88662 -1.09799,1.52163 -1.65974,0.95988 z m -105.91839,-9.54516 c 0,-0.4908 1.97754,-1.95933 4.39453,-3.26338 2.417,-1.30405 5.41812,-3.333 6.66916,-4.50877 1.25104,-1.17577 2.49548,-1.91691 2.76541,-1.64698 1.06074,1.06074 -2.61243,4.47983 -7.86747,7.32325 -6.26831,3.39168 -5.96163,3.28387 -5.96163,2.09588 z m 83.3191,-2.0213 c -0.67493,-1.75883 -0.0514,-16.76652 0.70434,-16.95241 0.95186,-0.23414 1.33365,16.35277 0.39794,17.28848 -0.46911,0.46912 -0.83626,0.35719 -1.10228,-0.33607 z m -7.3816,-38.98082 c -0.9668,-0.53645 -2.54883,-0.98435 -3.51562,-0.99534 -2.60898,-0.0296 -4.92188,-0.77204 -4.92188,-1.57984 0,-1.10543 8.38934,0.0782 10.27887,1.45016 2.97537,2.16043 1.57098,3.01848 -1.84137,1.12502 z m 8.4375,-0.17188 c 0,-0.82316 4.03204,-4.33985 4.97583,-4.33985 1.45675,0 0.49402,1.8469 -1.64043,3.14699 -3.15214,1.91997 -3.3354,1.98551 -3.3354,1.19286 z m -4.20708,-12.54298 c 0.0304,-1.52521 3.41963,-9.69845 4.11829,-9.93134 0.43556,-0.14518 0.77311,0.1579 0.75012,0.67354 -0.0867,1.94392 -3.15856,9.28081 -4.00117,9.55634 -0.4834,0.15807 -0.87365,0.0237 -0.86724,-0.29854 z m -6.33979,-3.19922 c 0,-1.3084 -0.34842,-2.72731 -0.77426,-3.15315 -1.0197,-1.01971 -0.11287,-5.132 1.13171,-5.132 0.59473,0 0.96157,0.85282 0.98297,2.28516 0.0188,1.25683 0.12036,3.52123 0.22576,5.032 0.1198,1.71724 -0.13781,2.85931 -0.68728,3.04687 -0.58905,0.20109 -0.8789,-0.48448 -0.8789,-2.07888 z m -10.12009,-0.25672 c -1.12434,-2.92999 -0.0387,-11.54406 1.45489,-11.54406 0.772,0 0.87938,0.59001 0.47987,2.63672 -0.28307,1.4502 -0.49938,4.29785 -0.48067,6.32813 0.0334,3.6265 -0.61254,4.77225 -1.45409,2.57921 z m -17.92538,-39.37608 c -0.86418,-1.09862 -1.48578,-2.90998 -1.48578,-4.32958 0,-1.61747 -0.67718,-3.30493 -2.00764,-5.00284 -2.74986,-3.50935 -3.79678,-5.65071 -3.34201,-6.83581 0.55373,-1.443 1.83402,-1.2298 1.83402,0.3054 0,0.71782 1.13636,2.79338 2.52524,4.61233 1.69282,2.21702 2.67898,4.3943 2.99165,6.60502 0.35184,2.48768 0.85488,3.4686 2.04772,3.99302 1.73134,0.76119 1.73942,1.99476 0.0152,2.32931 -0.60096,0.11662 -1.76126,-0.63797 -2.57845,-1.67685 z m 23.75221,0.58593 c -0.20218,-1.43104 0.28552,-4.87713 0.8361,-5.90784 0.34132,-0.63896 2.15436,-2.28764 4.02898,-3.66374 3.20404,-2.35198 3.99659,-3.58141 6.52119,-10.11592 0.67986,-1.75971 2.04761,-2.14292 2.04761,-0.57369 0,0.55459 -0.81729,2.89287 -1.81621,5.19619 -1.38292,3.18874 -2.59909,4.74282 -5.09766,6.51405 -3.97778,2.81984 -4.07693,2.95634 -4.62164,6.36276 -0.23883,1.49354 -0.7469,2.71553 -1.12905,2.71553 -0.38215,0 -0.72834,-0.2373 -0.76932,-0.52734 z M 370.77166,635.0371 c 0,-1.58808 5.44906,-6.05838 7.38483,-6.05838 2.35006,0 2.22966,1.1035 -0.2133,1.95512 -1.08301,0.37754 -2.90131,1.67411 -4.04069,2.88128 -2.2547,2.38886 -3.13084,2.73083 -3.13084,1.22198 z m -22.26387,-9.97282 c -0.50744,-1.3224 0.73684,-2.76446 1.81198,-2.09998 1.15896,0.71628 0.91648,3.20192 -0.31236,3.20192 -0.59222,0 -1.26705,-0.49587 -1.49962,-1.10194 z m 16.63887,-0.0354 c 0,-1.47705 5.11992,-6.59697 6.59696,-6.59697 1.78151,0 1.33132,1.90826 -0.56232,2.38353 -0.93486,0.23464 -2.3845,1.53457 -3.22141,2.88873 -1.6229,2.62591 -2.81323,3.18641 -2.81323,1.32471 z m -15.83411,-10.83805 c -0.27307,-0.44183 -0.16563,-1.13417 0.23873,-1.53854 0.94493,-0.94494 3.14799,-0.12072 2.76355,1.0339 -0.39136,1.1754 -2.38104,1.50984 -3.00228,0.50464 z"
       id="path4217"
       inkscape:connector-curvature="0" />
  </g>
  <g
     inkscape:groupmode="layer"
     id="layer7"
     inkscape:label="Glasses colour"
     sodipodi:insensitive="true"
     style="display:inline">
    <path
       inkscape:connector-curvature="0"
       style="display:inline;fill:#a5c4a4;fill-opacity:0.75294118"
       d="m 427.98283,336.22578 c -1.30078,-0.051 -2.23875,0.24967 -3.87048,0.98547 -3.14571,1.76448 -7.37936,4.88445 -10.66772,6.97739 -3.91509,2.52207 -4.09338,2.7646 -4.099,5.58326 -1.1e-4,0.0542 0.003,0.0934 0.003,0.14612 -0.11823,-2.52782 -0.59747,-3.23582 -2.54553,-5.3921 -5.22209,-5.78022 -11.61921,-7.07125 -17.38476,-3.50793 -3.76106,2.81056 -7.12063,3.94673 -9.71522,6.23034 -4.83768,3.28521 -6.88647,6.79052 -6.9115,11.82679 -0.0137,2.76437 0.32702,3.4368 3.07398,6.06885 1.69907,1.628 5.16433,3.36835 6.90365,3.7778 3.89831,0.91771 6.49978,0.56908 9.86637,-0.41208 1.72774,-0.49014 6.39272,-0.68565 11.1825,-3.95459 3.94037,-2.69501 5.57336,-6.25896 5.57336,-12.16406 0,-0.51375 -0.003,-0.95451 -0.009,-1.37439 -0.0965,1.74364 2.07238,1.20093 5.90086,2.11043 5.99008,1.08529 6.94806,1.4646 11.79026,5.98687 2.38192,2.47371 2.04954,3.74157 6.02067,3.74157 4.93327,0 7.1622,-1.34827 9.36365,-5.66346 2.03274,-3.98449 1.78426,-7.80665 -0.82397,-12.70019 -2.54344,-4.77197 -5.09781,-6.63838 -10.6897,-7.81129 -1.27046,-0.26647 -2.18144,-0.42422 -2.96192,-0.45483 z"
       id="path4941"
       sodipodi:nodetypes="cccccscccssccscccsssscc" />
  </g>
  <g
     inkscape:groupmode="layer"
     id="layer6"
     inkscape:label="Glasses front colour"
     sodipodi:insensitive="true"
     style="display:inline">
    <path
       style="display:inline;fill:#a5c4a4;fill-opacity:0.75294118"
       d="m 392.78069,364.61247 c -3.01768,-2.04931 -6.29372,-3.50556 -7.77263,-6.85149 -2.46009,-4.7909 -1.26896,-10.71274 2.07044,-14.72332 3.57823,-4.12349 10.08338,-5.21732 14.8102,-2.46361 2.8408,1.59701 5.33911,3.93837 6.99359,6.74479 0.82729,2.77578 0.5226,5.77873 0.26793,8.6265 -0.43155,4.26177 -3.3679,7.88352 -7.1572,9.72076 -3.02584,1.83141 -6.56054,1.0025 -9.21233,-1.05363 z m 34.07223,-5.47635 c -2.36168,-2.31937 -5.3903,-4.49298 -7.66356,-6.89816 -0.7452,-1.98478 -0.55642,-3.24379 -0.57543,-5.32896 0.12519,-3.70677 1.49848,-7.89989 5.13981,-9.52745 2.18298,-1.31943 4.79103,-1.39091 7.19087,-0.70128 3.89443,0.65113 7.73995,2.6082 9.73009,6.15431 2.56011,3.9332 4.31612,9.11118 2.13788,13.61208 -1.22145,2.91709 -3.47784,5.82549 -6.84103,6.19845 -2.48437,0.26415 -5.69375,0.74353 -7.41544,-1.55017 -0.55846,-0.66092 -1.09899,-1.33819 -1.70319,-1.95882 z"
       id="path4873"
       inkscape:connector-curvature="0"
       sodipodi:nodetypes="cccccccccccccccccc" />
  </g>
  <g
     inkscape:groupmode="layer"
     id="layer5"
     inkscape:label="Glasses outline"
     style="display:inline"
     sodipodi:insensitive="true">
    <path
       style="fill:#000000"
       d="m 381.3372,368.84551 c -2.72058,-1.10487 -5.15135,-2.74983 -6.84486,-4.63209 l -2.6261,-2.91879 -7.37607,2.8932 c -4.05682,1.59126 -8.63724,3.55057 -10.17869,4.35402 -2.92725,1.52576 -5.0055,1.58434 -5.48156,0.1545 -0.2963,-0.88995 4.9842,-3.94756 5.65645,-3.27529 0.38421,0.38419 15.82391,-5.12632 16.79229,-5.99325 0.26858,-0.24045 0.6799,-1.52966 0.91405,-2.86492 0.7312,-4.16976 3.07316,-7.36532 7.6171,-10.39334 6.39408,-4.26092 14.17808,-7.92327 16.8028,-7.90567 3.09144,0.0208 7.46857,2.13104 9.99285,4.81777 1.13583,1.20892 2.347,2.19804 2.6915,2.19804 0.3445,0 4.29934,-2.22539 8.78854,-4.94531 7.8073,-4.73029 8.3017,-4.92484 11.37099,-4.47448 6.8352,1.00293 10.08449,3.29793 13.35389,9.43194 1.93234,3.62545 2.26524,4.8922 1.97119,7.50094 -0.36714,3.25733 -2.79979,6.97427 -6.25076,9.55079 -2.1325,1.59214 -8.19201,1.85604 -9.11686,0.39706 -0.79454,-1.25341 -0.77315,-2.17242 0.0389,-1.67056 0.36009,0.22254 2.27289,0.44108 4.25067,0.48564 2.88621,0.065 3.94981,-0.24951 5.38867,-1.59359 4.37151,-4.08355 4.97129,-9.39828 1.70358,-15.09544 -2.45779,-4.28505 -4.51082,-5.74633 -9.56189,-6.8058 -7.33719,-1.53899 -11.0557,2.26276 -11.00386,11.25016 0.0194,3.35691 -0.21321,4.40615 -0.97667,4.40615 -1.19828,0 -1.42384,-7.23661 -0.31635,-10.14954 0.37715,-0.99197 0.54806,-1.80358 0.37982,-1.80358 -0.16824,0 -2.27065,1.24228 -4.67202,2.76063 l -4.36612,2.76064 0.16647,4.59189 c 0.23858,6.58109 -2.44073,11.4443 -7.84463,14.23877 -2.60348,1.34631 -13.47882,4.48068 -15.47315,4.4595 -0.86428,-0.009 -3.46984,-0.78767 -5.79016,-1.72999 z m 13.00781,-1.94806 c 0.68254,-0.18792 0.18633,-0.7124 -1.40625,-1.48641 -3.32149,-1.61425 -4.97221,-3.0705 -7.61319,-6.71626 -2.48408,-3.42917 -2.72956,-5.49586 -1.17587,-9.89946 0.58007,-1.64412 1.05468,-3.26258 1.05468,-3.59657 0,-0.33399 -1.97742,0.74278 -4.39428,2.39282 -4.57196,3.12138 -6.04399,5.24617 -6.92286,9.99281 -0.4986,2.69286 -0.38063,2.94709 2.77313,5.97656 4.23976,4.07266 9.54849,5.79733 13.81745,4.48891 1.54688,-0.47411 3.28711,-0.99269 3.86719,-1.1524 z m 9.28141,-3.55177 c 3.60041,-2.6619 4.78109,-5.36444 4.78109,-10.94378 0,-4.98203 -0.0199,-5.0346 -2.89736,-7.65138 -3.94283,-3.58563 -5.4302,-4.33867 -8.62719,-4.36779 -6.35906,-0.0579 -10.61559,4.11155 -11.4579,11.22356 -0.60362,5.09653 1.66879,8.49006 8.21682,12.27071 3.65589,2.11081 6.62454,1.95283 9.98454,-0.53132 z m -6.82079,-4.004 c -0.45078,-0.72938 4.51766,-8.41394 5.44953,-8.42866 1.08849,-0.0172 0.45095,1.71902 -1.97117,5.36811 -2.66836,4.02004 -2.80892,4.14373 -3.47836,3.06055 z m -3.86687,-5.05935 c 0,-1.41692 3.64309,-6.19014 4.72453,-6.19014 1.22467,0 1.13412,0.23303 -1.56047,4.01628 -2.13567,2.99851 -3.16406,3.70507 -3.16406,2.17386 z m 37.26562,-0.42244 c 0,-0.9849 5.3422,-5.81613 5.85937,-5.29895 0.27355,0.27354 -0.68071,1.70381 -2.12058,3.17837 -2.53654,2.59766 -3.73879,3.27955 -3.73879,2.12058 z m -2.10937,-4.0379 c 0,-1.01538 2.92738,-5.94855 3.52991,-5.94855 1.08079,0 0.80806,1.55365 -0.70971,4.04297 -1.20477,1.97598 -2.8202,3.0675 -2.8202,1.90558 z"
       id="path4805"
       inkscape:connector-curvature="0" />
  </g>
</svg>
