<?xml version="1.0" encoding="UTF-8" standalone="no"?>
<!-- Created with Inkscape (http://www.inkscape.org/) -->

<svg
   xmlns:dc="http://purl.org/dc/elements/1.1/"
   xmlns:cc="http://creativecommons.org/ns#"
   xmlns:rdf="http://www.w3.org/1999/02/22-rdf-syntax-ns#"
   xmlns:svg="http://www.w3.org/2000/svg"
   xmlns="http://www.w3.org/2000/svg"
   xmlns:sodipodi="http://sodipodi.sourceforge.net/DTD/sodipodi-0.dtd"
   xmlns:inkscape="http://www.inkscape.org/namespaces/inkscape"
   width="214mm"
   height="214mm"
   viewBox="0 0 758.26772 758.26771"
   id="svg2"
   version="1.1"
   inkscape:version="0.91 r13725"
   sodipodi:docname="farnsworth-laser-glasses-back.svg"
   enable-background="new">
  <defs
     id="defs4">
    <clipPath
       id="clipPath4254"
       clipPathUnits="userSpaceOnUse">
      <path
         inkscape:connector-curvature="0"
         id="path4256"
         d="m 0,634.961 606.614,0 L 606.614,0 0,0 0,634.961 Z" />
    </clipPath>
  </defs>
  <sodipodi:namedview
     id="base"
     pagecolor="#6d6d6d"
     bordercolor="#898989"
     borderopacity="1"
     inkscape:pageopacity="1"
     inkscape:pageshadow="2"
     inkscape:zoom="2.0467705"
     inkscape:cx="359.59088"
     inkscape:cy="338.49143"
     inkscape:document-units="px"
     inkscape:current-layer="layer7"
     showgrid="false"
     inkscape:window-width="3070"
     inkscape:window-height="1752"
     inkscape:window-x="130"
     inkscape:window-y="48"
     inkscape:window-maximized="1"
     borderlayer="true"
     showguides="true"
     inkscape:guide-bbox="true" />
  <metadata
     id="metadata7">
    <rdf:RDF>
      <cc:Work
         rdf:about="">
        <dc:format>image/svg+xml</dc:format>
        <dc:type
           rdf:resource="http://purl.org/dc/dcmitype/StillImage" />
        <dc:title />
      </cc:Work>
    </rdf:RDF>
  </metadata>
  <g
     inkscape:groupmode="layer"
     id="layer8"
     inkscape:label="Cut lines"
     style="display:inline" />
  <g
     inkscape:groupmode="layer"
     id="layer4"
     inkscape:label="Torso color"
     style="display:inline" />
  <g
     inkscape:groupmode="layer"
     id="layer3"
     inkscape:label="Body color"
     style="display:inline">
    <path
       style="fill:#000000"
       d=""
       id="path4548"
       inkscape:connector-curvature="0" />
    <path
       style="fill:#000000"
       d=""
       id="path4546"
       inkscape:connector-curvature="0" />
  </g>
  <g
     inkscape:label="Body outline"
     inkscape:groupmode="layer"
     id="layer1"
     transform="translate(0,-294.09449)"
     style="display:inline" />
  <g
     inkscape:groupmode="layer"
     id="layer7"
     inkscape:label="Glasses colour"
     style="display:inline">
    <g
       id="g6484">
      <path
         sodipodi:nodetypes="cccccscccssccscccsssscc"
         id="path4941"
         d="m 330.28489,336.22578 c 1.30078,-0.051 2.23875,0.24967 3.87048,0.98547 3.14571,1.76448 7.37936,4.88445 10.66772,6.97739 3.91509,2.52207 4.09338,2.7646 4.099,5.58326 1.1e-4,0.0542 -0.003,0.0934 -0.003,0.14612 0.11823,-2.52782 0.59747,-3.23582 2.54553,-5.3921 5.22209,-5.78022 11.61921,-7.07125 17.38476,-3.50793 3.76106,2.81056 7.12063,3.94673 9.71522,6.23034 4.83768,3.28521 6.88647,6.79052 6.9115,11.82679 0.0137,2.76437 -0.32702,3.4368 -3.07398,6.06885 -1.69907,1.628 -5.16433,3.36835 -6.90365,3.7778 -3.89831,0.91771 -6.49978,0.56908 -9.86637,-0.41208 -1.72774,-0.49014 -6.39272,-0.68565 -11.1825,-3.95459 -3.94037,-2.69501 -5.57336,-6.25896 -5.57336,-12.16406 0,-0.51375 0.003,-0.95451 0.009,-1.37439 0.0965,1.74364 -2.07238,1.20093 -5.90086,2.11043 -5.99008,1.08529 -6.94806,1.4646 -11.79026,5.98687 -2.38192,2.47371 -2.04954,3.74157 -6.02067,3.74157 -4.93327,0 -7.1622,-1.34827 -9.36365,-5.66346 -2.03274,-3.98449 -1.78426,-7.80665 0.82397,-12.70019 2.54344,-4.77197 5.09781,-6.63838 10.6897,-7.81129 1.27046,-0.26647 2.18144,-0.42422 2.96192,-0.45483 z"
         style="display:inline;fill:#000000;fill-opacity:1"
         inkscape:connector-curvature="0" />
      <g
         id="g6155"
         style="display:inline;fill:none;stroke:#0000ff;stroke-opacity:1;stroke-width:0.50126151;stroke-miterlimit:4;stroke-dasharray:none"
         transform="matrix(0.99748333,0,0,0.99748333,0.95415278,0.95415278)">
        <path
           style="display:inline;fill:none;fill-opacity:1;stroke:#0000ff;stroke-width:0.50126151;stroke-linecap:butt;stroke-linejoin:miter;stroke-miterlimit:4;stroke-dasharray:none;stroke-opacity:1"
           d="m 733.24616,562.73393 25.02163,0 0,-191.30027 c -8.43417,0.0302 -16.62065,-0.0781 -25.02163,-0.0781 z"
           id="path5451"
           inkscape:connector-curvature="0"
           sodipodi:nodetypes="ccccc" />
        <path
           style="display:inline;fill:none;fill-opacity:1;stroke:#0000ff;stroke-width:0.50126151;stroke-linecap:butt;stroke-linejoin:miter;stroke-miterlimit:4;stroke-dasharray:none;stroke-opacity:1"
           d="m 24.8028,371.43066 c -8.38517,0.0255 -16.34676,0.15025 -24.79297,0.15025 -0.0366,60.4217 0.0818,130.70714 0.15235,191.15302 l 24.64062,0 z"
           id="path5447"
           inkscape:connector-curvature="0"
           sodipodi:nodetypes="ccccc" />
        <path
           style="display:inline;opacity:0.68300003;fill:none;fill-opacity:1;stroke:#0000ff;stroke-width:0.50126151;stroke-linecap:round;stroke-linejoin:round;stroke-miterlimit:4;stroke-dasharray:none;stroke-opacity:1"
           d="m 7e-5,-17.71673 c -9.81496,0 -17.7168,7.9018368 -17.7168,17.7167973 l 0,758.2675827 c 0,9.81496 7.90184,17.7168 17.7168,17.7168 l 758.26758,0 c 9.81496,-1e-5 17.7168,-7.90184 17.7168,-17.7168 0,-73.2168 0,-219.65039 0,-219.65039 0,-63.83892 0,-117.5771 0,-180.99805 l 0,-357.6191427 c -1e-5,-9.8149605 -7.90184,-17.7167973 -17.7168,-17.7167973 z"
           id="rect7661"
           inkscape:connector-curvature="0" />
        <path
           style="display:inline;opacity:1;fill:none;fill-opacity:1;stroke:#0000ff;stroke-width:0.50126151;stroke-linecap:round;stroke-linejoin:round;stroke-miterlimit:4;stroke-dasharray:none;stroke-opacity:1"
           d="m 8.8594363,3.1895243 c 3.1312537,0 5.6699237,2.536719 5.6699237,5.667969 0,3.1312447 -2.53867,5.6699247 -5.6699237,5.6699247 -3.13125,0 -5.66992,-2.53868 -5.66992,-5.6699247 0,-3.13125 2.53867,-5.667969 5.66992,-5.667969 z"
           id="path5469"
           inkscape:connector-curvature="0" />
        <path
           style="display:inline;opacity:1;fill:none;fill-opacity:1;stroke:#0000ff;stroke-width:0.50126151;stroke-linecap:round;stroke-linejoin:round;stroke-miterlimit:4;stroke-dasharray:none;stroke-opacity:1"
           d="m 749.41025,3.1895243 c 3.1312,0 5.6679,2.536719 5.6679,5.667969 0,3.1312447 -2.5367,5.6699247 -5.6679,5.6699247 -3.1313,0 -5.67,-2.53868 -5.67,-5.6699247 0,-3.13125 2.5387,-5.667969 5.67,-5.667969 z"
           id="path5467"
           inkscape:connector-curvature="0" />
        <path
           style="display:inline;opacity:1;fill:none;fill-opacity:1;stroke:#0000ff;stroke-width:0.50126151;stroke-linecap:round;stroke-linejoin:round;stroke-miterlimit:4;stroke-dasharray:none;stroke-opacity:1"
           d="m 8.8594363,743.7403 c 3.1312537,0 5.6699237,2.53873 5.6699237,5.66993 0,3.1313 -2.53867,5.66796 -5.6699237,5.66796 -3.13125,0 -5.66992,-2.53666 -5.66992,-5.66796 0,-3.1312 2.53867,-5.66993 5.66992,-5.66993 z"
           id="path5465"
           inkscape:connector-curvature="0" />
        <path
           style="display:inline;opacity:1;fill:none;fill-opacity:1;stroke:#0000ff;stroke-width:0.50126151;stroke-linecap:round;stroke-linejoin:round;stroke-miterlimit:4;stroke-dasharray:none;stroke-opacity:1"
           d="m 749.41025,743.7403 c 3.1312,0 5.6679,2.53873 5.6679,5.66993 0,3.1313 -2.5367,5.66796 -5.6679,5.66796 -3.1313,0 -5.668,-2.53666 -5.668,-5.66796 0,-3.1312 2.5367,-5.66993 5.668,-5.66993 z"
           id="path6019-2"
           inkscape:connector-curvature="0" />
        <path
           style="display:inline;fill:none;fill-opacity:1;stroke:#0000ff;stroke-width:0.50126151;stroke-linecap:butt;stroke-linejoin:miter;stroke-miterlimit:4;stroke-dasharray:none;stroke-opacity:1"
           d="m 379.13387,755.07825 c -3.13125,0 -5.66875,-2.5375 -5.66875,-5.6688 0,-3.1312 2.5375,-5.6687 5.66875,-5.6687 3.13125,0 5.67,2.5375 5.67,5.6687 0,3.1313 -2.53875,5.6688 -5.67,5.6688 z"
           id="path5510"
           inkscape:connector-curvature="0" />
      </g>
    </g>
  </g>
  <g
     inkscape:groupmode="layer"
     id="layer6"
     inkscape:label="Glasses front colour"
     style="display:inline" />
  <g
     inkscape:groupmode="layer"
     id="layer5"
     inkscape:label="Glasses outline"
     style="display:inline" />
</svg>
