<?xml version="1.0" encoding="UTF-8" standalone="no"?>
<!-- Created with Inkscape (http://www.inkscape.org/) -->

<svg
   xmlns:dc="http://purl.org/dc/elements/1.1/"
   xmlns:cc="http://creativecommons.org/ns#"
   xmlns:rdf="http://www.w3.org/1999/02/22-rdf-syntax-ns#"
   xmlns:svg="http://www.w3.org/2000/svg"
   xmlns="http://www.w3.org/2000/svg"
   xmlns:sodipodi="http://sodipodi.sourceforge.net/DTD/sodipodi-0.dtd"
   xmlns:inkscape="http://www.inkscape.org/namespaces/inkscape"
   width="214mm"
   height="214mm"
   viewBox="0 0 758.26772 758.26771"
   id="svg2"
   version="1.1"
   inkscape:version="0.91 r13725"
   sodipodi:docname="farnsworth-base.svg"
   enable-background="new">
  <defs
     id="defs4">
    <clipPath
       id="clipPath4254"
       clipPathUnits="userSpaceOnUse">
      <path
         inkscape:connector-curvature="0"
         id="path4256"
         d="m 0,634.961 606.614,0 L 606.614,0 0,0 0,634.961 Z" />
    </clipPath>
  </defs>
  <sodipodi:namedview
     id="base"
     pagecolor="#6d6d6d"
     bordercolor="#898989"
     borderopacity="1"
     inkscape:pageopacity="1"
     inkscape:pageshadow="2"
     inkscape:zoom="1"
     inkscape:cx="175.14922"
     inkscape:cy="473.87402"
     inkscape:document-units="px"
     inkscape:current-layer="layer9"
     showgrid="false"
     inkscape:window-width="3070"
     inkscape:window-height="1752"
     inkscape:window-x="130"
     inkscape:window-y="48"
     inkscape:window-maximized="1"
     borderlayer="true"
     showguides="true"
     inkscape:guide-bbox="true">
    <sodipodi:guide
       position="266.00001,453.00001"
       orientation="0,1"
       id="guide4905" />
  </sodipodi:namedview>
  <metadata
     id="metadata7">
    <rdf:RDF>
      <cc:Work
         rdf:about="">
        <dc:format>image/svg+xml</dc:format>
        <dc:type
           rdf:resource="http://purl.org/dc/dcmitype/StillImage" />
        <dc:title></dc:title>
      </cc:Work>
    </rdf:RDF>
  </metadata>
  <g
     inkscape:groupmode="layer"
     id="layer9"
     inkscape:label="Back plate"
     style="display:inline" />
  <g
     inkscape:groupmode="layer"
     id="layer8"
     inkscape:label="Cut lines"
     style="display:inline"
     sodipodi:insensitive="true">
    <path
       inkscape:connector-curvature="0"
       id="path4260-7"
       style="display:inline;fill:none;fill-opacity:1;stroke:#ffffff;stroke-width:1.25;stroke-linecap:butt;stroke-linejoin:miter;stroke-miterlimit:10;stroke-dasharray:none;stroke-opacity:0.38422391"
       d="m 749.41011,384.80322 c -3.13125,0 -5.66875,-2.53875 -5.66875,-5.66875 0,-3.13125 2.5375,-5.67 5.66875,-5.67 3.13125,0 5.66875,2.53875 5.66875,5.67 0,3.13 -2.5375,5.66875 -5.66875,5.66875 z m 0,370.27503 c -3.13125,0 -5.66875,-2.5375 -5.66875,-5.6688 0,-3.1312 2.5375,-5.6687 5.66875,-5.6687 3.13125,0 5.66875,2.5375 5.66875,5.6687 0,3.1313 -2.5375,5.6688 -5.66875,5.6688 z m 0,-751.8887817 c 3.13125,0 5.66875,2.5375 5.66875,5.66875 0,3.1312497 -2.5375,5.6699997 -5.66875,5.6699997 -3.13125,0 -5.67,-2.53875 -5.67,-5.6699997 0,-3.13125 2.53875,-5.66875 5.67,-5.66875 z M 379.13386,755.07825 c -3.13125,0 -5.66875,-2.5375 -5.66875,-5.6688 0,-3.1312 2.5375,-5.6687 5.66875,-5.6687 3.13125,0 5.67,2.5375 5.67,5.6687 0,3.1313 -2.53875,5.6688 -5.67,5.6688 z M 8.8588583,384.80322 c -3.13125,0 -5.67,-2.53875 -5.67,-5.66875 0,-3.13125 2.53875,-5.67 5.67,-5.67 3.1312497,0 5.6699997,2.53875 5.6699997,5.67 0,3.13 -2.53875,5.66875 -5.6699997,5.66875 z m 0,370.27503 c -3.13125,0 -5.67,-2.5375 -5.67,-5.6688 0,-3.1312 2.53875,-5.6687 5.67,-5.6687 3.1312497,0 5.6699997,2.5375 5.6699997,5.6687 0,3.1313 -2.53875,5.6688 -5.6699997,5.6688 z m 0,-751.8887817 c 3.1312497,0 5.6699997,2.5375 5.6699997,5.66875 0,3.1312497 -2.53875,5.6699997 -5.6699997,5.6699997 -3.13125,0 -5.67,-2.53875 -5.67,-5.6699997 0,-3.13125 2.53875,-5.66875 5.67,-5.66875 z M 751.18136,-5.3173228e-4 l -744.0950017,0 c -3.8975,0 -7.08625003228,3.19000003228 -7.08625003228,7.08750003228 l 0,744.0937817 c 0,3.8975 3.18875003228,7.0875 7.08625003228,7.0875 l 744.0950017,0 c 3.8975,0 7.08625,-3.19 7.08625,-7.0875 l 0,-744.0937817 c 0,-3.8975 -3.18875,-7.08750003228 -7.08625,-7.08750003228 z" />
  </g>
  <g
     inkscape:groupmode="layer"
     id="layer4"
     inkscape:label="Torso color"
     style="display:inline" />
  <g
     inkscape:groupmode="layer"
     id="layer3"
     inkscape:label="Body color"
     style="display:inline">
    <path
       style="fill:#000000"
       d=""
       id="path4548"
       inkscape:connector-curvature="0" />
    <path
       style="fill:#000000"
       d=""
       id="path4546"
       inkscape:connector-curvature="0" />
  </g>
  <g
     inkscape:label="Body outline"
     inkscape:groupmode="layer"
     id="layer1"
     transform="translate(0,-294.09449)"
     style="display:inline" />
  <g
     inkscape:groupmode="layer"
     id="layer7"
     inkscape:label="Glasses colour"
     style="display:inline" />
  <g
     inkscape:groupmode="layer"
     id="layer6"
     inkscape:label="Glasses front colour"
     style="display:inline" />
  <g
     inkscape:groupmode="layer"
     id="layer5"
     inkscape:label="Glasses outline"
     style="display:inline" />
</svg>
