<?xml version="1.0" encoding="UTF-8" standalone="no"?>
<!-- Created with Inkscape (http://www.inkscape.org/) -->

<svg
   xmlns:dc="http://purl.org/dc/elements/1.1/"
   xmlns:cc="http://creativecommons.org/ns#"
   xmlns:rdf="http://www.w3.org/1999/02/22-rdf-syntax-ns#"
   xmlns:svg="http://www.w3.org/2000/svg"
   xmlns="http://www.w3.org/2000/svg"
   xmlns:sodipodi="http://sodipodi.sourceforge.net/DTD/sodipodi-0.dtd"
   xmlns:inkscape="http://www.inkscape.org/namespaces/inkscape"
   width="214mm"
   height="214mm"
   viewBox="0 0 758.26772 758.26771"
   id="svg2"
   version="1.1"
   inkscape:version="0.91 r13725"
   sodipodi:docname="farnsworth-glasses-front.svg"
   enable-background="new">
  <defs
     id="defs4">
    <clipPath
       id="clipPath4254"
       clipPathUnits="userSpaceOnUse">
      <path
         inkscape:connector-curvature="0"
         id="path4256"
         d="m 0,634.961 606.614,0 L 606.614,0 0,0 0,634.961 Z" />
    </clipPath>
  </defs>
  <sodipodi:namedview
     id="base"
     pagecolor="#6d6d6d"
     bordercolor="#898989"
     borderopacity="1"
     inkscape:pageopacity="1"
     inkscape:pageshadow="2"
     inkscape:zoom="2"
     inkscape:cx="201.97518"
     inkscape:cy="371.22812"
     inkscape:document-units="px"
     inkscape:current-layer="layer6"
     showgrid="false"
     inkscape:window-width="3070"
     inkscape:window-height="1752"
     inkscape:window-x="130"
     inkscape:window-y="48"
     inkscape:window-maximized="1"
     borderlayer="true"
     showguides="true"
     inkscape:guide-bbox="true">
    <sodipodi:guide
       position="266.00001,453.00001"
       orientation="0,1"
       id="guide4905" />
  </sodipodi:namedview>
  <metadata
     id="metadata7">
    <rdf:RDF>
      <cc:Work
         rdf:about="">
        <dc:format>image/svg+xml</dc:format>
        <dc:type
           rdf:resource="http://purl.org/dc/dcmitype/StillImage" />
        <dc:title />
      </cc:Work>
    </rdf:RDF>
  </metadata>
  <g
     inkscape:groupmode="layer"
     id="layer8"
     inkscape:label="Cut lines"
     style="display:inline">
    <path
       inkscape:connector-curvature="0"
       id="path4260-7"
       style="display:inline;fill:none;fill-opacity:1;stroke:#ffffff;stroke-width:1.25;stroke-linecap:butt;stroke-linejoin:miter;stroke-miterlimit:10;stroke-dasharray:none;stroke-opacity:0.38422391"
       d="m 749.41011,384.80322 c -3.13125,0 -5.66875,-2.53875 -5.66875,-5.66875 0,-3.13125 2.5375,-5.67 5.66875,-5.67 3.13125,0 5.66875,2.53875 5.66875,5.67 0,3.13 -2.5375,5.66875 -5.66875,5.66875 z m 0,370.27503 c -3.13125,0 -5.66875,-2.5375 -5.66875,-5.6688 0,-3.1312 2.5375,-5.6687 5.66875,-5.6687 3.13125,0 5.66875,2.5375 5.66875,5.6687 0,3.1313 -2.5375,5.6688 -5.66875,5.6688 z m 0,-751.8887817 c 3.13125,0 5.66875,2.5375 5.66875,5.66875 0,3.1312497 -2.5375,5.6699997 -5.66875,5.6699997 -3.13125,0 -5.67,-2.53875 -5.67,-5.6699997 0,-3.13125 2.53875,-5.66875 5.67,-5.66875 z M 379.13386,755.07825 c -3.13125,0 -5.66875,-2.5375 -5.66875,-5.6688 0,-3.1312 2.5375,-5.6687 5.66875,-5.6687 3.13125,0 5.67,2.5375 5.67,5.6687 0,3.1313 -2.53875,5.6688 -5.67,5.6688 z M 8.8588583,384.80322 c -3.13125,0 -5.67,-2.53875 -5.67,-5.66875 0,-3.13125 2.53875,-5.67 5.67,-5.67 3.1312497,0 5.6699997,2.53875 5.6699997,5.67 0,3.13 -2.53875,5.66875 -5.6699997,5.66875 z m 0,370.27503 c -3.13125,0 -5.67,-2.5375 -5.67,-5.6688 0,-3.1312 2.53875,-5.6687 5.67,-5.6687 3.1312497,0 5.6699997,2.5375 5.6699997,5.6687 0,3.1313 -2.53875,5.6688 -5.6699997,5.6688 z m 0,-751.8887817 c 3.1312497,0 5.6699997,2.5375 5.6699997,5.66875 0,3.1312497 -2.53875,5.6699997 -5.6699997,5.6699997 -3.13125,0 -5.67,-2.53875 -5.67,-5.6699997 0,-3.13125 2.53875,-5.66875 5.67,-5.66875 z M 751.18136,-5.3173228e-4 l -744.0950017,0 c -3.8975,0 -7.08625003228,3.19000003228 -7.08625003228,7.08750003228 l 0,744.0937817 c 0,3.8975 3.18875003228,7.0875 7.08625003228,7.0875 l 744.0950017,0 c 3.8975,0 7.08625,-3.19 7.08625,-7.0875 l 0,-744.0937817 c 0,-3.8975 -3.18875,-7.08750003228 -7.08625,-7.08750003228 z" />
  </g>
  <g
     inkscape:groupmode="layer"
     id="layer4"
     inkscape:label="Torso color"
     style="display:inline" />
  <g
     inkscape:groupmode="layer"
     id="layer3"
     inkscape:label="Body color"
     style="display:inline">
    <path
       style="fill:#000000"
       d=""
       id="path4548"
       inkscape:connector-curvature="0" />
    <path
       style="fill:#000000"
       d=""
       id="path4546"
       inkscape:connector-curvature="0" />
  </g>
  <g
     inkscape:label="Body outline"
     inkscape:groupmode="layer"
     id="layer1"
     transform="translate(0,-294.09449)"
     style="display:inline" />
  <g
     inkscape:groupmode="layer"
     id="layer7"
     inkscape:label="Glasses colour"
     style="display:inline" />
  <g
     inkscape:groupmode="layer"
     id="layer6"
     inkscape:label="Glasses front colour"
     style="display:inline">
    <path
       style="display:inline;fill:#000000;fill-opacity:0.75294118"
       d="m 392.78069,364.61247 c -3.01768,-2.04931 -6.29372,-3.50556 -7.77263,-6.85149 -2.46009,-4.7909 -1.26896,-10.71274 2.07044,-14.72332 3.57823,-4.12349 10.08338,-5.21732 14.8102,-2.46361 2.8408,1.59701 5.33911,3.93837 6.99359,6.74479 0.82729,2.77578 0.5226,5.77873 0.26793,8.6265 -0.43155,4.26177 -3.3679,7.88352 -7.1572,9.72076 -3.02584,1.83141 -6.56054,1.0025 -9.21233,-1.05363 z m 34.07223,-5.47635 c -2.36168,-2.31937 -5.3903,-4.49298 -7.66356,-6.89816 -0.7452,-1.98478 -0.55642,-3.24379 -0.57543,-5.32896 0.12519,-3.70677 1.49848,-7.89989 5.13981,-9.52745 2.18298,-1.31943 4.79103,-1.39091 7.19087,-0.70128 3.89443,0.65113 7.73995,2.6082 9.73009,6.15431 2.56011,3.9332 4.31612,9.11118 2.13788,13.61208 -1.22145,2.91709 -3.47784,5.82549 -6.84103,6.19845 -2.48437,0.26415 -5.69375,0.74353 -7.41544,-1.55017 -0.55846,-0.66092 -1.09899,-1.33819 -1.70319,-1.95882 z"
       id="path4873"
       inkscape:connector-curvature="0"
       sodipodi:nodetypes="cccccccccccccccccc" />
  </g>
  <g
     inkscape:groupmode="layer"
     id="layer5"
     inkscape:label="Glasses outline"
     style="display:inline" />
</svg>
